<svg xmlns="http://www.w3.org/2000/svg" xmlns:xlink="http://www.w3.org/1999/xlink" contentScriptType="application/ecmascript" contentStyleType="text/css" preserveAspectRatio="none" style="width:500px;height:375px;background:#fff;" version="1.1" viewBox="0 0 1000 1000" zoomAndPan="magnify"><style><![CDATA[.A{font-family:sans-serif}.B{fill:#00f;text-decoration:underline}.C{fill:none;stroke-dasharray:7.0,7.0}.D{font-size:12}.E{stroke:#a80036}.F{stroke-width:1}.G{font-style:italic}.H{font-weight:bold}.I{fill:#000}.J{font-size:11}]]></style><defs><filter id="" x="-1" y="-1"><feGaussianBlur result="blurOut" stdDeviation="2.0"/><feColorMatrix in="blurOut" result="blurOut2" type="matrix" values="0 0 0 0 0 0 0 0 0 0 0 0 0 0 0 0 0 0 .4 0"/><feOffset dx="4" dy="4" in="blurOut2" result="blurOut3"/><feBlend in="SourceGraphic" in2="blurOut3" mode="normal"/></filter></defs><g><text lengthAdjust="spacing" textLength="19" x="87.5" y="30.5">«U»</text><a href="../logs.executionlog.html" target="_top" title="../logs.executionlog.html" xlink:actuate="onRequest" xlink:href="../logs.executionlog.html" xlink:show="new" xlink:title="../logs.executionlog.html" xlink:type="simple"><text lengthAdjust="spacing" textLength="114" x="40" y="44.9">logs.ExecutionLog - U</text></a><path d="M76 139h236M16 533h356M596 122h376M446 499h380M362 875h548" stroke-width="1.5"/><text><tspan lengthAdjust="spacing" textLength="10" x="57" y="67.3">id</tspan><tspan lengthAdjust="spacing" textLength="39" x="70" y="67.3">: (bigint)</tspan></text><path d="M76 196h236M16 555h356M596 214h376M446 589h380M362 896h548"/><text lengthAdjust="spacing" textLength="18" x="88" y="178">«P»</text><a href="../logs.usp_executionlog_insert.html" target="_top" title="../logs.usp_executionlog_insert.html" xlink:actuate="onRequest" xlink:href="../logs.usp_executionlog_insert.html" xlink:show="new" xlink:title="../logs.usp_executionlog_insert.html" xlink:type="simple"><text lengthAdjust="spacing" textLength="174" x="10" y="192.4">logs.usp_ExecutionLog_insert - P</text></a><text lengthAdjust="spacing" textLength="19" x="382.5" y="24">«U»</text><a href="../ssas.tmschema_tables.html" target="_top" title="../ssas.tmschema_tables.html" xlink:actuate="onRequest" xlink:href="../ssas.tmschema_tables.html" xlink:show="new" xlink:title="../ssas.tmschema_tables.html" xlink:type="simple"><text lengthAdjust="spacing" textLength="171" x="306.5" y="38.4">ssas.TMSCHEMA_TABLES - U</text></a><text><tspan lengthAdjust="spacing" textLength="77" x="317.5" y="60.8">databasename</tspan><tspan lengthAdjust="spacing" textLength="83" x="397.5" y="60.8">: (nvarchar(128))</tspan><tspan lengthAdjust="spacing" textLength="11" x="317.5" y="74">ID</tspan><tspan lengthAdjust="spacing" textLength="85" x="331.5" y="74">: (numeric(20, 0))</tspan></text><text lengthAdjust="spacing" textLength="19" x="308.5" y="165">«U»</text><a href="../ssas.tmschema_tables_t.html" target="_top" title="../ssas.tmschema_tables_t.html" xlink:actuate="onRequest" xlink:href="../ssas.tmschema_tables_t.html" xlink:show="new" xlink:title="../ssas.tmschema_tables_t.html" xlink:type="simple"><text lengthAdjust="spacing" textLength="186" x="225" y="179.4">ssas.TMSCHEMA_TABLES_T - U</text></a><text><tspan lengthAdjust="spacing" textLength="77" x="242" y="201.8">databasename</tspan><tspan lengthAdjust="spacing" textLength="83" x="322" y="201.8">: (nvarchar(128))</tspan><tspan lengthAdjust="spacing" textLength="11" x="242" y="215">ID</tspan><tspan lengthAdjust="spacing" textLength="85" x="256" y="215">: (numeric(20, 0))</tspan></text><text lengthAdjust="spacing" textLength="18" x="309" y="306">«P»</text><a href="../ssas.usp_persist_tmschema_tables_t.html" target="_top" title="../ssas.usp_persist_tmschema_tables_t.html" xlink:actuate="onRequest" xlink:href="../ssas.usp_persist_tmschema_tables_t.html" xlink:show="new" xlink:title="../ssas.usp_persist_tmschema_tables_t.html" xlink:type="simple"><text lengthAdjust="spacing" textLength="270" x="183" y="320.4">ssas.usp_PERSIST_TMSCHEMA_TABLES_T - P</text></a><path codeLine="53" d="M194 232c0 63 0 141 0 197"/><path d="M194 218l-8 24 8-11 8 11-8-24zm93 358 12 21-3-15 11-4-20-3zM742 235l-16 16 11-4 3 14 1-26zm88 0 1 26 4-14 11 5-16-16zM636 611l-8 24 8-11 8 11-8-24z" fill="#a80036"/><path codeLine="54" d="M296 583c74 57 175 133 247 187"/><path codeLine="55" d="M737 247c-19 47-40 101-58 146"/><path codeLine="56" d="M834 248c36 101 70 247 28 363-25 68-73 121-119 160"/><path codeLine="57" d="M636 624c0 49 0 104 0 146"/><text fill="#888" font-size="10" lengthAdjust="spacing" textLength="191" x="148.2" y="366.8">The diagram is interactive and contains links.</text></g></svg>