<svg xmlns="http://www.w3.org/2000/svg" viewBox="0 0 216.00 144.00"><style><![CDATA[.A{stroke-width:1.07}.B{stroke:#fff}.C{fill:#4d4d4d;font-size:8.80px}.D{font-family:Arial}.E{stroke-width:0.53}.F{stroke:#333}.G{font-size:11.00px}.H{stroke:none}.I{fill:#fff}]]></style><defs><style type="text/css">
    line, polyline, path, rect, circle {
      fill: none;
      stroke: #000;
      stroke-linecap: round;
      stroke-linejoin: round;
      stroke-miterlimit: 10.00;
    }
  </style></defs><rect width="100%" height="100%" class="H I"/><path d="M0 0h216v144h-216z" class="A B I"/><defs><clipPath id="cpNDYuMTg"><path d="M46.2 5.5h164v106h-164zM0 0h216v144h-216z"/></clipPath></defs><path d="M46.2 5.5h164v106h-164z" style="fill: #ebebeb" clip-path="url(#cpNDYuMTg3N3wyMTAuNTIxfDExMS4yNTd8NS40Nzk0NQ==)" class="A H"/><path d="M46.2 97.8 210.5 97.8M46.2 70.2 210.5 70.2M46.2 42.6 210.5 42.6M46.2 15.1 210.5 15.1M57.5 111.3 57.5 5.5M96.5 111.3 96.5 5.5M136.2 111.3 136.2 5.5M176.4 111.3 176.4 5.5" clip-path="url(#cpNDYuMTg3N3wyMTAuNTIxfDExMS4yNTd8NS40Nzk0NQ==)" class="B E"/><path d="M46.2 84 210.5 84M46.2 56.4 210.5 56.4M46.2 28.9 210.5 28.9M77 111.3 77 5.5M116 111.3 116 5.5M156.3 111.3 156.3 5.5M196.6 111.3 196.6 5.5" clip-path="url(#cpNDYuMTg3N3wyMTAuNTIxfDExMS4yNTd8NS40Nzk0NQ==)" class="A B"/><path d="M53.7 79.9 55 68.5 56.3 78 57.5 75.6 58.9 76.9 60.1 77.2 61.5 79.2 62.8 90.6 64 93.5 65.3 87.6 66.7 88.5 68 85.5 69.2 84.3 70.5 85.9 71.8 83.7 73.1 71.5 74.4 88.4 75.7 86.8 77 88.2 78.3 88.4 79.6 87.9 80.9 103.9 82.2 98.7 83.5 106.5 84.8 97.1 86.1 94.9 87.4 94.7 88.7 94.5 90 94.9 91.3 89.2 92.6 88.3 93.9 68 95.2 64.1 96.5 64.1 97.8 63 99.1 55.6 100.4 52.8 101.7 49.2 103 50.1 104.3 63.3 105.6 63.3 106.9 62.6 108.2 56.8 109.5 53.3 110.8 43 112.1 44.3 113.4 55.1 114.7 55.5 116 54.7 117.3 42.4 118.6 50.6 119.9 50.8 121.2 52.2 122.5 60.9 123.8 61.5 125.1 62.1 126.4 68.9 127.7 58.1 129 47.9 130.3 56.2 131.6 59.8 132.9 59.4 134.2 58.6 135.5 57.7 136.8 50.4 138.1 54.6 139.4 47.3 140.7 57.6 142 57.8 143.3 61.3 144.6 50.9 145.9 60.1 147.2 66.7 148.5 51.1 149.8 54.7 151.1 54.9 152.4 54.6 153.7 56.5 155 58.8 156.3 56 157.6 47 158.9 55.1 160.2 55.1 161.5 53.7 162.8 52.2 164.1 60 165.4 60.3 166.7 49.4 168 35.1 169.3 35.1 170.6 31.9 171.9 27.4 173.2 21.1 174.5 20.7 175.8 26 177.1 37.9 178.4 37.9 179.7 36.3 181 42 181 42 182.3 47.1 183.6 41.4 184.9 22.8 186.2 40.1 187.5 40.1 188.8 43.3 190.1 44.6 191.4 43.7 192.7 36.8 194 26.6 195.3 11.6 196.6 12.2 197.8 11.2 199.2 15.2 200.4 10.3 201.8 12.5 203.1 11.5" clip-path="url(#cpNDYuMTg3N3wyMTAuNTIxfDExMS4yNTd8NS40Nzk0NQ==)" class="A"/><defs><clipPath id="cpMHwyMTZ"></clipPath></defs><g clip-path="url(#cpMHwyMTZ8MTQ0fDA=)"><text x="18.73" y="87.21" textLength="22.52px" lengthAdjust="spacingAndGlyphs" class="C D">1.325</text></g><g clip-path="url(#cpMHwyMTZ8MTQ0fDA=)"><text x="18.73" y="59.64" textLength="22.52px" lengthAdjust="spacingAndGlyphs" class="C D">1.350</text></g><g clip-path="url(#cpMHwyMTZ8MTQ0fDA=)"><text x="18.73" y="32.07" textLength="22.52px" lengthAdjust="spacingAndGlyphs" class="C D">1.375</text></g><path d="M43.5 84 46.2 84M43.5 56.4 46.2 56.4M43.5 28.9 46.2 28.9M77 114 77 111.3M116 114 116 111.3M156.3 114 156.3 111.3M196.6 114 196.6 111.3" clip-path="url(#cpMHwyMTZ8MTQ0fDA=)" class="A F"/><g clip-path="url(#cpMHwyMTZ8MTQ0fDA=)"><text x="69.79" y="122.63" textLength="14.51px" lengthAdjust="spacingAndGlyphs" class="C D">Jun</text></g><g clip-path="url(#cpMHwyMTZ8MTQ0fDA=)"><text x="110.26" y="122.63" textLength="11.50px" lengthAdjust="spacingAndGlyphs" class="C D">Jul</text></g><g clip-path="url(#cpMHwyMTZ8MTQ0fDA=)"><text x="148.28" y="122.63" textLength="16.01px" lengthAdjust="spacingAndGlyphs" class="C D">Aug</text></g><g clip-path="url(#cpMHwyMTZ8MTQ0fDA=)"><text x="188.55" y="122.63" textLength="16.01px" lengthAdjust="spacingAndGlyphs" class="C D">Sep</text></g><g clip-path="url(#cpMHwyMTZ8MTQ0fDA=)"><text x="117.65" y="135.88" textLength="21.41px" lengthAdjust="spacingAndGlyphs" class="D G">date</text></g><g clip-path="url(#cpMHwyMTZ8MTQ0fDA=)"><text transform="translate(13.3 70) rotate(-90)" textLength="23.22px" lengthAdjust="spacingAndGlyphs" class="D G">AUD</text></g></svg>