<svg xmlns="http://www.w3.org/2000/svg" width="24" height="24" fill="none" viewBox="0 0 24 24"><path stroke="#0f172a" stroke-linecap="round" stroke-linejoin="round" stroke-width="1.5" d="M12 12.75q1.72 0 3.38.24 1.72.34 1.87 2.01c0 3.73-2.35 6.75-5.25 6.75S6.75 18.73 6.75 15q.15-1.69 1.87-2.01a24 24 0 013.38-.24m0 0q4.35.02 8.21 1.44a24 24 0 01-1.15 6.06M12 12.75q-4.35.02-8.21 1.44.19 3.17 1.15 6.06m7.06-7.5a2.25 2.25 0 002.25-2.35M12 12.75a2.25 2.25 0 01-2.25-2.35M12 8.25q1.49 0 2.92-.24.66-.13.8-.76a4 4 0 00-.4-2.25M12 8.25q-1.49 0-2.92-.24-.66-.13-.8-.76A3.7 3.7 0 018.68 5M12 8.25a2.25 2.25 0 00-2.25 2.15M12 8.25a2.25 2.25 0 012.25 2.15M8.68 5a6 6 0 01-1.16-1q.11-.95.57-1.75M8.68 5a3.75 3.75 0 016.63 0m0 0 1.16-1a5 5 0 00-.57-1.75M4.92 6a24 24 0 00-.39 3.31 24 24 0 005.22 1.08M19.08 6q.31 1.62.39 3.31a24 24 0 01-5.22 1.08"/></svg>