<svg xmlns="http://www.w3.org/2000/svg" fill="none" viewBox="0 0 24 24" stroke-width="1.5" stroke="currentColor" aria-hidden="true" data-slot="icon"><path stroke-linecap="round" stroke-linejoin="round" d="M12 21a9 9 0 00 8.72-6.75M12 21a9 9 0 01-8.72-6.75M12 21c2.48 0 4.5-4.03 4.5-9S14.48 3 12 3m0 18c-2.48 0-4.5-4.03-4.5-9S9.52 3 12 3m0 0a9 9 0 01 7.84 4.58M12 3a9 9 0 00-7.84 4.58m15.69 0A11.95 11.95 0 01 12 10.5q-4.59-.1-7.84-2.92m15.69 0A8.96 8.96 0 01 21 12q-.01 1.17-.28 2.25m0 0A17.92 17.92 0 01 12 16.5q-4.79-.05-8.72-2.25m0 0A9.02 9.02 0 01 3 12q.03-2.43 1.16-4.42"/></svg>