<svg xmlns="http://www.w3.org/2000/svg" fill="none" viewBox="0 0 24 24" stroke-width="1.5" stroke="currentColor" aria-hidden="true" data-slot="icon"><path stroke-linecap="round" stroke-linejoin="round" d="M15.59 14.37a6 6 0 01-5.84 7.38v-4.8m5.84-2.58a14.98 14.98 0 00 6.16-12.12A14.98 14.98 0 00 9.63 8.41m5.96 5.96a14.93 14.93 0 01-5.84 2.58m-.12-8.54a6 6 0 00-7.38 5.84h4.8m2.58-5.84a14.93 14.93 0 00-2.58 5.84m2.7 2.7-.31.06a15.09 15.09 0 01-2.45-2.45 14.9 14.9 0 01.06-.31m-2.24 2.39a4.49 4.49 0 00-1.76 4.31 4.49 4.49 0 00 4.31-1.76M16.5 9a1.5 1.5 0 11-3 0 1.5 1.5 0 01 3 0Z"/></svg>