<svg xmlns="http://www.w3.org/2000/svg" viewBox="0 0 72 72"><style><![CDATA[.A{fill:none;stroke:#000;stroke-linecap:round;stroke-linejoin:round;stroke-miterlimit:10;stroke-width:2}.B{fill:#ea5a47}.C{stroke:none}]]></style><g class="C"><path fill="#fff" d="M23.75 12.36l1.67 7.17-5.33 5.33-8.33 14.33 1 4.67 2.17 1.33 4-.17 3.5-3.33 6.83-1.83c0 0 1.33 1.5 2.17 3s3.67 4.17 3.67 4.17l.5 6-1.83 6.17-2 2.83c0 0 22 9.5 33.17-7l-.5-6-1.83-5-3.33-5.17-1-1.5-.17-5.17-2.83-5.33-5-3-2.67-4.5-5.17-4.17-6.5-1.5-5.67 1L26.1 12.52l-2.35-.16z"/><path d="M50.67 23.16l5.21 4.09c0 0 5.56 8.22-.33 17.82-7.05 11.49 0 0 0 0q-2.51 5.23-1.74 9.72L48.5 50.37v-16.08l2.17-11.13z" class="B"/><path d="M25.9 19.27 10.78 12.02l5.17 6.12L21.17 24l4.73-4.73" class="B"/><path fill="#92d3f5" d="M29.74 13.63l10.77.14c0 0 9.24 4.07 10.54 11.82l.69 8.96c-2.63 6.54-3.06 14.13 2.09 20.83h0c0 0-7.14 1.32-9.89-7.11l-1.6-4.77.33-6.03 1.42-5.64-.28-4.89-2.28-4.31L38 19.79l-5.79-2.08-2.47-4.08"/><path fill="#61b2e4" d="M58.45 36.75c0 0 5.52 6.41 7 15.12q.27 1.64-.14 3.26c-.43 1.75-.82 5 .15 7.38.47 1.16-.56 2.37-1.79 2.11-3.71-.77-9.24-3.65-10.26-8.09l-.04-.32-.27-5.75q-.02-.44.19-.82l3.69-6.84.15-.39 1.32-5.66"/></g><g><path d="M58.45 37.78c1.77 2.36 6.55 6.68 6.05 16.24M32.5 41.89c0 0 8.48 6.78 0 18.76M35.2 30.87c.55 8.36-9.32 9.7-11.95 10.33q-.5.12-.87.49l-2.22 2.22q-.55.54-1.32.55h-3.51c-1.2 0-2.27-.77-2.65-1.91l-.53-1.59q-.38-1.21.25-2.32L21.19 24l4.72-4.72-2.12-6.91c0 0 7.8-.7 8.41 5.33 0 0 16.93 2.44 10.55 19.38 0 0-1.62 5.95 2.38 11.18M30.92 14.02c0 0 22.24-4.02 19.96 19.96M49.92 23.16c0 0 14.77 6.59 5.46 22.22 0 0-5.38 6.56.62 13.6" class="A"/><path d="M24.81 19.13 10.25 11.75 21.17 24" class="A"/><circle cx="24.4" cy="28.9" r="2" fill="#000" class="C"/></g></svg>