<svg role="img" viewBox="0 0 1000 1000" xmlns="http://www.w3.org/2000/svg"><path d="M500 12C224 12 0 236 0 512c0 221 143 408 342 474q36 1 34-24 0-20 0-85C237 907 208 810 208 810c-24-57-57-73-57-73-45-31 3-30 3-30 50 3 77 52 77 52 45 76 117 54 146 42q9-48 32-67C298 722 181 679 181 487q2-82 52-134c-6-12-22-63 4-132 0 0 42-13 137 51q61-17 125-17 64 0 125 17c95-65 137-51 137-51 27 69 10 120 5 132q50 52 51 134c0 192-117 234-228 247q30 22 34 92 0 107 0 137-2 25 34 24c200-67 343-254 343-475C1000 236 776 12 500 12"/></svg>