<svg xmlns="http://www.w3.org/2000/svg" viewBox="0.0 0.0 24.0 24.0" fill="none" stroke="black" stroke-width=".3"><path stroke-opacity="1" filling="0" d="M19.31 1.21h0q1.29.17 2.41.83h0l.8 1.11C23.53 5.47 21.46 6.49 21 8.43v1.56q-.11.26-.36.36l-4.11 1.52-.83 3.84-.82 3.83v2.89q-.11.25-.36.37h-6.84q-.26-.12-.36-.37v-2.56h-3.24l-.36-.31-.69-4.92-1.6-.65-.22-.42L2.73 6.83C3.5 4.27 5.39 2.81 7.58 2.31s4.67-.04 6.62 1.23l2.86-1.13q1.01-.82 2.25-1.2h0M19.31 1.94h0c2.6.28 3.45 2.4 1.91 4.48h0q-.62.78-.92 1.74h-.38v-1.96l-.34-.68-1.05-.81q-.12-.15.07-.21h2.04v-.74h-2.04q-1.29.43-.5 1.54l1.05.81.05.09v1.96h-.37C17.8 6.19 16.65 5.22 17.51 3.02l.02-.03q.77-.72 1.78-1.05h0M9.65 2.66h0c1.46.17 2.51.44 3.77 1.2L8.84 5.59l-.3 1.21L7.5 6.16 6.08 7.6l.63 1.07-1.19.3v2.04l1.19.3-.63 1.07 1.41 1.43 1.05-.64.3 1.21h2l.3-1.21 1.05.64 3.53-1.62-1.55 7.24-.01.08v2.56h-6.12v-2.37l3.08-2.09-.4-.6-3.15 2.13h-3.18l-.67-4.81-.23-.29-1.51-.62 1.45-6.4C4.1 5.67 4.9 4.66 5.92 3.95 6.93 3.24 8.15 2.82 9.65 2.66h0M16.5 3.42h0c-.33 1.38 0 2.13.69 3.32l-.66.27C16.07 5.97 15.49 4.99 14.8 4.09l1.7-.67M14.06 4.39h0q1.09 1.32 1.8 2.89l-2.7 1.07.44-.75L12.19 6.16l-1.05.64-.28-1.14 3.2-1.27M9.4 6.33h.88l.29 1.2.46.19 1.05-.64.62.63-.63 1.07.19.46 1.18.3v.89l-1.18.3-.19.46.63 1.07-.66.61-1.01-.61-.46.19-.29 1.2h-.88l-.29-1.2-.46-.19-1.05.63-.62-.63.63-1.06-.19-.47-1.18-.3v-.89l1.18-.3.19-.46L6.98 7.71l.62-.63 1.05.64.46-.2L9.4 6.33M17.75 7.31h0l.37 1.12v1.56l.29.35L16.72 11q.17-1.64 0-3.28l1.03-.41M16.04 7.99h0q.14 1.43-.03 2.86l-.1.48-2.37.94-.57-.96L14.16 11v-2.03l-.36-.09 2.24-.89M9.84 8.52h0q.57.13 1.02.43c.99 1.01.06 2.75-1.3 2.47C7.58 11.02 8.5 8.94 9.84 8.52h0M18.84 8.89h1.44v.73h-1.44v-.73M9.7 9.27h0c.9.09 1.27 1.34.14 1.45C8.82 10.82 9.13 9.58 9.7 9.27h0"/></svg>