<svg xmlns="http://www.w3.org/2000/svg" version="1.1" x="0" y="0" viewBox="0, 0, 420, 320"><style><![CDATA[.A{fill:#030302;font-family:HelveticaNeue-Bold}.B{font-size:14}.C{fill:rgba(0,0,0,0.75)}.D{fill-opacity:0}]]></style><defs><clipPath><path d="M5.5 135.5h410v178h-410zm402 10v158h-394v-158h394zm2-2h-398v162h398v-162zM4.5 3.5h410v78h-410zm402 10v58h-394v-58h394zm2-2h-398v62h398v-62z"/></clipPath><filter><feGaussianBlur in="SourceAlpha" stdDeviation="2.5"/><feOffset dx="0" dy="2" result="offsetblur"/><feFlood flood-color="#000"/><feComposite in2="offsetblur" operator="in"/></filter><clipPath/><filter><feGaussianBlur in="SourceAlpha" stdDeviation="2.5"/><feOffset dx="0" dy="2" result="offsetblur"/><feFlood flood-color="#000"/><feComposite in2="offsetblur" operator="in"/></filter></defs><g><g><path d="M409.5 143.5v162h-398v-162h398zm-2 2h-394v158h394v-158z" clip-path="url(#Clip_1)" filter="url(#Shadow_2)" class="C"/><path d="M12.5 144.5h396v160h-396v-160zM11.5 12.5h396v60h-396v-60z" stroke="#000" stroke-width="2" class="D"/></g><text transform="matrix(1, 0, 0, 1, 204, 42)" class="A B"><tspan x="-40.3" y="-4">Video Cloud</tspan><tspan x="-57.7" y="13">Ingestion System</tspan></text><g stroke="#322e2e" stroke-width="4"><path d="M204.5 72.5v55.6" class="D"/><path d="M199.7 128.1l4.8 12.8 4.8-12.8z" fill="#322e2e"/></g><text transform="matrix(1, 0, 0, 1, 264, 114)" x="-42.5" y="-4" class="A B">Notifications</text><text transform="matrix(1, 0, 0, 1, 270, 194)" class="A B"><tspan x="-125.4" y="-12">Get DYNAMIC_RENDITION SUCCESS </tspan><tspan x="-99" y="5">notifications as renditions are </tspan><tspan x="-37.1" y="22">created . . .</tspan></text><text transform="matrix(1, 0, 0, 1, 266.5, 266)" class="A B"><tspan x="-108.4" y="-12">Get TITLE SUCCESS notification </tspan><tspan x="-97.6" y="5">when processing is complete</tspan></text><text transform="matrix(1, 0, 0, 1, 72, 182)" font-size="17" class="A"><tspan x="-47" y="-9">Notification</tspan><tspan x="-31.8" y="12">Handler </tspan></text><g><path d="M408.5 11.5v62h-398v-62h398zm-2 2h-394v58h394v-58z" clip-path="url(#Clip_3)" filter="url(#Shadow_4)" class="C"/></g><g><path d="M42.2 262.1l1.3 1.9.9 1.3.9 1.3 1.4 1.8 1.9 2.4 2 2.4 2 2.3 2 2.3 1.9 2.3.9 1.1h0c1.5 1.8 5.4.7 8.8-2.5s5-7.3 3.5-9.2l-1-1.2-1.9-2.3-2-2.3-1.9-2.3-1.9-2.3-1.9-2.3-1.3-1.8-.9-1.2-.8-1.2-1.2-1.9c-1.3-2-5.2-1.1-8.6 2s-5.2 7.3-4 9.3h0" fill="#0ab41f"/><path d="M67.2 277.8l1.7-1.9 2.1-2.4 2.1-2.3 2-2.2 1-1.1 1.9-2.1.9-1 .9-1 .9-1 .9-.9 1.7-1.9 1.6-1.8 1.6-1.7 1.5-1.6.7-.8 1-1.1 1.3-1.4 2.4-2.6 2.1-2.3 1-1 .9-.9 1.6-1.7 1.3-1.3 1-1 .7-.7.3-.2-.1.1-.8.7-8 1.4 1.6-6.5.5-.7-.4.4-.8.8-1.1 1.2-1.4 1.5-.8.8-1.8 1.9-1 1.1-1.1 1.1-1.1 1.2-2.5 2.6-1.3 1.4-1.4 1.5-1.5 1.5-1.6 1.6-1.6 1.6-1.7 1.7-3.6 3.6-1.9 1.9-4 4-2.1 2.1-1.1 1.1h0c-3.3 3.3-4.7 7.3-3 9s5.7.3 9-3l1.1-1.1 2.1-2.1 2.1-2.1 3.9-3.9 1.9-1.9 3.5-3.6 1.6-1.7 1.6-1.6 1.5-1.6 1.4-1.5 2.7-2.8 2.4-2.5 2.1-2.2 1.9-2 1.6-1.7 1.4-1.4 1.1-1.2.9-1 .4-.5.4-.5.8-.9 1.8-6.7-8 1.3-1 .8-.4.4-.7.7-.9.9-1.1 1.2-1.4 1.4-1.6 1.8-1.9 2-1.1 1.1-2.3 2.5-2.6 2.8-1.8 1.9-.7.8-1.5 1.7-1.6 1.8-1.7 1.8-1.7 1.9-1.8 2-1.9 2.1-1.9 2.2-1 1.1-2.1 2.3-1.1 1.2-2.2 2.4-1.1 1.2-.6.6h0c-3.1 3.5-4 7.3-2 8.6s6.2-.5 9.3-4h0" fill="#09b41f"/></g><path d="M81.4 394.7h0 0l.3-.2q.1-.2 0-.2h0l-.3.2q-.1.2 0 .2h0" fill="#000"/></g></svg>