<svg xmlns="http://www.w3.org/2000/svg" xmlns:xlink="http://www.w3.org/1999/xlink" width="256px" height="256px" style="-ms-transform: rotate(360deg); -webkit-transform: rotate(360deg); transform: rotate(360deg);" preserveAspectRatio="xMidYMid meet" viewBox="0 0 24 24"><path d="M 15.984 14.496 C 16.512 14.671999999991998 16.987999999991995 14.911999999991998 17.412 15.216 C 17.836000000008003 15.520000000008002 18.175999999992 15.876 18.432 16.284 C 18.688000000008 16.692 18.868000000008 17.140000000008005 18.972 17.628 C 19.075999999992 18.115999999992 19.072000000008 18.631999999992 18.96 19.176 C 18.816 19.864000000008 18.520000000008 20.512000000008 18.072 21.12 C 17.623999999991998 21.7279999999992 17.083999999991995 22.2559999999992 16.452 22.704 C 15.820000000008001 23.1520000000008 15.112000000008003 23.508 14.328 23.772 C 13.543999999991998 24.036 12.736000000008001 24.168 11.904 24.168 C 11.071999999992 24.168 10.324000000008 24.036 9.66 23.772 C 8.995999999992 23.508 8.443999999992 23.1520000000008 8.004 22.704 C 7.5640000000008 22.2559999999992 7.2520000000008 21.7279999999992 7.068 21.12 C 6.883999999999199 20.512000000008 6.864 19.864000000008 7.008 19.176 C 7.1200000000008 18.631999999992 7.3240000000008 18.115999999992 7.62 17.628 C 7.915999999999199 17.140000000008005 8.284000000008 16.692 8.724 16.284 C 9.163999999992 15.876 9.66 15.520000000008002 10.212 15.216 C 10.764 14.911999999991998 11.352 14.671999999991998 11.976 14.496 C 11.047999999992 14.16 10.348000000008 13.62 9.876 12.876 C 9.403999999992 12.132 9.271999999992 11.28 9.48 10.32 C 9.607999999992 9.696 9.864 9.112000000007999 10.248 8.568 C 10.632 8.023999999992 11.116000000008 7.548 11.7 7.14 C 12.283999999992 6.732 12.928000000008002 6.408 13.632 6.168 C 14.335999999991998 5.928 15.064000000008003 5.808 15.816 5.808 C 16.567999999991997 5.808 17.239999999991998 5.928 17.832 6.168 C 18.424000000008 6.408 18.924 6.732 19.332 7.14 C 19.74 7.548 20.032000000008 8.023999999992 20.208 8.568 C 20.383999999992 9.112000000007999 20.407999999992 9.696 20.28 10.32 C 20.071999999992 11.28 19.567999999992 12.132 18.768 12.876 C 17.968000000008 13.62 17.04 14.16 15.984 14.496 M 15.696 6.36 C 15.295999999991999 6.36 14.947999999991998 6.463999999992001 14.652 6.672 C 14.356000000008002 6.880000000007999 14.107999999991998 7.159999999992001 13.908 7.512 C 13.708000000008001 7.864000000007999 13.536 8.275999999992 13.392 8.748 C 13.248 9.220000000008 13.120000000008002 9.727999999992 13.008 10.272 C 12.895999999991998 10.816000000008 12.808000000008002 11.323999999992001 12.744 11.796 C 12.679999999991999 12.268000000008 12.676000000008 12.679999999991999 12.732 13.032 C 12.787999999991998 13.384000000008001 12.916000000008001 13.663999999991999 13.116 13.872 C 13.315999999991998 14.080000000008003 13.615999999991999 14.184 14.016 14.184 C 14.431999999991998 14.184 14.815999999991998 14.080000000008003 15.168 13.872 C 15.520000000008002 13.663999999991999 15.832000000008001 13.384000000008001 16.104 13.032 C 16.375999999991997 12.679999999991999 16.612000000008003 12.268000000008 16.812 11.796 C 17.011999999991996 11.323999999992001 17.167999999991995 10.816000000008 17.28 10.272 C 17.392000000008004 9.727999999992 17.452000000008002 9.220000000008 17.46 8.748 C 17.467999999991996 8.275999999992 17.407999999991997 7.864000000007999 17.28 7.512 C 17.152000000008005 7.159999999992001 16.960000000008005 6.880000000007999 16.704 6.672 C 16.447999999991996 6.463999999992001 16.111999999991998 6.36 15.696 6.36 M 12.048 23.472 C 12.511999999991998 23.472 12.940000000008002 23.3599999999992 13.332 23.136 C 13.723999999991998 22.912000000000802 14.076 22.6039999999992 14.388 22.212 C 14.7 21.8200000000008 14.968000000008002 21.36 15.192 20.832 C 15.415999999991998 20.304 15.583999999991999 19.744000000008 15.696 19.152 C 15.823999999992 18.559999999992 15.888 18.0 15.888 17.472 C 15.888 16.944 15.820000000008001 16.480000000008005 15.684 16.08 C 15.547999999991998 15.679999999991999 15.331999999991998 15.367999999991998 15.036 15.144 C 14.740000000008001 14.920000000008002 14.359999999991999 14.808 13.896 14.808 C 13.432000000008001 14.808 13.036000000008002 14.920000000008002 12.708 15.144 C 12.379999999991998 15.367999999991998 12.096 15.679999999991999 11.856 16.08 C 11.616 16.480000000008005 11.412 16.944 11.244 17.472 C 11.076 18.0 10.927999999992 18.559999999992 10.8 19.152 C 10.687999999992 19.744000000008 10.603999999992 20.304 10.548 20.832 C 10.492000000008 21.36 10.495999999992 21.8200000000008 10.56 22.212 C 10.624000000008 22.6039999999992 10.771999999992 22.912000000000802 11.004 23.136 C 11.236000000008 23.3599999999992 11.584000000008 23.472 12.048 23.472" fill="currentColor"/></svg>