<svg xmlns="http://www.w3.org/2000/svg" xmlns:xlink="http://www.w3.org/1999/xlink" width="256px" height="256px" style="-ms-transform: rotate(360deg); -webkit-transform: rotate(360deg); transform: rotate(360deg);" preserveAspectRatio="xMidYMid meet" viewBox="0 0 24 24"><path d="M 12.372 12.192 C 12.468 12.264 12.612 12.336 12.756 12.408 C 12.876 12.48 12.972 12.528 13.092 12.6 C 13.188 12.672 13.308 12.72 13.404 12.768 C 13.524 12.84 13.596 12.912 13.692 12.984 C 13.764 13.056 13.836 13.128 13.908 13.2 C 13.98 13.296 14.052 13.392 14.124 13.464 C 14.172 13.56 14.244 13.656 14.316 13.752 C 14.34 13.848 14.388 13.944 14.412 14.04 C 14.388 14.088 14.388 14.136 14.388 14.184 C 14.34 14.232 14.34 14.28 14.34 14.304 C 14.316 14.352 14.316 14.4 14.316 14.448 C 14.268 14.496 14.268 14.544 14.268 14.592 C 14.244 14.64 14.244 14.688 14.244 14.736 C 14.196 14.784 14.196 14.832 14.196 14.856 C 14.172 14.904 14.172 14.952 14.172 15.0 C 14.124 15.048 14.124 15.096 14.124 15.144 C 14.1 15.24 14.1 15.336 14.052 15.432 C 14.028 15.528 14.028 15.624 13.98 15.72 C 13.956 15.816 13.956 15.912 13.956 15.984 C 13.908 16.08 13.908 16.176 13.908 16.248 C 13.884 16.344 13.884 16.44 13.884 16.536 C 13.836 16.632 13.836 16.728 13.836 16.824 C 13.812 16.92 13.812 17.016 13.812 17.088 C 13.764 17.184 13.764 17.28 13.764 17.352 C 13.74 17.448 13.74 17.544 13.74 17.64 C 13.74 17.736 13.74 17.832 13.74 17.928 C 13.74 18.024 13.74 18.12 13.74 18.192 C 13.74 18.288 13.74 18.384 13.74 18.456 C 13.74 18.696 13.74 18.936 13.764 19.152 C 13.764 19.392 13.764 19.632 13.812 19.848 C 13.836 20.088 13.884 20.328 13.908 20.544 C 13.956 20.784 13.98 21.024 14.028 21.24 C 14.052 21.48 14.124 21.72 14.172 21.936 C 14.196 22.176 14.268 22.416 14.34 22.632 C 14.412 22.872 14.484 23.112 14.556 23.328 C 14.628 23.568 14.7 23.784 14.82 24.0 L 8.148 23.952 C 8.196 23.952 8.196 23.928 8.22 23.904 C 8.22 23.88 8.22 23.88 8.268 23.856 C 8.268 23.832 8.268 23.784 8.292 23.76 C 8.34 23.736 8.34 23.736 8.364 23.712 C 8.364 23.688 8.364 23.64 8.412 23.616 C 8.412 23.592 8.412 23.592 8.436 23.568 C 8.484 23.544 8.484 23.496 8.508 23.472 C 8.508 23.448 8.508 23.448 8.556 23.424 C 8.58 23.376 8.58 23.328 8.628 23.28 C 8.652 23.232 8.652 23.184 8.7 23.136 C 8.724 23.088 8.772 23.04 8.796 22.968 C 8.796 22.92 8.796 22.872 8.844 22.8 L 8.844 14.52 C 8.796 14.52 8.796 14.52 8.772 14.496 C 8.724 14.496 8.724 14.496 8.724 14.472 C 8.7 14.448 8.7 14.448 8.652 14.424 C 8.628 14.424 8.628 14.424 8.58 14.4 C 8.556 14.376 8.556 14.376 8.508 14.352 C 8.484 14.328 8.484 14.328 8.484 14.304 C 8.436 14.28 8.436 14.28 8.412 14.256 C 8.364 14.232 8.364 14.232 8.34 14.208 C 8.292 14.184 8.292 14.184 8.268 14.16 C 8.22 14.16 8.22 14.16 8.196 14.136 C 8.148 14.112 8.148 14.112 8.124 14.088 C 8.076 14.064 8.076 14.064 8.076 14.04 C 8.052 14.04 8.052 14.04 8.004 14.016 C 7.98 13.992 7.98 13.992 7.932 13.968 C 7.908 13.944 7.908 13.944 7.86 13.92 C 7.836 13.92 7.836 13.92 7.788 13.896 C 7.764 13.896 7.764 13.896 7.764 13.872 C 7.716 13.872 7.716 13.872 7.716 13.872 C 7.692 13.872 7.692 13.872 7.692 13.848 C 7.644 13.848 7.644 13.848 7.644 13.824 C 7.62 13.824 7.62 13.824 7.62 13.824 C 7.572 13.824 7.572 13.824 7.572 13.824 C 7.572 13.824 7.572 13.824 7.572 13.8 C 7.548 13.8 7.548 13.8 7.548 13.776 C 7.764 13.752 7.98 13.704 8.196 13.656 C 8.412 13.632 8.628 13.584 8.844 13.536 C 9.06 13.488 9.276 13.44 9.492 13.368 C 9.66 13.32 9.876 13.272 10.068 13.2 C 10.236 13.128 10.452 13.056 10.668 12.984 C 10.86 12.912 11.076 12.864 11.244 12.792 C 11.364 12.768 11.436 12.72 11.532 12.672 C 11.652 12.648 11.724 12.6 11.82 12.552 C 11.892 12.504 11.964 12.456 12.084 12.408 C 12.18 12.36 12.252 12.312 12.372 12.264 L 12.372 12.192 M 11.748 7.008 C 11.868 7.128 12.012 7.248 12.156 7.368 C 12.3 7.488 12.444 7.608 12.588 7.704 C 12.732 7.824 12.876 7.92 13.02 8.016 C 13.164 8.112 13.308 8.208 13.476 8.304 C 13.62 8.4 13.764 8.496 13.956 8.568 C 14.124 8.64 14.268 8.736 14.46 8.808 C 14.628 8.88 14.844 8.928 15.036 9.0 C 15.204 9.072 15.396 9.12 15.612 9.168 C 15.42 9.24 15.276 9.312 15.108 9.384 C 14.916 9.48 14.748 9.576 14.556 9.648 C 14.388 9.72 14.244 9.816 14.1 9.888 C 13.908 9.984 13.764 10.08 13.596 10.152 C 13.524 10.2 13.452 10.248 13.38 10.296 C 13.26 10.344 13.188 10.392 13.116 10.416 C 13.044 10.464 12.972 10.512 12.9 10.56 C 12.828 10.608 12.756 10.656 12.684 10.704 C 12.54 10.8 12.396 10.896 12.3 10.992 C 12.156 11.112 12.012 11.208 11.892 11.328 C 11.796 11.208 11.652 11.088 11.532 10.968 C 11.388 10.872 11.244 10.776 11.1 10.656 C 10.956 10.56 10.812 10.464 10.668 10.368 C 10.524 10.272 10.38 10.176 10.212 10.08 C 10.02 10.008 9.876 9.912 9.732 9.816 C 9.564 9.744 9.372 9.648 9.204 9.576 C 9.084 9.552 9.012 9.504 8.916 9.456 C 8.796 9.432 8.724 9.384 8.652 9.36 C 8.556 9.336 8.484 9.288 8.364 9.264 C 8.268 9.24 8.196 9.192 8.076 9.168 C 8.268 9.096 8.484 9.024 8.652 8.952 C 8.844 8.88 8.988 8.832 9.156 8.76 C 9.348 8.688 9.516 8.592 9.708 8.52 C 9.852 8.448 9.996 8.352 10.164 8.28 C 10.308 8.208 10.452 8.112 10.596 8.016 C 10.74 7.92 10.884 7.824 11.028 7.728 C 11.148 7.632 11.292 7.536 11.436 7.416 C 11.532 7.296 11.652 7.2 11.748 7.08 L 11.748 7.008" fill="currentColor"/></svg>