<svg xmlns="http://www.w3.org/2000/svg" xmlns:xlink="http://www.w3.org/1999/xlink" width="256px" height="256px" style="-ms-transform: rotate(360deg); -webkit-transform: rotate(360deg); transform: rotate(360deg);" preserveAspectRatio="xMidYMid meet" viewBox="0 0 24 24"><path d="M 4.152 16.896 C 4.248 16.272 4.512 15.336 5.616 14.256 C 5.928 13.944 6.264 13.704 6.36 13.656 C 6.408 13.632 6.6 13.56 6.792 13.56 C 7.176 13.56 7.56 13.656 7.944 13.68 C 8.568 13.752 9.24 13.824 9.912 13.824 C 10.032 13.824 10.296 13.824 10.608 13.752 C 10.752 13.728 10.92 13.656 11.088 13.656 C 11.16 13.656 11.376 13.68 11.376 13.92 C 11.376 14.088 11.28 14.136 11.112 14.304 C 10.992 14.424 10.896 14.52 10.8 14.664 C 10.32 15.192 9.936 15.744 9.768 15.984 C 8.688 17.616 8.328 19.128 8.16 19.824 C 7.992 20.52 7.944 20.904 7.944 21.24 C 7.944 22.92 9.24 23.16 9.84 23.16 C 9.984 23.16 10.2 23.136 10.344 23.088 C 10.728 22.992 10.8 22.872 11.4 22.464 C 11.856 22.152 12.12 21.936 12.12 21.408 C 12.12 21.24 12.096 21.048 12.096 20.856 C 12.096 20.472 12.168 19.92 12.384 19.056 C 12.816 17.256 13.584 15.48 13.8 15.072 C 13.968 14.784 14.136 14.592 14.352 14.328 C 14.496 14.136 14.808 13.632 15.6 13.632 C 16.584 13.632 16.728 14.64 16.728 14.904 C 16.728 15.192 16.656 15.576 16.656 15.624 C 16.464 16.56 16.08 17.208 15.648 18.096 C 15.6 18.144 15.144 19.056 14.808 19.512 C 14.664 19.704 14.52 19.872 14.376 20.04 C 14.232 20.256 14.064 20.496 13.896 20.712 C 13.608 21.048 13.464 21.168 13.464 21.408 C 13.464 21.648 13.68 22.032 13.704 22.056 C 13.872 22.392 14.208 23.04 15.216 23.04 C 15.432 23.04 15.744 23.016 16.2 22.824 C 16.872 22.56 17.352 22.056 17.856 21.504 C 18.192 21.12 18.552 20.76 18.864 20.352 C 18.936 20.256 19.176 19.92 19.368 19.608 C 19.824 18.792 20.28 17.688 20.304 16.728 C 20.28 16.008 20.136 15.6 19.56 15.216 C 19.488 15.192 19.152 15.0 19.152 14.616 C 19.176 14.448 19.272 14.352 19.368 14.184 C 19.584 13.848 19.704 13.608 20.184 13.608 C 20.328 13.608 20.52 13.632 20.784 13.776 C 21.144 13.992 21.48 14.472 21.48 15.456 C 21.48 16.08 21.288 16.776 21.24 16.944 C 20.952 17.928 19.944 20.352 18.12 22.512 C 17.976 22.656 17.496 23.28 16.896 23.712 C 16.512 23.976 16.08 24.168 15.648 24.288 C 15.24 24.408 14.808 24.48 14.4 24.48 C 14.256 24.48 13.32 24.48 12.864 23.904 C 12.72 23.712 12.696 23.568 12.648 23.496 C 12.6 23.376 12.528 23.28 12.48 23.16 C 12.456 23.136 12.36 22.872 12.24 22.872 C 12.12 22.872 12.072 22.992 11.856 23.184 C 11.64 23.376 11.4 23.592 11.136 23.784 C 10.584 24.216 10.32 24.264 9.648 24.408 C 9.336 24.48 9.312 24.504 9.12 24.504 C 8.928 24.504 8.712 24.432 8.52 24.408 C 8.16 24.384 7.536 24.456 6.888 23.784 C 6.648 23.496 6.288 22.968 6.288 22.128 C 6.288 21.84 6.336 21.336 6.504 20.664 C 6.936 19.008 7.752 17.808 8.736 16.368 C 8.88 16.176 9.024 15.96 9.168 15.792 C 9.264 15.672 9.36 15.552 9.48 15.432 C 9.576 15.288 9.6 15.264 9.6 15.216 C 9.6 15.12 9.384 15.144 9.24 15.144 C 8.832 15.144 8.424 15.144 7.992 15.096 C 7.584 15.048 7.176 14.976 6.768 14.976 C 5.52 14.976 4.992 15.936 4.992 16.392 C 4.992 16.656 5.136 16.848 5.208 16.92 C 5.496 17.184 5.736 17.208 5.736 17.616 C 5.736 18.072 5.424 18.384 5.016 18.384 C 4.896 18.384 4.68 18.312 4.56 18.264 C 4.224 18.072 4.032 17.736 4.152 16.896 M 13.224 19.392 C 13.224 19.68 13.224 19.944 13.248 20.208 C 13.248 20.328 13.272 20.496 13.344 20.496 C 13.416 20.496 13.56 20.352 13.68 20.16 C 13.92 19.872 14.184 19.512 14.448 19.152 C 15.312 17.976 15.576 17.304 15.744 16.704 C 15.816 16.416 15.912 15.936 15.912 15.648 C 15.912 15.24 15.72 14.88 15.336 14.88 C 15.12 14.88 14.88 15.0 14.688 15.144 C 13.68 15.864 13.224 18.144 13.224 19.392" fill="currentColor"/></svg>