<svg xmlns="http://www.w3.org/2000/svg" xmlns:xlink="http://www.w3.org/1999/xlink" width="256px" height="256px" style="-ms-transform: rotate(360deg); -webkit-transform: rotate(360deg); transform: rotate(360deg);" preserveAspectRatio="xMidYMid meet" viewBox="0 0 24 24"><path d="M 22.5 28.58203125 C 22.47265624998047 28.820312500001954 22.376953125 29.044921875 22.212890625 29.255859375 C 22.04101562501953 29.498046874998046 21.849609375 29.666015625 21.638671875 29.759765625 L 21.10546875 29.8828125 L 7.4296875 29.9765625 L 3.03515625 29.90625 C 2.765625 29.90625 2.525390625 29.80078125 2.314453125 29.58984375 C 2.087890624998047 29.4140625 1.9199218750001954 29.207031250001954 1.810546875 28.96875 C 1.7011718749998046 28.765624999998046 1.646484375 28.556640625001954 1.646484375 28.341796875 C 1.646484375 28.341796875 1.646484375 28.341796875 1.693359375 27.814453125 C 1.7246093749998046 27.462890625 1.740234375 27.240234375 1.740234375 27.146484375 L 1.693359375 14.0625 L 1.6171875 13.58203125 C 1.6171875 13.363281250019533 1.6660156249998046 13.140625000019533 1.763671875 12.9140625 C 1.8300781249998046 12.710937499980467 1.9414062499998046 12.501953125019533 2.09765625 12.287109375 C 2.3671875 12.115234375019533 3.0234375 11.78710937501953 4.06640625 11.302734375 C 4.484374999998046 11.115234375 4.8486328125 10.94921875001953 5.1591796875 10.8046875 C 5.4697265625 10.66015624998047 5.666015625 10.5703125 5.748046875 10.53515625 C 6.044921875001952 10.39453125 6.220703125001952 10.31445312498047 6.275390625 10.294921875 C 6.490234375001952 10.21679687501953 6.681640624998048 10.177734375 6.849609375 10.177734375 C 7.033203124998048 10.177734375 7.265625 10.24023437501953 7.546875 10.365234375 C 8.94140625 10.54492187501953 10.302734374980469 10.634765625 11.630859375 10.634765625 C 13.404296875019533 10.634765625 15.2109375 10.49804687501953 17.05078125 10.224609375 L 17.4609375 10.154296875 C 17.671875 10.154296875 17.86328125001953 10.18554687498047 18.03515625 10.248046875 C 18.19921875 10.31445312498047 18.40039062498047 10.42578124998047 18.638671875 10.58203125 L 21.802734375 12.046875 C 22.26757812498047 12.36328125 22.5 12.835937500019533 22.5 13.46484375 L 22.4296875 16.41796875 L 22.4765625 26.109375 L 22.5 28.58203125 M 18.638671875 22.46484375 C 18.59960937498047 22.13671875 18.56640625001953 21.552734374998046 18.5390625 20.712890625 C 18.52343749998047 20.232421875 18.515625 19.552734375 18.515625 18.673828125 L 18.5859375 13.53515625 L 18.5625 13.1015625 L 18.609375 11.9765625 C 18.609375 11.69140624998047 18.57031249998047 11.42773437498047 18.4921875 11.185546875 C 18.19921875 10.76757812501953 17.806640625 10.55859375 17.314453125 10.55859375 C 16.46289062501953 10.72265625 15.591796875 10.84375000001953 14.701171875 10.921875 C 13.73632812498047 10.99999999998047 12.83203125 11.0390625 11.98828125 11.0390625 C 11.058593749980469 11.0390625 10.115234374980469 10.9921875 9.158203125 10.8984375 L 8.91796875 10.921875 C 8.652343750019531 10.921875 8.298828124980469 10.86523437498047 7.857421875 10.751953125 C 7.400390625 10.63867187501953 7.082031250001952 10.58203125 6.90234375 10.58203125 C 6.671875000001952 10.58203125 6.470703124998048 10.623046875 6.298828125 10.705078125 C 6.138671875001952 10.775390625 6.01171875 10.87109374998047 5.91796875 10.9921875 C 5.8125 11.09374999998047 5.732421874998047 11.21289062501953 5.677734375 11.349609375 C 5.611328125001953 11.455078125 5.578125 11.583984375 5.578125 11.736328125 L 5.654296875 12.046875 L 5.701171875 17.47265625 L 5.5546875 22.60546875 C 5.726562499998047 23.093749999998046 6.0703125 23.406250000001954 6.5859375 23.54296875 C 7.187500000001952 23.54296875 8.148437500019531 23.56640625 9.46875 23.61328125 C 10.6171875 23.679687499999805 11.480468749980469 23.712890625 12.05859375 23.712890625 L 13.646484375 23.689453125 L 14.173828125 23.689453125 C 15.017578125 23.689453125 15.71289062501953 23.673828124999805 16.259765625 23.642578125 C 16.728515625 23.607421875 17.28124999998047 23.558593750000195 17.91796875 23.49609375 C 18.34765624998047 23.253906250001954 18.58789062498047 22.91015625 18.638671875 22.46484375 M 22.142578125 28.341796875 L 22.06640625 27.287109375 L 22.04296875 15.1171875 L 21.99609375 14.806640625 C 21.99609375 14.689453125 22.01953125 14.474609374980467 22.06640625 14.162109375 C 22.11718750001953 13.818359374980467 22.142578125 13.59375 22.142578125 13.48828125 C 22.142578125 13.23046875 22.10937499998047 13.021484374980467 22.04296875 12.861328125 C 21.97265625 12.716796874980467 21.82812499998047 12.57421875 21.609375 12.43359375 L 18.97265625 11.232421875 L 19.04296875 11.58984375 C 19.04296875 11.71484374998047 19.02734374998047 12.99609375 18.99609375 15.43359375 C 18.96484375001953 17.89453125 18.94921875 18.917968750001954 18.94921875 18.50390625 L 18.97265625 20.8828125 C 18.97265625 21.183593749998046 18.98046874998047 21.421875 18.99609375 21.59765625 C 19.02343750001953 21.906250000001954 19.04687500001953 22.179687499998046 19.06640625 22.41796875 C 19.06640625 22.621093750001954 19.05078124998047 22.8046875 19.01953125 22.96875 C 18.97656250001953 23.070312499998046 18.88867187501953 23.21484375 18.755859375 23.40234375 C 18.86914062498047 23.5078125 18.99804687498047 23.658203125000195 19.142578125 23.853515625 C 19.166015625 23.888671875 19.20800781251953 23.95703125000002 19.2685546875 24.05859375 C 19.32910156248047 24.160156249999808 19.39843750001953 24.26953125 19.4765625 24.38671875 L 21.849609375 29.0859375 C 22.04492187498047 28.921875 22.142578125 28.673828125001954 22.142578125 28.341796875 M 21.609375 29.37890625 C 21.36328125 28.890625000001954 21.14746093751953 28.466796874998046 20.9619140625 28.107421875 C 20.77636718748047 27.748046875001954 20.43945312498047 27.094726562501954 19.951171875 26.1474609375 C 19.46289062501953 25.200195312498046 19.12109374998047 24.533203125 18.92578125 24.146484375 L 18.46875 23.56640625 C 18.1640625 23.82421875 17.78710937501953 23.953125 17.337890625 23.953125 L 12.205078125 24.09375 L 9.421875 29.689453125 L 16.259765625 29.666015625 L 18.158203125 29.642578125 L 19.353515625 29.642578125 L 19.88671875 29.642578125 L 20.89453125 29.56640625 C 21.08984374998047 29.535156250001954 21.23242187501953 29.503906249998046 21.322265625 29.47265625 C 21.37695312498047 29.453125000001954 21.42968749998047 29.435546875001954 21.48046875 29.419921875 C 21.53125000001953 29.404296874998046 21.57421875 29.390625 21.609375 29.37890625 M 6.3984375 24.0234375 L 5.98828125 24.0234375 L 3.181640625 29.58984375 L 3.5625 29.666015625 L 6.3984375 24.0234375 M 11.771484375 24.0234375 L 10.236328125 24.0234375 L 7.353515625 29.712890625 L 8.91796875 29.712890625 L 11.771484375 24.0234375 M 9.08203125 24.046875 L 7.93359375 24.046875 L 5.09765625 29.689453125 L 6.181640625 29.689453125 L 9.08203125 24.046875 M 11.361328125 20.302734375 L 6.779296875 20.302734375 L 6.779296875 18.9609375 C 7.029296875001952 18.652343749998046 7.366210937519531 18.226562500001954 7.7900390625 17.68359375 C 8.213867187480469 17.140624999980467 8.533203124980469 16.734375 8.748046875 16.46484375 C 9.388671874980469 15.664062499980467 9.708984375 15.015625000019533 9.708984375 14.51953125 C 9.708984375 14.253906250019533 9.675781249980469 14.070312499980467 9.609375 13.96875 C 9.535156249980469 13.83984375 9.384765625019531 13.775390625 9.158203125 13.775390625 C 8.865234375 13.775390625 8.671875 13.878906250019533 8.578125 14.0859375 C 8.484375 14.300781250019533 8.4375 14.556640624980467 8.4375 14.853515625 L 6.90234375 14.853515625 L 6.87890625 14.58984375 C 6.87890625 14.00390625 7.070312500001952 13.533203125019533 7.453125 13.177734375 C 7.8046875 12.841796875019533 8.30859375 12.673828125 8.96484375 12.673828125 C 9.710937499980469 12.673828125 10.287109375019531 12.816406249980467 10.693359375 13.1015625 C 11.091796875 13.414062499980467 11.291015625 13.91015625 11.291015625 14.58984375 C 11.291015625 15.359374999980467 11.091796875 15.992187499980467 10.693359375 16.48828125 C 10.173828124980469 17.15625 9.414062500019531 18.044921875019533 8.4140625 19.154296875 L 11.361328125 19.154296875 L 11.361328125 20.302734375 M 8.390625 20.302734375 L 6.802734375 20.302734375 L 8.390625 20.302734375" fill="currentColor"/></svg>