<svg xmlns="http://www.w3.org/2000/svg" xmlns:xlink="http://www.w3.org/1999/xlink" width="256px" height="256px" style="-ms-transform: rotate(360deg); -webkit-transform: rotate(360deg); transform: rotate(360deg);" preserveAspectRatio="xMidYMid meet" viewBox="0 0 24 24"><path d="M 11.388 9.672 C 11.452000000008 9.496000000008 11.572000000008 9.391999999992 11.748 9.36 C 11.860000000008 9.343999999992 11.980000000008 9.336 12.108 9.336 L 12.252 9.264 C 12.460000000008002 9.184000000008 12.636 9.232000000008 12.78 9.408 C 13.02 9.472000000008 13.272 9.580000000008 13.536 9.732 C 13.8 9.883999999992 13.996000000008001 10.015999999992 14.124 10.128 L 14.676 10.608 C 15.108 11.008000000008 15.48 11.287999999992 15.792 11.448 C 16.104 11.608000000008 16.459999999991997 11.647999999992 16.86 11.568 C 17.131999999991997 11.52 17.316 11.407999999992 17.412 11.232 C 17.524000000008005 11.071999999992 17.560000000008003 10.843999999992 17.52 10.548 C 17.479999999991996 10.252000000008 17.383999999991996 9.943999999992 17.232 9.624 C 17.080000000008003 9.304000000008 16.915999999991996 9.055999999992 16.74 8.88 C 15.252 7.344 13.612000000008003 6.768 11.82 7.152 C 10.987999999992 7.327999999992001 10.2 7.704 9.456 8.28 C 8.712 8.856 8.068000000008 9.583999999992 7.524 10.464 C 7.1560000000008 11.056000000008 6.9199999999992 11.719999999992 6.816 12.456 C 6.7120000000008 13.192000000008 6.66 14.088 6.66 15.144 C 6.66 17.479999999991996 7.012000000000801 19.303999999992 7.716 20.616 C 8.548000000008 22.183999999999198 9.972 23.215999999999198 11.988 23.712 C 13.684000000008002 24.12799999999992 15.067999999991999 23.952 16.14 23.184 C 16.843999999991997 22.704 17.380000000008003 22.0840000000008 17.748 21.324 C 18.115999999992 20.563999999992 18.288 19.776 18.264 18.96 C 18.24 18.144 18.091999999992 17.352 17.82 16.584 C 17.548000000008003 15.816 17.107999999991996 15.136000000008002 16.5 14.544 C 15.892000000008002 13.936000000008002 15.187999999991998 13.512 14.388 13.272 C 13.972000000008002 13.144000000008003 13.516000000008003 13.063999999991998 13.02 13.032 C 12.508000000008002 13.000000000008002 12.052000000008 13.032 11.652 13.128 L 11.268 13.32 C 10.98 13.447999999991998 10.747999999992 13.504000000008002 10.572 13.488 C 10.219999999992 13.456000000008002 9.972 13.312000000008002 9.828 13.056 C 9.732 12.912 9.700000000008 12.736000000008001 9.732 12.528 C 9.732 12.48 9.739999999992 12.432 9.756 12.384 L 9.756 12.336 C 9.756 11.488000000008 10.003999999992 10.807999999992001 10.5 10.296 C 10.723999999992 10.072000000008 11.020000000008 9.864 11.388 9.672 M 10.644 12.576 L 10.668 12.576 C 10.684000000008 12.576 10.756000000008 12.544000000008001 10.884 12.48 C 11.188000000008 12.352000000008001 11.364 12.280000000008 11.412 12.264 C 11.94 12.136000000008 12.492 12.088000000008 13.068 12.12 C 13.644 12.151999999992 14.179999999991999 12.247999999992 14.676 12.408 C 15.588 12.696 16.396000000008005 13.183999999991999 17.1 13.872 C 17.803999999991998 14.560000000008001 18.319999999992 15.348 18.648 16.236 C 18.976000000008 17.124 19.152 18.040000000008 19.176 18.984 C 19.2 19.927999999992 18.996 20.844 18.564 21.732 C 18.132 22.62 17.500000000008004 23.3599999999992 16.668 23.952 C 15.388000000008002 24.864 13.747999999991999 25.072000000000802 11.748 24.576 C 9.475999999992 24.01600000000001 7.86 22.8400000000008 6.9 21.048 C 6.132 19.608 5.748 17.64 5.748 15.144 C 5.748 14.424 5.76 13.836 5.784 13.38 C 5.808 12.924 5.899999999999199 12.367999999991998 6.06 11.712 C 6.2200000000008 11.056000000008 6.4519999999992 10.480000000008 6.756 9.984 C 7.3480000000008 9.007999999992 8.068000000008 8.191999999992001 8.916 7.536 C 9.763999999992 6.895999999992001 10.668 6.472000000007999 11.628 6.264 C 12.636 6.055999999992001 13.636000000008002 6.112000000007999 14.628 6.432 C 15.619999999991999 6.751999999992001 16.548 7.360000000007999 17.412 8.256 C 17.652 8.496 17.868 8.815999999992 18.06 9.216 C 18.252 9.631999999992 18.372 10.039999999992 18.42 10.44 C 18.484000000008 10.936000000008 18.412000000008 11.359999999992 18.204 11.712 C 17.964 12.127999999992 17.563999999991996 12.384 17.004 12.48 C 16.588000000008005 12.544000000008001 16.176 12.508000000008002 15.768 12.372 C 15.36 12.235999999992 15.055999999991998 12.091999999992 14.856 11.94 C 14.656000000008001 11.788000000008 14.388 11.568 14.052 11.28 C 13.795999999991999 11.04 13.596 10.864000000008 13.452 10.752 C 13.308 10.639999999992 13.128 10.531999999992 12.912 10.428 C 12.696 10.324000000008 12.484000000008002 10.264000000008 12.276 10.248 C 11.748 10.471999999992 11.371999999992001 10.704 11.148 10.944 C 10.828000000008 11.28 10.668 11.743999999992 10.668 12.336 C 10.668 12.400000000008001 10.660000000007999 12.48 10.644 12.576 M 12.444 16.224 C 12.108 16.528000000008003 11.916 16.92 11.868 17.4 C 11.836000000008 17.671999999991996 11.868 17.863999999992 11.964 17.976 C 12.06 18.072 12.235999999992 18.096 12.492 18.048 C 12.556000000008002 18.031999999992 12.612 17.959999999992 12.66 17.832 C 12.739999999991998 17.64 12.772000000008001 17.4 12.756 17.112 C 12.724000000008001 16.728 12.619999999991999 16.432000000008003 12.444 16.224 M 13.068 15.552 C 13.404 15.904000000008002 13.603999999991998 16.399999999991998 13.668 17.04 C 13.699999999991999 17.472 13.651999999991999 17.848000000008003 13.524 18.168 C 13.332 18.616000000008 13.036000000008002 18.880000000008 12.636 18.96 C 12.043999999992 19.072000000008 11.587999999992 18.936 11.268 18.552 C 11.011999999992 18.247999999992 10.908 17.832 10.956 17.304 C 11.035999999992 16.600000000008002 11.323999999992001 16.024000000008 11.82 15.576 L 11.82 15.504 C 11.851999999992 15.376000000008002 11.920000000008 15.280000000008002 12.024 15.216 C 12.127999999992 15.151999999991999 12.244000000008 15.127999999991998 12.372 15.144 C 12.403999999991997 15.160000000008 12.427999999991998 15.168 12.444 15.168 C 12.571999999991998 15.12 12.691999999991998 15.124000000008001 12.804 15.18 C 12.916000000008001 15.235999999991998 12.996 15.319999999991998 13.044 15.432 C 13.060000000008001 15.48 13.068 15.520000000008002 13.068 15.552" fill="currentColor"/></svg>