<svg xmlns="http://www.w3.org/2000/svg" xmlns:xlink="http://www.w3.org/1999/xlink" width="256px" height="256px" style="-ms-transform: rotate(360deg); -webkit-transform: rotate(360deg); transform: rotate(360deg);" preserveAspectRatio="xMidYMid meet" viewBox="0 0 24 24"><path d="M 3.216 23.112 L 3.168 23.808 C 3.528 23.808 3.528 23.808 3.876 23.808 C 4.108000000000801 23.808 4.3360000000008005 23.81599999999992 4.56 23.832 C 4.992 23.832 5.215999999992 23.83999999999992 5.232 23.856 C 5.568 23.904 5.952 23.96800000000008 6.384 24.048 C 6.816 24.12799999999992 7.303999999992001 24.23200000000008 7.848 24.36 C 8.551999999992 24.504 9.12 24.624 9.552 24.72 C 9.984 24.816 10.288000000008 24.880000000000802 10.464 24.912 C 10.159999999992 24.336 9.919999999992 23.88 9.744 23.544 C 9.456 22.9840000000008 9.312 22.4800000000008 9.312 22.032 C 9.312 21.8080000000008 9.316000000008 21.559999999992 9.324 21.288 C 9.331999999992 21.016000000008 9.343999999992 20.719999999992 9.36 20.4 C 9.376000000008 20.080000000008 9.396 19.759999999992 9.42 19.44 C 9.444 19.120000000007998 9.472000000008 18.808000000008 9.504 18.504 L 10.8 20.736 C 11.551999999992 21.103999999992 12.307999999992 21.472000000008 13.068 21.84 C 13.828000000008002 22.2079999999992 14.584000000008002 22.5760000000008 15.336 22.944 C 15.367999999992 22.9759999999992 15.408 23.004 15.456 23.028 C 15.504 23.052 15.568000000008 23.088 15.648 23.136 C 15.72 23.184 15.72 23.184 15.792 23.232 C 15.84 23.2639999999992 15.895999999992 23.2960000000008 15.96 23.328 C 16.183999999992 23.4559999999992 16.416 23.568 16.656 23.664 C 16.896 23.76 17.152000000007998 23.84800000000008 17.424 23.928 C 17.968000000008 24.072 18.520000000008 24.168 19.08 24.216 L 21.072 24.312 L 19.896 21.72 C 19.399999999992 21.496000000008 18.967999999992 21.3 18.6 21.132 C 18.232000000008 20.964 17.920000000008 20.824000000008 17.664 20.712 C 17.296000000008 20.536000000008 16.927999999992 20.368000000008 16.56 20.208 C 16.192000000008 20.047999999992 15.823999999992001 19.879999999992002 15.456 19.704 C 15.312 19.624000000008 14.784 19.168000000008 13.872 18.336 C 12.991999999991998 17.52 12.535999999991999 16.992 12.504 16.752 C 12.504 16.528000000008003 13.303999999991998 16.176 14.904 15.696 C 15.400000000008 15.552 15.892000000008 15.408 16.38 15.264 C 16.867999999992 15.12 17.368000000008 14.968000000008002 17.88 14.808 C 18.216 14.680000000008002 18.784000000008 14.392000000008002 19.584 13.944 C 20.544 13.368 21.096 13.056 21.24 13.008 L 21.312 12.456 C 20.448 12.439999999991999 19.696000000008 12.415999999991998 19.056 12.384 C 18.751999999992 12.367999999991998 18.472000000008 12.36 18.216 12.36 C 17.832 12.36 17.832 12.36 17.496 12.36 C 17.272000000008 12.36 17.080000000008 12.364000000008001 16.92 12.372 C 16.759999999992 12.379999999991998 16.624000000008 12.391999999991999 16.512 12.408 C 16.432000000008 12.424000000008002 16.344 12.444 16.248 12.468 C 16.152 12.492 16.039999999992 12.535999999991999 15.912 12.6 L 11.328 14.616 L 9.6 16.992 C 9.6 16.32 9.6 16.32 9.6 15.708 C 9.6 15.3 9.607999999992 14.896000000008002 9.624 14.496 C 9.655999999992 13.68 9.712000000008 13.120000000008002 9.792 12.816 C 9.823999999992001 12.655999999991998 9.928000000008 12.388000000008002 10.104 12.012 C 10.279999999992 11.635999999992 10.512 11.16 10.8 10.584 C 10.975999999992 10.216000000008 11.119999999992 9.928000000008 11.232 9.72 C 11.344000000008 9.511999999992 11.407999999992 9.384 11.424 9.336 L 9.48 6.168 L 4.248 6.6 L 4.224 7.2 L 4.32 7.2 L 5.16 9.528 L 6.528 10.656 C 6.528 11.839999999992001 6.504 12.768 6.456 13.44 C 6.408 14.128000000008003 6.352000000007999 14.608000000008001 6.288 14.88 C 6.271999999992001 15.007999999991998 6.184000000007999 15.256000000008001 6.024 15.624 C 5.863999999992 15.991999999991998 5.623999999992 16.471999999991997 5.304 17.064 C 5.16 17.368000000008003 5.035999999999199 17.623999999991998 4.932 17.832 C 4.8280000000008005 18.040000000008 4.752 18.208000000008 4.704 18.336 C 4.8160000000008 18.672 4.924000000000801 18.991999999992 5.028 19.296 C 5.131999999999199 19.600000000008 5.232 19.896 5.328 20.184 C 5.728000000008 21.271999999992 5.928 22.008 5.928 22.392 C 5.928 22.7599999999992 5.568 22.9759999999992 4.848 23.04 C 4.8160000000008 23.04 4.272 23.064 3.216 23.112" fill="currentColor"/></svg>