<svg xmlns="http://www.w3.org/2000/svg" width="24" height="24" viewBox="0 0 24 24"><title>logo-app-search-24-color</title><g fill="none" fill-rule="evenodd"><path fill="#353535" d="M14.566.688a5.13 5.13 0 0 0-5.133 0l-5.5 3.182L12 8.526l8.066-4.656z"/><path fill="#07c" d="m3.934 3.87.016-.016-.383.221A5.13 5.13 0 0 0 1 8.52v6.774c0 1.834.979 3.53 2.567 4.446l5.5 3.175v-9.732c0-1.834.978-3.528 2.566-4.445L12 8.526z"/><path fill="#ff6940" d="m21.566 6.467-7.303 4.217c.424.753.67 1.605.67 2.5v9.731l5.5-3.175A5.14 5.14 0 0 0 23 15.294V8.52c0-.892-.246-1.743-.668-2.495z"/></g></svg>