<svg xmlns="http://www.w3.org/2000/svg" xmlns:xlink="http://www.w3.org/1999/xlink" width="500" height="375" preserveAspectRatio="none" style="width:500px;height:375px;background:#fff" viewBox="0 0 500 375"><defs><filter id="a" width="300%" height="300%" x="-1" y="-1"><feGaussianBlur result="blurOut" stdDeviation="2"/><feColorMatrix in="blurOut" result="blurOut2" values="0 0 0 0 0 0 0 0 0 0 0 0 0 0 0 0 0 0 .4 0"/><feOffset dx="4" dy="4" in="blurOut2" result="blurOut3"/><feBlend in="SourceGraphic" in2="blurOut3"/></filter></defs><path fill="#fff" d="M37 13.5h120v68H37z" filter="url(#a)" style="stroke:#a80036;stroke-width:1.5"/><text x="87.5" y="30.5" font-family="sans-serif" font-size="12" font-style="italic" textLength="19">«U»</text><a xlink:actuate="onRequest" xlink:href="../logs.executionlog.html" xlink:show="new" xlink:title="../logs.executionlog.html" xlink:type="simple" target="_top"><text x="40" y="44.9" fill="#00f" font-family="sans-serif" font-size="12" text-decoration="underline" textLength="114">logs.ExecutionLog - U</text></a><path d="M38 52.3h118" style="stroke:#a80036;stroke-width:1.5"/><path fill="#f24d5c" d="M45 60.3h6v6h-6z" style="stroke:#c82930;stroke-width:1"/><text x="57" y="67.3" font-family="sans-serif" font-size="11" font-weight="bold" textLength="10">id</text><text x="70" y="67.3" font-family="sans-serif" font-size="11" textLength="39">: (bigint)</text><path d="M38 73.5h118" style="stroke:#a80036;stroke-width:1"/><path fill="#0ff" d="M7 161h180v54.8H7z" filter="url(#a)" style="stroke:#a80036;stroke-width:1.5"/><text x="88" y="178" font-family="sans-serif" font-size="12" font-style="italic" textLength="18">«P»</text><a xlink:actuate="onRequest" xlink:href="../logs.usp_executionlog_insert.html" xlink:show="new" xlink:title="../logs.usp_executionlog_insert.html" xlink:type="simple" target="_top"><text x="10" y="192.4" fill="#00f" font-family="sans-serif" font-size="12" text-decoration="underline" textLength="174">logs.usp_ExecutionLog_insert - P</text></a><path d="M8 199.8h178" style="stroke:#a80036;stroke-width:1.5"/><path d="M8 207.8h178" style="stroke:#a80036;stroke-width:1"/><path fill="#fff" d="M297.5 7h189v81.2h-189z" filter="url(#a)" style="stroke:#a80036;stroke-width:1.5"/><text x="382.5" y="24" font-family="sans-serif" font-size="12" font-style="italic" textLength="19">«U»</text><a xlink:actuate="onRequest" xlink:href="../ssas.tmschema_tables.html" xlink:show="new" xlink:title="../ssas.tmschema_tables.html" xlink:type="simple" target="_top"><text x="306.5" y="38.4" fill="#00f" font-family="sans-serif" font-size="12" text-decoration="underline" textLength="171">ssas.TMSCHEMA_TABLES - U</text></a><path d="M298.5 45.8h187" style="stroke:#a80036;stroke-width:1.5"/><path fill="#f24d5c" d="M305.5 53.8h6v6h-6z" style="stroke:#c82930;stroke-width:1"/><text x="317.5" y="60.8" font-family="sans-serif" font-size="11" font-weight="bold" textLength="77">databasename</text><text x="397.5" y="60.8" font-family="sans-serif" font-size="11" textLength="83">: (nvarchar(128))</text><path fill="#f24d5c" d="M305.5 67h6v6h-6z" style="stroke:#c82930;stroke-width:1"/><text x="317.5" y="74" font-family="sans-serif" font-size="11" font-weight="bold" textLength="11">ID</text><text x="331.5" y="74" font-family="sans-serif" font-size="11" textLength="85">: (numeric(20, 0))</text><path d="M298.5 80.2h187" style="stroke:#a80036;stroke-width:1"/><path fill="#fff" d="M222 148h192v81.2H222z" filter="url(#a)" style="stroke:#a80036;stroke-width:1.5"/><text x="308.5" y="165" font-family="sans-serif" font-size="12" font-style="italic" textLength="19">«U»</text><a xlink:actuate="onRequest" xlink:href="../ssas.tmschema_tables_t.html" xlink:show="new" xlink:title="../ssas.tmschema_tables_t.html" xlink:type="simple" target="_top"><text x="225" y="179.4" fill="#00f" font-family="sans-serif" font-size="12" text-decoration="underline" textLength="186">ssas.TMSCHEMA_TABLES_T - U</text></a><path d="M223 186.8h190" style="stroke:#a80036;stroke-width:1.5"/><path fill="#f24d5c" d="M230 194.8h6v6h-6z" style="stroke:#c82930;stroke-width:1"/><text x="242" y="201.8" font-family="sans-serif" font-size="11" font-weight="bold" textLength="77">databasename</text><text x="322" y="201.8" font-family="sans-serif" font-size="11" textLength="83">: (nvarchar(128))</text><path fill="#f24d5c" d="M230 208h6v6h-6z" style="stroke:#c82930;stroke-width:1"/><text x="242" y="215" font-family="sans-serif" font-size="11" font-weight="bold" textLength="11">ID</text><text x="256" y="215" font-family="sans-serif" font-size="11" textLength="85">: (numeric(20, 0))</text><path d="M223 221.2h190" style="stroke:#a80036;stroke-width:1"/><path fill="#0ff" d="M180 289h276v54.8H180z" filter="url(#a)" style="stroke:#a80036;stroke-width:1.5"/><text x="309" y="306" font-family="sans-serif" font-size="12" font-style="italic" textLength="18">«P»</text><a xlink:actuate="onRequest" xlink:href="../ssas.usp_persist_tmschema_tables_t.html" xlink:show="new" xlink:title="../ssas.usp_persist_tmschema_tables_t.html" xlink:type="simple" target="_top"><text x="183" y="320.4" fill="#00f" font-family="sans-serif" font-size="12" text-decoration="underline" textLength="270">ssas.usp_PERSIST_TMSCHEMA_TABLES_T - P</text></a><path d="M181 327.8h274" style="stroke:#a80036;stroke-width:1.5"/><path d="M181 335.8h274" style="stroke:#a80036;stroke-width:1"/><path fill="none" d="M97 87.03v73.95" style="stroke:#a80036;stroke-width:1;stroke-dasharray:7,7"/><path fill="#a80036" d="m97 81.79-4 9 4-4 4 4z" style="stroke:#a80036;stroke-width:1"/><path fill="none" d="M148.07 218.62c37.23 21.22 87.27 49.75 123.4 70.35" style="stroke:#a80036;stroke-width:1;stroke-dasharray:7,7"/><path fill="#a80036" d="m143.6 216.07 5.844 7.928-1.498-5.455 5.454-1.498z" style="stroke:#a80036;stroke-width:1"/><path fill="none" d="M368.44 92.75c-9.38 17.63-20.1 37.75-29.23 54.91" style="stroke:#a80036;stroke-width:1;stroke-dasharray:7,7"/><path fill="#a80036" d="m370.79 88.33-7.768 6.055 5.413-1.644 1.644 5.412z" style="stroke:#a80036;stroke-width:1"/><path fill="none" d="M417.17 92.88C435.05 130.69 452.42 185.63 431 229c-12.58 25.47-36.66 45.52-59.37 59.87" style="stroke:#a80036;stroke-width:1;stroke-dasharray:7,7"/><path fill="#a80036" d="m414.99 88.36.309 9.844 1.864-5.34 5.34 1.863z" style="stroke:#a80036;stroke-width:1"/><path fill="none" d="M318 234.12v54.74" style="stroke:#a80036;stroke-width:1;stroke-dasharray:7,7"/><path fill="#a80036" d="m318 229.02-4 9 4-4 4 4z" style="stroke:#a80036;stroke-width:1"/><text x="148.25" y="366.8" fill="#888" font-family="sans-serif" font-size="10" textLength="191">The diagram is interactive and contains links.</text></svg>