<svg xmlns="http://www.w3.org/2000/svg" viewBox="0 0 216 144"><rect width="100%" height="100%" style="stroke-linecap:round;stroke-linejoin:round;stroke-miterlimit:10;stroke:none;fill:#fff"/><path d="M0 0h216v144H0z" style="stroke-width:1.07;stroke:#fff;fill:#fff"/><defs><clipPath id="a"><path d="M46.19 5.48h164.33v105.78H46.19z"/></clipPath></defs><path d="M46.19 5.48h164.33v105.78H46.19z" clip-path="url(#a)" style="stroke-width:1.07;stroke:none;fill:#ebebeb"/><path d="M46.19 97.78h164.33" clip-path="url(#a)" style="stroke-width:.53;stroke:#fff;stroke-linecap:butt"/><path d="M46.19 70.21h164.33" clip-path="url(#a)" style="stroke-width:.53;stroke:#fff;stroke-linecap:butt"/><path d="M46.19 42.64h164.33" clip-path="url(#a)" style="stroke-width:.53;stroke:#fff;stroke-linecap:butt"/><path d="M46.19 15.06h164.33" clip-path="url(#a)" style="stroke-width:.53;stroke:#fff;stroke-linecap:butt"/><path d="M57.55 111.26V5.48" clip-path="url(#a)" style="stroke-width:.53;stroke:#fff;stroke-linecap:butt"/><path d="M96.53 111.26V5.48" clip-path="url(#a)" style="stroke-width:.53;stroke:#fff;stroke-linecap:butt"/><path d="M136.15 111.26V5.48" clip-path="url(#a)" style="stroke-width:.53;stroke:#fff;stroke-linecap:butt"/><path d="M176.42 111.26V5.48" clip-path="url(#a)" style="stroke-width:.53;stroke:#fff;stroke-linecap:butt"/><path d="M46.19 83.99h164.33" clip-path="url(#a)" style="stroke-width:1.07;stroke:#fff;stroke-linecap:butt"/><path d="M46.19 56.42h164.33" clip-path="url(#a)" style="stroke-width:1.07;stroke:#fff;stroke-linecap:butt"/><path d="M46.19 28.85h164.33" clip-path="url(#a)" style="stroke-width:1.07;stroke:#fff;stroke-linecap:butt"/><path d="M77.04 111.26V5.48" clip-path="url(#a)" style="stroke-width:1.07;stroke:#fff;stroke-linecap:butt"/><path d="M116.01 111.26V5.48" clip-path="url(#a)" style="stroke-width:1.07;stroke:#fff;stroke-linecap:butt"/><path d="M156.28 111.26V5.48" clip-path="url(#a)" style="stroke-width:1.07;stroke:#fff;stroke-linecap:butt"/><path d="M196.56 111.26V5.48" clip-path="url(#a)" style="stroke-width:1.07;stroke:#fff;stroke-linecap:butt"/><path d="m53.66 79.87 1.3-11.38 1.3 9.51 1.29-2.43 1.3 1.37 1.3.21 1.3 2.1 1.3 11.39 1.3 2.85 1.3-5.9 1.3.95 1.3-3.04 1.3-1.15 1.3 1.52 1.29-2.21 1.3-12.17 1.3 16.95 1.3-1.61 1.3 1.4 1.3.17 1.3-.48 1.3 16 1.3-5.25 1.3 7.78 1.3-9.39 1.29-2.14 1.3-.19 1.3-.26 1.3.39 1.3-5.67 1.3-.89 1.3-20.28 1.3-3.88h1.3l1.3-1.16 1.29-7.34 1.3-2.8 1.3-3.62 1.3.91 1.3 13.21h1.3l1.3-.69 1.3-5.89 1.3-3.5 1.3-10.28 1.3 1.34 1.29 10.81 1.3.41 1.3-.88 1.3-12.29 1.3 8.26 1.3.15 1.3 1.43 1.3 8.73 1.3.61 1.3.6 1.3 6.73 1.29-10.76 1.3-10.2 1.3 8.28 1.3 3.57 1.3-.37 1.3-.79 1.3-.93 1.3-7.27 1.3 4.22 1.3-7.3 1.3 10.23 1.29.19 1.3 3.53 1.3-10.41 1.3 9.22 1.3 6.63 1.3-15.66 1.3 3.66 1.3.2 1.3-.31 1.3 1.9 1.3 2.32 1.29-2.78 1.3-9.05 1.3 8.14h1.3l1.3-1.48 1.3-1.48 1.3 7.84 1.3.24 1.3-10.9 1.3-14.22h1.29l1.3-3.22 1.3-4.54 1.3-6.3 1.3-.42 1.3 5.32 1.3 11.91h1.3l1.3-1.57 1.3 5.69 1.3 5.08 1.29-5.66 1.3-18.68 1.3 17.34h1.3l1.3 3.17 1.3 1.31 1.3-.87 1.3-6.92 1.3-10.13 1.3-15.01 1.3.61 1.29-1.1 1.3 4.04 1.3-4.9 1.3 2.25 1.3-1.08" clip-path="url(#a)" style="stroke-width:1.07;stroke-linecap:butt"/><defs><clipPath id="b"><path d="M0 0h216v144H0z"/></clipPath></defs><g clip-path="url(#b)"><text x="18.73" y="87.21" lengthAdjust="spacingAndGlyphs" style="font-size:8.8px;fill:#4d4d4d;font-family:Arial" textLength="22.52">1.325</text></g><g clip-path="url(#b)"><text x="18.73" y="59.64" lengthAdjust="spacingAndGlyphs" style="font-size:8.8px;fill:#4d4d4d;font-family:Arial" textLength="22.52">1.350</text></g><g clip-path="url(#b)"><text x="18.73" y="32.07" lengthAdjust="spacingAndGlyphs" style="font-size:8.8px;fill:#4d4d4d;font-family:Arial" textLength="22.52">1.375</text></g><path d="M43.45 83.99h2.74" clip-path="url(#b)" style="stroke-width:1.07;stroke:#333;stroke-linecap:butt"/><path d="M43.45 56.42h2.74" clip-path="url(#b)" style="stroke-width:1.07;stroke:#333;stroke-linecap:butt"/><path d="M43.45 28.85h2.74" clip-path="url(#b)" style="stroke-width:1.07;stroke:#333;stroke-linecap:butt"/><path d="M77.04 114v-2.74" clip-path="url(#b)" style="stroke-width:1.07;stroke:#333;stroke-linecap:butt"/><path d="M116.01 114v-2.74" clip-path="url(#b)" style="stroke-width:1.07;stroke:#333;stroke-linecap:butt"/><path d="M156.28 114v-2.74" clip-path="url(#b)" style="stroke-width:1.07;stroke:#333;stroke-linecap:butt"/><path d="M196.56 114v-2.74" clip-path="url(#b)" style="stroke-width:1.07;stroke:#333;stroke-linecap:butt"/><g clip-path="url(#b)"><text x="69.79" y="122.63" lengthAdjust="spacingAndGlyphs" style="font-size:8.8px;fill:#4d4d4d;font-family:Arial" textLength="14.51">Jun</text></g><g clip-path="url(#b)"><text x="110.26" y="122.63" lengthAdjust="spacingAndGlyphs" style="font-size:8.8px;fill:#4d4d4d;font-family:Arial" textLength="11.5">Jul</text></g><g clip-path="url(#b)"><text x="148.28" y="122.63" lengthAdjust="spacingAndGlyphs" style="font-size:8.8px;fill:#4d4d4d;font-family:Arial" textLength="16.01">Aug</text></g><g clip-path="url(#b)"><text x="188.55" y="122.63" lengthAdjust="spacingAndGlyphs" style="font-size:8.8px;fill:#4d4d4d;font-family:Arial" textLength="16.01">Sep</text></g><g clip-path="url(#b)"><text x="117.65" y="135.88" lengthAdjust="spacingAndGlyphs" style="font-size:11px;font-family:Arial" textLength="21.41">date</text></g><g clip-path="url(#b)"><text lengthAdjust="spacingAndGlyphs" style="font-size:11px;font-family:Arial" textLength="23.22" transform="rotate(-90 41.665 28.315)">AUD</text></g></svg>