<svg xmlns="http://www.w3.org/2000/svg" width="256" height="256" style="-ms-transform:rotate(360deg);-webkit-transform:rotate(360deg);transform:rotate(360deg)" viewBox="0 0 24 24"><path fill="currentColor" d="M4.152 16.896c.096-.624.36-1.56 1.464-2.64.312-.312.648-.552.744-.6.048-.024.24-.096.432-.096.384 0 .768.096 1.152.12.624.072 1.296.144 1.968.144.12 0 .384 0 .696-.072.144-.024.312-.096.48-.096.072 0 .288.024.288.264 0 .168-.096.216-.264.384-.12.12-.216.216-.312.36-.48.528-.864 1.08-1.032 1.32-1.08 1.632-1.44 3.144-1.608 3.84s-.216 1.08-.216 1.416c0 1.68 1.296 1.92 1.896 1.92.144 0 .36-.024.504-.072.384-.096.456-.216 1.056-.624.456-.312.72-.528.72-1.056 0-.168-.024-.36-.024-.552 0-.384.072-.936.288-1.8.432-1.8 1.2-3.576 1.416-3.984.168-.288.336-.48.552-.744.144-.192.456-.696 1.248-.696.984 0 1.128 1.008 1.128 1.272 0 .288-.072.672-.072.72-.192.936-.576 1.584-1.008 2.472-.048.048-.504.96-.84 1.416-.144.192-.288.36-.432.528-.144.216-.312.456-.48.672-.288.336-.432.456-.432.696s.216.624.24.648c.168.336.504.984 1.512.984.216 0 .528-.024.984-.216.672-.264 1.152-.768 1.656-1.32.336-.384.696-.744 1.008-1.152.072-.096.312-.432.504-.744.456-.816.912-1.92.936-2.88-.024-.72-.168-1.128-.744-1.512-.072-.024-.408-.216-.408-.6.024-.168.12-.264.216-.432.216-.336.336-.576.816-.576.144 0 .336.024.6.168.36.216.696.696.696 1.68 0 .624-.192 1.32-.24 1.488-.288.984-1.296 3.408-3.12 5.568-.144.144-.624.768-1.224 1.2a4.2 4.2 0 0 1-1.248.576c-.408.12-.84.192-1.248.192-.144 0-1.08 0-1.536-.576-.144-.192-.168-.336-.216-.408-.048-.12-.12-.216-.168-.336-.024-.024-.12-.288-.24-.288s-.168.12-.384.312-.456.408-.72.6c-.552.432-.816.48-1.488.624-.312.072-.336.096-.528.096s-.408-.072-.6-.096c-.36-.024-.984.048-1.632-.624-.24-.288-.6-.816-.6-1.656 0-.288.048-.792.216-1.464.432-1.656 1.248-2.856 2.232-4.296.144-.192.288-.408.432-.576.096-.12.192-.24.312-.36.096-.144.12-.168.12-.216 0-.096-.216-.072-.36-.072-.408 0-.816 0-1.248-.048-.408-.048-.816-.12-1.224-.12-1.248 0-1.776.96-1.776 1.416 0 .264.144.456.216.528.288.264.528.288.528.696 0 .456-.312.768-.72.768-.12 0-.336-.072-.456-.12-.336-.192-.528-.528-.408-1.368m9.072 2.496c0 .288 0 .552.024.816 0 .12.024.288.096.288s.216-.144.336-.336c.24-.288.504-.648.768-1.008.864-1.176 1.128-1.848 1.296-2.448.072-.288.168-.768.168-1.056 0-.408-.192-.768-.576-.768-.216 0-.456.12-.648.264-1.008.72-1.464 3-1.464 4.248"/></svg>