<svg xmlns="http://www.w3.org/2000/svg" width="256" height="256" style="-ms-transform:rotate(360deg);-webkit-transform:rotate(360deg);transform:rotate(360deg)" viewBox="0 0 24 24"><path fill="currentColor" d="M11.388 9.672a.45.45 0 0 1 .36-.312q.168-.024.36-.024l.144-.072q.312-.12.528.144.36.096.756.324t.588.396l.552.48q.648.6 1.116.84t1.068.12q.408-.072.552-.336.168-.24.108-.684a3.1 3.1 0 0 0-.288-.924q-.228-.48-.492-.744-2.232-2.304-4.92-1.728-1.248.264-2.364 1.128t-1.932 2.184a5.1 5.1 0 0 0-.708 1.992q-.156 1.104-.156 2.688 0 3.504 1.056 5.472 1.248 2.352 4.272 3.096 2.544.624 4.152-.528a4.7 4.7 0 0 0 1.608-1.86q.552-1.14.516-2.364a7.8 7.8 0 0 0-.444-2.376 5.3 5.3 0 0 0-1.32-2.04 5 5 0 0 0-2.112-1.272 6 6 0 0 0-1.368-.24q-.768-.048-1.368.096l-.384.192q-.432.192-.696.168-.528-.048-.744-.432a.72.72 0 0 1-.096-.528q0-.072.024-.144v-.048q0-1.272.744-2.04.336-.336.888-.624m-.744 2.904h.024q.024 0 .216-.096.456-.192.528-.216a5.7 5.7 0 0 1 1.656-.144 6.4 6.4 0 0 1 1.608.288q1.368.432 2.424 1.464a6.35 6.35 0 0 1 1.548 2.364q.492 1.332.528 2.748t-.612 2.748a5.8 5.8 0 0 1-1.896 2.22q-1.92 1.368-4.92.624-3.408-.84-4.848-3.528-1.152-2.16-1.152-5.904 0-1.08.036-1.764t.276-1.668a6 6 0 0 1 .696-1.728 8.9 8.9 0 0 1 2.16-2.448q1.272-.96 2.712-1.272a5.8 5.8 0 0 1 3 .168q1.488.48 2.784 1.824.36.36.648.96.288.624.36 1.224.096.744-.216 1.272-.36.624-1.2.768a2.6 2.6 0 0 1-1.236-.108q-.612-.204-.912-.432t-.804-.66a9 9 0 0 0-.6-.528 3 3 0 0 0-.54-.324 1.8 1.8 0 0 0-.636-.18q-.792.336-1.128.696-.48.504-.48 1.392 0 .096-.024.24m1.8 3.648a1.76 1.76 0 0 0-.576 1.176q-.048.408.096.576.144.144.528.072.096-.024.168-.216.12-.288.096-.72-.048-.576-.312-.888m.624-.672q.504.528.6 1.488.048.648-.144 1.128-.288.672-.888.792-.888.168-1.368-.408-.384-.456-.312-1.248.12-1.056.864-1.728v-.072a.45.45 0 0 1 .204-.288.52.52 0 0 1 .348-.072.2.2 0 0 0 .072.024.43.43 0 0 1 .36.012q.168.084.24.252a.4.4 0 0 1 .024.12"/></svg>