<svg xmlns="http://www.w3.org/2000/svg" width="256" height="256" style="-ms-transform:rotate(360deg);-webkit-transform:rotate(360deg);transform:rotate(360deg)" viewBox="0 0 24 24"><path fill="currentColor" d="M15.984 14.496a5.3 5.3 0 0 1 1.428.72q.636.456 1.02 1.068t.54 1.344-.012 1.548a5 5 0 0 1-.888 1.944 7.1 7.1 0 0 1-1.62 1.584 8.1 8.1 0 0 1-2.124 1.068 7.6 7.6 0 0 1-2.424.396q-1.248 0-2.244-.396t-1.656-1.068a3.8 3.8 0 0 1-.936-1.584q-.276-.912-.06-1.944.168-.816.612-1.548a6.3 6.3 0 0 1 1.104-1.344q.66-.612 1.488-1.068a8.3 8.3 0 0 1 1.764-.72q-1.392-.504-2.1-1.62T9.48 10.32a4.6 4.6 0 0 1 .768-1.752A5.9 5.9 0 0 1 11.7 7.14a7.7 7.7 0 0 1 1.932-.972 6.7 6.7 0 0 1 2.184-.36q1.128 0 2.016.36a4.5 4.5 0 0 1 1.5.972q.612.612.876 1.428t.072 1.752q-.312 1.44-1.512 2.556a7.3 7.3 0 0 1-2.784 1.62m-.288-8.136q-.6 0-1.044.312a2.5 2.5 0 0 0-.744.84 6 6 0 0 0-.516 1.236q-.216.708-.384 1.524t-.264 1.524-.012 1.236.384.84.9.312q.624 0 1.152-.312t.936-.84.708-1.236.468-1.524a8.3 8.3 0 0 0 .18-1.524q.012-.708-.18-1.236a1.9 1.9 0 0 0-.576-.84q-.384-.312-1.008-.312m-3.648 17.112q.696 0 1.284-.336a3.7 3.7 0 0 0 1.056-.924q.468-.588.804-1.38a8.2 8.2 0 0 0 .504-1.68 8 8 0 0 0 .192-1.68q0-.792-.204-1.392t-.648-.936-1.14-.336-1.188.336a2.9 2.9 0 0 0-.852.936q-.36.6-.612 1.392a18 18 0 0 0-.444 1.68 21 21 0 0 0-.252 1.68q-.084.792.012 1.38t.444.924 1.044.336"/></svg>