<svg xmlns="http://www.w3.org/2000/svg" width="256" height="256" style="-ms-transform:rotate(360deg);-webkit-transform:rotate(360deg);transform:rotate(360deg)" viewBox="0 0 24 24"><path fill="currentColor" d="M12.372 12.192c.096.072.24.144.384.216.12.072.216.12.336.192.096.072.216.12.312.168.12.072.192.144.288.216l.216.216c.072.096.144.192.216.264.048.096.12.192.192.288.024.096.072.192.096.288-.024.048-.024.096-.024.144-.048.048-.048.096-.048.12-.024.048-.024.096-.024.144-.048.048-.048.096-.048.144-.024.048-.024.096-.024.144-.048.048-.048.096-.048.12-.024.048-.024.096-.024.144-.048.048-.048.096-.048.144-.024.096-.024.192-.072.288-.024.096-.024.192-.072.288-.024.096-.024.192-.024.264-.048.096-.048.192-.048.264-.024.096-.024.192-.024.288-.048.096-.048.192-.048.288-.024.096-.024.192-.024.264-.048.096-.048.192-.048.264-.024.096-.024.192-.024.288v.816c0 .24 0 .48.024.696 0 .24 0 .48.048.696.024.24.072.48.096.696.048.24.072.48.12.696.024.24.096.48.144.696.024.24.096.48.168.696.072.24.144.48.216.696.072.24.144.456.264.672l-6.672-.048c.048 0 .048-.024.072-.048 0-.024 0-.024.048-.048 0-.024 0-.072.024-.096.048-.024.048-.024.072-.048 0-.024 0-.072.048-.096 0-.024 0-.024.024-.048.048-.024.048-.072.072-.096 0-.024 0-.024.048-.048.024-.048.024-.096.072-.144.024-.048.024-.096.072-.144.024-.048.072-.096.096-.168 0-.048 0-.096.048-.168v-8.28c-.048 0-.048 0-.072-.024-.048 0-.048 0-.048-.024-.024-.024-.024-.024-.072-.048-.024 0-.024 0-.072-.024-.024-.024-.024-.024-.072-.048-.024-.024-.024-.024-.024-.048-.048-.024-.048-.024-.072-.048-.048-.024-.048-.024-.072-.048-.048-.024-.048-.024-.072-.048-.048 0-.048 0-.072-.024-.048-.024-.048-.024-.072-.048-.048-.024-.048-.024-.048-.048-.024 0-.024 0-.072-.024-.024-.024-.024-.024-.072-.048-.024-.024-.024-.024-.072-.048-.024 0-.024 0-.072-.024-.024 0-.024 0-.024-.024h-.048c-.024 0-.024 0-.024-.024-.048 0-.048 0-.048-.024h-.072V13.8c-.024 0-.024 0-.024-.024.216-.024.432-.072.648-.12.216-.024.432-.072.648-.12s.432-.096.648-.168c.168-.048.384-.096.576-.168.168-.072.384-.144.6-.216.192-.072.408-.12.576-.192.12-.024.192-.072.288-.12.12-.024.192-.072.288-.12.072-.048.144-.096.264-.144.096-.048.168-.096.288-.144zm-.624-5.184c.12.12.264.24.408.36s.288.24.432.336c.144.12.288.216.432.312s.288.192.456.288c.144.096.288.192.48.264.168.072.312.168.504.24.168.072.384.12.576.192.168.072.36.12.576.168-.192.072-.336.144-.504.216-.192.096-.36.192-.552.264-.168.072-.312.168-.456.24-.192.096-.336.192-.504.264l-.216.144c-.12.048-.192.096-.264.12l-.216.144-.216.144a2.7 2.7 0 0 0-.384.288c-.144.12-.288.216-.408.336-.096-.12-.24-.24-.36-.36a5 5 0 0 1-.432-.312l-.432-.288c-.144-.096-.288-.192-.456-.288a2.3 2.3 0 0 1-.48-.264c-.168-.072-.36-.168-.528-.24-.12-.024-.192-.072-.288-.12-.12-.024-.192-.072-.264-.096-.096-.024-.168-.072-.288-.096-.096-.024-.168-.072-.288-.096.192-.072.408-.144.576-.216.192-.072.336-.12.504-.192.192-.072.36-.168.552-.24.144-.072.288-.168.456-.24.144-.072.288-.168.432-.264l.432-.288c.12-.096.264-.192.408-.312.096-.12.216-.216.312-.336z"/></svg>