<svg xmlns="http://www.w3.org/2000/svg" width="256" height="256" style="-ms-transform:rotate(360deg);-webkit-transform:rotate(360deg);transform:rotate(360deg)" viewBox="0 0 24 24"><path fill="currentColor" d="M22.5 28.582a1.34 1.34 0 0 1-.287.674q-.258.363-.574.504l-.534.123-13.675.094-4.395-.07a1 1 0 0 1-.72-.317 1.66 1.66 0 0 1-.504-.621 1.3 1.3 0 0 1-.165-.627l.047-.528q.048-.527.047-.668l-.047-13.083-.076-.481q0-.328.147-.668.099-.304.334-.627.404-.258 1.968-.984.628-.282 1.093-.498.466-.217.589-.27.446-.21.527-.24.323-.117.575-.117.275 0 .697.187 2.092.27 4.084.27 2.66 0 5.42-.41l.41-.07q.316 0 .574.093.246.1.604.334l3.164 1.465q.697.474.697 1.418l-.07 2.953.047 9.691zm-3.861-6.117q-.06-.492-.1-1.752a67 67 0 0 1-.023-2.04l.07-5.138-.023-.433.046-1.125q0-.43-.117-.791-.439-.627-1.178-.627-1.276.246-2.613.363-1.447.117-2.713.117-1.395 0-2.83-.14l-.24.023q-.4 0-1.06-.17-.687-.17-.956-.17-.345 0-.603.123a.96.96 0 0 0-.381.287q-.159.152-.24.358a.7.7 0 0 0-.1.386l.076.31.047 5.427-.146 5.132q.258.733 1.03.938.903 0 2.884.07 1.722.1 2.59.1l1.587-.024h.528q1.266 0 2.086-.046a74 74 0 0 0 1.658-.147q.645-.363.72-1.031m3.505 5.877-.077-1.055-.023-12.17-.047-.31q0-.176.07-.645a6 6 0 0 0 .077-.674q0-.387-.1-.627-.105-.217-.434-.427l-2.636-1.202.07.358q0 .187-.047 3.844-.047 3.69-.047 3.07l.024 2.379q0 .45.023.715l.07.82q0 .305-.046.55-.065.153-.264.434.17.159.387.452.035.052.126.205.09.151.208.328l2.373 4.699q.293-.246.293-.744m-.534 1.037q-.37-.732-.647-1.272-.28-.538-1.01-1.96-.733-1.42-1.026-2l-.457-.58q-.457.386-1.131.386l-5.133.14-2.783 5.596 6.838-.023 1.898-.023h1.729l1.008-.077a2.8 2.8 0 0 0 .585-.146zM6.397 24.023h-.41L3.182 29.59l.38.076zm5.373 0h-1.535l-2.882 5.69h1.564zm-2.689.024H7.934l-2.836 5.642h1.084zm2.28-3.744H6.778V18.96q.375-.463 1.011-1.277.636-.815.958-1.22.96-1.2.961-1.944 0-.4-.1-.551-.111-.194-.45-.194-.44 0-.58.31a1.9 1.9 0 0 0-.142.769H6.903l-.023-.264q0-.88.574-1.412.528-.504 1.512-.504 1.119 0 1.728.428.598.468.598 1.488 0 1.154-.598 1.898-.78 1.002-2.279 2.666h2.947zm-2.97 0H6.803z"/></svg>