<svg xmlns="http://www.w3.org/2000/svg" width="256" height="256" style="-ms-transform:rotate(360deg);-webkit-transform:rotate(360deg);transform:rotate(360deg)" viewBox="0 0 24 24"><path fill="currentColor" d="m3.216 23.112-.048.696h.708q.348 0 .684.024.648 0 .672.024a29 29 0 0 1 2.616.504q1.056.216 1.704.36t.912.192l-.72-1.368q-.432-.84-.432-1.512 0-.336.012-.744a44 44 0 0 1 .096-1.848q.036-.48.084-.936l1.296 2.232q1.128.552 2.268 1.104t2.268 1.104q.048.048.12.084t.192.108l.144.096q.072.048.168.096.336.192.696.336t.768.264q.816.216 1.656.288l1.992.096-1.176-2.592-1.296-.588a66 66 0 0 0-.936-.42 34 34 0 0 0-1.104-.504q-.552-.24-1.104-.504-.216-.12-1.584-1.368-1.32-1.224-1.368-1.584 0-.336 2.4-1.056.744-.216 1.476-.432t1.5-.456q.504-.192 1.704-.864 1.44-.864 1.656-.936l.072-.552a73 73 0 0 1-2.256-.072 16 16 0 0 0-.84-.024h-.72q-.336 0-.576.012t-.408.036a6 6 0 0 0-.264.06 1.7 1.7 0 0 0-.336.132l-4.584 2.016L9.6 16.992v-1.284q0-.612.024-1.212.048-1.224.168-1.68.048-.24.312-.804t.696-1.428q.264-.552.432-.864t.192-.384L9.48 6.168 4.248 6.6l-.024.6h.096l.84 2.328 1.368 1.128q0 1.776-.072 2.784-.072 1.032-.168 1.44-.024.192-.264.744t-.72 1.44q-.216.456-.372.768a6 6 0 0 0-.228.504q.168.504.324.96t.3.888q.6 1.632.6 2.208 0 .552-1.08.648-.048 0-1.632.072"/></svg>