<svg xmlns="http://www.w3.org/2000/svg" width="7068.017" height="4038.867" viewBox="0 0 6626.266 3786.438"><path d="M-3798.006-5382.502H2828.26v3786.438h-6626.266z" style="fill:#da0000" transform="translate(3798.006 5382.502)"/><path d="M-3798.006-5382.502H2828.26v2524.292h-6626.266z" style="fill:#fff" transform="translate(3798.006 5382.502)"/><path d="M-3798.006-5382.502H2828.26v1262.146h-6626.266z" style="fill:#239f40;fill-opacity:1" transform="translate(3798.006 5382.502)"/><path d="M1894.052 317.6c0 200.396-67.147 44.88-279.378 44.88-212.23 0-209.05 62.99-209.05-137.407 0-200.395 17.665-349.995 229.895-349.995s258.533 242.126 258.533 442.522" style="opacity:1;fill:#fdd116;fill-opacity:1;stroke:none;stroke-width:1.01706791;stroke-linecap:round;stroke-linejoin:round;stroke-miterlimit:4;stroke-dasharray:none;stroke-dashoffset:0;stroke-opacity:1" transform="translate(1920.393 1734.134)scale(.85884)"/><path d="m1135.917-178.509 22.223-23.738 44.447-35.356 35.86-17.172 19.698-6.061 94.954-1.515 17.173 11.111 27.78 21.214 17.172 13.132 13.637 20.203 26.769 15.152 16.162 41.416-11.616 26.77 11.616 25.253 6.061 30.81 2.526 79.802 16.162 6.06 26.264 23.234 26.264 18.183 28.284 10.101 22.729 5.051 65.66 16.163h229.81l60.103 4.04 95.46 27.274 73.236 35.86 83.337 38.387 60.104 41.416 45.962 15.152 40.406-2.525 21.719-30.81-.505-34.85-23.234-29.295-51.518-39.396-69.7-50.507-53.538-42.427-27.78-25.253-23.233-43.942-10.606-44.952 9.09-27.78 11.113-28.788 42.426-22.224 43.942-7.07 47.982 5.555 32.325 11.617 40.91 6.06 21.72 23.234 20.202 47.477-13.132 4.041-49.497-9.091-30.81-19.193-7.576-41.922-51.013-9.596-39.396 4.546-36.365 18.182-18.183 29.295 2.525 46.467 31.315 42.426 54.043 39.901 51.013 34.85 56.569 33.336 43.436 36.87 25.76 37.376 12.626 50.507-11.112 33.84-31.82 32.83-36.87 15.658-50.508 3.03-54.043-17.172-45.457-18.183-31.82-8.586 8.082 54.548-12.627 118.188 14.142 47.982 54.548 28.79 19.698 51.517-5.05 51.518-6.062 66.67-9.09 51.518-25.76 27.274-35.86 11.617-50.508 1.515-24.244-13.637-8.586-39.901-1.515-18.183 38.89-42.932 39.397 5.556 5.556-35.355-6.566-24.244-37.881-37.88-69.7-35.86-50.508-51.014-7.576-13.132-25.76 26.264-31.82 38.386-15.656 43.942 3.535 40.406-16.162 30.81-31.315 56.568-55.053 67.68-116.168 6.061-12.627-32.325 3.03-16.162 6.567-26.769 36.87-32.83 33.335 10.102 23.739-10.102 25.254-23.234-1.01-39.395-3.536-43.437-9.596-65.66 14.647-60.61 4.04-8.08-23.233-40.406-209.607 37.88-114.147-4.04-42.426-.505-41.922 23.233-10.607 41.416-33.84 25.76-38.385 57.073-40.406 83.843-22.729 35.355-23.233 53.033-69.7 39.9-117.684-2.02-3.03-29.294 16.162-38.89 29.295-30.81 47.477-5.556 25.759-3.536 38.89-80.812 30.81-88.893 31.82-74.752-21.718-13.132-40.943-17.41-111.786-32.857-75.357-10L935 385.22l-16.429 36.072-40.357 7.5-13.571-18.572 6.786-40.714 5.714-15-18.572-50.714L865 265.219l21.429-22.857 56.428 4.286 34.286 40 37.143-5.714L1125 294.505l7.143 2.143 17.857-20-21.429-257.143-2.857-52.857-10-32.857 22.857-56.429 2.858-33.571z" style="fill:#fdd116;fill-opacity:1;fill-rule:evenodd;stroke:none;stroke-width:1px;stroke-linecap:butt;stroke-linejoin:miter;stroke-opacity:1" transform="translate(1920.393 1734.134)scale(.85884)"/><path d="M1624.953-388.793a52 52 0 0 0-2.615.098l-6.166.39v17.5c0 21.95 1.598 78.556 3.117 110.625.635 13.407 1.528 44.625 1.984 69.375.811 43.985 1.3 63.966 1.616 66.02.086.561 1.703.842 3.594.625 4.096-.471 3.578 8.752 4.644-82.895.416-35.75.997-72.593 1.291-81.875.294-9.28.786-35.3 1.092-57.818l.557-40.941-2.782-.7c-1.147-.288-3.699-.438-6.334-.404zm-83.17 6.45q-.477-.016-.998.001-1.19.042-2.629.246c-11.05 1.557-11.938 2.642-9.902 12.114 1.655 7.699 3.597 17.098 4.738 22.927.538 2.75 1.86 9.22 2.936 14.375 1.076 5.157 3.121 15.563 4.545 23.125 1.423 7.563 3.102 16 3.73 18.75s1.78 8.375 2.557 12.5 2.465 12.563 3.75 18.75c2.062 9.93 4.419 22.039 8.883 45.625 2.556 13.507 3.673 19.572 6.22 33.75 4.197 23.365 7.482 40.318 8.746 45.145.652 2.486 1.186 5.729 1.186 7.205s.698 3.8 1.55 5.166c1.824 2.92 3.37 3.106 6.544.785 2.1-1.536 2.19-2.4.941-9.062-.759-4.05-2.023-11.582-2.808-16.739-.786-5.156-1.694-10.5-2.018-11.875-1.475-6.255-4.596-28.008-6.098-42.5-.427-4.125-1.262-8.625-1.857-10s-1.377-5.312-1.74-8.75c-.664-6.287-1.973-15.787-4.563-33.125-2.925-19.58-3.672-24.61-4.82-32.5-1.216-8.351-3.113-21.178-5.084-34.375-1.517-10.154-4.733-29.706-6.282-38.2-.696-3.823-1.265-9.83-1.265-13.348 0-7.093-1.489-9.832-6.262-9.99m162.207 1.179a6 6 0 0 0-.64.008c-1.32.089-1.974.67-2.649 1.932-1.136 2.123-3.344 16.437-7.664 49.67a4836 4836 0 0 1-5.047 37.5c-.76 5.5-1.88 13.656-2.488 18.124a2573 2573 0 0 1-2.367 16.875c-2.453 17.015-3.776 26.357-5.045 35.625-.706 5.157-2.102 14.157-3.102 20-1 5.844-2.409 15.125-3.13 20.625-2.132 16.232-5.343 37.408-8.278 54.573-.647 3.783-.383 4.673 1.53 5.166 7.017 1.808 6.624 2.411 9.173-14.114.795-5.156 2.44-13.875 3.654-19.375s2.325-12.48 2.47-15.511c.144-3.031.701-6.406 1.24-7.5.537-1.094 1.097-4.19 1.242-6.881.144-2.691.565-5.383.935-5.983s1.177-4.303 1.793-8.232 2.276-12.486 3.688-19.018c1.412-6.53 3.079-15.25 3.705-19.375a545 545 0 0 1 2.41-14.375c.7-3.78 1.836-9.968 2.523-13.75a25203 25203 0 0 1 2.62-14.375c2.471-13.543 3.815-21.149 4.97-28.125.626-3.78 1.746-10.53 2.49-15 .744-4.468 1.632-10.093 1.971-12.5s.924-5.368 1.299-6.582c.547-1.769 3.445-18.3 5.738-32.74.442-2.776-3.216-4.99-10.441-6.322-1.064-.196-1.91-.315-2.6-.34m-242.633 9.82c-1.768-.056-4.382.49-8.312 1.567-9.698 2.658-11.536 4.18-10.56 8.746.467 2.186 1.258 4.539 1.76 5.226.5.688 3.013 6.594 5.585 13.125 2.572 6.532 5.53 13.844 6.572 16.25 2.079 4.795 2.497 5.865 6.606 16.875 1.54 4.125 3.865 9.885 5.168 12.8 1.302 2.914 2.369 5.873 2.369 6.575 0 .703 1.057 3.662 2.35 6.576 1.292 2.915 5.84 14.3 10.107 25.3s8.23 21.124 8.81 22.5c.58 1.374 2.235 5.874 3.676 10 1.442 4.124 3.244 8.906 4.006 10.624 1.354 3.054 2.904 6.845 4.856 11.875.533 1.375 4.163 10.64 8.066 20.59s7.92 20.637 8.926 23.75 2.347 6.785 2.98 8.16c1.679 3.645 7.167 18.573 10.803 29.375 1.735 5.157 4.033 10.36 5.105 11.563 4.483 5.027 6.727 1.122 4.079-7.1-5.024-15.598-8.643-27.167-9.999-31.963-.874-3.093-2.979-9.562-4.675-14.375-1.697-4.812-3.525-10.437-4.063-12.5-.537-2.062-2.366-7.968-4.064-13.125-1.698-5.156-3.799-11.906-4.668-15s-2.042-6.75-2.606-8.125c-.563-1.375-1.703-4.75-2.53-7.5-.83-2.75-1.954-6.125-2.5-7.5-.548-1.375-1.56-4.468-2.253-6.875s-4.669-15.062-8.836-28.125c-4.167-13.062-9.328-29.375-11.469-36.25s-4.95-15.248-6.246-18.605c-1.295-3.357-2.355-7.16-2.355-8.453s-.537-3.328-1.192-4.522c-2.007-3.659-10.111-29.638-11.886-38.107-.464-2.211-1.336-3.28-3.61-3.352m328.479 15.475c-2.302.117-3.4 2.989-8.04 16.314-2.153 6.188-5.003 13.997-6.333 17.354s-2.418 6.787-2.418 7.62c0 .835-.92 3.356-2.041 5.604-1.122 2.25-2.48 5.853-3.02 8.006-.832 3.325-5.663 17.853-8.785 26.416-.501 1.375-2.136 5.875-3.633 10s-3.238 8.476-3.87 9.67-1.151 3.03-1.151 4.08-.539 2.885-1.195 4.078c-.657 1.194-2.988 7.797-5.182 14.672s-4.47 13.035-5.057 13.688-1.066 2.206-1.066 3.453-.523 3.244-1.16 4.437c-.638 1.194-1.556 3.297-2.041 4.672-.487 1.375-2.52 7-4.52 12.5s-5.241 14.782-7.205 20.625c-1.964 5.844-4.525 13.157-5.693 16.25s-3.25 8.72-4.625 12.5c-1.375 3.782-2.951 8-3.502 9.375-8.764 21.878-8.913 22.416-6.678 24.051 4.625 3.382 8.246 1.436 9.877-5.309.498-2.058 1.903-5.992 3.123-8.742s4.022-10.062 6.227-16.25c4.551-12.775 6.02-16.58 7.591-19.672.608-1.193 1.106-3.19 1.106-4.437s.479-2.8 1.064-3.453c1.15-1.283 9.235-21.366 12.3-30.551 1.033-3.1 2.387-6.171 3.007-6.824s1.129-2.45 1.129-3.99.562-3.148 1.25-3.573 1.25-1.864 1.25-3.199.44-2.426.976-2.426c.538 0 1.742-2.59 2.676-5.756.935-3.165 2.746-7.919 4.024-10.564s2.324-5.407 2.324-6.137.496-2.304 1.103-3.498c.608-1.194 1.676-3.576 2.373-5.295a382 382 0 0 1 3.18-7.5c1.052-2.406 2.863-7.187 4.026-10.625s3.106-8.5 4.318-11.25 2.89-6.968 3.728-9.375 1.975-5.5 2.528-6.875 2.8-7.28 4.994-13.125c2.193-5.843 4.441-11.75 4.996-13.125s2.282-5.875 3.836-10 3.22-8.062 3.7-8.75c.479-.687 1.194-3.363 1.591-5.945.642-4.183.355-4.882-2.639-6.389-1.848-.93-4.817-2.038-6.6-2.465-.717-.171-1.312-.292-1.843-.265m-406.875 34.443q-.99-.046-1.791 1.246c-.425.688-1.74 1.25-2.922 1.25s-3.365.852-4.854 1.895c-2.345 1.643-2.533 2.392-1.406 5.625.715 2.051 1.808 3.73 2.428 3.73s1.129.573 1.129 1.274c0 .7 1.531 3.654 3.404 6.562 3.596 5.584 3.9 6.102 10.268 17.55 2.221 3.993 6.703 11.586 9.96 16.874 5.39 8.749 6.252 9.585 9.583 9.285 3.521-.317 3.566-.257 1.181 1.6-2.457 1.914-2.453 1.98.594 7.83 1.69 3.245 3.369 6.182 3.73 6.525.362.344 1.484 2.313 2.493 4.375 1.009 2.063 3.31 6 5.113 8.75s5.099 8.352 7.326 12.45c2.228 4.097 5.13 8.966 6.45 10.818 1.318 1.852 2.398 3.983 2.398 4.736s.562 1.371 1.25 1.371 1.25 1.097 1.25 2.438c0 1.34.984 3.01 2.187 3.71 2.734 1.593 9.063 1.742 9.063.214 0-1.688-16.693-34.419-17.8-34.905-.524-.229-.95-1.187-.95-2.13 0-.944-1.576-4.414-3.5-7.71-1.925-3.295-4.268-7.96-5.21-10.367-.94-2.406-2.152-4.964-2.692-5.683-.541-.72-3.464-6.064-6.497-11.875-16.322-31.282-20.093-38.345-21.994-41.192-1.147-1.718-3.424-6.078-5.06-9.687-1.943-4.287-3.681-6.494-5.131-6.559m483.344 2.496c-1.549 0-5.76 5.656-5.76 7.735 0 1.245-.426 2.265-.945 2.265-.52 0-1.663 1.62-2.54 3.6-.876 1.98-4.82 9.433-8.765 16.562s-8.567 15.776-10.274 19.213-3.386 6.532-3.734 6.875c-.348.344-2.38 4-4.514 8.125-4.82 9.318-10.443 19.693-14.228 26.25-1.588 2.75-4.4 7.813-6.25 11.25s-4.655 8.5-6.235 11.25c-1.579 2.75-4.38 7.813-6.224 11.25-6.032 11.244-11.632 21.224-12.639 22.528-.954 1.235-2.099 3.325-13.69 24.972-2.944 5.5-6.39 11.492-7.657 13.317s-2.305 3.628-2.305 4.008-1.767 3.669-3.926 7.308c-4.208 7.096-7.1 12.117-12.043 20.906l-3.117 5.541 2.728 2.21c3.034 2.455 5.697 1.997 6.91-1.19 1.049-2.753 4.073-7.942 9.796-16.813 2.558-3.966 4.652-7.52 4.652-7.898s1.597-3.04 3.55-5.914c1.954-2.874 5.246-8.318 7.317-12.1a511 511 0 0 1 7.873-13.75c2.26-3.78 5.07-8.562 6.246-10.625 5.27-9.24 15.613-26.308 16.287-26.875.41-.343 1.475-2.435 2.37-4.646.894-2.212 2.396-4.66 3.34-5.444.942-.782 2.493-2.912 3.445-4.73 3.445-6.583 5.315-9.712 11.142-18.656 3.261-5.006 5.93-9.647 5.93-10.313s.422-1.215.937-1.22 1.548-1.271 2.295-2.813c.747-1.541 4.263-7.485 7.813-13.207s6.455-10.684 6.455-11.025 1.687-3.073 3.75-6.07 3.75-5.81 3.75-6.25 1.687-3.253 3.75-6.25c2.062-2.998 3.75-6.054 3.75-6.79s.456-1.336 1.015-1.336c.56 0 1.79-1.968 2.735-4.375s2.062-4.375 2.486-4.375c1.36 0 7.615-12.574 6.862-13.793-.808-1.307-11.294-8.707-12.338-8.707m-274.352 22.028c-1.385-.013-3.103.145-5.238.29l-6.485.444.905 7.057c3.28 25.609 6.446 52.76 9.42 80.806.729 6.875 1.917 17.844 2.642 24.375 2.087 18.798 3.57 34.716 4.363 46.875.404 6.188 1.31 11.953 2.012 12.813 1.544 1.887 1.754 1.9 4.746.299 2.173-1.163 2.312-2.484 1.735-16.563-.345-8.414-1.162-20.08-1.815-25.924-.653-5.843-1.191-15.45-1.191-21.345 0-5.897-.547-16.584-1.211-23.75-1.373-14.81-2.1-28.198-3.307-60.95-.779-21.133-.572-24.373-6.576-24.427m62.943 3.242c-1.528.077-1.824.888-2.314 3.084-.432 1.936-1.079 11.396-1.438 21.021-.358 9.625-1.184 24.532-1.835 33.125-.652 8.594-1.78 26.313-2.506 39.375a4950 4950 0 0 1-2.963 48.125c-.904 13.407-1.42 24.797-1.147 25.313.274.515 1.547.937 2.828.937 3.81 0 4.292-2.54 8.793-46.25.744-7.218 1.856-16.78 2.471-21.25 1.122-8.15 2.779-22.846 5.076-45 1.635-15.763 3.453-30.943 5.139-42.924 1.266-8.999 1.186-9.983-.977-12.068-1.295-1.248-4.672-2.643-7.505-3.098-1.224-.196-2.16-.335-2.887-.38a7 7 0 0 0-.735-.01m-130.26 10.355-5.22.112c-8.264.176-8.448 1.086-3.438 16.968 2.459 7.794 5.13 16.983 5.936 20.42s1.968 7.375 2.584 8.75 1.896 5.313 2.846 8.75c.949 3.438 3.741 13.563 6.203 22.5 2.461 8.938 5.542 19.907 6.847 24.375 1.306 4.47 3.617 12.907 5.135 18.75 1.519 5.844 3.193 11.75 3.721 13.125 1.16 3.02 3.581 12.401 5.742 22.246.875 3.986 2.524 8.67 3.664 10.41 1.283 1.959 2.793 2.89 3.96 2.442 1.035-.398 2.118-.723 2.405-.723 1.197 0 .367-5.91-2.001-14.24-3.68-12.947-4.429-15.772-9.446-35.76-4.866-19.387-5.152-20.58-9.312-38.75-3.846-16.796-4.617-19.976-6.217-25.625-2.05-7.238-3.692-14.323-4.57-19.718-.422-2.595-1.255-5.02-1.85-5.387-.595-.368-1.107-2.181-1.139-4.031s-1.362-8.145-2.955-13.989zm201.743 2.862c-4.363-.216-6.575 4.153-9.37 17.138-4.18 19.423-12.735 55.74-16.49 70-1.266 4.813-3.43 13.532-4.81 19.375-1.38 5.844-3.436 14.282-4.572 18.75-1.136 4.47-2.534 10.094-3.106 12.5-.57 2.407-1.972 7.47-3.115 11.25-3.099 10.254-3.476 12.273-2.678 14.354.992 2.585 5.455 2.397 6.87-.291.632-1.203 1.866-5.563 2.742-9.688s2.063-8.034 2.642-8.687 1.053-2.208 1.053-3.455.492-3.244 1.096-4.438c1.846-3.655 3.904-10.946 3.904-13.838 0-1.507.518-3.718 1.152-4.912 1.207-2.272 5.06-15.25 7.694-25.92.848-3.437 1.93-6.812 2.404-7.5s1.57-4.062 2.437-7.5c1.79-7.1 4.409-16.215 10.59-36.875a8787 8787 0 0 0 6.332-21.25c1.118-3.78 2.56-8.545 3.205-10.586 1.388-4.388-.084-6.378-5.97-8.066-.72-.206-1.387-.33-2.01-.361m-421.065 6.728c-3.15 0-6.227.12-9.144.375-14.838 1.302-39.869 8.9-42.305 12.842-.365.59 2.028 3.393 5.317 6.227 9.674 8.333 24.63 30.26 30.076 44.091.947 2.407 2.805 5.945 4.127 7.864 2.094 3.04 3.122 3.45 7.99 3.199 6.131-.318 7.072-1.321 8.465-9.03.481-2.662 1.312-5.756 1.844-6.874 5.175-10.88 6.919-14.036 8.974-16.243 1.313-1.409 2.387-2.911 2.387-3.338 0-1.778 15.681-15.87 24.062-21.623 3.266-2.241 5.938-4.827 5.938-5.746 0-5.875-25.675-11.741-47.73-11.744m634.727 1.035c-2.064 0-3.778 1.563-8.246 7.518-1.719 2.29-4.272 5.334-5.672 6.762s-4.462 5.385-6.805 8.796c-2.342 3.412-5.856 7.874-7.808 9.917-1.952 2.042-4.794 5.33-6.319 7.304-2.349 3.044-12.294 15.495-30.11 37.701-2.152 2.681-5.74 6.808-7.974 9.17s-4.075 4.67-4.091 5.127-1.845 2.867-4.063 5.358-5.158 5.943-6.533 7.672c-1.375 1.728-8.406 10.341-15.625 19.14-28.585 34.842-32.008 39.044-35.625 43.725-2.063 2.669-4.594 5.731-5.625 6.804s-4.405 5.03-7.496 8.791c-3.09 3.762-7.17 8.528-9.065 10.59-4.71 5.125-5.523 8.173-2.728 10.217 1.247.912 2.66 1.658 3.142 1.658s5.013-4.922 10.07-10.937c5.058-6.016 9.48-11.219 9.825-11.563.346-.343 4.284-4.84 8.752-9.99s9.909-11.338 12.09-13.75a475 475 0 0 0 6.644-7.51c9.906-11.55 17.694-20.103 22.828-25.07 3.266-3.16 5.938-6.128 5.938-6.598 0-.861 3.956-5.654 10.348-12.537 1.91-2.056 5.657-6.311 8.328-9.455 8.216-9.67 21.719-24.902 28.384-32.021 6.666-7.119 16.096-17.763 30.44-34.358 3.781-4.374 9.25-10.514 12.152-13.644 2.903-3.13 5.294-6.867 5.313-8.303.039-2.87-7.573-10.514-10.469-10.514m-150.522 13.069c-2.2.12-3.561 2.513-6.343 9.431-1.52 3.782-3.373 8.282-4.116 10a174 174 0 0 0-2.306 5.625c-.979 2.562-3.018 7.425-6.814 16.25a756 756 0 0 0-3.44 8.125l-2.32 5.625c-.567 1.375-2.935 6.72-5.26 11.875-2.326 5.157-6.367 14.438-8.98 20.625-2.614 6.188-5.233 11.785-5.823 12.438s-1.072 1.931-1.072 2.84-2.25 6.476-5 12.373-5 10.958-5 11.248c0 .65-9.613 21.532-11.297 24.539-.842 1.503-.737 2.97.336 4.687.859 1.375 2.411 2.463 3.45 2.418 1.746-.075 25.01-45.073 25.01-48.377 0-.733.423-1.52.938-1.75.516-.229 4.5-7.728 8.854-16.666 4.354-8.937 8.525-17.375 9.27-18.75 1.535-2.837 23.981-46.775 29.845-58.422 2.58-5.122-.618-11.015-7.369-13.582-1.004-.381-1.829-.592-2.563-.552m-332.015 4.757a3 3 0 0 0-.473.002c-.37.028-.77.11-1.22.215-5.426 1.267-10.266 3.423-10.266 4.57 0 .584 1.22 3.187 2.713 5.786 4.833 8.417 27.287 53.9 27.287 55.271 0 .732.562 1.33 1.25 1.33s1.25.506 1.25 1.125c0 .62 7.516 16.51 16.705 35.313 9.189 18.802 18.243 37.562 20.12 41.687 1.875 4.125 4.004 8.222 4.73 9.104.725.882 1.939 1.4 2.695 1.152 2.563-.842 2.162-5.685-1.05-12.709-1.761-3.848-3.2-7.542-3.2-8.209s-.563-1.213-1.25-1.213-1.25-.905-1.25-2.01-1.727-5.745-3.838-10.312-4.304-9.428-4.875-10.803-2.22-5.165-3.664-8.423-2.623-6.195-2.623-6.526-1.342-3.571-2.983-7.201c-1.64-3.63-4.452-9.85-6.25-13.824-1.797-3.974-3.267-7.685-3.267-8.246s-.79-2.654-1.756-4.65c-3.048-6.304-6.773-14.848-9.527-21.856-1.465-3.726-3.522-8.742-4.57-11.149-1.05-2.406-2.888-6.625-4.087-9.375-6.83-15.676-8.304-18.87-10.601-19.048m-221.406.118c-2.152-.021-5.085.602-9.928 1.56-5.221 1.033-18.004 8.277-23.52 13.328-6.613 6.058-6.083 8.466 3.522 16.014 4.47 3.513 8.548 7.135 9.062 8.049s4.036 4.939 7.826 8.945 8.368 9.254 10.172 11.66 4.75 6.063 6.545 8.125 3.265 4.34 3.266 5.063.677 1.987 1.502 2.812c2.256 2.256 3.328 1.974 16.09-4.222 12.613-6.125 17.41-9.718 17.41-13.043 0-2.805-9.4-21.37-12.512-24.71-1.369-1.469-2.488-3.151-2.488-3.738 0-.586-1.013-2.157-2.25-3.49s-3.705-4.57-5.485-7.193c-1.779-2.624-6.181-8.133-9.783-12.24-4.435-5.06-5.844-6.885-9.43-6.92m131.523.808-4.295 2.535c-11.7 6.904-28.169 24.572-34.336 36.838-5.525 10.988-6.156 12.656-6.365 16.834-.193 3.85.146 4.203 5.598 5.819 3.192.946 7.625 3.42 9.851 5.5s4.925 4.271 5.996 4.87 2.826.766 3.899.37c2.14-.79 7.574-6.585 7.574-8.08 0-.516.986-1.94 2.19-3.166 1.202-1.226 3.874-4.447 5.937-7.156 5.392-7.084 10.665-11.841 19.008-17.15 4.027-2.564 9.258-6.657 11.623-9.097l4.299-4.437-7.41-6.84c-4.076-3.763-8.092-6.842-8.924-6.842-.833 0-1.7-.435-1.93-.966-.23-.532-3.184-2.78-6.566-4.999zm484.758 28.748c-1.559 0-5.146 3.584-7.348 7.338-.748 1.277-10.979 16.602-22.734 34.055a37756 37756 0 0 0-25.56 37.982c-2.304 3.438-4.498 6.532-4.878 6.875-.379.344-1.252 1.53-1.94 2.635-3.331 5.357-22.38 33.068-23.107 33.615-1.386 1.045-11.523 16.418-11.068 16.787.234.19 1.55.973 2.926 1.74 4.258 2.379 5.463 1.71 10.94-6.064 4.838-6.869 17.437-23.805 19.962-26.838.573-.687 4.155-5.468 7.96-10.625 3.804-5.156 7.586-10.218 8.405-11.25.82-1.03 5.874-7.78 11.231-15 13.759-18.541 22.496-30.014 24.314-31.927.86-.905 1.563-2.142 1.563-2.748s.999-2.195 2.22-3.528 3.577-4.39 5.233-6.797 4.595-6.224 6.53-8.482c1.945-2.272 3.517-5.592 3.517-7.432 0-3.394-5.485-10.336-8.166-10.336m-670.895 5c-.937 0-8.974 5.505-10.94 7.493-.993 1.004-12.796 10.544-14.196 11.474-1.71 1.135 1.365 4.781 4.037 4.787 2.959.008 13.066 5.373 19.21 10.197 2.925 2.296 6.444 5.018 7.821 6.05 7.325 5.484 19.66 19.201 21.84 24.284 1.347 3.143 3.053 5.715 3.793 5.715 2.427 0 11.09-4.94 15.586-8.888 8.36-7.34 5.41-15.055-12.576-32.914-10.95-10.872-32.195-28.198-34.575-28.198m232.924.512c-1.228.042-2.705.9-5.77 2.805-3.148 1.957-7.997 5.386-10.777 7.62s-5.488 4.063-6.021 4.063c-3.366 0-31.295 28.117-31.295 31.506 0 1.235 2.292 3.66 5.19 5.488 2.854 1.802 7.495 5.72 10.312 8.707 6.878 7.292 9.339 7.124 14.79-1.013 8.029-11.982 20.11-22.863 36.27-32.662 5.058-3.067 4.57-7.72-1.527-14.573-2.73-3.068-4.98-6.27-5-7.113s-1.426-2.443-3.125-3.556c-1.286-.843-2.092-1.305-3.047-1.272m587.979 8.238c-.766 0-3.322 1.73-5.68 3.844s-5.857 5.067-7.775 6.563-5.616 4.687-8.215 7.093c-3.859 3.572-14.78 13.23-21.908 19.375-8.77 7.559-20.268 17.587-20.764 18.108-.786.826-15.771 13.544-19.904 16.892-1.698 1.375-4.275 3.625-5.729 5s-6.547 5.672-11.318 9.55c-4.771 3.876-9.805 8.095-11.186 9.374-2.572 2.383-19.032 16.5-41.238 35.365a54152 54152 0 0 0-21.371 18.164A5129 5129 0 0 1 1811.834-49c-10.968 9.238-10.775 8.875-7.191 13.508 1.77 2.29 3.576 1.93 7.777-1.541a704 704 0 0 1 5-4.102c.687-.552 4.926-4.08 9.418-7.838s10.399-8.617 13.125-10.797c18.4-14.71 28.449-22.698 31.967-25.41 2.23-1.718 4.658-3.706 5.396-4.416.739-.71 3.313-2.64 5.719-4.289s8.369-6.411 13.252-10.584c4.883-4.172 10.145-8.43 11.691-9.46 1.547-1.032 4.582-3.414 6.746-5.294s4.317-3.426 4.784-3.437 1.591-.74 2.5-1.617c.908-.878 8.964-7.395 17.902-14.485 18.154-14.4 22.057-17.525 31.684-25.355a1313 1313 0 0 1 11.875-9.541c9.993-7.9 19.786-15.937 24.902-20.436l5.16-4.537-4.88-6.4c-2.685-3.52-5.508-6.399-6.274-6.399m-550.545 26.221c-4.329.162-10.278 2.64-20.412 7.803-23.347 11.892-28.504 17.65-28.823 32.174-.175 7.998.086 8.915 3.563 12.576 9.593 10.1 21.834 10.244 32.61.383 5.157-4.721 6.765-8.025 6.765-13.907 0-6.697-3.853-11.5-9.227-11.5-4.898 0-7.327 1.738-10.474 7.5-3.392 6.209-5.986 5.773-5.686-.953.265-5.933 4.346-12.775 7.658-12.838 1.157-.022 3.195-.865 4.53-1.875 1.475-1.115 5.222-1.834 9.556-1.834 9.112 0 12.282 2.929 14.344 13.256 2.193 10.983-.226 18.549-8.885 27.783-4.544 4.847-6.184 5.672-15.634 7.87-12.596 2.929-18.661 6.562-18.674 11.185-.012 4.514 4.28 8.003 13.742 11.17 4.469 1.496 11.126 5.059 14.795 7.916 10.85 8.452 29.215 25 30.701 27.666.758 1.36 2.22 3.14 3.25 3.959 1.422 1.13 2.29 1.14 3.617.04 1.417-1.177 1.593-4.75.93-18.96-.928-19.867-1.467-22.78-4.36-23.549-1.804-.479-1.787-.564.13-.691 2.387-.158 2.927-2.04.937-3.27-.688-.425-1.25-1.829-1.25-3.119 0-1.31-2.194-3.896-4.975-5.863-5.705-4.037-5.833-4.457-2.748-8.951 3.297-4.802 6.675-12.48 8.33-18.942 1.096-4.276 1.086-7.273-.039-12.5-1.659-7.71-5.398-17.5-6.685-17.5-.465 0-1.876-1.746-3.137-3.88-1.26-2.135-3.997-5.51-6.08-7.5-2.616-2.5-5.002-3.775-8.37-3.649m-302.535 1.266c-10.483-.105-18.52 5.344-23.3 15.986-5.282 11.761-3.024 25.273 5.792 34.656 3.265 3.476 2.587 6.822-2.483 12.246-6.074 6.5-11.141 16.282-13.664 26.38-2.168 8.68-2.304 11.182-1.119 20.624.742 5.91 1.897 11.439 2.565 12.285 1.452 1.84 2.497 1.204 12.336-7.498 7.81-6.908 7.514-6.678 14.86-11.423 3.095-1.999 7.078-4.62 8.854-5.823 3.4-2.303 7.807-3.833 21.125-7.33l8.104-2.127 1.127-5.545c.62-3.049 1.192-7.511 1.271-9.918l.145-4.375h-8.125c-12.59 0-19.537-3.85-24.643-13.664-2.719-5.225-2.672-23.826.072-28.836 1.13-2.062 2.063-4.356 2.063-5.095 0-.74 1.372-2.625 3.039-4.192 2.663-2.502 3.808-2.741 9.428-1.969 4.907.675 7.256 1.796 10.088 4.817 6.377 6.804 4.004 17.366-2.452 10.91-3.365-3.365-6.655-3.286-10.777.26-4.502 3.872-4.51 10.554-.024 17.03 3.876 5.592 7.73 7.614 14.514 7.614 6.64 0 13.943-7.023 15.69-15.088 1.234-5.702-.196-16.162-2.21-16.162-.571 0-1.039-.78-1.039-1.732 0-5.1-18.164-16.856-31.875-20.629-3.3-.908-6.428-1.373-9.363-1.402zm758.537 3.775a4 4 0 0 0-.57.016c-.897.084-1.69.456-1.938 1.162-.404 1.153-23.211 25.562-39.848 42.648-4.499 4.621-15.186 15.833-23.75 24.916s-23.862 25.033-33.998 35.444c-10.136 10.41-18.427 19.444-18.437 20.078 0 .633.935 2.194 2.088 3.468 1.152 1.274 2.504 2.162 3.002 1.973 1.168-.443 26.642-24.325 61.029-57.217 3.953-3.781 12.46-11.656 18.904-17.5 6.445-5.843 15.966-14.605 21.156-19.468 5.191-4.864 12.391-11.551 16-14.86s6.563-7.098 6.563-8.424-1.688-3.83-3.75-5.566-3.75-3.948-3.75-4.918c0-1.07-1.36-1.704-2.701-1.752m312.607 9.041c-8.33-.023-15.728.4-20.531 1.299-11.457 2.144-29.485 6.587-35 8.627-10.97 4.057-33.525 22.86-38.139 31.797-1.021 1.979-2.14 3.879-2.484 4.222-2.295 2.288-8.91 18.616-11.113 27.426-4.454 17.813-2.877 42.924 3.753 59.762.61 1.547 1.573 4.078 2.141 5.625 4.073 11.083 15.2 29.048 26.516 42.812 9.039 10.995 28.27 29.732 37.955 36.979 4.059 3.037 9.965 7.443 13.125 9.789s6.027 4.596 6.37 5.002c.345.406 3.157 2.424 6.25 4.484 3.095 2.06 6.734 4.748 8.089 5.971 2.683 2.423 17.052 12.523 23.512 16.525 3.47 2.15 22.407 15.833 32.15 23.229 1.719 1.305 6.219 4.428 10 6.94 11.298 7.504 14.456 9.691 18.256 12.646 1.99 1.547 9.806 7.43 17.369 13.072 13.714 10.232 33.53 28.877 39.658 37.315 5.692 7.838 9.507 17.236 10.26 25.279.828 8.853-.779 20.478-3.615 26.164-1.06 2.125-1.928 4.59-1.928 5.478 0 2.399-11.902 13.668-17.236 16.32-3.664 1.822-7.532 2.31-18.39 2.31h-13.75l-16.874-6.842c-16.29-6.603-66.168-31.072-70-34.34-1.031-.88-8.344-5.432-16.25-10.118-15.48-9.174-24.875-14.934-26.887-16.482-.694-.534-6.6-3.717-13.125-7.074s-16.74-9.1-22.701-12.76-13.555-7.866-16.875-9.346-14.475-6.787-24.787-11.796c-27.093-13.162-44.999-19.96-75.625-28.713-7.906-2.26-18.031-5.246-22.5-6.637-27.726-8.631-47.296-13.634-67.5-17.254-1.719-.308-5.938-1.173-9.375-1.922-7.171-1.563-18.37-3.051-36.25-4.816-11.94-1.179-108.36-.802-110.356.431-1.793 1.109-70.984 2.667-100.894 2.272-17.228-.228-35.588-1.178-43.125-2.23a3693 3693 0 0 0-22.5-3.069c-5.156-.68-13.809-2.121-19.229-3.201-8.166-1.627-10.032-1.677-10.886-.295-1.22 1.974-2.324 11.02-2.723 22.314l-.287 8.125 10 .868c5.5.476 14.781 1.251 20.625 1.722 19.002 1.531 94.873 1.203 125.625-.543 65.156-3.699 170.424-4.933 186.8-2.191 10.433 1.747 12.04 1.76 13.85.123 3.56-3.221 15.127-2.206 36.643 3.215 11.062 2.786 20.696 5.51 21.41 6.052 1.417 1.077 20.602 7.551 32.547 10.983 4.125 1.185 8.906 2.882 10.625 3.77s3.972 1.617 5.008 1.62c2.95.013 23.863 8.51 28.732 11.676 2.411 1.568 6.226 3.595 8.477 4.504 2.25.91 7.031 3.224 10.625 5.14a667 667 0 0 0 13.408 6.915c6.13 3.057 20.78 10.86 43.125 22.973 4.125 2.235 8.275 4.71 9.223 5.496 2.51 2.083 18.418 10.786 37.027 20.257 8.937 4.55 17.094 8.953 18.125 9.786 6.758 5.454 33.723 19.503 46.875 24.423 4.125 1.544 9.811 3.88 12.637 5.196 2.825 1.315 5.71 2.392 6.412 2.392.7 0 4.295 1.381 7.988 3.07 4.215 1.93 13.224 4.088 24.213 5.8 14.967 2.331 18.71 2.522 25.86 1.32 12.316-2.071 19.367-5.722 29.14-15.088 6.398-6.132 7.577-8.075 9.875-16.266 2.948-10.508 1.5-30.822-2.99-41.96a372 372 0 0 1-2.518-6.522c-.83-2.212-2.305-4.68-3.275-5.485s-2.6-3.215-3.623-5.355c-1.731-3.62-24.596-26.67-32.647-32.91a6391 6391 0 0 1-13.613-10.625c-12.648-9.894-27.884-21.01-36.992-26.988-3.868-2.54-16.243-11.626-27.5-20.192-26.675-20.298-36.426-27.504-47.436-35.05-3.51-2.407-10.691-7.722-15.957-11.815l-11.258-8.75c-.926-.72-7.58-6.936-14.787-13.81-7.52-7.174-13.937-12.325-15.058-12.09-2.38.497-4.05-1.9-4.077-5.842-.018-2.775-4.418-10.336-6.537-11.235-.54-.229-.982-.913-.982-1.52 0-.606-1.688-3.763-3.75-7.015s-3.75-6.927-3.75-8.168-.472-2.256-1.049-2.256-1.767-2.39-2.643-5.312-2.015-6.438-2.533-7.813c-1.93-5.132-3.775-14.569-3.775-19.318 0-2.7-.625-5.295-1.39-5.768-1.412-.872-1.116-5.649 1.316-21.164 2.728-17.406 5.505-26.405 10.281-33.316 1.261-1.825 2.293-3.723 2.293-4.217s3.697-4.433 8.215-8.756c8.931-8.544 27.045-18.423 37.843-20.638 3.2-.657 9.473-2.056 13.942-3.108s15.156-2.24 23.75-2.638c27.39-1.273 62.428 5.659 78.45 15.517 6.445 3.966 8.002 4.395 15.3 4.21 10.938-.279 25.426 3.615 30.414 8.175 8.919 8.153 14.328 14.43 16.752 19.44 1.419 2.932 5.48 11.519 9.027 19.081 3.547 7.563 6.979 14.728 7.627 15.922 2.534 4.666 1.505 6.014-4.133 5.41-2.922-.312-7.689-1.162-10.593-1.886-2.905-.725-10.217-1.821-16.25-2.436-14.657-1.493-22.585-3.935-32.797-10.105-6.25-3.776-9.728-6.964-13.035-11.946-2.482-3.737-4.512-7.553-4.512-8.48s-.422-2.108-.938-2.623c-1.213-1.214-1.222-1.306-1.406-14.176l-.156-10.947-5.938-3.598c-22.654-13.731-56.074-15.996-95.312-6.457-7.26 1.765-24.531 8.598-27.7 10.96-14.231 10.605-25.112 25.58-28.86 39.72-1.835 6.918-3.275 20.277-2.63 24.392 2.051 13.08 4.896 21.796 11.832 36.25 6.721 14.005 36.265 42.943 61.54 60.278 4.231 2.902 12.147 8.527 17.591 12.5 5.444 3.972 12.93 8.91 16.633 10.972 11.03 6.142 29.739 17.755 50.344 31.245 10.656 6.976 21.625 14.033 24.375 15.681 5.727 3.433 5.578 3.324 13.273 9.61 7.6 6.207 8.835 7.199 19.852 15.955 12.473 9.913 27.868 24.826 32.154 31.15 1.906 2.811 3.785 5.39 4.176 5.734 4.955 4.356 18.67 32.329 18.67 38.078 0 1.656.578 4.531 1.285 6.391 2.045 5.377 1.7 28.883-.547 37.332-3.56 13.388-13.396 31.432-20.547 37.7a5559 5559 0 0 0-8.941 7.857c-2.406 2.12-4.816 3.862-5.356 3.873-.54.01-2.439.975-4.22 2.142-3.551 2.327-13.558 5.872-20.424 7.237-2.406.478-6.906 1.772-10 2.875-4.27 1.522-10.44 2.005-25.625 2.006-20.517 0-27.775-1.197-44.375-7.319-3.094-1.14-7.594-2.64-10-3.332-10.223-2.938-60.887-20.165-71.475-24.303-6.338-2.476-14.772-6.141-18.74-8.144-8.148-4.113-16.35-4.783-20.758-1.695-4.097 2.87-3.727 10.917.973 21.18 2.062 4.503 3.75 8.904 3.75 9.78 0 .877.467 2.129 1.039 2.782 1.509 1.724 3.555 9.795 5.28 20.82 1.872 11.973.558 36.407-3.616 67.242-2.352 17.375-3.75 24.02-8.941 42.5-3.627 12.908-3.889 15.676-2.362 25 2.388 14.583 8.159 30.026 13.367 35.778 5.82 6.425 7.141 17.743 2.456 21.025-1.528 1.07-4.62 1.947-6.871 1.947-4.743 0-11.576-5.53-17.35-14.04-1.99-2.934-3.955-5.616-4.365-5.96-2.899-2.427-18.018-35.61-19.934-43.75-1.963-8.335-1.916-43.475.072-53.63a1618 1618 0 0 0 2.64-13.87c.7-3.781 1.75-8.843 2.337-11.25 2.767-11.358 3.519-20.97 3.125-40-.449-21.63-1.482-33.526-3.094-35.625-.528-.687-1.682-4.343-2.563-8.125-4.677-20.091-16.904-48.892-24.783-58.375-5.302-6.382-10.078-8.692-13.824-6.687-4.923 2.635-3.807 6.308 7.465 24.582 11.208 18.17 14.24 27.088 17.96 52.79 2.41 16.649-.889 50.873-6.823 70.815-6.63 22.275-8.717 33.119-8.717 45.25 0 14.576 1.909 23.223 8.771 39.75 2.504 6.031 19.148 40.06 19.87 40.625.439.344 2.753 3.908 5.142 7.922 3.805 6.395 13.272 16.398 24.205 25.576 3.359 2.82 3.41 3.063 2.568 12.702-.555 6.364-.314 12.176.686 16.5 1.917 8.287 10.342 25.41 14.97 30.425 4.69 5.08 17.994 25.356 19.686 30 2.883 7.917 4.345 28.213 2.881 40-2.73 21.985-6.965 31.98-16.648 39.291-7.794 5.885-10.63 6.205-28.202 3.172-12.845-2.217-15.92-1.52-20.521 4.647-3.74 5.01-5.146 14.791-3.024 21.015 1.426 4.179 1.308 4.537-2.613 7.979-2.257 1.982-5.632 6.763-7.5 10.625-2.903 6.004-3.394 8.612-3.394 18.004 0 6.04.562 11.384 1.25 11.875s2.009 1.861 2.937 3.047c.405.517.187.91-2.51 1.21l11.534 4.088h83.298l3.428-3.078h-.744l2.64-3.437c1.452-1.89 6.414-7.389 11.028-12.217 11.115-11.632 11.957-12.779 17.666-24.05 5.792-11.436 5.972-12.01 7.59-24.079 1.42-10.597 3.053-20.223 4.973-29.342 1.214-5.77 2.5-13.884 4.455-28.125.424-3.093 1.247-6.75 1.828-8.125.58-1.375 1.391-5.875 1.802-10a613 613 0 0 1 1.813-15.625c1.586-12.084.705-23.98-2.273-30.715-2.873-6.492-3.584-21.509-1.303-27.507.708-1.862 1.318-8.227 1.355-14.145.07-11.044-1.815-18.104-5.695-21.324-1.071-.889-1.947-2.255-1.947-3.037s-1.125-2.124-2.5-2.983c-1.375-.858-2.5-2.362-2.5-3.341s-1.253-2.179-2.784-2.664-5.475-2.736-8.767-5c-3.292-2.265-10.573-5.887-16.18-8.05-5.606-2.161-13.173-5.836-16.814-8.165-3.642-2.33-9.418-5.653-12.836-7.385-6.771-3.431-10.202-7.332-16.535-18.809-4.12-7.466-4.138-7.575-4.088-24.375.045-15.147 1.427-25.82 4.289-33.125 2.466-6.294 5.023-18.51 6.152-29.396.679-6.543 1.609-14.137 2.067-16.875.458-2.739.88-17.635.94-33.104.104-26.81-.03-28.466-2.843-35.388-3.964-9.753-2.836-10.75 8.254-7.291 4.686 1.46 14.988 4.38 22.895 6.488 7.906 2.107 17.75 4.86 21.875 6.117 38.817 11.83 69.182 18.467 89.375 19.537 7.97.423 14.421-.186 25.826-2.433 8.36-1.648 15.812-3.373 16.558-3.834s2.45-1.05 3.788-1.307c3.883-.748 24.228-11.184 28.255-14.494 8.064-6.628 23.073-22.662 23.073-24.649 0-.563 1.003-2.116 2.228-3.449 9.077-9.87 15.398-42.709 11.606-60.297-3.082-14.293-4.085-18.424-5.069-20.875-3.414-8.509-8.337-17.76-12.015-22.58-2.337-3.062-4.25-6.125-4.25-6.806a1.25 1.25 0 0 0-1.25-1.24c-.688 0-1.25-.866-1.25-1.924 0-2.135-27.286-29.864-40-40.65-4.47-3.792-10.657-8.56-13.75-10.595s-5.984-4.195-6.422-4.8c-.44-.606-1.51-.661-2.381-.123-.914.564-1.272.474-.846-.215.406-.657-2.741-3.476-6.994-6.262s-11.951-7.817-17.107-11.182c-5.157-3.364-9.938-6.556-10.625-7.091-.688-.536-4.063-2.773-7.5-4.973s-6.994-4.716-7.903-5.592-2.133-1.594-2.722-1.594c-.59 0-1.85-.777-2.801-1.728-.952-.952-4.227-2.996-7.277-4.543-3.051-1.547-5.829-3.228-6.172-3.733-.344-.505-3.438-2.417-6.875-4.251-8.324-4.442-12.924-7.266-25.973-15.946-6.034-4.014-11.324-7.299-11.758-7.299-.72 0-13.94-9.708-15.394-11.304-.344-.378-4.282-3.443-8.75-6.813-4.47-3.37-12.88-10.655-18.694-16.191-23.19-22.085-24.72-24.15-31.52-42.567-6.52-17.66-6.015-35.437 1.442-50.873 1.387-2.87 2.522-5.681 2.522-6.246 0-1.815 6.665-8.59 14.552-14.795 9.153-7.199 25.727-14.362 36.096-15.6 4.113-.49 10.29-1.595 13.727-2.454 16.735-4.185 48.105.067 60.884 8.252 4.623 2.96 4.635 2.99 4.688 11.859.077 12.916 1.984 21.081 6.434 27.549 5.923 8.61 10.98 13.283 19.109 17.666 9.959 5.368 35.916 11.489 48.96 11.545 3.397.014 12.362 1.018 19.925 2.232 17.883 2.87 22.327 2.825 22.918-.234.249-1.293-.104-2.7-.786-3.125-.68-.426-3.08-4.432-5.332-8.9-2.25-4.47-4.419-8.407-4.82-8.75-.836-.717-12.34-23.945-16.242-32.798-1.436-3.257-3.421-6.913-4.41-8.125a2332 2332 0 0 1-7.57-9.39c-3.175-3.953-6.261-7.188-6.862-7.188-.6 0-1.883-.79-2.85-1.755-.966-.967-6.413-4.098-12.103-6.96l-10.346-5.2-13.996.384c-11.418.314-14.582.001-17.177-1.7-4.067-2.663-28.673-9.144-41.674-10.974-10.259-1.444-22.51-2.21-33.22-2.24zm-171.516 33.578-5.093 2.6c-2.803 1.43-6.52 3.562-8.26 4.738-4.363 2.95-21.536 13.305-31.004 18.693-9.102 5.181-38.88 22.912-45.283 26.963-2.406 1.523-11.846 7.207-20.977 12.633s-18.693 11.132-21.25 12.68c-2.556 1.547-6.336 3.658-8.398 4.691-2.063 1.033-6.281 3.546-9.375 5.584s-8.156 5.165-11.25 6.947-9.281 5.433-13.75 8.112-8.969 5.274-10 5.767-6.094 3.44-11.25 6.547c-5.156 3.108-12.75 7.385-16.875 9.504-11.31 5.81-10.878 5.363-8.594 8.85 1.103 1.683 2.953 3.06 4.11 3.06 1.156 0 17.825-8.699 37.043-19.33 19.217-10.631 39.722-21.933 45.566-25.117s16.531-9.01 23.75-12.945a2375 2375 0 0 1 27.5-14.7c7.906-4.148 27.594-14.748 43.75-23.556 37.585-20.49 36.578-19.962 42.584-22.365 4.758-1.904 5.046-2.297 4.271-5.825-.457-2.08-2.266-5.975-4.021-8.656zm261.393 2.559c-5.835.202-7.816 3.857-7.799 12.09.013 6.302.625 8.017 5.313 14.92 5.362 7.896 20.728 20.3 25.148 20.3 1.13 0 2.63.575 3.332 1.278.703.702 3.768 1.778 6.813 2.39s8.347 1.022 11.785.91c6.167-.2 6.244-.252 5.83-3.953-.231-2.062-.934-4.284-1.562-4.937-.629-.653-1.143-1.925-1.143-2.826 0-2.752-5.228-13.197-9.252-18.487-8.325-10.943-17.02-17.02-28.873-20.18-3.35-.892-6.113-1.41-8.373-1.5q-.636-.025-1.219-.005m-829.07.197c-.639.212-1.742 1.308-2.453 2.436-1.46 2.313-.942 3.416 12.16 25.927 1.8 3.094 4.76 8.578 6.574 12.188 3.565 7.09 4.334 7.605 6.84 4.586 1.286-1.55 1.319-2.492.152-4.36-.818-1.31-1.486-2.973-1.486-3.699 0-.725-.984-2.391-2.188-3.701-1.203-1.31-5.843-9.443-10.312-18.072-4.469-8.63-8.649-15.517-9.287-15.305m472.111 9.613c-.866 0-1.574.533-1.574 1.186s-3.797 3.88-8.438 7.172a927 927 0 0 0-16.785 12.25c-4.59 3.447-11.22 8.236-14.732 10.642-3.512 2.407-7.63 5.423-9.152 6.705-1.523 1.283-4.174 3.232-5.893 4.332s-7.355 5.18-12.523 9.067c-5.17 3.886-13.93 10.152-19.47 13.924s-11.551 8.145-13.36 9.718c-3.838 3.337-16.933 12.736-28.085 20.155-4.296 2.858-7.812 5.674-7.812 6.258s.968 2.193 2.152 3.576c3.023 3.53 4.675 3.2 12.678-2.528 3.874-2.773 9.295-6.526 12.045-8.34 2.75-1.813 10.344-6.862 16.875-11.218 6.531-4.357 12.923-8.62 14.205-9.473s4.765-3.379 7.738-5.613 5.766-4.063 6.205-4.063 6.087-3.637 12.551-8.082c6.464-4.444 13.311-8.895 15.215-9.892 1.904-.998 4.586-2.871 5.96-4.162 1.376-1.292 6.03-4.573 10.345-7.293 4.314-2.72 10.22-6.475 13.125-8.342s7.25-4.526 9.656-5.908c8.985-5.164 9.18-5.48 6.422-10.391-4.504-8.018-5.766-9.68-7.348-9.68m-613.834 18.83c-1.937.025-3.859.482-5.806 1.37-3.723 1.696-4.057 4.262-.997 7.644 1.775 1.96 2.23 5.047 2.409 16.35.121 7.662.262 14.131.312 14.377.05.245.928.125 1.951-.268 1.023-.392 4.82-1.094 8.438-1.559 11.024-1.416 28.453-11.397 28.453-16.293 0-3.484 3.929-10.34 6.37-11.115 1.308-.415 2.38-1.841 2.38-3.17 0-2.994-.22-2.992-6.25.084-2.695 1.375-6.47 2.498-8.389 2.494-3.444-.005-13.463-3.714-21.238-7.86-2.628-1.403-5.142-2.086-7.633-2.054m-72.67 6.6q-.953.023-2.806.87c-2.158.982-5.64 1.035-11.832.177-10.943-1.517-20.958.191-25.098 4.28-.847.836-2.246 1.754-3.11 2.042-1.945.648-1.869 10.557.097 12.522.762.762 3.811 1.488 6.777 1.613s6.49.831 7.834 1.57 3.945 1.66 5.783 2.045 5.022 2.113 7.074 3.84c2.053 1.727 5.33 3.973 7.284 4.992 4.013 2.093 4.457 2.163 7.177 1.12 1.467-.563 1.649-1.323.73-3.038-.672-1.257-1.273-5.56-1.335-9.562a1242 1242 0 0 0-.223-11.325c-.06-2.226.645-5.459 1.568-7.185 1.44-2.69 1.48-3.994.08-3.961m151.592 23.049-2.191 4.617c-2.786 5.87-4.596 18.721-3.438 24.404 1.056 5.182 6.237 8.28 15.922 9.528 4.093.527 7.317 1.862 9.578 3.965 5.878 5.465 6.888 12.371 7.723 52.757.419 20.282 1.041 47.282 1.383 60 .34 12.72.895 46.269 1.23 74.557s.956 52.335 1.379 53.437q1.664 4.332 10.014-1.24c5.726-3.821 15.488-13.045 15.488-14.635 0-.61 1.018-2.602 2.264-4.427 5.664-8.297 5.796-14.427 3.377-156.992-.476-28.03-2.44-50.119-4.575-51.438-.587-.363-1.083-1.892-1.105-3.398-.038-2.626-3.804-10.84-9.852-21.489-3.253-5.727-15.185-17.407-20.734-20.295-2.063-1.073-5.634-3.383-7.936-5.132-3.036-2.309-6.152-3.323-11.355-3.7zm-241.998 1.355c-10.105-.045-30.401 10.398-42.437 23.078-5.707 6.012-11.767 16.819-14.489 25.838-4.37 14.48-4.395 14.795-3.388 42.184.549 14.955 1.165 32.535 1.369 39.066 1.396 44.67 1.96 65.43 2.478 91.25.607 30.232 1.152 35.448 6.27 60 3.764 18.06 3.995 19.017 6.793 28.125 2.373 7.726 3.756 12.934 6.304 23.75 2.348 9.964 4.051 14.752 6.584 18.504h-.01c1.334 1.976 3.264 3.328 4.422 3.102 1.873-.365 2.031-4.958 1.785-51.627-.148-28.176-.295-52.916-.326-54.979a634 634 0 0 1 0-10c.08-10.073-1.177-74.295-1.933-98.75-.383-12.375-.612-28.968-.508-36.875.104-7.906.116-14.937.027-15.625-1.12-8.665-1.085-33.804.05-35.925 3.401-6.354 15.571-16.772 22.966-19.66 4.125-1.612 8.02-3.39 8.656-3.954 1.71-1.513 2.163-23.721.525-25.695-1.02-1.229-2.81-1.796-5.142-1.807zm910.785 14.856c-3.458-.164-11.21 3.179-31.416 11.166-7.75 3.063-20.969 8.022-29.375 11.02s-22.877 8.365-32.158 11.929a5918 5918 0 0 1-26.875 10.248c-9.351 3.524-13.532 5.11-34.375 13.037-4.469 1.7-9.25 3.551-10.625 4.115s-7.281 2.812-13.125 4.996a2182 2182 0 0 0-18.75 7.116c-4.469 1.728-14.313 5.35-21.875 8.049-7.563 2.699-15.798 5.804-18.299 6.898-4.762 2.083-4.792 2.523-.63 9.008.606.946 1.933 1.286 3.116.797 1.134-.469 6.844-2.504 12.688-4.524s11.75-4.197 13.125-4.84 11.5-4.223 22.5-7.957c19.09-6.48 52.643-18.09 85-29.416 17.25-6.037 67.552-23.167 86.875-29.584 22.473-7.462 21.522-6.64 18.314-15.851-1.334-3.833-1.425-6.08-4.115-6.207m-98.666.31c-1.602 0-8.1 2.911-41.783 18.715-8.594 4.032-19.281 8.999-23.75 11.037s-14.669 6.865-22.666 10.727c-7.998 3.861-14.831 7.021-15.186 7.021-.354 0-5.904 2.467-12.334 5.485-6.429 3.017-17.17 8.043-23.869 11.168-12.596 5.875-13.266 6.73-9.3 11.841.69.891 1.867 1.352 2.617 1.026.749-.327 5.938-2.556 11.53-4.955 5.594-2.399 13.201-5.748 16.905-7.442s11.502-5.055 17.33-7.47 13.692-5.8 17.473-7.52 13.344-5.778 21.25-9.015 16.062-6.626 18.125-7.53 6.844-2.828 10.625-4.275 8-3.18 9.375-3.85 8.406-3.65 15.625-6.619c11.914-4.902 13.095-5.679 12.8-8.434-.515-4.83-2.959-9.91-4.767-9.91m-628.107 1.25c-1.337-.003-4.502 3.167-9.993 10-3.037 3.782-6.247 7.331-7.13 7.889-.882.558-1.28 1.542-.881 2.187.932 1.509 3.968 1.517 4.898.012.395-.639 4.945-3.167 10.112-5.619s9.723-5.323 10.128-6.379c.647-1.684-4.999-8.085-7.134-8.09m-120.297 1.873c-1.27-.013-2.275 1.532-3.858 4.868-2.58 5.438-1.64 7.843 3.375 8.625 2.188.34 6.229 1.498 8.979 2.572 5.581 2.179 10.625 2.636 10.625.963 0-.605-2.672-3.262-5.938-5.905-3.265-2.642-7.47-6.41-9.341-8.37-1.707-1.788-2.854-2.742-3.842-2.753m86.619 9.657c-.772-.056-1.604.483-3.074 1.447-2.39 1.565-3.11 2.818-2.475 4.303.493 1.152 1.132 5.19 1.418 8.97.408 5.386-.033 7.756-2.031 10.938-2.394 3.813-2.992 4.062-9.756 4.08-3.963.01-8.003.524-8.977 1.14-1.06.671-3.062.63-4.986-.101-1.768-.672-5.31-1.252-7.869-1.287-7.062-.098-8.948-3.812-8.23-16.205.676-11.686-.651-12.54-7.649-4.92-6.137 6.682-10.756 18.77-10.7 27.992.043 6.71.392 7.588 4.604 11.563 3.114 2.937 5.75 4.3 8.319 4.3 4.074 0 6.413-2.202 3.953-3.722-1.189-.735-1.157-1.533.14-3.612 2.245-3.594 4.315-3.359 8.66.987 2.644 2.643 3.708 4.977 3.846 8.437.986 24.675-2.89 30.184-22.066 31.363-7.67.472-9.29.17-13.125-2.439-6.368-4.331-9.16-13.546-7.77-25.635 1.329-11.543-.308-15.379-6.56-15.379-6.354 0-9.42 4.951-9.42 15.211 0 19.746 12.736 36.26 30 38.9 6.188.947 14.534-.826 23.23-4.931q14.635-6.908 23.338-2.367c5.536 2.888 18.079 5.687 25.479 5.687 10.882 0 17.527-2.205 21.62-7.172 4.044-4.904 4.509-6.676 8.378-31.914 1.133-7.393-2.849-10.01-11.647-7.65-3.862 1.036-4.316 3.233-2.496 12.082 4.613 22.418-6.927 30.776-31.314 22.68-13.529-4.491-14.75-5.937-14.567-17.239.105-6.446.801-10.12 2.373-12.52 2.292-3.497 9.356-7.977 9.356-5.933 0 .632-.844 1.472-1.875 1.867-2.265.87-2.508 4.498-.313 4.676 8.99.729 14.947-1.62 20.684-8.154 5.828-6.638 7.4-15.06 4.332-23.223-.388-1.03-.912-3-1.166-4.375-.724-3.919-3.806-9.61-7.75-14.304-2.027-2.413-2.922-3.47-3.914-3.541m-96.904 10.285a5 5 0 0 0-.65.01 3.5 3.5 0 0 0-1.971.8c-.948.787-1.723 2.1-1.723 2.918s-1.165 3.897-2.588 6.842c-1.423 2.946-2.29 5.653-1.928 6.016.363.362 3.916.928 7.899 1.258s7.475.823 7.761 1.095c.287.273 4.084.496 8.438.496 9.555 0 10.157-1.549 2.982-7.668-9.366-7.988-14.834-11.591-18.22-11.767m153.724 1.039c-6.404.083-29.097 3.588-31.553 5.105-3.54 2.189.504 4.8 9.735 6.287 2.406.388 7.75 1.484 11.875 2.434s8.062 1.611 8.75 1.469c.687-.143 1.263-2.458 1.28-5.143.015-2.685.507-5.89 1.091-7.123s.792-2.51.463-2.84c-.144-.143-.726-.201-1.64-.19m31.873 5.101c-3.978-.127-8.668 1.533-12.248 4.545l-2.93 2.467.27 29.078c.148 15.994.484 31.33.744 34.08s.793 44.657 1.184 93.125c.391 48.47.936 88.828 1.21 89.688.672 2.102 7.047 1.976 12.099-.238 2.257-.99 6.735-2.738 9.95-3.885 11.675-4.165 10.91-.02 10.325-55.838-1.468-139.864-1.766-159.326-2.541-166.414-1.072-9.793-8.703-23.514-14.389-25.87-1.1-.455-2.348-.695-3.674-.738m-233.463 5.813c-3.346-.022-11.478 5.752-11.478 8.15 0 .893-.627 1.831-1.393 2.086-1.87.624-1.48 71.016.688 124.121.849 20.793 1.532 156.534.975 193.75-.387 25.796.509 32.425 6.673 49.375 1.876 5.157 4.455 10.867 5.733 12.692s2.324 3.693 2.324 4.15 1.687 3.286 3.75 6.283 3.75 5.868 3.75 6.377c0 .51.93 1.954 2.068 3.211 2.462 2.72 2.844 2.745 5.955.39 2.208-1.67 2.37-3.29 2.028-20.27-.597-29.652-1.193-71.77-1.914-135.333-.37-32.656-.954-72.03-1.297-87.5-.344-15.468-.524-30.093-.403-32.5.127-2.406.18-5.78.127-7.5-.052-1.718-.364-23.375-.695-48.125-.675-50.573-1.36-56.142-8.826-71.875-3.088-6.507-4.109-7.456-8.065-7.482m834.122 30.445c-5.489.255-78.031 19.953-94.35 25.69-3.382 1.188-43.882 12.4-58.125 16.09-8.02 2.078-8.724 2.521-8.424 5.324.18 1.681.584 3.761.898 4.62.314.86 1.124 1.563 1.8 1.563 1.987 0 14.208-2.57 17.6-3.7 7.235-2.413 17.688-5.253 30-8.151 7.22-1.7 20.438-4.806 29.376-6.905 8.937-2.098 17.937-4.354 20-5.013 2.062-.66 10.781-2.854 19.375-4.875l27.5-6.47c6.531-1.54 12.773-3.558 13.871-4.487 1.995-1.69 2.589-11.857.797-13.649q-.051-.05-.318-.037m-630.88 12.215q-.378.016-.804.066c-2.614.305-3.438 1.251-4.146 4.756-.487 2.407-1.24 6.063-1.674 8.125-1.199 5.692-5.51 13.826-9.184 17.328-3.998 3.811-16.251 9.993-23.912 12.063-6.702 1.811-21.492.85-30.625-1.99-8.73-2.716-18.988-2.398-26.387.818-16.683 7.252-32.93 8.784-40.765 3.844-2.255-1.421-5.892-3.407-8.084-4.414-7.43-3.414-16.576-21.154-16.625-32.244-.016-3.554-2.136-4.657-7.202-3.745-2.692.485-2.816 1.045-2.882 13.172-.288 52.613.428 116.741 1.877 168.293.357 12.719.728 64.188.824 114.375.103 53.72.66 92.536 1.355 94.375.65 1.719 2.388 4.413 3.863 5.989 5.174 5.522 6.978 3.683 18.024-18.377l10.271-20.512-.591-108.863c-.497-91.41-.716-150.708-.582-157.924.048-2.565 3.878-1.773 6.296 1.3 3.37 4.285 14.102 9.651 20.875 10.44 3.29.383 9.077-.015 12.858-.887 3.781-.87 15.312-1.643 25.625-1.715 19.982-.138 24.704-1.314 33.287-8.292 2.222-1.807 4.146-2.401 5.937-1.833 2.498.793 2.653 1.684 2.696 15.446.025 8.032.225 18.822.445 23.978s.491 27.094.6 48.75c.109 21.657.651 40.089 1.205 40.961.808 1.274 1.973 1.244 5.918-.152 9.634-3.41 22.632-10.276 25.197-13.309 1.256-1.484 1.439-14.758.877-63.75-.39-34.03-.648-62.578-.572-63.437.176-1.994.174-3.18-.066-27.188-.11-11-.1-27.04.023-35.642.246-17.118-.163-19.953-3.951-19.805m722.672 4.627c-4.465.131-19.962 2.845-33.017 5.871-4.813 1.116-11 2.483-13.75 3.04-13.725 2.774-18.903 3.894-23.012 4.98-2.469.652-5.894 1.447-7.613 1.765-10.03 1.858-58.644 11.905-91.25 18.858-9.208 1.963-23.945 4.996-42.5 8.748-5.156 1.042-11.906 2.455-15 3.138-3.094.684-8.569 1.606-12.166 2.051-8.03.993-9.953 2.842-6.648 6.389l2.392 2.566 11.602-2.379c17.673-3.625 19.767-3.995 70.445-12.46 12.375-2.068 26.719-4.555 31.875-5.528 12.133-2.29 50.194-8.84 69.375-11.937 8.25-1.333 21.187-3.518 28.75-4.856s18.102-3.099 23.424-3.912c11.785-1.801 13.14-3.064 10.998-10.242-.866-2.9-2.085-5.593-2.707-5.985-.149-.093-.56-.126-1.198-.107m-614.587 4.117a2.3 2.3 0 0 0-.395.002c-.457.045-.813.242-1.121.555-.672.682-.639 9.747.082 22.396.666 11.688 1.25 32.622 1.299 46.52.082 23.546.247 25.318 2.426 26.01 4.61 1.463 13.368 18.832 15.111 29.97 3.017 19.278 2.77 23.451-2.314 39.375-2.035 6.371-10.117 19.37-14.38 23.125-11.064 9.747-21.612 16.07-36.638 21.963-7.15 2.805-24.917 7.96-45 13.059-26.329 6.684-53.027 15.385-63.7 20.762-9.19 4.63-19.387 10.944-21.925 13.574-1.031 1.068-3.69 3.43-5.908 5.248-9.665 7.924-23.937 27.044-30.072 40.287-3.624 7.82-7.77 22.545-7.77 27.582 0 6.499 3.75 22.228 7.006 29.4 6.74 14.851 21.748 25.63 39.904 28.666 3.418.572 6.912 1.105 7.764 1.186 2.309.22 20.729-4.953 22.38-6.285.787-.634 4.725-2.751 8.75-4.703 17.065-8.276 39.245-37.572 44.727-59.075 4.562-17.892 5.274-29.302 2.635-42.289-1.275-6.27-5.765-13.75-8.254-13.75-2.718 0-6.13 7.136-7.389 15.457-1.788 11.818-4.87 23.85-8.187 31.954-3.274 8-11.54 23.9-13.043 25.09-.435.343-2.082 2.474-3.662 4.736-4.312 6.172-15.136 13.58-23.317 15.959-8.227 2.391-18.78 1.855-26.435-1.344-6.333-2.646-16.883-14.109-18.817-20.443-1.797-5.891-2.098-24.146-.45-27.364.611-1.194 2.157-4.341 3.437-6.996 2.32-4.815 23.16-27.049 25.353-27.049.636 0 2.746-1.322 4.69-2.94 1.943-1.616 6.908-4.785 11.033-7.04s8.062-4.522 8.75-5.037c2.454-1.837 20.15-7.157 28.75-8.643 4.812-.831 10.437-2 12.5-2.596 2.062-.596 6.562-1.479 10-1.96 3.437-.482 7.509-1.344 9.049-1.918 1.54-.575 8.008-1.886 14.375-2.913 26.906-4.34 56.08-15.215 70.326-26.216 15.144-11.695 25.905-28.375 27.598-42.776a677 677 0 0 1 1.226-9.836c3.176-23.27.544-42.487-7.447-54.375-4.874-7.25-7.67-9.481-14.19-11.324-6.232-1.761-6.667-2.959-1.703-4.69 5.087-1.772 9.937-6.274 13.053-12.11 2.435-4.562 2.668-6.92 2.658-26.876-.015-27.72-.614-29.205-16.943-41.875-9.692-7.52-13.724-10.295-15.822-10.453m53.455 41.147c-3.136.237-3.461 4.8-3.139 19.043.205 9.082.75 17.434 1.207 18.56.82 2.018 5.278 3.493 17.547 5.805 10.38 1.956 14.131 1.789 14.812-.664.334-1.203.978-8.425 1.428-16.047.958-16.212 1.407-15.559-14.492-20.984-5.087-1.736-11.032-3.854-13.211-4.706-1.75-.683-3.107-1.086-4.152-1.007m481.156 9.463c-2.812.067-8.838.541-15.541 1.25-27.747 2.932-77.267 7.968-78.348 7.968-.565 0-1.027.769-1.027 1.71 0 1.004 1.935 2.033 4.687 2.491 2.579.43 6.938 1.314 9.688 1.965 2.81.665 17.597.918 33.75.575 35.737-.76 45.6-1.416 47.715-3.17 1.746-1.45 2.333-11.785.722-12.715-.128-.075-.709-.097-1.646-.074m-724.014 11.384c7.203.073 14.418 2.5 23.225 7.352 2.996 1.65 4.395 1.7 9.697.342 4.271-1.095 6.599-1.187 7.49-.295.892.892-1.014 2.33-6.134 4.629-6.5 2.917-8.89 3.308-19.118 3.132-19.885-.34-23.944-.09-31.638 1.95-11.626 3.08-18.79 2.173-19.971-2.53-1.067-4.25-.311-5.053 5.494-5.832 2.755-.37 7.47-1.861 10.475-3.316 7.014-3.396 13.059-5.214 19.039-5.414q.72-.025 1.441-.018m790.375 21.97c-5.825-.015-13.083.016-22.176.077-23.522.157-43.148.666-43.613 1.131-1.246 1.246 1.669 4.276 4.861 5.055 1.526.372 5.026 1.315 7.776 2.095s19.906 2.144 38.125 3.03 34.486 1.692 36.15 1.793c3.83.23 7.6-3.115 7.6-6.744 0-1.918-1.271-3.39-4.067-4.717-2.592-1.231-7.18-1.678-24.656-1.72m-754.857 21.02c-.62.027-1.351.374-2.213.829-1.283.676-7.6 1.64-14.04 2.142-9.052.705-12.25 1.456-14.107 3.313-1.32 1.32-2.057 2.958-1.636 3.638.727 1.179 1.658 59.966 1.744 110.235.033 19.588.336 23.437 1.846 23.437.993 0 2.55-.729 3.459-1.619.908-.89 7.558-6.044 14.777-11.453a4945 4945 0 0 0 13.6-10.21c.262-.207.374-26.694.251-58.86-.199-52.38-.331-61.596-3.681-61.451m-74.168 6.592c-.538.01-.889.056-1.026.141-.96.593-1.286 30.468-1.119 102.287.13 55.797.474 101.871.764 102.387 1.2 2.136 3.626.679 5.201-3.125 6.846-16.529 13.24-26.333 25.031-38.373l6.73-6.871-.98-11.91c-1.163-14.142-1.551-32.556-1.992-94.131-.324-45.33-.365-45.98-2.908-46.436-13.003-2.332-25.937-4.033-29.701-3.969m622.719 19.493c-2.566-.037-5.256.733-6.008 2.197-1.108 2.156-3.197 67.938-2.762 86.955.307 13.402 3.035 27.999 7.508 40.162 2.68 7.29 13.04 24.667 15.195 25.486.602.23 1.096 1.136 1.096 2.016 0 2.526 11.43 12.472 21.875 19.033 15.638 9.824 33.641 17.196 45.539 18.649 3.14.383 7.677 1.16 10.084 1.726 7.358 1.731 22.827 1.392 30.04-.658 3.758-1.069 8.24-2.275 9.958-2.682 6.77-1.6 15.353-8.993 27.522-23.707 4.269-5.162 8.687-16.643 10.261-26.668 1.355-8.625 1.38-13.067.137-23.597-.843-7.135-2.376-15.572-3.406-18.75-2.829-8.725-5.565-18.966-6.494-24.307-1.054-6.052-3.604-7.096-17.323-7.096-13.279 0-14.655 1.232-10.72 9.602 1.519 3.232 4.043 7.596 5.611 9.7 12.743 17.092 12.708 54.678-.068 72.284-6.55 9.027-14.4 12.504-29.73 13.176-31.847 1.395-65.705-10.785-81.397-29.281-7.126-8.4-16.89-26.89-16.89-31.983 0-1.649-.515-3.532-1.145-4.185-1.966-2.04-2.95-40.183-1.287-49.938.82-4.812 1.754-16.398 2.076-25.744.471-13.68.181-18.182-1.486-23.094-1.14-3.355-2.666-6.819-3.393-7.695-.878-1.058-2.8-1.573-4.795-1.601zM871.96 246.26c-.562.563-1.404.967-2.666 1.443-2.063.779-3.75 1.828-3.75 2.334s-1.954 1.287-4.342 1.734-6.293 2.583-8.678 4.745-5.7 4.884-7.369 6.05c-6.119 4.28-7.213 23.153-1.976 34.051 1.996 4.155 2.365 7.857 2.37 23.75.005 10.355.562 20.821 1.24 23.258 1.689 6.081 7.99 11.76 16.605 14.965l7.226 2.687-3.588 4.086c-8.155 9.288-11.953 22.96-10.123 36.444 2.393 17.63 16.987 33.54 36.76 40.078 3.151 1.042 9.622 1.532 17.5 1.324 11.017-.29 13.49-.794 20.85-4.252 20.129-9.457 30.636-25.993 29.494-46.41-.296-5.282-.776-10.433-1.067-11.45-.392-1.372 1.71-2.414 8.174-4.048 5.726-1.447 9.698-3.274 11.613-5.34 2.46-2.653 4.117-3.167 10.674-3.314 15.417-.348 39.092-.03 42.762.572 16.909 2.776 32.345 6.697 38.418 9.758 9.843 4.96 15.98 6.904 28.871 9.15 6.072 1.058 11.636 2.292 12.365 2.742s5.324 1.267 10.211 1.813 12.822 1.62 17.635 2.388c4.812.769 11 1.667 13.75 1.994 7.52.896 18.25 2.859 22.89 4.19 4.831 1.385 7.735.585 7.735-2.135 0-2.26-5.855-10.297-7.502-10.297-1.47 0-10.507-5.987-23.895-15.832l-10.77-7.92-12.98-.084c-21.363-.138-64.188-7.892-79.754-14.441-13.623-5.732-20.121-7.247-36.8-8.584-11.874-.952-20.049-4.655-22.725-10.295-2.23-4.7-1.87-11.651.768-14.83 1.976-2.382 4.214-2.25 20.382 1.21 7.646 1.637 17.838 3.641 22.65 4.456 4.813.814 12.97 2.255 18.126 3.201s14.719 2.34 21.25 3.098 13.562 1.595 15.625 1.861c2.062.266 8.25.832 13.75 1.26 5.5.427 17.277 2.45 26.172 4.496 19.57 4.501 19.816 4.398 17.96-7.596-.69-4.469-1.518-8.396-1.84-8.728-1.042-1.078-16.835-2.612-37.917-3.68-11.344-.575-22.031-1.365-23.75-1.758-1.719-.392-6.781-1.064-11.25-1.492-16.978-1.628-19.067-1.922-21.068-2.976-2.926-1.542-18.958-4.829-31.432-6.444-13.732-1.778-22.5-5.414-22.5-9.33 0-4.186 4.972-5.451 16.25-4.137 5.156.601 10.219 1.42 11.25 1.82s7.219 2.019 13.75 3.596c6.531 1.578 14.969 3.856 18.75 5.06 5.624 1.793 12.54 2.26 37.996 2.567 24.517.297 32.149.789 35.963 2.315 2.663 1.065 5.112 1.937 5.441 1.937 1.175 0 .577-8.616-.65-9.375-.688-.425-1.27-2.286-1.291-4.136-.08-6.695-1.571-7.266-21.21-8.127-9.968-.438-21.407-1.411-25.419-2.162-4.012-.752-17.23-2.722-29.375-4.38s-25.455-3.63-29.58-4.384-11.87-2.174-17.213-3.154c-5.342-.98-12.832-1.782-16.644-1.782-7.555 0-9.904-.91-17.282-6.695-4.88-3.828-9.372-6.504-21.586-12.865-2.714-1.414-4.535-2.622-5.742-4zm8.168 13.775c3.594.09 9.306 4.08 11.29 8.262 1.747 3.68 1.804 4.924.403 8.84-.896 2.506-2.255 4.971-3.017 5.476-5.413 3.586-10.338-2.08-11.395-13.107-.697-7.268-.512-8.554 1.326-9.26.41-.157.88-.224 1.393-.21m580.955 24.326a2 2 0 0 0-.418.004c-.52.058-1.057.313-1.621.754-1.494 1.17-2.215 4.784-2.813 14.076-.797 12.414-1.81 17.282-5.314 25.567-1.005 2.375-2.654 6.875-3.666 10-5.432 16.78-19.63 42.777-30.412 55.683-13.634 16.32-43.132 40.625-49.305 40.625-2.577 0-5.74 3.497-5.74 6.346 0 1.33 1.465 3.682 3.258 5.225s4.924 5.208 6.959 8.148c3.358 4.853 3.672 6.177 3.424 14.375-.612 20.151-10.824 27.894-26.913 20.403-7.047-3.282-12.793-9.766-13.554-15.295-.705-5.12-5.055-18.095-7.963-23.75-5.476-10.65-15.416-16.696-28.975-17.625-8.413-.577-10.263-.274-16.904 2.76-7.172 3.276-20.401 12.774-20.523 14.736-.033.521-1.485 2.548-3.227 4.504s-5.454 7.996-8.25 13.425c-2.795 5.43-5.86 11.103-6.809 12.606-3.85 6.095-6.352 11.305-7.994 16.642-.951 3.094-2.095 6.188-2.54 6.875-.447.688-2.645 7.157-4.884 14.375-8.804 28.388-11.675 36.82-15.056 44.2-5.308 11.585-7.186 16.112-8.113 19.55-.873 3.237-1.55 4.974-4.934 12.688-1.101 2.51-2.002 4.931-2.002 5.38 0 .45-1.185 3.46-2.633 6.688a1163 1163 0 0 0-4.531 10.244c-5.445 12.539-19.37 41.71-20.287 42.5-1.635 1.41-3.687 7.59-3.06 9.221.726 1.893 4.643 1.403 8.232-1.031 2.299-1.56 14.927-18.732 18.89-25.69 6.297-11.052 8.272-14.92 11.496-22.5 1.9-4.468 4.485-10.375 5.743-13.125s3.012-6.828 3.898-9.062 1.967-4.063 2.4-4.063c.434 0 1.116-1.643 1.518-3.65s2.16-6.613 3.906-10.234c1.747-3.622 3.178-7.772 3.178-9.225s.524-3.175 1.166-3.828 4.58-9.57 8.754-19.815c4.173-10.244 8.055-19.244 8.629-20 .573-.755 2.322-4.748 3.888-8.873 2.606-6.862 4.283-10.73 10.776-24.857 1.228-2.671 5.163-8.022 8.744-11.89 6.87-7.42 13.356-10.658 24.293-12.126 4.984-.669 6.07-.349 9.537 2.809 4.4 4.007 6.713 9.788 6.713 16.78 0 4.824-2.03 16.05-3.715 20.534-2.267 6.037-3.785 11.612-3.785 13.9 0 1.361-.495 3.01-1.1 3.663-.604.653-1.796 3.364-2.648 6.027s-3.17 7.923-5.15 11.69c-1.982 3.766-3.602 7.438-3.602 8.16 0 .721-2.593 6.711-5.762 13.31s-7.108 14.813-8.754 18.25c-1.645 3.438-4.329 7.921-5.964 9.963-2.572 3.211-3.25 3.485-4.999 2.034-2.264-1.88-2.85-11.961-.771-13.247.687-.424 1.25-1.966 1.25-3.423 0-2.514 1.658-8.594 3.84-14.077 1.375-3.454 3.66-18.024 3.66-23.34 0-3.489-.652-4.68-3.195-5.84-5.613-2.557-10.07 2.386-20.67 22.93-4.908 9.511-13.716 26.347-20.692 39.555-.96 1.818-2.578 3.998-3.595 4.842s-1.848 2.203-1.848 3.021c0 2.149-4.782 11.763-8.742 17.58-1.872 2.75-4.76 7.532-6.42 10.625-15.051 28.064-30.585 47.744-46.938 59.465-4.248 3.045-8.096 5.535-8.552 5.535s-2.26 1.125-4.008 2.5c-3.835 3.017-7.907 3.176-13.059.512-2.952-1.527-5.768-1.798-12.127-1.172-26.313 2.592-26.34 2.596-28.22 5.082-4.943 6.537-1.385 8.304 15.78 7.842 7.789-.209 21.473-.185 30.41.05 20.378.54 24.831-.289 31.929-5.927 6.696-5.32 14.947-14.244 14.947-16.17 0-.746 1.551-4.052 3.45-7.347 1.897-3.296 4.213-7.68 5.146-9.743.932-2.062 2.191-4.728 2.799-5.921.607-1.194 1.105-2.747 1.105-3.452 0-.704 1.18-3.945 2.623-7.203s3.1-7.049 3.682-8.424c6.86-16.226 12.686-27.041 15.187-28.187 1.585-.726 5.59-5.509 8.9-10.629 6.331-9.793 9.554-11.58 12.147-6.736.782 1.462 1.005 4.296.516 6.562-1.025 4.75-5.028 12.96-6.614 13.563-1.215.462-16.441 22.907-16.441 24.236 0 .443-1.02 2.298-2.268 4.123s-2.998 5.85-3.892 8.943-2.068 6.75-2.608 8.125-1.656 4.47-2.482 6.875c-1.817 5.292-3.661 9.876-5.147 12.795-.607 1.194-1.103 3.312-1.103 4.705s-.501 3.51-1.113 4.704c-.613 1.193-2.419 4.902-4.014 8.24-4.548 9.515-13.755 18.045-26.232 24.308-6.077 3.05-17.626 6.309-36.141 10.194-3.094.649-7.172 1.553-9.063 2.011-2.91.706-3.437.437-3.437-1.753 0-5.53-2.743-8.526-11.994-13.104-5.338-2.641-11.153-4.6-13.653-4.6-3.804 0-4.353-.392-4.353-3.107 0-2.231-1.387-4.025-4.918-6.361-6.68-4.421-9.157-3.36-12.711 5.449-1.585 3.929-3.607 8.55-4.494 10.27-2.214 4.29-2.031 6.254.56 6.037 9.86-.827 22.509 4.99 25.604 11.775.863 1.89 1.994 3.437 2.514 3.437 1.554 0 1.069 5.724-.79 9.305-.953 1.837-3.13 4.91-4.84 6.828-1.708 1.918-3.784 5.54-4.613 8.051l-1.285 3.895h97.551l.383-.26-1.086.004 4.742-3.287c2.225-1.542 4.641-2.835 5.875-3.184l14.406-9.777c3.72-3.676 8.138-8.57 11.852-13.303 3.094-3.942 6.93-8.682 8.525-10.533 4.721-5.477 12.158-16.83 13.668-20.863 1.177-3.145 2.035-7.057 3.56-16.25.115-.688.273-2.703.352-4.477.097-2.172 1.268-3.806 3.582-5 11.084-5.719 20.74-15.11 22.204-21.588.488-2.165 1.028-8.56 1.197-14.21.334-11.193 1.022-12.605 11.453-23.546 7.459-7.823 8.373-9.304 11.53-18.68 1.62-4.812 4.01-11.136 5.312-14.05 1.301-2.915 2.367-5.757 2.367-6.317 0-2.78 6.719-14.007 8.383-14.007 1.404 0 1.678.743 1.037 2.812-1.929 6.223-1.996 7.906-.399 10.066.939 1.269 2.476 1.925 3.512 1.5 2.175-.891 8.042-8.963 12.268-16.878a2725 2725 0 0 1 6.6-12.266c1.978-3.652 3.599-7.239 3.599-7.97 0-1.14 4.513-10.625 8.627-18.132 3.122-5.697 7.278-15.071 8.053-18.166.686-2.741 2.703-4.262 10.32-7.78 6.158-2.846 9.696-5.245 10.12-6.864.357-1.37 1.714-2.828 3.015-3.24 1.3-.413 2.365-1.558 2.365-2.543s.484-1.79 1.078-1.79 2.632-3.46 4.53-7.687c4.234-9.436 6.329-24.761 4.687-34.291l-1.162-6.746 16.166-16.576c26.498-27.171 34.672-37.528 43.162-54.7 1.19-2.406 2.49-4.656 2.889-5 .398-.343 1.52-2.453 2.492-4.687s2.193-4.062 2.713-4.062.945-1.013.945-2.25.496-2.785 1.103-3.438c.608-.653 2.308-4.844 3.778-9.312 8.635-26.247 9.277-34.035 4.248-51.606-2.183-7.625-4.013-11.149-6.09-11.353zm-505.348 15.641q.302-.011.58.008c3.217.22 4.229 3.484 4.229 11.8 0 6.868.63 10.307 2.5 13.635 4.511 8.032 2.26 22.409-4.035 25.778-7.314 3.914-7.995 9.362-.916 7.332 6.374-1.828 21.106 1.776 18.385 4.498-.427.426-5.453 2.11-11.168 3.74-10.734 3.063-12.87 3.282-19.008 1.942-7.208-1.574-7.213-8.245-.006-9.153l3.068-.387-2.568-5c-2.441-4.75-2.472-5.301-.608-11.023 1.415-4.343 1.898-10.29 1.735-21.32-.247-16.66.72-20.258 5.797-21.532.743-.186 1.413-.296 2.015-.318m-60.218 28.744c1.148-.058 2.103.346 3.591 1.178 5.013 2.8 5.084 9.985.178 17.73l-3.773 5.96-8.877-.184-8.875-.182.558-6.742c.648-7.81 4.224-12.454 12.444-16.16 2.264-1.021 3.605-1.542 4.754-1.6m1003.949 30.233c-12.071-.108-31.59 2.79-45.797 7.11a7413 7413 0 0 1-20.625 6.222c-7.219 2.166-14.25 4.412-15.625 4.992s-4.75 1.62-7.5 2.312c-2.75.693-11.469 3.046-19.375 5.227-24.58 6.78-72.918 17.35-88.125 19.271-2.75.348-8.938 1.197-13.75 1.887-4.813.69-16.063 1.826-25 2.525-8.938.7-23 1.929-31.25 2.73-24.124 2.347-43.023 3.048-75 2.788-25.494-.208-32.816-.717-48.75-3.393-10.313-1.731-23.25-3.788-28.75-4.57s-11.688-1.769-13.75-2.193c-13.596-2.797-25.917 1.313-35.219 11.75-4.531 5.084-7.081 9.982-6.058 11.636 1.797 2.909 30.679 9.18 52.527 11.407 7.562.77 15.156 1.568 16.875 1.773 13.714 1.634 22.184 1.952 51.25 1.932 41.205-.029 84.891-3.699 120-10.084 3.094-.563 9.562-1.689 14.375-2.502 4.812-.813 14.094-2.832 20.625-4.485s15.812-3.9 20.625-4.992c16.085-3.65 25.284-6.154 36.25-9.87 4.812-1.632 13.812-4.456 20-6.274 6.187-1.819 13.886-4.387 17.107-5.707s6.892-2.4 8.159-2.4c1.266 0 3.413-.746 4.77-1.655 2.464-1.653 30.385-11.645 37.464-13.408 2.062-.514 8.812-2.459 15-4.322 10.283-3.098 31.83-5.806 38.709-4.866 5.737.785 10.92 3.023 13.295 5.74 4.06 4.645 7.377 12.867 8.59 21.29 2.107 14.63 2.62 15.737 11.63 25.119 4.07 4.237 6.347 8.387 9.157 16.691 1.123 3.32 3.802 8.047 5.955 10.506 9.119 10.417 10.685 13.064 11.482 19.416.587 4.675.267 7.424-1.195 10.25-1.098 2.124-1.998 4.671-1.998 5.658 0 1.898-3.194 5.279-26.772 28.33-15.906 15.552-19.586 20.667-22.476 31.25-1.69 6.19-2.932 10.098-5.238 16.475-.898 2.483-4.262 4.027-5.682 2.607-1.385-1.384-1.38-6.61.016-19.431 1.756-16.126 3.66-19.017 17.473-26.526 6.323-3.437 12.466-7.154 13.65-8.257 4.494-4.189 11.53-12.502 11.53-13.624 0-.643 1.152-3.22 2.562-5.73 3.271-5.825 3.646-23.302.625-29.145-1.066-2.06-1.938-4.618-1.938-5.683 0-2.177-4.508-2.606-7.5-.713-1.39.88-1.792 3.116-1.556 8.648.61 14.318-5.228 27.902-17.174 39.963l-5.406 5.46-10.356-.546c-8.743-.459-11.777-1.246-19.494-5.064-10.984-5.435-15.923-10.029-20.164-18.756-6.865-14.125-8.352-21.447-5.695-28.057.773-1.923 1.861-4.62 2.418-5.996.556-1.375 1.724-4.61 2.595-7.187s2.033-4.688 2.582-4.688c.55 0 1-1.192 1-2.648 0-1.616 3.25-5.836 8.338-10.824l8.34-8.176-6.058.83c-10.324 1.415-19.47 8.236-25.598 19.094-7.26 12.863-8.928 27.452-5.219 45.611 3.625 17.748 8.543 26.888 21.38 39.736 10.341 10.349 13.817 16.162 13.817 23.11 0 3.772-6.217 11.537-11.586 14.472-16.282 8.902-26.6 19.043-31.632 31.086-2.077 4.97-2.343 17.686-.502 23.967 1.813 6.185 1.671 22.9-.24 28.44-.888 2.571-2.61 6.522-3.827 8.777s-2.213 4.618-2.213 5.25-1.687 3.649-3.75 6.705-3.75 5.89-3.75 6.299c0 1.462-4.518 6.576-15.718 17.793-16.73 16.753-25.272 19.388-46.157 14.228-5.5-1.358-11.511-2.476-13.357-2.486-10.142-.045-17.268 7.457-17.268 18.176 0 8.364 2.133 11.422 16.012 22.965 3.913 3.254 6.488 8.885 6.488 14.187 0 11.48-13.627 21.823-21.744 16.504-3.772-2.471-4.407-6.846-.994-6.846 3.401 0 9.864-6.985 10.713-11.578 1.67-9.038-2.67-14.614-11.408-14.654-5.203-.024-12.561 6.432-16.694 14.646-1.648 3.278-3.416 6.273-3.927 6.655-.512.381-1.429 3.36-2.037 6.619-2.25 12.036-4.196 9.427-4.247-5.692-.033-9.765.406-12.404 2.747-16.521 2.398-4.219 2.567-5.31 1.205-7.856-2.012-3.758-8.611-7.869-12.631-7.869-1.703 0-4.136 1.149-5.406 2.553-4.657 5.145-7.142 18.049-4.508 23.4.554 1.127 1.874 4.672 3.254 8.598l7.857 12.277h124.098l11.922-10.472a286 286 0 0 1 4.63-4.713c16.378-16.276 27.17-28.602 27.17-31.031 0-1.302 10.925-17.802 15.942-24.077 2.347-2.935 6.348-9.404 8.892-14.375 2.544-4.97 5.263-10.16 6.041-11.535s2.388-4.75 3.578-7.5c1.226-2.83 6.694-9.415 12.606-15.177 5.742-5.598 10.441-11.082 10.441-12.188s.455-2.01 1.012-2.01 2.244-3.591 3.75-7.978c2.85-8.302 3.525-16.75 1.639-20.477-2.35-4.64-5.115-14.903-5.301-19.67-.22-5.652 1.566-14.872 4.451-22.97 1.072-3.009 1.95-7.188 1.95-9.288 0-5.697 2.406-11.665 9.035-22.416 3.28-5.32 5.99-10.101 6.023-10.625.08-1.292 12.169-10.79 16.816-13.212 4.348-2.267 11.624-9.138 18.75-17.71a1040 1040 0 0 1 8.293-9.849l3.293-3.838 5.076 7.854c7.165 11.084 11.018 15.814 19.588 24.039 11.622 11.153 13.698 12.87 34.375 28.447 24.422 18.396 22.911 17.419 56.563 36.611 23.305 13.292 33.63 22.22 39.752 34.377 1.683 3.344 3.963 7.487 5.066 9.205 4.307 6.712 5.586 19.025 2.928 28.17-2.49 8.564-4.076 9.3-17.434 8.102-22.115-1.984-30.31-.063-40.58 9.512-5.52 5.147-8.71 9.562-12.379 17.136-6.442 13.302-7.216 17.213-4.363 22.043 1.927 3.263 2.964 3.787 7.51 3.787 10.392 0 14.18-3.971 14.191-14.875 0-4.556 3.627-11.867 7.342-14.82 1.116-.887 4.28-2.815 7.03-4.285 4.752-2.542 5.649-2.605 18.124-1.256 20.864 2.255 27.062-.225 33.465-13.39 2.25-4.627 4.637-11.75 5.305-15.83 1.486-9.076 1.61-27.106.197-28.731-.568-.653-1.78-3.57-2.693-6.483-.914-2.912-2.699-6.233-3.967-7.38s-2.307-2.538-2.307-3.088-2.953-4.07-6.562-7.82c-11.815-12.279-17.787-19.72-19.32-24.075-.83-2.356-2.124-11.442-2.875-20.19-.752-8.747-1.991-17.59-2.756-19.652s-6.58-8.85-12.92-15.082c-6.341-6.232-12.86-13.733-14.487-16.67a969 969 0 0 0-4.855-8.668c-1.046-1.831-4.319-7.69-7.273-13.015-2.955-5.326-6.17-10.481-7.147-11.457-.976-.976-3.547-5.056-5.713-9.067-4.789-8.868-10.535-16.65-14.514-19.65-1.88-1.419-6.016-2.454-11.332-2.838-14.843-1.071-26.625-6.248-34.552-15.18-2.788-3.14-6.662-7.154-8.61-8.918-4.068-3.684-10.69-5.507-13.01-3.582-2.11 1.752-1.928 7.304.34 10.303 2.975 3.933 2.193 10.905-2.173 19.371-4.336 8.406-10.868 15.078-14.764 15.078-3.984 0-9.575-6.38-12.365-14.111-3.89-10.777-3.516-14.638 1.771-18.238 2.402-1.636 4.367-3.423 4.367-3.973s.985-1.985 2.188-3.19c3.76-3.763 2.853-13.81-1.854-20.523-5.269-7.516-8.649-11.095-15.334-16.24-3.093-2.381-6.74-5.34-8.101-6.576-3.346-3.038-14.408-6.147-39.717-11.166-1.836-.364-4.224-.55-7.01-.574m-1004.6 12.091c8.04 0 9.067 6.87 1.336 8.938-6.983 1.867-15.658 13.231-15.658 20.51 0 1.814.94 5.28 2.088 7.699 1.512 3.186 1.732 4.96.803 6.437-2.008 3.189-4.61 3.032-7.909-.478-2.452-2.61-3.124-4.851-3.511-11.713-.605-10.702 1.865-15.98 11.681-24.951 5.501-5.028 7.954-6.442 11.17-6.442M1944.86 386c1.065.057 2.296.617 3.785 1.633 2.077 1.416 4.479 3.438 5.338 4.494 1.991 2.447 2.034 11.722.062 13.693-2.636 2.637-11.784 1.31-14.367-2.084-1.998-2.625-2.017-5.766-.07-11.328 1.475-4.213 2.863-6.234 4.805-6.402q.219-.019.447-.006m-683.601 2.963c-1.302.426-2.077 1.787-5.121 8.982-1.164 2.75-2.977 6.688-4.032 8.75a2870 2870 0 0 0-5.513 10.877c-1.978 3.92-4.146 7.47-4.82 7.887s-1.227 1.803-1.227 3.08-.422 2.51-.938 2.738c-.515.23-2.239 2.95-3.83 6.043a2518 2518 0 0 1-6.486 12.5c-5.75 11.005-13.746 28.849-13.746 30.674 0 .923-.487 1.977-1.08 2.344s-1.805 3.353-2.693 6.637-1.989 6.533-2.446 7.22c-.457.688-1.56 3.782-2.449 6.875-.89 3.094-2.079 6.75-2.643 8.125s-1.713 4.75-2.554 7.5-2.565 7.975-3.832 11.61-2.303 7.96-2.303 9.613-.563 3.352-1.25 3.777-1.25 2.394-1.25 4.375c0 1.982-.563 3.95-1.25 4.375s-1.25 2.04-1.25 3.588c0 1.55-1.125 5.146-2.5 7.992s-2.5 5.77-2.5 6.5-.517 2.305-1.148 3.498-2.994 6.672-5.25 12.172c-2.257 5.5-4.554 10.535-5.104 11.188s-.998 1.946-.998 2.873-1.125 4.013-2.5 6.86c-1.375 2.845-2.5 5.658-2.5 6.25 0 .59-1.125 3.403-2.5 6.25-1.375 2.845-2.5 5.903-2.5 6.794 0 5.066-12.856 26.097-22.41 36.66-2.798 3.094-5.087 6.295-5.088 7.114 0 2.895-3.207 3.322-26.172 3.494-37.103.277-48.11 3.717-64.117 20.039-10.439 10.644-16.452 20.74-17.781 29.86-.719 4.929-1.97 7.237-6.373 11.769-9.72 10-12.53 19.868-9.098 31.953.056.196.121.384.18.58l2.058 5.365c.096.164.184.3.262.389.572.653 1.039 1.637 1.039 2.187 0 .025-.117.049-.285.073l.098.255h30.187v-5.709c0-4.313-1.012-8.397-3.125-12.603-1.718-3.422-3.125-6.996-3.125-7.943s2.306-3.855 5.125-6.461 5.898-6.228 6.842-8.05c1.543-2.978 1.442-3.668-1.02-6.874-1.504-1.96-3.257-3.927-3.894-4.371-.642-.449.034-2.482 1.52-4.569 1.472-2.067 2.681-4.797 2.681-6.066 0-2.488 3.974-9.589 7.115-12.73 2.96-2.96 11.203-7.006 22.256-10.924 7.98-2.829 11.895-3.503 19.375-3.334 10.952.246 28.65-1.84 35.211-4.149 2.523-.888 5.718-1.318 7.098-.957 3.31.866 15.189-11.246 17.578-17.922.943-2.635 2.14-5.072 2.662-5.416 1.153-.76 8.701-17.067 8.701-18.798 0-.68.49-2.213 1.09-3.407 3.78-7.52 8.91-19.005 8.91-19.953 0-.617 1.125-3.45 2.5-6.297s2.513-5.904 2.528-6.797 1.128-3.029 2.472-4.748c1.345-1.718 2.456-3.836 2.471-4.705.015-.868.544-2.556 1.176-3.75 2.742-5.185 6.073-13.886 7.53-19.67.864-3.437 2.447-8.5 3.517-11.25s2.365-7.531 2.879-10.625c.513-3.093 2.884-11.25 5.271-18.125s4.953-14.75 5.703-17.5c5.27-19.328 9.758-31.62 15.748-43.125 10.454-20.08 17.144-30.38 25.164-38.744 12.078-12.594 11.95-12.378 11.143-18.681-1.04-8.117-6.011-23.883-7.389-23.432m559.549 40.09c-3.883-.01-8.292 1.033-10.407 3.134-1.11 1.105-3.22 2.835-4.687 3.846s-2.668 2.558-2.668 3.438-.43 1.6-.955 1.6c-2.466 0-11.132 24.613-12.967 36.827-.727 4.838-1.717 10.766-2.201 13.172-.9 4.472 1.164 27.64 3.562 40 .734 3.782 1.831 10.25 2.44 14.375 1.515 10.272 2.43 13.973 5.256 21.285 1.907 4.934 2.533 10.31 2.914 25 .45 17.375 1.775 32.147 3.885 43.334 1.133 6.013.152 9.604-4.094 14.98a502 502 0 0 0-6.59 8.567c-6.125 8.188-11.351 11.233-25.287 14.743-5.182 1.304-6.364 1.145-12.594-1.708-3.832-1.754-10.454-3.481-14.96-3.902-6.958-.65-9.026-.322-14.811 2.358-6.955 3.22-25.274 20.195-29.48 27.316-1.187 2.008-2.592 3.652-3.122 3.652-1.377 0-4.746 8.508-4.746 11.985 0 4.981 3.717 11.046 8.527 13.914 6.148 3.664 8.391 3.525 10.112-.63 1.14-2.755 1.047-4.591-.444-8.818-1.175-3.332-1.48-6.133-.81-7.457.59-1.165 1.824-3.808 2.742-5.87 2.647-5.949 14.423-16.852 18.367-17.006 5.725-.225 10.713.247 14.63 1.384l10.456 3.043c18.005 5.246 30.02.978 48.01-17.056 6.372-6.389 12.417-13.303 13.433-15.366s2.13-4.03 2.477-4.375c1.077-1.07 3.397-6.647 5.01-12.043 1.552-5.194.865-10.967-2.698-22.671-1.544-5.074-1.497-28.978.064-33.086 1.228-3.23-.035-10.406-4.785-27.2-1.458-5.156-3.155-12.187-3.771-15.625-.617-3.437-1.41-7.093-1.764-8.125-.353-1.03-.973-4.9-1.377-8.6-.404-3.698-1.012-7.173-1.35-7.72-1.543-2.497-1.945-26.18-.572-33.68a1253 1253 0 0 0 2.438-13.75c1.062-6.3 1.684-8.196 5.336-16.25 5.202-11.474 6.686-13.951 10.656-17.8 2.234-2.167 4.062-4.883 4.062-6.038 0-2.106-3.355-3.168-7.238-3.177zm201.005 15.986a29 29 0 0 1 3.264.156c8.126.839 21.424 7.239 27.797 13.38 5.15 4.96 12.658 14.337 12.7 15.859.014.555 1.169 2.418 2.564 4.136 4.315 5.318 14.908 21.37 14.908 22.592 0 .637.5 1.158 1.111 1.158.612 0 2.33 2.39 3.817 5.313 5.152 10.127 8.816 15.561 15.072 22.355 5.985 6.5 7.299 8.395 9.89 14.254 3.114 7.04 3.3 10.958.645 13.613-2.336 2.337-7.026 2.44-13.04.288-3.717-1.33-24.024-12.062-29.995-15.852-1.031-.654-3.546-2.118-5.588-3.254s-8.51-5.634-14.375-9.994c-13.268-9.865-11.674-8.604-21.17-16.738-19.627-16.813-27.159-27.615-30-43.028-1.882-10.212-1.904-10.107 2.994-15.529 5.072-5.613 11.886-8.647 19.407-8.709m176.85 78.682c2.983.086 5.843.899 10.07 2.48 5.752 2.152 7.696 3.676 10.672 8.37 4.561 7.19 4.924 17.18 1.05 28.982-2.825 8.603-2.802 14.06.169 38.767 2.843 23.646 1.807 40.11-4.006 63.75-4.397 17.88-14.953 41.321-21.015 46.664-4.79 4.221-18.318 10.834-22.168 10.834-5.05.002-19.706 3.837-26.014 6.807-11.775 5.543-13.488 5.337-14.887-1.805-3.113-15.893-2.71-16.567 9.219-15.459 6.85.637 9.729.287 15.533-1.884 17.545-6.565 25.906-13.454 32.371-26.676 6.414-13.115 8.052-20.197 10.922-47.23 1.354-12.755 4.57-28.152 6.541-31.307.874-1.399.283-3.717-2.113-8.3-3.746-7.163-6.178-9.673-10.711-11.044-10.973-3.319-23.725-12.074-23.744-16.303 0-.73-1.131-3.656-2.506-6.502-7.284-15.075 2.16-33.315 19.816-38.27 4.713-1.322 7.818-1.96 10.801-1.874m-325.426 63.953c6.244.06 11.971 2.944 17.897 8.885 8.217 8.239 10.165 12.434 11.517 24.808.53 4.84.062 6.925-2.552 11.387-4.038 6.889-6.407 8.395-19.692 12.517-10.66 3.309-14.861 6.078-14.861 9.793 0 2.654-4.964 14.665-7.727 18.698-1.25 1.825-2.273 3.677-2.273 4.115s-1.183 2.038-2.629 3.557c-1.446 1.518-5.312 6.699-8.592 11.511-6.715 9.854-27.12 29.49-36.027 34.666-3.233 1.88-8.97 4.323-12.752 5.428-22.352 6.535-21.193 5.756-21.248 14.281-.02 3.094-.366 6.85-.768 8.35-.807 3.01-2.485 3.939-5.797 3.203-1.7-.378-2.193-1.785-2.193-6.332-.01-7.064-2.088-10.652-12.396-21.346-4.248-4.406-7.541-8.897-7.332-10 .512-2.71 7.124-3.236 17.234-1.369 6.935 1.28 9.302 1.192 16.174-.6 4.427-1.154 10.333-3.26 13.125-4.68 6.043-3.073 19.217-12.97 22.18-16.661 1.156-1.442 3.904-4.55 6.107-6.906 2.202-2.357 6.037-6.81 8.521-9.897s5.418-6.618 6.52-7.85c1.657-1.85 5.65-9.345 11.2-21.023 2.27-4.78 2.612-15.563.669-21.139-2.799-8.031-2.566-18.985.533-25.06 4.122-8.08 12.337-15.742 18.72-17.463 2.223-.6 4.361-.893 6.442-.873m-630.53 56.055c3.237-.114 6.215 1.217 7.966 4.216 3.918 6.713 2.86 15.024-2.672 20.961-1.214 1.303-4.486 2.674-7.271 3.047-4.437.595-5.535.208-8.874-3.13-4.331-4.332-5.022-9.94-1.976-16.046 2.81-5.631 8.094-8.882 12.826-9.048m-19.587 44.962c2.069-.032 4.285.896 5.625 2.942 1.871 2.856 1.818 3.596-.781 10.916-1.533 4.319-3.91 9.83-5.28 12.248l-4.964 8.766c-7.678 13.55-22.742 29.889-31.647 34.322-2.696 1.342-5.647 2.992-6.556 3.666-3.983 2.951-16.41 7.17-22.678 7.697-3.758.316-7.695.827-8.75 1.137-1.994.585-8.156-2.25-10.94-5.033-.882-.882-1.603-2.657-1.603-3.944s-.628-2.965-1.393-3.73c-2.485-2.486-.1-3.726 8.735-4.547 4.769-.443 12.24-1.926 16.601-3.293 4.363-1.368 9.057-2.526 10.432-2.576 5.44-.196 23.514-11.245 30.383-18.574 4.724-5.042 12.742-19.042 12.742-22.25 0-.632 1.125-3.477 2.5-6.323s2.5-5.932 2.5-6.86c0-2.89 2.415-4.522 5.074-4.564m632.014 19.051c1.173 1.173-5.05 12.748-11.002 20.467-18.284 23.708-22.122 28.11-29.836 34.213-7.76 6.139-7.882 6.186-11.32 4.473-6.84-3.41-7.473-13.214-1.233-19.104 1.851-1.747 6.417-4.433 10.147-5.969 10.935-4.504 19.792-10.982 31.65-23.146 6.116-6.274 11.333-11.194 11.594-10.934m226.002 14.418c-3.399.022-6.853.921-8.418 2.486-.7.7-1.937 3.898-2.752 7.108-1.301 5.124-1.155 6.809 1.197 13.799 1.474 4.379 4.836 11.093 7.47 14.92 5.543 8.046 8.788 8.719 8.788 1.82 0-2.391-.456-6.206-1.014-8.475-1.45-5.905 3.36-20.453 7.258-21.949 2.848-1.093 2.445-7.049-.477-7.049-1.295 0-4.182-.768-6.414-1.707-1.58-.664-3.6-.966-5.638-.953m133.637.051c.508-.035.773.183.773.662 0 .876-5.41 9.926-6.836 11.436-.709.75-2.61 3.102-4.223 5.226s-5.27 5.449-8.125 7.387-5.95 4.242-6.879 5.121c-2.714 2.57-10.407 5.376-12.724 4.64-1.174-.372-3.139-1.788-4.367-3.146-4.056-4.481-18.098-2.743-33.096 4.096-7.463 3.403-9.787 5.634-12.371 11.875l-1.684 4.062h-18.384l1.185-3.117c1.221-3.212 4.464-8.587 7.168-11.883.846-1.031 2.33-2.978 3.299-4.326 1.533-2.132 2.195-2.253 5.096-.931 4.216 1.92 7.95.971 17.468-4.446 9.22-5.247 14.327-6.08 24.975-4.07l8.146 1.537 10.805-5.303c5.943-2.916 14.544-8.313 19.113-11.992 5.411-4.356 9.136-6.725 10.66-6.828m-1145.588 16.375c-3.281.017-8.64 6.844-8.64 11.008 0 1.27-.411 2.722-.915 3.226-2.265 2.266-3.815 10.999-2.68 15.11 1.065 3.856 1.663 4.294 6.448 4.726 10.882.984 12.475.862 16.017-1.23 1.997-1.18 3.63-2.815 3.63-3.633 0-2.166 5.284-11.723 6.481-11.723 2.041 0 .932-3.217-2.421-7.021-4.284-4.859-13.918-10.483-17.92-10.463" style="fill:#000" transform="translate(1920.393 1734.134)scale(.85884)"/><path d="M856.699 250.135c-18.62.146-19.076 17.37-22.615 28.783-18.366-13.452-16.386-31.786-.226-53.85l130.84-1.423c18.62-.147 19.076-17.371 22.615-28.783 18.366 13.451 16.386 31.786.226 53.85z" style="fill:#000;fill-rule:evenodd;stroke:#000;stroke-width:1.43916154px;stroke-linecap:butt;stroke-linejoin:miter;stroke-opacity:1" transform="translate(1920.393 1734.134)scale(.85884)"/><path d="M874.54 231.9c8.918-536.416 362.462-716.537 447.763-753.054a1730 1730 0 0 0-43.715 33.628C948.694-225.02 938.766 19.924 941.414 234.808z" style="fill:#fdd116;fill-opacity:1;fill-rule:evenodd;stroke:#000;stroke-width:12.95245361;stroke-linecap:round;stroke-linejoin:round;stroke-miterlimit:4;stroke-dasharray:none;stroke-opacity:1" transform="translate(1920.393 1734.134)scale(.85884)"/><path d="M846.402 844.789h156.803l-126.263-60.283h323.34l-126.263 60.283h309.56l-126.263-60.283h323.34l-126.263 60.283h309.925l-126.262-60.283h323.34l-126.263 60.283h309.56l-126.264-60.283h323.34l-126.262 60.283h156.803l-1.195 45.801H846.402z" style="fill:#d7eef4;fill-rule:evenodd;stroke:#000;stroke-width:15;stroke-linecap:butt;stroke-linejoin:round;stroke-miterlimit:4;stroke-dasharray:none;stroke-opacity:1" transform="translate(1920.393 1734.134)scale(.85884)"/><path d="M2904.688 2640.95c77.81-4.42 88.594-15.78 40-42.143-30.217-16.393-28.123-17.05 54.286-17.05 82.408 0 84.502.657 54.285 17.05-58.453 31.711-35.041 39.177 122.857 39.177 160.425 0 187.828-9.382 117.143-40.104-35.948-15.625-34.2-16.129 54.286-15.66 89.562.476 90.66.822 53.763 16.942-64.528 28.193-30.564 38.822 124.054 38.822 151.6 0 174.491-7.7 116.469-39.177-30.217-16.393-28.123-17.05 54.285-17.05 82.41 0 84.503.657 54.286 17.05-58.453 31.711-35.041 39.177 122.857 39.177 160.425 0 187.828-9.382 117.143-40.104-36.016-15.654-34.368-16.143 54.286-16.113l91.428.033-40 21.474c-46.94 25.201-36.46 32.17 57.143 37.998 34.572 2.152-248.285 3.873-628.571 3.825s-659.286-1.914-620-4.146z" style="fill:#fff;stroke-width:11.4285717" transform="scale(.9375)"/><path d="M2831.36 2644.49v-13.638l67.932.082c61.698.075 67.61.224 64.406 1.618-5.088 2.215-20.777 5.049-35.364 6.388-28.374 2.605-28.318 2.563-4.546 3.37 105.286 3.568 1179.587 3.4 1222.79-.192l8.586-.714-11.616-.785c-29.918-2.023-56.942-5.488-64.51-8.272-3.135-1.154 6.543-1.363 65.772-1.424l69.448-.071-.01 5.303c0 2.917-.298 9.054-.654 13.637l-.645 8.334H2831.36zm193.03-21.894c-.184-5.444 6.765-11.156 28.698-23.586 18.436-10.448 20.241-12.172 15.441-14.74-4.75-2.543-78.425-3.745-117.466-1.917-22.03 1.032-23.973 1.398-23.54 4.437.295 2.06 5.827 5.734 25.28 16.788 6.84 3.886 16.36 11.026 15.649 11.737-.248.247-19.49-8.652-42.76-19.777l-42.31-20.226 116.168.038 116.168.038-4.546 2.35c-2.5 1.293-22.047 10.666-43.437 20.828s-39.46 18.914-40.157 19.448-1.679 2.39-2.182 4.126c-.894 3.082-.917 3.093-1.006.456" style="fill:#fff;stroke-width:1.01015258" transform="scale(.9375)"/><path d="M3096.347 2636.814c-21.87-.777-48.802-3.13-55.886-4.88-2.042-.506 55.13-.873 135.36-.87 117.934.01 137.798.208 131.619 1.338-20.064 3.669-67.806 5.53-137.174 5.345-28.335-.075-61.599-.495-73.92-.933m226.23-10.941c2.291-6.07 2.121-6.178-45.419-28.88l-44.382-21.194 57.308-.26c31.52-.144 83.538-.144 115.596 0l58.288.26-43.31 20.615c-23.82 11.338-44.106 21.296-45.078 22.127-.972.832-1.768 2.862-1.768 4.51 0 2.55-.226 2.81-1.515 1.74-.833-.691-1.515-2.527-1.515-4.078 0-5.686 10.84-12.76 38.56-25.163 12.513-5.6 16.56-8.553 13.936-10.174-.806-.499-3.97-1.266-7.03-1.706-7.163-1.03-138.008-1.05-141.683-.023-6.623 1.852-2.798 4.727 19.95 14.996 25.354 11.445 34.85 17.746 34.85 23.123 0 1.907-.898 3.586-2.66 4.972-3.96 3.114-5.508 2.79-4.128-.865m143.159 11.375c-30.157-.927-73.025-4.333-74.621-5.93-.257-.256 59.726-.427 133.294-.379 81.821.053 132.585.443 130.731 1.004-5.727 1.733-31.353 3.912-58.084 4.94-23.307.895-106.548 1.127-131.32.365m257.589-19.635c0-1.805 11.337-9.654 26.916-18.635 16.966-9.781 19.262-11.78 16.17-14.077-3.385-2.516-14.723-3-70.36-3s-66.975.484-70.36 3c-3.052 2.268-.92 4.129 15.762 13.76 14.762 8.522 26.938 16.752 26.07 17.62-.22.22-19.639-8.8-43.154-20.042l-42.755-20.44 58.307-.26c32.068-.144 84.068-.144 115.554 0l57.249.26-44.7 21.364c-24.584 11.75-44.699 20.953-44.699 20.45m70.028 19.268c-22.035-.849-48.943-3.231-55.886-4.948-2.048-.506 54.844-.917 135.277-.977 76.346-.057 138.6.107 138.344.364-.83.83-24.155 3.471-40.78 4.618-20.474 1.412-147.246 2.088-176.955.943m226.625-11.446c.303-1.868.07-4.299-.52-5.4-.68-1.271-17.228-9.73-45.23-23.12l-44.155-21.116 57.745-.26c31.76-.144 83.754-.144 115.542 0l57.796.26-41.787 19.965c-22.984 10.98-41.968 19.785-42.187 19.566-.73-.73 12.082-8.263 34.547-20.312 12.223-6.556 22.655-12.312 23.183-12.791 1.225-1.113-116.591-1.047-142.886.08-20.241.868-23.234 1.334-23.234 3.62 0 1.9 4.562 4.44 21.719 12.09 23.427 10.447 36.87 19.268 36.87 24.195 0 1.437-5.547 6.62-7.085 6.62-.478 0-.621-1.528-.318-3.397" style="fill:#fff;stroke-width:1.01015258" transform="scale(.9375)"/><path d="M2830.979 2644.464v-13.662l68.786.079c74.88.086 72.779.24 74.217-5.488 1.536-6.124.37-6.856-45.943-28.8-23.937-11.344-43.522-20.776-43.522-20.962s51.934-.33 115.41-.321c74.163.01 114.868.362 113.895.985-.834.534-20.695 10.142-44.136 21.351-37.984 18.164-42.754 20.707-43.86 23.378-1.548 3.736-.51 5.662 4.358 8.088 3.4 1.695 11.436 1.795 142.867 1.788 76.596 0 140.743-.015 142.549-.027 6.63-.041 9.745-7.495 4.995-11.957-1.28-1.203-21.395-11.324-44.7-22.491-23.303-11.167-42.56-20.49-42.791-20.718-.232-.227 51.566-.413 115.107-.413s115.096.377 114.568.838c-.528.462-15.506 7.757-33.285 16.211-49.84 23.702-53.342 25.525-55.053 28.651-2.089 3.817-.582 5.898 5.84 8.065 4.785 1.614 15.334 1.748 143.627 1.822l138.463.08 4.054-2.279c4.62-2.597 5.939-5.855 3.723-9.201-.956-1.445-11.883-7.189-30.163-15.855-15.765-7.475-35.482-16.884-43.816-20.91l-15.152-7.319 115.612-.052c69.005-.03 115.225.317 114.652.863-1.191 1.135-84.105 40.502-85.303 40.502-1.82 0-4.045 3.288-4.045 5.976 0 3.153 2.114 5.463 6.538 7.145 4.28 1.627 285.364 1.452 288.946-.18 2.11-.961 2.511-1.84 2.511-5.504 0-3.473-.487-4.68-2.395-5.93-1.318-.863-18.932-9.505-39.143-19.205s-39.476-18.978-42.81-20.617l-6.06-2.98 115.612-.061c67.727-.035 115.214.312 114.652.84-1.155 1.084-81.988 39.505-83.113 39.505-1.692 0-7.245 6.782-7.245 8.848 0 2.472 3.617 6.29 5.999 6.332.867.015 32.374 0 70.015-.026l68.438-.053v12.065c0 6.636-.276 12.785-.614 13.664-.558 1.455-62.428 1.598-691.449 1.598h-690.836z" style="fill:#fff;stroke-width:1.01015258" transform="scale(.9375)"/><path d="M2875.368 2057.12c-10.241-.482-18.847-1.103-19.125-1.38-1.732-1.733 3.793-77.684 7.972-109.57 27.503-209.88 122.85-381.871 274.765-495.637 21.666-16.225 69.037-48.038 70.237-46.838.242.242-14.767 12.045-21.006 17.278-42.81 35.907-93.446 86.38-125.585 125.178-77.665 93.757-125.565 195.266-145.382 308.096-8.669 49.353-12.632 102.163-12.643 168.443l-.01 35.608-5.303-.152c-2.917-.083-13.683-.545-23.924-1.027z" style="fill:#fff;fill-opacity:1;stroke:#000;stroke-width:1.01015258;stroke-opacity:1" transform="scale(.9375)"/></svg>