<svg xmlns="http://www.w3.org/2000/svg" width="600" height="450"><path d="M-268.143 251.648h600v450h-600z" style="fill:#fff;fill-opacity:1;stroke:none;overflow:visible" transform="translate(268.143 -251.648)"/><path d="M-268.143 551.648h600v150h-600z" style="fill:#da0000;fill-opacity:1;stroke:none;overflow:visible" transform="translate(268.143 -251.648)"/><path d="M-268.143 251.648h600v150h-600z" style="fill:#239f40;fill-opacity:1;stroke:none;overflow:visible" transform="translate(268.143 -251.648)"/><path d="M123.259 393.565H530.83v-23.033H123.259z" style="fill:#f6b721;fill-opacity:1;stroke:#000;stroke-width:3.54355335;stroke-miterlimit:4;stroke-dasharray:none;display:inline" transform="translate(90.425 81.172)scale(.66947)"/><path d="M136.153 368.76c.298 4.35 1.786 11.296 3.507 13.289-6.628-.962-6.957-8.935-7.784-13.133zm12.343 0c.297 4.35 1.785 11.296 3.506 13.289-6.628-.962-6.957-8.935-7.784-13.133zm12.342 0c.297 4.35 1.786 11.296 3.507 13.289-6.628-.962-6.957-8.935-7.785-13.133zm12.342 0c.298 4.35 1.786 11.296 3.507 13.289-6.628-.962-6.957-8.935-7.784-13.133zm12.343 0c.297 4.35 1.785 11.296 3.506 13.289-6.628-.962-6.957-8.935-7.784-13.133zm12.342 0c.297 4.35 1.786 11.296 3.507 13.289-6.628-.962-6.957-8.935-7.785-13.133zm12.343 0c.297 4.35 1.785 11.296 3.506 13.289-6.628-.962-6.957-8.935-7.784-13.133zm12.342 0c.297 4.35 1.785 11.296 3.506 13.289-6.628-.962-6.957-8.935-7.784-13.133zm12.342 0c.297 4.35 1.786 11.296 3.507 13.289-6.628-.962-6.957-8.935-7.785-13.133zm12.343 0c.297 4.35 1.785 11.296 3.506 13.289-6.628-.962-6.957-8.935-7.784-13.133zm12.342 0c.297 4.35 1.786 11.296 3.506 13.289-6.628-.962-6.957-8.935-7.784-13.133zm12.342 0c.297 4.35 1.786 11.296 3.507 13.289-6.628-.962-6.957-8.935-7.785-13.133zm12.343 0c.297 4.35 1.785 11.296 3.506 13.289-6.628-.962-6.957-8.935-7.784-13.133zm12.342 0c.297 4.35 1.786 11.296 3.506 13.289-6.628-.962-6.956-8.935-7.784-13.133zm12.342 0c.298 4.35 1.786 11.296 3.507 13.289-6.628-.962-6.957-8.935-7.784-13.133zm12.343 0c.297 4.35 1.785 11.296 3.506 13.289-6.628-.962-6.957-8.935-7.784-13.133zm12.342 0c.297 4.35 1.786 11.296 3.507 13.289-6.628-.962-6.957-8.935-7.785-13.133zm12.342 0c.298 4.35 1.786 11.296 3.507 13.289-6.628-.962-6.957-8.935-7.784-13.133zm12.343 0c.297 4.35 1.785 11.296 3.506 13.289-6.628-.962-6.957-8.935-7.784-13.133zm12.342 0c.297 4.35 1.786 11.296 3.507 13.289-6.628-.962-6.957-8.935-7.785-13.133zm12.342 0c.298 4.35 1.786 11.296 3.507 13.289-6.628-.962-6.957-8.935-7.784-13.133zm12.343 0c.297 4.35 1.785 11.296 3.506 13.289-6.628-.962-6.957-8.935-7.784-13.133zm12.342 0c.297 4.35 1.786 11.296 3.507 13.289-6.628-.962-6.957-8.935-7.785-13.133zm12.343 0c.297 4.35 1.785 11.296 3.506 13.289-6.628-.962-6.957-8.935-7.784-13.133zm12.342 0c.297 4.35 1.786 11.296 3.506 13.289-6.628-.962-6.957-8.935-7.784-13.133zm12.342 0c.297 4.35 1.786 11.296 3.507 13.289-6.628-.962-6.957-8.935-7.785-13.133zm12.343 0c.297 4.35 1.785 11.296 3.506 13.289-6.628-.962-6.957-8.935-7.784-13.133zm12.342 0c.297 4.35 1.786 11.296 3.507 13.289-6.629-.962-6.957-8.935-7.785-13.133zm12.342 0c.298 4.35 1.786 11.296 3.507 13.289-6.628-.962-6.957-8.935-7.784-13.133zm12.343 0c.297 4.35 1.785 11.296 3.506 13.289-6.628-.962-6.957-8.935-7.784-13.133zm12.342 0c.297 4.35 1.786 11.296 3.507 13.289-6.628-.962-6.957-8.935-7.785-13.133zm12.342 0c.298 4.35 1.786 11.296 3.507 13.289-6.628-.962-6.957-8.935-7.784-13.133z" style="font-size:medium;font-style:normal;font-variant:normal;font-weight:400;font-stretch:normal;text-indent:0;text-align:start;text-decoration:none;line-height:normal;letter-spacing:normal;word-spacing:normal;text-transform:none;direction:ltr;block-progression:tb;writing-mode:lr-tb;text-anchor:start;color:#000;fill:#000;fill-opacity:1;stroke-width:0;stroke-miterlimit:4;stroke-dasharray:none;marker:none;visibility:visible;display:inline;overflow:visible;font-family:Sans;-inkscape-font-specification:Sans" transform="translate(90.425 81.172)scale(.66947)"/><path d="M67.97 273.711s-5.751-62.17 6.63-100.297c8.545-26.311 21.75-47.894 43.103-65.482 33.351-27.47 84.871-34.726 121.02-18.236-31.66 1.658-74.027 12.343-96.982 31.498-17.592 14.68-31.334 35.312-38.129 57.194-11.555 37.21-5.802 96.98-5.802 96.98z" style="fill:#f6b721;fill-opacity:1;stroke:#000;stroke-width:3.99000001;stroke-linecap:butt;stroke-linejoin:miter;stroke-miterlimit:4;stroke-opacity:1;stroke-dasharray:none" transform="translate(118.727 57.331)scale(.59309)"/><path d="M90.531 172.063c-10.688 32.254-10.693 67.842-9.625 98.406l3.969-.156c-1.063-30.44-.813-65.514 9.469-97s30.426-59.366 69.719-75.97c-46.901 10.55-68.021 58.09-73.532 74.72" style="font-size:medium;font-style:normal;font-variant:normal;font-weight:400;font-stretch:normal;text-indent:0;text-align:start;text-decoration:none;line-height:normal;letter-spacing:normal;word-spacing:normal;text-transform:none;direction:ltr;block-progression:tb;writing-mode:lr-tb;text-anchor:start;baseline-shift:baseline;color:#000;fill:#000;fill-opacity:1;stroke:none;stroke-width:4;marker:none;visibility:visible;display:inline;overflow:visible;font-family:Sans;-inkscape-font-specification:Sans" transform="translate(118.727 57.331)scale(.59309)"/><path d="M119.313 201.854h25.266v56.658h-25.266z" style="fill:#f6b721;fill-opacity:1;stroke:#000;stroke-width:3.53716612;stroke-miterlimit:4;stroke-opacity:1;stroke-dasharray:none;stroke-dashoffset:0" transform="translate(79.024 81.172)scale(.66947)"/><g style="stroke-width:.69999999;stroke-miterlimit:4;stroke-dasharray:none"><path d="M284.09 342.618c-2.868-.88-5.478.458-11.216-8.028 0 0-2.508.843-3.813.897a5.4 5.4 0 0 1-2.018-.299c-1.179-.424-3.215-1.943-3.215-1.943l-.523-4.935s-1.037-.182-1.346-.672c-.266-.422-.269-1.076 0-1.496.384-.6.98-.744 1.72-.972 1.381-.424 2.926-.394 4.335-.074 1.25.283 2.222.945 3.44 1.345 3.748 1.232 11.662 2.019 11.662 2.019z" style="fill:#f6b721;fill-opacity:1;stroke:#000;stroke-width:.69999999;stroke-linecap:butt;stroke-linejoin:miter;stroke-miterlimit:4;stroke-opacity:1;stroke-dasharray:none" transform="matrix(3.54432 0 0 3.22885 -771.851 -822.153)"/><path d="M224.087 211.049s1.923.021 2.841-.075c.667-.07 1.228-.456 1.944-.15.426.183.822 1.122.822 1.122s-.645.859-1.121 1.046c-1.322.521-3.15.633-4.336-.15-.317-.208-.444-.666-.449-1.046-.003-.268.3-.747.3-.747z" style="fill:#f6b721;fill-opacity:1;stroke:#000;stroke-width:.69999999;stroke-linecap:butt;stroke-linejoin:miter;stroke-miterlimit:4;stroke-opacity:1;stroke-dasharray:none" transform="matrix(3.54432 0 0 3.22885 -636.297 -430.498)"/><path d="M224.013 209.18s1.922.021 2.84-.075c.668-.07 1.602-.606 2.318-.3.426.183.822 1.122.822 1.122s-.645.86-1.121 1.047c-1.322.52-3.524.782-4.71 0-.317-.21-.444-.667-.449-1.047-.003-.268.3-.747.3-.747z" style="fill:#f6b721;fill-opacity:1;stroke:#000;stroke-width:.69999999;stroke-linecap:butt;stroke-linejoin:miter;stroke-miterlimit:4;stroke-opacity:1;stroke-dasharray:none" transform="matrix(3.54432 0 0 3.22885 -636.297 -430.498)"/><path d="M262.258 328.385s1.922.022 2.84-.075c.668-.07 1.602-.605 2.318-.299.426.183.823 1.122.823 1.122s-.646.859-1.122 1.046c-1.321.521-3.524.782-4.71 0-.316-.209-.443-.667-.448-1.046-.003-.269.299-.748.299-.748z" style="fill:#f6b721;fill-opacity:1;stroke:#000;stroke-width:.69999999;stroke-linecap:butt;stroke-linejoin:miter;stroke-miterlimit:4;stroke-opacity:1;stroke-dasharray:none" transform="matrix(3.54432 0 0 3.22885 -771.851 -822.153)"/></g><path d="M146.934 209.259h13.1l8.208-5.506-8.17-5.617h-13.1l-14.54-4.602-14.54 4.602h-14.071l-8.17 5.617 8.208 5.506h14.071l14.502 5.306zM357.748 44.604c-2.107 0-4.211.058-6.312.139l1.938 113.644-16.887-75.717a134 134 0 0 0-13.012 2.796l21.622 77.572-46.62-107.526a173 173 0 0 0-12.763 5.398l51.437 108.163-47.7-69.266a133 133 0 0 0-10.824 7.17l45.623 59.55-81.585-76.742c-3.266 3.009-6.398 6.178-9.413 9.44l87.04 76.797-69.045-41.831a122 122 0 0 0-6.838 10.326l82 44.6 3.157-4.956 1.467 1.357 6.783-6.202 3.322-2.104v.166l7.28-2.713v.139l6.285-1.495h6.284l6.45 1.495v-.139l7.282 2.713v-.166l3.322 2.104 6.783 6.202 1.467-1.357 2.325 3.765-1.66.61 3.488 7.834 1.993 7.668 93.96-16.887a117 117 0 0 0-2.38-11.877l-92.078 20.791 122.807-44.267a152 152 0 0 0-4.872-11.793l-109.852 43.38 71.288-38.757a122 122 0 0 0-6.81-10.354l-68.935 41.748 86.957-76.713a166 166 0 0 0-9.385-9.385l-81.53 76.74 45.512-59.604c-3.47-2.55-7.058-4.961-10.769-7.17l-43.021 62.456-1.163-.61 47.922-100.77c-4.2-1.98-8.494-3.76-12.846-5.399l-44.018 101.491-.664-.36 19.82-71.148a134 134 0 0 0-13.094-2.852l-15.642 69.35 1.966-107.25a165 165 0 0 0-7.863-.194z" style="fill:#f6b721;fill-opacity:1;stroke:#000;stroke-width:3.53716612;stroke-linecap:butt;stroke-linejoin:miter;stroke-miterlimit:4;stroke-opacity:1;stroke-dasharray:none;display:inline" transform="translate(79.024 81.172)scale(.66947)"/><path d="M357.744 143.9c-36.653 0-66.811 27.086-66.811 60.86 0 33.776 30.13 61.022 66.81 61.022s66.98-27.219 66.98-61.021-30.327-60.862-66.98-60.862z" style="fill:#f6b721;fill-opacity:1;stroke:#000;stroke-width:3.53716612;stroke-miterlimit:4;stroke-opacity:1;stroke-dasharray:none;stroke-dashoffset:0;display:inline" transform="translate(79.024 81.172)scale(.66947)"/><g style="stroke-width:.69999999;stroke-miterlimit:4;stroke-dasharray:none"><g style="stroke-width:.69999999;stroke-miterlimit:4;stroke-dasharray:none"><path d="M272.208 225.551c-1.505 2.755.583 5.216-.551 7.323 0 0-2.413-.475-3.664-.535-.87-.042-2.15-.043-2.893.334-1.325.671-2.47 1.584-3.071 2.602-1.096 1.856.242 3.572 2.222 2.66 1.77 1.788 3.856.644 6.41-.334.523-.2 1.292.016 1.933.16.67.15 1.43.268 2.062 0 1.506-.639 2.526-2.52 3.48-5.54l1.484.683c.016-1.29-.507-2.275-1.19-3.168l1.77.653c.01-1.284-.56-2.225-1.144-2.933l1.704.691s-.142-.668-.17-1.658c-.018-.642.122-1.582.007-2.008-.197-.735-.46-1.028-.628-1.565-.135-.43-.302-1.318-.302-1.318-5.13-2.467-4.024-8.28-3.082-10.742l-9.768 7.395c-1.974 1.41.737 6.482 5.391 7.3z" style="fill:#f6b721;fill-opacity:1;stroke:#000;stroke-width:.69999999;stroke-linecap:butt;stroke-linejoin:miter;stroke-miterlimit:4;stroke-opacity:1;stroke-dasharray:none;display:inline" transform="matrix(3.54432 0 0 3.22885 -634.958 -438.531)"/><path d="M272.407 220.673c-.686-.278-1.709-.893-1.934-1.985l.743-1.703c-.324 1.921.85 3.326 1.19 3.688m-1.122 1.035c-.685-.278-1.708-.893-1.933-1.985l.743-1.703c-.324 1.921.85 3.326 1.19 3.688m-.942 1.22c-.686-.277-1.708-.892-1.933-1.984l.743-1.703c-.325 1.921.85 3.326 1.19 3.688m-1.203 11.425s-1.476-.087-2.344.062a3.8 3.8 0 0 0-1.625.688c-.555.414-1.224.944-1.406 1.75-.081.357.016.72.093 1 .078.28.157.5.157.5l.656-.281s-.092-.177-.156-.407-.092-.528-.063-.656c.114-.5.607-.957 1.125-1.344 1.235-1.067 2.43-.747 3.563-1.312m5.118-.283c.52-.768 1.408-1.647 1.718-2.715s.419-2.19.07-3.098c-.669.317-2.034 5.603-1.788 5.813m3.75-8.503c-.173 1.088-1.79 1.057-2.49.782s-1.224-1.211-.873-2.09c.279 1.199 2.03 1.753 3.364 1.308m.26-2.674c-.174 1.088-1.791 1.057-2.492.782-.7-.275-1.223-1.211-.872-2.09.278 1.199 2.03 1.753 3.363 1.308" style="font-size:medium;font-style:normal;font-variant:normal;font-weight:400;font-stretch:normal;text-indent:0;text-align:start;text-decoration:none;line-height:normal;letter-spacing:normal;word-spacing:normal;text-transform:none;direction:ltr;block-progression:tb;writing-mode:lr-tb;text-anchor:start;color:#000;fill:#000;fill-opacity:1;stroke:none;stroke-width:.69999999;marker:none;visibility:visible;display:inline;overflow:visible;font-family:Sans;-inkscape-font-specification:Sans" transform="matrix(3.54432 0 0 3.22885 -634.958 -438.531)"/></g><g style="stroke-width:.69999999;stroke-miterlimit:4;stroke-dasharray:none"><path d="M340.736 301.86c.299 1.489-.298 2.512-1.08 2.921-1.175.616-2.267.202-3.25-.719-1.277-1.196-2.141-2.79-3.281-3.843-1.445-1.336-3.187-1.693-4.687-1.594a5.63 5.63 0 0 0-3.813 1.844c-1.933 2.133-2.43 5.95-.406 9.09 1.906 2.958 7.638 5.058 9.812 6.845 1.953 1.605 2.814 2.665 3.188 3.846.373 1.181.519 2.68-.063 4.125-.699 1.737-2.363 2.484-4.846 2.537-3.3.07-6.412-2.99-9.598-3.504-5.964-.961-7.658 1.585-13.2 1.656-10.976.143-15.456-3.5-15.456-3.5l-11.9 15.124c-3.635 1.49-3.826 6.978 0 9.937-1.094.688-2.176 2.116-2.656 3.313-.603 1.505-1.097 2.44-1.844 3.53 0 0-2.405-.47-3.656-.53-.87-.042-2.162-.033-2.906.343-1.325.671-2.461 1.576-3.063 2.594-1.096 1.856.24 3.567 2.219 2.656 1.77 1.787 3.852.665 6.406-.312.524-.2 1.297.012 1.938.156.67.15 1.437.285 2.062 0 1.472-.67 2.137-2.39 3.188-3.594.495-.568 1.469-1.719 1.469-1.719l.968 1.344c.653-1.114.684-2.23.532-3.344l1.218 1.438c.645-1.11.595-2.222.438-3.125l1.156 1.438s.191-.626.656-1.5c.302-.567.889-1.324 1-1.75.192-.737.25-1.688.25-1.688.668.638 1.175.97 2.032.844.122-1.335.21-1.74.53-2.281 4.249-.225 8.203-.97 11.782-2.47 2.703-1.131 5.21-2.68 7.438-4.75.58-.54 1.048-.825 1.593-1.437.536-.601 2.756-.296 3.875.156.54.22 1.219 1.125 1.219 1.125.897 2.51 3.014 8.498 8.844 9.782-1.505 2.754.572 5.237-.563 7.344 0 0-2.405-.502-3.656-.563-.87-.042-2.131-.033-2.875.344-1.324.67-2.492 1.575-3.094 2.594-1.096 1.856.24 3.598 2.219 2.687 1.77 1.787 3.852.634 6.406-.344.524-.2 1.297.012 1.938.156.67.151 1.43.269 2.062 0 1.506-.638 2.546-2.511 3.5-5.53l1.469.656c.016-1.292-.504-2.264-1.187-3.157l1.78.656c.012-1.284-.572-2.23-1.155-2.937l1.718.688s-.16-.667-.187-1.657c-.018-.641.114-1.574 0-2-.198-.735-.457-1.026-.625-1.562-.135-.43-.281-1.313-.281-1.313-3.071-1.556-3.75-4.12-3.782-6.437-.042-3.057-.504-4.79-2.437-6.64.676-.122 1.376-.024 1.968-.016 3.694.045 6.718-1.848 7.62-4.63.601-1.856.608-3.938-.124-5.527-1.05-2.277-2.159-3.26-4.277-5-2.387-1.962-7.9-4.149-9.375-6.437-1.58-2.45-1.12-4.963.188-6.406 1.283-1.416 3.386-2.083 5.656-.125 1.362 1.174 2.189 2.842 3.313 3.875 1.31 1.204 3.596 2.199 5.562.937 2.04-1.31 2.31-3.244 2.111-4.89.343-1.352 1.52-2.504 3.58-2.612-.655-1.374-3.66-2.763-4.935.112-1.533-2.287-4.461-1.176-5.01 1.001 1.532-.352 3.212.182 4.365 1.748z" style="fill:#f6b721;fill-opacity:1;stroke:#000;stroke-width:.69999999;stroke-linecap:butt;stroke-linejoin:miter;stroke-miterlimit:4;stroke-opacity:1;stroke-dasharray:none;display:inline" transform="matrix(3.54432 0 0 3.22885 -770.512 -830.187)"/><path d="M287.52 206.603c1.321-.254 2.782.657 4.206 1.23.849.341 1.613.228 1.896.44l-1.285.256 1.603 3.097c-.761-1.544-4.986-4.684-6.42-5.023m-3.203 8.66c.334 2.653 1.126 4.696 2.531 6.22 1.405 1.523 3.37 2.503 5.938 3.124-.889-1.43-3.854-2.501-5.188-3.78-1.797-1.726-2.137-4.659-3.28-5.563m7.649 17.184c.387-.843 1.117-1.856 1.247-2.96.13-1.105.053-2.23-.441-3.068-.607.423-1.083 5.861-.806 6.028m-8.836-18.558c.552-.954-.723-1.95-1.44-2.177-.717-.229-1.714.168-1.994 1.071.971-.754 2.68-.08 3.434 1.106m-16.43-.825c.494 1.936 5.94 4.452 7.045 3.863l1.573-.988c-1.964 1.09-7.11-.99-8.618-2.875m-2.702.428c-.082 1.574 6.1 5.352 7.542 5.087l1.622-.906c-2.134 1.225-9.109-3.19-9.164-4.181m-1.427 1.87c.271 1.98 5.269 5.096 6.433 4.637l1.675-.803c-2.609.67-7.09-1.895-8.108-3.834m-1.555 1.811c-.126 1.513 3.1 3.93 4.617 4.227l1.749-.627c-2.202.38-5.738-2.036-6.366-3.6m-2.461.433c-.178 1.289 2.55 4.544 3.77 4.659l1.815-.392c-1.756.49-5.406-3.32-5.585-4.267m-1.433 1.972c-.07.707.745 2.61 1.972 3.226l1.85-.18c-2.356-.276-3.603-2.575-3.822-3.046m-2.192 1.115c.01.74.21 1.916 1.144 2.524l1.856-.07c-1.907-.4-2.786-2.005-3-2.454m-8.989 2.664c.174 1.088 1.79 1.057 2.491.782.7-.275 1.224-1.211.873-2.09-.279 1.199-2.03 1.753-3.364 1.308m.041 2.53c.174 1.089 1.79 1.058 2.491.783.7-.275 1.224-1.211.873-2.09-.279 1.199-2.03 1.753-3.364 1.308m-4.354 7.688c.758-.536 1.898-1.046 2.564-1.936s1.164-1.903 1.156-2.875c-.737.061-3.876 4.527-3.72 4.81m45.85.722s-1.476-.087-2.344.063a3.8 3.8 0 0 0-1.625.687c-.555.414-1.224.944-1.407 1.75-.08.357.016.72.094 1s.156.5.156.5l.657-.281s-.093-.177-.157-.406-.091-.53-.062-.657c.113-.5.607-.957 1.125-1.343 1.234-1.068 2.43-.748 3.562-1.313m-50.473-.69s-1.476-.086-2.344.063a3.8 3.8 0 0 0-1.625.687c-.555.415-1.224.945-1.406 1.75-.081.358.015.721.093 1 .078.28.157.5.157.5l.656-.28s-.093-.178-.156-.407c-.064-.23-.092-.529-.063-.656.113-.501.607-.957 1.125-1.344 1.235-1.067 2.43-.748 3.562-1.313" style="font-size:medium;font-style:normal;font-variant:normal;font-weight:400;font-stretch:normal;text-indent:0;text-align:start;text-decoration:none;line-height:normal;letter-spacing:normal;word-spacing:normal;text-transform:none;direction:ltr;block-progression:tb;writing-mode:lr-tb;text-anchor:start;color:#000;fill:#000;fill-opacity:1;stroke:none;stroke-width:.69999999;marker:none;visibility:visible;display:inline;overflow:visible;font-family:Sans;-inkscape-font-specification:Sans" transform="matrix(3.54432 0 0 3.22885 -634.958 -438.531)"/></g><g style="stroke-width:.69999999;stroke-miterlimit:4;stroke-dasharray:none"><g style="stroke-width:.69999999;stroke-miterlimit:4;stroke-dasharray:none"><path d="m257.418 208.83-.908.523c-6.177 2.38-10.934 2.3-17.148 0l-.884 2.492c-.706 2.819-.318 5.302.648 7.307.59-.28 1.179-.888 1.768-1.473.291.973.16 2.358 1.179 3.476 1.154-.648 1.87-1.532 2.298-2.18.197 1.332.704 2.342 1.724 3.064 1.02-.722 1.527-1.732 1.724-3.064.427.648 1.143 1.768 2.298 2.416 1.018-1.119 1.005-1.796 1.326-2.908.515 1.158 1.173 1.747 2.327 2.395 1.018-1.119.888-2.503 1.179-3.476.488.787 1.106 1.337 1.768 1.473.505-.723.873-1.88.868-2.928.95.745 1.833.967 2.432 1.016.239-1.363.188-2.416-.007-3.63.895.308 1.067.588 2.167.59.736-2.701-.139-5.625-2.699-7.696z" style="fill:#f6b721;fill-opacity:1;stroke:#000;stroke-width:.69999999;stroke-linecap:butt;stroke-linejoin:miter;stroke-miterlimit:4;stroke-opacity:1;stroke-dasharray:none;display:inline" transform="matrix(3.54432 0 0 3.22885 -634.958 -438.531)"/><path d="m261.786 213.841-1.466-.096-.475.971c-.025-1.318-.732-2.505-.87-3.218.33.752 1.342 1.61 2.811 2.343m-2.77 2.84-1.231-.484-.594.904c.14-1.31-.069-3.458-.115-4.183.233.788.854 2.84 1.94 3.764m-3.244 1.468-.727-.485-.594.904c.14-1.31-.114-3.917-.161-4.642.233.788 1.037 3.345 1.482 4.223m-3.53 1.146-.727-.485-.594.904c.14-1.31.206-3.641.16-4.366.233.787.716 3.069 1.16 3.947m-3.622.435-.727-.484-.594.904c.14-1.311.206-3.642.16-4.367.233.788.716 3.07 1.16 3.947m-5.126.138.727-.485.594.904c-.141-1.31-.207-2.953-.16-3.679-.233.788-.716 2.382-1.161 3.26m-3.422-1.438.727-.484.593.904c-.14-1.311-.206-2.954-.159-3.68-.233.788-.716 2.382-1.161 3.26" style="font-size:medium;font-style:normal;font-variant:normal;font-weight:400;font-stretch:normal;text-indent:0;text-align:start;text-decoration:none;line-height:normal;letter-spacing:normal;word-spacing:normal;text-transform:none;direction:ltr;block-progression:tb;writing-mode:lr-tb;text-anchor:start;color:#000;fill:#000;fill-opacity:1;stroke:none;stroke-width:.69999999;marker:none;visibility:visible;display:inline;overflow:visible;font-family:Sans;-inkscape-font-specification:Sans" transform="matrix(3.54432 0 0 3.22885 -634.958 -438.531)"/></g><g style="stroke-width:.69999999;stroke-miterlimit:4;stroke-dasharray:none"><path d="M237.648 201.036s-2.279 4.002-2.734 6.067c-.295 1.336-.257 3.418-.257 3.418.74-.047 1.481-.21 2.222-.94.077 1.139-.037 2.278.684 3.418.74-.286 1.652-.662 2.392-2.051.057 1.417.32 2.252 1.111 3.589.97-.31 1.732-1.465 2.478-2.222.016 1.033.274 2.188 1.196 3.674 1.212-.726 1.916-2.406 2.197-3.359.307.9.985 2.633 2.197 3.36.922-1.487 1.18-2.642 1.196-3.675.746.757 1.508 1.912 2.478 2.222.791-1.337 1.054-2.172 1.11-3.59.741 1.39 1.653 1.766 2.393 2.052.72-1.14.607-2.28.684-3.418.74.73 1.755 1.362 2.495 1.409.148-.148.727-2.145.448-3.34.87.755 1.615 1.259 2.9 1.222.21-1.103.03-2.207-.185-3.208 1.397.528 2.91.672 3.991.103-2.52-4.683-6.507-5.448-10.884-6.256-4.96 4.51-10.908 5.35-18.112 1.525z" style="fill:#f6b721;fill-opacity:1;stroke:#000;stroke-width:.69999999;stroke-linecap:butt;stroke-linejoin:miter;stroke-miterlimit:4;stroke-opacity:1;stroke-dasharray:none" transform="matrix(3.54432 0 0 3.22885 -634.958 -438.531)"/><path d="m263.857 206.098-.869-.095-.11 1.076c-.48-1.228-1.217-2.959-1.593-3.58.366.728 2.25 2.38 3.584 2.599zm-2.687 2.343-1.16-.727.128 1.652c-.41-1.253-1.05-3.022-1.39-3.664.537.622 1.656 2.122 2.422 2.74m-3.02 2.235-1.017-.916-.159 1.65c-.188-1.306-.514-3.159-.739-3.85.422.706 1.266 2.375 1.915 3.116m-3.293 1.21-.783-.387-.474.972c-.027-1.318-.124-3.197-.263-3.91.333.752.967 2.512 1.52 3.326m-7.23 1.682-.671-.56-.688.834c.282-1.288.628-3.234.66-3.96.147.809.351 2.765.698 3.686m3.617-.525-.783-.388-.473.972c-.028-1.318-.125-3.197-.263-3.91.332.752.966 2.512 1.519 3.326m-8.649.192.783-.387.474.972c.027-1.318.124-3.197.263-3.91-.333.751-.967 2.511-1.52 3.325m-3.584-1.298.783-.388.474.973c.028-1.318.317-3.679.455-4.392-.332.752-1.158 2.993-1.712 3.807m-3.048-1.833.823-.293.355 1.022c.184-1.306.521-2.915.744-3.607-.419.707-1.276 2.135-1.922 2.878" style="font-size:medium;font-style:normal;font-variant:normal;font-weight:400;font-stretch:normal;text-indent:0;text-align:start;text-decoration:none;line-height:normal;letter-spacing:normal;word-spacing:normal;text-transform:none;direction:ltr;block-progression:tb;writing-mode:lr-tb;text-anchor:start;color:#000;fill:#000;fill-opacity:1;stroke:none;stroke-width:.69999999;marker:none;visibility:visible;display:inline;overflow:visible;font-family:Sans;-inkscape-font-specification:Sans" transform="matrix(3.54432 0 0 3.22885 -634.958 -438.531)"/></g><g style="stroke-width:.69999999;stroke-miterlimit:4;stroke-dasharray:none"><path d="M257.115 197.057c.795.24 1.12-.043 2.038.093-.491-2.096-.635-2.84-2.296-4.253 1.226.354 1.412.026 2.19.107-1.728-3.151-1.412-6.343-3.994-7.973.808-2.143.28-2.578-.422-4.521-.175-.486-.085-1.546-.085-1.546s-2.211.452-3.007 1.437a40 40 0 0 0-1.039 1.366c.182-1.193.062-1.718-.859-2.492-.387.53-.826 1.715-1.288 2.177-.158-1.078-.37-2.004-1.26-2.695-.778.747-1.223 1.585-1.26 2.695-.463-.462-.903-1.648-1.29-2.177-.92.774-1.04 1.299-.858 2.492 0 0-.58-.799-1.04-1.366-.795-.985-3.006-1.437-3.006-1.437s.025 1.042-.086 1.546c-.256 1.168-1.512 2.679-.421 4.52-3.13 2.178-2.449 5.097-4.178 8.247.779-.08.928.342 2.153-.013-1.66 1.414-1.777 1.7-2.269 3.797.604-.24 1.115-.048 2.29-.376-.4.934-1.259 1.618-1.738 2.06-1.183 1.095-1.669 2.193-1.962 3.459.776.01 1.551-.264 2.327-.482-.266 1.01-.398 1.753-.08 3.209 1.163-.468 1.74-.96 2.486-1.444-.096.936-.147 2.032.16 2.968.776-.227 1.551-.736 2.326-1.604-.018 1.22.317 2.09.722 2.887.713-.446 1.43-.888 2.006-1.444.231.868.286 1.617 1.123 2.888 1.277-.57 1.538-1.394 2.005-2.166.177.713.494 1.496 1.428 2.587 1.221-.883 1.16-1.767 1.504-2.65.278.634.87 1.754 1.79 2.22.696-.788.804-1.862 1.003-2.506.627.78 1.356 1.46 2.363 1.862.524-1.05.541-1.931.501-2.793.884 1.018 1.767 1.305 2.65 1.575.22-.955.16-1.91 0-2.864.931.731 1.862 1.081 2.793.859.047-1.053-.26-1.842-.573-2.721.937.178 1.831.272 2.578.071 0 0-.51-1.253-1.145-1.862-.82-.784-1.928-1.358-2.744-2.145-.473-.455-1.536-1.592-1.536-1.592z" style="fill:#f6b721;fill-opacity:1;stroke:#000;stroke-width:.69999999;stroke-linecap:butt;stroke-linejoin:miter;stroke-miterlimit:4;stroke-opacity:1;stroke-dasharray:none;display:inline" transform="matrix(3.54432 0 0 3.22885 -634.958 -438.531)"/><path d="M278.75 301.969s.067.727-.031 1.094c-.19.707-.526 1.3-.563 2.03-.025.5.469 1.438.469 1.438s.32-1.15.844-1.375c.52-.223 1.594.313 1.594.313s-.07-1.062-.22-1.469c-.334-.912-2.093-2.031-2.093-2.031m13.063 0s-1.76 1.119-2.094 2.031c-.15.407-.219 1.469-.219 1.469s1.073-.536 1.594-.313c.523.224.844 1.375.844 1.375s.493-.938.468-1.437c-.036-.732-.342-1.324-.531-2.031-.098-.367-.062-1.094-.062-1.094m-13.594 6.156a1.99 1.99 0 0 0-.844 2.188c.161.598.671 1.064 1.344 1.343-.034.032-.027.028-.063.063-.266.265-.573.619-.687 1.062-.476 1.846-.165 3.646.875 4.813-.55.807-1.58 2.607-2.031 3.625.906-.81 1.838-2.272 2.53-3.156.308.243.657.43 1.032.593-.386.803-1.155 2.923-1.437 4.063.82-1.042 1.545-2.873 2.093-3.813.27.079.557.114.844.156a2.38 2.38 0 0 0 .219 1.97c-.388.76-1.199 2.968-1.5 4.124.775-.96 1.456-2.583 2-3.562.313.275.694.485 1.156.625-.174.979-.373 3.027-.375 4.125.51-1.124.781-2.885 1.063-3.969.193.024.383.063.593.063.122 0 .228-.024.344-.032.196 1.107.33 2.836.75 3.969.074-1.071.037-3.049-.062-4.062.352-.081.66-.218.937-.375.442 1.02.94 2.808 1.625 3.875-.176-1.197-.73-3.543-1.031-4.313.085-.084.179-.157.25-.25.374-.491.504-1.11.437-1.719.93.833 2.453 2.315 3.469 2.969-.603-.93-2.265-2.758-3.031-3.531.788-.185 1.522-.491 2.094-.969.883.806 2.682 3.105 3.78 3.813-.638-.987-2.631-3.602-3.312-4.313.982-1.168 1.277-2.916.813-4.719-.115-.443-.421-.797-.688-1.062-.035-.035-.028-.03-.062-.063.672-.28 1.182-.745 1.344-1.343a1.99 1.99 0 0 0-.844-2.188c.22.687.382 1.234.187 2.031-.124.51-.572.952-1.375 1.063l-.875.125.719.5s.18.15.406.375.479.545.531.75c.428 1.661 0 3.068-.906 4.062s-2.343 1.684-3.969 1.438c-1.126-.17-1.157-.453-1.156-1.469.21-.024.473-.084.719-.219.224-.122.314-.253.406-.375s.168-.21.188-.218c.293-.14.75-.094.75-.094l.375.094.031-.407c.025-.352.102-.578-.156-1.154a2.24 2.24 0 0 0-.75-.906c-.11-.079-.175-.115-.219-.156s-.055-.06-.063-.094c-.287-1.17-.376-2.182-.093-3.158.17-.585.749-1.079 1.5-1.188.809-.117 1.795.13 2.25.219a2.55 2.55 0 0 0-2.438-.906c-.911.16-1.737.782-2 1.687-.324 1.117-.203 2.297.094 3.502a.9.9 0 0 0 .25.438c.108.1.216.181.312.25.193.137.382.26.532.594.128.286.078.276.062.529-.225-.019-.362-.2-.719-.032-.236.112-.366.303-.468.438s-.194.239-.157.219a1.5 1.5 0 0 1-.468.125c-.165.018-.313 0-.313 0s-.148.018-.312 0a1.5 1.5 0 0 1-.469-.125c.037.02-.054-.084-.156-.22-.102-.134-.233-.325-.469-.437-.356-.168-.494.013-.719.032-.016-.253-.066-.243.063-.53.15-.333.339-.456.531-.593a3 3 0 0 0 .312-.25.9.9 0 0 0 .25-.438c.297-1.205.418-2.385.094-3.502-.262-.905-1.088-1.526-2-1.687a2.55 2.55 0 0 0-2.437.906c.455-.088 1.44-.336 2.25-.219.75.11 1.33.603 1.5 1.188.283.976.194 1.989-.094 3.158-.008.034-.018.053-.063.094-.044.041-.108.077-.218.156-.22.158-.54.44-.75.906-.259.576-.182.802-.157 1.154l.032.407.375-.094s.456-.045.75.094c.02.009.095.096.187.218.093.122.183.253.406.375.247.135.509.195.72.219.067 1.077-.105 1.28-1.157 1.469-1.618.291-3.062-.444-3.969-1.438-.906-.994-1.334-2.4-.906-4.062.053-.205.305-.525.531-.75s.406-.375.406-.375l.72-.5-.876-.125c-.802-.111-1.25-.554-1.375-1.063-.194-.797-.032-1.344.188-2.031m3.5 1.781q-.406.005-.969.281c.129.798.97 1.854 2.406 1-.229-.611-.627-1.29-1.437-1.28m6.625 0c-.81-.009-1.209.67-1.438 1.281 1.436.854 2.278-.202 2.406-1q-.563-.277-.968-.28m-3.313 8.688c.09.056.182.111.406.219.314.15.675.278 1.063.312.338.03.67.047 1 .031.225.542.143.932-.219 1.406-.398.523-1.134.907-2.25.907-1.115 0-1.883-.384-2.281-.907-.362-.474-.417-.864-.187-1.406.33.016.662-.002 1-.031a3.1 3.1 0 0 0 1.062-.312 4 4 0 0 0 .406-.22m-8.719 1.5c-1.174.908-2.224 2.644-3.437 3.062l1.094-.156.125 1.156c.58-2.492 1.75-2.363 2.219-4.062m2.157.5c-1.03 1.07-2.111 4.128-3.25 4.719l1.062-.344.281 1.125c.211-2.55 1.692-3.75 1.907-5.5m16.937.437c.317 1.427 2.4 1.927 2.938 4.125l.125-1.125 1.281.063c-2.313-1.125-2.302-1.365-4.344-3.063m-2.406.125c.05 1.46 2.78 3.616 2.906 5.875l.344-1.062 1 .469c-1.275-1.165-3.298-4.432-4.25-5.282M279.938 323c-.83 1.231-1.168 3.065-2.188 3.844l.969-.5.5 1.062c-.233-2.548.808-2.646.719-4.406m11.656.094c-.055 1.46 1.758 2.684 1.406 5.218l.531-1.03.969.562c-.982-.826-2.018-3.835-2.906-4.75m-2.188.437c-.353 1.727 1.144 3.11.531 5.594l.625-1 .907.656c-.892-.922-1.427-3.908-2.063-5.25m-7.312 1c-.636 1.342-.546 3.109-1.438 4.031l.906-.656.625.969c-.612-2.485.26-2.617-.093-4.344m4.937.219c-.482 1.695.8 2.256 0 4.687l.719-.906.813.688c-.82-.988-1-3.083-1.532-4.469m-2.156 1c-.532 1.386-.15 2.481-.969 3.469l.844-.719.688.938c-.8-2.432-.08-1.993-.563-3.688" style="font-size:medium;font-style:normal;font-variant:normal;font-weight:400;font-stretch:normal;text-indent:0;text-align:start;text-decoration:none;line-height:normal;letter-spacing:normal;word-spacing:normal;text-transform:none;direction:ltr;block-progression:tb;writing-mode:lr-tb;text-anchor:start;color:#000;fill:#000;fill-opacity:1;stroke:none;stroke-width:.69999999;marker:none;visibility:visible;display:inline;overflow:visible;font-family:Sans;-inkscape-font-specification:Sans" transform="matrix(3.54432 0 0 3.22885 -770.512 -830.187)"/></g></g></g><path d="M339.383 156.666c-5.704-.215-12.632 2.89-14.96 5.079 2.514-.225 11.65-2.469 16.011-1.55 4.049.851 10.431 5.533 11.13 8.417 1.166 4.817.278 9.64-1.74 15.135-.057.162-.109.237-.367.415-.257.18-.617.347-1.248.678-1.262.662-3.136 1.85-4.459 4.004-1.63 2.656-1.273 3.775-1.272 5.48l.01 1.973 2.077-.278s2.504-.026 4.049.768c.102.052.48.503.937 1.13s.89 1.311 2.062 1.999c1.29.757 2.698 1.155 3.834 1.362l4.084.327c1.155-.023 2.609-.193 4.003-.735 1.266-.492 1.802-1.098 2.354-1.644.551-.547.995-.933 1.105-.967 1.651-.54 4.12-.115 4.12-.115l2.006.605.322-1.946c.273-1.683.777-2.733-.411-5.615-.963-2.337-2.597-3.805-3.737-4.66-.57-.427-.9-.65-1.125-.867-.226-.218-.265-.3-.296-.468-1.118-5.748-1.228-10.65.691-15.22 1.148-2.736 8.167-6.345 12.3-6.542 4.45-.212 13.14 3.459 15.587 4.08-2.228-2.893-10.203-7.933-16.343-7.473-5.029.377-13.417 4.488-15.197 8.726-2.194 5.227-2.003 10.949-.85 16.873a4.3 4.3 0 0 0 1.211 2.208c.55.53 1.09.977 1.586 1.349.994.744 1.983 1.406 2.67 3.074.59 1.432.31 1.388.126 2.593-1.218-.187-1.873-1.131-3.878-.477-1.33.434-2.126 1.29-2.734 1.892-.494.49-.93.89-.967.978-.558.21-1.666.388-2.56.406a9 9 0 0 1-1.71-.137s-.822.025-1.712-.137c-.875-.16-1.944-.486-2.465-.78-.003.002.01-.026.002-.028-.023-.093-.389-.557-.799-1.12-.505-.692-1.153-1.662-2.398-2.302-1.875-.965-2.673-.137-3.905-.146.01-1.22-.274-1.22.537-2.54.944-1.538 2.026-2.034 3.125-2.61.55-.29 1.155-.644 1.78-1.08a4.3 4.3 0 0 0 1.549-1.987c2.08-5.665 3.18-11.284 1.844-16.794-1.082-4.467-8.737-9.863-13.642-11.035a12 12 0 0 0-2.336-.298zm-2.358 10.032c-.93-.077-1.902-.004-2.963.235-1.885.424-4.023 1.48-6.395 3.21 2.01 4.844 9.36 10.257 18.225 2.708-1.994-2.862-4.84-5.82-8.867-6.153m45.92 3.676c-.93-.077-1.902-.004-2.963.235-1.885.424-4.023 1.481-6.395 3.21 2.01 4.845 9.36 10.258 18.224 2.709-1.993-2.862-4.839-5.821-8.866-6.154" style="font-size:medium;font-style:normal;font-variant:normal;font-weight:400;font-stretch:normal;text-indent:0;text-align:start;text-decoration:none;line-height:normal;letter-spacing:normal;word-spacing:normal;text-transform:none;direction:ltr;block-progression:tb;writing-mode:lr-tb;text-anchor:start;color:#000;fill:#000;fill-opacity:1;stroke:none;stroke-width:.69999999;marker:none;visibility:visible;display:inline;overflow:visible;font-family:Sans;-inkscape-font-specification:Sans" transform="translate(79.024 81.172)scale(.66947)"/></svg>