<svg xmlns="http://www.w3.org/2000/svg" width="508.213" height="407.485" viewBox="-239.323 -118.504 508.213 407.485"><title>Neo4j Graph Visualization</title><g class="layer relationships"><g class="relationship"><path fill="#a5abb6" d="m35.443 75.427-.333-37.474-3 .027.333 37.473Zm-.563-63.473-.332-37.473 3-.026-4.58-8.96-4.42 9.04 3-.027.332 37.473Z" class="outline"/><text x="90.475" y="3" font-family="sans-serif" font-size="8" pointer-events="none" text-anchor="middle" transform="rotate(89.492 49.39 -16.26)">DATE</text></g><g class="relationship"><path fill="#a5abb6" d="m66.306 91.403 38.6-31.315-1.89-2.33-38.6 31.315Zm66.557-53.995 38.6-31.315 1.89 2.33 4.155-9.165-9.824 2.175 1.89 2.33-38.6 31.315Z" class="outline"/><text x="107.705" y="3" font-family="sans-serif" font-size="8" pointer-events="none" text-anchor="middle" transform="rotate(-39.05 179.913 9.361)">ACTION</text></g><g class="relationship"><path fill="#a5abb6" d="m-102.527 13.336 28.15 21.394 1.815-2.388-28.15-21.394Zm68.754 52.254 28.15 21.394-1.815 2.388 9.889 1.863-4.443-9.028-1.815 2.388-28.15-21.394Z" class="outline"/><text x="100.857" y="3" font-family="sans-serif" font-size="8" pointer-events="none" text-anchor="middle" transform="rotate(37.235 -48.831 -204.124)">PERSON_IN</text></g><g class="relationship"><path fill="#a5abb6" d="m.684 137.174-17.935 12.575 1.722 2.456L2.406 139.63Zm-77.707 54.483-17.936 12.575-1.722-2.456-4.786 8.851 9.953-1.482-1.722-2.456 17.935-12.575Z" class="outline"/><text x="98.405" y="3" font-family="sans-serif" font-size="8" pointer-events="none" text-anchor="middle" transform="rotate(-35.036 298.417 315.15)">PLACE_OF_ISSUE</text></g><g class="relationship"><path fill="#a5abb6" d="m-171.06-25.809-37.025-15.136a22.936 22.936 0 1 1 26.81-35.277l18.986 24.506-4.743 3.675 9.07 4.359-1.955-9.871-4.744 3.675-18.985-24.507a19.936 19.936 0 1 0-23.304 30.663l37.026 15.136Z" class="outline"/><text y="114.758" font-family="sans-serif" font-size="8" pointer-events="none" text-anchor="middle" transform="rotate(-52.765 -304.198 240.263)">KNOWS</text></g><g class="relationship"><path fill="#a5abb6" d="m74.307 116.652 20.798-.149-.021-3-20.799.15Zm80.797-.578 20.798-.149.021 3 8.968-4.564-9.032-4.435.021 3-20.798.148Z" class="outline"/><text x="90.799" y="3" font-family="sans-serif" font-size="8" pointer-events="none" text-anchor="middle" transform="rotate(-.41 16152.67 -4736.19)">REFERENCES</text></g><g class="relationship"><path fill="#a5abb6" d="m-155.33 116.225 48.811.183.012-3-48.81-.183Zm91.811.345 48.81.184-.01 3 9.016-4.466-8.983-4.534-.01 3-48.812-.184Z" class="outline"/><text x="110.311" y="3" font-family="sans-serif" font-size="8" pointer-events="none" text-anchor="middle" transform="rotate(.216 -30539.849 -51839.782)">PLACE_IN</text></g></g><g class="layer nodes"><g class="node" transform="translate(37.696 244.981)"><circle r="40" fill="#fb95af" stroke="#e0849b" stroke-width="2" class="outline"/><text y="5" fill="#fff" font-family="sans-serif" font-size="10" pointer-events="none" text-anchor="middle"> Literature</text></g><g class="node" transform="translate(208.571 -25.942)"><circle r="40" fill="#de9bf9" stroke="#bf85d6" stroke-width="2" class="outline"/><text y="5" fill="#fff" font-family="sans-serif" font-size="10" pointer-events="none" text-anchor="middle"> Lemma</text></g><g class="node" transform="translate(224.89 114.075)"><circle r="40" fill="#ffd86e" stroke="#edba39" stroke-width="2" class="outline"/><text y="5" fill="#604a0e" font-family="sans-serif" font-size="10" pointer-events="none" text-anchor="middle"> Reference</text></g><g class="node" transform="translate(-195.323 114.574)"><circle r="40" fill="#6dce9e" stroke="#60b58b" stroke-width="2" class="outline"/><text y="5" fill="#fff" font-family="sans-serif" font-size="10" pointer-events="none" text-anchor="middle"> IndexPlace</text></g><g class="node" transform="translate(162.308 243.047)"><circle r="40" fill="#fb95af" stroke="#e0849b" stroke-width="2" class="outline"/><text y="5" fill="#fff" font-family="sans-serif" font-size="10" pointer-events="none" text-anchor="middle"> IndexEntry</text></g><g class="node" transform="translate(34.297 115.438)"><circle r="40" fill="#ff756e" stroke="#e06760" stroke-width="2" class="outline"/><text y="5" fill="#fff" font-family="sans-serif" font-size="10" pointer-events="none" text-anchor="middle"> Regesta</text></g><g class="node" transform="translate(-133.466 -12.061)"><circle r="40" fill="#68bdf6" stroke="#5ca8db" stroke-width="2" class="outline"/><text y="5" fill="#fff" font-family="sans-serif" font-size="10" pointer-events="none" text-anchor="middle"> IndexPerson</text></g><g class="node" transform="translate(32.614 -74.504)"><circle r="40" fill="#a5abb6" stroke="#9aa1ac" stroke-width="2" class="outline"/><text y="5" fill="#fff" font-family="sans-serif" font-size="10" pointer-events="none" text-anchor="middle"> Date</text></g><g class="node" transform="translate(-134.218 233.59)"><circle r="40" fill="#6dce9e" stroke="#60b58b" stroke-width="2" class="outline"/><text y="5" fill="#fff" font-family="sans-serif" font-size="10" pointer-events="none" text-anchor="middle"> Place</text></g></g></svg>