<svg xmlns="http://www.w3.org/2000/svg" width="200" height="200" viewBox="0 0 24 24"><path fill="none" stroke="#000" stroke-width=".3" d="M12 2.55c1.607.16 3.105.51 4.435 1.173a8.7 8.7 0 0 1 3.427 3.034 9.14 9.14 0 0 1 1.466 6.346 9.87 9.87 0 0 1-2.795 5.643A9.15 9.15 0 0 1 12.6 21.43a9.1 9.1 0 0 1-6.64-2.254 9.94 9.94 0 0 1-3.255-5.916 9.1 9.1 0 0 1 1.649-6.815 8.7 8.7 0 0 1 3.377-2.812c1.29-.612 2.73-.936 4.268-1.083"/><path fill="none" stroke="#000" stroke-width=".3" d="m8.927 7.346 4.05 2.025 4.05 2.025c.212.343.212.865 0 1.208l-4.05 2.025-4.05 2.025c-.595.14-.759-.077-.977-.604v-8.1a1.25 1.25 0 0 1 .977-.604"/><path fill="none" stroke="#000" stroke-width=".3" d="m8.927 7.346 4.05 2.025 4.05 2.025c.212.343.212.865 0 1.208l-4.05 2.025-4.05 2.025a1.25 1.25 0 0 1-.977-.604v-8.1a1.25 1.25 0 0 1 .977-.604"/><path fill="none" stroke="#000" stroke-width=".3" d="M15.216 12 9.3 14.958V9.042"/><path fill="none" stroke="#000" stroke-width=".3" d="M9.3 9.042 15.216 12 9.3 14.958V9.042"/></svg>