<svg xmlns="http://www.w3.org/2000/svg" width="200" height="200" viewBox="0 0 24 24"><path fill="none" stroke="#000" stroke-width=".3" d="m11.999 1.867.231.093 4.905 4.904 4.904 4.905a.63.63 0 0 1 0 .462l-4.904 4.904-4.905 4.905a.63.63 0 0 1-.461 0l-4.905-4.905-4.905-4.904a.63.63 0 0 1 0-.462l4.905-4.905 4.905-4.904.23-.093"/><path fill="none" stroke="#000" stroke-width=".3" d="M12.271 5.524h1.242v.37h-.862v.668h.547v.361h-.547v.872h.964v.37H12.27V5.524m-.851.686-.288.389h-.399v-.704h.4l.287.315m.046 1.204-.352.38h-.38V6.97h.38l.352.444"/><path fill="none" stroke="#000" stroke-width=".3" d="m11.835 7.442-.704.723h-.778V5.524h.834c.286.326.513.87.324 1.26l.324.658m-5.22 2.311h.787c.323.328.55.948.315 1.344l.38 1.297h-.39l-.351-1.241h-.362v1.241h-.38v-2.64m1.919-.001h1.241v.37h-.861v.668h.547v.362h-.547v.87h.963v.371H8.533v-2.64m4.087-.001h.37l.659 2.641h-.38l-.186-.723h-.565l-.176.723h-.38l.658-2.64m1.39-.001h.788c.323.327.55.948.315 1.344l.38 1.297h-.39l-.352-1.241h-.361v1.241h-.38v-2.64m1.919-.001h1.242v.37h-.862v.668h.547v.362h-.547v.87h.963v.371H15.93v-2.64"/><path fill="none" stroke="#000" stroke-width=".3" d="m7.727 10.457-.343.334h-.39v-.667h.39l.343.333m7.395 0-.342.334h-.39v-.667h.39l.342.333m-9.24.037-.343.38H5.15v-.75h.39l.342.37"/><path fill="none" stroke="#000" stroke-width=".3" d="m6.253 10.494-.695.742H5.15v1.158h-.38v-2.64h.788l.695.74m5.181 0-.343.38h-.39v-.75h.39l.343.37"/><path fill="none" stroke="#000" stroke-width=".3" d="m11.804 10.494-.695.742h-.408v1.158h-.38v-2.64h.788l.695.74m.992.046.195.76h-.38l.185-.76m6.404.529c-.152.484-.267 1.168-.75 1.325h-.732v-2.64h.676c.725.173.736.635.806 1.315"/><path fill="none" stroke="#000" stroke-width=".3" d="M18.83 11.087a1.5 1.5 0 0 1-.418.936h-.315v-1.9h.315c.276.217.38.616.418.964M6.236 13.982H7.58v.352h-.482v2.289h-.38v-2.289h-.482v-.352m6.636 0h1.343v.352h-.481v2.289h-.38v-2.289h-.482v-.352m4.847.741-.343.38h-.39v-.75h.39l.343.37"/><path fill="none" stroke="#000" stroke-width=".3" d="m18.09 14.723-.696.741h-.408v1.159h-.38v-2.641h.788l.696.741m-9.01.575c-.135 1.098-.824 1.254-.824.01 0-1.245.686-1.108.825-.01"/><path fill="none" stroke="#000" stroke-width=".3" d="M9.442 15.298c-.245 1.518-1.547 1.79-1.547 0 0-1.784 1.302-1.503 1.547 0m6.275 0c-.136 1.098-.825 1.254-.825.01 0-1.245.685-1.108.825-.01"/><path fill="none" stroke="#000" stroke-width=".3" d="M16.078 15.298c-.245 1.518-1.547 1.79-1.547 0 0-1.784 1.302-1.503 1.547 0m-3.448.602c-.244.257-.378.784-.732.77-.37-.013-.494-.55-.741-.825h.37c.146.177.554.984.743.055.118-.586-1.172-.598-.983-1.279.396-1.43.953-.4 1.343 0h-.36c-.074-.073-.544-.745-.622 0-.055.535.657.851.982 1.28"/><path fill="none" stroke="#000" stroke-width=".3" d="M11.495 22.313 6.59 17.41l-4.905-4.904a1.37 1.37 0 0 1 0-1.009L6.59 6.592l4.904-4.905a1.38 1.38 0 0 1 1.008 0l4.905 4.905 4.906 4.905c.127.311.127.698 0 1.009l-4.906 4.904-4.905 4.904c-.31.129-.698.129-1.008 0"/><path fill="none" stroke="#000" stroke-width=".3" d="M12.7 22.51c-.408.227-.953.13-1.402 0l-4.904-4.905L1.49 12.7a1.9 1.9 0 0 1 0-1.4l4.904-4.905 4.904-4.904c.432-.179.97-.179 1.402 0l4.904 4.904 4.904 4.905c.18.43.18.97 0 1.4l-4.904 4.905-4.904 4.904"/></svg>