<svg xmlns="http://www.w3.org/2000/svg" width="600" height="300" viewBox="0 0 600 300"><desc>Text flow into complex shape.</desc><path d="M50 50h175l75 100 75-100h175L400 250H200z" style="fill:none;stroke:#000"/><path d="M69 50h156v25H69zm306 0h156v25H375z" style="fill:none;stroke:#add8e6"/><path d="M392.69 234h1.79v10.93h-1.79zm0-4.26h1.79v2.28h-1.79zm-3.46 4.58v1.7q-.76-.39-1.58-.59-.82-.19-1.7-.19-1.34 0-2.01.41t-.67 1.23q0 .62.48.98t1.92.68l.62.14q1.91.41 2.71 1.16.81.74.81 2.08 0 1.52-1.21 2.41-1.2.89-3.31.89-.88 0-1.83-.18-.95-.16-2-.51v-1.85q.99.52 1.96.78.96.25 1.91.25 1.27 0 1.96-.43.68-.43.68-1.23 0-.73-.5-1.12-.49-.39-2.16-.75l-.62-.15q-1.67-.35-2.41-1.07-.75-.73-.75-2 0-1.55 1.1-2.39 1.09-.84 3.1-.84 1 0 1.88.15t1.62.44m-12.52-.32h1.8v10.93h-1.8zm0-4.26h1.8v2.28h-1.8zm-3.6 8.59v6.6h-1.8v-6.54q0-1.55-.61-2.32-.6-.77-1.81-.77-1.46 0-2.3.92-.84.93-.84 2.53v6.18h-1.8V234h1.8v1.7q.65-.99 1.52-1.48t2.02-.49q1.88 0 2.85 1.18.97 1.16.97 3.42m-18.92-4.01v1.7q-.76-.39-1.58-.59-.82-.19-1.7-.19-1.34 0-2.01.41t-.67 1.23q0 .62.48.98t1.92.68l.62.14q1.91.41 2.71 1.16.82.74.82 2.08 0 1.52-1.22 2.41-1.2.89-3.31.89-.88 0-1.83-.18-.95-.16-2-.51v-1.85q.99.52 1.96.78.97.25 1.91.25 1.27 0 1.96-.43.68-.43.68-1.23 0-.73-.5-1.12-.49-.39-2.16-.75l-.62-.15q-1.67-.35-2.41-1.07-.75-.73-.75-2 0-1.55 1.1-2.39 1.09-.84 3.1-.84 1 0 1.88.15t1.62.44m-12.52-.32h1.8v10.93h-1.8zm0-4.26h1.8v2.28h-1.8zm-1.9 5.94q-.31-.18-.67-.26-.35-.1-.78-.1-1.52 0-2.34.99-.81.99-.81 2.84v5.76h-1.81v-10.93h1.81v1.7q.56-1 1.47-1.48.91-.49 2.21-.49h.41q.22 0 .5.1v1.85zm-14.33-.42q-1.45 0-2.29 1.13-.84 1.12-.84 3.09 0 1.96.83 3.09.84 1.12 2.3 1.12 1.43 0 2.27-1.13t.84-3.08-.84-3.08q-.84-1.14-2.27-1.14m0-1.53q2.34 0 3.68 1.53 1.34 1.52 1.34 4.22 0 2.68-1.34 4.21t-3.68 1.53q-2.35 0-3.69-1.53-1.33-1.53-1.33-4.21 0-2.7 1.33-4.22 1.34-1.53 3.69-1.53m-9.08 5.75q0-1.99-.82-3.11-.81-1.13-2.24-1.13t-2.25 1.13q-.81 1.12-.81 3.11 0 1.98.81 3.11.82 1.12 2.25 1.12t2.24-1.12q.82-1.13.82-3.11m-6.12-3.82q.57-.98 1.43-1.45.87-.48 2.07-.48 1.99 0 3.23 1.59 1.25 1.58 1.25 4.16 0 2.57-1.25 4.16-1.24 1.58-3.23 1.58-1.2 0-2.07-.47-.86-.48-1.43-1.46v1.64h-1.8v-15.19h1.8zm-9.03 3.78q-2.18 0-3.02.49-.84.5-.84 1.7 0 .96.63 1.53.63.55 1.72.55 1.49 0 2.39-1.05.91-1.06.91-2.82v-.4zm3.58-.75v6.24H303v-1.66q-.62 1-1.54 1.48-.91.47-2.24.47-1.68 0-2.68-.94-.98-.95-.98-2.53 0-1.84 1.23-2.78 1.24-.94 3.69-.94H303v-.18q0-1.24-.82-1.91-.81-.68-2.29-.68-.93 0-1.82.22-.89.23-1.71.68v-1.66q.98-.39 1.91-.57.93-.2 1.81-.2 2.37 0 3.54 1.23t1.17 3.73m-14.1-8.95h1.8v15.19h-1.8zm-14.35 5.52q-1.45 0-2.29 1.13-.84 1.12-.84 3.09 0 1.96.83 3.09.84 1.12 2.3 1.12 1.43 0 2.27-1.13t.84-3.08-.84-3.08q-.84-1.14-2.27-1.14m0-1.53q2.34 0 3.68 1.53 1.34 1.52 1.34 4.22 0 2.68-1.34 4.21t-3.68 1.53q-2.36 0-3.69-1.53t-1.33-4.21q0-2.7 1.33-4.22 1.33-1.53 3.69-1.53m-7.38.69v1.68q-.77-.42-1.54-.63-.76-.21-1.54-.21-1.75 0-2.72 1.11-.96 1.1-.96 3.11 0 2 .96 3.11.97 1.1 2.72 1.1.78 0 1.54-.2.77-.22 1.54-.64v1.67q-.76.35-1.57.52-.8.18-1.71.18-2.47 0-3.92-1.55-1.46-1.56-1.46-4.19 0-2.68 1.47-4.21 1.47-1.54 4.03-1.54.83 0 1.62.18.79.17 1.54.51m-18.85 1.68q.67-1.21 1.61-1.79t2.21-.58q1.7 0 2.63 1.2t.93 3.4v6.6h-1.81v-6.54q0-1.57-.55-2.33-.56-.76-1.7-.76-1.4 0-2.21.92-.81.93-.81 2.53v6.18h-1.81v-6.54q0-1.58-.55-2.33-.56-.76-1.72-.76-1.38 0-2.19.93t-.81 2.52v6.18h-1.81V234h1.81v1.7q.62-1.01 1.47-1.49.86-.48 2.05-.48t2.02.61q.84.6 1.24 1.76m-15.81 3.34q-2.18 0-3.02.49-.84.5-.84 1.7 0 .96.62 1.53.64.55 1.72.55 1.5 0 2.4-1.05.9-1.06.9-2.82v-.4zm3.58-.75v6.24h-1.8v-1.66q-.61 1-1.53 1.48-.92.47-2.25.47-1.68 0-2.67-.94-.99-.95-.99-2.53 0-1.84 1.23-2.78 1.24-.94 3.69-.94h2.52v-.18q0-1.24-.82-1.91-.81-.68-2.28-.68-.94 0-1.83.22-.89.23-1.71.68v-1.66q.99-.39 1.92-.57.93-.2 1.8-.2 2.38 0 3.55 1.23t1.17 3.73m-14.1-8.95h1.8v15.19h-1.8zm-5.55 0h1.8v15.19h-1.8zm-12.88 10.88V234h1.8v6.55q0 1.55.6 2.33.61.78 1.82.78 1.46 0 2.3-.93t.84-2.53V234h1.8v10.93h-1.8v-1.67q-.65.99-1.52 1.48-.86.48-2 .48-1.89 0-2.86-1.17-.98-1.18-.98-3.43m193.67-27.29v6.6h-1.79v-6.54q0-1.55-.61-2.32-.6-.77-1.82-.77-1.45 0-2.29.92-.84.93-.84 2.53v6.18h-1.81V209h1.81v1.7q.64-.99 1.51-1.48.88-.49 2.03-.49 1.88 0 2.85 1.18.96 1.16.96 3.42m-17.08-3.07q-1.44 0-2.28 1.13-.84 1.12-.84 3.09 0 1.96.83 3.09.84 1.12 2.29 1.12 1.44 0 2.28-1.13t.84-3.08-.84-3.08q-.84-1.14-2.28-1.14m0-1.53q2.35 0 3.68 1.53 1.34 1.52 1.34 4.22 0 2.68-1.34 4.21-1.33 1.53-3.68 1.53t-3.69-1.53q-1.33-1.53-1.33-4.21 0-2.7 1.33-4.22 1.34-1.53 3.69-1.53m-9.78.27h1.8v10.93h-1.8zm0-4.26h1.8v2.28h-1.8zm-6.08 1.15V209h3.71v1.39h-3.71v5.94q0 1.34.37 1.72t1.49.38h1.85v1.5h-1.85q-2.08 0-2.87-.77-.79-.78-.79-2.83v-5.94h-1.32V209h1.32v-3.11zm-9.07 8.55q-2.18 0-3.02.49-.84.5-.84 1.7 0 .96.63 1.53.63.55 1.72.55 1.49 0 2.39-1.05.91-1.06.91-2.82v-.4zm3.59-.75v6.24h-1.8v-1.66q-.62 1-1.53 1.48-.92.47-2.25.47-1.68 0-2.68-.94-.98-.95-.98-2.53 0-1.84 1.23-2.78 1.24-.94 3.69-.94h2.52v-.18q0-1.24-.82-1.91-.81-.68-2.29-.68-.93 0-1.82.22-.89.23-1.71.68v-1.66q.98-.39 1.91-.57.93-.2 1.81-.2 2.37 0 3.54 1.23 1.18 1.23 1.18 3.73m-14.63-7.8V209h3.7v1.39h-3.7v5.94q0 1.34.36 1.72.37.38 1.49.38h1.85v1.5h-1.85q-2.08 0-2.87-.77-.79-.78-.79-2.83v-5.94h-1.32V209h1.32v-3.11zm-7.33 3.11h1.8v10.93h-1.8zm0-4.26h1.8v2.28h-1.8zm-3.14 4.68v1.68q-.76-.42-1.54-.63-.76-.21-1.54-.21-1.75 0-2.71 1.11-.97 1.1-.97 3.11 0 2 .97 3.11.96 1.1 2.71 1.1.78 0 1.54-.2.78-.22 1.54-.64v1.67q-.75.35-1.56.52-.81.18-1.71.18-2.47 0-3.93-1.55-1.45-1.56-1.45-4.19 0-2.68 1.46-4.21 1.48-1.54 4.03-1.54.83 0 1.62.18.8.17 1.54.51m-9.35 1.26q-.3-.18-.66-.26-.35-.1-.78-.1-1.53 0-2.35.99-.81.99-.81 2.84v5.76h-1.8v-10.93h1.8v1.7q.57-1 1.48-1.48.91-.49 2.2-.49h.41q.23 0 .5.1v1.85zm-9.28 3.34v.88h-8.27q.12 1.85 1.12 2.83 1 .96 2.79.96 1.03 0 2-.25.98-.25 1.94-.76v1.7q-.97.41-1.99.62-1.01.22-2.06.22-2.61 0-4.15-1.53-1.52-1.52-1.52-4.12 0-2.68 1.44-4.25 1.46-1.59 3.92-1.59 2.21 0 3.49 1.43 1.29 1.42 1.29 3.86m-1.8-.53q0-1.47-.83-2.35-.8-.88-2.13-.88-1.5 0-2.41.85-.9.85-1.04 2.39h6.41zm-9.68-4.49-3.95 5.32 4.16 5.61h-2.12l-3.19-4.29-3.18 4.29h-2.12l4.25-5.72-3.89-5.21h2.12l2.9 3.89 2.9-3.89zm-11.69 5.02v.88h-8.26q.12 1.85 1.11 2.83 1.01.96 2.8.96 1.03 0 2-.25t1.93-.76v1.7q-.97.41-1.98.62-1.02.22-2.06.22-2.62 0-4.15-1.53-1.53-1.52-1.53-4.12 0-2.68 1.45-4.25 1.45-1.59 3.92-1.59 2.2 0 3.48 1.43 1.29 1.42 1.29 3.86m-1.8-.53q0-1.47-.83-2.35-.8-.88-2.12-.88-1.51 0-2.42.85-.9.85-1.03 2.39h6.4zm-19.42-2.83v-5.92h1.8v15.19h-1.8v-1.64q-.57.98-1.44 1.46-.85.47-2.07.47-1.98 0-3.23-1.58-1.24-1.59-1.24-4.16 0-2.58 1.24-4.16 1.25-1.59 3.23-1.59 1.22 0 2.07.48.87.47 1.44 1.45m-6.12 3.82q0 1.98.81 3.11.82 1.12 2.24 1.12 1.43 0 2.25-1.12.82-1.13.82-3.11 0-1.99-.82-3.11-.82-1.13-2.25-1.13-1.42 0-2.24 1.13-.81 1.12-.81 3.11m-13.96 1.14V209h1.8v6.55q0 1.55.6 2.33.61.78 1.82.78 1.46 0 2.3-.93.85-.93.85-2.53V209h1.79v10.93h-1.79v-1.67q-.66.99-1.53 1.48-.86.48-2 .48-1.88 0-2.86-1.17-.98-1.18-.98-3.43m-1.72-4.94q-.3-.18-.66-.26-.35-.1-.78-.1-1.53 0-2.35.99-.81.99-.81 2.84v5.76h-1.8v-10.93h1.8v1.7q.57-1 1.48-1.48.91-.49 2.21-.49h.41q.22 0 .49.1v1.85zm-12.41-4.79V209h3.7v1.39h-3.7v5.94q0 1.34.36 1.72.37.38 1.5.38h1.84v1.5h-1.84q-2.08 0-2.87-.77-.8-.78-.8-2.83v-5.94h-1.31V209h1.31v-3.11zm-5.23 3.43v1.7q-.76-.39-1.58-.59-.83-.19-1.7-.19-1.34 0-2.02.41-.66.41-.66 1.23 0 .62.48.98t1.92.68l.62.14q1.91.41 2.71 1.16.81.74.81 2.08 0 1.52-1.21 2.41-1.2.89-3.31.89-.88 0-1.83-.18-.95-.16-2.01-.51v-1.85q1 .52 1.97.78.96.25 1.91.25 1.27 0 1.95-.43.69-.43.69-1.23 0-.73-.5-1.12-.49-.39-2.16-.75l-.62-.15q-1.67-.35-2.42-1.07-.74-.73-.74-2 0-1.55 1.1-2.39 1.09-.84 3.1-.84 1 0 1.88.15.87.15 1.62.44m-14.96.94q-1.45 0-2.29 1.13-.84 1.12-.84 3.09 0 1.96.83 3.09.84 1.12 2.3 1.12 1.43 0 2.27-1.13t.84-3.08-.84-3.08q-.84-1.14-2.27-1.14m0-1.53q2.34 0 3.68 1.53 1.34 1.52 1.34 4.22 0 2.68-1.34 4.21t-3.68 1.53q-2.36 0-3.7-1.53-1.32-1.53-1.32-4.21 0-2.7 1.32-4.22 1.34-1.53 3.7-1.53m-7.85 4.6v6.6h-1.79v-6.54q0-1.55-.61-2.32-.6-.77-1.81-.77-1.46 0-2.3.92-.84.93-.84 2.53v6.18h-1.81V209h1.81v1.7q.65-.99 1.51-1.48.88-.49 2.03-.49 1.88 0 2.85 1.18.96 1.16.96 3.42m186.89-29.01v1.7q-.76-.39-1.58-.59-.82-.19-1.7-.19-1.34 0-2.01.41t-.67 1.23q0 .62.48.98t1.92.68l.62.14q1.91.41 2.71 1.16.82.74.82 2.08 0 1.52-1.22 2.41-1.2.89-3.31.89-.88 0-1.83-.18-.95-.16-2-.51v-1.85q.99.52 1.96.78.97.25 1.91.25 1.27 0 1.96-.43.68-.43.68-1.23 0-.73-.5-1.12-.49-.39-2.16-.75l-.62-.15q-1.67-.35-2.41-1.07-.75-.73-.75-2 0-1.55 1.1-2.39 1.09-.84 3.1-.84 1 0 1.88.15t1.62.44M384.6 184h1.8v10.93h-1.8zm0-4.26h1.8v2.28h-1.8zm-12.88 10.88V184h1.8v6.55q0 1.55.6 2.33.61.78 1.82.78 1.45 0 2.29-.93.85-.93.85-2.53V184h1.8v10.93h-1.8v-1.67q-.65.99-1.52 1.48-.86.48-2 .48-1.89 0-2.86-1.17-.98-1.18-.98-3.43m-11.44-1.14q0 1.98.81 3.11.82 1.12 2.25 1.12t2.25-1.12q.82-1.13.82-3.11 0-1.99-.82-3.11-.82-1.13-2.25-1.13t-2.25 1.13q-.81 1.12-.81 3.11m6.13 3.81q-.57.98-1.44 1.46-.86.47-2.07.47-1.98 0-3.23-1.58-1.24-1.59-1.24-4.16 0-2.58 1.24-4.16 1.25-1.59 3.23-1.59 1.21 0 2.07.48.87.47 1.44 1.45V184h1.79v15.1h-1.79zm-19.48-.84h2.06v1.68l-1.6 3.13h-1.26l.8-3.13zm-11.43-6.35q.67-1.21 1.61-1.79t2.21-.58q1.71 0 2.63 1.2.93 1.2.93 3.4v6.6h-1.81v-6.54q0-1.57-.55-2.33-.56-.76-1.7-.76-1.4 0-2.21.92-.81.93-.81 2.53v6.18h-1.81v-6.54q0-1.58-.55-2.33-.56-.76-1.72-.76-1.38 0-2.19.93t-.81 2.52v6.18h-1.81V184h1.81v1.7q.62-1.01 1.48-1.49.85-.48 2.04-.48t2.02.61q.84.6 1.24 1.76m-15.81 3.34q-2.18 0-3.02.49-.84.5-.84 1.7 0 .96.63 1.53.63.55 1.71.55 1.5 0 2.4-1.05.9-1.06.9-2.82v-.4zm3.58-.75v6.24h-1.8v-1.66q-.61 1-1.53 1.48-.92.47-2.24.47-1.68 0-2.68-.94-.99-.95-.99-2.53 0-1.84 1.23-2.78 1.24-.94 3.7-.94h2.51v-.18q0-1.24-.82-1.91-.81-.68-2.28-.68-.94 0-1.83.22-.89.23-1.71.68v-1.66q.99-.39 1.92-.57.93-.2 1.8-.2 2.38 0 3.55 1.23t1.17 3.73m-14.1-4.69h1.8v10.93h-1.8zm0-4.26h1.8v2.28h-1.8zm-3.6 8.59v6.6h-1.8v-6.54q0-1.55-.61-2.32-.6-.77-1.81-.77-1.46 0-2.3.92-.84.93-.84 2.53v6.18h-1.8V184h1.8v1.7q.65-.99 1.52-1.48.88-.49 2.02-.49 1.88 0 2.85 1.18.97 1.16.97 3.42m-12.04.69v.88h-8.27q.12 1.85 1.12 2.83 1 .96 2.79.96 1.04 0 2-.25.98-.25 1.94-.76v1.7q-.97.41-1.99.62-1.01.22-2.06.22-2.61 0-4.15-1.53-1.52-1.52-1.52-4.12 0-2.68 1.44-4.25 1.46-1.59 3.92-1.59 2.21 0 3.49 1.43 1.29 1.42 1.29 3.86m-1.8-.53q0-1.47-.83-2.35-.8-.88-2.13-.88-1.5 0-2.41.85-.9.85-1.04 2.39h6.41zM271.04 184h1.91l3.42 9.18 3.42-9.18h1.9l-4.1 10.93h-2.44zm-16.05 2.1q.67-1.21 1.61-1.79t2.21-.58q1.71 0 2.64 1.2.92 1.2.92 3.4v6.6h-1.8v-6.54q0-1.57-.56-2.33t-1.7-.76q-1.4 0-2.21.92-.81.93-.81 2.53v6.18h-1.8v-6.54q0-1.58-.56-2.33-.56-.76-1.72-.76-1.38 0-2.19.93t-.81 2.52v6.18h-1.8V184h1.8v1.7q.62-1.01 1.48-1.49t2.04-.48q1.19 0 2.02.61.84.6 1.24 1.76m-14.06-2.1h1.79v10.93h-1.79zm0-4.26h1.79v2.28h-1.79zm-3.61 8.59v6.6h-1.79v-6.54q0-1.55-.61-2.32-.6-.77-1.81-.77-1.46 0-2.3.92-.84.93-.84 2.53v6.18h-1.81V184h1.81v1.7q.65-.99 1.51-1.48.88-.49 2.03-.49 1.88 0 2.85 1.18.96 1.16.96 3.42M222.69 184h1.79v10.93h-1.79zm0-4.26h1.79v2.28h-1.79zm-10.98 6.36q.67-1.21 1.61-1.79t2.21-.58q1.71 0 2.63 1.2.93 1.2.93 3.4v6.6h-1.8v-6.54q0-1.57-.56-2.33t-1.7-.76q-1.4 0-2.21.92-.81.93-.81 2.53v6.18h-1.8v-6.54q0-1.58-.56-2.33-.56-.76-1.72-.76-1.38 0-2.19.93t-.81 2.52v6.18h-1.81V184h1.81v1.7q.62-1.01 1.48-1.49t2.04-.48q1.19 0 2.02.61.84.6 1.24 1.76m214.56-25.44v-5.92h1.8v15.19h-1.8v-1.64q-.57.98-1.44 1.46-.86.47-2.07.47-1.98 0-3.23-1.58-1.24-1.59-1.24-4.16 0-2.58 1.24-4.16 1.25-1.59 3.23-1.59 1.21 0 2.07.48.87.47 1.44 1.45m-6.12 3.82q0 1.98.81 3.11.82 1.12 2.24 1.12 1.43 0 2.25-1.12.82-1.13.82-3.11 0-1.99-.82-3.11-.82-1.13-2.25-1.13-1.42 0-2.24 1.13-.81 1.12-.81 3.11m-8.37 0q-2.18 0-3.02.49-.84.5-.84 1.7 0 .96.62 1.53.64.55 1.72.55 1.5 0 2.4-1.05.9-1.06.9-2.82v-.4zm3.58-.75v6.24h-1.8v-1.66q-.61 1-1.53 1.48-.92.47-2.24.47-1.68 0-2.68-.94-.99-.95-.99-2.53 0-1.84 1.23-2.78 1.24-.94 3.69-.94h2.52v-.18q0-1.24-.82-1.91-.81-.68-2.28-.68-.94 0-1.83.22-.89.23-1.71.68v-1.66q.99-.39 1.92-.57.93-.2 1.8-.2 2.38 0 3.55 1.23t1.17 3.73m-25.9-2.59q.68-1.21 1.61-1.79.94-.58 2.21-.58 1.71 0 2.64 1.2t.93 3.4v6.6h-1.81v-6.54q0-1.57-.56-2.33-.55-.76-1.7-.76-1.39 0-2.2.92-.81.93-.81 2.53v6.18h-1.81v-6.54q0-1.58-.56-2.33-.55-.76-1.72-.76-1.37 0-2.18.93t-.81 2.52v6.18h-1.81v-10.93h1.81v1.7q.61-1.01 1.47-1.49t2.04-.48q1.19 0 2.02.61.84.6 1.24 1.76m-14.06-2.1h1.8v10.93h-1.8zm0-4.26h1.8v2.28h-1.8zm-3.6 8.59v6.6H370v-6.54q0-1.55-.61-2.32-.6-.77-1.81-.77-1.46 0-2.3.92-.84.93-.84 2.53v6.18h-1.8v-10.93h1.8v1.7q.65-.99 1.52-1.48.88-.49 2.02-.49 1.88 0 2.85 1.18.97 1.16.97 3.42m-12.04.69v.88h-8.27q.12 1.85 1.12 2.83 1 .96 2.79.96 1.04 0 2-.25.98-.25 1.94-.76v1.7q-.97.41-1.99.62-1.01.22-2.06.22-2.61 0-4.15-1.53-1.52-1.52-1.52-4.12 0-2.68 1.44-4.25 1.46-1.59 3.92-1.59 2.21 0 3.49 1.43 1.29 1.42 1.29 3.86m-1.8-.53q0-1.47-.83-2.35-.8-.88-2.13-.88-1.5 0-2.41.85-.9.85-1.04 2.39h6.41zm-20-7.6v3.11h3.7v1.39h-3.7v5.94q0 1.34.36 1.72.37.38 1.49.38h1.85v1.5h-1.85q-2.08 0-2.87-.77-.79-.78-.79-2.83v-5.94h-1.32v-1.39h1.32v-3.11zm-16.57-.54h1.98v8.86q0 2.35.85 3.38t2.75 1.03 2.75-1.03.85-3.38v-8.86h1.98v9.11q0 2.85-1.42 4.3-1.4 1.46-4.16 1.46t-4.18-1.46q-1.4-1.45-1.4-4.3zm-12.34 12.1h2.06v2.48h-2.06zm-7.55-3.01q-2.17 0-3.01.49-.84.5-.84 1.7 0 .96.62 1.53.64.55 1.72.55 1.49 0 2.39-1.05.91-1.06.91-2.82v-.4zm3.59-.75v6.24h-1.8v-1.66q-.61 1-1.53 1.48-.92.47-2.25.47-1.68 0-2.67-.94-.99-.95-.99-2.53 0-1.84 1.23-2.78 1.24-.94 3.69-.94h2.52v-.18q0-1.24-.82-1.91-.81-.68-2.28-.68-.94 0-1.83.22-.89.23-1.71.68v-1.66q.99-.39 1.91-.57.93-.2 1.81-.2 2.37 0 3.55 1.23 1.17 1.23 1.17 3.73m-21.44 1.93v-6.62h1.8v6.55q0 1.55.6 2.33.61.78 1.82.78 1.46 0 2.3-.93.85-.93.85-2.53v-6.2h1.79v10.93h-1.79v-1.67q-.66.99-1.53 1.48-.86.48-2 .48-1.88 0-2.86-1.17-.98-1.18-.98-3.43m-11.43-1.14q0 1.98.81 3.11.82 1.12 2.24 1.12 1.43 0 2.25-1.12.82-1.13.82-3.11 0-1.99-.82-3.11-.82-1.13-2.25-1.13-1.42 0-2.24 1.13-.81 1.12-.81 3.11m6.12 3.81q-.57.98-1.44 1.46-.86.47-2.07.47-1.98 0-3.23-1.58-1.24-1.59-1.24-4.16 0-2.58 1.24-4.16 1.25-1.59 3.23-1.59 1.21 0 2.07.48.87.47 1.44 1.45v-1.66h1.8v15.1h-1.8zm-12.74-9.29h1.79v10.93h-1.79zm0-4.26h1.79v2.28h-1.79zm-5.55 0h1.8v15.19h-1.8zm-7.3 9.7q-2.17 0-3.01.49-.84.5-.84 1.7 0 .96.62 1.53.64.55 1.72.55 1.49 0 2.39-1.05.91-1.06.91-2.82v-.4zm3.59-.75v6.24h-1.8v-1.66q-.61 1-1.53 1.48-.92.47-2.25.47-1.68 0-2.67-.94-.99-.95-.99-2.53 0-1.84 1.23-2.78 1.24-.94 3.69-.94h2.52v-.18q0-1.24-.82-1.91-.81-.68-2.28-.68-.94 0-1.83.22-.89.23-1.71.68v-1.66q.99-.39 1.91-.57.93-.2 1.81-.2 2.37 0 3.55 1.23 1.17 1.23 1.17 3.73m-22.22.75q-2.18 0-3.02.49-.84.5-.84 1.7 0 .96.63 1.53.63.55 1.72.55 1.49 0 2.39-1.05.91-1.06.91-2.82v-.4zm3.59-.75v6.24h-1.8v-1.66q-.62 1-1.54 1.48-.91.47-2.24.47-1.68 0-2.68-.94-.98-.95-.98-2.53 0-1.84 1.23-2.78 1.24-.94 3.69-.94h2.52v-.18q0-1.24-.82-1.91-.81-.68-2.29-.68-.93 0-1.82.22-.89.23-1.71.68v-1.66q.98-.39 1.91-.57.93-.2 1.81-.2 2.37 0 3.54 1.23 1.18 1.23 1.18 3.73m-12.16-.36v6.6h-1.8v-6.54q0-1.55-.61-2.32-.6-.77-1.81-.77-1.46 0-2.3.92-.84.93-.84 2.53v6.18h-1.8v-10.93h1.8v1.7q.65-.99 1.52-1.48.88-.49 2.02-.49 1.88 0 2.85 1.18.97 1.16.97 3.42m-14.59 1.01q0-1.95-.81-3.03-.8-1.07-2.26-1.07-1.44 0-2.26 1.07-.8 1.08-.8 3.03 0 1.94.8 3.02.82 1.07 2.26 1.07 1.46 0 2.26-1.07.81-1.08.81-3.02m1.79 4.24q0 2.79-1.24 4.15-1.24 1.37-3.8 1.37-.94 0-1.78-.15-.84-.14-1.63-.43v-1.75q.79.43 1.56.64.77.2 1.57.2 1.77 0 2.65-.93.88-.91.88-2.78v-.89q-.56.97-1.43 1.45-.87.47-2.08.47-2.01 0-3.24-1.53t-1.23-4.06q0-2.54 1.23-4.07 1.23-1.54 3.24-1.54 1.21 0 2.08.48t1.43 1.45v-1.66h1.79zm-16.29-4.14q-2.17 0-3.01.49-.84.5-.84 1.7 0 .96.62 1.53.64.55 1.72.55 1.5 0 2.39-1.05.91-1.06.91-2.82v-.4zm3.59-.75v6.24h-1.8v-1.66q-.61 1-1.53 1.48-.92.47-2.25.47-1.68 0-2.67-.94-.99-.95-.99-2.53 0-1.84 1.23-2.78 1.24-.94 3.69-.94h2.52v-.18q0-1.24-.82-1.91-.81-.68-2.28-.68-.94 0-1.83.22-.89.23-1.71.68v-1.66q.99-.39 1.92-.57.92-.2 1.8-.2 2.38 0 3.55 1.23t1.17 3.73m-19.53-2.59q.67-1.21 1.61-1.79t2.21-.58q1.7 0 2.63 1.2t.93 3.4v6.6h-1.81v-6.54q0-1.57-.55-2.33-.56-.76-1.7-.76-1.4 0-2.21.92-.81.93-.81 2.53v6.18h-1.81v-6.54q0-1.58-.55-2.33-.56-.76-1.72-.76-1.38 0-2.19.93t-.81 2.52v6.18h-1.81v-10.93h1.81v1.7q.62-1.01 1.47-1.49.86-.48 2.05-.48t2.02.61q.84.6 1.24 1.76m294.57-22.08v.88h-8.26q.11 1.85 1.11 2.83 1.01.96 2.79.96 1.04 0 2-.25.98-.25 1.94-.76v1.7q-.97.41-1.98.62-1.02.22-2.07.22-2.61 0-4.15-1.53-1.52-1.52-1.52-4.12 0-2.68 1.45-4.25 1.45-1.59 3.91-1.59 2.21 0 3.49 1.43 1.29 1.42 1.29 3.86m-1.8-.53q0-1.47-.83-2.35-.8-.88-2.13-.88-1.5 0-2.41.85-.9.85-1.04 2.39h6.41zm-9.03-2.81q-.3-.18-.67-.26-.35-.1-.78-.1-1.52 0-2.34.99-.81.99-.81 2.84v5.76h-1.81v-10.93h1.81v1.7q.56-1 1.47-1.48.91-.49 2.21-.49h.41q.22 0 .5.1v1.85zm-14.33-.42q-1.44 0-2.28 1.13-.84 1.12-.84 3.09 0 1.96.83 3.09.84 1.12 2.29 1.12 1.44 0 2.28-1.13t.84-3.08-.84-3.08q-.84-1.14-2.28-1.14m0-1.53q2.35 0 3.68 1.53 1.34 1.52 1.34 4.22 0 2.68-1.34 4.21-1.33 1.53-3.68 1.53t-3.69-1.53q-1.33-1.53-1.33-4.21 0-2.7 1.33-4.22 1.34-1.53 3.69-1.53m-9.78-3.99h1.79v15.19h-1.79zm-7.99 5.52q-1.45 0-2.29 1.13-.84 1.12-.84 3.09 0 1.96.83 3.09.84 1.12 2.3 1.12 1.43 0 2.27-1.13t.84-3.08-.84-3.08q-.84-1.14-2.27-1.14m0-1.53q2.34 0 3.68 1.53 1.34 1.52 1.34 4.22 0 2.68-1.34 4.21t-3.68 1.53q-2.36 0-3.69-1.53t-1.33-4.21q0-2.7 1.33-4.22 1.33-1.53 3.69-1.53m-9.74 1.93v-5.92h1.8v15.19h-1.8v-1.64q-.56.98-1.43 1.46-.86.47-2.07.47-1.99 0-3.24-1.58-1.24-1.59-1.24-4.16 0-2.58 1.24-4.16 1.25-1.59 3.24-1.59 1.21 0 2.07.48.87.47 1.43 1.45m-6.12 3.82q0 1.98.81 3.11.82 1.12 2.25 1.12 1.42 0 2.24-1.12.82-1.13.82-3.11 0-1.99-.82-3.11-.82-1.13-2.24-1.13-1.43 0-2.25 1.13-.81 1.12-.81 3.11m-13.52-8.59v3.11h3.7v1.39h-3.7v5.94q0 1.34.36 1.72.38.38 1.5.38h1.84v1.5h-1.84q-2.08 0-2.87-.77-.79-.78-.79-2.83v-5.94h-1.32v-1.39h1.32v-3.11zm-4.72 8.13v.88h-8.27q.12 1.85 1.12 2.83 1 .96 2.79.96 1.04 0 2-.25.98-.25 1.94-.76v1.7q-.97.41-1.99.62-1.01.22-2.06.22-2.61 0-4.15-1.53-1.52-1.52-1.52-4.12 0-2.68 1.45-4.25 1.45-1.59 3.91-1.59 2.21 0 3.49 1.43 1.29 1.42 1.29 3.86m-1.8-.53q0-1.47-.83-2.35-.8-.88-2.13-.88-1.5 0-2.41.85-.9.85-1.04 2.39h6.41zm-16.88.53v.88h-8.26q.12 1.85 1.12 2.83 1 .96 2.79.96 1.03 0 2-.25.98-.25 1.93-.76v1.7q-.96.41-1.98.62-1.01.22-2.06.22-2.62 0-4.15-1.53-1.52-1.52-1.52-4.12 0-2.68 1.44-4.25 1.46-1.59 3.92-1.59 2.21 0 3.49 1.43 1.28 1.42 1.28 3.86m-1.79-.53q0-1.47-.83-2.35-.8-.88-2.13-.88-1.51 0-2.41.85t-1.04 2.39h6.41zm-9.04-2.81q-.3-.18-.66-.26-.35-.1-.78-.1-1.52 0-2.34.99-.81.99-.81 2.84v5.76h-1.81v-10.93h1.81v1.7q.56-1 1.47-1.48.91-.49 2.21-.49h.41q.22 0 .49.1v1.85zm-14.32-.42q-1.45 0-2.29 1.13-.84 1.12-.84 3.09 0 1.96.83 3.09.84 1.12 2.3 1.12 1.43 0 2.27-1.13t.84-3.08-.84-3.08q-.84-1.14-2.27-1.14m0-1.53q2.34 0 3.68 1.53 1.34 1.52 1.34 4.22 0 2.68-1.34 4.21t-3.68 1.53q-2.36 0-3.69-1.53t-1.33-4.21q0-2.7 1.33-4.22 1.33-1.53 3.69-1.53m-9.08 5.75q0-1.99-.82-3.11-.81-1.13-2.24-1.13t-2.25 1.13q-.81 1.12-.81 3.11 0 1.98.81 3.11.82 1.12 2.25 1.12t2.24-1.12q.82-1.13.82-3.11m-6.12-3.82q.57-.98 1.43-1.45.87-.48 2.07-.48 1.99 0 3.23 1.59 1.25 1.58 1.25 4.16 0 2.57-1.25 4.16-1.24 1.58-3.23 1.58-1.2 0-2.07-.47-.86-.48-1.43-1.46v1.64h-1.8v-15.19h1.8zm-9.03 3.78q-2.18 0-3.02.49-.84.5-.84 1.7 0 .96.63 1.53.63.55 1.72.55 1.49 0 2.39-1.05.91-1.06.91-2.82v-.4zm3.58-.75v6.24h-1.79v-1.66q-.62 1-1.54 1.48-.91.47-2.24.47-1.68 0-2.68-.94-.98-.95-.98-2.53 0-1.84 1.23-2.78 1.24-.94 3.69-.94h2.52v-.18q0-1.24-.82-1.91-.81-.68-2.29-.68-.94 0-1.82.22-.89.23-1.71.68v-1.66q.98-.39 1.91-.57.93-.2 1.81-.2 2.37 0 3.54 1.23t1.17 3.73m-14.1-8.95h1.8v15.19h-1.8zm-57.6 1.15v3.11h3.71v1.39h-3.71v5.94q0 1.34.37 1.72t1.49.38h1.85v1.5h-1.85q-2.08 0-2.87-.77-.79-.78-.79-2.83v-5.94h-1.32v-1.39h1.32v-3.11zm-14.65 9.73v-6.62h1.79v6.55q0 1.55.61 2.33.6.78 1.82.78 1.45 0 2.29-.93.85-.93.85-2.53v-6.2h1.8v10.93h-1.8v-1.67q-.65.99-1.52 1.48-.86.48-2.01.48-1.88 0-2.86-1.17-.97-1.18-.97-3.43m-12.26-9.73v3.11h3.7v1.39h-3.7v5.94q0 1.34.36 1.72.37.38 1.5.38h1.84v1.5h-1.84q-2.08 0-2.87-.77-.8-.78-.8-2.83v-5.94h-1.31v-1.39h1.31v-3.11zm-5.38 7.44v6.6h-1.8v-6.54q0-1.55-.6-2.32-.61-.77-1.82-.77-1.45 0-2.29.92-.84.93-.84 2.53v6.18h-1.81v-10.93h1.81v1.7q.64-.99 1.51-1.48.88-.49 2.02-.49 1.89 0 2.85 1.18.97 1.16.97 3.42m-21.97 2.29v-6.62h1.79v6.55q0 1.55.61 2.33.6.78 1.82.78 1.45 0 2.29-.93.85-.93.85-2.53v-6.2h1.8v10.93h-1.8v-1.67q-.65.99-1.52 1.48-.86.48-2 .48-1.89 0-2.87-1.17-.97-1.18-.97-3.43m-5.32-4.96v-5.92h1.8v15.19h-1.8v-1.64q-.56.98-1.43 1.46-.86.47-2.07.47-1.98 0-3.23-1.58-1.24-1.59-1.24-4.16 0-2.58 1.24-4.16 1.25-1.59 3.23-1.59 1.21 0 2.07.48.87.47 1.43 1.45m-6.12 3.82q0 1.98.81 3.11.82 1.12 2.25 1.12 1.42 0 2.24-1.12.82-1.13.82-3.11 0-1.99-.82-3.11-.82-1.13-2.24-1.13-1.43 0-2.25 1.13-.81 1.12-.81 3.11m-6.62-5.48h1.8v10.93h-1.8zm0-4.26h1.8v2.28h-1.8zm-5.5 5.92v-5.92h1.8v15.19h-1.8v-1.64q-.56.98-1.43 1.46-.86.47-2.07.47-1.99 0-3.24-1.58-1.24-1.59-1.24-4.16 0-2.58 1.24-4.16 1.25-1.59 3.24-1.59 1.21 0 2.07.48.87.47 1.43 1.45m-6.12 3.82q0 1.98.81 3.11.82 1.12 2.25 1.12 1.42 0 2.24-1.12.82-1.13.82-3.11 0-1.99-.82-3.11-.82-1.13-2.24-1.13-1.43 0-2.25 1.13-.81 1.12-.81 3.11m-6.62-5.48h1.8v10.93h-1.8zm0-4.26h1.8v2.28h-1.8zm-3.15 4.68v1.68q-.76-.42-1.53-.63-.76-.21-1.54-.21-1.75 0-2.72 1.11-.96 1.1-.96 3.11 0 2 .96 3.11.97 1.1 2.72 1.1.78 0 1.54-.2.77-.22 1.53-.64v1.67q-.75.35-1.56.52-.8.18-1.71.18-2.47 0-3.92-1.55-1.46-1.56-1.46-4.19 0-2.68 1.47-4.21 1.47-1.54 4.03-1.54.83 0 1.62.18.79.17 1.53.51m-11.47 3.91v6.6h-1.8v-6.54q0-1.55-.6-2.32-.61-.77-1.82-.77-1.45 0-2.29.92-.84.93-.84 2.53v6.18h-1.81v-10.93h1.81v1.7q.64-.99 1.51-1.48.88-.49 2.02-.49 1.89 0 2.85 1.18.97 1.16.97 3.42m-14.64-4.33h1.8v10.93h-1.8zm0-4.26h1.8v2.28h-1.8zm309.95-19.06q-.3-.18-.66-.26-.35-.1-.78-.1-1.53 0-2.35.99-.81.99-.81 2.84v5.76h-1.8v-10.93h1.8v1.7q.57-1 1.48-1.48.9-.49 2.2-.49h.41q.23 0 .5.1v1.85zm-14.32-.42q-1.45 0-2.29 1.13-.84 1.12-.84 3.09 0 1.96.83 3.09.84 1.12 2.3 1.12 1.43 0 2.27-1.13t.84-3.08-.84-3.08q-.84-1.14-2.27-1.14m0-1.53q2.34 0 3.68 1.53 1.34 1.52 1.34 4.22 0 2.68-1.34 4.21t-3.68 1.53q-2.36 0-3.7-1.53-1.32-1.53-1.32-4.21 0-2.7 1.32-4.22 1.34-1.53 3.7-1.53m-15.2 9.56v5.81h-1.81v-15.1h1.81v1.66q.57-.98 1.43-1.45.87-.48 2.07-.48 1.99 0 3.23 1.59 1.25 1.58 1.25 4.16 0 2.57-1.25 4.16-1.24 1.58-3.23 1.58-1.2 0-2.07-.47-.86-.48-1.43-1.46m6.11-3.81q0-1.99-.82-3.11-.81-1.13-2.23-1.13-1.43 0-2.25 1.13-.81 1.12-.81 3.11 0 1.98.81 3.11.82 1.12 2.25 1.12 1.42 0 2.23-1.12.82-1.13.82-3.11m-18.82-3.38q.67-1.21 1.61-1.79.93-.58 2.2-.58 1.71 0 2.64 1.2t.93 3.4v6.6h-1.81v-6.54q0-1.57-.56-2.33-.55-.76-1.69-.76-1.4 0-2.21.92-.81.93-.81 2.53v6.18h-1.81v-6.54q0-1.58-.56-2.33-.55-.76-1.71-.76-1.38 0-2.19.93t-.81 2.52v6.18h-1.81v-10.93H403v1.7q.61-1.01 1.47-1.49t2.04-.48q1.2 0 2.03.61.83.6 1.24 1.76m-11.47 2.92v.88h-8.26q.12 1.85 1.11 2.83 1.01.96 2.8.96 1.03 0 2-.25t1.93-.76v1.7q-.97.41-1.98.62-1.02.22-2.06.22-2.62 0-4.15-1.53-1.53-1.52-1.53-4.12 0-2.68 1.45-4.25 1.45-1.59 3.92-1.59 2.2 0 3.48 1.43 1.29 1.42 1.29 3.86m-1.8-.53q0-1.47-.83-2.35-.8-.88-2.13-.88-1.5 0-2.41.85-.9.85-1.03 2.39h6.4zm-13.63-7.6v3.11h3.7v1.39h-3.7v5.94q0 1.34.36 1.72.37.38 1.5.38h1.84v1.5h-1.84q-2.08 0-2.87-.77-.8-.78-.8-2.83v-5.94h-1.31v-1.39h1.31v-3.11zM260 110.7v-5.92h1.8v15.19H260v-1.64q-.57.98-1.44 1.46-.85.47-2.07.47-1.98 0-3.23-1.58-1.24-1.59-1.24-4.16 0-2.58 1.24-4.16 1.25-1.59 3.23-1.59 1.22 0 2.07.48.87.47 1.44 1.45m-6.12 3.82q0 1.98.81 3.11.82 1.12 2.24 1.12 1.43 0 2.25-1.12.82-1.13.82-3.11 0-1.99-.82-3.11-.82-1.13-2.25-1.13-1.42 0-2.24 1.13-.81 1.12-.81 3.11m-9.07-4.22q-1.44 0-2.28 1.13-.84 1.12-.84 3.09 0 1.96.83 3.09.84 1.12 2.29 1.12 1.44 0 2.28-1.13t.84-3.08-.84-3.08q-.84-1.14-2.28-1.14m0-1.53q2.35 0 3.69 1.53 1.33 1.52 1.33 4.22 0 2.68-1.33 4.21-1.34 1.53-3.69 1.53t-3.69-1.53q-1.33-1.53-1.33-4.21 0-2.7 1.33-4.22 1.34-1.53 3.69-1.53m-15.21 2.37q.67-1.21 1.61-1.79t2.21-.58q1.71 0 2.63 1.2.93 1.2.93 3.4v6.6h-1.8v-6.54q0-1.57-.56-2.33t-1.7-.76q-1.4 0-2.21.92-.81.93-.81 2.53v6.18h-1.8v-6.54q0-1.58-.56-2.33-.56-.76-1.72-.76-1.38 0-2.19.93t-.81 2.52v6.18h-1.8v-10.93h1.8v1.7q.62-1.01 1.48-1.49t2.04-.48q1.19 0 2.02.61.84.6 1.24 1.76m-11.97-1.78v1.7q-.76-.39-1.59-.59-.82-.19-1.69-.19-1.34 0-2.02.41-.66.41-.66 1.23 0 .62.48.98t1.92.68l.62.14q1.91.41 2.71 1.16.81.74.81 2.08 0 1.52-1.21 2.41-1.2.89-3.31.89-.88 0-1.83-.18-.95-.16-2.01-.51v-1.85q1 .52 1.97.78.96.25 1.91.25 1.27 0 1.95-.43.69-.43.69-1.23 0-.73-.5-1.12-.49-.39-2.16-.75l-.62-.15q-1.67-.35-2.42-1.07-.74-.73-.74-2 0-1.55 1.1-2.39 1.09-.84 3.1-.84 1 0 1.88.15.87.15 1.62.44m-19.86 6.3v-6.62h1.8v6.55q0 1.55.61 2.33.6.78 1.81.78 1.46 0 2.3-.93.85-.93.85-2.53v-6.2h1.79v10.93h-1.79v-1.67q-.66.99-1.53 1.48-.86.48-2 .48-1.88 0-2.86-1.17-.98-1.18-.98-3.43m-5.36-6.62h1.8v10.93h-1.8zm0-4.26h1.8v2.28h-1.8zm-2.95 9.28v.88h-8.26q.12 1.85 1.11 2.83 1.01.96 2.8.96 1.03 0 2-.25.98-.25 1.93-.76v1.7q-.96.41-1.98.62-1.02.22-2.06.22-2.62 0-4.15-1.53-1.52-1.52-1.52-4.12 0-2.68 1.44-4.25 1.46-1.59 3.92-1.59 2.2 0 3.48 1.43 1.29 1.42 1.29 3.86m-1.79-.53q0-1.47-.83-2.35-.8-.88-2.13-.88-1.51 0-2.42.85-.89.85-1.03 2.39h6.41zm-21.92-3.23q-1.44 0-2.28 1.13-.84 1.12-.84 3.09 0 1.96.83 3.09.84 1.12 2.29 1.12 1.44 0 2.28-1.13t.84-3.08-.84-3.08q-.84-1.14-2.28-1.14m0-1.53q2.35 0 3.68 1.53 1.34 1.52 1.34 4.22 0 2.68-1.34 4.21-1.33 1.53-3.68 1.53t-3.69-1.53q-1.33-1.53-1.33-4.21 0-2.7 1.33-4.22 1.34-1.53 3.69-1.53m-9.73 1.93v-5.92h1.79v15.19h-1.79v-1.64q-.57.98-1.44 1.46-.86.47-2.07.47-1.98 0-3.23-1.58-1.24-1.59-1.24-4.16 0-2.58 1.24-4.16 1.25-1.59 3.23-1.59 1.21 0 2.07.48.87.47 1.44 1.45m-6.13 3.82q0 1.98.81 3.11.82 1.12 2.25 1.12 1.42 0 2.25-1.12.82-1.13.82-3.11 0-1.99-.82-3.11-.83-1.13-2.25-1.13-1.43 0-2.25 1.13-.81 1.12-.81 3.11m-12.94-3.82v-5.92h1.8v15.19h-1.8v-1.64q-.56.98-1.43 1.46-.86.47-2.07.47-1.99 0-3.24-1.58-1.24-1.59-1.24-4.16 0-2.58 1.24-4.16 1.25-1.59 3.24-1.59 1.21 0 2.07.48.87.47 1.43 1.45m-6.12 3.82q0 1.98.81 3.11.82 1.12 2.25 1.12 1.42 0 2.24-1.12.82-1.13.82-3.11 0-1.99-.82-3.11-.82-1.13-2.24-1.13-1.43 0-2.25 1.13-.81 1.12-.81 3.11m-4.02-.46v.88h-8.27q.12 1.85 1.12 2.83 1 .96 2.79.96 1.04 0 2-.25.98-.25 1.94-.76v1.7q-.97.41-1.99.62-1.01.22-2.06.22-2.61 0-4.15-1.53-1.52-1.52-1.52-4.12 0-2.68 1.45-4.25 1.45-1.59 3.91-1.59 2.21 0 3.49 1.43 1.29 1.42 1.29 3.86m-1.8-.53q0-1.47-.83-2.35-.8-.88-2.13-.88-1.5 0-2.41.85-.9.85-1.04 2.39h6.41zm-11.02-4.17v1.7q-.76-.39-1.58-.59-.82-.19-1.7-.19-1.34 0-2.01.41-.66.41-.66 1.23 0 .62.48.98.47.36 1.92.68l.61.14q1.92.41 2.72 1.16.81.74.81 2.08 0 1.52-1.21 2.41-1.2.89-3.31.89-.88 0-1.84-.18-.94-.16-2-.51v-1.85q1 .52 1.96.78.97.25 1.92.25 1.27 0 1.95-.43t.68-1.23q0-.73-.49-1.12t-2.16-.75l-.63-.15q-1.67-.35-2.41-1.07-.74-.73-.74-2 0-1.55 1.09-2.39 1.1-.84 3.11-.84.99 0 1.87.15t1.62.44m391.69-16.865h2.06v1.679l-1.6 3.125h-1.26l.8-3.125zm-6.53-11.563v3.105h3.7v1.397h-3.7v5.937q0 1.338.36 1.719.37.381 1.5.381h1.84v1.504h-1.84q-2.08 0-2.88-.772-.79-.781-.79-2.832v-5.937h-1.31v-1.397h1.31v-3.105zm-7.32 3.105h1.79v10.938h-1.79zm0-4.257h1.79v2.275h-1.79zm-5.55 0h1.8v15.195h-1.8zm-2.95 9.277v.879h-8.26q.12 1.855 1.11 2.832 1.01.967 2.79.967 1.04 0 2.01-.254t1.93-.762v1.699q-.97.41-1.98.625-1.02.215-2.06.215-2.62 0-4.15-1.523-1.53-1.524-1.53-4.121 0-2.686 1.45-4.258 1.45-1.582 3.91-1.582 2.21 0 3.49 1.426 1.29 1.416 1.29 3.857m-1.8-.527q0-1.475-.83-2.354-.8-.879-2.13-.879-1.5 0-2.41.85-.9.849-1.03 2.392h6.4zm-19.42.849q0-1.953-.81-3.027-.8-1.074-2.26-1.074-1.44 0-2.25 1.074-.8 1.074-.8 3.027 0 1.944.8 3.018.81 1.074 2.25 1.074 1.46 0 2.26-1.074.81-1.074.81-3.018m1.8 4.239q0 2.793-1.24 4.15-1.24 1.367-3.8 1.367-.95 0-1.79-.146-.84-.137-1.63-.43v-1.748q.79.43 1.56.635t1.57.205q1.77 0 2.65-.928.88-.918.88-2.783v-.889q-.56.967-1.43 1.445t-2.08.479q-2.01 0-3.24-1.533t-1.23-4.063q0-2.539 1.23-4.072t3.24-1.533q1.21 0 2.08.478.87.479 1.43 1.446v-1.661h1.8zm-12.6-5.245v6.602h-1.8v-6.543q0-1.553-.6-2.324-.61-.772-1.82-.772-1.46 0-2.3.928-.83.928-.83 2.529v6.182h-1.81V84.037h1.81v1.7q.64-.987 1.51-1.475.88-.488 2.02-.488 1.88 0 2.85 1.172.97 1.162.97 3.427m-14.64-4.336h1.8v10.938h-1.8zm0-4.257h1.8v2.275h-1.8zm-3.14 4.677v1.68q-.77-.42-1.54-.625-.76-.215-1.54-.215-1.75 0-2.72 1.114-.96 1.103-.96 3.105t.96 3.115q.97 1.104 2.72 1.104.78 0 1.54-.205.77-.215 1.54-.635v1.66q-.76.352-1.57.527-.8.176-1.71.176-2.47 0-3.92-1.553-1.46-1.552-1.46-4.189 0-2.676 1.47-4.209t4.03-1.533q.83 0 1.62.176.79.166 1.54.507m-13.42-.42h1.79v10.938h-1.79zm0-4.257h1.79v2.275h-1.79zm-3.46 4.58v1.699q-.76-.391-1.58-.586t-1.7-.195q-1.34 0-2.01.41t-.67 1.23q0 .625.48.987.48.351 1.93.673l.61.137q1.91.41 2.72 1.162.81.743.81 2.08 0 1.524-1.21 2.413t-3.32.888q-.87 0-1.83-.176-.95-.166-2-.507v-1.856q.99.518 1.96.781.97.254 1.91.254 1.27 0 1.96-.429.68-.44.68-1.231 0-.732-.5-1.123-.49-.391-2.16-.752l-.62-.146q-1.67-.352-2.41-1.075-.74-.732-.74-2.002 0-1.543 1.09-2.382t3.1-.84q1 0 1.88.146.88.147 1.62.44m-12.52-.323h1.8v10.938h-1.8zm0-4.257h1.8v2.275h-1.8zm-10.96 13.554v5.801h-1.8V84.037h1.8v1.661q.57-.977 1.43-1.446.87-.478 2.07-.478 1.99 0 3.23 1.582 1.25 1.582 1.25 4.16t-1.25 4.16q-1.24 1.582-3.23 1.582-1.2 0-2.07-.469-.86-.478-1.43-1.455m6.12-3.818q0-1.982-.82-3.105-.81-1.133-2.24-1.133t-2.25 1.133q-.81 1.123-.81 3.105t.81 3.115q.82 1.123 2.25 1.123t2.24-1.123q.82-1.133.82-3.115m-13.4-5.479h1.8v10.938h-1.8zm0-4.257h1.8v2.275h-1.8zm-5.5 5.918V79.78h1.8v15.195h-1.8v-1.641q-.57.977-1.43 1.455-.86.469-2.08.469-1.98 0-3.23-1.582-1.24-1.582-1.24-4.16t1.24-4.16q1.25-1.582 3.23-1.582 1.22 0 2.08.478.86.469 1.43 1.446m-6.12 3.818q0 1.982.81 3.115.82 1.123 2.24 1.123 1.43 0 2.25-1.123.82-1.133.82-3.115t-.82-3.105q-.82-1.133-2.25-1.133-1.42 0-2.24 1.133-.81 1.123-.81 3.105m-8.37-.04q-2.18 0-3.02.498t-.84 1.699q0 .957.63 1.524.63.556 1.71.556 1.5 0 2.4-1.054.91-1.065.91-2.823v-.4zm3.58-.742v6.24h-1.79v-1.66q-.62.996-1.54 1.474-.92.469-2.24.469-1.68 0-2.68-.937-.99-.948-.99-2.53 0-1.845 1.23-2.783 1.24-.937 3.7-.937h2.52v-.176q0-1.24-.82-1.914-.82-.684-2.29-.684-.94 0-1.83.225-.88.224-1.71.674v-1.66q.99-.381 1.92-.567.93-.195 1.81-.195 2.37 0 3.54 1.23 1.17 1.231 1.17 3.731m-144.56-3.018q-.3-.176-.66-.254-.35-.09-.78-.09-1.53 0-2.35.996-.81.987-.81 2.842v5.762h-1.8V84.034h1.8v1.7q.57-.996 1.48-1.475.91-.488 2.2-.488.19 0 .41.03.23.02.5.07v1.846zm-19.22 4.942v-6.622h1.8v6.553q0 1.553.61 2.334.6.772 1.81.772 1.46 0 2.3-.928.85-.928.85-2.529v-6.202h1.79v10.938h-1.79v-1.68q-.66.996-1.53 1.485-.86.478-2 .478-1.88 0-2.86-1.172t-.98-3.427m-5.89-9.727v3.105h3.71v1.397h-3.71v5.937q0 1.338.37 1.719t1.49.381h1.85v1.504h-1.85q-2.08 0-2.87-.772-.79-.781-.79-2.832v-5.937h-1.32v-1.397h1.32v-3.105zm-4.72 8.125v.879h-8.26q.11 1.855 1.11 2.832 1.01.967 2.79.967 1.04 0 2-.254.98-.254 1.94-.762v1.699q-.97.41-1.98.625-1.02.215-2.07.215-2.61 0-4.15-1.523-1.52-1.524-1.52-4.121 0-2.686 1.45-4.258 1.45-1.582 3.91-1.582 2.21 0 3.49 1.426 1.29 1.416 1.29 3.857m-1.8-.527q0-1.475-.83-2.354-.8-.879-2.13-.879-1.5 0-2.41.85-.9.849-1.04 2.392h6.41zm-13.63-7.598v3.105h3.7v1.397h-3.7v5.937q0 1.338.36 1.719.37.381 1.49.381h1.85v1.504h-1.85q-2.08 0-2.87-.772-.79-.781-.79-2.832v-5.937h-1.32v-1.397h1.32v-3.105zm-4.92 3.525v1.68q-.77-.42-1.54-.625-.76-.215-1.54-.215-1.75 0-2.71 1.114-.97 1.103-.97 3.105t.97 3.115q.96 1.104 2.71 1.104.78 0 1.54-.205.77-.215 1.54-.635v1.66q-.76.352-1.57.527-.8.176-1.71.176-2.47 0-3.92-1.553-1.46-1.552-1.46-4.189 0-2.676 1.47-4.209t4.03-1.533q.83 0 1.62.176.79.166 1.54.507m-10.82 4.6v.879h-8.27q.12 1.855 1.12 2.832 1 .967 2.79.967 1.04 0 2-.254.98-.254 1.94-.762v1.699q-.97.41-1.99.625-1.01.215-2.06.215-2.61 0-4.15-1.523-1.52-1.524-1.52-4.121 0-2.686 1.44-4.258 1.46-1.582 3.92-1.582 2.21 0 3.49 1.426 1.29 1.416 1.29 3.857m-1.8-.527q0-1.475-.83-2.354-.8-.879-2.13-.879-1.5 0-2.41.85-.9.849-1.04 2.392h6.41zm-11.02-4.17v1.699q-.76-.391-1.58-.586t-1.7-.195q-1.34 0-2.01.41-.66.41-.66 1.23 0 .625.47.987.48.351 1.93.673l.61.137q1.92.41 2.72 1.162.81.743.81 2.08 0 1.524-1.21 2.413-1.2.888-3.31.888-.88 0-1.84-.176-.95-.166-2-.507v-1.856q1 .518 1.96.781.97.254 1.92.254 1.27 0 1.95-.429.68-.44.68-1.231 0-.732-.49-1.123t-2.16-.752l-.63-.146q-1.67-.352-2.41-1.075-.74-.732-.74-2.002 0-1.543 1.09-2.382 1.1-.84 3.11-.84.99 0 1.87.146.88.147 1.62.44m-10.57 4.013v6.602h-1.8v-6.543q0-1.553-.61-2.324-.6-.772-1.81-.772-1.46 0-2.3.928t-.84 2.529v6.182h-1.8V84.036h1.8v1.7q.65-.987 1.52-1.475.88-.488 2.02-.488 1.88 0 2.85 1.172.97 1.162.97 3.427m-17.08-3.076q-1.45 0-2.29 1.133-.84 1.123-.84 3.086t.83 3.096q.84 1.123 2.3 1.123 1.43 0 2.27-1.133t.84-3.086q0-1.943-.84-3.076-.84-1.143-2.27-1.143m0-1.523q2.34 0 3.68 1.523 1.34 1.524 1.34 4.219 0 2.686-1.34 4.219-1.34 1.523-3.68 1.523-2.36 0-3.69-1.523-1.33-1.533-1.33-4.219 0-2.695 1.33-4.219 1.33-1.523 3.69-1.523m-7.39.683v1.68q-.76-.42-1.53-.625-.76-.215-1.54-.215-1.75 0-2.72 1.114-.96 1.103-.96 3.105t.96 3.115q.97 1.104 2.72 1.104.78 0 1.54-.205.77-.215 1.53-.635v1.66q-.75.352-1.56.527-.8.176-1.71.176-2.47 0-3.92-1.553-1.46-1.552-1.46-4.189 0-2.676 1.47-4.209t4.03-1.533q.83 0 1.62.176.79.166 1.53.507m405.93-16.962h2.06v1.679l-1.6 3.125h-1.26l.8-3.125zm-6.53-11.563v3.105h3.7v1.397h-3.7v5.937q0 1.338.36 1.719.37.381 1.49.381h1.85v1.504h-1.85q-2.08 0-2.87-.772-.79-.781-.79-2.832v-5.937h-1.32v-1.397h1.32v-3.105zm-4.73 8.125v.879h-8.26q.12 1.855 1.11 2.832 1.01.967 2.8.967 1.03 0 2-.254.98-.254 1.93-.762v1.699q-.96.41-1.98.625t-2.06.215q-2.62 0-4.15-1.523-1.52-1.524-1.52-4.121 0-2.686 1.44-4.258 1.46-1.582 3.92-1.582 2.2 0 3.48 1.426 1.29 1.416 1.29 3.857m-1.79-.527q0-1.475-.83-2.354-.81-.879-2.13-.879-1.51 0-2.42.85-.89.849-1.03 2.392h6.41zm-18.54-2.393q.67-1.211 1.61-1.787t2.21-.576q1.71 0 2.64 1.201.92 1.191.92 3.398v6.602h-1.8v-6.543q0-1.572-.56-2.334t-1.7-.762q-1.4 0-2.21.928t-.81 2.529v6.182h-1.8v-6.543q0-1.582-.56-2.334-.56-.762-1.72-.762-1.38 0-2.19.938-.81.928-.81 2.519v6.182h-1.8V59.036h1.8v1.7q.62-1.006 1.48-1.485.86-.478 2.04-.478 1.19 0 2.02.605.84.606 1.24 1.758m-15.81 3.34q-2.18 0-3.02.498t-.84 1.699q0 .957.63 1.524.63.556 1.72.556 1.49 0 2.39-1.054.91-1.065.91-2.823v-.4zm3.58-.742v6.24h-1.79v-1.66q-.62.996-1.54 1.474-.91.469-2.24.469-1.68 0-2.68-.937-.98-.948-.98-2.53 0-1.845 1.23-2.783 1.24-.937 3.69-.937h2.52v-.176q0-1.24-.82-1.914-.81-.684-2.29-.684-.94 0-1.82.225-.89.224-1.71.674v-1.66q.98-.381 1.91-.567.93-.195 1.81-.195 2.37 0 3.54 1.23 1.17 1.231 1.17 3.731m-20.99-7.803v3.105h3.7v1.397h-3.7v5.937q0 1.338.36 1.719.37.381 1.49.381h1.85v1.504h-1.85q-2.08 0-2.87-.772-.79-.781-.79-2.832v-5.937h-1.32v-1.397h1.32v-3.105zm-7.33 3.105h1.8v10.938h-1.8zm0-4.257h1.8v2.275h-1.8zm-3.45 4.58v1.699q-.77-.391-1.59-.586t-1.69-.195q-1.34 0-2.02.41-.66.41-.66 1.23 0 .625.48.987.48.351 1.92.673l.62.137q1.91.41 2.71 1.162.81.743.81 2.08 0 1.524-1.21 2.413-1.2.888-3.31.888-.88 0-1.84-.176-.94-.166-2-.507v-1.856q1 .518 1.97.781.96.254 1.91.254 1.27 0 1.95-.429.69-.44.69-1.231 0-.732-.5-1.123-.49-.391-2.16-.752l-.62-.146q-1.67-.352-2.42-1.075-.74-.732-.74-2.002 0-1.543 1.09-2.382 1.1-.84 3.11-.84 1 0 1.88.146.87.147 1.62.44m-15.25 1.357q-.3-.176-.66-.254-.35-.09-.78-.09-1.53 0-2.35.996-.81.987-.81 2.842v5.762h-1.8V59.034h1.8v1.7q.57-.996 1.48-1.475.91-.488 2.2-.488.19 0 .41.03.23.02.5.07v1.846zm-14.32-.42q-1.45 0-2.29 1.133-.84 1.123-.84 3.086t.83 3.096q.84 1.123 2.3 1.123 1.43 0 2.27-1.133t.84-3.086q0-1.943-.84-3.076-.84-1.143-2.27-1.143m0-1.523q2.34 0 3.68 1.523 1.34 1.524 1.34 4.219 0 2.686-1.34 4.219-1.34 1.523-3.68 1.523-2.36 0-3.7-1.523-1.32-1.533-1.32-4.219 0-2.695 1.32-4.219 1.34-1.523 3.7-1.523m-9.79-3.994h1.8v15.195h-1.8zm-7.99 5.517q-1.44 0-2.28 1.133-.84 1.123-.84 3.086t.83 3.096q.84 1.123 2.29 1.123 1.44 0 2.28-1.133t.84-3.086q0-1.943-.84-3.076-.84-1.143-2.28-1.143m0-1.523q2.35 0 3.68 1.523 1.34 1.524 1.34 4.219 0 2.686-1.34 4.219-1.33 1.523-3.68 1.523t-3.69-1.523q-1.33-1.533-1.33-4.219 0-2.695 1.33-4.219 1.34-1.523 3.69-1.523m-9.73 1.924v-5.918h1.79v15.195h-1.79v-1.641q-.57.977-1.44 1.455-.86.469-2.07.469-1.98 0-3.23-1.582-1.24-1.582-1.24-4.16t1.24-4.16q1.25-1.582 3.23-1.582 1.21 0 2.07.478.87.469 1.44 1.446m-6.13 3.818q0 1.982.81 3.115.82 1.123 2.25 1.123t2.25-1.123q.82-1.133.82-3.115t-.82-3.105q-.82-1.133-2.25-1.133T384 61.41q-.81 1.123-.81 3.105m-180.48-3.379q.67-1.211 1.61-1.787.93-.576 2.2-.576 1.71 0 2.64 1.201.93 1.191.93 3.398v6.602h-1.81v-6.543q0-1.572-.56-2.334-.55-.762-1.69-.762-1.4 0-2.21.928t-.81 2.529v6.182h-1.81v-6.543q0-1.582-.56-2.334-.55-.762-1.71-.762-1.38 0-2.19.938-.81.928-.81 2.519v6.182h-1.81V59.036h1.81v1.7q.61-1.006 1.47-1.485.86-.478 2.04-.478 1.19 0 2.02.605.84.606 1.25 1.758m-21.4 4.522v-6.622h1.8v6.553q0 1.553.6 2.334.61.772 1.82.772 1.45 0 2.29-.928.85-.928.85-2.529v-6.202h1.8v10.938h-1.8v-1.68q-.65.996-1.52 1.485-.86.478-2 .478-1.89 0-2.86-1.172-.98-1.172-.98-3.427m-3.27-6.299v1.699q-.76-.391-1.58-.586-.83-.195-1.7-.195-1.34 0-2.02.41-.66.41-.66 1.23 0 .625.48.987.48.351 1.92.673l.62.137q1.91.41 2.71 1.162.81.743.81 2.08 0 1.524-1.21 2.413-1.2.888-3.31.888-.88 0-1.83-.176-.95-.166-2.01-.507v-1.856q1 .518 1.97.781.96.254 1.91.254 1.27 0 1.95-.429.69-.44.69-1.231 0-.732-.5-1.123-.49-.391-2.16-.752l-.62-.146q-1.67-.352-2.42-1.075-.74-.732-.74-2.002 0-1.543 1.1-2.382 1.09-.84 3.1-.84 1 0 1.88.146.87.147 1.62.44m-17.93 8.974v5.801h-1.81V59.036h1.81v1.661q.56-.977 1.42-1.446.87-.478 2.07-.478 2 0 3.24 1.582 1.25 1.582 1.25 4.16t-1.25 4.16q-1.24 1.582-3.24 1.582-1.2 0-2.07-.469-.86-.478-1.42-1.455m6.11-3.818q0-1.982-.82-3.105-.81-1.133-2.24-1.133-1.42 0-2.24 1.133-.81 1.123-.81 3.105t.81 3.115q.82 1.123 2.24 1.123 1.43 0 2.24-1.123.82-1.133.82-3.115m-13.4-5.479h1.8v10.938h-1.8zm0-4.257h1.8v2.275h-1.8zm-17.34 6.357q.67-1.211 1.61-1.787t2.21-.576q1.71 0 2.63 1.201.93 1.191.93 3.398v6.602h-1.81v-6.543q0-1.572-.55-2.334-.56-.762-1.7-.762-1.4 0-2.21.928t-.81 2.529v6.182h-1.81v-6.543q0-1.582-.55-2.334-.56-.762-1.72-.762-1.38 0-2.19.938-.81.928-.81 2.519v6.182h-1.81V59.036h1.81v1.7q.62-1.006 1.48-1.485.86-.478 2.04-.478 1.19 0 2.02.605.84.606 1.24 1.758m-11.47 2.92v.879h-8.26q.12 1.855 1.12 2.832 1 .967 2.79.967 1.03 0 2-.254.98-.254 1.93-.762v1.699q-.96.41-1.98.625-1.01.215-2.06.215-2.62 0-4.15-1.523-1.52-1.524-1.52-4.121 0-2.686 1.44-4.258 1.46-1.582 3.92-1.582 2.21 0 3.48 1.426 1.29 1.416 1.29 3.857m-1.79-.527q0-1.475-.83-2.354-.8-.879-2.13-.879-1.51 0-2.41.85-.9.849-1.04 2.392h6.41zm-9.04-2.813q-.3-.176-.66-.254-.35-.09-.78-.09-1.53 0-2.35.996-.81.987-.81 2.842v5.762h-1.8V59.034h1.8v1.7q.57-.996 1.48-1.475.91-.488 2.21-.488.18 0 .41.03.22.02.49.07v1.846zm-14.323-.42q-1.445 0-2.285 1.133-.84 1.123-.84 3.086t.831 3.096q.839 1.123 2.294 1.123 1.433 0 2.273-1.133t.84-3.086q0-1.943-.84-3.076-.84-1.143-2.273-1.143m0-1.523q2.343 0 3.683 1.523 1.34 1.524 1.34 4.219 0 2.686-1.34 4.219-1.34 1.523-3.683 1.523-2.353 0-3.691-1.523-1.328-1.533-1.328-4.219 0-2.695 1.328-4.219 1.338-1.523 3.691-1.523m-14.941-3.379h1.973v12.92h7.099v1.66h-9.072z"/></svg>