<svg xmlns="http://www.w3.org/2000/svg" width="454.082" height="281.397" stroke="#000" stroke-linecap="round" font-family="sans-serif"><rect width="100%" height="100%" x="0%" y="0%" fill="#fff" stroke="none"/><path d="m374.082 214.597 4 13.6h-8zM387.1 198.4h14m-14 6h14m-27-16v-14m15.9-53.8v1.6m2.2-2.2v2.8m2.2-3.5v4.2m2.1-4.8v5.4m2.2-6.1v6.8m2.2-7.4v8m-26.8-17v-14m-13 30h-14m14-6h-14M169.4 72.5l24.7 11m-24.7-11-32.3 23.6m-36.6-16.3-2.8-26.9m-47.2 106 21.9-15.8m301.7-8.7v14m-159.799-20.466-14.96 22.593-5.945-5.353zm39.781 4.181 23.464 32.641-6.928 4zM274.1 166.8h40m0 0 13.5 23.3m33.5 11.3h-14M240.6 68.8l20.1 18.1m4.4 20.5-11 24.7m0 0-39.8-4.2m0 0-5.6-26.4m8.5-19.2 23.4-13.5m-140.1 11L78.9 95.5m21-6.4-15.2 11.1m-15.2 16 2.9 26.9m0 0L96.8 154m-16-15.1 17.1 7.7m21.5 5.1 21.9-15.9m0 0-4.2-39.7m-3.6 34.5-3-27.8m6.6-6.7-36.6-16.3"/><text x="14" y="174.585" fill="#666" stroke="#666" font-size="16">H</text><text x="26" y="178.265" fill="#666" stroke="#666" font-size="13">3</text><text x="32.5" y="174.585" fill="#666" stroke="#666" font-size="16">C</text><text x="161.536" y="165.66" fill="#666" stroke="#666" font-size="16">H</text><text x="173.536" y="169.34" fill="#666" stroke="#666" font-size="13">3</text><text x="180.036" y="165.66" fill="#666" stroke="#666" font-size="16">C</text><text x="368.082" y="209.397" fill="#ff7f00" stroke="#ff7f00" font-size="16">P</text><text x="368.082" y="129.397" fill="#ff7f00" stroke="#ff7f00" font-size="16">P</text><text x="70.359" y="48" fill="#0c0cff" stroke="#0c0cff" font-size="16">H</text><text x="82.359" y="51.68" fill="#0c0cff" stroke="#0c0cff" font-size="13">2</text><text x="88.859" y="48" fill="#0c0cff" stroke="#0c0cff" font-size="16">N</text><text x="62.18" y="111.292" fill="#0c0cff" stroke="#0c0cff" font-size="16">N</text><text x="102.902" y="167.343" fill="#0c0cff" stroke="#0c0cff" font-size="16">N</text><text x="378.882" y="237.365" fill="#ff0c0c" stroke="#ff0c0c" font-size="32">-</text><text x="368.082" y="249.397" fill="#ff0c0c" stroke="#ff0c0c" font-size="16">O</text><text x="408.082" y="129.397" fill="#ff0c0c" stroke="#ff0c0c" font-size="16">OH</text><text x="264.351" y="103.574" fill="#b2b200" stroke="#b2b200" font-size="16">S</text><text x="408.082" y="209.397" fill="#ff0c0c" stroke="#ff0c0c" font-size="16">O</text><text x="378.882" y="77.365" fill="#ff0c0c" stroke="#ff0c0c" font-size="32">-</text><text x="368.082" y="89.397" fill="#ff0c0c" stroke="#ff0c0c" font-size="16">O</text><text x="199.985" y="96.808" fill="#0c0cff" stroke="#0c0cff" font-size="16">N</text><text x="368.082" y="169.397" fill="#ff0c0c" stroke="#ff0c0c" font-size="16">O</text><text x="328.082" y="129.397" fill="#ff0c0c" stroke="#ff0c0c" font-size="16">O</text><text x="328.082" y="209.397" fill="#ff0c0c" stroke="#ff0c0c" font-size="16">O</text><title> - OBDepict</title></svg>