<svg xmlns="http://www.w3.org/2000/svg" width="200" height="200" viewBox="0 0 24 24"><path fill="none" stroke="#000" stroke-width=".3" d="M19.311 1.21a6.3 6.3 0 0 1 2.407.827c.267.372.618.697.802 1.117 1.013 2.313-1.062 3.332-1.52 5.28v1.553a.7.7 0 0 1-.36.366l-4.113 1.52-.823 3.836-.824 3.836v2.889a.7.7 0 0 1-.36.366H7.68a.7.7 0 0 1-.36-.366V19.87H4.08a.7.7 0 0 1-.356-.314l-.692-4.916-1.607-.653a.7.7 0 0 1-.216-.422l1.52-6.737c.77-2.562 2.663-4.018 4.851-4.516s4.672-.039 6.621 1.23l2.86-1.135a6.4 6.4 0 0 1 2.25-1.198"/><path fill="none" stroke="#000" stroke-width=".3" d="M19.31 1.938c2.597.287 3.446 2.405 1.912 4.482a5.5 5.5 0 0 0-.926 1.736h-.376V6.204a1.7 1.7 0 0 0-.336-.684l-1.056-.805q-.11-.159.072-.22h2.04v-.732H18.6c-.857.282-1.015.8-.504 1.538l1.056.805q.035.043.048.098v1.952h-.374c-1.025-1.962-2.18-2.937-1.318-5.14l.017-.03a5 5 0 0 1 1.785-1.048m-9.658.727c1.453.166 2.51.433 3.763 1.192L8.84 5.593l-.295 1.209-1.049-.64-1.416 1.44.63 1.067-1.189.301v2.037l1.188.301-.63 1.067 1.416 1.44 1.05-.643.297 1.208h2.002l.297-1.208 1.049.64 3.535-1.62-1.554 7.235-.01.078v2.563H8.04V19.7l3.08-2.087-.4-.609-3.148 2.134H4.393l-.676-4.811a.7.7 0 0 0-.223-.288l-1.514-.616 1.445-6.407c.675-1.351 1.479-2.36 2.49-3.07s2.232-1.123 3.737-1.282m6.848.752c-.327 1.384.002 2.13.694 3.327l-.664.264a14.7 14.7 0 0 0-1.728-2.916l1.698-.675"/><path fill="none" stroke="#000" stroke-width=".3" d="M14.062 4.387a13.2 13.2 0 0 1 1.795 2.888l-2.695 1.072.44-.747-1.415-1.44-1.05.642-.28-1.14 3.205-1.275"/><path fill="none" stroke="#000" stroke-width=".3" d="M9.401 6.326h.878l.295 1.2.459.193 1.044-.637.62.632-.629 1.065.19.462 1.182.3v.892l-1.182.3-.19.462.628 1.063-.653.613-1.01-.615-.46.194-.294 1.198h-.878l-.295-1.199-.46-.194-1.041.636-.62-.631.623-1.059-.19-.468-1.178-.3V9.54l1.182-.3.19-.461-.628-1.064.62-.631 1.043.633.46-.194.294-1.197m8.349.982.37 1.125v1.554a.7.7 0 0 0 .288.351l-1.692.666c.117-1.089.118-2.196.004-3.286l1.03-.41"/><path fill="none" stroke="#000" stroke-width=".3" d="M16.041 7.987c.086.95.076 1.913-.03 2.86l-.105.487-2.362.94-.572-.968 1.188-.301V8.969l-.356-.09 2.237-.892m-6.201.535c.34.143.76.167 1.018.43.997 1.012.064 2.747-1.299 2.47-1.98-.4-1.057-2.487.281-2.9m9 .366h1.44v.733h-1.44v-.733"/><path fill="none" stroke="#000" stroke-width=".3" d="M9.7 9.269c.903.09 1.266 1.337.14 1.45-1.021.102-.714-1.138-.14-1.45"/></svg>