<svg xmlns="http://www.w3.org/2000/svg" width="420" height="320" viewBox="0 0 420 320"><defs><clipPath id="a"><path d="M5.5 135.5h410v178H5.5zm402 10v158h-394v-158zm2-2h-398v162h398z"/></clipPath><clipPath id="c"><path d="M4.5 3.5h410v78H4.5zm402 10v58h-394v-58zm2-2h-398v62h398z"/></clipPath><filter id="b"><feGaussianBlur in="SourceAlpha" stdDeviation="2.5"/><feOffset dy="2" result="offsetblur"/><feFlood flood-color="#000"/><feComposite in2="offsetblur" operator="in"/></filter><filter id="d"><feGaussianBlur in="SourceAlpha" stdDeviation="2.5"/><feOffset dy="2" result="offsetblur"/><feFlood flood-color="#000"/><feComposite in2="offsetblur" operator="in"/></filter></defs><path fill="rgba(0,0,0,0.75)" d="M409.5 143.5v162h-398v-162zm-2 2h-394v158h394z" clip-path="url(#a)" filter="url(#b)"/><path fill="none" stroke="#000" stroke-width="2" d="M12.5 144.5h396v160h-396z"/><text transform="translate(204 42)">
      <tspan x="-40.306" y="-4" fill="#030302" font-family="HelveticaNeue-Bold" font-size="14">Video Cloud</tspan>
      <tspan x="-57.673" y="13" fill="#030302" font-family="HelveticaNeue-Bold" font-size="14">Ingestion System</tspan>
    </text><g stroke="#322e2e" stroke-width="4"><path fill="none" d="M204.5 72.5v55.6"/><path fill="#322e2e" d="m199.7 128.1 4.8 12.8 4.8-12.8z"/></g><text transform="translate(264 114)">
      <tspan x="-42.504" y="-4" fill="#030302" font-family="HelveticaNeue-Bold" font-size="14">Notifications</tspan>
    </text><text transform="translate(270 194)">
      <tspan x="-125.356" y="-12" fill="#030302" font-family="HelveticaNeue-Bold" font-size="14">Get DYNAMIC_RENDITION SUCCESS </tspan>
      <tspan x="-99.022" y="5" fill="#030302" font-family="HelveticaNeue-Bold" font-size="14">notifications as renditions are </tspan>
      <tspan x="-37.086" y="22" fill="#030302" font-family="HelveticaNeue-Bold" font-size="14">created . . .</tspan>
    </text><text transform="translate(266.5 266)">
      <tspan x="-108.374" y="-12" fill="#030302" font-family="HelveticaNeue-Bold" font-size="14">Get TITLE SUCCESS notification </tspan>
      <tspan x="-97.58" y="5" fill="#030302" font-family="HelveticaNeue-Bold" font-size="14">when processing is complete</tspan>
    </text><text transform="translate(72 182)">
      <tspan x="-47.048" y="-9" fill="#030302" font-family="HelveticaNeue-Bold" font-size="17">Notification</tspan>
      <tspan x="-31.79" y="12" fill="#030302" font-family="HelveticaNeue-Bold" font-size="17">Handler </tspan>
    </text><path fill="rgba(0,0,0,0.75)" d="M408.5 11.5v62h-398v-62zm-2 2h-394v58h394z" clip-path="url(#c)" filter="url(#d)"/><path fill="none" stroke="#000" stroke-width="2" d="M11.5 12.5h396v60h-396z"/><path fill="#0ab41f" d="m42.2 262.151.406.632.858 1.285.892 1.276.914 1.255 1.401 1.841 1.923 2.409 1.961 2.368 1.972 2.337 1.959 2.319 1.92 2.316.932 1.153c1.481 1.834 5.441.705 8.844-2.522s4.961-7.328 3.48-9.162l-.967-1.195-1.944-2.345-1.958-2.319-1.947-2.306-1.913-2.309-1.861-2.329-1.347-1.769-.865-1.186-.837-1.195-.815-1.221-.408-.635c-1.292-2.008-5.159-1.107-8.639 2.014s-5.252 7.279-3.961 9.288"/><path fill="#09b41f" d="m67.152 277.822.554-.62 1.1-1.228 1.079-1.204 1.062-1.183 1.043-1.161 1.027-1.142 1.008-1.12.991-1.099.974-1.08.955-1.057.939-1.038.92-1.017.903-.996.885-.975.868-.955.85-.936.832-.914.814-.892.797-.874.78-.853.762-.833.744-.813.726-.792.71-.772 1.033-1.123 1.313-1.425 1.242-1.344 1.171-1.263 1.101-1.185 1.031-1.105.959-1.025.889-.948.818-.868.745-.788.675-.71.601-.63.528-.549.451-.467.372-.382.288-.291.19-.189.064-.061-.148.144-.816.71-8.012 1.36 1.625-6.537.487-.637.04-.052-.137.153-.253.278-.345.378-.428.465-.504.544-.579.62-.652.696-.725.769-.793.84-.864.91-.932.98-1.003 1.05-1.072 1.117-1.14 1.187-1.21 1.254-1.28 1.324-1.345 1.387-1.414 1.454-1.483 1.521-1.551 1.587-1.62 1.652-1.686 1.716-1.755 1.782-1.823 1.845-1.89 1.909-1.958 1.973-2.026 2.036-2.094 2.099-1.067 1.068c-3.319 3.32-4.663 7.356-3.002 9.015 1.661 1.658 5.698.311 9.016-3.009l1.092-1.092 2.121-2.127 2.055-2.065 1.988-2.003 1.921-1.939 1.853-1.876 1.785-1.812 1.718-1.749 1.65-1.683 1.582-1.619 1.515-1.553 1.448-1.49 1.381-1.424 1.31-1.355 1.244-1.29 1.177-1.225 1.11-1.158 1.042-1.09.976-1.025.907-.957.842-.89.773-.822.709-.757.646-.692.582-.628.522-.567.467-.511.422-.469.4-.451.439-.512.75-.952 1.748-6.708-8.026 1.336-.968.833-.439.414-.363.356-.377.377-.418.424-.472.485-.531.55-.594.618-.659.691-.725.763-.792.838-.86.913-.927.988-.997 1.065-1.066 1.143-1.134 1.22-1.204 1.299-1.272 1.377-1.341 1.455-1.05 1.141-.723.787-.741.808-.758.828-.775.847-.793.868-.81.888-.829.909-.846.929-.862.948-.88.969-.898.99-.916 1.01-.933 1.03-.95 1.051-.968 1.073-.985 1.091-1.003 1.113-1.022 1.134-1.038 1.155-1.056 1.176-1.074 1.196-1.091 1.218-1.106 1.235-.562.627c-3.115 3.483-4.006 7.345-1.989 8.628 2.017 1.282 6.177-.501 9.293-3.984"/><path d="M81.381 394.698c.088 0 .212-.089.277-.198s.048-.198-.039-.198c-.088 0-.212.089-.277.198s-.048.198.039.198"/></svg>