<svg xmlns="http://www.w3.org/2000/svg" width="200" height="200" viewBox="0 0 24 24"><path fill="none" stroke="#000" stroke-width=".3" d="M14.37 9.345c.294 1.785 3.362 2.42 4.801 3.4l.33.267-.352.026c-.92.224 2.326.399 2.966.837.118.08-.283.03-.424.047-.382.046-.773.042-1.144.142-.376.102-1.387 1.077-1.515-.007-.03-.247.524-.066.708-.233.482-.435-1.3.07-1.947.03-.49-.032-.966-.182-1.449-.276-1.677-.326-3.206-.288-4.92-.15-.069.005-2.814.372-3.4.242-.65-.145-1.236-.631-1.901-.612-.11.003.197.095.3.136.487.194 1.081.213 1.469.568.146.134-.305.322-.503.316-.616-.017-1.3-.85-1.786-.471-.124.096.426.058.417.215-.034.656-1.333.237-1.97.076-.154-.039.408-.234.313-.361-.256-.339-.823.234-1.247.254-.368.018-.735-.058-1.102-.087l-.286-.056.286-.1c3.465-.935.017.026-.192-.112-.106-.07 2.417-1.664 2.532-1.713 1.96-.835 4.07-1.547 6.202-1.747 1.43-.134 2.577.12 3.814-.631"/><path fill="none" stroke="#000" stroke-width=".3" d="M14.052 9.367c.405.03.49.665.822.9 1.396.984 3.092 1.47 4.515 2.472l.937.425c.331.08.674.123.995.24 2.559.932.089.566-.76.803-.4.111-.676.627-1.09.6-.135-.01-.542-.596-.556-.615l-.534-.166c-1.67-.134-3.18-.579-4.872-.556-2.401.033-4.744.661-7.069.706-1.067.02-3.93.178-4.845-.52-.147-.111.187-.32.31-.459a5.7 5.7 0 0 1 1.243-1.061c1.662-1.036 3.888-1.658 5.773-2.054 1.73-.363 3.399-.326 5.131-.715"/><path fill="none" stroke="#000" stroke-width=".3" d="M4.26 12.947c.45 0 .144.109 0 0"/></svg>