<svg xmlns="http://www.w3.org/2000/svg" viewBox="0 0 640 480"><defs><path id="ua" d="M238 223h0 0q0 0-1 0h0 0q0 0 0-1v0h0 0q0 0-1 0v0h0l-1-1h0s0 1 0 1v1a9 9 0 01 3 2 9 9 0 01 2 2h1q1 0 1 0h0-2v0h0q0 0 0-1h0v0h0 0q0 0-1 0h0 0q0 0 0-1h0z"/><path id="ub" d="M263 320q2 0 4-1l4-1q2 0 4 1l4 1a8 8 0 00 4-1 8 8 0 01 4-1q2 0 4 1 2 1 4 1v2a8 8 0 01-4-1 8 8 0 00-4-1q-2 0-4 1-2 1-4 1a7 7 0 01-4-1q-2-1-4-1a8 8 0 00-4 1 8 8 0 01-4 1v-2"/><path id="uc" d="M150 317q-2 0-4-1a8 8 0 00-4-1q-2 0-4 1a8 8 0 01-4 1q-2 0-4-1a8 8 0 00-4-1 8 8 0 00-4 1 8 8 0 01-4 1v2q2 0 4-1a8 8 0 01 4-1q2 0 4 1l4 1a8 8 0 00 4-1q2-1 4-1 2 0 4 1l4 1z"/><path id="ud" d="M263 327a8 8 0 00 4-1q2-1 4-1 2 0 4 1l4 1q2 0 4-1a8 8 0 01 4-1q2 0 4 1a8 8 0 00 4 1v-2a8 8 0 01-4-1 8 8 0 00-4-1q-2 0-4 1-2 1-4 1t-4-1a8 8 0 00-4-1 8 8 0 00-4 1q-2 1-4 1v2"/><path id="ue" d="M263 322q2 0 4-1 2-1 4-1 2 0 4 1l4 1a8 8 0 00 4-1 8 8 0 01 4-1 8 8 0 01 4 1q2 1 4 1v2a8 8 0 01-4-1 8 8 0 00-4-1q-2 0-4 1-2 1-4 1t-4-1a8 8 0 00-4-1 8 8 0 00-4 1q-2 1-4 1V322"/><path id="uf" d="M150 329a8 8 0 01-4-1q-2-1-4-1a8 8 0 00-4 1q-2 1-4 1a7 7 0 01-4-1 8 8 0 00-4-1q-2 0-4 1l-4 1v-2a8 8 0 00 4-1q2-1 4-1t4 1a8 8 0 00 8 0q2-1 4-1t4 1l4 1z"/><path id="ug" d="m142 213h0s-1 0-1 0l-1-1s-1 1-1 1-1-1-1-1-1 0-1 0-1-1-1-1-1 1-1 1-1 0-1 0 0 1-1 1-1-1-1-1 0 1-1 1h-1 0 0 0a27 27 0 01 7-1q4 0 7 1z"/><path id="uh" d="M135 213H130v-1-1-2q-2-3-3-2 0 0 0-1 2.5-1 5 4v1h4v-1q3-4 5-4 0 0 0 1-1 0-3 2v2 1 1z"/><path id="ui" d="M252 187a9 9 0 00 2-6 9 9 0 00-1-4q-4-6-16-7a29 29 0 00-6 1l1 1a25 25 0 01 5 0q11.5.75 14 6 1 2 1 3a7 7 0 01-3 6l2 4 1-1z"/><path id="uj" d="M160 187a9 9 0 01-2-6q0-2 1-4 4-6 16-7 3 0 6 1l-1 1a26 26 0 00-5 0q-11.5.75-14 6a7 7 0 00-1 3 7 7 0 00 3 6l-3 4-1-1z"/><path id="uk" d="M158 258a50 50 0 00-23-2q-14.75 3.25-16 8v0l-4-8q0-6 18-9a43 43 0 01 9-1q10 0 16 2v9"/><path id="ul" d="M231 230v-1h0-2a6 6 0 01-2-1q-1-1-2-1-2 0-2 0s1 0 2 1 2 1 2 1h3z"/><path id="um" d="m286 308h0q0 3 3 3h-22q3 0 3-3h0z"/><path id="un" d="M236 259s-1 0-1 0l-1 1s1-1 1 0q1 0 1 0v-1z"/><path id="uo" d="M217 240s0 0-1 0-1 1-1 1 1 0 1 0 1 0 1 0h0z"/><path id="up" d="m288 212 1-1q0 0 1 0 0 0-1 0h0v0s0 0 0 0v1z"/><path id="uq" d="M217 227s0 0 1 0h1s0 0 0-1-1-1-1-1 0 1 0 1z"/><path id="ur" d="M255 270v32c0 13-11 23-24 23s-24-10-24-23v-32h48"/><path id="us" d="M206 302c0 13-11 23-24 23s-24-10-24-23v-32h48v32"/><path id="ut" d="m126 308h0q0 3-3 3h22a3 3 0 01-3-3v0z"/><path id="u" d="M215 228s0-1-1-1-1 1-1 1h1v1l1-1z"/><path id="uv" d="M232 225v0s1 0 1 0q1 1 1 1h-1 0 0v0z"/><path id="uw" d="M214 231s-1 0-1 1 0 1 0 1 0 0 1 0h1v-1z"/><path id="ux" d="M224 253s0-1-1-1-1 1-1 1 1 0 1 0v1h0z"/><path id="uy" d="m144 212 1-1h1q0 0-1 0h0v0s0 0 0 0v1z"/><path id="uz" d="M270 262a13 13 0 00-6 2v0q0 2 6 5v-8"/><path id="ua" d="m268 212-1-1h-1q0 0 1 0 0 0 0 0v0s0 0 0 0z"/><path id="uab" d="M142 262q4 1 6 2h0q0 2-6 5v-8"/><path id="uac" d="M236 262s-1 1 0 1l1 1s0-1 0-1h1-1z"/><path id="uad" d="M135 214h-1q0 0 0 0h0 2 0 0-1"/><path id="uae" d="M278 214h-1q0 0 0 0h0 2 0 0-1"/><path id="uaf" d="M241 227h1 0s0 0 0-1-1 0-1 0z"/><path id="uag" d="m233 221v-1h0s0 0 1 0 0 1 0 1z"/><path id="uah" d="m128 211h0l1-1v0h0-1v1"/><path id="uai" d="m228 227v-1 0s1 0 1 0q0 0 0 0z"/><path id="uaj" d="M236 221h-1v1 0h0 1 0"/><path id="uak" d="M281 211q0 0 0 0h0q0 0 0 0z"/><path id="ual" d="M282 211q0 0 0 0t0 0q0 1 0 0z"/><path id="uam" d="M277 210q0 0 0 0 0 0 0 0t0 0z"/><path id="uan" d="m127 212h0q0 0 0 0 0 0 0 0z"/><path id="uao" d="m142 212h0q0 0 0 0 0 0 0 0z"/><path id="uap" d="M129 211q0 0 0 0t0 0h0z"/><path id="uaq" d="m134 210h0q0 0 0 0h0z"/><path id="uar" d="M139 211q0 0 0 0h0 0z"/><path id="uas" d="M272 211q0 0 0 0h0 0z"/><path id="uat" d="m132 211h0q0 0 0 0t0 0z"/><path id="uau" d="m233 221h0v0q0 0 0 0z"/><path id="uav" d="M206 270h48v-54h-48z"/><path id="uaw" d="M267 223h21v-6h-21z"/><path id="uax" d="m229 227h1-1v-1"/><path id="uay" d="M158 270h48v-54H158z"/><path id="uaz" d="M237 226v0h0 0z"/><path id="uba" d="M199 270h4v-1h-4z"/><path id="ub" d="M209 270h4v-1h-4z"/><path id="ubc" d="M204 279h4v-1h-4z"/><path id="ubd" d="M124 317h22V311h-22z"/><path id="ube" d="M267 317h22V311h-22z"/><path id="ubf" d="M240 225v0h0v0z"/><path id="ubg" d="M124 223h21v-6H124z"/><path id="ubh" d="M237 223h0v0h0z"/><path id="ubi" d="M235 222h0v0h0z"/></defs><style>.A{stroke:#000}.B{fill:none}.C{stroke-width:.4}.D{stroke-width:.3}.E{fill:#c8b100}.F{fill:#fff}.G{fill:#ad1519}.H{stroke-linejoin:round}.I{stroke-width:.5}.J{stroke-width:.1}.K{fill:#db4446}.L{fill:#058e6e}.M{stroke-width:.2}.N{fill:#005bbf}.O{fill:#ccc}.P{stroke-width:.6}.Q{stroke:#c8b100}.R{stroke-linecap:round}</style><path fill="#AA151B" d="M0 0h640v480H0z"/><path fill="#F1BF00" d="M0 120h640v240H0z"/><path d="m127 213h-1l-1-1h-1l-1-1s-1-1 0-2q0-1 1-2h2 1 1 0 2 2 5 1l4 2q1 0 1 1v1 1 1l-2 2s0 0-1 0-5-1-8-1-7 1-7 1" class="G"/><path d="m127 213h-1l-1-1h-1l-1-1s-1-1 0-2q0-1 1-2h2 1 1 0 2 2 5 1l4 2q1 0 1 1v1 1 1l-2 2s0 0-1 0-5-1-8-1-7 1-7 1z" class="A B D H"/><path d="M133 207q0-2 1-2 1 0 1 2 0 2-1 2s-1-1-1-2" class="E"/><path d="M133 207q0-2 1-2 1 0 1 2 0 2-1 2s-1-1-1-2z" class="A B D"/><path d="M134 207q0-2 1-2 1 0 1 2 0 2-1 2-1 0-1-2" class="E"/><path d="M134 207q0-2 1-2 1 0 1 2 0 2-1 2-1 0-1-2z" class="A B D"/><path d="M134 204q0-1 1-1 1 0 1 1 0 1-1 1-1 0-1-1" class="E"/><path d="M135 204v1h-1v-1h0V203h-1v-1h1v0h0v0h1v1h-1v1z" class="E"/><path d="M135 204v1h-1v-1h0V203h-1v-1h1v0h0v0h1v1h-1v1h0" class="A B D"/><path d="M136 204v1h-2v-1h1V203h-1v-1h1v0h0v0h1v1h-1v1z" class="E"/><path d="M136 204v1h-2v-1h1V203h-1v-1h1v0h0v0h1v1h-1v1h1" class="A B D"/><path d="M135 204q1 0 1 1 0 1-1 1-1 0-1-1 0-1 1-1" class="A B D"/><use href="#uh" class="E"/><use href="#uh" class="A B D"/><path d="M127 207q2 0 5 4m11-4q-2 0-4 4" class="A B D"/><path d="m128 215v-1a27 27 0 01 15 0v1 1a23 23 0 00-7-1q-4 0-6 1z" class="E"/><path d="m128 215v-1a27 27 0 01 15 0v1 1a23 23 0 00-7-1q-4 0-6 1v-1" class="A B D"/><path d="M135 218q4 0 6-1 1 0 1-1 0 0 0 0l-6-1s-5 0-6 1q0 0 0 0 0 1 1 1l6 1" class="E"/><path d="M135 218q4 0 6-1 1 0 1-1 0 0 0 0l-6-1s-5 0-6 1q0 0 0 0 0 1 1 1l6 1z" class="A B D"/><use href="#ug" class="E"/><use href="#ug" class="A B D"/><path d="M135 211h0v0q0 1 1 1a1 1 0 00 1-1h0v0q0 1 1 1 1 0 1-1v0h0 0 0a1 1 0 00 1 1q1 0 1 0h0v0q0 0 0 1h1l1-1v0s0 1-1 1q0 0-1 0 0 0-1-1 0 0-1 0-1 0-1-1 0 0-1 0a2 2 0 01-1-1h-1a2 2 0 01-1-1 2 2 0 01-2 0 2 2 0 01-1 1h-1q0 1-1 1h-1q0 0-1 1t-1 0l-1-1h0l1 1q1 0 1 0 0 0 0-1v0h0q0 0 1 0a1 1 0 00 1-1v-1h0v0q0 1 1 1t1-1v0h0q0 1 1 1 1 0 1-1v0h0" class="E"/><path d="M135 211h0v0q0 1 1 1a1 1 0 00 1-1h0v0q0 1 1 1 1 0 1-1v0h0 0 0a1 1 0 00 1 1q1 0 1 0h0v0q0 0 0 1h1l1-1v0s0 1-1 1q0 0-1 0 0 0-1-1 0 0-1 0-1 0-1-1 0 0-1 0a2 2 0 01-1-1h-1a2 2 0 01-1-1 2 2 0 01-2 0 2 2 0 01-1 1h-1q0 1-1 1h-1q0 0-1 1t-1 0l-1-1h0l1 1q1 0 1 0 0 0 0-1v0h0q0 0 1 0a1 1 0 00 1-1v-1h0v0q0 1 1 1t1-1v0h0q0 1 1 1 1 0 1-1v0h0z" class="A B D"/><path d="M135 213q-4 0-7 1h0 0a27 27 0 01 8-1q5 0 8 1h0 0a27 27 0 00-7-1" class="E"/><path d="M135 213q-4 0-7 1h0 0a27 27 0 01 8-1q5 0 8 1h0 0a27 27 0 00-7-1z" class="A B D H"/><path d="M132 214q0 0 0 0a0 0 0 01 0 0q0 0 0 0a0 0 0 01 0 0" class="F"/><path d="M132 214q0 0 0 0a0 0 0 01 0 0q0 0 0 0a0 0 0 01 0 0z" class="A B D"/><use href="#uad" class="G"/><use href="#uad" class="A B D"/><path d="M130 215h-1q0 0 0 0h0 1q0 0 0 0a0 0 0 01 0 0z" class="L"/><path d="M130 215h-1q0 0 0 0h0 1q0 0 0 0a0 0 0 01 0 0h-1" class="A B D"/><path d="m127 215h0 1v1z" class="G"/><path d="m127 215h0 1v1h-1" class="A B D"/><path d="M137 214q0 0 0 0a0 0 0 01 0 0 0 0 0 01 0 0 0 0 0 01 0 0" class="F"/><path d="M137 214q0 0 0 0a0 0 0 01 0 0 0 0 0 01 0 0 0 0 0 01 0 0z" class="A B D"/><path d="M139 215h1a0 0 0 00 0 0h0-1q0 0 0 0 0 0 0 0z" class="L"/><path d="M139 215h1a0 0 0 00 0 0h0-1q0 0 0 0 0 0 0 0h1" class="A B D"/><path d="m142 215h0-1v1z" class="G"/><path d="m142 215h0-1v1h1" class="A B D"/><path d="M135 217a25 25 0 01-6-1 26 26 0 01 12 0q-2 1-6 1" class="G"/><path d="M135 217a25 25 0 01-6-1 26 26 0 01 12 0q-2 1-6 1z" class="A B D H"/><use href="#uao" class="E"/><use href="#uao" class="A B D"/><path d="M137 211q0 0 0 0h0q0 0 0 0h0" class="E"/><path d="M137 211q0 0 0 0h0q0 0 0 0h0z" class="A B D"/><use href="#uat" class="E"/><use href="#uat" class="A B D"/><use href="#uan" class="E"/><use href="#uan" class="A B D"/><path d="m135 208h-1l1 1h0 0l1-1z" class="E"/><path d="m135 208h-1l1 1h0 0l1-1h-1" class="A B D"/><path d="m133 210h0 1 0 0-1z" class="E"/><path d="m133 210h0 1 0 0-1v1" class="A B D"/><path d="m136 210h0-1 0 0 1z" class="E"/><path d="m136 210h0-1 0 0 1v1" class="A B D"/><path d="m129 209-1 1 1 1h0 0v-1z" class="E"/><path d="m129 209-1 1 1 1h0 0v-1h-1" class="A B D"/><use href="#uah" class="E"/><use href="#uah" class="A B D"/><path d="m132 210v1H130h0 0l1-1z" class="E"/><path d="m132 210v1H130h0 0l1-1h0" class="A B D"/><path d="M127 211v1h-1 0v0l1-1z" class="E"/><path d="M127 211v1h-1 0v0l1-1h1" class="A B D"/><use href="#uap" class="E"/><use href="#uap" class="A B D"/><path d="m140 209 1 1-1 1h0 0v-1z" class="E"/><path d="m140 209 1 1-1 1h0 0v-1h1" class="A B D"/><path d="m141 211h0l-1-1v0h0 1z" class="E"/><path d="m141 211h0l-1-1v0h0 1v1" class="A B D"/><path d="m138 210v1h1 0 0l-1-1z" class="E"/><path d="m138 210v1h1 0 0l-1-1h0" class="A B D"/><path d="m142 211v1h1 0v0l-1-1z" class="E"/><path d="m142 211v1h1 0v0l-1-1h-1" class="A B D"/><use href="#uaq" class="E"/><use href="#uaq" class="A B D"/><use href="#uar" class="E"/><use href="#uar" class="A B D"/><path d="m125 212-1-1q0 0-1 0 0 0 1 0h0v0s0 0 0 0v1" class="E"/><path d="m125 212-1-1q0 0-1 0 0 0 1 0h0v0s0 0 0 0v1z" class="A B D"/><path d="M125 212q0 0 0 0t0 0h0q0 0 0 0" class="E"/><path d="M125 212q0 0 0 0t0 0h0q0 0 0 0z" class="A B D"/><use href="#uy" class="E"/><use href="#uy" class="A B D"/><path d="M144 212q0 0 0 0 0 0 0 0h0q0 0 0 0" class="E"/><path d="M144 212q0 0 0 0 0 0 0 0h0q0 0 0 0z" class="A B D"/><use href="#ubg" class="E"/><use href="#ubg" class="A B C"/><path d="M126 227h17a1 1 0 01-1-1q0-1 1-1h-17q1 0 1 1a1 1 0 01-1 1" class="E"/><path d="M126 227h17a1 1 0 01-1-1q0-1 1-1h-17q1 0 1 1a1 1 0 01-1 1z" class="A B C H"/><path d="M127 227h16q1 0 1 1t-1 1h-16q-1 0-1-1 0-1 1-1" class="E"/><path d="M127 227h16q1 0 1 1t-1 1h-16q-1 0-1-1 0-1 1-1z" class="A B C"/><path d="M127 223h16q1 0 1 1t-1 1h-16q-1 0-1-1 0 0 1-1" class="E"/><path d="M127 223h16q1 0 1 1t-1 1h-16q-1 0-1-1 0 0 1-1z" class="A B C"/><use href="#uc" class="N"/><use href="#uc" class="A B C"/><path d="M150 320a8 8 0 01-4-1 8 8 0 00-4-1q-2 0-4 1l-4 1s-3 0-4-1a8 8 0 00-4-1 8 8 0 00-4 1q-2 1-4 1v2q2 0 4-1a8 8 0 01 4-1q2 0 4 1a8 8 0 00 8 0 9 9 0 01 8 0 8 8 0 00 4 1z" class="O"/><path d="M150 320a8 8 0 01-4-1 8 8 0 00-4-1q-2 0-4 1l-4 1s-3 0-4-1a8 8 0 00-4-1 8 8 0 00-4 1q-2 1-4 1v2q2 0 4-1a8 8 0 01 4-1q2 0 4 1a8 8 0 00 8 0 9 9 0 01 8 0 8 8 0 00 4 1v-2" class="A B C"/><path d="M150 322a7 7 0 01-4-1 8 8 0 00-4-1q-2 0-4 1-2 1-4 1-3 0-4-1a8 8 0 00-4-1 8 8 0 00-4 1q-2 1-4 1v2q2 0 4-1a10 10 0 01 7 0 7 7 0 00 4 1 8 8 0 00 4-1q2-1 4-1 2 0 4 1l4 1z" class="N"/><path d="M150 322a7 7 0 01-4-1 8 8 0 00-4-1q-2 0-4 1-2 1-4 1-3 0-4-1a8 8 0 00-4-1 8 8 0 00-4 1q-2 1-4 1v2q2 0 4-1a10 10 0 01 7 0 7 7 0 00 4 1 8 8 0 00 4-1q2-1 4-1 2 0 4 1l4 1V322" class="A B C"/><path d="M150 327a8 8 0 01-4-1q-2-1-4-1a8 8 0 00-4 1q-2 1-4 1a7 7 0 01-4-1 8 8 0 00-4-1q-2 0-4 1l-4 1v-2a8 8 0 00 4-1 10 10 0 01 7 0 8 8 0 00 4 1 8 8 0 00 4-1q2-1 4-1t4 1l4 1z" class="O"/><path d="M150 327a8 8 0 01-4-1q-2-1-4-1a8 8 0 00-4 1q-2 1-4 1a7 7 0 01-4-1 8 8 0 00-4-1q-2 0-4 1l-4 1v-2a8 8 0 00 4-1 10 10 0 01 7 0 8 8 0 00 4 1 8 8 0 00 4-1q2-1 4-1t4 1l4 1v2" class="A B C"/><use href="#uf" class="N"/><use href="#uf" class="A B C"/><use href="#ut" class="E"/><use href="#ut" class="A B C H"/><path d="M127 306h16q1 0 1 1 0 1-1 1h-16q-1 0-1-1 0-1 1-1" class="E"/><path d="M127 306h16q1 0 1 1 0 1-1 1h-16q-1 0-1-1 0-1 1-1z" class="A B C"/><use href="#ubd" class="E"/><use href="#ubd" class="A B C"/><path d="M122 287q-4 2-3 3 0 1 2 2 2 2 2 4a6 6 0 00 0-9" class="G"/><path d="M122 287q-4 2-3 3 0 1 2 2 2 2 2 4a6 6 0 00 0-9z" class="A B C"/><path d="M127 306h16V229h-16v76z" class="O"/><path d="M138 229v76m2-76v76m-13 0h16v-76h-16v76z" class="A B C"/><use href="#uk" class="G"/><use href="#uk" class="A B C H"/><path d="M127 267q-6 0-8-3 0-2 4-4h4z" class="G"/><path d="M127 267q-6 0-8-3 0-2 4-4h4v7" class="A B C"/><use href="#uab" class="G"/><use href="#uab" class="A B C"/><path d="M117 282q0-2 10-6l8-3q13-6.75 14-9v0l1 8q0 3-12 9l-10 4q-7.75 2.5-8 5l-2-8" class="G"/><path d="M117 282q0-2 10-6l8-3q13-6.75 14-9v0l1 8q0 3-12 9l-10 4q-7.75 2.5-8 5l-2-8z" class="A B C H"/><path d="M126 254q3-2 2-3-1-1-3-1l-3 1 2 6 2-1zm-1-3h1q1 0 1 1 0 1 0 2h-1zm7-2h-1-1l1 6 4-1h0v0l-2 1zm8 5q1-3 3-6h-1l-2 5-2-4h-1-1l4 6zm9-5v-1a3 3 0 00-2-1q-3 0-3 2l3 3q0 1-1 1-1 0-1-1h0v1a4 4 0 00 2 1q3 0 3-2l-3-3q0-1 1-1 1 0 1 1z" class="E"/><path d="M278 212s-1 1-1 1h-1s0 0-1 1-1-1-1-1l-1 1h-1q0 0-1 1h0-1l-1-1h0v-1 0q0-1 2-2a4 4 0 01 2 0q1-1 3-1 2 0 3 1a6 6 0 01 3-1q2 0 3 1 1 0 2 0 2 1 2 2v0 1h-1l-1 1h-1s0 0 0 0q-1 0-1 0h-1s-1-1-1-1-1 1-1 1q-1 0-1-1s-1 1-1 0-1-1-1-1" class="G"/><path d="M278 212s-1 1-1 1h-1s0 0-1 1-1-1-1-1l-1 1h-1q0 0-1 1h0-1l-1-1h0v-1 0q0-1 2-2a4 4 0 01 2 0q1-1 3-1 2 0 3 1a6 6 0 01 3-1q2 0 3 1 1 0 2 0 2 1 2 2v0 1h-1l-1 1h-1s0 0 0 0q-1 0-1 0h-1s-1-1-1-1-1 1-1 1q-1 0-1-1s-1 1-1 0-1-1-1-1z" class="A B D"/><path d="M276 208l1-2s1 1 1 2 0 2-1 2q-1 0-1-2" class="E"/><path d="M276 208l1-2s1 1 1 2 0 2-1 2q-1 0-1-2z" class="A B D"/><path d="M277 208q0-2 0-2 1 0 1 2 0 2-1 2-1 0-1-2" class="E"/><path d="M277 208q0-2 0-2 1 0 1 2 0 2-1 2-1 0-1-2z" class="A B D"/><path d="m271 215v-1a27 27 0 01 15 0l-1 1v1a23 23 0 00-7-1q-4 0-7 1z" class="E"/><path d="m271 215v-1a27 27 0 01 15 0l-1 1v1a23 23 0 00-7-1q-4 0-7 1v-1" class="A B D"/><path d="M278 218q4 0 6-1 1 0 1-1 0 0 0 0a24 24 0 00-6-1q-4 0-6 1 0 0 0 0 0 1 1 1l6 1" class="E"/><path d="M278 218q4 0 6-1 1 0 1-1 0 0 0 0a24 24 0 00-6-1q-4 0-6 1 0 0 0 0 0 1 1 1l6 1z" class="A B D"/><path d="M284 208q0 0 0 0 0 0 0 0t0 0a0 0 0 01 0 0" class="F"/><path d="M284 208q0 0 0 0 0 0 0 0t0 0a0 0 0 01 0 0zm0-1a0 0 0 01 0 0q0 0 0 0t0 0a0 0 0 01 0 0zm-1-1q0 0 0 0t0 0 0 0a0 0 0 01 0 0zm-1 0q0 0 0 0 0 0 0 0t0 0q0 0 0 0zm-1 0q0 0 0 0t0 0q0 0 0 0a0 0 0 01 0 0z" class="A B M"/><path d="m288 211v-1a3 3 0 00-3-3q-1 0-1 0" class="A B D R"/><path d="m283 209v-1q0-2-2-2-1 0-2 0" class="A B D"/><path d="M288 210q0 0 0 0t0 0 0 0q0 0 0 0zm0-2q0 0 0 0a0 0 0 01 0 0q0 0 0 0 0 0 0 0zm-1-1a0 0 0 01 0 0q0 0 0 0a0 0 0 01 0 0 0 0 0 01 0 0zm-1-1q0 0 0 0t0 0q0 0 0 0a0 0 0 01 0 0zm-1 0q0 0 0 0 1 0 0 0t0 0q0 0 0 0z" class="A B M"/><path d="m285 213h0s-1 0-1 0l-1-1s-1 1-1 1-1-1-1-1-1 0-1 0-1-1-1-1-1 1-1 1-1 0-1 0 0 1-1 1-1-1-1-1 0 1-1 1h-1 0 0 0a27 27 0 01 7-1q4 0 7 1v-1" class="E"/><path d="m285 213h0s-1 0-1 0l-1-1s-1 1-1 1-1-1-1-1-1 0-1 0-1-1-1-1-1 1-1 1-1 0-1 0 0 1-1 1-1-1-1-1 0 1-1 1h-1 0 0 0a27 27 0 01 7-1q4 0 7 1v-1z" class="A B D"/><path d="M271 208q0 0 0 0 0 0 0 0a0 0 0 01 0 0 0 0 0 01 0 0" class="F"/><path d="M271 208q0 0 0 0 0 0 0 0a0 0 0 01 0 0 0 0 0 01 0 0zm0-1q0 0 0 0t0 0q0 0 0 0a0 0 0 01 0 0zm1-1q0 0 0 0t0 0q0 0 0 0a0 0 0 01 0 0zm1 0q0 0 0 0 1 0 0 0t0 0q0 0 0 0zm1 0q0 0 0 0 0 0 0 0 0 0 0 0a0 0 0 01 0 0z" class="A B M"/><path d="m268 211v-1a3 3 0 01 3-3q1 0 1 0" class="A B D R"/><path d="m273 209v-1q0-2 3-2a3 3 0 01 2 0" class="A B D"/><path d="M267 210q0 0 0 0t0 0a0 0 0 01 0 0q0 0 0 0zm0-2q0 0 0 0 0 0 0 0t0 0q0 0 0 0zm1-1q0 0 0 0a0 0 0 01 0 0 0 0 0 01 0 0 0 0 0 01 0 0zm1-1q0 0 0 0 0 0 0 0 0 0 0 0a0 0 0 01 0 0zm1 0q0 0 0 0a0 0 0 01 0 0 0 0 0 01 0 0q0 0 0 0z" class="A B M"/><path d="M278 211h0v0q0 1 1 1a1 1 0 00 1-1h0v0q0 1 1 1 1 0 1-1v0h0 0 0a1 1 0 00 1 1q1 0 1 0h0v0q0 0 0 1h1l1-1v0s0 1-1 1q0 0-1 0 0 0-1-1h-1q-1 0-1-1h-1q-1 0-1-1h-1q-1 0-1-1 0 1-1 1-1 0-1 0a2 2 0 01-1 1q-1 0-1 0 0 1-1 1 0 0-1 0 0 0-1 1t-1 0l-1-1h0l1 1q1 0 1 0 0 0 0-1v0h0q0 0 1 0a1 1 0 00 1-1v-1h0v0q0 1 1 1t1-1v0h0q0 1 1 1 1 0 1-1v0h0" class="E"/><path d="M278 211h0v0q0 1 1 1a1 1 0 00 1-1h0v0q0 1 1 1 1 0 1-1v0h0 0 0a1 1 0 00 1 1q1 0 1 0h0v0q0 0 0 1h1l1-1v0s0 1-1 1q0 0-1 0 0 0-1-1h-1q-1 0-1-1h-1q-1 0-1-1h-1q-1 0-1-1 0 1-1 1-1 0-1 0a2 2 0 01-1 1q-1 0-1 0 0 1-1 1 0 0-1 0 0 0-1 1t-1 0l-1-1h0l1 1q1 0 1 0 0 0 0-1v0h0q0 0 1 0a1 1 0 00 1-1v-1h0v0q0 1 1 1t1-1v0h0q0 1 1 1 1 0 1-1v0h0z" class="A B D"/><path d="M278 213q-4 0-7 1h0 0q3-1 8-1t8 1h0 0a27 27 0 00-7-1" class="E"/><path d="M278 213q-4 0-7 1h0 0q3-1 8-1t8 1h0 0a27 27 0 00-7-1z" class="A B D"/><path d="M275 214q0 0 0 0a0 0 0 01 0 0 0 0 0 01 0 0q0 0 0 0" class="F"/><path d="M275 214q0 0 0 0a0 0 0 01 0 0 0 0 0 01 0 0q0 0 0 0z" class="A B D"/><use href="#uae" class="G"/><use href="#uae" class="A B D"/><path d="M273 215h-1a0 0 0 01 0 0h0 1q0 0 0 0a0 0 0 01 0 0z" class="L"/><path d="M273 215h-1a0 0 0 01 0 0h0 1q0 0 0 0a0 0 0 01 0 0h-1" class="A B D"/><path d="m270 215h0 1v1z" class="G"/><path d="m270 215h0 1v1h-1" class="A B D"/><path d="M280 214q0 0 0 0t0 0q0 0 0 0a0 0 0 01 0 0" class="F"/><path d="M280 214q0 0 0 0t0 0q0 0 0 0a0 0 0 01 0 0z" class="A B D"/><path d="M282 215h1 0 0-1q0 0 0 0 0 0 0 0z" class="L"/><path d="M282 215h1 0 0-1q0 0 0 0 0 0 0 0h1" class="A B D"/><path d="m285 215h0-1v1z" class="G"/><path d="m285 215h0-1v1h1" class="A B D"/><path d="M278 217a25 25 0 01-6-1 25 25 0 01 6-1q4 0 6 1-2 1-6 1" class="G"/><path d="M278 217a25 25 0 01-6-1 25 25 0 01 6-1q4 0 6 1-2 1-6 1z" class="A B D H"/><path d="m285 212h0q0 0 0 0h0q0 0 0 0" class="E"/><path d="m285 212h0q0 0 0 0h0q0 0 0 0z" class="A B D"/><use href="#uak" class="E"/><use href="#uak" class="A B D"/><path d="M275 211q0 0 0 0h0 0q0 0 0 0" class="E"/><path d="M275 211q0 0 0 0h0 0q0 0 0 0z" class="A B D"/><path d="m270 212h0q0 0 0 0h0q0 0 0 0" class="E"/><path d="m270 212h0q0 0 0 0h0q0 0 0 0z" class="A B D"/><path d="m278 208h-1l1 1h0 0l1-1z" class="E"/><path d="m278 208h-1l1 1h0 0l1-1h-1" class="A B D"/><path d="m276 210h0 1 0 0-1z" class="E"/><path d="m276 210h0 1 0 0-1v1" class="A B D"/><path d="m280 210h0-1 0v0h1z" class="E"/><path d="m280 210h0-1 0v0h1v1" class="A B D"/><path d="m272 209-1 1 1 1h0 0v-1z" class="E"/><path d="m272 209-1 1 1 1h0 0v-1h-1" class="A B D"/><path d="m271 211h0l1-1v0h0-1z" class="E"/><path d="m271 211h0l1-1v0h0-1v1" class="A B D"/><path d="m275 210v1h-1 0 0l1-1z" class="E"/><path d="m275 210v1h-1 0 0l1-1h0" class="A B D"/><path d="M270 211v1h-1 0v0l1-1z" class="E"/><path d="M270 211v1h-1 0v0l1-1h1" class="A B D"/><use href="#uas" class="E"/><use href="#uas" class="A B D"/><path d="m283 209 1 1-1 1h0 0v-1z" class="E"/><path d="m283 209 1 1-1 1h0 0v-1h1" class="A B D"/><path d="m285 211h0l-1-1v0h0 1z" class="E"/><path d="m285 211h0l-1-1v0h0 1v1" class="A B D"/><path d="m281 210v1h1 0 0l-1-1z" class="E"/><path d="m281 210v1h1 0 0l-1-1h0" class="A B D"/><path d="M286 211v1h1 0v0l-1-1z" class="E"/><path d="M286 211v1h1 0v0l-1-1h-1" class="A B D"/><use href="#uam" class="E"/><use href="#uam" class="A B D"/><use href="#ual" class="E"/><use href="#ual" class="A B D"/><path d="M277 205q0-1 1-1 1 0 1 1 0 1-1 1a1 1 0 01-1-1" class="E"/><path d="M278 205v1H277v-1h0v-1h0v0h0v-1h1v1h1v1h-1v1h0" class="E"/><path d="M278 205v1H277v-1h0v-1h0v0h0v-1h1v1h1v1h-1v1h0z" class="A B D"/><path d="M279 205v1h-2v-1h1v-1h-1v0h1v-1h1v1h1v1h-1v1h1" class="E"/><path d="M278 205q1 0 1 1t-1 1a1 1 0 01-1-1q0-1 1-1" class="A B D"/><use href="#uaa" class="E"/><use href="#uaa" class="A B D"/><path d="M268 212q0 0 0 0 0 0 0 0h0q0 0 0 0" class="E"/><path d="M268 212q0 0 0 0 0 0 0 0h0q0 0 0 0z" class="A B D"/><use href="#up" class="E"/><use href="#up" class="A B D"/><path d="M288 212q0 0 0 0t0 0h0q0 0 0 0" class="E"/><path d="M288 212q0 0 0 0t0 0h0q0 0 0 0z" class="A B D"/><use href="#uaw" class="E"/><use href="#uaw" class="A B C"/><path d="M286 227h-17q1 0 1-1 0-1-1-1h17 0q-1 0-1 1 0 1 1 1" class="E"/><path d="M286 227h-17q1 0 1-1 0-1-1-1h17 0q-1 0-1 1 0 1 1 1z" class="A B C H"/><path d="M270 227h16q1 0 1 1t-1 1h-16q-1 0-1-1 0-1 1-1" class="E"/><path d="M270 227h16q1 0 1 1t-1 1h-16q-1 0-1-1 0-1 1-1z" class="A B C"/><path d="M270 223h16q1 0 1 1t-1 1h-16q-1 0-1-1t1-1" class="E"/><path d="M270 223h16q1 0 1 1t-1 1h-16q-1 0-1-1t1-1z" class="A B C"/><path d="M263 317q2 0 4-1a8 8 0 01 4-1q2 0 4 1l4 1q2 0 4-1a8 8 0 01 4-1 8 8 0 01 4 1q2 1 4 1v2a8 8 0 01-4-1 8 8 0 00-4-1q-2 0-4 1-2 1-4 1a8 8 0 01-4-1 8 8 0 00-4-1 8 8 0 00-4 1q-2 1-4 1v-2" class="N"/><path d="M263 317q2 0 4-1a8 8 0 01 4-1q2 0 4 1l4 1q2 0 4-1a8 8 0 01 4-1 8 8 0 01 4 1q2 1 4 1v2a8 8 0 01-4-1 8 8 0 00-4-1q-2 0-4 1-2 1-4 1a8 8 0 01-4-1 8 8 0 00-4-1 8 8 0 00-4 1q-2 1-4 1v-2z" class="A B C"/><use href="#ub" class="O"/><use href="#ub" class="A B C"/><use href="#ue" class="N"/><use href="#ue" class="A B C"/><use href="#ud" class="O"/><use href="#ud" class="A B C"/><path d="M263 329a8 8 0 00 4-1q2-1 4-1 2 0 4 1l4 1a8 8 0 00 4-1 8 8 0 01 4-1q2 0 4 1 2 1 4 1v-2a8 8 0 01-4-1 8 8 0 00-4-1 8 8 0 00-4 1 8 8 0 01-4 1q-2 0-4-1t-4-1q-2 0-4 1l-4 1v2" class="N"/><path d="M263 329a8 8 0 00 4-1q2-1 4-1 2 0 4 1l4 1a8 8 0 00 4-1 8 8 0 01 4-1q2 0 4 1 2 1 4 1v-2a8 8 0 01-4-1 8 8 0 00-4-1 8 8 0 00-4 1 8 8 0 01-4 1q-2 0-4-1t-4-1q-2 0-4 1l-4 1v2z" class="A B C"/><use href="#um" class="E"/><use href="#um" class="A B C H"/><path d="M270 306h16q1 0 1 1 0 1-1 1h-16q-1 0-1-1 0-1 1-1" class="E"/><path d="M270 306h16q1 0 1 1 0 1-1 1h-16q-1 0-1-1 0-1 1-1z" class="A B C"/><use href="#ube" class="E"/><use href="#ube" class="A B C"/><path d="M291 287q4 2 3 3 0 1-2 2-2 2-2 4a6 6 0 01 0-9" class="G"/><path d="M291 287q4 2 3 3 0 1-2 2-2 2-2 4a6 6 0 01 0-9z" class="A B C"/><path d="M270 306h16V229h-16v76z" class="O"/><path d="M281 229v76m2-76v76m-13 0h16V229h-16v76z" class="A B C"/><path d="M254 258a50 50 0 01 23-2q14.75 3.25 16 8v0l4-8q0-6-18-9a54 54 0 00-9-1q-10 0-16 2z" class="G"/><path d="M254 258a50 50 0 01 23-2q14.75 3.25 16 8v0l4-8q0-6-18-9a54 54 0 00-9-1q-10 0-16 2v9" class="A B C H"/><path d="M286 267q7 0 8-3 0-2-4-4h-4z" class="G"/><path d="M286 267q7 0 8-3 0-2-4-4h-4v7" class="A B C"/><use href="#uz" class="G"/><use href="#uz" class="A B C"/><path d="M295 282q0-2-10-6l-8-3q-13-6.75-14-9v0l-1 8q0 3 12 9l10 4q7.75 2.5 8 5l1-8" class="G"/><path d="M295 282q0-2-10-6l-8-3q-13-6.75-14-9v0l-1 8q0 3 12 9l10 4q7.75 2.5 8 5l1-8z" class="A B C H"/><path d="m264 254 2-7h0 0l-1 5q-2-2-3-4h-1-1l4 6h0zm6-7h-2v6h4v-1h-3zm7 1h2v-1h-6v1h2v6h2v-5m2 6h2l1-3 1 1 1 2h1q1 0 1 0v-1l-1-3q2 0 2-1 0-1-1-2-1 0-2 0h-2zm3-5q2 0 2 1v0q0 1-2 1zm8 7v2h1 1v-7h-1l-6 4h0 0l2-1 2 1zm-2-2 2-1v2z" class="E"/><path d="M182 192q0-2 2-2s2 1 2 2-1 2-2 2a2 2 0 01-2-2z" class="A B J"/><path d="M206 175q10 0 16 2a32 32 0 00 15 2q4 0 10 2a27 27 0 01 7 5l-2 1v4l-4 5-2 2-5 4h-2l-1 2-32-4-32 4-1-2h-2l-5-4-2-2-4-5v-4l-2-1a28 28 0 01 8-5 26 26 0 01 10-2q3 0 7 0a30 30 0 00 8-2q6-2 16-2z" class="A D G"/><path d="M206 217q-18 0-30-4a1 1 0 01-1-1q0-1 1-1a109 109 0 01 30-4q18 0 30 4a1 1 0 01 0 2q-12 4-30 4" class="A C E"/><path d="M206 216q-16 0-28-3 11-3 28-3a115 115 0 01 28 3q-11 3-28 3" class="G"/><path d="M207 216v-6m-2 6v-6" class="A B J"/><path d="M204 216v-6m-2 6v-6" class="A B M"/><path d="M201 216v-6m-3 6v-6m1 6v-6m-4 6v-5m1 5v-6" class="A B D"/><path d="M192 215V210m1 5V210m1 5v-5m-3 5v-4" class="A B C"/><path d="M190 214v-4m-1 4v-4" class="A B I"/><path d="M186 214v-3m1 3v-4m-2 3V211" class="A B P"/><path stroke-width=".7" d="M184 214v-2m-1 2v-2m-1 2v-1" class="A B"/><path stroke-width=".9" d="M180 213v-1" class="A B"/><path d="M214 215v-6m-3 6v-6m-2 6v-6" class="A B J"/><path d="M206 207a108 108 0 00-30 4q1 0 0-3-2-2-2-2 13-4 33-4a123 123 0 01 33 4s-2 0-2 2q-1 3 0 3-12-4-30-4" class="A C E"/><path d="M206 202q-20 0-33 4a1 1 0 01-1-1 1 1 0 01 1-1 121 121 0 01 33-4q20 0 34 4 1 0 1 1t-1 1q-13-4-33-4" class="A C E"/><path d="M206 216q-16 0-28-3 11-3 28-3a115 115 0 01 28 3q-11 3-28 3z" class="A B C H"/><path d="M197 205q0-1 1-1 1 0 1 1 0 1-1 1a1 1 0 01-1-1" class="A C F"/><path d="M206 206H203a1 1 0 01 0-2h6q1 0 1 1 0 1-1 1h-3" class="A C G"/><path d="m190 206h-2q-1 0-1-1a1 1 0 01 1-1h2 2q1 0 1 1 0 1-1 1h-2" class="A C L"/><path d="M181 207q0-1 1-1t1 1-1 1a1 1 0 01-1-1" class="A C F"/><path d="m174 208 1-2h3l-3 2-2-1" class="A C G"/><path d="m222 206h2q1 0 1-1a1 1 0 00-1-1h-2-2a1 1 0 00-1 1q0 1 1 1h2" class="A C L"/><path d="M213 205q0-1 1-1 1 0 1 1s0 1-1 1a1 1 0 01-1-1m16 2q0-1 1-1t1 1q0 1-1 1a1 1 0 01-1-1" class="A C F"/><path d="m238 208-1-2h-3l3 2 2-1" class="A C G"/><path d="M177 213q12-3 29-3s21 1 29 3" class="A B C"/><path d="m182 184 1 1 2-3a7 7 0 01-4-7q.75-7 12-8 5 0 8 2v-2a17 17 0 00-9-2q-11.5.75-14 9a9 9 0 00 3 8z" class="E"/><path d="m182 184 1 1 2-3a7 7 0 01-4-7q.75-7 12-8 5 0 8 2v-2a17 17 0 00-9-2q-11.5.75-14 9a9 9 0 00 3 8l-1 2" class="A B C"/><path d="M182 184a9 9 0 01-4-7q0-5 5-8a9 9 0 00-3 7 9 9 0 00 3 7z" class="E"/><path d="M182 184a9 9 0 01-4-7q0-5 5-8a9 9 0 00-3 7 9 9 0 00 3 7l-1 2" class="A B C"/><use href="#uj" class="E"/><use href="#uj" class="A B C"/><path d="M163 173a11 11 0 00-4 4 9 9 0 00-1 4q0 4 2 6l-2 2a10 10 0 01-2-6q0-6 6-10" class="E"/><path d="M163 173a11 11 0 00-4 4 9 9 0 00-1 4q0 4 2 6l-2 2a10 10 0 01-2-6q0-6 6-10z" class="A B C"/><path d="M206 164q3 0 4 3 0 2 0 4v1q0 5 1 8l-5 5-5-5q1-3 1-8v-1q0-2 0-4 0-3 4-3" class="E"/><path d="M206 164q3 0 4 3 0 2 0 4v1q0 5 1 8l-5 5-5-5q1-3 1-8v-1q0-2 0-4 0-3 4-3z" class="A B C"/><path d="M206 166q2 0 2 1 0 2 0 4v1q0 5 1 8l-3 3-3-3q1-3 1-8v-1-4a2 2 0 01 2-1" class="E"/><path d="M206 166q2 0 2 1 0 2 0 4v1q0 5 1 8l-3 3-3-3q1-3 1-8v-1-4a2 2 0 01 2-1z" class="A B C"/><path d="m230 184-1 1-2-3a7 7 0 00 4-6v-1q-.75-7-12-8a15 15 0 00-8 2v-2a17 17 0 01 9-2q11.75.75 13 9a9 9 0 01-3 8z" class="E"/><path d="m230 184-1 1-2-3a7 7 0 00 4-6v-1q-.75-7-12-8a15 15 0 00-8 2v-2a17 17 0 01 9-2q11.75.75 13 9a9 9 0 01-3 8l1 2" class="A B C"/><path d="M230 184a9 9 0 00 4-7q0-5-5-8a9 9 0 01 3 7 9 9 0 01-3 7z" class="E"/><path d="M230 184a9 9 0 00 4-7q0-5-5-8a9 9 0 01 3 7 9 9 0 01-3 7l1 2" class="A B C"/><use href="#ui" class="E"/><use href="#ui" class="A B C"/><path d="M249 173a11 11 0 01 4 4 9 9 0 01 1 4 9 9 0 01-2 6l2 2a10 10 0 00 2-6q-1-6-6-10" class="E"/><path d="M249 173a11 11 0 01 4 4 9 9 0 01 1 4 9 9 0 01-2 6l2 2a10 10 0 00 2-6q-1-6-6-10z" class="A B C"/><path d="M204 181q0-2 2-2 2 0 2 2s-1 2-2 2a2 2 0 01-2-2" class="F"/><path d="M204 181q0-2 2-2 2 0 2 2s-1 2-2 2a2 2 0 01-2-2z" class="A B C"/><path d="M204 178q0-2 2-2 2 0 2 2s-1 2-2 2a2 2 0 01-2-2m0-4q0-1 1-1 1 0 2 1 0 1-2 1l-1-1m0-3q0-1 1-1 1 0 1 1s0 1-1 1a1 1 0 01-1-1m0-3q0-1 1-1t1 1q0 1-1 1a1 1 0 01-1-1" class="A C F"/><path d="m206 192h1a5 5 0 00 4 6 5 5 0 00 4-3l1-2s0 2 0 2q0 4 5 4a5 5 0 00 5-5l2-2 1 2a4 4 0 00 0 2 4 4 0 00 4 4q2 0 4-2l1-1v2q0 2 2 3 0 0 4-2 3-3 3-3v2s-2 3-4 4l-4 1q-2 0-3-3a7 7 0 01-3 1 7 7 0 01-6-4 7 7 0 01-10 0 7 7 0 01-5 2 7 7 0 01-6-3 7 7 0 01-6 3 7 7 0 01-5-2 7 7 0 01-10 0 7 7 0 01-6 4 7 7 0 01-3-1q-1 2-3 3l-4-1-4-4v-2s1 1 3 3 4 2 4 2q2-1 2-3v-2l1 1a5 5 0 00 4 2q4 0 4-4a4 4 0 00 0-2l1-2 2 2v1q0 4 5 4 3 0 5-4v-2s1 2 1 2a5 5 0 00 4 3 5 5 0 00 4-6h1" class="A C E"/><path d="M239 198q0-1-1-2-1 0-2 1 0 1 1 2 1 0 2-1m-20-4q0-1-1-2-1 0-1 1 0 1 1 2 1 0 1-1m-24 0q0-1 1-2 1 0 1 1 0 1-1 2-1 0-1-1m-21 4q0-1 1-2 1 0 2 1t0 2q-1 0-2-1" class="A C F"/><path d="M183 184a5 5 0 01 2 3s0 0 1-1 1 0 1 0v1 2l-1 2a2 2 0 00-2 0 2 2 0 00-1 1s-1-1-1-1l-1-2-1-1s0 0 1 0q1 0 1 0a5 5 0 01 1-3m0 10-1-1q0-1 0-1s-1 0-2-1q-2 0-2 0h-1 0v1a5 5 0 00-3 2 5 5 0 00 4 1v1 1h1l4-2m3 0v-1l-1-1 1-1 2-1h1v1 1a5 5 0 01 3 1 5 5 0 01-3 2l1 1h-1-2l-2-1" class="A C E"/><path d="M182 192q0-2 2-2s2 1 2 2-1 2-2 2a2 2 0 01-2-2" class="A C G"/><path d="M206 181a6 6 0 01 2 4s0 0 1 0q1 0 1 0v1l-2 4a2 2 0 00-2-1q-1 0-2 1 0 0-1-2l-1-2v-1h1q1 0 1 0 0-2 2-4" class="A C E"/><path d="M205 192a2 2 0 01 0-1q0-1 0-1s-1-1-2-1-2-1-2-1h-1v1 1a6 6 0 00-4 2q2 2 4 2v1 1h1l4-2m3 0a2 2 0 00 0-3s1-1 2-1a8 8 0 01 2-1h1v1 1q2 0 4 2a6 6 0 01-4 2v2h-1l-2-1q-2-1-2-1m22-8a5 5 0 00-2 3l-1-1h-1v1q0 1 0 2 0 2 1 2a2 2 0 01 2 0q1 0 1 1l1-1q1-1 1-2l1-1s0 0-1 0h-1a5 5 0 00-1-3m0 10q0 0 1-1v-1s1 0 2-1q2 0 2 0h1l-1 1a5 5 0 01 3 2 5 5 0 01-4 1v1 1h-1q0 0-2-1l-1-1m-3 0v-1q0-1 1-1s-1-1-1-1l-2-1h-1v1 1a5 5 0 00-4 1q1 1 3 2v1h0 1 2l2-1" class="A C E"/><path d="M226 192q0-2 2-2s2 1 2 2a2 2 0 01-2 2 2 2 0 01-2-2m23 4q-1-1-2 0-1 1 0 2 1 1 2 0 2-2 0-2" class="A C G"/><path d="m246 198 1-1q1-1 2 0h0s1-2 2-3 3 0 3 0a3 3 0 00-3-3 3 3 0 00-2 1v-1s-1 0-2 2 0 4 0 4 0-1-1-2a8 8 0 00-2-2l-1-1h0v1a8 8 0 00-4 0 5 5 0 00 2 2l-1 1h0 1 2 2m-80 0q0-1-1-1-1-1-2 0h0s-1-2-2-3-3 0-3 0a3 3 0 01 3-3q2 0 2 1v-1s1 0 2 2q0 4 0 4s0-1 1-2a8 8 0 01 2-2l1-1v1a8 8 0 01 4 0 5 5 0 01-2 2l1 1h0-1-3-2" class="A C E"/><path d="M163 197q1-1 2 0 1 1 0 2-1 1-2 0s-1-2 0-2m41-6q0-2 2-2 2 0 2 2s-1 2-2 2a2 2 0 01-2-2" class="A C G"/><path d="M202 161q0-4 4-4s4 2 4 4-2 4-4 4a4 4 0 01-4-4" class="A D N"/><path d="M205 149v2h-2v2h2v6H202v1q0 1 0 2h8q0-1 0-2v-1h-3v-6h2v-2h-2v-2z" class="A D E"/><path d="M206 331a82 82 0 01-36-8 23 23 0 01-13-20v-32h96v32a23 23 0 01-13 20 81 81 0 01-35 8" class="O"/><path d="M206 331a82 82 0 01-36-8 23 23 0 01-13-20v-32h96v32a23 23 0 01-13 20 81 81 0 01-35 8z" class="A B I"/><use href="#uav" class="O"/><use href="#uav" class="A B I"/><use href="#us" class="G"/><path d="M169 321l6 3v-55h-6z" class="A E I"/><path d="M158 302a24 24 0 00 6 15v-48h-5z" class="A E H I"/><path fill="#c7b500" d="M179 325a27 27 0 00 6 0v-56h-6v56z" class="A I"/><path d="M190 324a19 19 0 00 6-2v-52H190z" class="A E I"/><use href="#uay" class="G"/><use href="#uay" class="A B I"/><path d="M201 316q4-3.75 5-12v-35H201v47z" class="A E I"/><use href="#us" class="A B I"/><use href="#ur" class="G"/><use href="#ur" class="A B I"/><path d="m215 294h0q0 1-1 1a1 1 0 01-1-1v0h-2a2 2 0 00 2 3v4h2V297a3 3 0 00 2-2h4v-1zm22 0v1h-4v1l5 5-1 1-5-5h0v9h-2V297h0l-5 5-1-1 5-5h0-4V294h13zm3 0v1h4q0 1 2 2v4h2V297a3 3 0 00 2-2v0h-2 0q0 1-1 1-1 0-1-1h0zm-7 22a16 16 0 00 4-1l1 1a18 18 0 01-4 1 3 3 0 01-3 2 3 3 0 01-2-2 18 18 0 01-5-1l1-1q2 1 4 1a3 3 0 01 2-1v-7h2v7q1 0 2 1zm-11-2-1 1a17 17 0 01-4-3q-1 0-2 0a2 2 0 01 0-4h0a15 15 0 01-1-5h2a13 13 0 00 1 4q1 0 1 0l4-4 1 1-4 4q1 2 0 3a15 15 0 00 3 3m-6-5q1-1 2 0 1 1 0 1a1 1 0 01-2 0 1 1 0 01 0-2m-2-4h-2v-4l2-1v2q0 1 0 3m1-5h2v2 2l-2 1v-3zm6 14a16 16 0 00 5 3v-2a14 14 0 01-4-2zm-1 1a17 17 0 00 5 3l-1 1a19 19 0 01-4-2zm2-9 2 1 3-3-1-1zm-1-1-1-1 3-3 2 1zm18 10 1 1a17 17 0 00 4-3q1 0 2 0a2 2 0 00 0-4h0a15 15 0 00 1-5h-2a13 13 0 01-1 4h-1l-4-4-1 1 4 4a2 2 0 00 0 3 15 15 0 01-3 3m6-5a1 1 0 00-2 0 1 1 0 00 0 1 1 1 0 00 2 0 1 1 0 00 0-2m2-4h2v-4l-2-1v2q0 2 0 3zm-1-5h-2v2 2l2 1v-3zm-6 14a16 16 0 01-5 3v-2a14 14 0 00 4-2zm1 1a17 17 0 01-5 3l1 1a19 19 0 00 4-2zm-2-9-2 1-3-3 1-1zm1-1 1-1-3-3-2 1zm-20-9v2h4v-2zm21 0v2h-4v-2zm-12 22q0-1 1-1a1 1 0 01 1 1q0 1-1 1a1 1 0 01-1-1m2-8h2v-4h-2zm-2 0h-2v-4h2z" class="E"/><path d="M212 294q0-2 2-2V287h2v5q1 0 2 2h4v0h-6a1 1 0 00-1-1q-1 0-1 1zm12 0v0h4 0l-5-6 1-1 5 6h0V285h2v7h0l5-6 1 1-5 6v1h4v0zm22 0a1 1 0 01 1-1q1 0 1 1h2q0-2-2-2V287h-2v5q-1 0-2 2h-4v0zm-30-15 6 7 1-1-6-7v-1h4V276h-4a3 3 0 00-2-2 3 3 0 00-3 2 3 3 0 00 2 2v5h2v-5zm32 0v5h-2v-5h0l-6 7-1-1 6-7h0-4V276h4a3 3 0 01 2-2 3 3 0 01 3 2 2 2 0 01-2 2zm-16 0v3h-2v-3a3 3 0 01-2-2h-4V276h4a3 3 0 01 2-2q2 0 2 2h4v2h-4a3 3 0 01-2 2m-18 4h-2v4h2zm2 0h2v4h-2zm31 0h-2v4h2zm2 0h2v4h-2zm-26 1 2-1 3 3-1 1zm-1 1-1 1 3 3 2-1zm18-1-2-1-3 3 1 1zm1 1 1 1-3 3-2-1zm-20 9v-2h4v2zm-7-17q0-1 1-1a1 1 0 01 1 1q0 1-1 1a1 1 0 01-1-1m12 1v2H220v-2zm0-2v-2H220v2zm16 18v-2h-4v2zm4-17q0-1 1-1a1 1 0 01 1 1q0 1-1 1a1 1 0 01-1-1m-16 0q0-1 1-1a1 1 0 01 1 1q0 1-1 1a1 1 0 01-1-1m6 1v2h5v-2zm0-2v-2h5v2zm-6 5h-2v4h2V281m2 0h2v4h-2z" class="E"/><path d="M233 316a16 16 0 00 4-1l1 1a18 18 0 01-4 1 3 3 0 01-3 2 3 3 0 01-2-2 18 18 0 01-5-1l1-1q2 1 4 1a3 3 0 01 2-1v-7h2v7q1 0 2 1zm-5-20h0-4V294h4 0l-5-6 1-1 5 6h0V285h2v7h0l5-6 1 1-5 6v1h4v2h-4q0 0 0 0l5 5-1 1-5-5h0v9h-2V297h0l-5 5-1-1 5-5m-13-17 6 7 1-1-6-7v-1h4V276h-4a3 3 0 00-2-2 3 3 0 00-3 2 3 3 0 00 2 2v5h2v-5zm6 35-1 1a17 17 0 01-4-3q-1 0-2 0a2 2 0 01 0-4h0a15 15 0 01-1-5h2a13 13 0 00 1 4q1 0 1 0l4-4 1 1-4 4q1 2 0 3a15 15 0 00 3 3zm-8-13V297a3 3 0 01-2-2q0-2 2-2V287h2v5q1 0 2 2h4v2h-4a3 3 0 01-2 2v4h-2m2 8q1-1 2 0 1 1 0 1a1 1 0 01-2 0 1 1 0 01 0-2zm-2-4h-2v-4l2-1v2q0 1 0 3zm1-5h2v2 2l-2 1v-3-3zm6 14a16 16 0 00 5 3v-2a14 14 0 01-4-2l-1 1m-1 1a17 17 0 00 5 3l-1 1a19 19 0 01-4-2v-2" class="B D Q"/><path d="m222 305 2 1 3-3-1-1-4 4m-1-1-1-1 3-3 2 1-4 4m-8-10q0-1 1-1 1 0 1 1 0 1-1 1a1 1 0 01-1-1zm26 19 1 1a17 17 0 00 4-3q1 0 3 0a2 2 0 00 0-4h0a15 15 0 00 1-5h-2a13 13 0 01-1 4h-1l-4-4-1 1 4 4a2 2 0 00 0 3 15 15 0 01-3 3zm8-13V297a3 3 0 00 2-2q0-2-2-2V287h-2v5q-1 0-2 2h-4v2h4q0 1 2 2v4zm-2 8a1 1 0 00-2 0 1 1 0 00 0 1 1 1 0 00 2 0 1 1 0 00 0-2zm2-4h2v-4l-2-1v2q0 1 0 3zm-1-5h-2v2 2l2 1v-3-3m2-20v5h-2v-5h0l-6 7-1-1 6-7v0h-4V276h4a3 3 0 01 2-2 3 3 0 01 3 2 3 3 0 01-2 2zm-16 0v3h-2v-3a3 3 0 01-2-2h-4V276h4q1-2 2-2 2 0 2 2h4v2h-4a3 3 0 01-2 2zm9 34a16 16 0 01-5 3v-2a14 14 0 00 4-2l1 1m1 1a17 17 0 01-5 3l1 1a19 19 0 00 4-2v-2m-27-31h-2v4h2v-5m2 0h2v4h-2V283m30 0h-2v4h2V283" class="B D Q"/><path d="m247 283h2v4h-2V283m-9 22-2 1-3-3 1-1 4 4m1-1 1-1-3-3-2 1 4 4m-18-20 2-1 3 3-1 1-4-4m-1 1-1 1 3 3 2-1-4-4m18-1-2-1-3 3 1 1 4-4m1 1 1 1-3 3-2-1 4-4m-20 9v-2h4v2h-6m0 2v2h4v-2h-6M213 277q0-1 1-1 1 0 1 1 0 1-1 1a1 1 0 01-1-1zm12 1v2h-4v-2h6m0-2v-2h-4v2h6m20 18q0-1 1-1 1 0 1 1 0 1-1 1a1 1 0 01-1-1zm-4-1v-2h-4v2h6m0 2v2h-4v-2h6m-12 22q0-1 1-1t1 1q0 1-1 1a1 1 0 01-1-1zm2-8h2v-4h-2v5m-2 0h-2v-4h2v5m16-33q0-1 1-1a1 1 0 01 1 1q0 1-1 1a1 1 0 01-1-1zm-16 0q0-1 1-1a1 1 0 01 1 1q0 1-1 1a1 1 0 01-1-1zm6 1v2h5v-2h-6m0-2v-2h5v2h-6m-6 5h-2v4h2V281m2 0h2v4h-2V281" class="B D Q"/><path d="M228 295a3 3 0 01 3-2 3 3 0 01 3 2 3 3 0 01-3 2q-2 0-3-2" class="L"/><use href="#ul" class="K"/><use href="#ul" class="A B C"/><path fill="#ed72aa" d="M238 228v1q0 1 0 2 0 0 0 1v1h-1-1v1l2 2v1s0-1-1-1l-1-1s1 1 1 2v2l-2-2s0 1 0 2v2l-2-2 1 1s0 2 2 4q1 3 5 3s2-5 1-7a17 17 0 01-1-5v-3a8 8 0 01 0-3l1-2v-1-1l1 1v2s0-1 1-2 2-1 2-1h0q0 1-1 3l-2 2s1 0 1 0h1s-1 0-1 2l-1 2s-1 1-2 2 0 4 0 5 2 4 2 6 0 3-2 5q-2 1-3 1 0 0-1 3s1 2 1 2q1 0 1 1v1q0 0 0 1l-2 4v1 1q-1 0-1 0h-1q0 0 0-1v-1q0 0 0 0v1h-1q-1 0-1 0 0-1 1-1 1 0 0 0t-1 0h-1v-1q0 0 0-1s1 0 1 0q1 0 1-1 0-1 0-1l-1-1v-1 2l-2-2v1 1l-2-2v-1-2-1h-1-2q0 1 0 3 0 2 0 2l-1 1h-1-1-1-1q-1 0-1 1 0 1 0 1h-1q-1 0-1 0t0-1q0 0 0 0h-1q0 0-1 0 0 0 0-1-1-1 0-1h1q0 0 0-1-1 0 0-1h1l1-1s0 1 1 1 1 1 2 1q1 0 1 0v-1-1s0 0 0 1v1-2-1 1 1s-1 0 0-2v-2l2-2h3 2s-3-1-4-2a10 10 0 01-2-2l-1-2s0 0-1 0l-2 2v-1-1s0 1-1 2l-1 1v-1-1s0 1-1 1q-2 0-2 0 0 1 0 1 0 0 0 0h-1-1q0 0 0-1s1-1 0-1h-1-1q0-1 0-1 0 0 0-1h1q0 0-1-1-1 0 0-1 0 0 0-1 0-1 1 0l1 1a4 4 0 00 2 0l3-2-1-1q0-1-1-1l-2-1h-2 1q0 0 1-1h0-1l-1-1h-1s1 0 1 0h1s-1 0-1-1l-1-1q0 0-1 0h-1q-1 0-1-1h0v-1h1q0 0-1-1l-1-1h1l1-1 1 1s0-1 0-1q0-1 0-1h1q1 0 1 0 0 0-1 1 0 1 0 1 0 1 1 1t2 1l2 1h1s0 0 1 0 2 0 3 0 1-1 1-1l-1-1q0 0 1 0 2 0 2-1 0-1-1-2-2 0-2-1 0-1 0-1 0 0 1 0 1 0 2 0l1-1h1s1 1 3 2l2 2" class="A C"/><use href="#uai"/><use href="#uai" class="A B D"/><use href="#uv"/><use href="#uv" class="A B J"/><path d="m237 231v-1h0" class="A B D"/><use href="#uq" class="K"/><use href="#uq" class="A B C"/><use href="#uu" class="K"/><use href="#uu" class="A B C"/><use href="#uw" class="K"/><use href="#uw" class="A B C"/><path d="m228 230h0 0z"/><path d="m228 230h0 0-1" class="A B D"/><path d="m229 230h0 0z"/><path d="m229 230h0 0-1" class="A B D"/><use href="#uax"/><use href="#uax" class="A B D"/><path d="m230 228h1 0z"/><path d="m230 228h1 0v-1" class="A B D"/><path d="M224 234s-1 0-1 1q0 1 0 1 0 0 2 0h1 1s-1 1-1 1v1l-1 2h1l2-1 1-1s0 1 0 1v2l1-1q0 0 1-1v-1s0 1 0 1l1 2s0-1 1-1l1-1v-1 1m-11 1s0-1 1-1l1-1h1m1 5 2-2" class="A B C"/><use href="#uo" class="K"/><use href="#uo" class="A B C"/><path d="M216 243s-1 0-1 0 0 1 0 1 0 0 1 0h1v-1q0-1 0-1" class="K"/><path d="M216 243s-1 0-1 0 0 1 0 1 0 0 1 0h1v-1q0-1 0-1z" class="A B C"/><path d="M217 246s0 1 0 1 1 0 1 0v-1-1q0 0-1 0z" class="K"/><path d="M217 246s0 1 0 1 1 0 1 0v-1-1q0 0-1 0zm16 1s2 1 2 2-1 2-1 2" class="A B C"/><use href="#ux" class="K"/><use href="#ux" class="A B C"/><path d="M222 255s-1 0-1 0 0 1 0 1 1-1 1 0q1 0 1 0v-1-1" class="K"/><path d="M222 255s-1 0-1 0 0 1 0 1 1-1 1 0q1 0 1 0v-1-1z" class="A B C"/><path d="M224 258s0 1 0 1 1 1 1 1 0 0 0-1l1-1h-1" class="K"/><path d="M224 258s0 1 0 1 1 1 1 1 0 0 0-1l1-1h-1z" class="A B C"/><use href="#un" class="K"/><use href="#un" class="A B C"/><use href="#uac" class="K"/><use href="#uac" class="A B C"/><path d="M239 263s0 1 0 1h1q0 0 0-1 0-1 0-1h-1-1" class="K"/><path d="M239 263s0 1 0 1h1q0 0 0-1 0-1 0-1h-1-1z" class="A B C"/><path fill="#ffd691" d="M209 316q3 1 3 4 0 4-5 4s-5-2-5-4q0-4 3-4h0l-1-1h1 1v-1h1l1 1h0 1 1s0 0 0 1v1" class="A I"/><path d="M206 327s-4-3-6-3h-6l2 1 3 2q5.25.75 6 0m1 0s2-2 5-3q4 0 6 1l-2 1-4 2q-3 0-5 0h-1" class="A I L"/><path d="M207 324a5 5 0 01 0-7 5 5 0 01 2 4 5 5 0 01-2 4" class="A G I"/><path d="M206 329s1-2 1-3v-2h1s0 1 0 2v2h-1-1" class="A I L"/><path d="M254 191q0-1 1-1 1 0 1 1 0 1-1 1a1 1 0 01-1-1" class="F"/><path d="M254 191q0-1 1-1 1 0 1 1 0 1-1 1a1 1 0 01-1-1z" class="A B C"/><path d="M255 188q0-1 1-1t1 1q0 1-1 1a1 1 0 01-1-1" class="F"/><path d="M255 188q0-1 1-1t1 1q0 1-1 1a1 1 0 01-1-1z" class="A B C"/><path d="M256 185q0-1 1-1 1 0 1 1 0 1-1 1a1 1 0 01-1-1" class="F"/><path d="M256 185q0-1 1-1 1 0 1 1 0 1-1 1a1 1 0 01-1-1z" class="A B C"/><path d="M256 182q0-1 1-1 1 0 1 1 0 1-1 1a1 1 0 01-1-1" class="F"/><path d="M256 182q0-1 1-1 1 0 1 1 0 1-1 1a1 1 0 01-1-1z" class="A B C"/><path d="M256 179q0-1 1-1 1 0 1 1 0 1-1 1a1 1 0 01-1-1" class="F"/><path d="M256 179q0-1 1-1 1 0 1 1 0 1-1 1a1 1 0 01-1-1z" class="A B C"/><path d="M254 176q0-1 1-1 1 0 1 1 0 1-1 1a1 1 0 01-1-1" class="F"/><path d="M254 176q0-1 1-1 1 0 1 1 0 1-1 1a1 1 0 01-1-1z" class="A B C"/><path d="M252 174q0-1 1-1 1 0 1 1s0 1-1 1a1 1 0 01-1-1" class="F"/><path d="M252 174q0-1 1-1 1 0 1 1s0 1-1 1a1 1 0 01-1-1z" class="A B C"/><path d="M249 172q0-1 1-1a1 1 0 01 0 2q-1 0-1-1" class="F"/><path d="M249 172q0-1 1-1a1 1 0 01 0 2q-1 0-1-1z" class="A B C"/><path d="M246 170q0-1 1-1 1 0 1 1s0 1-1 1a1 1 0 01-1-1" class="F"/><path d="M246 170q0-1 1-1 1 0 1 1s0 1-1 1a1 1 0 01-1-1z" class="A B C"/><path d="M243 169q0-1 1-1a1 1 0 01 0 2 1 1 0 01-1-1" class="F"/><path d="M243 169q0-1 1-1a1 1 0 01 0 2 1 1 0 01-1-1z" class="A B C"/><path d="M240 168q0-1 1-1 1 0 1 1s0 1-1 1a1 1 0 01-1-1" class="F"/><path d="M240 168q0-1 1-1 1 0 1 1s0 1-1 1a1 1 0 01-1-1z" class="A B C"/><path d="M237 168q0-1 1-1 1 0 1 1s0 1-1 1a1 1 0 01-1-1" class="F"/><path d="M237 168q0-1 1-1 1 0 1 1s0 1-1 1a1 1 0 01-1-1z" class="A B C"/><path d="M233 168q0-1 1-1t1 1q0 1-1 1a1 1 0 01-1-1" class="F"/><path d="M233 168q0-1 1-1t1 1q0 1-1 1a1 1 0 01-1-1z" class="A B C"/><path d="M230 168q0-1 1-1t1 1q0 1-1 1a1 1 0 01-1-1" class="F"/><path d="M230 168q0-1 1-1t1 1q0 1-1 1a1 1 0 01-1-1z" class="A B C"/><path d="M232 171q0-1 1-1 1 0 1 1 0 1-1 1a1 1 0 01-1-1m1 3q0-1 1-1 1 0 1 1 0 1-1 1a1 1 0 01-1-1m0 3q0-1 1-1a1 1 0 01 0 2 1 1 0 01-1-1m-1 3q0-1 1-1 1 0 1 1 0 1-1 1a1 1 0 01-1-1m-2 3q0-1 1-1 1 0 1 1 0 1-1 1-1 0-1-1" class="A C F"/><path d="M228 166q0-1 1-1a1 1 0 01 0 2 1 1 0 01-1-1" class="F"/><path d="M228 166q0-1 1-1a1 1 0 01 0 2 1 1 0 01-1-1z" class="A B C"/><path d="M225 165q0-1 1-1 1 0 1 1s0 1-1 1a1 1 0 01-1-1" class="F"/><path d="M225 165q0-1 1-1 1 0 1 1s0 1-1 1a1 1 0 01-1-1z" class="A B C"/><path d="M222 164q0-1 1-1t1 1q0 1-1 1-1 0-1-1" class="F"/><path d="M222 164q0-1 1-1t1 1q0 1-1 1-1 0-1-1z" class="A B C"/><path d="M218 163q0-1 1-1 1 0 1 1 0 1-1 1a1 1 0 01-1-1" class="F"/><path d="M218 163q0-1 1-1 1 0 1 1 0 1-1 1a1 1 0 01-1-1z" class="A B C"/><path d="M215 164q0-1 1-1t1 1-1 1a1 1 0 01-1-1" class="F"/><path d="M215 164q0-1 1-1t1 1-1 1a1 1 0 01-1-1z" class="A B C"/><path d="M212 164q0-1 1-1 1 0 1 1 0 1-1 1a1 1 0 01-1-1" class="F"/><path d="M212 164q0-1 1-1 1 0 1 1 0 1-1 1a1 1 0 01-1-1z" class="A B C"/><path d="M209 165q0-1 1-1 1 0 1 1 0 1-1 1a1 1 0 01-1-1" class="F"/><path d="M209 165q0-1 1-1 1 0 1 1 0 1-1 1a1 1 0 01-1-1z" class="A B C"/><path d="M156 191q0-1 1-1 1 0 1 1 0 1-1 1a1 1 0 01-1-1" class="F"/><path d="M156 191q0-1 1-1 1 0 1 1 0 1-1 1a1 1 0 01-1-1z" class="A B C"/><path d="M154 188q0-1 1-1t1 1q0 1-1 1a1 1 0 01-1-1" class="F"/><path d="M154 188q0-1 1-1t1 1q0 1-1 1a1 1 0 01-1-1z" class="A B C"/><path d="M154 185q0-1 1-1 1 0 1 1 0 1-1 1a1 1 0 01-1-1" class="F"/><path d="M154 185q0-1 1-1 1 0 1 1 0 1-1 1a1 1 0 01-1-1z" class="A B C"/><path d="M153 182q0-1 1-1 1 0 1 1 0 1-1 1a1 1 0 01-1-1" class="F"/><path d="M153 182q0-1 1-1 1 0 1 1 0 1-1 1a1 1 0 01-1-1z" class="A B C"/><path d="M154 179q0-1 1-1t1 1q0 1-1 1a1 1 0 01-1-1" class="F"/><path d="M154 179q0-1 1-1t1 1q0 1-1 1a1 1 0 01-1-1z" class="A B C"/><path d="M156 176q0-1 1-1 1 0 1 1 0 1-1 1a1 1 0 01-1-1" class="F"/><path d="M156 176q0-1 1-1 1 0 1 1 0 1-1 1a1 1 0 01-1-1z" class="A B C"/><path d="M158 174q0-1 1-1 1 0 1 1s0 1-1 1a1 1 0 01-1-1" class="F"/><path d="M158 174q0-1 1-1 1 0 1 1s0 1-1 1a1 1 0 01-1-1z" class="A B C"/><path d="M160 172q0-1 1-1 1 0 1 1s0 1-1 1a1 1 0 01-1-1" class="F"/><path d="M160 172q0-1 1-1 1 0 1 1s0 1-1 1a1 1 0 01-1-1z" class="A B C"/><path d="M164 170q0-1 1-1 1 0 1 1s0 1-1 1a1 1 0 01-1-1" class="F"/><path d="M164 170q0-1 1-1 1 0 1 1s0 1-1 1a1 1 0 01-1-1z" class="A B C"/><path d="M167 169q0-1 1-1a1 1 0 01 0 2 1 1 0 01-1-1" class="F"/><path d="M167 169q0-1 1-1a1 1 0 01 0 2 1 1 0 01-1-1z" class="A B C"/><path d="M170 168q0-1 1-1a1 1 0 01 0 2q-1 0-1-1" class="F"/><path d="M170 168q0-1 1-1a1 1 0 01 0 2q-1 0-1-1z" class="A B C"/><path d="M173 168q0-1 1-1 1 0 1 1s0 1-1 1a1 1 0 01-1-1" class="F"/><path d="M173 168q0-1 1-1 1 0 1 1s0 1-1 1a1 1 0 01-1-1z" class="A B C"/><path d="M177 168q0-1 1-1t1 1q0 1-1 1a1 1 0 01-1-1" class="F"/><path d="M177 168q0-1 1-1t1 1q0 1-1 1a1 1 0 01-1-1z" class="A B C"/><path d="M180 168q0-1 1-1 1 0 1 1 0 1-1 1a1 1 0 01-1-1" class="F"/><path d="M180 168q0-1 1-1 1 0 1 1 0 1-1 1a1 1 0 01-1-1z" class="A B C"/><path d="M178 171q0-1 1-1 1 0 1 1 0 1-1 1a1 1 0 01-1-1m-1 3q0-1 1-1 1 0 1 1 0 1-1 1a1 1 0 01-1-1m0 3q0-1 1-1 1 0 1 1 0 1-1 1a1 1 0 01-1-1m1 3q0-1 1-1 1 0 1 1 0 1-1 1a1 1 0 01-1-1m2 3q0-1 1-1a1 1 0 01 0 2 1 1 0 01-1-1" class="A C F"/><path d="M182 166q0-1 1-1a1 1 0 01 0 2 1 1 0 01-1-1" class="F"/><path d="M182 166q0-1 1-1a1 1 0 01 0 2 1 1 0 01-1-1z" class="A B C"/><path d="M185 165q0-1 1-1 1 0 1 1s0 1-1 1a1 1 0 01-1-1" class="F"/><path d="M185 165q0-1 1-1 1 0 1 1s0 1-1 1a1 1 0 01-1-1z" class="A B C"/><path d="M188 164q0-1 1-1t1 1q0 1-1 1-1 0-1-1" class="F"/><path d="M188 164q0-1 1-1t1 1q0 1-1 1-1 0-1-1z" class="A B C"/><path d="M192 163q0-1 1-1 1 0 1 1 0 1-1 1a1 1 0 01-1-1" class="F"/><path d="M192 163q0-1 1-1 1 0 1 1 0 1-1 1a1 1 0 01-1-1z" class="A B C"/><path d="M195 164q0-1 1-1 1 0 1 1 0 1-1 1a1 1 0 01-1-1" class="F"/><path d="M195 164q0-1 1-1 1 0 1 1 0 1-1 1a1 1 0 01-1-1z" class="A B C"/><path d="M198 164q0-1 1-1 1 0 1 1 0 1-1 1a1 1 0 01-1-1" class="F"/><path d="M198 164q0-1 1-1 1 0 1 1 0 1-1 1a1 1 0 01-1-1z" class="A B C"/><path d="M201 165q0-1 1-1 1 0 1 1 0 1-1 1a1 1 0 01-1-1" class="F"/><path d="M201 165q0-1 1-1 1 0 1 1 0 1-1 1a1 1 0 01-1-1z" class="A B C"/><path d="M175 229h-1v-1h-2v4h2v2h-3v7h2v14h-4v7h27v-7h-4V241h2v-7h-3v-2h2V228h-2v1h-1v-1h-2v1h-1v-1h-2v4h2v2H184v-8h2v-4H184v1h-1v-1h-2v1h-1v-1H179v4h2v8h-3v-2h2V228h-2v1h-1v-1h-2zm-6 34H196m-27-2H196m-27-2H196m-27-2H196m-27-2H196m-24-2h20m-20-2h20m-20-2h20m-20-2h20m-20-2h20m-20-2h20m-20-2h20m-22-2h24m-24-2h24m-24-2h24m-24-2h24m-20-2h17m-10-2h3m-3-2h3m-3-2h3m-3-2h3m-5-2h7m-12 8h4m-5-2h7m-7 33v-2m0-2v-2m-2 2v2m3 0V259m2 4v-2m0-2v-2m0-2v-2m0-2v-2m-2 7v-2m-3 2v-2m7 0v2m2-2v-2m-5-2v2m4-2v2m3-2v2M179 252v-2m2-2v2m0-5v2m-2-4v2m2-4v2m-3-2v2m-4-2v2m-2-4v2m3-2v2m3-2v2m2-4v2m-3-2v2m-4-2v2m-2-4v2m7-2v2m-3-5v2m15-2h-4m5-2h-7m7 33v-2m0-2v-2m2 2v2m-3 0V259m-2 4v-2m0-2v-2m0-2v-2m0-2v-2m2 7v-2m3 2v-2m-7 0v2m-2-2v-2m5-2v2m-4-2v2m-3-2v2m2-2v-2m-2-2v2m0-5v2m2-4v2m-2-4v2m3-2v2m4-2v2m2-4v2m-3-2v2m-3-2v2m-2-4v2m3-2v2m4-2v2m2-4v2m-7-2v2m3-5v2m-7 18v-2m0-5v-2m0 5v-2m0-5v-2m0-2v-2m0-4v-2m0-2v-2m-8 5h4m3-5h3m3 5h4" class="A C E"/><path d="M187 263v-5q1.25-2.75-5-4-5 1.25-4 4v5z" class="A C E"/><path d="m179 258h-2q0-2 1-3l2 2-1 1zm6 0h2q0-2-1-3l-2 2 1 1zm-2-2 1-2h-2-2l1 2zm-4-6v-5q0-2-2-2s-2 1-2 2v5zm7 0v-5q0-2 2-2s2 1 2 2v5zm-2-12v-4h-4v4zm3 0v-4h4v4zm-10 0v-4h-4v4z" class="A C E"/><path fill="#0039f0" d="M185 263v-4q.75-2.25-3-3-3 1-3 3v4zm-7-13v-4q0-2-2-2s-2 1-2 2v4h4zm8 0v-4q0-2 2-2s2 1 2 2v4h-4z"/><path d="M191 270q1.25-16.5 16-18s16 8 16 18-7 18-16 18-16-8-16-18" class="G"/><path d="M191 270q1.25-16.5 16-18s16 8 16 18-7 18-16 18-16-8-16-18z" class="A B P"/><path d="M195 270q1-11.75 11-13s11 6 11 13-5 13-11 13-11-6-11-13" class="N"/><path d="M195 270q1-11.75 11-13s11 6 11 13-5 13-11 13-11-6-11-13z" class="A B P"/><path d="M201 261s-1 1-1 3a6 6 0 00 1 2q0-1-1-1-1 0-1 1v1 1q0 0 1 0 1 0 1 1v0h-1v1h1l-1 2h1l1 1 1-1h1l-1-2h1v-1h-1v0a1 1 0 01 1-1q1 0 1 1v-1-1a1 1 0 00-1-1q-1 0-1 1s1-1 1-2-1-3-1-3" class="E"/><path d="M201 261s-1 1-1 3a6 6 0 00 1 2q0-1-1-1-1 0-1 1v1 1q0 0 1 0 1 0 1 1v0h-1v1h1l-1 2h1l1 1 1-1h1l-1-2h1v-1h-1v0a1 1 0 01 1-1q1 0 1 1v-1-1a1 1 0 00-1-1q-1 0-1 1s1-1 1-2-1-3-1-3z" class="A B D H"/><use href="#uba" class="E"/><use href="#uba" class="A B D"/><path d="M211 261s-1 1-1 3 1 2 1 2q0-1-1-1-1 0-1 1v1 1q0 0 1 0a1 1 0 01 1 1v0h-1v1h1l-1 2h1l1 1 1-1h1l-1-2h1v-1h-1v0a1 1 0 01 1-1q1 0 1 1v-1-1a1 1 0 00-1-1q-1 0-1 1s1-1 1-2-1-3-1-3" class="E"/><path d="M211 261s-1 1-1 3 1 2 1 2q0-1-1-1-1 0-1 1v1 1q0 0 1 0a1 1 0 01 1 1v0h-1v1h1l-1 2h1l1 1 1-1h1l-1-2h1v-1h-1v0a1 1 0 01 1-1q1 0 1 1v-1-1a1 1 0 00-1-1q-1 0-1 1s1-1 1-2-1-3-1-3z" class="A B D H"/><use href="#ubb" class="E"/><use href="#ubb" class="A B D"/><path d="M206 270s-1 2-1 3 1 2 1 2q0-1-1-1-1 0-1 1v1 1q0-1 1-1a1 1 0 01 1 1v0h-1v1h1l-1 2h1l1 1 1-1h1l-1-2h1v-1h-1v0a1 1 0 01 1-1q1 0 1 1v-1-1a1 1 0 00-1-1q-1 0-1 1s1-1 1-2-1-3-1-3" class="E"/><path d="M206 270s-1 2-1 3 1 2 1 2q0-1-1-1-1 0-1 1v1 1q0-1 1-1a1 1 0 01 1 1v0h-1v1h1l-1 2h1l1 1 1-1h1l-1-2h1v-1h-1v0a1 1 0 01 1-1q1 0 1 1v-1-1a1 1 0 00-1-1q-1 0-1 1s1-1 1-2-1-3-1-3z" class="A B D H"/><use href="#ubc" class="E"/><use href="#ubc" class="A B D"/><use href="#ua" class="E"/><use href="#ua" class="A B D"/><path d="M235 224h0v0h0q0 0 0 0"/><path d="M235 224h0v0h0q0 0 0 0z" class="A B J"/><path d="m236 225h0v0h0 1v0h0z"/><path d="m236 225h0v0h0 1v0h0 0" class="A B J"/><path d="m235 224h0s0 0 0 0h1v0h0z"/><path d="m235 224h0s0 0 0 0h1v0h0 0" class="A B J"/><path d="M234 223h0v0h0s0 0 0 0"/><path d="M234 223h0v0h0s0 0 0 0z" class="A B J"/><use href="#uaz"/><use href="#uaz" class="A B J"/><path d="m238 226h0 0v0h0 0v0z"/><path d="m238 226h0 0v0h0 0v0h0" class="A B J"/><path d="M239 227v0h0v0h0"/><path d="M239 227v0h0v0h0z" class="A B J"/><use href="#uaj" class="E"/><use href="#uaj" class="A B D"/><path d="M235 222v0h1 0v0-1z" class="E"/><path d="M235 222v0h1 0v0-1h0" class="A B D"/><path d="m236 223h0l-1-1v0h1z" class="E"/><path d="m236 223h0l-1-1v0h1v0" class="A B D"/><use href="#ubi" class="E"/><use href="#ubi" class="A B D"/><use href="#uag" class="E"/><use href="#uag" class="A B D"/><path d="m234 221h0l-1-1v0h1z" class="E"/><path d="m234 221h0l-1-1v0h1v0" class="A B D"/><use href="#uau" class="E"/><use href="#uau" class="A B D"/><path d="M238 222h0v1 0h0 1z" class="E"/><path d="M238 222h0v1 0h0 1 0" class="A B D"/><path d="M237 223v0h1 0v0-1z" class="E"/><path d="M237 223v0h1 0v0-1h0" class="A B D"/><path d="m238 224h0v-1 0h0 1z" class="E"/><path d="m238 224h0v-1 0h0 1 0" class="A B D"/><use href="#ubh" class="E"/><use href="#ubh" class="A B D"/><path d="m240 224h0-1 0v0-1z" class="E"/><path d="m240 224h0-1 0v0-1h0" class="A B D"/><path d="m240 226h0v-1 0h0 1z" class="E"/><path d="m240 226h0v-1 0h0 1 0" class="A B D"/><path d="m239 224h0 1 0v0-1z" class="E"/><path d="m239 224h0 1 0v0-1h0" class="A B D"/><use href="#ubf" class="E"/><use href="#ubf" class="A B D"/><use href="#uaf" class="E"/><use href="#uaf" class="A B D"/><path d="m240 226h0 1v0h0v-1z" class="E"/><path d="m240 226h0 1v0h0v-1h-1" class="A B D"/><path d="M241 227s0 0 0 0h0q0 0 0 0z" class="E"/><path d="M241 227s0 0 0 0h0q0 0 0 0zm38-22v1h-2v-1h1v-1h-1v0h1v-1h1v1h1v1h-1v1h1" class="A B D"/><path d="M134 217v-1m0 1v-1m0 1v-1m0 1v-1" class="B"/><path d="M133 217v-1m0 1v-1m0 1v-1m-1 1v-1m0 1v-1m-1 1v-1m0 1v-1m0 1v-1m-1 1v-1m0 1v-1m0 1v-1m0 1v-1m0 1v-1m0 0v0m0 0v0m0 0v0m0 0v0" class="A B J"/><path d="M129 217v0" class="A B M"/><path d="M136 217v-1m0 1v-1m0 1V216m143 1V216m0 1V216m0 1V216m0 1V216" class="B"/><path d="M277 217V216m-1 1v-1m0 1v-1m-1 1v-1m0 1v-1m-1 1v-1m0 1v-1m0 1v-1m-1 1v-1m0 1v-1m0 1v-1m0 1v-1m0 1v-1m0 1v-1m0 0v0m0 0v0m0 0v0" class="A B J"/><path d="M273 217v0" class="A B M"/><path d="M279 217v-1m-1 1v-1m0 1V216" class="B"/></svg>