<svg xmlns="http://www.w3.org/2000/svg" id="" viewBox="0 0 1000 1000"><style><![CDATA[.A{stroke:#000}.B{fill:none}.C{stroke-width:.3}.D{stroke-width:.4}.E{stroke-width:.5}.F{fill:#c8b100}.G{stroke-linejoin:round}.H{fill:#ad1519}.I{fill:#058e6e}.J{fill:#005bbf}.K{fill:#fff}]]></style><path fill="#AA151B" d="M0 0h1000v1000h-1000z"/><path fill="#F1BF00" d="M0 250h1000v500h-1000z"/><path d="M199 444h-1l-3-3-1-2s-1-2-1-4q1-2 2-3l6-3 1-1 3-1h2 8c1 0 2 1 2 1l6 2q1 1 2 2l1 2v2l-2 4-1 1s-1 1-2 1-8-2-12-2-11 2-11 2m12 5h-2q0 0 0-1v-1h3v1 1h-2m-10 2v-1h1l-1 1zm23 0v-1h-1v1zm-12 3a39 52 0 01-9-1 41 54 0 01 19 0q-4 1-9 1M191 597c-3 2-6 5-5 7q0 2 3 3c2 2 4 6 3 8a9 11 0 00 0-18m56-60a78 104 0 00-36-4c-15 3-26 11-25 18h0l-5-17c-1-7 11-16 28-19a67 90 0 01 14-1c10 0 19 2 25 4v20m-51 19q-10.5-1.25-12-7 0-5 6-9l6 1zm25-12q6 1 9 4h0c1 2-3 6-9 11v-16m-40 44c-1-2 6-8 15-12l12-7c13-8 22-16 21-20h0c1 1 2 17 2 17 1 3-8 11-19 19-4 2-12 6-16 8-7 3-14 9-13 11l-2-16M434 441s-1 2-2 2-2-1-2-1-1 1-2 1-2-1-2-1l-2 2-2-1c0 0 0 1-1 1h-1l-3-3-1-2v-1q0-2 3-4a6 8 0 01 3 0q1-2 5-2c3 0 4 1 5 1a9 12 0 01 5-1q3 0 5 2 1-1 3 0 3 1 3 4v1l-1 2-3 3s0 0-1 0q-1-1-1-1c0 0-1 1-2 0s-2-2-2-2-1 2-2 1c-1 0-2-1-2-1s-1 1-2 1-2-2-2-2m4 7h-2q0 0 0-1v-1h3v1 1h-2m-10 2v-1h1l-1 1zm22 0v-1h-1v1zm-11 3a39 52 0 01-9-1 39 52 0 01 9-1q6 0 10 1-4 1-9 1m19 145c3 2 6 5 5 7q0 2-3 3c-2 2-4 6-3 8a9 11 0 01 0-18M397 537a78 104 0 01 36-4c15 3 26 11 25 18h0l5-17c1-7-11-16-28-19a84 113 0 00-14-1c-10 0-19 2-25 4zm49 20q10.5-1.25 12-7 0-5-6-9l-6 1zM422 545a20 27 0 00-9 4h0c-1 2 3 6 9 11v-16m40 44c1-2-6-8-15-12q-6-2.75-12-7c-13-8-22-16-21-20h0c-1 1-2 17-2 17-1 3 8 11 19 19 4 2 12 6 16 8 7 3 14 9 13 11l2-16M322 449c-17 0-32-2-43-6 11-4 26-6 43-6a180 240 0 01 43 6c-11 4-27 7-43 7m0 179c0 26-17 48-38 48s-38-21-38-48v-67h75v67M247 562h75v-111h-75zm151 0v67c0 26-17 48-38 48s-38-21-38-48v-67h75m-99 0c0-20 11-37 24-37s24 16 24 37-11 36-24 36-24-16-24-36" class="H"/><path d="M199 444h-1l-3-3-1-2s-1-2-1-4q1-2 2-3l6-3 1-1 3-1h2 8c1 0 2 1 2 1l6 2q1 1 2 2l1 2v2l-2 4-1 1s-1 1-2 1-8-2-12-2-11 2-11 2zm11 0q-7 0-11 2h0v-1a42 56 0 01 12-2q7 0 12 2v1h0a42 56 0 00-12-2zm0 8a39 52 0 01-9-1 41 54 0 01 19 0q-4 1-9 1zm224 0a39 52 0 01-9-1 39 52 0 01 9-1q6 0 10 1-4 1-9 1zM314 544s-2 3-2 6a9 12 0 00 1 5q-1-2-2-2-2 0-2 3v2l1 2q0-1 2-1 2 0 2 2h0-2v2h2l-1 3 2-1 1 2 1-2 2 1-1-3h2v-2h-2v-1a2 2 0 01 2-2q1 0 2 1l1-2v-1a2 3 0 00-2-3q-2 0-2 2s1-2 1-5-2-6-2-6zm16 0s-2 3-2 6 1 5 1 5q0-2-2-2-2 0-2 3v2l1 2q0-1 2-1a2 2 0 01 2 2h0-2v2h2l-1 3 2-1 1 2 1-2 2 1-1-3h2v-2h-2v-1a2 2 0 01 2-2q1 0 2 1l1-2v-1a2 3 0 00-2-3q-2 0-2 2s1-2 1-5-2-6-2-6zm-8 18s-2 3-2 6 1 5 1 5q0-2-2-2-2 0-2 3v1l1 2q0-1 2-1a2 2 0 01 2 2v1h-2v2h2l-1 3 2-1 1 2 1-2 2 1-1-3h2v-2h-2v-1a2 2 0 01 2-2q1 0 1 1l1-2v-1a2 3 0 00-2-3q-2 0-2 2s1-2 1-5-2-6-2-6z" class="A B C G"/><path d="M208 431q0-4 2-5 2 0 2 5c0 3-1 5-2 5s-2-2-2-5m1 0q0-4 1-4c0 0 1 2 1 4q0 4-1 5c-1 0-1-2-1-5m0-5q0-1 1-2 2 0 2 2 0 2-2 2c-1 0-1-1-1-2m2-1v1h-2v-1h1v-2h-1v-1h1v-1h1v1h1v1h-1v2zm1 0v1h-4v-1h2v-2h-1v-1h1v-1h1v1h1v1h-1v2zm-2 19h-7v-2-2-3c-2-4-4-6-5-5q0-1 1-1c2-1 5 2 8 8l1 1h6l1-1c3-6 6-9 8-8q1 0 1 1c-1-1-2 2-5 5v3 2 2zm-10 5-1-2a42 56 0 01 23 0l-1 2v2a36 48 0 00-10-2c-4 0-8 1-10 2zm10 5c4 0 8-1 9-1q2-1 2-2 0-1-1-1c-2-1-6-2-10-2s-8 1-10 2q0 0-1 1 0 1 2 2c2 0 5 1 9 1m12-10-1-1s-1 1-2 0c-1 0-1-2-1-2s-1 1-2 1-2-1-2-1-1 1-2 1-2-2-2-2-1 2-2 2-2-1-2-1-1 1-2 1-2-1-2-1-1 1-2 2c-1 0-2-1-2-1v1h0v1a42 56 0 01 11-2q7 0 12 2zm-12-5h0v1q0 2 2 2a2 2 0 00 2-1v-1 1q0 2 2 2 2 0 2-2h0l1-1v1 1a2 2 0 00 2 2q1 0 1-1h0v1q0 1 1 1l2-1 1-1v1s-1 2-2 2q0 1-1 1-1 0-1-1 0 1-1 0-2 0-2-2-1 1-2 1a3 4 0 01-2-1l-2 1a3 4 0 01-2-1 2 3 0 01-4 0 3 4 0 01-2 1l-2-1q-1 2-2 2h-1q0 1-1 1l-2-2v-1l1 1q1 1 1 1 1 0 1-1v-1h0q0 1 1 1a2 2 0 00 2-2v-2l1 1h0q0 2 2 2v-1 1q0 1 2 1 2 0 2-2v-1h0m0 2q-7 0-11 2h0v-1a42 56 0 01 12-2q7 0 12 2v1h0a42 56 0 00-12-2m11-2v-1q0 0-1 0 0 1 0 1zm-7-2q0-1 0-1v1q0 1 0 1v-1m-9 0v-1q0 0 0 1zm-7 2v-1q0 0 1 0 0 1 0 1zm11-8-1 1 1 3h0 0l1-3zm-2 5 1 1 2-1h0 0l-2-1zm5 0v1l-2-1h0 0l2-1zm-11-4-1 1 1 2h0 0v-3zm-2 5 1 1 2-1h0 0-2v1m4-2v1h-2 0v-1l2-1zm-7 1v1h-2 0 0l2-2zm4-1q0-1 1-1l-1 1zm17-4 1 1-1 2h0 0v-3zm2 5-1 1-2-1h0 0 2zm-6-1v1h2 0v-1l-2-1zm8 1v1h2 0 0l-2-2zm-13-2 1-1q1 0 1 1l-1 1zm7 1q0-1 1-1l1 1-1 1zm-22 3-2-2q0 0 1-1h1 0s0 0 1 1v2m-1 0q0-1 1 0h-1q0 0 0-1m30 1 2-2q0 0-1-1h-1 0s0 0-1 1v1zm0 0q0-1-1 0 0 0 0 1h1q0 0 0-1m-31 23h33v-11h-33zm3 8h26a2 3 0 01-2-2q0-2 2-3h-26q2 1 2 3a2 3 0 01-2 2m1 0h25q2 0 2 1h-25q-1 0-2-2 0-2 2-2m-2-5h25q2 0 2 1h-25q-1 0-2-1 0-1 2-1m-3 178v1c0 3-2 5-4 5h34a5 6 0 01-4-5v-1zm1-3h25q2 0 2 2 0 1-2 1h-25q-1 0-2-2 0-1 2-1m-5 21h34v-12h-34zm4-131c3-1 5-3 4-6q-1-3-4-1l-4 2 4 12 2-1zm-2-6 1-1q2-1 2 2 1 2-1 3l-1 1zm11-5-1 1h-1l2 13 7-2v-1-1l-4 1zm13 11q2-7 4-13h-2l-3 10-4-9h-2-2l5 12zm14-10 1-2a5 6 0 00-3-1q-4 0-4 4c0 4 5 4 5 7q0 2-2 2-2 0-2-2h0l-1 2a6 8 0 00 3 1q4 0 5-4c0-4-5-4-5-7q0-2 2-1 2 0 2 2zM432 432c0-2 1-4 2-4s2 2 2 4-1 4-2 4q-2 0-2-4m1 0q0-4 1-4 1 0 1 4c0 3 0 4-1 4q-1 0-1-4m-10 17-1-2a42 56 0 01 23 0l-1 2v2a36 48 0 00-10-2c-4 0-8 1-10 2zm11 5c4 0 8-1 9-1q2-1 2-2 0-1-1-1a38 50 0 00-10-2c-4 0-8 1-10 2q0 0-1 1 0 1 2 2c2 0 5 1 9 1m12-10-1-1s-1 1-2 0c-1 0-1-2-1-2s-1 1-2 1-2-1-2-1-1 1-2 1-2-2-2-2-1 2-2 2-2-1-2-1 0 1-2 1-2-1-2-1-1 1-2 2c-1 0-2-1-2-1v1h0v1a42 56 0 01 11-2q7 0 11 2v-1m-10-4h0v1q0 2 2 2a2 2 0 00 2-1v-1 1q0 2 2 2 2 0 2-2h0l1-1v1 1a2 2 0 00 2 2q1 0 1-1h0v1q0 1 1 1l2-1c2-1 1-1 1-1v1s-1 2-2 2q0 1-1 1-1 0-1-1h-1q-2 0-2-2l-2 1q-1 0-2-1l-2 1q-1 0-2-1-1 1-2 1-1 0-2-1a3 4 0 01-2 1q-1 0-2-1-1 2-2 2-1 0-1 0 0 1-1 1l-2-2v-1l1 1q1 1 1 1 1 0 1-1v-1h0q0 1 1 1a2 2 0 00 2-2v-2l1 1h0q0 2 2 2v-1 1q1 1 2 1 2 0 2-2v-1h0m0 2q-7 0-11 2h0v-1q5-2 12-2v1h0a42 56 0 00-12-2m23 0v-1q0 0-1 0v1q0 0 1-1m-8-1q0-1 0-1v1q0 1 0 1zm-8 0q0-1 0-1v1 1q0 0 0-1m-7 2v-1q0 0 1 0v1q0 0-1-1m11-7-1 1 1 3h0 0l1-3zm-3 5 1 1 2-1h0 0l-2-1zm6 0v1l-2-1h0 0l2-1zm-11-4-1 1 1 2h0 0v-3zm-2 5 1 1 2-1h0 0-2zm5-1v1h-2 0v-1l2-1zm-7 1v1h-2 0 0l2-2zm4-1q0-1 1-1l1 1-1 1zm16-4 1 1-1 2h0 0v-3zm3 5-1 1-2-1h0 0 2zm-6-1v1h2 0v-1l-2-1zm7 1v1h2 0 0l-2-2zm-13-2q0-1 1-1 1 0 1 1zm8 1q0-1 1-1 0 1-1 1zm-8-11q0-2 1-2 2 0 2 2c0 2-1 2-2 2a2 2 0 01-1-2m2-1v1h-2v-1h1v-3h-1v-1h1v-1h1v1h1v1h-1v2h1m0 1v1h-4v-1h2v-3h-1v-1h1v-1h1v1h1v1h-1v2h2m-18 16-2-2q0 0 1-1 0 0 1 0h0s0 0 1 1zm0 0q0-1 1 0 1 0 0 1h-1q0 0 0-1m30 0 2-2q0 0-1-1h-1 0s0 0-1 1v1zm0 0q0-1-1 0h1q0 0 0-1m-31 24h33v-11h-33zm29 8h-26q2-1 2-2 0-2-2-3h27 0q-2 1-2 3 0 2 2 2m-26 0h25q2 0 2 1h-25q-2 0-2-2 0-2 2-2m-2-5h25q2 0 2 1h-25q-2 0-2-1m25 177v1c0 3 2 5 4 5h-34c2 0 4-2 4-5v-1zm-25-3h25q2 0 2 2 0 1-2 1h-25q-2 0-2-2 0-1 2-1m-5 21h34v-12h-34zM412 530l3-14h-1-1l-2 10q-2-4-4-9h-2-2l6 12h1zm9-14h-3v13h7v-1h-4zm11 2 3 1v-1l-9-1v2h3l-1 12h2l1-11m4 12 2 1 1-6 1 2 1 4h2q1 0 2 1v-1l-2-6q2 0 3-2 0-2-1-3-1-1-3-1l-4-1zm5-11c1 0 2 1 2 2v1q-1 3-3 2zm12 15v4l2 2 1-15-1-1-10 8 1 1h1l3-2 4 3zm-3-3 3-3v5zM285 383l2 2 3-7a11 15 0 01-6-15c0-9 8-16 18-16q8 0 13 5v-4a27 35 0 00-14-4c-12 0-21 9-21 19a14 19 0 00 5 16zm0 0a14 19 0 01-6-15q0-10 8-17a14 19 0 00-5 14 14 19 0 00 5 14zm-35 7a14 19 0 01-4-12q0-4 2-8c3-9 13-15 25-15q5 0 9 1l-2 3a41 54 0 00-8-1c-11 0-20 6-23 13a11 15 0 00-1 6 11 15 0 00 4 12l-4 9-2-2zm4-29a17 23 0 00-6 9 14 19 0 00-1 8q0 7 4 12l-2 5a16 21 0 01-4-14c0-8 4-16 10-20m67-18c3 0 5 2 5 5q1 4 1 9v2c0 7 1 13 2 17l-8 10-8-10c1-4 2-10 2-17v-2q0-5 1-9c0-3 3-5 5-5m0 3q2 0 3 3 0 4 1 9v2q0 10 2 16l-5 7-5-7q2-6 2-16v-2l1-9a3 4 0 01 3-3m35 37-2 2-3-7a11 15 0 00 6-13v-2c0-9-8-16-18-16a23 31 0 00-13 5v-4a27 35 0 01 14-4c12 0 21 9 21 19a14 19 0 01-5 16zm0 0a14 19 0 00 6-15c0-7-3-13-8-17a14 19 0 01 5 14 14 19 0 01-5 14zm35 7a14 19 0 00 3-12 14 19 0 00-1-8c-3-9-13-15-25-15a45 60 0 00-9 1l2 3a39 52 0 01 8-1c11 0 20 6 22 13q1 3 1 6a11 15 0 01-4 12l4 9 2-2zm-4-29a17 23 0 01 6 9 14 19 0 01 1 8 14 19 0 01-4 12l2 5a16 21 0 00 4-14c0-8-4-16-10-20M336 613v1q0 2-2 2a2 2 0 01-2-2v-1h-2a4 5 0 00 3 6v8h2v-8a5 6 0 00 3-3h7v-2zm34 0v2h-6v1l7 11-2 2-7-11h0v18h-2v-18h0l-8 11-2-2 7-11v-1h-6v-3h20zm4 0v2h7q1 2 3 3v8h2v-8a5 6 0 00 3-5v-1h-2v1q0 2-2 2-2 0-2-2v-1zm-10 46a25 33 0 00 6-2l1 3a28 38 0 01-7 2 5 6 0 01-4 4 5 6 0 01-4-4 28 38 0 01-7-2l1-3q3 2 6 2a5 6 0 01 2-3v-14h2v14q2 1 2 3zm-17-5-1 3a27 35 0 01-6-6q-2 1-4-1a4 5 0 01 0-7h0a23 31 0 01-2-10h3a20 27 0 00 2 8q1 0 2 0l6-9 2 2-6 9q1 3 0 6a23 31 0 00 5 5m-9-10q1-1 2 0 1.5 1.5 0 3a2 2 0 01-2 0 2 2 0 01 0-3m-3-9-2-1v-9l3-1v5q0 3 0 6m2-11 3 1v5c0-2 0 4 0 4l-3 1-3-6zm9 29a25 33 0 00 8 5l1-3a22 29 0 01-6-4zm-1 3a27 35 0 00 8 5l-2 2a30 40 0 01-6-4zm3-20 2 1 5-7-2-3zm-2-2-2-3 5-7 2 1zm28 21 1 3a27 35 0 00 6-6q2 1 4-1a4 5 0 00 0-7h0a23 31 0 00 2-10h-3a20 27 0 01-2 8h-2l-6-9-2 2 6 9a4 5 0 00 0 6 23 31 0 01-5 5m9-10a2 2 0 00-2 0 2 2 0 00 0 3 2 2 0 00 2 0 2 2 0 00 0-3m3-9 2-1v-9l-3-1v5q0 3 0 6zm-2-11-3 1v5c0-2 0 4 0 4l3 1v-6zm-10 27a25 33 0 01-8 5l-1-3a22 29 0 00 6-4zm1 3a27 35 0 01-8 5l2 2a30 40 0 00 6-4zm-3-20-2 1-5-7 2-3zm2-2 2-3-5-7-2 1zM344 615l1 3h7l1-3zm33 0-1 3h-7l-1-3zm-18 46q0-2 2-2a2 2 0 01 2 2q0 2-2 2a2 2 0 01-2-2m3-16 3-1v-9l-3-1zm-2 0-3-1v-9l3-1zM330 613q1-3 3-4v-11h2v11q2 1 3 3h7v1h-9a2 2 0 00-2-1q-1 0-2 1zm19 0v-1h6v-1l-8-12 2-2 8 12h0v-15h2v15h0l8-11 2 2-8 11v1h6v1zm34 0a2 2 0 01 2-1q1 0 2 1h2q-1-3-3-4v-11h-2v11q-2 1-3 3h-7v1zM336 582l9 14 2-2-10-14v-1h7v-4h-7a5 6 0 00-4-4 4 5 0 00-4 5 5 6 0 00 3 5v11h2v-11zm50 0v11h-3v-11h-1l-9 14-2-2 10-14v-1h-7v-4h7a5 6 0 01 4-4 4 5 0 01 4 5 4 5 0 01-3 5zm-25 0v7h-3v-7a5 6 0 01-3-3h-6v-4h6a5 6 0 01 4-4q3 0 4 4h6v3h-6a5 6 0 01-2 3m-28 8-3 1v9l3 1zm2 0 3 1v9l-3 1zm48 0-3 1v9l3 1zm2 0 3 1v9l-3 1zm-40 2 2-1 5 7-2 3zm-2 2-2 3 5 7 2-1zm29-2-2-1-5 7 2 3zm2 2 2 3-5 7-2-1zm-32 19 1-3h7l1 3zM332 577q0-2 2-2a2 2 0 01 2 2q0 2-2 2a2 2 0 01-2-2m19 2-1 3h-7l-1-3zm0-3-1-3h-7l-1 3zm25 37-1-3h-7l-1 3zm7-35q0-2 2-2a2 2 0 01 2 2q0 2-2 2a2 2 0 01-2-2m-25 0q0-2 2-2a2 2 0 01 2 2q0 2-2 2a2 2 0 01-2-2m10 2 1 3h7l1-3zm0-3 1-3h7l1 3zm-9 10-3 1v9l3 1v-11m3 0 2 1v9l-2 1zM314 544s-2 3-2 6a9 12 0 00 1 5q-1-2-2-2-2 0-2 3v2l1 2q0-1 2-1 2 0 2 2h0-2v2h2l-1 3 2-1 1 2 1-2 2 1-1-3h2v-2h-2v-1a2 2 0 01 2-2q1 0 2 1l1-2v-1a2 3 0 00-2-3q-2 0-2 2s1-2 1-5-2-6-2-6m-7 18h6v-2h-6zm19-18s-2 3-2 6 1 5 1 5q0-2-2-2-2 0-2 3v2l1 2q0-1 2-1a2 2 0 01 2 2h0-2v2h2l-1 3 2-1 1 2 1-2 2 1-1-3h2v-2h-2v-1a2 2 0 01 2-2q1 0 2 1l1-2v-1a2 3 0 00-2-3q-2 0-2 2s1-2 1-5-2-6-2-6m-7 18h6v-2h-6zm-5 0s-2 3-2 6 1 5 1 5q0-2-2-2-2 0-2 3v1l1 2q0-1 2-1a2 2 0 01 2 2v1h-2v2h2l-1 3 2-1 1 2 1-2 2 1-1-3h2v-2h-2v-1a2 2 0 01 2-2q1 0 1 1l1-2v-1a2 3 0 00-2-3q-2 0-2 2s1-2 1-5-2-6-2-6m-6 18h6v-2h-6zM371 465h0v1q-1 1-1 0v-1h-1q-1-1 0-1v-1h0 0q0 1-1 0h0 0c-1 0-1-2-1-2h0s0 1 0 2v2a14 19 0 01 5 3 14 19 0 01 3 5l2-1q1.75 0 2 0h0c0 0-2 0-2-1h0 0q0-1 0-1h0v-1h0 0q-1 1-1 0v-1h-1q-1-1 0-2v-1zm-2-4h-1v2h0 0l1-1v-1m-2 1v1h1 0 0l-1-1zm2 2-1 1-1-1h0 2zm-1-1h1v1h0zm-4-2v-1l-1-1s1 0 1 0 0 2 0 2zm2 0-1 1-1-1h0 2zm-2-1h0v1q0 1 0 0zm8 4h-1v1h0 0l1-1zm-2 0v1h1 0 0l-1-1zm2 3h-1l-1-1h0 0 1zm-1-2h1v1h0zm4 2v1l-1 1h0 0l1-2zm0 3h-1v-2h0 0l1 1zm-2-3v1l1 1h0 0v-2zm1 2v-1h-1v1zm2 4h1l1 1s0-1 0-1c0-1-1 0-1 0zm-1-2v1l1 1h0 0v-2zm2 2s0 0 0 0h0q0 0 0 0z" class="F"/><path d="M208 431q0-4 2-5 2 0 2 5c0 3-1 5-2 5s-2-2-2-5zm1 0q0-4 1-4c0 0 1 2 1 4q0 4-1 5c-1 0-1-2-1-5zm2-6v1h-2v-1h1v-2h-1v-1h1v-1h1v1h1v1h-1v2h1m0 0v1h-4v-1h2v-2h-1v-1h1v-1h1v1h1v1h-1v2h2m-2-1q1 0 1 2 0 2-1 2-2 0-2-2 0-1 1-2m0 20h-7v-2-2-3c-2-4-4-6-5-5q0-1 1-1c2-1 5 2 8 8l1 1h6l1-1c3-6 6-9 8-8q1 0 1 1c-1-1-2 2-5 5v3 2 2zM198 431c2-1 5 2 7 8m17-8c-1-1-4 2-7 8m-15 10-1-2a42 56 0 01 23 0l-1 2v2a36 48 0 00-10-2c-4 0-8 1-10 2v-1m9 4c4 0 8-1 9-1q2-1 2-2 0-1-1-1c-2-1-6-2-10-2s-8 1-10 2q0 0-1 1 0 1 2 2c2 0 5 1 9 1zm12-10-1-1s-1 1-2 0c-1 0-1-2-1-2s-1 1-2 1-2-1-2-1-1 1-2 1-2-2-2-2-1 2-2 2-2-1-2-1-1 1-2 1-2-1-2-1-1 1-2 2c-1 0-2-1-2-1v1h0v1a42 56 0 01 11-2q7 0 12 2zm-12-5h0v1q0 2 2 2a2 2 0 00 2-1v-1 1q0 2 2 2 2 0 2-2h0l1-1v1 1a2 2 0 00 2 2q1 0 1-1h0v1q0 1 1 1l2-1 1-1v1s-1 2-2 2q0 1-1 1-1 0-1-1 0 1-1 0-2 0-2-2-1 1-2 1a3 4 0 01-2-1l-2 1a3 4 0 01-2-1 2 3 0 01-4 0 3 4 0 01-2 1l-2-1q-1 2-2 2h-1q0 1-1 1l-2-2v-1l1 1q1 1 1 1 1 0 1-1v-1h0q0 1 1 1a2 2 0 00 2-2v-2l1 1h0q0 2 2 2v-1 1q0 1 2 1 2 0 2-2v-1h0zm-4 8q0-1 1-1a1 1 0 01 1 1q0 1-1 1a1 1 0 01-1-1zm4 0h-2q0 0 0-1v-1h3v1 1h-2m-6 1h-1q0 0 0 0v-1h2q0 0 1 0a0 1 0 01 0 1h-1m-5 1v-1h1l-1 1h-1m15-2q0-1 1-1a1 1 0 01 1 1 1 1 0 01-1 1 1 1 0 01-1-1zm5 1h1a0 1 0 00 1 0v-1h-2q0 0-1 0 0 1 0 1h1m4 1v-1h-1v1h1m0-7v-1q0 0-1 0 0 1 0 1zm-7-2q0-1 0-1v1q0 1 0 1v-1zm-9 0v-1q0 0 0 1zm-7 2v-1q0 0 1 0 0 1 0 1zm11-8-1 1 1 3h0 0l1-3-1-1m-2 5 1 1 2-1h0 0l-2-1-1 1m5 0v1l-2-1h0 0l2-1v1m-11-4-1 1 1 2h0 0v-3l-1-1m-1 6 1 1 2-1h0 0-2v1m4-2v1h-2 0v-1l2-1 1 1m-8 1v1h-2 0 0l2-2 1 1m3-1q0-1 1-1l-1 1zm17-4 1 1-1 2h0 0v-3l1-1m1 6-1 1-2-1h0 0 2v1m-5-2v1h2 0v-1l-2-1-1 1m9 1v1h2 0 0l-2-2-1 1m-12-2 1-1q1 0 1 1l-1 1zm7 1q0-1 1-1l1 1-1 1zm-22 3-2-2q0 0 1-1h1 0s0 0 1 1v2zm0 0q0-1 1 0h-1q0 0 0-1zm30 0 2-2q0 0-1-1h-1 0s0 0-1 1v1zm0 0q0-1-1 0 0 0 0 1h1q0 0 0-1zm209-1s-1 2-2 2-2-1-2-1-1 1-2 1-2-1-2-1l-2 2-2-1c0 0 0 1-1 1h-1l-3-3-1-2v-1q0-2 3-4a6 8 0 01 3 0q1-2 5-2c3 0 4 1 5 1a9 12 0 01 5-1q3 0 5 2 1-1 3 0 3 1 3 4v1l-1 2-3 3s0 0-1 0q-1-1-1-1c0 0-1 1-2 0s-2-2-2-2-1 2-2 1c-1 0-2-1-2-1s-1 1-2 1-2-2-2-2zm-2-9c0-2 1-4 2-4s2 2 2 4-1 4-2 4q-2 0-2-4zm1 0q0-4 1-4 1 0 1 4c0 3 0 4-1 4q-1 0-1-4zm-10 17-1-2a42 56 0 01 23 0l-1 2v2a36 48 0 00-10-2c-4 0-8 1-10 2v-1m10 4c4 0 8-1 9-1q2-1 2-2 0-1-1-1a38 50 0 00-10-2c-4 0-8 1-10 2q0 0-1 1 0 1 2 2c2 0 5 1 9 1zm8-18v-2q0-4-4-4-2 0-2 1m10 13-1-1s-1 1-2 0c-1 0-1-2-1-2s-1 1-2 1-2-1-2-1-1 1-2 1-2-2-2-2-1 2-2 2-2-1-2-1 0 1-2 1-2-1-2-1-1 1-2 2c-1 0-2-1-2-1v1h0v1a42 56 0 01 11-2q7 0 11 2v-1zm-20-8v-2c0-2 2-4 4-4a5 6 0 01 2 1m2 8h0v1q0 2 2 2a2 2 0 00 2-1v-1 1q0 2 2 2 2 0 2-2h0l1-1v1 1a2 2 0 00 2 2q1 0 1-1h0v1q0 1 1 1l2-1c2-1 1-1 1-1v1s-1 2-2 2q0 1-1 1-1 0-1-1h-1q-2 0-2-2l-2 1q-1 0-2-1l-2 1q-1 0-2-1-1 1-2 1-1 0-2-1a3 4 0 01-2 1q-1 0-2-1-1 2-2 2-1 0-1 0 0 1-1 1l-2-2v-1l1 1q1 1 1 1 1 0 1-1v-1h0q0 1 1 1a2 2 0 00 2-2v-2l1 1h0q0 2 2 2v-1 1q1 1 2 1 2 0 2-2v-1h0zm0 5q-7 0-11 2h0v-1q5-2 12-2v1h0a42 56 0 00-12-2zm-4 3q0-1 1-1a1 1 0 01 1 1 1 1 0 01-1 1q-1 0-1-1zm4 0h-2q0 0 0-1v-1h3v1 1h-2m-6 1h-1a0 1 0 01-1 0v-1h2q0 0 1 0a0 1 0 01 0 1h-1m-4 1v-1h1l-1 1h-1m15-2q0-1 1-1 0 1-1 1a1 1 0 01-1-1zm4 1h1 0v-1h-2q0 0-1 0 0 1 0 1h1m5 1v-1h-1v1h1m1-7v-1q0 0-1 0v1q0 0 1-1zm-8-2q0-1 0-1v1q0 1 0 1zm-8 0q0-1 0-1v1 1q0 0 0-1zm-7 2v-1q0 0 1 0v1q0 0-1-1zm11-8-1 1 1 3h0 0l1-3-1-1m-3 5 1 1 2-1h0 0l-2-1-1 1m6 0v1l-2-1h0 0l2-1 1 1m-12-4-1 1 1 2h0 0v-3l-1-1m-1 6 1 1 2-1h0 0-2v1m4-2v1h-2 0v-1l2-1 1 1m-8 1v1h-2 0 0l2-2 1 1m3-1q0-1 1-1l1 1-1 1zm16-4 1 1-1 2h0 0v-3l1-1m2 6-1 1-2-1h0 0 2v1m-5-2v1h2 0v-1l-2-1-1 1m8 1v1h2 0 0l-2-2-1 1m-12-2q0-1 1-1 1 0 1 1zm8 1q0-1 1-1 0 1-1 1zm-6-12v1h-2v-1h1v-3h-1v-1h1v-1h1v1h1v1h-1v2h1zm0-1q1 0 1 2a2 2 0 01-1-2q0-1 1-2m-17 18-2-2q0 0 1-1 0 0 1 0h0s0 0 1 1zm0 0q0-1 1 0 1 0 0 1h-1q0 0 0-1zm30 0 2-2q0 0-1-1h-1 0s0 0-1 1v1zm0 0q0-1-1 0h1q0 0 0-1zm-136 7v-13m-4 12v-12m2 12v-12m-6 12v-11m2 11v-12m49 37v-1-1s1 0 1 1q0 0 0 1zm15 9-1-1v-1m-13 0v-1 1h-1m2 0v-1l1 1h-1m-1-6 1 1-1 1v-1m2-1h1l-1 1v-1m-48 88h6v-2h-6zm16 0h6v-2h-6zm-8 18h6v-2h-6zM371 465h0v1q-1 1-1 0v-1h-1q-1-1 0-1v-1h0 0q0 1-1 0h0 0c-1 0-1-2-1-2h0s0 1 0 2v2a14 19 0 01 5 3 14 19 0 01 3 5l2-1q1.75 0 2 0h0c0 0-2 0-2-1h0 0q0-1 0-1h0v-1h0 0q-1 1-1 0v-1h-1q-1-1 0-2v-1zm-2-4h-1v2h0 0l1-1v-1m-2 1v1h1 0 0l-1-1-1 1m3 1-1 1-1-1h0 2v1m-1-2h1v1h0zm-4-2v-1l-1-1s1 0 1 0 0 2 0 2zm2 0-1 1-1-1h0 2v1m-2-2h0v1q0 1 0 0zm8 4h-1v1h0 0l1-1v-1m-2 1v1h1 0 0l-1-1h-1m3 3h-1l-1-1h0 0 1v1m0-2h1v1h0zm4 2v1l-1 1h0 0l1-2h1m-1 3h-1v-2h0 0l1 1v1m-2-3v1l1 1h0 0v-2h-1m1 2v-1h-1v1zm2 4h1l1 1s0-1 0-1c0-1-1 0-1 0zm-1-2v1l1 1h0 0v-2h-1m2 2s0 0 0 0h0q0 0 0 0zm59-46v1h-4v-1h2v-3h-1v-1h1v-1h1v1h1v1h-1v2h2" class="A B C"/><path d="M206 447q0-1 1-1a1 1 0 01 1 1q0 1-1 1a1 1 0 01-1-1m7 0q0-1 1-1a1 1 0 01 1 1 1 1 0 01-1 1 1 1 0 01-1-1M443 434q0-1 1-1 1 0 1 1a1 1 0 01-1-1m-20 1q0-1 1-1 1 0 1 1a1 1 0 01-1 1 1 1 0 01-1-1m6 13q0-1 1-1a1 1 0 01 1 1 1 1 0 01-1 1q-1 0-1-1m7 0q0-1 1-1 0 1-1 1a1 1 0 01-1-1M319 378q0-4 3-4c3 0 3 2 3 4s-1 4-3 4a3 4 0 01-3-4m78 19q0-2 2-2 2 0 2 2 0 2-2 2a2 2 0 01-2-2m2-5q0-2 2-2c0 2-1 2-2 2a2 2 0 01-2-2m4-4q0-2 2-2 2 0 2 2c0 2-1 2-2 2a2 2 0 01-2-2m0-7q0-2 2-2 2 0 2 2 0 2-2 2a2 2 0 01-2-2m-1-6q0-2 2-2 2 0 2 2c0 2-1 2-2 2a2 2 0 01-2-2m-3-6q0-2 2-2 2 0 2 2 0 2-2 2a2 2 0 01-2-2m-3-5q0-2 2-2c2 0 2 1 2 2s-1 2-2 2a2 2 0 01-2-2m-4-4q0-2 2-2a2 2 0 01 0 4q-2 0-2-2m-5-3q0-2 2-2c2 0 2 1 2 2s-1 2-2 2a2 2 0 01-2-2m-5-3q0-2 2-2a2 2 0 01 0 4 2 2 0 01-2-2m-5-1q0-2 2-2c2 0 2 1 2 2s-1 2-2 2a2 2 0 01-2-2m-5 0q0-2 2-2c2 0 2 1 2 2s-1 2-2 2a2 2 0 01-2-2m-5 0q0-2 2-2c0 2-1 2-2 2a2 2 0 01-2-2m-3 2q0-2 2-2c0 2-1 2-2 2a2 2 0 01-2-2m-2-2q0-2 2-2a2 2 0 01 0 4 2 2 0 01-2-2m-5-3q0-2 2-2c2 0 2 1 2 2s-1 2-2 2a2 2 0 01-2-2m-5-2q0-2 2-2 0 2-2 2-2 0-2-2m-3 0q0-2 2-2 2 0 2 2 0 2-2 2a2 2 0 01-2-2m-5 1q0-2 2-2a2 2 0 01-2-2m-5 5q0-2 2-2 2 0 2 2 0 2-2 2a2 2 0 01-2-2m-5 2q0-2 2-2 2 0 2 2c0 2-1 2-2 2a2 2 0 01-2-2m-82 53q0-2 2-2c2 0 2 1 2 2q0 2-2 2a2 2 0 01-2-2m-3-5q0-2 2-2c0 2-1 2-2 2a2 2 0 01-2-2m1-4q0-2 2-2 2 0 2 2 0 2-2 2a2 2 0 01-2-2m0-7q0-2 2-2 2 0 2 2 0 2-2 2a2 2 0 01-2-2m1-6q0-2 2-2c0 2-1 2-2 2a2 2 0 01-2-2m4-4q0-2 2-2 2 0 2 2 0 2-2 2a2 2 0 01-2-2m4-5q0-2 2-2c2 0 2 1 2 2s-1 2-2 2a2 2 0 01-2-2m4-4q0-2 2-2c2 0 2 1 2 2s-1 2-2 2a2 2 0 01-2-2m4-3q0-2 2-2c2 0 2 1 2 2s-1 2-2 2a2 2 0 01-2-2m5-3q0-2 2-2a2 2 0 01 0 4 2 2 0 01-2-2m6-1q0-2 2-2a2 2 0 01 0 4q-2 0-2-2m5 0q0-2 2-2c2 0 2 1 2 2s-1 2-2 2a2 2 0 01-2-2m5 0q0-2 2-2c0 2-1 2-2 2a2 2 0 01-2-2m7 2q0-2 2-2 2 0 2 2c0 2-1 2-2 2a2 2 0 01-2-2m4-4q0-2 2-2a2 2 0 01 0 4 2 2 0 01-2-2m4-3q0-2 2-2c2 0 2 1 2 2s-1 2-2 2a2 2 0 01-2-2m5-2q0-2 2-2 0 2-2 2c-2 0-2-1-2-2m7 0q0-2 2-2 2 0 2 2 0 2-2 2a2 2 0 01-2-2m6 1q0-2 2-2c2 0 2 1 2 2q0 2-2 2a2 2 0 01-2-2m5 1q0-2 2-2 2 0 2 2 0 2-2 2a2 2 0 01-2-2m5 2q0-2 2-2 2 0 2 2 0 2-2 2a2 2 0 01-2-2" class="K"/><path d="M203 448h-1q0 0 0 0v-1h2q0 0 1 0a0 1 0 01 0 1zm15 0h1a0 1 0 00 1 0v-1h-2q0 0-1 0 0 1 0 1zm209 0h-1a0 1 0 01-1 0v-1h2q0 0 1 0a0 1 0 01 0 1zm14 0h1 0v-1h-2q0 0-1 0 0 1 0 1zM356 614a4 5 0 01 4-5 4 5 0 01 4 5 4 5 0 01-4 5c-2 0-4-2-4-5" class="I"/><path d="M194 465h33v-11h-33zm4 8h25q2 0 2 1h-25q-1 0-2-2 0-2 2-2zm0-8h25q2 0 2 1h-25q-1 0-2-1 0-1 2-1zm36 196q-3 0-6-2a12 17 0 00-6-2q-3 0-6 2a12 17 0 01-6 2q-4 0-6-2a12 17 0 00-6-2 12 17 0 00-6 2 12 17 0 01-6 2v5q4 0 6-2a12 17 0 01 6-2q3 0 6 2c2 2 3 2 6 2a12 17 0 00 6-2q2-2 6-2 4 0 6 2c2 2 3 2 6 2zm0 5a12 17 0 01-6-2 12 17 0 00-6-2q-3 0-6 2c-2 2-4 2-6 2s-4-1-6-2a12 17 0 00-6-2 12 17 0 00-6 2q-2 2-6 2v5q4 0 6-2a12 17 0 01 6-1q3 0 6 1a12 17 0 00 12 0 14 19 0 01 12 0 12 17 0 00 6 2v-5m0 5a11 15 0 01-6-2 12 17 0 00-6-1q-3 0-6 1-2 2-6 2c-4 0-4-1-6-2a12 17 0 00-6-2 12 17 0 00-6 2q-2 2-6 2v5q4 0 6-2a16 21 0 01 12 0 11 15 0 00 6 2 12 17 0 00 6-2q2-2 6-2 4 0 6 2c2 2 3 2 6 2v-5m0 10a12 17 0 01-6-2q-2-2-6-2a12 17 0 00-6 2q-2 2-6 2a11 15 0 01-6-2 12 17 0 00-6-1q-3 0-6 2c-2 2-4 2-6 2v-5a12 17 0 00 6-2 16 21 0 01 12 0 12 17 0 00 6 2 12 17 0 00 6-2q2-2 6-2c2 2 4 2 6 2v5m6 5a12 17 0 01-6-2q-2-2-6-2a12 17 0 00-6 2q-2 2-6 2a11 15 0 01-6-2 12 17 0 00-6-1q-3 0-6 2c-2 2-4 2-6 2v-5a12 17 0 00 6-2q2-2 6-2a12 17 0 00 12 0q2-1 6-1c2 2 3 2 6 2zM198 639h25q2 0 2 2 0 1-2 1h-25q-1 0-2-2 0-1 2-1zm-5 21h34v-12h-34zm-2-63c-3 2-6 5-5 7q0 2 3 3c2 2 4 6 3 8a9 11 0 00 0-18zM216 478v159m3-159v159m-20 0h24v-159h-24v159zm-1-80q-10.5-1.25-12-7 0-5 6-9l6 1v15m25-12q6 1 9 4h0c1 2-3 6-9 11v-16M418 465h33v-11h-33zm4 8h25q2 0 2 1h-25q-2 0-2-2 0-2 2-2zm0-8h25q2 0 2 1h-25q-2 0-2-1zM411 661q3 0 6-2a12 17 0 01 6-2q3 0 6 2c2 2 4 2 6 2q4 0 6-2a12 17 0 01 6-2 12 17 0 01 6 2q2 2 6 2v5a12 17 0 01-6-2 12 17 0 00-6-2q-3 0-6 2-2 2-6 2a12 17 0 01-6-2 12 17 0 00-6-2 12 17 0 00-6 2q-2 2-6 2v-5zm0 5q3 0 6-2c2-2 4-2 6-2q3 0 6 2c2 2 4 2 6 2a12 17 0 00 6-2 12 17 0 01 6-2q4 0 6 2 2 2 6 2v5a12 17 0 01-6-2 12 17 0 00-6-1q-3 0-6 1-2 2-6 2a11 15 0 01-6-2q-2-1-6-1a12 17 0 00-6 1 12 17 0 01-6 2v-5m0 5q3 0 6-2 2-1 6-1 3 0 6 1 3 1.75 6 2a12 17 0 00 6-2 12 17 0 01 6-2 12 17 0 01 6 2q2 2 6 2v5a12 17 0 01-6-2 12 17 0 00-6-1q-3 0-6 1-2 2-6 2a12 17 0 00-6-2 12 17 0 00-6 2q-2 2-6 2v-7m-6 10a12 17 0 00 6-2q2-2 6-2 3 0 6 2c2 2 4 2 6 2q4 0 6-2a12 17 0 01 6-1q4 0 6 2a12 17 0 00 6 2v-5a12 17 0 01-6-2 12 17 0 00-6-1q-3 0-6 1-2 2-6 2a12 17 0 00-6-2 12 17 0 00-6 2q-2 2-6 2v5m-6 1a12 17 0 00 6-2q2-2 6-2 3 0 6 2c2 2 4 2 6 2a12 17 0 00 6-2 12 17 0 01 6-1q4 0 6 2 2 2 6 2v-5a12 17 0 01-6-2 12 17 0 00-6-2 12 17 0 00-6 1 12 17 0 01-6 2q-3 0-6-2-3 0-6 2c-2 2-4 2-6 2v5zm11-46h25q2 0 2 2 0 1-2 1h-25q-2 0-2-2 0-1 2-1zm-5 21h34v-12h-34zm37-63c3 2 6 5 5 7q0 2-3 3c-2 2-4 6-3 8a9 11 0 01 0-18zM440 477v159m3-159v159m-20 0h24v-160h-24v159zm23-79q10.5-1.25 12-7 0-5-6-9l-6 1v15M422 545a20 27 0 00-9 4h0c-1 2 3 6 9 11v-16M300 448v-10m2 10v-10m2 10v-10m-5 10v-9m-22 4c12-4 28-7 45-7 18 0 33 3 45 7M285 383l2 2 3-7a11 15 0 01-6-15c0-9 8-16 18-16q8 0 13 5v-4a27 35 0 00-14-4c-12 0-21 9-21 19a14 19 0 00 5 16l-2 4m2 0a14 19 0 01-6-15q0-10 8-17a14 19 0 00-5 14 14 19 0 00 5 14l-1 4m-36 7a14 19 0 01-4-12q0-4 2-8c3-9 13-15 25-15q5 0 9 1l-2 3a41 54 0 00-8-1c-11 0-20 6-23 13a11 15 0 00-1 6 11 15 0 00 4 12l-4 9-2-2zm4-29a17 23 0 00-6 9 14 19 0 00-1 8q0 7 4 12l-2 5a16 21 0 01-4-14c0-8 4-16 10-20zm68-18c3 0 5 2 5 5q1 4 1 9v2c0 7 1 13 2 17l-8 10-8-10c1-4 2-10 2-17v-2q0-5 1-9c0-3 3-5 5-5zm0 3q2 0 3 3 0 4 1 9v2q0 10 2 16l-5 7-5-7q2-6 2-16v-2l1-9a3 4 0 01 3-3zm37 37-2 2-3-7a11 15 0 00 6-13v-2c0-9-8-16-18-16a23 31 0 00-13 5v-4a27 35 0 01 14-4c12 0 21 9 21 19a14 19 0 01-5 16l2 4m-2 0a14 19 0 00 6-15c0-7-3-13-8-17a14 19 0 01 5 14 14 19 0 01-5 14l2 4m35 7a14 19 0 00 3-12 14 19 0 00-1-8c-3-9-13-15-25-15a45 60 0 00-9 1l2 3a39 52 0 01 8-1c11 0 20 6 22 13q1 3 1 6a11 15 0 01-4 12l4 9 2-2zm-4-29a17 23 0 01 6 9 14 19 0 01 1 8 14 19 0 01-4 12l2 5a16 21 0 00 4-14c0-8-4-16-10-20zm-71 17q0-4 3-4c3 0 3 2 3 4s-1 4-3 4a3 4 0 01-3-4zm42 101v-1-1h-4a9 12 0 01-4-2q-2-2-2-2c-2 0-4 1-4 1s2 1 3 3 2 3 3 3h5zm-21-7s1 1 1 1h1s0-1 0-2c0-2-2-3-2-3s0 1 0 2zm-4 2s-1-1-2-1-2 2-2 2h2c0 1 1 2 1 2l1-1zm-1 6s-1 0-2 1 0 3 0 3 1-1 1-1h2v-2zm15 7s-1 0-2 1q-1 2 0 2c0 0 1-1 2-1l2 1 2-1s-1 2-1 3v2c0 1-1 3-1 3l2-1 3-2 1-2s0 2 0 3v3l1-1q1 0 1-1v-2s0 2 1 3l1 3s0-2 1-2l1-2v-2l1 2m-17 1s1-2 2-2l3-3m2 10 4-4m-21 3s-1-1-2-1-2 2-2 2 1 0 2 0 1 1 1 1l1-1zm-1 6s-1 0-2 1-1 2-1 2 1-1 1-1h1v-1q0-1.75 0-2zm2 5s0 2 0 3c1 1 2 1 2 1v-1-2q0 0-1-1zm25 3s3 2 3 5c0 2-2 5-2 5m-15 1s-1-1-2-1-2 1-2 1 1 0 2 0l1 1 1-1zm-3 6s-2 0-2 1-1 3-1 3 1-1 2-1q1 0 2 1v-1-1zm3 6s0 1 0 2 2 2 2 2 0-1 0-2 1-2 1-2h-2zm19 2s-1 0-2 0c-1 1-1 3-1 3s1-1 2-1q1 0 2 1v-2zm0 6s-1 1-1 2l1 2s0-1 0-2l2-1-1-1zm5 2s0 2 0 3l2 1q0-1 0-2 0-1 1-1h-1l-1 1zM397 397q0-2 2-2 2 0 2 2 0 2-2 2a2 2 0 01-2-2zm2-5q0-2 2-2c0 2-1 2-2 2a2 2 0 01-2-2zm2-6q0-2 2-2 2 0 2 2c0 2-1 2-2 2a2 2 0 01-2-2zm0-7q0-2 2-2 2 0 2 2 0 2-2 2a2 2 0 01-2-2zm-1-6q0-2 2-2 2 0 2 2c0 2-1 2-2 2a2 2 0 01-2-2zm-3-6q0-2 2-2 2 0 2 2 0 2-2 2a2 2 0 01-2-2zm-3-5q0-2 2-2c2 0 2 1 2 2s-1 2-2 2a2 2 0 01-2-2zm-4-4q0-2 2-2a2 2 0 01 0 4q-2 0-2-2zm-5-3q0-2 2-2c2 0 2 1 2 2s-1 2-2 2a2 2 0 01-2-2zm-5-3q0-2 2-2a2 2 0 01 0 4 2 2 0 01-2-2zm-5-1q0-2 2-2c2 0 2 1 2 2s-1 2-2 2a2 2 0 01-2-2zm-5 0q0-2 2-2c2 0 2 1 2 2s-1 2-2 2a2 2 0 01-2-2zm-5 0q0-2 2-2c0 2-1 2-2 2a2 2 0 01-2-2zm-5 0q0-2 2-2c0 2-1 2-2 2a2 2 0 01-2-2zm-4-4q0-2 2-2a2 2 0 01 0 4 2 2 0 01-2-2zm-5-3q0-2 2-2c2 0 2 1 2 2s-1 2-2 2a2 2 0 01-2-2zm-5-2q0-2 2-2 0 2-2 2-2 0-2-2zm-5-2q0-2 2-2 2 0 2 2 0 2-2 2a2 2 0 01-2-2zm-5 1q0-2 2-2a2 2 0 01-2-2zm-5 1q0-2 2-2 2 0 2 2 0 2-2 2a2 2 0 01-2-2zm-5 2q0-2 2-2 2 0 2 2c0 2-1 2-2 2a2 2 0 01-2-2zm-82 53q0-2 2-2c2 0 2 1 2 2q0 2-2 2a2 2 0 01-2-2zm-3-5q0-2 2-2c0 2-1 2-2 2a2 2 0 01-2-2zm-1-6q0-2 2-2 2 0 2 2 0 2-2 2a2 2 0 01-2-2zm0-7q0-2 2-2 2 0 2 2 0 2-2 2a2 2 0 01-2-2zm1-6q0-2 2-2c0 2-1 2-2 2a2 2 0 01-2-2zm2-6q0-2 2-2 2 0 2 2 0 2-2 2a2 2 0 01-2-2zm4-5q0-2 2-2c2 0 2 1 2 2s-1 2-2 2a2 2 0 01-2-2zm4-4q0-2 2-2c2 0 2 1 2 2s-1 2-2 2a2 2 0 01-2-2zm4-3q0-2 2-2c2 0 2 1 2 2s-1 2-2 2a2 2 0 01-2-2zm5-3q0-2 2-2a2 2 0 01 0 4 2 2 0 01-2-2zm6-1q0-2 2-2a2 2 0 01 0 4q-2 0-2-2zm5 0q0-2 2-2c2 0 2 1 2 2s-1 2-2 2a2 2 0 01-2-2zm5 0q0-2 2-2c0 2-1 2-2 2a2 2 0 01-2-2zm5 0q0-2 2-2 2 0 2 2c0 2-1 2-2 2a2 2 0 01-2-2zm4-4q0-2 2-2a2 2 0 01 0 4 2 2 0 01-2-2zm4-3q0-2 2-2c2 0 2 1 2 2s-1 2-2 2a2 2 0 01-2-2zm5-2q0-2 2-2 0 2-2 2c-2 0-2-1-2-2zm5-2q0-2 2-2 2 0 2 2 0 2-2 2a2 2 0 01-2-2zm6 1q0-2 2-2c2 0 2 1 2 2q0 2-2 2a2 2 0 01-2-2zm5 1q0-2 2-2 2 0 2 2 0 2-2 2a2 2 0 01-2-2zm5 2q0-2 2-2 2 0 2 2 0 2-2 2a2 2 0 01-2-2z" class="A B D"/><path d="M197 473h26a2 3 0 01-2-2q0-2 2-3h-26q2 1 2 3a2 3 0 01-2 2zm0 169v1c0 3-2 5-4 5h34a5 6 0 01-4-5v-1zM248 537a78 104 0 00-36-4c-15 3-26 11-25 18h0l-5-17c-1-7 11-16 28-19a67 90 0 01 14-1c10 0 19 2 25 4v20m-66 50c-1-2 6-8 15-12l12-7c13-8 22-16 21-20h0c1 1 2 17 2 17 1 3-8 11-19 19-4 2-12 6-16 8-7 3-14 9-13 11l-2-16zM447 473h-26q2-1 2-2 0-2-2-3h27 0q-2 1-2 3 0 2 2 2zm0 169v1c0 3 2 5 4 5h-34c2 0 4-2 4-5v-1zM397 537a78 104 0 01 36-4c15 3 26 11 25 18h0l5-17c1-7-11-16-28-19a84 113 0 00-14-1c-10 0-19 2-25 4v20m66 50c1-2-6-8-15-12q-6-2.75-12-7c-13-8-22-16-21-20h0c-1 1-2 17-2 17-1 3 8 11 19 19 4 2 12 6 16 8 7 3 14 9 13 11l2-16zM322 449c-17 0-32-2-43-6 11-4 26-6 43-6a180 240 0 01 43 6c-11 4-27 7-43 7z" class="A B D G"/><path d="M234 661q-3 0-6-2a12 17 0 00-6-2q-3 0-6 2a12 17 0 01-6 2q-4 0-6-2a12 17 0 00-6-2 12 17 0 00-6 2 12 17 0 01-6 2v5q4 0 6-2a12 17 0 01 6-2q3 0 6 2c2 2 3 2 6 2a12 17 0 00 6-2q2-2 6-2 4 0 6 2c2 2 3 2 6 2zm0 10a11 15 0 01-6-2 12 17 0 00-6-1q-3 0-6 1-2 2-6 2c-4 0-4-1-6-2a12 17 0 00-6-2 12 17 0 00-6 2q-2 2-6 2v5q4 0 6-2a16 21 0 01 12 0 11 15 0 00 6 2 12 17 0 00 6-2q2-2 6-2 4 0 6 2c2 2 3 2 6 2zm0 14a12 17 0 01-6-2q-2-2-6-2a12 17 0 00-6 2q-2 2-6 2a11 15 0 01-6-2 12 17 0 00-6-1q-3 0-6 2c-2 2-4 2-6 2v-5a12 17 0 00 6-2q2-2 6-2a12 17 0 00 12 0q2-1 6-1c2 2 3 2 6 2zM411 661q3 0 6-2a12 17 0 01 6-2q3 0 6 2c2 2 4 2 6 2q4 0 6-2a12 17 0 01 6-2 12 17 0 01 6 2q2 2 6 2v5a12 17 0 01-6-2 12 17 0 00-6-2q-3 0-6 2-2 2-6 2a12 17 0 01-6-2 12 17 0 00-6-2 12 17 0 00-6 2q-2 2-6 2v-5m0 10q3 0 6-2 2-1 6-1 3 0 6 1 3 1.75 6 2a12 17 0 00 6-2 12 17 0 01 6-2 12 17 0 01 6 2q2 2 6 2v5a12 17 0 01-6-2 12 17 0 00-6-1q-3 0-6 1-2 2-6 2a12 17 0 00-6-2 12 17 0 00-6 2q-2 2-6 2v-7m-6 14a12 17 0 00 6-2q2-2 6-2 3 0 6 2c2 2 4 2 6 2a12 17 0 00 6-2 12 17 0 01 6-1q4 0 6 2 2 2 6 2v-5a12 17 0 01-6-2 12 17 0 00-6-2 12 17 0 00-6 1 12 17 0 01-6 2q-3 0-6-2-3 0-6 2c-2 2-4 2-6 2v5M305 562c0-15 8-27 17-27s17 12 17 27-8 27-17 27-17-12-17-27" class="J"/><path fill="#ccc" d="M234 666a12 17 0 01-6-2 12 17 0 00-6-2q-3 0-6 2c-2 2-4 2-6 2s-4-1-6-2a12 17 0 00-6-2 12 17 0 00-6 2q-2 2-6 2v5q4 0 6-2a12 17 0 01 6-1q3 0 6 1a12 17 0 00 12 0 14 19 0 01 12 0 12 17 0 00 6 2zm0 15a12 17 0 01-6-2q-2-2-6-2a12 17 0 00-6 2q-2 2-6 2a11 15 0 01-6-2 12 17 0 00-6-1q-3 0-6 2c-2 2-4 2-6 2v-5a12 17 0 00 6-2 16 21 0 01 12 0 12 17 0 00 6 2 12 17 0 00 6-2q2-2 6-2c2 2 4 2 6 2zM198 637h24v-160h-24v159zm213 29q3 0 6-2c2-2 4-2 6-2q3 0 6 2c2 2 4 2 6 2a12 17 0 00 6-2 12 17 0 01 6-2q4 0 6 2 2 2 6 2v5a12 17 0 01-6-2 12 17 0 00-6-1q-3 0-6 1-2 2-6 2a11 15 0 01-6-2q-2-1-6-1a12 17 0 00-6 1 12 17 0 01-6 2v-5m0 15a12 17 0 00 6-2q2-2 6-2 3 0 6 2c2 2 4 2 6 2q4 0 6-2a12 17 0 01 6-1q4 0 6 2a12 17 0 00 6 2v-5a12 17 0 01-6-2 12 17 0 00-6-1q-3 0-6 1-2 2-6 2a12 17 0 00-6-2 12 17 0 00-6 2q-2 2-6 2v5m5-47h24v-160h-24v159zm-99 52a128 171 0 01-55-17 36 48 0 01-20-42v-67h151v67a36 48 0 01-20 42 127 169 0 01-55 17M322 562h75v-111h-75z"/><path stroke-width=".2" d="M443 434q0-1 1-1 1 0 1 1a1 1 0 01-1-1zm0-3a1 1 0 01 1-1q1 0 1 1a1 1 0 01-1-1zm-2-2q0-1 1-1a1 1 0 01-1-1zm-2-1q0-1 1-1 1 0 1 1-1 0-1-1zm-2 0q0-1 1-1 0 1-1 1a1 1 0 01-1-1zm13 10q0-1 1-1-1 0-1-1zm0-3q0-1 1-1a1 1 0 01 1 1q0 1-1 1-1 0-1-1zm-2-2a1 1 0 01 1-1q0 0 1 1a1 1 0 01-1 1 1 1 0 01-1-1zm-2-1q0-1 1-1 0 1-1 1a1 1 0 01-1-1zm-2 0q0-1 1-1 1 0 1 1-1 0-1-1zm-20 2q0-1 1-1 1 0 1 1a1 1 0 01-1 1 1 1 0 01-1-1zm0-3q0-1 1-1 0 1-1 1a1 1 0 01-1-1zm2-2q0-1 1-1 0 1-1 1a1 1 0 01-1-1zm2-1q0-1 1-1 1 0 1 1-1 0-1-1zm2 0q0-1 1-1 0 0 1 1 0 1-1 1a1 1 0 01-1-1zm-13 10q0-1 1-1a1 1 0 01-1 1q0 0-1-1zm0-3q0-1 1-1 1 0 1 1-1 0-1-1zm2-2q0-1 1-1a1 1 0 01 1 1 1 1 0 01-1 1 1 1 0 01-1-1zm2-1q0-1 1-1 0 0 1 1 0 1-1 1a1 1 0 01-1-1zm2 0q0-1 1-1a1 1 0 01 1 1 1 1 0 01-1 1q-1 0-1-1zM318 449v-13m-2 13v-13M202 451h0m224 0h0" class="A B"/><path stroke-linecap="round" d="M450 440v-2a4 6 0 00-4-6q-1 0-2 1m-26 7v-2a4 6 0 01 4-6q1 0 2 1" class="A B C"/><path stroke-width=".1" d="M285 401c0-2 2-4 3-4s3 2 3 4-2 4-3 4a3 4 0 01-3-4zm38 48v-13m-3 13v-13m14 13v-12m-5 12v-13m-3 13v-13m36 34v-1s1 0 2 1 1 2 1 2l-1-1h-1 0v-1zm6-3h0v1h0q0 0 0 0zm1 1h0 0 0l1 1h0 0v-1m-3-2h0s0 0 0 0h1 0 0 0m-3-1h0 0 0s0 0 0 0zm6 5h0 0 0zm1 1h0 0 0l-1-1h0 0 0m2 3v-1h0 0 0zM208 452v-2m-1 2v-2m0 2v-2m-1 2v-2m0 2v-2m-1 2v-2m0 2v-2m0 2v-2m-1 2v-2m0 2v-2m0 2v-2m-1 1v-1m0 1v-1m-1 1v-1m0 1v-1m0 1v-1m0 1h0m230 1v-2m-1 2v-2m0 2v-2m-1 2v-2m0 2v-2m-1 2v-2m0 2v-2m0 2v-2m-1 2v-2m0 2v-2m0 2v-2m-1 1v-1m0 1v-1m-1 1v-1m0 1v-1m0 1v-1m0 1h0" class="A B"/><path d="M321 365c10 0 19 2 25 5a50 67 0 00 23 5c4 0 10 2 16 5a42 56 0 01 12 10l-2 3-1 8-6 10-3 4-8 8h-4l-1 4-49-8-50 8-1-4h-4l-8-8-3-4-6-10-1-8-2-3a44 58 0 01 12-10 41 54 0 01 16-5q5 1 10 0a47 63 0 00 12-4q9-5 24-5z" class="A C H"/><path d="M322 452c-18 0-35-3-47-8a2 2 0 01-1-2q0-2 1-2a170 227 0 01 47-8c18 0 35 3 47 8a2 3 0 01 0 5c-12 5-28 8-47 8m0-21a169 225 0 00-47 8c1-1 1-2 0-6-2-5-4-5-4-5 13-5 31-8 51-8a192 256 0 01 52 8s-2 0-4 5q-2 6 0 6c-12-5-29-8-47-8m-1-11c-20 0-38 3-51 8a2 2 0 01-2-1 2 2 0 01 1-3 189 252 0 01 52-9c21 0 39 4 52 9q2 1 1 3c-13-5-31-8-51-8m-2-20h2a7 10 0 00 7 12 8 10 0 00 7-6c0 0 1-4 1-4s0 4 0 4c0 5 4 8 7 8a7 10 0 00 7-10l2-3 1 4a6 8 0 00-1 4 7 9 0 00 7 9q4 0 6-4l1-2v3c0 3 1 6 3 6 0 0 3 0 6-3q4.75-6 5-6v4s-3 6-6 8c-2 1-4 3-6 2q-3-1-5-5a11 15 0 01-5 2 11 15 0 01-10-8 11 15 0 01-16-1 11 15 0 01-7 4 11 15 0 01-9-6 11 15 0 01-9 6 11 15 0 01-7-4 11 15 0 01-16 1 11 15 0 01-9 8 11 15 0 01-5-2q-1 4-5 6c-2 0-5-1-6-2-3-2-6-8-6-8v-4s2 3 5 6 6 3 6 3c2 0 3-3 3-6v-3l2 2a8 10 0 00 6 4c4 0 7-4 7-9a6 8 0 00-1-4l1-4 2 3v1c0 5 3 9 7 9s7-3 7-8c0 0 0-3 0-4s1 4 1 3a8 10 0 00 7 6 7 10 0 00 7-12h2M285 383a8 10 0 01 3 6s0-1 1-1 2-1 2-1v3 5l-1 3a3 4 0 00-2-1 3 4 0 00-2 2s-1-1-2-3l-3-6s1 0 2 0q1 0 1 0a8 10 0 01 2-7m1 20-1-2q0-1 0-2s-1-1-3-1h-4-2v1l1 1a8 10 0 00-5 4 8 10 0 00 5 2v2 1l2-1c0 0 2-1 3-2s2-2 2-2m4-1v-2l-1-2 2-3 3-2 2-1v1 2a8 10 0 01 5 2 8 10 0 01-5 4l1 2h-2q-1.25 0-4 0l-3-1m35-26a9 12 0 01 3 8s0-1 1-1q2-1 2 0l-1 3-1 5-2 4a3 4 0 00-3-1q-2 0-2 1 0 0-2-4l-1-5-1-3h2q2 1 1 1 0-5 3-8m-1 23a3 4 0 01-1-2q0-2 1-3s-1-1-3-2c-1-1-3-1-4-1h-2v1l1 2a9 12 0 00-6 4q2 3 6 3l-1 2v1h2l4-1q3-1.75 3-2m5 0a3 4 0 00 0-5s1-1 3-2a12 17 0 01 4-1l2-1v1l-1 2q3 0 6 4a9 12 0 01-6 3l1 3h-2l-4-1q-3-1.75-3-2m34-17a8 10 0 00-3 6l-1-1-2-1v3q0 1.75 0 5 1 3 1 3a3 4 0 01 2-1q1 0 2 2l2-3q2-3 2-4l1-2s-1 0-2 0h-2a8 10 0 00-2-7m0 20q1-1 1-2v-2s1-1 3-1h4 2l-1 2a8 10 0 01 5 4 8 10 0 01-5 2v2 1l-2-1c0 0-2-1-3-2s-2-2-2-2m-4-1v-2q0-1 1-2s-1-2-2-3-3-2-3-2l-2-1v1 2a8 10 0 00-5 2q2 3 5 4l-1 1v1h2 4l3-1m28 7 1-2c1-1 3-1 4 0h0s2-4 4-5 5-1 5-1a5 6 0 00-5-6 5 6 0 00-4 2v-2s-2 1-3 4 0 8 0 8 0-2-1-3a12 17 0 00-4-3l-2-1v1 2a12 17 0 00-6 1 8 10 0 00 4 5l-2 2h2 4 3m-125 0q0-1-1-2c-1-1-3-2-3-1v1s-2-4-4-6-5-1-5-1a5 6 0 01 4-6q2 0 4 2v-2s2 1 3 4 0 8 0 8 0-2 1-3a12 17 0 01 4-3l2-1v3a12 17 0 01 6 1 8 10 0 01-4 5l2 2h-2-4-3m13 61h-2v-2h-2v8h2v5h-5v15h3v30h-5v15h42v-15h-5v-30h3v-15h-5v-5h2v-7h-2v2h-1v-2h-2v2h-2v-2h-2v8h2v5h-5v-16h3v-7h-3v2h-2v-2h-2v2h-1v-2h-2v8h3v16h-5v-5h2v-7h-2v2h-1v-2h-3zm-9 70h43m-43-4h43m-43-3h43m-43-4h43m-43-4h43m-37-3h32m-32-4h32m-32-4h32m-32-4h32m-32-4h32m-32-4h32m-32-4h32m-34-4h37m-37-4h37m-37-4h37m-37-4h37m-33-1h27m-16-4h5m-5-4h5m-5-4h5m-5-4h5m-8-5h11m-19 16h6m-8-5h10m-10 68v-4m0-4v-4m-3 4v4m5 0v-4m3 8v-4m0-4v-4m0-4v-3m0-4v-4m-3 15v-4m-5 4v-4m11 0v4m2-4v-3m-8-4v4m5-4v4m5-4v4m-2-2v-4m3-4v4m0-11v4m-3-8v4m3-7v4m-5-4v4m-5-4v4m-2-7v4m5-4v4m5-4v4m3-8v4m-5-4v4m-5-4v4m-2-8v4m10-4v4m-5-11v4m24-4h-5m8-5h-10m10 68v-4m0-4v-4m3 4v4m-5 0v-4m-3 8v-4m0-4v-4m0-4v-3m0-4v-4m3 15v-4m5 4v-4m-11 0v4m-2-4v-3m8-4v4m-5-4v4m-5-4v4m3-4v-4m-3-4v4m0-11v4m3-8v4m-3-7v4m5-4v4m5-4v4m2-7v4m-5-4v4m-5-4v4m-3-8v4m5-4v4m5-4v4m2-8v4m-10-4v4m5-11v4m-11 38v-4m0-11v-4m0 11v-4m0-11v-4m0-4v-4m0-8v-4m0-4v-4m-13 10h5m5-11h5m5 11h5m-7 65v-10c0-2-1-7-7-7s-7 6-7 7v10zm-12-9-3-1c0-2 0-5 1-5l3 3c0 0-1 2-1 3zm9 0 3-1c0-2 0-5-1-5l-3 3c0 0 1 2 1 3zm-3-5 2-4-3-1-3 1 2 4zm-7-11v-10c0-3-2-5-4-5s-4 2-4 5v10zm11 0v-10c0-3 2-5 4-5s4 2 4 5v10zm-3-25 1-9h-7v9zm5 0-1-9h7l-1 9zm-16 0v-9h-7l1 9z" class="A D F"/><path d="M296 447v-9m-2 9v-8m29 250a128 171 0 01-55-17 36 48 0 01-20-42v-67h151v67a36 48 0 01-20 42 127 169 0 01-55 17zM322 562h75v-111h-75zm-75 0h75v-111h-75zm75 67c0 26-17 48-38 48s-38-21-38-48v-67h75v67m77-67v67c0 26-17 48-38 48s-38-21-38-48v-67h75" class="A B E"/><path stroke-width=".6" d="M291 446v-6m2 7v-7m-4 6v-6m9 122c0-20 11-37 24-37s24 16 24 37-11 36-24 36-24-16-24-36zm7 0c0-15 8-27 17-27s17 12 17 27-8 27-17 27-17-12-17-27z" class="A B"/><path stroke-width=".7" d="M287 445v-5m-2 4v-4m-2 3v-3" class="A B"/><path stroke-width=".9" d="M281 443v-1" class="A B"/><path d="M308 427q0-2 2-2 1 0 2 2 0 2-2 2a2 2 0 01-2-2m-25 4q0-2 2-2a2 2 0 01-2-2m50 0q0-2 2-2c2 0 2 1 2 2s-1 2-2 2a2 2 0 01-2-2m25 4q0-2 2-2 0 2-2 2a2 2 0 01-2-2M319 371q0-4 3-4c3 0 3 2 3 4s-1 4-3 4a3 4 0 01-3-4m1-8q0-2 2-3 2 0 2 3 0 3-2 3c-2 0-2-1-2-3m0-7q0-2 2-2c2 0 2 1 2 2s-1 2-2 2a2 2 0 01-2-2m0-6q0-2 1-2 0 1-1 2a2 2 0 01-1-2m54 64q1-3-1-4-1 0-2 2-1 3 1 4 1 0 2-2m-32-8c0-2 0-3-2-3q-1 0-2 3 0 3 1 3 2 0 2-3m-37 0q.25-3 2-3 2 0 2 3 0 3-1 3-2 0-2-3m-32 8q0-3 1-4 2 0 2 2-2 0-2-2m89-51q0-2 2-2 2 0 2 2 0 2-2 2a2 2 0 01-2-2m1 6q0-2 2-2c2 0 2 1 2 2q0 2-2 2a2 2 0 01-2-2m0 6q0-2 2-2a2 2 0 01 0 4 2 2 0 01-2-2m-2 6q0-2 2-2 2 0 2 2 0 2-2 2a2 2 0 01-2-2m-3 5q0-2 2-2 2 0 2 2 0 2-2 2-2 0-2-2M278 357q0-2 2-2 2 0 2 2 0 2-2 2a2 2 0 01-2-2m-1 6q0-2 2-2c2 0 2 1 2 2q0 2-2 2a2 2 0 01-2-2m0 6q0-2 2-2 2 0 2 2 0 2-2 2a2 2 0 01-2-2m1 6q0-2 2-2 2 0 2 2 0 2-2 2a2 2 0 01-2-2m3 5q0-2 2-2a2 2 0 01 0 4 2 2 0 01-2-2" class="A D K"/><path d="M322 428h-5a2 2 0 01 0-4h10q1 0 2 2 0 2-2 2h-5m-50 6 2-3 5 1-4 4-3-2m100 0-2-3-5 1 4 4 3-2M285 401c0-2 2-4 3-4s3 2 3 4-2 4-3 4a3 4 0 01-3-4m68 0c0-2 2-4 3-4s3 2 3 4a3 4 0 01-3 4 3 4 0 01-3-4m36 9q-1.5-1.5-3 0-2 2-1 5 2 2 4-1c1-1 2-3 1-4m-135 0q2-1 4 1 2 2 1 4-1.5 1.5-3 0s-2-3-1-4m64-13q0-4 3-4c3 0 3 2 3 4s-2 4-3 4a3 4 0 01-3-4" class="A D H"/><path d="M297 430h-4q-1 0-2-2a2 2 0 01 2-2l3-1 4-1q1 0 2 2 0 2-1 2l-4 1m50 1h4q1 0 2-2a2 2 0 00-1-2l-3-1-4-1a2 2 0 00-2 2q0 2 1 2l4 1" class="A D I"/><path d="M315 335c0-5 3-8 7-8s7 4 7 8-3 8-7 8a6 8 0 01-7-8" class="A C J"/><path d="M320 311v5h-4v5h4v13h-5v1q0 2 0 3h12q0-1 0-3v-1h-4v-13h4v-5h-4v-5z" class="A C F"/><path d="M263 669c2 2 6 4 9 5v-114h-9zm34 5a30 40 0 00 9-5v-109h-9zm17-16c4-4 7-14 8-25v-73h-9v99z" class="A E F"/><path d="M247 628a38 50 0 00 9 31v-99h-8z" class="A E F G"/><path fill="#c7b500" d="M280 676a42 56 0 00 9 0v-116h-9v117z" class="A E"/><path stroke="#c8b100" d="M364 659a25 33 0 00 6-2l1 3a28 38 0 01-7 2 5 6 0 01-4 4 5 6 0 01-4-4 28 38 0 01-7-2l1-3q3 2 6 2a5 6 0 01 2-3v-14h2v14q2 1 2 3zm-8-43v-1h-6v-3h6v-1l-8-12 2-2 8 11h0v-16h3v15h0l8-11 2 2-8 11v1h6v3h-6q0 1 0 1l7 11-2 2-7-11h0v18h-2v-18h0l-8 11-2-2 7-11M336 582l9 14 2-2-10-14v-1h7v-4h-7a5 6 0 00-4-4 4 5 0 00-4 5 5 6 0 00 3 5v11h2v-11zm10 72-1 3a27 35 0 01-6-6q-2 1-4-1a4 5 0 01 0-7h0a23 31 0 01-2-10h2a20 27 0 00 2 8q1 0 2 0l6-9 2 2-6 9q1 3 0 6a23 31 0 00 5 5zM333 627v-8a5 6 0 01-3-5q0-3 3-5v-11h2v11q2 1 3 3h7v3h-7a5 6 0 01-2 3v8h-3m4 17q1-1 2 0 1.5 1.5 0 3a2 2 0 01-2 0 2 2 0 01 0-3zm-3-9-3-1v-9l3-1v5q0 3 0 6zm2-11 2 1v5c0-2 0 4 0 4l-3 1v-6-5zm9 29a25 33 0 00 8 5l1-3a22 29 0 01-6-4l-2 2m-1 3a27 35 0 00 8 5l-2 2a30 40 0 01-6-4l1-4m1-18 2 1 5-7-2-3-6 8m-2-2-2-3 5-7 2 1-6 8M333 614q0-2 2-2 2 0 2 2 0 2-2 2a2 2 0 01-2-2zm40 40 1 3a27 35 0 00 6-6q2 1 4-1a4 5 0 00 0-7h0a23 31 0 00 2-10h-3a20 27 0 01-2 8h-2l-6-9-2 2 6 9a4 5 0 00 0 6 23 31 0 01-5 5zm13-27v-8a5 6 0 00 3-5q0-3-3-5v-11h-2v11q-2 1-3 3h-7v3h7q1 2 3 3v8zm-4 17a2 2 0 00-2 0 2 2 0 00 0 3 2 2 0 00 2 0 2 2 0 00 0-3zm3-9 3-1v-9l-3-1v5q0 3 0 6zm-2-11-3 1v5c0-2 0 4 0 4l3 1v-6-5m2-42v11h-2v-11h-1l-9 14-2-2 9-15h0-7v-4h7a5 6 0 01 4-4 4 5 0 01 4 5 5 6 0 01-3 5zm-25 0v7h-3v-7a5 6 0 01-3-3h-6v-4h6q1-3 4-4c3 0 3 1 4 4h6v3h-6a5 6 0 01-2 3zm14 70a25 33 0 01-8 5l-1-3a22 29 0 00 6-4l2 2m1 3a27 35 0 01-8 5l2 2a30 40 0 00 6-4l-1-4M333 590l-3 1v9l3 1v-11m3 0 2 1v9l-2 1v-11m48 0-3 1v9l3 1v-11m2 0 3 1v9l-3 1v-11m-13 46-2 1-5-7 2-3 5 8m2-2 2-3-5-7-2 1 6 8M346 592l2-1 5 7-2 3-6-8m-2 2-2 3 5 7 2-1-6-8m29-2-2-1-5 7 2 3 6-8m2 2 2 3-5 7-2-1 5-8m-32 19 1-3h7l1 3h-9m0 3 1 3h7l1-3h-9m-9-43q0-2 2-2 2 0 2 2c0 2-1 2-2 2a2 2 0 01-2-2zm19 2-1 3h-7l-1-3h9m0-3-1-3h-7l-1 3h9m31 39q0-2 2-2 2 0 2 2 0 2-2 2a2 2 0 01-2-2zm-7-1-1-3h-7l-1 3h9m0 3-1 3h-7l-1-3h9m-18 46q0-2 2-2c0 2-1 2-2 2a2 2 0 01-2-2zm3-16 3-1v-9l-3-1v11m-2 0-3-1v-9l3-1v11m24-70q0-2 2-2a2 2 0 01 2 2q0 2-2 2a2 2 0 01-2-2zm-25 0q0-2 2-2a2 2 0 01 2 2q0 2-2 2a2 2 0 01-2-2zm10 2 1 3h7l1-3h-9m0-3 1-3h7l1 3h-9m-9 10-2 1v9l2 1v-11m3 0 2 1v9l-2 1v-11" class="B C"/><path fill="#db4446" d="M361 479v-1-1h-4a9 12 0 01-4-2q-2-2-2-2c-2 0-4 1-4 1s2 1 3 3 2 3 3 3h5zm-21-7s1 1 1 1h1s0-1 0-2c0-2-2-3-2-3s0 1 0 2zm-4 2s-1-1-2-1-2 2-2 2h2c0 1 1 2 1 2l1-1zm-1 6s-1 0-2 1 0 3 0 3 1-1 1-1h2v-2zm3 21s-1-1-2-1-2 2-2 2 1 0 2 0 1 1 1 1l1-1zm-1 6s-1 0-2 1-1 2-1 2 1-1 1-1h1v-1q0-1.75 0-2m3 6s0 2 0 3c1 1 2 1 2 1v-1-2q0 0-1-1zm11 14s-1-1-2-1-2 1-2 1 1 0 2 0l1 1 1-1zm-3 6s-2 0-2 1-1 3-1 3 1-1 2-1q1 0 2 1v-1-1m2 4s0 1 0 2 2 2 2 2 0-1 0-2 1-2 1-2h-2m18 2s-1 0-2 0c-1 1-1 3-1 3s1-1 2-1q1 0 2 1v-2zm0 6s-1 1-1 2l1 2s0-1 0-2l2-1-1-1zm5 2s0 2 0 3l2 1q0-1 0-2 0-1 1-1h-1l-1 1"/><path fill="#ed72aa" d="M372 474v3 3q0 1 0 2v2l-2-2v2l1 2 2 3c0 1 0 3 0 3s-1-1-1-2l-2-1s1 2 1 3v3c0 0 0-1-1-2l-2-2s1 2 1 4v5l-1-2-2-1c0 0 1 1 1 2s0 5 3 9c2 3 4 8 8 6s3-10 2-14a27 35 0 01-2-10c0-2 1-6 1-7a12 17 0 01 0-6l1-5 1-3v-3l1 3v3s0-2 2-3 3-2 3-3v-1c0 0 0 4-1 5l-3 4s1-1 2-1h1s-1 1-2 3-1 2-2 4-2 2-3 3c-2 2-1 9-1 10s3 9 3 11 0 7-2 10c-2 2-5 2-5 2-1 1-2 2-2 6s1 4 2 5 2 0 2 1l1 1q0 1 0 2c0 1-1 2-2 4l-1 5c0 0 0 2 0 3 0 0 1 2 0 2h-2l-1 1q0 0-1-2v-1q0 0-1 1v2l-1-1c0 0-1 0-1-1q0-1 1-2 1 0 1-1c0 1-1 0-1 0v-2c0 0-1-1 0-2s1 0 2 0q1 0 2-1 0-1 0-3l-1-2v-2 5l-1-2c0-1-1-3-1-3v3 2c0 0-1-1-2-2l-2-2-1-3v-3l1-2h-2c-1 0-2-1-2 0q-1 2 0 6 1 4 1 4l-1 2h-1l-2-1h-2l-2-1-1 1q0 2-1 1h-1q-1 0-1-1 0-1 0-1h-1q0 1-1 1 0 0-1-2c0-2-1-2 0-2s2 1 2 0q0-1 0-1-1.5-1.25 0-1l1-1c0 0 1-2 1-1 1 0 0 1 1 3s2 2 3 2q2 0 2-1v-2-2s-1 1-1 1l-1 2v-4-2 2 2s-1-1-1-3v-4c0-1 1-3 3-3h4l3-1s-4-3-5-4a16 21 0 01-3-4l-1-3s-1 0-2 1l-2 2-1 2v-2-2s-1 2-2 4l-2 2v-2-2s-1 2-2 2-3 0-3 1q0 2 0 3c0 1-1 1-1 1l-1-1h-1v-1s1-1 1-2h-1c0 0-1 1-1 0q0-1 0-2 0-1 0-1h2q0-1-1-1-2 0-1-2 0 0 1-1c0 0 0-1 1-1 1 1 1 2 2 2a6 8 0 00 3 0l5-4-2-2q-1-1-2-2l-6-2 1-1q1-1 1-1h0-2l-2-1h-1s1-1 2-1h2s-1-1-2-1l-1-2q0-1-1-1l-2 1q-1 0-1-1v-1c0-1-1-2 0-2h2q0-1-1-2c-1 0-2-1-1-2l1-1c0-1 0-2 1-1l2 2s0-2 0-2q0-1.75 0-2l2 1q1 0 2 0 0 1-1 2-1 1 0 3 1 2 2 3c1 1 3 2 3 3l1 1s1 0 2 0 3 0 4 0 2-1 2-2l-2-3q0-1 2-1c1 0 3 0 3-2q1-3-1-4c-2 0-3 0-3-2q-1-2 0-2 0-1 2-1 2 0 3 0l1-2 2-1s2 1 4 4l3 4" class="A D"/><path d="M356 473v-1-1s1 0 1 1q0 0 0 1zm6-3v-1s1 0 2 1 1 2 1 2l-1-1h-1 0v-1zm-5 10v-1 1zm1 0v-1l1 1zm-1-6 1 1-1 1v-1m2-1h1l-1 1zm9-7h0v1h0q0 0 0 0m1 0h0 0 0l1 1h0 0zm-2-2h0s0 0 0 0h1 0 0zm-2-1h0 0 0s0 0 0 0m6 5h0 0 0zm1 1h0 0 0l-1-1h0 0zm1 2v-1h0 0 0"/><path fill="#ffd691" d="M326 659q5 2 5 8c0 5-3 8-8 8s-8-4-8-8 2-8 5-8v-1l-1-1h2l1 1 2-2 1 1v1l2-2s0 1 0 1v1" class="A E"/><path d="M322 681s-6-5-9-6-7 0-9 0c0 0 2 2 3 3s4 3 5 4c5 2 9 0 9 0m2 0s4-5 8-6c5-1 8 1 10 1l-2 2c-1 1-3 3-6 3s-7-1-8 0h-1m-3 3s1-3 1-6v-4h1s0 2 0 4v5h-1l-1 1" class="A E I"/><path d="M323 675a8 10 0 01 0-15 8 10 0 01 2 7 8 10 0 01-2 8" class="A E H"/><path fill="#0039f0" d="M290 547v-8c0-1-1-6-5-6s-5 4-5 6v8zM279 521v-9c0-2-1-5-3-5s-3 2-3 5v9h6zm12 0v-9c0-2 1-5 3-5s3 2 3 5v9h-6z"/><path d="M210 452v-2m-1 2v-2m0 2v-2m0 2v-2m3 2v-2m-1 2v-2m-1 2v-2m223 2v-2m-1 2v-2m0 2v-2m0 2v-2m4 2v-2m-1 2v-2m-1 2v-2" class="B"/></svg>