<svg xmlns="http://www.w3.org/2000/svg" viewBox="0 0 900 900" version="1.1"><g fill="none" transform="matrix(1.7656463,0,0,1.7656463,324.90716,255.00942)"><g stroke-width="0.2" stroke="#000" fill="#FFF"><path d="M-122.3 84.3s.1 1.9-.7 1.9-17.3-48.1-37.8-45.9c0 0 17.8-7.3 38.5 44z"/></g><g stroke-width="0.2" stroke="#000" fill="#FFF"><path d="M-118.8 81.3s-.6 1.8-1.3 1.5.1-51.1-19.9-56c0 0 19.2-.9 21.3 54.5z"/></g><g stroke-width="0.2" stroke="#000" fill="#FFF"><path d="M-91.3 123.6s1.6 1 1.2 1.6-49.6-12.1-59.1 6.2c0 0 3.7-18.9 57.9-7.9z"/></g><g stroke-width="0.2" stroke="#000" fill="#FFF"><path d="M-94.1 133.8s1.9.4 1.6 1.2-50.9 4.1-54.1 24.5c0 0-2.5-19.1 52.5-25.7z"/></g><g stroke-width="0.2" stroke="#000" fill="#FFF"><path d="M-98.3 128.3s1.8.7 1.4 1.4-51-3.3-57.1 16.4c0 0 .3-19.2 55.7-17.8z"/></g><g stroke-width="0.2" stroke="#000" fill="#FFF"><path d="M-109 110.1s1.3 1.4.7 1.9-44.4-25.3-58.5-10.3c0 0 8.7-17.1 57.9 8.4z"/></g><g stroke-width="0.2" stroke="#000" fill="#FFF"><path d="M-116.5 114.3s1.4 1.2.9 1.8-47-20.1-59.3-3.6c0 0 6.7-18 58.4 1.8z"/></g><g stroke-width="0.2" stroke="#000" fill="#FFF"><path d="M-119.2 118.3s1.6 1 1.1 1.7-49.3-13.6-59.2 4.5c0 0 4.2-18.8 58.1-6.2z"/></g><g stroke-width="0.2" stroke="#000" fill="#FFF"><path d="M-108.4 119s1.1 1.5.4 2-40.8-30.8-56.7-17.7c0 0 10.9-15.9 56.3 15.7z"/></g><g stroke-width="0.2" stroke="#000" fill="#FFF"><path d="M-128.2 90s.6 1.8-.2 2S-157.8 50.2-177 57.8c0 0 15.2-11.8 48.8 32.2z"/></g><g stroke-width="0.2" stroke="#000" fill="#FFF"><path d="M-127.5 97s1 1.6.2 2S-165 64.5-182.1 76.1c0 0 12.3-14.8 54.6 20.9z"/></g><g stroke-width="0.2" stroke="#000" fill="#FFF"><path d="M-127.6 101.3s1.1 1.5.4 2S-168 72.5-183.9 85.6c0 0 10.9-15.9 56.3 15.7z"/></g><g stroke="#000" fill="#FFF"><path d="M-129.8 103.1c.5 6 1.5 12.6 3.2 15.7 0 0-3.6 12.4 5.2 25.6 0 0-.4 7.2 1.2 10.4 0 0 4 8.4 8.8 9.2 3.9.7 12.6 3.7 22.5 5.1 0 0 17.1 14.1 13.9 26.9 0 0-.4 16.4-4 18 0 0 11.6-11.2 2 5.6l-4.4 18.8s25.6-21.6 10-3.2l-10 26s19.6-18.4 12.4-10l-3.2 8.8s43.2-27.2 12.4 2.4c0 0 8-3.6 12.4-.8 0 0 6.8-1.2 6 .4 0 0-20.8 10.4-24.4 28.8 0 0 8.4-10 5.2.8l.4 11.6s4-21.6 3.6 16c0 0 19.2-18 7.6 2.8v16.8s15.2-16.4 8.8-3.6c0 0 10-8.8 6 6.4 0 0-.8 10.4 3.6-.8 0 0 16-30.6 10-4.4 0 0-.8 19.2 4 4.4 0 0 .4 10.4 9.6 17.6 0 0-1.2-50.8 11.6-14.8l4 16.4s2.8-9.2 2.4-14.4l8 8S34.2 330.8 31 344c0 0-7.6 16-6 20.8 0 0 16.8-34.8 18-36.4 0 0-2 42.4 8.8 6.4 0 0 5.6 12 2.8 16.4 0 0 8-8 7.2-11.2 0 0 4.6-8.2 7.4 5.4 0 0 1.8 9.4 3.4 6.2 0 0 4 24 5.2 1.2 0 0 1.6-13.6-5.6-25.2 0 0 .8-3.2-2-7.2 0 0 13.6 21.6 6.4-7.2 0 0 11.2 8 12.4 8 0 0-13.6-23.2-4.8-18.4 0 0-5.2-10.4 12.8 1.6 0 0-16-16 1.6-6.4 0 0 8 6.4.4-3.6 0 0-14.4-16 7.6 2 0 0 11.6 16.4 12.4 19.2 0 0-10-29.2-14.4-32 0 0 8.4-36.4 49.6-20.8 0 0 6.8 17.2 11.2-1.2 0 0 12.8-6.4 24 21.2 0 0 4-13.6 3.2-16.4 0 0 6.8 1.2 6 0 0 0 13.2 4.4 14.4 3.6 0 0 6.8 6.8 7.2 3.2 0 0 9.2 2.8 7.2-.8 0 0 8.8 15.6 9.2 19.2l2.4-14 2 2.8s1.6-7.6.8-8.8 20 6.8 24.8 27.6l2 8.4s6-14.8 4.4-18.8c0 0 5.2.8 5.6 5.2 0 0 4-23.2-.8-29.2 0 0 4.4-.8 5.6 2.8v-7.2s7.2.8 7.2-1.6c0 0 4.4-4 6.4.8 0 0-12.4-35.2 6-16 0 0 7.2 10.8 3.6-8s-7.6-20.4-2.8-20.8c0 0 .8-3.6-1.2-5.2s1.2 0 1.2 0 4.8 4-.4-18c0 0 6.4 1.6-5.6-27.6 0 0 2.8-2.4-1.2-10.8 0 0 8 4.4 10.8 2.8q.6.2-3.6-5.6c0 0-21.6-54.8-1.2-32.8 0 0 11.8 13.6 5.5-9.2 0 0-9.1-24-8.3-28.3l-429.6 23z"/></g><g stroke="#000" fill="#cc7226"><path d="M299.7 80.2q1.52.38 4.1 3c0 0 6.8 10.8 1.6-7.6 0 0-9.2-28.8-.4-17.6 0 0 6 7.2 2.8-6.4-3.9-16.4-6.4-22.8-6.4-22.8S313 33.6 286.2-6l8.8 3.6S275.4-42 253.8-47.2l-8-6s38.4-38 25.6-74.8c0 0-6.8-5.2-16.4 4 0 0-6.4 4.8-12.4 3.2 0 0-30.8 1.2-32.8 1.2S173-156.8 107.4-139.2c0 0-5.2 2-9.6.8 0 0-18.4-16-67.2 6.8 0 0-10 2-11.6 2s-4.4 0-12.4 6.4-8.4 7.2-10.4 8.8c0 0-16.4 11.2-21.2 12 0 0-11.6 6.4-16 16.4l-3.6 1.2s-1.6 7.2-2 8.4c0 0-4.8 3.6-5.6 9.2 0 0-8.8 6-8.4 10.4 0 0-1.6 5.2-2.4 10 0 0-7.2 4.8-6.4 7.6 0 0-7.6 14-6.4 20.8 0 0-6.4-.4-9.2 2 0 0-.8 4.8-2.4 5.2 0 0-2.8 1.2-.4 5.2 0 0-1.6 2.8-2 4.4 0 0 .8 2.8-3.6 8.4 0 0-6.4 18.8-4.4 24 0 0 .4 4.8-2.4 6.4 0 0-3.6-.4 4.8 11.6 0 0 .8 1.2-2.4 3.6 0 0-17.2 3.6-19.6 20 0 0-13.6 14.8-13.6 20q0 3.3 1 10.1c0 0-.6 8.3 27 9.1S299.7 80.2 299.7 80.2z"/></g><g fill="#cc7226"><path d="M-115.6 102.6c-25-39.4-10.6 17-10.6 17 8.8 34.4 138.4-3.2 138.4-3.2S181 86 192.2 82s106.4 2.4 106.4 2.4L293 67.6C228.2 21.2 209 44.4 195.4 40.4S184.2 46 181 46.8s-42.4-24-48.8-23.2S100.5.7 115.4 32.4c16 34-58.4 39.2-75.2 28s7.2 18.4 7.2 18.4c18.4 20-16 3.2-16 3.2C-3 69.2-27 94.8-30.2 95.6s-8 4-8.8-2.4-8.3-23.1-40 3.2C-99 113-112.8 91-112.8 91l-2.8 11.6z"/></g><g fill="#e87f3a"><path d="M133.5 25.4c-6.4.8-31.8-22.9-16.8 8.8 16.6 35.2-58.4 39.2-75.2 28s7.2 18.4 7.2 18.4c18.4 20-16 3.2-16 3.2C-1.7 71-25.7 96.6-28.9 97.4s-8 4-8.8-2.4-8.2-22.9-40 3.2c-21.2 17.3-34.7-4.1-34.7-4.1l-3.2 10.1c-25-39.8-9.9 18.5-9.9 18.5 8.8 34.4 139.1-4.5 139.1-4.5s168.8-30.4 180-34.4 105.5 2.3 105.5 2.3l-5.5-17.3C228.8 22.4 210.4 46.2 196.8 42.2s-11.2 5.6-14.4 6.4S140 24.6 133.6 25.4z"/></g><g fill="#ea8c4d"><path d="M134.8 27.1c-6.4.8-31.1-23.2-16.8 8.8 16.2 36.2-58.4 39.2-75.2 28S50 82.3 50 82.3c18.4 20-16 3.2-16 3.2C-.4 72.7-24.4 98.3-27.6 99.1s-8 4-8.8-2.4-8.1-22.8-40 3.2c-22.5 18.1-35.7-2.8-35.7-2.8l-3.6 8.6c-23.8-39-9.2 20-9.2 20 8.8 34.4 139.7-5.8 139.7-5.8s168.8-30.4 180-34.4 104.7 2.2 104.7 2.2L294 69.9c-64.8-46.4-82.4-22-96-26s-11.2 5.6-14.4 6.4-42.4-24-48.8-23.2z"/></g><g fill="#ec9961"><path d="M136.1 28.8c-6.4.8-31.1-23.2-16.8 8.8 16.8 37.6-58.9 38.8-75.2 28C27.3 54.4 51.3 84 51.3 84c18.4 20-16 3.2-16 3.2C.9 74.4-23.1 100-26.3 100.8s-8 4-8.8-2.4-7.9-22.6-40 3.2c-23.7 18.8-36.6-1.5-36.6-1.5l-4 7.1c-21.8-36.8-8.6 21.5-8.6 21.5 8.8 34.4 140.4-7.1 140.4-7.1s168.8-30.4 180-34.4 103.8 2.2 103.8 2.2l-5.4-18.3C229.7 24.7 212.9 49.7 199.3 45.7s-11.2 5.6-14.4 6.4-42.4-24-48.8-23.2z"/></g><g fill="#eea575"><path d="M137.4 30.6c-6.4.8-30.6-23.4-16.8 8.8 16.8 39.2-58.4 39.2-75.2 28s7.2 18.4 7.2 18.4c18.4 20-16 3.2-16 3.2C2.2 76.2-21.8 101.8-25 102.6s-8 4-8.8-2.4-7.8-22.4-40 3.2c-24.9 19.6-37.5-.2-37.5-.2l-4.4 5.6c-19.8-34.8-7.9 23-7.9 23 8.8 34.4 141-8.4 141-8.4S186.2 93 197.4 89s102.9 2.1 102.9 2.1L295 72.3C230.2 25.9 214.2 51.4 200.6 47.4s-11.2 5.6-14.4 6.4-42.4-24-48.8-23.2z"/></g><g fill="#f1b288"><path d="M138.8 32.3c-6.4.8-32.4-22.6-16.8 8.8 19.2 38.8-58.4 39.2-75.2 28S54 87.5 54 87.5c18.4 20-16 3.2-16 3.2C3.6 77.9-20.4 103.5-23.6 104.3s-8 4-8.8-2.4-7.7-22.3-40 3.2c-26.2 20.3-38.4 1.1-38.4 1.1l-4.8 4.2c-18-33.2-7.2 24.5-7.2 24.5 8.8 34.4 141.7-9.7 141.7-9.7s168.8-30.4 180-34.4 102 2 102 2l-5.2-19.3C230.9 27.1 215.7 53.2 202.1 49.2s-11.2 5.6-14.4 6.4-42.4-24-48.8-23.2z"/></g><g fill="#f3bf9c"><path d="M140.1 34.1c-6.4.8-32.8-22.5-16.8 8.8 20.4 40-58.4 39.2-75.2 28s7.2 18.4 7.2 18.4c18.4 20-16 3.2-16 3.2C4.9 79.7-19.1 105.3-22.3 106.1s-8 4-8.8-2.4-7.5-22.1-40 3.2c-27.4 21.1-39.4 2.4-39.4 2.4l-5.2 2.6c-16-30.2-6.6 26.1-6.6 26.1C-113.5 172.4 20 126.9 20 126.9S188.8 96.5 200 92.5s101.2 2 101.2 2L296 74.6C231.2 28.2 216.8 54.9 203.2 50.9s-11.2 5.6-14.4 6.4S146.4 33.3 140 34.1z"/></g><g fill="#f5ccb0"><path d="M141.4 35.8c-6.4.8-33.8-21.9-16.8 8.8 22 39.6-58.4 39.2-75.2 28S56.6 91 56.6 91c18.4 20-16 3.2-16 3.2C6.2 81.4-17.8 107-21 107.8s-8 4-8.8-2.4-7.4-21.9-40 3.2c-28.7 21.8-40.3 3.6-40.3 3.6l-5.6 1.2c-14.4-28.4-5.9 27.6-5.9 27.6 8.8 34.4 143-12.4 143-12.4s168.8-30.4 180-34.4 100.3 1.9 100.3 1.9l-5.1-20.4C231.8 29.3 218.2 56.6 204.6 52.6s-11.2 5.6-14.4 6.4S147.8 35 141.4 35.8z"/></g><g fill="#f8d8c4"><path d="M142.7 37.6c-6.4.8-33.8-21.9-16.8 8.8 22 39.6-58.4 39.2-75.2 28s7.2 18.4 7.2 18.4c18.4 20-16 3.2-16 3.2C7.5 83.2-16.5 108.8-19.7 109.6s-8 4-8.8-2.4-7.3-21.8-40 3.2c-29.9 22.6-41.2 4.9-41.2 4.9l-6-.3c-13.6-26.4-5.2 29.1-5.2 29.1 8.8 34.4 143.6-13.7 143.6-13.7S191.5 100 202.7 96s99.4 1.8 99.4 1.8l-5-20.9C232.3 30.5 219.5 58.4 205.9 54.4s-11.2 5.6-14.4 6.4-42.4-24-48.8-23.2z"/></g><g fill="#fae5d7"><path d="M144 39.3c-6.4.8-33.5-22.1-16.8 8.8 22 40.8-58.4 39.2-75.2 28s7.2 18.4 7.2 18.4c18.4 20-16 3.2-16 3.2C8.8 84.9-15.2 110.5-18.4 111.3s-8 4-8.8-2.4-7.1-21.6-40 3.2c-31.1 23.3-42.1 6.2-42.1 6.2l-6.4-1.8c-13-24-4.5 30.6-4.5 30.6 8.8 34.4 144.3-15 144.3-15s168.8-30.4 180-34.4 98.5 1.8 98.5 1.8l-5-21.4c-64.8-46.4-76.8-18-90.4-22s-11.2 5.6-14.4 6.4S150.4 38.5 144 39.3z"/></g><g fill="#fcf2eb"><path d="M145.3 41c-6.4.8-32.4-22.6-16.8 8.8C149.7 92.6 70.1 89 53.3 77.8s7.2 18.4 7.2 18.4c18.4 20-16 3.2-16 3.2C10.1 86.6-13.9 112.2-17.1 113s-8 4-8.8-2.4-7-21.4-40 3.2c-32.4 24.1-43.1 7.5-43.1 7.5l-6.8-3.3c-12.8-23.2-3.9 32.1-3.9 32.1 8.8 34.4 144.9-16.3 144.9-16.3S194 103.4 205.2 99.4s97.7 1.7 97.7 1.7L298 79.2C233.2 32.8 222 61.8 208.4 57.8s-11.2 5.6-14.4 6.4S151.6 40.2 145.2 41z"/></g><g fill="#FFF"><path d="M-115.8 119.6c-12.8-22-3.2 33.6-3.2 33.6 8.8 34.4 145.6-17.6 145.6-17.6s168.8-30.4 180-34.4 96.8 1.6 96.8 1.6l-4.8-22.4C233.8 34 223.4 63.6 209.8 59.6s-11.2 5.6-14.4 6.4S153 42 146.6 42.8s-31.6-23-16.8 8.8C152 99.3 69 89.2 54.6 79.6 37.8 68.4 61.8 98 61.8 98c18.4 20-16 3.2-16 3.2C11.4 88.4-12.6 114-15.8 114.8s-8 4-8.8-2.4-6.9-21.3-40 3.2c-33.6 24.8-44 8.8-44 8.8l-7.2-4.8z"/></g><g fill="#000"><path d="M-74.2 149.6s-7.2 11.6 13.6 24.8c0 0 1.4 1.4-16.6-2.8 0 0-6.2-2-7.8-12.4 0 0-4.8-4.4-9.6-10s20.4.4 20.4.4z"/></g><g fill="#CCC"><path d="M65.8 102s17.7 26.8 17.1 31.6c-1.3 10.4-1.5 20 1.7 24s12 37.2 12 37.2-.4 1.2 12-36.8c0 0 11.6-16-8.4-34.4 0 0-35.2-28.8-34.4-21.6z"/></g><g fill="#000"><path d="M-54.2 176.4s11.2 7.2-3.2 38.4l6.4-2.4s-.8 11.2-4 13.6l7.2-3.2s4.8 8 .8 12.8c0 0 16.8 8 16 14.4 0 0 6.4-8 2.4-14.4S-39.8 233.2-39 214.8l-8.8 3.2s5.6-8.8 5.6-15.2l-8 2.4s15.5-26.6 4.8-28q-8.9-1-8.8-.8z"/></g><g fill="#CCC"><path d="M-21.8 193.2s2.8-4.4 0-3.6-34 15.6-40 25.2c0 0 34.4-24.4 40-21.6z"/></g><g fill="#CCC"><path d="M-11.4 201.2s2.8-4.4 0-3.6-34 15.6-40 25.2c0 0 34.4-24.4 40-21.6z"/></g><g fill="#CCC"><path d="M1.8 186s2.8-4.4 0-3.6-34 15.6-40 25.2c0 0 34.4-24.4 40-21.6z"/></g><g fill="#CCC"><path d="M-21.4 229.6s0-6-2.8-5.2-38.8 18.4-44.8 28c0 0 42-25.6 47.6-22.8z"/></g><g fill="#CCC"><path d="M-20.2 218.8s1.2-4.8-1.6-4c-2 0-28.4 11.6-34.4 21.2 0 0 29.6-21.6 36-17.2z"/></g><g fill="#CCC"><path d="M-34.6 266.4l-10 7.6s10.4-7.6 14-6.4c0 0-6.8 11.2-7.6 16.4 0 0 10.4-12.8 16-12.4 0 0 7.6.4 7.6 11.2 0 0 5.6-10.4 8.8-10 0 0 1.2 6.4 0 13.2 0 0 4-7.6 8-6 0 0 6.4-2 5.6 9.6 0 0 0 10.4-.8 13.2 0 0 5.6-26.4 8-26.8 0 0 8-1.2 12.8 7.6 0 0-4-7.6.8-5.6 0 0 10.8 1.6 14 8.4 0 0-6.8-12-1.2-8.8l8 6.4s8.4 21.2 10.4 22.8c0 0-7.6-21.6-6-21.6 0 0-2-12 3.2 2.8 0 0-3.2-14 2.4-13.2s10 10.8 18.4 8.4c0 0 9.6 5.6 11.6-63.6l-124 46.8z"/></g><g fill="#000"><path d="M-29.8 173.6s14.8-6 54.8 0c0 0 7.2.4 14-8.4s33.6-16 40-14l9.6 6.4.8 1.2s12.4 10.4 12.8 18-14.4 55.6-24 71.6-19.2 28.4-38.4 26c0 0-20.8-4-46.4 0 0 0-29.2-1.6-32-9.6s11.2-23.2 11.2-23.2 4.4-8.4 3.2-22.8-.8-42.4-5.6-45.2z"/></g><g fill="#e5668c"><path d="M-7.8 175.6C.6 194-29 259.2-29 259.2c-2 1.6 12.7 7.7 22.8 5.2C4.8 261.8 45 266 45 266c23.6-15.6 36.4-60 36.4-60s10.4-24-7.2-27.2-82-3.2-82-3.2z"/></g><g fill="#b23259"><path d="M-9.8 206.5c3.3-12.8 4.9-24.6 2-30.9 0 0 62.4 6.4 73.6-14.4 4.2-7.9 19 22.8 18.6 32.4 0 0-63 14.4-77.8 3.2l-16.4 9.7z"/></g><g fill="#a5264c"><path d="M-5.4 222.8s2 7.2-.4 11.2q-.5.3-2.8 1.2c0 0 1.2 3.6 7.2 5.2 0 0 2 4.4 4.4 4.8s7.2 6 11.2 4.8 15.2-5.2 15.2-5.2 5.6-3.2 14.4.4c0 0 2.4-.8 2.8-4.8.5-4.7 3.6-8.4 5.6-10.4s11.6-14.8 10.4-15.2-68 8-68 8z"/></g><g stroke="#000" fill="#ff727f"><path d="M-9.8 174.4s-2.8 22.4.4 30.8 2.4 10.4 1.6 14.4 3.6 14 9.2 20l12 1.6s15.2-3.6 24.4-.8c0 0 9 1.3 12.4-13.6 0 0 4.8-6.4 12-9.2s14.4-44.4 10.4-52.4-18.4-12.4-34.4 3.2-18-1.2-48 6z"/></g><g stroke-width="0.5" stroke="#000" fill="#FFC"><path d="M-8.2 249.2s-.8-2-5.2-2.4c0 0-22.4-3.6-30.8-16 0 0-6.8-5.6-2.4 6 0 0 10.4 20.4 17.2 23.2 0 0 16.4 4 21.2-10.8z"/></g><g fill="#cc3f4c"><path d="M71.7 185.2c.7-7.9 2.6-16.5.9-20-6.5-12.9-23.4-7.5-34.4 3.2-16 15.6-18-1.2-48 6 0 0-1.8 14-.9 24 0 0 37.3-11.6 38.1-6 0 0 1.6-3.2 10.8-3.2s31.9-1.2 33.5-4z"/></g><g stroke-width="2" stroke="#a51926"><path d="M28.6 175.2s4.8 4.8 1.2 14.4c0 0-14.4 16-12.4 30"/></g><g stroke-width="0.5" stroke="#000" fill="#FFC"><path d="M-19.4 260s-4.4-12.8 4.4-6l3.6 3.6c-1.2 1.6-6.8 5.6-8 2.4z"/></g><g stroke-width="0.5" stroke="#000" fill="#FFC"><path d="M-14.4 261.2s-3.5-10.2 3.5-4.8l2.9 2.9c-4.6 1.3 0 3.8-6.4 1.9z"/></g><g stroke-width="0.5" stroke="#000" fill="#FFC"><path d="M-9.6 261.2s-3.5-10.2 3.5-4.8l2.9 2.9c-3.4 1.3 0 3.8-6.4 1.9z"/></g><g stroke-width="0.5" stroke="#000" fill="#FFC"><path d="M-3 261.4s-3.5-10.2 3.5-4.8c0 0 4.4 2.3 2.9 2.9-3 1.1 0 3.8-6.4 1.9z"/></g><g stroke-width="0.5" stroke="#000" fill="#FFC"><path d="M3.5 261.3S0 251.1 7 256.5l2.9 2.9c-1 1.3 0 3.8-6.4 1.9z"/></g><g stroke-width="0.5" stroke="#000" fill="#FFC"><path d="M10.2 262s-4.8-12.4 4.4-6l3.6 3.6c-1.2 1.6 0 4.8-8 2.4z"/></g><g stroke-width="2" stroke="#a5264c"><path d="M-18.2 244.8S-5 242 1 245.2c0 0 6 1.2 7.2.8s4.4-.8 4.4-.8"/></g><g stroke-width="2" stroke="#a5264c"><path d="M15.8 253.6s12-13.6 24-9.2c7 2.6 6-.8 6.8-3.6s1-7 6-10"/></g><g stroke-width="0.5" stroke="#000" fill="#FFC"><path d="M33 237.6s-4-10.8-6.8 2-6 16.4-7.6 19.2c0 0 0 5.2 8.4 4.8 0 0 10.8-.4 11.2-3.2S37 246 33 237.6z"/></g><g stroke-width="2" stroke="#a5264c"><path d="M47 244.8s3.6-2.4 6-1.2"/></g><g stroke-width="2" stroke="#a5264c"><path d="M53.5 228.4s2.9-4.9 7.7-5.7"/></g><g fill="#b2b2b2"><path d="M-25.8 265.2s18 3.2 22.4 1.6l.4 2-20.8-1.2s-11.6-5.6-2-2.4z"/></g><g stroke-width="0.5" stroke="#000" fill="#FFC"><path d="M-11.8 172l19.6.8s7.2 30.8 3.6 38.4c0 0-1.2 2.8-4-2.8 0 0-18.4-32.8-21.6-34.8s1.2-1.6 2.4-1.6z"/></g><g stroke-width="0.5" stroke="#000" fill="#FFC"><path d="M-88.9 169.3s8.9 1.7 21.5 4.3c0 0 4.8 22.4 8 27.2s-.4 4.8-4 2S-81.8 186-83.8 181.6s-5.1-12.3-5.1-12.3z"/></g><g stroke-width="0.5" stroke="#000" fill="#FFC"><path d="M-67 173.8s5.8 1.6 6.8 3.8-1.2 5.5-1.2 5.5-1 3.3-2.2 1.1-4.1-9.8-3.4-10.4z"/></g><g fill="#000"><path d="M-67 173.6s3.6 5.2 7.2 5.2 4-.4 6.8.2c4.6 1 4.2-1 10.8.2l8 .8s6 .4 7.2-1.6 6-6.2 6-6.2-12.8 1.8-15.6 2.6c0 0-22.4 1.2-30.4-1.2z"/></g><g stroke-width="0.5" stroke="#000" fill="#FFC"><path d="M-22.4 173.8s-6.5 3.5-6.8 5.9 5.2 6.1 5.2 6.1 2.8 4.6 3.4 2.2-.9-13.8-1.8-14.2z"/></g><g stroke-width="0.5" stroke="#000" fill="#FFC"><path d="M-59.9 179.3s7 11.2 7.2 0c0 0 .6-1.3-1.2-1.3-6.1-.1-4.5-4.2-6 1.3z"/></g><g stroke-width="0.5" stroke="#000" fill="#FFC"><path d="M-52.7 179.5s7.9 11.2 7.3-.1q.4-.1-1.8-.5c-4.8-.4-4.4-4.9-5.5.6z"/></g><g stroke-width="0.5" stroke="#000" fill="#FFC"><path d="M-45.5 179.5s8 10.6 7.3 1q.45-.52-1.5-1.5c-3.9-.7-4.1-4-5.8.6z"/></g><g stroke-width="0.5" stroke="#000" fill="#FFC"><path d="M-38.6 179.6s7.9 11.6 8.2 1.8c0 0 1.6-1.4-.1-1.6-5.8-.7-5-5.2-8.2-.2z"/></g><g fill="#e5e5b2"><path d="M-74.8 183.1l-7.7-1.5c-2.6-5-4.7-11.2-4.7-11.2s6.3 1 18.9 3.8q.1.2 2.4 9.1l-8.8-.2z"/></g><g fill="#e5e5b2"><path d="M-9.7 178.5q-2.6-3.9-3.6-4.7c-3-1.9 1.1-1.5 2.3-1.5l18.4.8s.5 2.2 1.2 5.6c0 0-10.1-2-18.3-.2z"/></g><g fill="#cc7226"><path d="M43.9 40.3c27.7 4 53.2-31.7 55-41.4s-8.4-21.6-8.4-21.6c1.3-3-3.5-17.1-8.8-26.3S60.5-57.3 43-58.2C27.2-59.1 8.7-35.8 7.4-34s4.8 40 6.1 45.7-1.3 32.1-1.3 32.1c34.2-9.1 4-7.5 31.7-3.5z"/></g><g fill="#ea8e51"><path d="M8.1-33.4c-1.3 1.7 4.8 39.3 6 44.9S12.8 43 12.8 43c32.7-8.9 3.9-7.3 31.1-3.5S96.2 8.4 97.9-1.1s-8.2-21.2-8.2-21.2c1.3-3-3.5-16.9-8.6-25.9s-20.8-8.1-38-9.1c-15.6-.9-33.7 22-35 23.8z"/></g><g fill="#efaa7c"><path d="M8.8-32.7c-1.3 1.7 4.7 38.6 5.9 44.1s-1.3 30.9-1.3 30.9c31.4-9.2 3.8-7.2 30.5-3.4S95.2 8.4 96.9-1s-8.1-20.8-8.1-20.8c1.3-3-3.4-16.5-8.5-25.4s-20.4-8-37.3-8.9c-15.1-.8-32.9 21.7-34.2 23.4z"/></g><g fill="#f4c6a8"><path d="M9.5-32.1c-1.2 1.7 4.6 37.9 5.8 43.3s-1.2 30.4-1.2 30.4c29.4-9 3.7-7.1 29.9-3.3S94.3 8.4 96-.8s-7.9-20.4-7.9-20.4c1.2-2.9-3.3-16.2-8.3-25s-20-7.8-36.6-8.7c-15-.8-32.5 21.2-33.7 22.9z"/></g><g fill="#f9e2d3"><path d="M10.3-31.4C9.1-29.8 14.8 5.7 16 11s-1.2 29.8-1.2 29.8c27.9-8.9 3.7-6.9 29.4-3.3S93.6 8.1 95.2-.9s-7.8-20-7.8-20c1.2-2.9-3.3-15.9-8.2-24.5S59.6-53.1 43.3-54c-14.7-.8-31.8 20.8-33 22.4z"/></g><g fill="#FFF"><path d="M44.2 36.8C69.4 40.4 92.6 8 94.2-.8s-7.6-19.6-7.6-19.6c1.2-2.8-3.2-15.6-8-24s-19.2-7.5-35.2-8.4C29-53.6 12.2-32.4 11-30.8s4.4 36.4 5.6 41.6S15.4 40 15.4 40C40.9 31.4 19 33.2 44.2 36.8z"/></g><g fill="#CCC"><path d="M90.6 2.8s-27.8 7.6-39.4 6c0 0-15.8-6.6-24.6 15.2 0 0-3.6 7.2-5.6 9.2S90.6 2.8 90.6 2.8z"/></g><g fill="#000"><path d="M94.4.6s-29 12.2-39 11.8c0 0-16.4-4.6-24.8 10 0 0-8.4 9.2-11.6 10.8 0 0-.4 1.6 6-2.4L35.4 36s14.8 9.6 24.4-6.4c0 0 4-11.2 4-13.2S85 8.8 86.6 8.4C88.2 8 94.8 3.8 94.4.6z"/></g><g fill="#99cc32"><path d="M47 36.5c-6.9 0-15.2-3.9-15.2-10.1S40.2 13.9 47 13.9 59.4 19 59.4 25.2 53.8 36.5 47 36.5z"/></g><g fill="#659900"><path d="M43.4 19.8c-4.8.7-9.9 2.2-9.9 2 1.5-4.6 7.9-8 13.5-8q6.7.3 10.3 5-.5-.45-13.9.9z"/></g><g fill="#FFF"><path d="M55.4 19.6S51 16.4 51 18.6c0 0 3.6 4.4 4.4 1z"/></g><g fill="#000"><path d="M45.4 27.7q-4.12-.38-4.5-4.5s2-4.5 4.5-4.5 4.5 2 4.5 4.5-2 4.5-4.5 4.5z"/></g><g fill="#cc7226"><path d="M-58.6 14.4s-3.2-21.2-.8-25.6c0 0 10.8-10 10.4-13.6 0 0-.4-18-1.6-18.8s-8.8-6.8-14.8-.4c0 0-10.4 18-9.6 24.4v2s-7.6-.4-9.2 1.6c0 0-1.2 5.2-2.4 5.6 0 0-2.8 2.4-.8 5.2 0 0-2 2.4-1.6 6.4l7.6 4s2 14.4 12.8 19.6c4.8 2.3 8-4.4 10-10.4z"/></g><g fill="#FFF"><path d="M-59.6 12.6s-2.9-19.1-.7-23c0 0 9.7-9 9.4-12.2 0 0-.4-16.2-1.4-16.9s-7.9-6.1-13.3-.4c0 0-9.4 16.2-8.6 22v1.8s-6.8-.4-8.3 1.4c0 0-1.1 4.7-2.2 5 0 0-2.5 2.2-.7 4.7 0 0-1.8 2.2-1.4 5.8l6.8 3.6s1.8 13 11.5 17.6c4.3 2.1 7.2-4 9-9.4z"/></g><g fill="#eb955c"><path d="M-51-42.6c-1.1-.9-8.6-6.6-14.4-.4 0 0-10.1 17.6-9.4 23.8v1.9s-7.4-.4-9 1.6c0 0-1.2 5.1-2.3 5.5 0 0-2.7 2.3-.8 5.1 0 0-1.9 2.3-1.6 6.2l7.4 3.9s1.9 14 12.5 19.1c4.7 2.3 7.8-4.3 9.8-10.1 0 0-3.1-20.7-.8-25 0 0 10.5-9.8 10.1-13.3 0 0-.4-17.6-1.6-18.3z"/></g><g fill="#f2b892"><path d="M-51.5-41.6c-1-.9-8.4-6.5-14.1-.4 0 0-9.9 17.1-9.1 23.2v1.9s-7.2-.4-8.7 1.5c0 0-1.1 4.9-2.3 5.3 0 0-2.7 2.3-.8 4.9 0 0-1.9 2.3-1.5 6.1l7.2 3.8s1.9 13.7 12.2 18.6c4.6 2.2 7.6-4.2 9.5-9.9 0 0-3-20.1-.8-24.3 0 0 10.3-9.5 9.9-12.9 0 0-.4-17.1-1.5-17.9z"/></g><g fill="#f8dcc8"><path d="M-52-40.6c-.9-1-8.1-6.3-13.7-.4 0 0-9.6 16.6-8.9 22.6v1.9s-7-.4-8.5 1.5c0 0-1.1 4.8-2.2 5.2 0 0-2.6 2.2-.7 4.8 0 0-1.9 2.2-1.5 5.9l7 3.7s1.9 13.3 11.8 18.1c4.5 2.1 7.4-4.1 9.2-9.6 0 0-3-19.6-.7-23.7 0 0 10-9.2 9.6-12.6 0 0-.4-16.6-1.5-17.4z"/></g><g fill="#FFF"><path d="M-59.6 12.5s-2.9-19-.7-22.9c0 0 9.7-9 9.4-12.2 0 0-.4-16.2-1.4-16.9-.8-1-7.9-6.1-13.3-.4 0 0-9.4 16.2-8.6 22v1.8s-6.8-.4-8.3 1.4c0 0-1.1 4.7-2.2 5 0 0-2.5 2.2-.7 4.7 0 0-1.8 2.2-1.4 5.8l6.8 3.6s1.8 13 11.5 17.6c4.3 2.1 7.2-4.1 9-9.5z"/></g><g fill="#CCC"><path d="M-62.7 6.2S-84.3-4-85.2-4.8c0 0 9.1 8.2 9.9 8.2s12.6 2.8 12.6 2.8z"/></g><g fill="#000"><path d="M-79.8 0s18.4 3.6 18.4 8c0 2.9-.2 16.3-5.6 14.8C-75.4 20.4-71.8 6-79.8 0z"/></g><g fill="#99cc32"><path d="M-71.4 3.8s9 1.5 10 4.2c.6 1.6 1.3 9.9-4.2 11-4.5.9-6.8-9.3-5.8-15.2z"/></g><g fill="#000"><path d="M14.6 46.4q-.42-1.95 2.6-2.1c2-.6 14.2-4.4 15-7s14 1.8 14 1.8c1.8.8 6.2 3.4 6.2 3.4 4.8 1.2 11.4 1.6 11.4 1.6 2.4 1 5.8 3.8 5.8 3.8 14.6 10.2 27 3 27 3 20-6.6 14-23.8 14-23.8-3-9 .2-12.4.2-12.4.2-3.8 7.4 2.6 7.4 2.6 2.6 4.2 3.4 9.2 3.4 9.2 8 11.2 4.6-6.6 4.6-6.6.2-1-2.6-4.6-2.6-5.8s-1.8-4.6-1.8-4.6C118.8 6 121.2-1 121.2-1c1.8-13.8-.4-12-.4-12-1.2-1.8-10.4 8.2-10.4 8.2-2.2 3.4-8.2 5-8.2 5C99.4 2 96 .6 96 .6 93.4.2 87.8 7.2 87.8 7.2c2.8-.2 5.2 4.2 7.6 4.4s4.2-2.4 5.8-3 4.4 5.2 4.4 5.2c.4 2.6-5.2 7.4-5.2 7.4-.4 4.6-2 3-2 3-3-.6-4.2 3.2-5.2 7.8S88 37 88 37c-1.6 7.4-2.8 4.4-2.8 4.4C85 35.8 79 41.6 79 41.6c-1.2 2-5.8-.2-5.8-.2-6.8-2-4.4-4-4.4-4 1.8-2.2 13 0 13 0C84 35.8 76 31.8 76 31.8c-.6-1.8.4-6.2.4-6.2 1.2-3.2 8-8.8 8-8.8C93.8 15.6 91 14 91 14 84.8 8.8 79 16.4 79 16.4 76.8 22.6 59.4 37.6 59.4 37.6c-4.8 3.4-2.2-3.4-6.2 0S28.6 32 28.6 32C17 30.8 14.3 46.5 10.8 43.4c0 0 5.4 8.5 3.8 2.9z"/></g><g fill="#000"><path d="M209.4-120s-25.6 8-28.4 26.8c0 0-2.4 22.8 18 40.4 0 0 .4 6.4 2.4 9.6 0 0-1.6 4.8 17.2-2.8l27.2-8.4s6.4-2.4 11.6-11.2 20.4-27.6 16.8-52.8c0 0 1.2-11.2-4.8-11.6 0 0-8.4-1.6-15.6 6 0 0-6.8 3.2-9.2 2.8l-35.2 1.2z"/></g><g fill="#000"><path d="M264-121s2.1-8.9-2.7-4.1c0 0-7 5.7-14.5 5.7 0 0-14.5 2.2-18.9 15.4 0 0-4 26.8 4 32.6 0 0 4.8 7.5 11.9.9s22.5-36.8 20.3-50.5z"/></g><g fill="#323232"><path d="M263.6-120.6s2.1-8.8-2.7-4c0 0-6.9 5.6-14.3 5.6 0 0-14.3 2.2-18.6 15.1 0 0-3.9 26.4 3.9 32 0 0 4.8 7.3 11.7.9s22.1-36.2 19.9-49.6z"/></g><g fill="#666"><path d="M263.3-120.3s2.1-8.6-2.6-3.9c0 0-6.8 5.5-14 5.5 0 0-14 2.1-18.2 14.8 0 0-3.8 25.9 3.8 31.4 0 0 4.7 7.2 11.4.8s21.7-35.5 19.5-48.7z"/></g><g fill="#999"><path d="M262.9-119.9s2.1-8.4-2.5-3.8c0 0-6.7 5.4-13.7 5.4 0 0-13.7 2.1-17.9 14.6 0 0-3.8 25.4 3.7 30.8 0 0 4.6 7.1 11.2.8s21.2-34.9 19.1-47.8z"/></g><g fill="#CCC"><path d="M262.5-119.6s2.1-8.2-2.4-3.7c0 0-6.5 5.3-13.5 5.3 0 0-13.5 2-17.5 14.3 0 0-3.7 24.9 3.7 30.2 0 0 4.5 6.9 11 .8s20.8-34.2 18.8-46.9z"/></g><g fill="#FFF"><path d="M262.1-119.2s2-8-2.4-3.6c0 0-6.4 5.2-13.2 5.2 0 0-13.2 2-17.2 14 0 0-3.6 24.4 3.6 29.6 0 0 4.4 6.8 10.8.8s20.4-33.6 18.4-46z"/></g><g fill="#992600"><path d="M50.6 84S30.2 64.8 22.2 64c0 0-34.4-4-49.2 14 0 0 17.6-20.4 45.2-14.8 0 0-21.6-4.4-34-1.2l-26.4 14-2.8 4.8S-41 66-22.6 60c0 0 22.8-4.8 33.6 0 0 0-21.6-6.8-31.6-4.8 0 0-30.4-2.4-43.2 24 0 0 4-14.4 18.8-21.6 0 0 13.6-8.8 34-6 0 0 14.4 3.2 19.6 5.6s4-.4-4.4-5.2c0 0-5.6-10-19.6-9.6 0 0-42.8 3.6-53.2 15.6 0 0 13.6-11.2 24-14 0 0 22.4-8 30.8-7.2 0 0 24.8 1 32.4-3 0 0-11.2 5-8 8.2s10 10.8 10 12 24.2 23.3 27.8 27.7l2.2 2.3z"/></g><g fill="#CCC"><path d="M189 278s-15.5-36.5-28-46c0 0 26 16 29.5 34 0 0 0 10-1.5 12z"/></g><g fill="#CCC"><path d="M236 285.5s-26.5-55-45-79c0 0 43.5 37.5 48.5 64l.5 5.5-3-2.5s-.5 9-1 12z"/></g><g fill="#CCC"><path d="M292.5 237s-62.5-59.5-64-62c0 0 60.5 66 63.5 73.5 0 0-2-9 .5-11.5z"/></g><g fill="#CCC"><path d="M104 280.5s19.5-52 38.5-29.5c0 0 15 10 14.5 13 0 0-4-6.5-22-6 0 0-19-3-31 22.5z"/></g><g fill="#CCC"><path d="M294.5 153s-45-28.5-52.5-30c-11.8-2.4 49.5 29 54.5 39.5 0 0 2-2.5-2-9.5z"/></g><g fill="#000"><path d="M143.8 259.6s20.4-2 27.2-8.8l4.4 3.6L193 216l3.6 5.2s14.4-14.8 13.6-22.8 12.8 6 12.8 6-.8-11.6 6.4-4.8c0 0-2.4-15.6 6-7.6 0 0-10.5-30.2 12-4.4 5.6 6.4 1.2-.4 1.2-.4s-26-48-4.4-33.6c0 0 2-22.8.8-27.2s-3.2-26.8-8-32 .4-6.8 6-1.6c0 0-11.2-24 2-12 0 0-3.6-15.2-8-18 0 0-5.6-17.2 9.6-6.4 0 0-4.4-12.4-7.6-15.6 0 0-11.6-27.6-4.4-22.8l4.4 3.6s-6.8-14-.4-9.6 6.4 4 6.4 4S223.8-17.2 244.2.4c0 0-8.2-13.9-11.6-20.8 0 0-18.8-20.4-4.4-14l4.8 1.6s-8.8-10-16.8-11.6 2.4-8 8.8-6 22 9.6 22 9.6 12.8 18.8 16.8 19.2c0 0-20-7.6-14 .4 0 0 14.4 14 7.2 13.6 0 0-6 7.2-1.2 16 0 0-18.5-18.4-3.6 7.2L259 32S234.6 7.2 245.8 29.2c0 0 17.2 23.6 19.2 24s6.4 9.2 6.4 9.2l-4.4-2 5.2 8.8S261 57.2 267 70.4l5.6 14.4s-20.4-22-6.8 7.6c0 0-16.4-5.2-7.6 12 0 0-1.6 16-1.2 21.2s1.6 33.6-2.8 41.6 6 27.2 8 31.2 5.6 14.8-3.2 5.6-4.4-3.6-2.4 5.2 8 24.4 7.2 30c0 0-1.2 1.2-4.4-2.4 0 0-14.8-22.8-13.2-8.4 0 0-1.2 8-4.4 16.8 0 0-3.2 10.8-3.2 2 0 0-3.2-16.8-6-9.2s-6.4 13.6-9.2 16-8-20.4-9.2-10c0 0-12-12.4-16.8 4l-11.6 16.4s-.4-12.4-1.6-6.4c0 0-30 6-40.4 1.6z"/></g><g fill="#000"><path d="M109.4-97.2s-11.6-8-15.6-7.6 27.6-8.8 68.8 18.8c0 0 4.8 2.8 8.4 2.4 0 0 3.2 2.4.4 6 0 0-8.8 9.6 2.4 20.8 0 0 18.4 6.8 12.8-2 0 0 10.8 4 13.2 8s1.2 0 1.2 0l-12.4-12.4s-5.2-2-8-10.4-5.2-18.4-.8-21.6c0 0-4 4.4-3.2.4s4.4-7.6 6-8 18-16.2 24.8-16.6c0 0-9.2 1.4-12.2.4s-29.6-12.4-35.6-13.6c0 0-16.8-6.6-4.8-4.6 0 0 35.8 3.8 54 17 0 0-7.2-8.4-25.6-15.4 0 0-22.2-12.6-57.4-7.6 0 0-17.8 3.2-25.6 5 0 0-2.6-.6-3.2-1s-12.4-9.4-40-2.4c0 0-17 4.6-25.6 9.4 0 0-15.2 1.2-18.8 4.4 0 0-18.6 14.6-20.6 15.4s-13.4 8.4-14.2 8.8c0 0 24.6-6.6 27-9s19.8-5 22.2-3.6 10.8.8 1.2 1.4c0 0 75.6 14.8 76.4 16.8s4.8.8 4.8.8z"/></g><g fill="#cc7226"><path d="M180.8-106.4s-10.2-7.4-12.2-7.4S154.2-124 150-123.6s-16.4-9.6-43.8-1.4c0 0-.6-2 3-2.8 0 0 6.4-2.2 6.8-2.8 0 0 20.2-4.2 27.4-.6 0 0 9.2 2.6 15.4 8.8 0 0 11.2 3.2 14.4 2.2 0 0 8.8 2.2 9.2 4 0 0 5.8 3 4 5.6 0 0 .4 1.6-5.6 4.2z"/></g><g fill="#cc7226"><path d="M168.3-108.5l2.4 1.5q.2.5-.4.7l-3.2.3q-.7.2-1.6-.1-2.5-.7-5.2.2l-6.4-1.6-.4.3c-3-1.1-6.8-.9-9.2-3.1q-3.6-.6-7.2-1.6l-4.8-2.3q-2.1-1.1-4.4-1.6l-5.6-.9-.4.3-.8-.6-4.8-.1q-1.95-1.3-4.5-1.4l-9.2-.6 12.9-2.7 7.6-.8q.9-.4 1.6.3.2-.3.4-.3l7.2 3.5 1.1.1 4.8 2.3 5.2-.8.3.3q1.8-.9 3.2-.2l1.3.4 3.2.9.4-.3q1.8.2 2.8 1.6.2-.3.4-.3l2.8 1.3 1.7.9 6.4 3.1q1.2.4 2.3 1z"/></g><g fill="#cc7226"><path d="M91.7-122.7l-7.3-4.6-.7-.1-2.9-1.9-1.9-.6-7.7-3 2.4-1.2q.3.5.8.4 2.6-1.2 5.2-1 2.5.2 5.2.7l.8.7 6.7 1q2.5.9 4.4 2.7l-.3.8q.6-.1.8.4.1.4 0 .8-.2.4-.8.5c-1.4.2.4-1.2-.3-.7l-1.3 3.5q-.5-.2-.4-.8l-.5 1.1q-.73 1.73-2.2 1.5z"/></g><g fill="#cc7226"><path d="M59.2-115.4l-9.2-2-.3.3-3.4-2.6-3.9-1-.8-.7-3.2-1.7q3.5-.9 7.2-1.1l.4.3q.2-.1.4-.4.3.6.8.3.9-.5 1.6-.3l.4.3.4-.3.4.3q.2-.1.4-.4l2.4.4 2.4 1.7q6.8 2.2 13.2 5.5.5.2.4.8.4-.1.8 0 1.7.9 2.8 2.4.1.6-.3.7l-12.8-2.7z"/></g><g fill="#cc7226"><path d="M45.3-71.2q-2-2-3.3-5-.2-.6.4-.7l1.5.5q2.5 1.7 5.3 2.2c2 2.2 6.2 2.6 6.3 6l-1.9.8-7.2-2.4-1-1.4z"/></g><g fill="#cc7226"><path d="M17.8-123.8c.1 0 7.2.2 7.2.3 0 .3-7.8 1.4-8.1 1.2s-7.7 2.4-7.8 2.2c.3-.1 8.5-3.8 8.8-3.8z"/></g><g fill="#000"><path d="M33.2-114s-14.8 1.8-19.2 3-23 8.8-26 10.8c0 0-13.4 5.4-30.4 25.4 0 0 7.6-3.4 9.8-6.2 0 0 13.6-12.6 13.4-10 0 0 12.2-8.6 11.6-6.4 0 0 24.4-11.2 22.4-8 0 0 21.6-4.6 20.6-2.6 0 0 18.8 4.4 16 4.6 0 0-5.8 1.2.6 4.8 0 0-3.4 4.4-8.8.4s-2.4-1.8-7.4-.8c0 0-2.6.8-7.2-3.2 0 0-5.6-4.6-14.4-1 0 0-30.6 12.6-32.6 13.2 0 0-3.6 2.8-6 6.4 0 0-5.8 4.4-8.8 5.8 0 0-12.8 11.6-14 13 0 0-3.4 5.2-4.2 5.6 0 0 6.4-3.8 8.4-5.8 0 0 14-10 19.4-10.8 0 0 4.4-3 5.2-4.4 0 0 14.4-9.2 18.6-9.2 0 0 9.2 5.2 11.6-1.8 0 0 5.8-1.8 11.4-.6 0 0 3.2-2.6 2.4-4.8 0 0 1.6-1.8 2.6 2 0 0 3.4 3.6 8.2 1.6 0 0 4-.2 2 2.2 0 0-4.4 3.8-16.2 4 0 0-12.4.6-28.8 8.2 0 0-29.8 10.4-39 20.8 0 0-6.4 8.8-11.8 10 0 0-5.8.8-11.8 8.2 0 0 9.8-5.8 18.8-5.8 0 0 4-2.4.2 1.2 0 0-3.6 7.6-2 13 0 0-.6 5.2-1.4 6.8 0 0-7.8 12.8-7.8 15.2s1.2 12.2 1.6 12.8-1-1.6 2.8.8 6.6 4 7.4 6.8-2-5.4-2.2-7.2-4.4-9-3.6-11.4q.3.1 1.8 2.4-.45.6 0-4.2c0 0 .8-5.2 2.2-8.4s3.4-7 3.8-7.8.4-6.6 1.8-4l3.4 2.6s-2.8-2.6-.6-4.8c0 0-1-5.6.8-8.2 0 0 7-8.4 8.6-9.4s.2-.6.2-.6 6-4.2.2-2.6c0 0-4 1.6-7 1.6 0 0-7.6 2-3.6-2.2s14-9.6 17.8-9.4l.8 1.6 11.2-2.4-1.2.8s-.2-.2 4-.6 10 1 11.4-.8 4.8-2.8 4.4-1.4-.6 3.4-.6 3.4 5-5.8 4.4-3.6S-.4-58-1.8-51.8L8.6-60l3.6-3s3.6 2.2 3.8.6 4.8-7.4 6-7.2 3.2-2.6 3 0 7.4 8 7.4 8 3.2-1.8 4.6-.4 5.6-19.8 5.6-19.8l25-10.6 43.6-3.4-17-6.8-61-11.4z"/></g><g stroke-width="2" stroke="#4c0000"><path d="M51.4 85S36.4 68.2 28 65.6c0 0-13.4-6.8-38 1"/></g><g stroke-width="2" stroke="#4c0000"><path d="M24.8 64.2s-25.2-8-40.6-3.8c0 0-18.4 2-26.8 15.8"/></g><g stroke-width="2" stroke="#4c0000"><path d="M21.2 63s-17-7.2-31.8-9.4c0 0-16.6-2.6-33.2 4.6 0 0-12.2 6-17.6 16.2"/></g><g stroke-width="2" stroke="#4c0000"><path d="M22.2 63.4S6.8 52.4 5.8 51c0 0-7-11-20-11.4 0 0-21.4.8-38.6 8.8"/></g><g fill="#000"><path d="M20.9 54.4c1.5 1.5 28.5 30.4 28.5 30.4 35.2 36.6 7.2 2.4 7.2 2.4C49 82.4 39.8 63.6 39.8 63.6c-1.2-2.8 14 7.2 14 7.2 4 .8 17.6 20 17.6 20-6.8-2.4-2 4.8-2 4.8 2.8 2 23.2 17.6 23.2 17.6 3.6 4 7.6 5.6 7.6 5.6 14-5.2 7.6 8 7.6 8 2.4 6.8 8-4.8 8-4.8 11.2-16.8-5.2-14.4-5.2-14.4C80.6 110.4 73.8 94.4 73.8 94.4c-2.4-2.4 6.4 0 6.4 0C88.6 96.4 73 82 73 82c2.4 0 11.6 6.8 11.6 6.8C95 98 97 96 97 96c18-8.8 28.4-1.2 28.4-1.2 2 1.6-3.6 8.4-2 13.6s6.4 17.6 6.4 17.6c-2.4 1.6-2 12.4-2 12.4 16.8 23.2 7.2 21.2 7.2 21.2-15.6-.4-.8 7.2-.8 7.2 3.2 2 12 9.2 12 9.2-2.8-1.2-4.4 4-4.4 4 4.8 4 2 8.8 2 8.8-6 1.2-7.2 5.2-7.2 5.2 6.8 8-3.2 8.4-3.2 8.4 3.6 4.4-1.2 16.4-1.2 16.4-4.8 0-11.2 5.6-11.2 5.6 2.4 4.8-8 10.4-8 10.4-8.4 1.6-5.6 8.4-5.6 8.4-8 6-10.4 22-10.4 22-.8 10.4-3.2 13.6 2 11.6s4.4-14.4 4.4-14.4c-4.8-15.6 38-31.6 38-31.6 4-1.6 4.8-6.8 4.8-6.8 2 .4 10.8 8 10.8 8 7.6 11.2 8 2 8 2 1.2-3.6-.4-9.6-.4-9.6 6-21.6-8-28-8-28-10-33.6 4-25.2 4-25.2 2.8 5.6 13.6 10.8 13.6 10.8l3.6-2.4c-1.6-4.8 6.8-10.8 6.8-10.8 2.8 6.4 8.8-1.6 8.8-1.6 3.6-24.4 16-10 16-10 4 1.2 5.2-5.6 5.2-5.6 3.6-10.4 0-24 0-24 3.6-.4 13.2 5.6 13.2 5.6 2.8-3.6-6.4-20.4-2.4-18s8.4 4 8.4 4c.8-2-9.2-14.4-9.2-14.4C220.2 102 215 81.6 215 81.6 222.2 85.2 212.2 70 212.2 70c0-3.2 6-14.4 6-14.4-.8-6.8 0-6.4 0-6.4 2.8 1.2 10.8 2.8 4-3.6s.8-11.2.8-11.2c4.4-2.8-9.2-2.4-9.2-2.4C208.6 27.6 209 23.6 209 23.6c8 2-6.4-12.4-8.8-16s7.2-8.8 7.2-8.8C220.6-4.8 209-8 209-8c-19.6.4-8.8-10.4-8.8-10.4 6 .4 4.4-2 4.4-2-5.2-1.2-14.8-7.6-14.8-7.6-4-3.6-.4-2.8-.4-2.8 16.8 1.2-12-10-12-10 8 0-10-10.4-10-10.4-2-1.6-5.2-9.2-5.2-9.2-6-5.2-10.8-12-10.8-12-.4-4.4-5.2-9.2-5.2-9.2C134.6-95.2 129-94.8 129-94.8c-14.8-3.6-20-2.8-20-2.8l-52.8 4.4c-26.4 12.8-18.6 33.8-18.6 33.8 6.4 8.4 15.6 4.6 15.6 4.6 4.6-6.2 16.2-4 16.2-4 20.4 3.2 17.8-.4 17.8-.4C84.8-63.8 68.6-70 68.4-70.6s-9-4-9-4C56.4-75.8 52-85 52-85c-3.2-3.4 12.6 2.4 12.6 2.4-1.2 1 6.2 5 6.2 5 17.4-1 28 9.8 28 9.8 10.8 16.6 11 8.4 11 8.4 2.8-9.4-9-30.6-9-30.6.4-2 8.6 4.6 8.6 4.6 1.4-2 2.2 3.8 2.2 3.8.2 2.4 4 10.4 4 10.4 2.8 13 6.4 5.6 6.4 5.6l4.6 9.4C128-53.6 122-46 122-46c-.2 2.8.6 2.6-5 10.2s-2.2 12-2.2 12c-1.4 6.6 7.4 6.2 7.4 6.2 2.6 2.2 6 2.2 6 2.2 1.8 2 4.2 1.4 4.2 1.4 1.6-3.8 7.8-1.8 7.8-1.8 1.4-2.4 9.6-2.8 9.6-2.8 1-2.6 1.4-4.2 4.8-4.8S133.4-67 133.4-67c6.4-.8-1.8-13.2-1.8-13.2-2.2-6.6 9.2 8 11.4 9.4s3.2 3.6 1.6 3.4-3.4 2-2 2.2 14.4 15.2 17.8 25.4 9.4 14.2 15.6 20.2 5.4 30.2 5.4 30.2C181 19.4 187 30 187 30c2 3.8-2.2 22-2.2 22-2 2.2-.6 3-.6 3 1 1.2 7.8 14.4 7.8 14.4-1.8-.2 1.8 3.4 1.8 3.4 5.2 6-1.2 3-1.2 3-6-1.6 1 8.2 1 8.2 1.2 1.8-7.8-2.8-7.8-2.8-9.2-.6 2.4 6.6 2.4 6.6 8.6 7.2-2.8 2.8-2.8 2.8-4.6-1.8-1.4 5-1.4 5 3.2 1.6 20.4 8.6 20.4 8.6.4 3.8-2.6 8.8-2.6 8.8.4 4-1.8 7.4-1.8 7.4-1.2 8.2-1.8 9-1.8 9-4.2.2-11.6 14-11.6 14-1.8 2.6-12 14.6-12 14.6-2 7-20-.2-20-.2-6.6 3.4-4.6 0-4.6 0-.4-2.2 4.4-8.2 4.4-8.2 7-2.6 4.4-13.4 4.4-13.4 4-1.4-7.2-4.2-7-5.4s6-2.6 6-2.6c8-2 3.6-4.4 3.6-4.4-.6-4 2.4-9.6 2.4-9.6 11.6-.8 0-17 0-17C153 89.6 152 83.8 152 83.8c12.6-8.2 4.4-20.6 4.6-24.2S158 34.4 158 34.4c-2-6.2-5-19.8-5-19.8 2.2-5.2 9.6-17.8 9.6-17.8 2.8-4.2 11.6-9 9.4-12s-10-1.2-10-1.2c-7.8-1.4-7.2 3.8-7.2 3.8-1.6 1-2.4 6-2.4 6-.7 7.9-9.6 14.2-9.6 14.2-11.2 6.2-2 10.2-2 10.2 6 6.6-3.8 6.8-3.8 6.8-11-1.8-2.8 8.4-2.8 8.4C145 45.8 142 48.6 142 48.6c-10.2 1 2.4 10.2 2.4 10.2s-.8-2-.6-.2 3.2 6 4 8-3.2 2.2-3.2 2.2c.6 9.6-14.8 5.4-14.8 5.4l-1.6.2c-1.6.2-12.8-.6-18.6-2.8S97 69.4 97 69.4 93 71.2 85.4 71s-15.6 2.6-15.6 2.6C65.4 73.2 74 68.8 74.2 69S80 63.6 72 64.2C50.2 65.8 39.4 55.6 39.4 55.6c-2-1.4-4.6-4.2-4.6-4.2-10-2 1.4 12.4 1.4 12.4 1.2 1.4-.2 2.4-.2 2.4-.8-1.6-8.6-7-8.6-7q-3.62-1.27-6.5-4.8z"/></g><g fill="#4c0000"><path d="M-3 42.8s11.6 5.6 14.2 8.4 16.6 14.2 16.6 14.2-5.4-2-8-3.8S6.4 51.6 6.4 51.6 2.6 45.6-3 42.8z"/></g><g fill="#99cc32"><path d="M-61 11.6l-.4-3.4c-1-2.7-10-4.2-10-4.2q-.3 2.1-.2 4.6c0 0 4.9 5.5 10.6 3z"/></g><g fill="#659900"><path d="M-61 11.4c-.5.2 0-2.7-.2-3.2-1-2.7-10.2-4.3-10.2-4.3q-.3 2.1-.2 4.6c0 0 4.3 5.1 10.6 2.9z"/></g><g fill="#000"><path d="M-65.4 11.6q-1-.2-1.1-2.5s.5-2.5 1.1-2.5 1.1 1.1 1.1 2.5-.5 2.5-1.1 2.5z"/></g><g fill="#000"><path d="M-65.4 9z"/></g><g fill="#000"><path d="M-111 109.6s-5.6 10 19.2 4c0 0 14-1.2 16.4-3.6 1.2.8 9.6 3.7 12.4 4.4 6.8 1.6 15.2-8.4 15.2-8.4s4.6-10.5 7.4-10.5-.4 1.6-.4 1.6-6.6 10.1-6.2 11.7c0 0-5.2 20-21.2 20.8 0 0-16.1.9-14.8 6.8 0 0 8.8-2.4 11.2 0 0 0 10.8-.4 2.8 6l-6.8 11.6s.1 3.9-10 .4c-9.8-3.4-20.1-16.3-20.1-16.3s-15.9-14.6-5.1-28.5z"/></g><g fill="#e59999"><path d="M-112.2 113.6s-2 9.6 34.8-.8l6.8.8c2.4.8 14.4 3.6 16.4 2.4 0 0-7.2 13.6-18.8 12 0 0-13.2 1.6-12.8 6.4 0 0 4 7.2 8.8 9.6 0 0 2.8 2.4 2.4 5.6s-3.2 4.8-5.2 5.6-5.2-2.4-6.8-2.4-10-6.4-14.4-11.2-12.8-16.8-12.4-19.6 1.2-8.4 1.2-8.4z"/></g><g fill="#b26565"><path d="M-109 131.1q4.3 6.5 8 10.6c4.4 4.8 12.8 11.2 14.4 11.2s4.8 3.2 6.8 2.4 4.8-2.4 5.2-5.6S-77 144-77 144c-3.1-1.5-5.8-5-7.4-7.3 0 0 .2 2.5-5 1.8s-10.4-3.6-12-6.8-4-5.6-2.4-2 4 7.2 5.6 7.6 1.2 1.6-1.2 1.2-5.2-.8-9.6-6z"/></g><g fill="#992600"><path d="M-111.6 110s1.8-13.6 3-17.6c0 0-.8-6.8 1.6-11s4.4-10.4 7.4-15.8 3.2-9.4 7.2-11 10-10.2 12.8-11.2 2.6-.2 2.6-.2 6.8-14.8 20.4-10.8c0 0-16.2-2.8-.4-12.2 0 0-4.8 1.1-1.5-5.9 2.2-4.7 1.7 2.1-9.3 13.9 0 0-5 8.6-10.2 11.6s-17.2 10-18.4 13.8-4.4 9.6-6.4 11.2-4.8 5.8-5.2 9.2c0 0-1.2 4-2.6 5.2s-1.6 4.4-1.6 6.4-2 4.8-1.8 7.2c0 0 .8 19 .4 21l2-3.8z"/></g><g fill="#FFF"><path d="M-120.2 114.6s-2-1.4-6.4 4.6c0 0 7.3 33 7.3 34.4 0 0 1.1-2.1-.2-9.3s-2.2-19.9-2.2-19.9l1.5-9.8z"/></g><g fill="#992600"><path d="M-98.6 54s-17.6 3.2-17.2 32.4l-.8 24.8S-117.8 85.6-119 84s2.8-12.8-.4-6.8c0 0-14 14-6 35.2 0 0 1.5 3.3-1.5-1.3 0 0-4.6-12.6-3.5-19q-.38-.4 2.1-5c0 0 8.6-11.7 11.3-14 0 0 1.8-14.4 17.2-19.6 0 0 5.7-2.3 1.2.5z"/></g><g fill="#000"><path d="M40.8-12.2l1.2-1.5q1.4-.7 1.8-2.2l1.6-4.3q.4-1.2 0-2.3l-3.3-7.4q-.4-.8-.7-1.8l-2.6-3.7-.5-1.4q-1.82-.67-2.6.3-.5 3.9 1.4 7.5-.9 1.1-.3 2.4.45 5.35-1.2 10.4l.3.4q-1.8 4-4.5 7.5-1.3 1.4-2.1 3-.8 1.3-.5 2.7C25.4.2 23.1 4 20.5 7.9q-.6 1.4.4 2.2 1.4.2 2.2-1.5l1.2-2 .1-.7C27 3.5 28.7.6 31.2-1.8q2.8-.6 5.2-2.3l1.1-.1q2.23-2.03 1.9-5.1-.1-1.6 1.4-2.8z"/></g><g fill="#000"><path d="M32-16.7l.1-.7.7-.8.1-.7q3.3-3.9 1.6-8.4 1.4-1.2.7-2.7l-2-5.2q-1.45-2.55-3.8-1.2-.7.7-.5 1.9.2.3.3.4l-.7.8q-.68 2.3-.3 4.3 1.2 2.5 2.3 5.3l-1.9 6.4q-.2.3 0 .7.5.7 1.2 1.2.4.2.8 0l1.6-1.2z"/></g><g fill="#000"><path d="M94.8-27q2.42 3.3-.4 6c.6 3.3 3.9 1.3 6 .8q-.1-.7.4-.7l2.8-.9 2.7-3.6q2.5-6-1.4-11.2l-.1-1.1q-1.5-2.73-4.8-3.2-1.3-6-3.6-11.6-2.02-.97-3.6-2.7s-1.9.9-1.9 1.9l.3.8-.3.4q.1.2.4.4-1.7 1-2.6 2.4c-.9 3.7 1.6 6.8 3.3 10q.6 1.7-.9 3.6-.5 1.2-.1 2.7 1.4 3.3 3.9 6z"/></g><g fill="#000"><path d="M57.6-8.6c-1.5 1.9-4.9 4.4-2 6.3q.4.2.7 0 2.9-2.3 6.5-3l.8.3q2.7-.55 4.8-2 5.7 0 10.7-2.2l3.6-1.5q2-.9 3.7-2.6.3-.1.8-.1.4-1 1.2-1.6l.1-.7q3.4-2.4 1.9-6-.3-.9-1.1-1.7-1.68-.65-3.2-.4l-1.3.7-3 .3-4 1.2q-.7-.1-1.2.6-.2-.3-.4-.3-2.7.2-4.5 2.3l-.7.1-2.5 2.7-.8.1-1.7 1.5-.7-.3q.7-2.8.3-5.6l6.4-7.2.6-6.4-.4-1.3L72-38q-2.2-1.4-3.5 1.1-2.9 1.15-5.5-.1l-2.4-2.8q-1.1-1.9-.6-4.3l-.3-.4q.1-.2.3-.4-.8-1.2-2-2 .2-1.7-1.2-2.3c-2-.7-3.7 1.2-5.6 1.3l-1.6-1.3h-1.5q-1 .6-2 .8-2.3.8-4.4 2.4s-2.4 2.3-3.5 3.6c-.9 1.1-1.1 3.6.3 4.1 1.8.7 3.1-2 5.1-1.7q.5.1.4.8.6.1.8-.4l3 2.2s2.7.5 3.7 1.5l2.9 5.5q-.9 1.9-1.5 4-.2 2.1 1.9 2.3s1.5-.8 2-1.9l.7.8-1.9 6.8q-.1.5-.8.4c-.5 4.2-4.5 6.5-7.1 9.7q-.6 1.2 0 2.1c1.4 1.4 3.4-.2 5.1-.7C53-8.1 53.9-9 55.2-9l.8-.7s.8.1 1.1-.1l4.9-3.5.8-.1.8-.7q.5-.2.8.4l-1.2 1.5q-1.1.5-2 1.2l-1.1.1-2.5 2.4z"/></g><g fill="#000"><path d="M2.2-58s-9.2-2.9-20.4 22.8c0 0-2.4 5.2-4.8 7.2s-13.6 5.6-15.6 9.6l-10.4 16s14.8-16 18-18.4c0 0 8-8.4 4.8-1.6 0 0-14 10.8-12.8 20 0 0-5.6 14.4-6.4 16.4 0 0 16-32 18.4-33.2s3.6-1.2 2.4 2.4-1.6 20-4.4 22c0 0 8-20.4 7.2-23.6 0 0 3.2-3.6 5.6 1.6l-1.2 16 4.4 12S-15.4 0-13.8-15.6c0 0-2-10.4 2-4.8S1.8-8.8 1.8-4c0 0-5.2-17.6-14.4-22.4l-4 6-1.2-2s-3.6-.8.8-7.6 4-7.6 4-7.6 6.4 7.2 8 7.2c0 0 13.2-7.6 14.4 16.8 0 0 6.8-14.4-2.4-21.2 0 0-14.8-2-13.6-7.2L.6-54.4c3.6-5.2 2-2.4 2-2.4z"/></g><g fill="#000"><path d="M-17.8-41.6l-16 5.2-7.2 9.6s17.2-10 21.2-11.2 2-3.6 2-3.6z"/></g><g fill="#000"><path d="M-57.8-35.2s-2 1.2-2.4 4-2.8 3.2-2 6 2.8 5.2 2.8 1.2 1.6-6 2.4-7.2 2.4-5.6-.8-4z"/></g><g fill="#000"><path d="M-66.6 26S-75 22-78.2 18.4s-2.8 1.6-7.6 1.2c-5.8-.4-4.8-16.4-4.8-16.4l-4 7.6s-1.2 14.4 6.8 12c3.9-1.2 5.2.4 3.6 1.2s5.6 1.2 2.8 2.8 11.6-3.6 9.2 6.8l5.6-7.6z"/></g><g fill="#000"><path d="M-79.2 40.4s-15.4 4.4-19-5.2c0 0-4.8 2.4-2.6 5.4s3.4 3.4 3.4 3.4 5.4 1.2 4.8 2-3 4.2-3 4.2 10.2-6 16.4-9.8z"/></g><g fill="#FFF"><path d="M149.2 118.6q-.9 2.8-4 3.6c-1.9-1-4.5-4.1-6.4-2l-1.6-1.2-.5-2.7q-1.1-1.9-1.1-4.1 2.7-1.4 1.9-4.4l-.3-.8.8-.8q-.2.3-.4.3-.7-.4-.4-1.1 1.4-2.7 4-.8.5-.7 1.2-.4l.6-1.5 2.9-.6q1.6-1.5 3.2-.9 2.8 1.4 4.7 4 .8 1.4.8 3.1l-1.8 1.2c-.7 1.8 1.2 2.3 1.9 3.6q.2.6-.4.8-.9-.1-1.1.4c1 3.2-1.8 3.9-4.1 4.4z"/></g><g fill="#FFF"><path d="M139.6 138.2c0-1.7-1.6-3.5-.4-5.2q.2.3.4.4.2-.1.4-.4c1.5 2.2 5.2 3.1 5 6 0 .5-1.1 1.4-.2 2q-2.08 2.43-2.8 5.6-1.9-.4-3.6-1.2.1-2.4 1.1-4.5l.1-2.7z"/></g><g fill="#CCC"><path d="M-26.6 129.2s-16.9 10.1-2.8-5.2c8.8-9.6 18.8-15.2 18.8-15.2s10.4-4.4 14-5.6 18.8-6.4 22-6.8S38.2 92 45 96s14.8 8.4 14.8 8.4-16.4-8.4-20-6-10.8 2-16.8 5.2c0 0-14.8 4.4-18 6.4s-13.6 13.6-15.2 12.8.4-1.2 1.6-4-.8-4.4-8.8 2-9.2 8.4-9.2 8.4z"/></g><g fill="#000"><path d="M-19.2 123.2s1.4-13 9.9-11.4c0 0 8.2-4.2 10.9-6.1 0 0 8.1-1.7 9.4-2.3 18.5-8.7 33.2-4.2 33.7-5.3s20.2 6 23.8 10.1c.4.5-10.2-5.6-19.9-7.5-8.3-1.6-29.9.2-40.8 5.8-3 1.5-11.9 7.3-14.4 7.2s-12.7 9.6-12.7 9.6z"/></g><g fill="#CCC"><path d="M-23 148.8s-15.2-2.4 1.6-4c0 0 18-2 22-7.2 0 0 13.6-9.2 16.4-9.6s32.8-7.6 33.2-10 6-2.4 7.6-1.6.8 2-2 2.8-34 17.2-40.4 18.4-18 8.8-22.8 10-15.6 1.2-15.6 1.2z"/></g><g fill="#000"><path d="M-3.5 141.4s-8.6-.8 0-1.6c0 0 8.8-3.4 10.9-6.1 0 0 7-4.7 8.4-4.9s15.4-3.9 15.6-5.1 34.3-13.8 38.7-10.6c2.9 2.1-7 .4-16.6 4.8-1.4.6-35.2 15.2-38.5 15.8s-9.2 4.5-11.7 5.1-6.8 2.6-6.8 2.6z"/></g><g fill="#000"><path d="M-11.4 143.6s5.2-.4 4 1.2-3.6.8-3.6.8l-.4-2z"/></g><g fill="#000"><path d="M-18.6 145.2s5.2-.4 4 1.2-3.6.8-3.6.8l-.4-2z"/></g><g fill="#000"><path d="M-29 146.8s5.2-.4 4 1.2-3.6.8-3.6.8l-.4-2z"/></g><g fill="#000"><path d="M-36.6 147.6s5.2-.4 4 1.2-3.6.8-3.6.8l-.4-2z"/></g><g fill="#000"><path d="M1.8 108l3.2 1.6c-1.2 1.6-4.4 1.2-4.4 1.2L1.8 108z"/></g><g fill="#000"><path d="M-8.2 113.6s6.5-2.1 4 1.2c-1.2 1.6-3.6.8-3.6.8l-.4-2z"/></g><g fill="#000"><path d="M-19.4 118.4s5.2-.4 4 1.2-3.6.8-3.6.8l-.4-2z"/></g><g fill="#000"><path d="M-27 124.4s5.2-.4 4 1.2-3.6.8-3.6.8l-.4-2z"/></g><g fill="#000"><path d="M-33.8 129.2s5.2-.4 4 1.2-3.6.8-3.6.8l-.4-2z"/></g><g fill="#000"><path d="M5.3 135.6s6.9-.5 5.3 1.6-4.8 1.1-4.8 1.1l-.5-2.7z"/></g><g fill="#000"><path d="M15.7 130.8s6.9-.5 5.3 1.6-4.8 1.1-4.8 1.1l-.5-2.7z"/></g><g fill="#000"><path d="M26.5 126.4s6.9-.5 5.3 1.6-4.8 1.1-4.8 1.1l-.5-2.7z"/></g><g fill="#000"><path d="M36.9 121.6s6.9-.5 5.3 1.6-4.8 1.1-4.8 1.1l-.5-2.7z"/></g><g fill="#000"><path d="M9.3 103.6s6.9-.5 5.3 1.6S9 107.1 9 107.1l.3-3.5z"/></g><g fill="#000"><path d="M19.3 100.4s6.9-.5 5.3 1.6-6 1.9-6 1.9l.7-3.5z"/></g><g fill="#000"><path d="M-3.4 140.4s5.2-.4 4 1.2-3.6.8-3.6.8l-.4-2z"/></g><g fill="#992600"><path d="M-76.6 41.2s-4.4 8.8-4.8 12c0 0 .8-8.8 2-10.8s2.8-1.2 2.8-1.2z"/></g><g fill="#992600"><path d="M-95 55.2s-3.2 14.4-2.8 17.2c0 0-1.2-11.6-.8-12.8s3.6-4.4 3.6-4.4z"/></g><g fill="#CCC"><path d="M-74.2-19.4l-.2 3.2-2.2.2s14.2 12.6 14.8 20.2c0 0 .8-8.2-12.4-23.6z"/></g><g fill="#000"><path d="M-70.2-18.1l-.6-1.4c-.8-.5 1.3-.6 1.1-1.3l-.3-2.5.9-2.6 1.8-6.1q.5-.5 1-1.3l2.8-2.3q.1-.8.7-1s2 0 1.9.8q-.5 3-2.7 5.5.5 1-.3 1.9-1.5 4-1.3 8.3l-.3.2q.5 3.5 1.8 6.8.7 1.4 1 2.8.3 1.1-.2 2.2c2 2.9.7 5.5 1.9 9.1.2.6 1.9 2.5 1.4 2.4q-3.12-1.15-2.8-2l-.7-2.6-.3-2.2-1.5-4.6q-2-1.1-3.5-3l.8-1.1q-2-1.7-1.9-3.5.4-1.2-.5-2.5z"/></g><g fill="#000"><path d="M-73.8-16.4s.4 6.8 2.8 8.4 1.2.8-2-.4-2-2-2-2-2.8.4-.4 2.4 6 4.4 4.4 4.4-9.2-4-9.2-6.8-1-6.9-1-6.9 1.1-.8 5.9-.7q.67.12 1.5 1.6z"/></g><g stroke-width="0.1" stroke="#000" fill="#FFF"><path d="M-74.6 2.2s-8.5-2.8-27 .6c0 0 9-2.1 27.8.2 10.3 1.2-.8-.8-.8-.8z"/></g><g stroke-width="0.1" stroke="#000" fill="#FFF"><path d="M-72.5 2.1s-8.3-3.5-27-1.7c0 0 9.2-1.3 27.7 2.6 10.2 2.1-.7-.9-.7-.9z"/></g><g stroke-width="0.1" stroke="#000" fill="#FFF"><path d="M-70.7 2.2s-8-4.1-26.8-3.7c0 0 9.2-.6 27.4 4.7 10 2.9-.7-.9-.7-.9z"/></g><g stroke-width="0.1" stroke="#000" fill="#FFF"><path d="M-69.4 2.4S-76.2-1.9-93.1-3c0 0 8.3.2 24.2 6.3 8.7 3.4-.5-.9-.5-.9z"/></g><g stroke-width="0.1" stroke="#000" fill="#FFF"><path d="M45.8 13s-.9.6-.7-.5 28.4-14.3 32-14.1c0 0-30.2 13.2-31.3 14.6z"/></g><g stroke-width="0.1" stroke="#000" fill="#FFF"><path d="M42.5 13.6s-.9.7-.8-.5S68.9-3.4 72.5-3.5c0 0-29.1 15.5-30.1 17.1z"/></g><g stroke-width="0.1" stroke="#000" fill="#FFF"><path d="M39.2 15s-.8.8-.8-.4S58.3-2.1 68.1-4c0 0-18 8.1-28.9 19z"/></g><g stroke-width="0.1" stroke="#000" fill="#FFF"><path d="M36.3 16.8s-.7.7-.7-.4S53.4 1.4 62.3-.3c0 0-16.2 7.3-26 17.1z"/></g><g fill="#CCC"><path d="M4.6 164.8s-15.2-2.4 1.6-4c0 0 18-2 22-7.2 0 0 13.6-9.2 16.4-9.6s19.2-4 19.6-6.4 6.4-4.8 8-4 1.6 10-1.2 10.8-21.6 8-28 9.2-18 8.8-22.8 10-15.6 1.2-15.6 1.2z"/></g><g fill="#000"><path d="M77.6 127.4s-3 1.6-4.2 4.2c0 0-6.4 10.6-20.6 13.8 0 0-23 9-30.8 11 0 0-13.4 5-20.8 4.2 0 0-7 .2-.8 1.8 0 0 20.2-2 23.6-3.8 0 0 15.6-5.2 18.6-7.8s21.2-7.6 23.4-9.6 12-10.4 11.6-13.8z"/></g><g fill="#000"><path d="M18.9 158.9s5.2-.2 4.1 1.3-3.6.7-3.6.7l-.5-2z"/></g><g fill="#000"><path d="M11.7 160.3s5.2-.2 4.1 1.3-3.6.7-3.6.7l-.5-2z"/></g><g fill="#000"><path d="M1.2 161.5s5.2-.2 4.1 1.3-3.6.7-3.6.7l-.5-2z"/></g><g fill="#000"><path d="M-6.4 162.1s5.2-.2 4.1 1.3-3.6.7-3.6.7l-.5-2z"/></g><g fill="#000"><path d="M35.4 151.5s7-.3 5.4 1.8-4.8.9-4.8.9l-.6-2.7z"/></g><g fill="#000"><path d="M45.7 147.1s6-3.3 5.4 1.8c-.3 2.5-4.8.9-4.8.9l-.6-2.7z"/></g><g fill="#000"><path d="M54.9 144.3s7.2-3.7 5.4 1.8c-.8 2.4-4.8.9-4.8.9l-.6-2.7z"/></g><g fill="#000"><path d="M64.4 139.4s4.4-4.9 5.4 1.8c.4 2.5-4.8.9-4.8.9l-.6-2.7z"/></g><g fill="#000"><path d="M26.8 156s5.2-.2 4.1 1.3-3.6.7-3.6.7l-.5-2z"/></g><g stroke-width="0.1" stroke="#000" fill="#FFF"><path d="M62.4 34.6s-.7.7-.7-.4S79.2 19.9 88 18.5c0 0-16.1 6.7-25.6 16.1z"/></g><g fill="#000"><path d="M65.4 98.4s22 22.4 31.2 26c0 0 9.2 11.2 5.2 37.2 0 0-3.2 7.6-6.4-13.2 0 0 3.2-25.2-8-9.2 0 0-8.4-9.9-2-9.6 0 0 3.2 2 3.6.4S81.4 114.8 64.2 100.4s1.2-2 1.2-2z"/></g><g stroke-width="0.1" stroke="#000" fill="#FFF"><path d="M7 137.2s-.2-1.8 1.6-1 96 7 127.6 31c0 0-45.2-23.2-129.2-30z"/></g><g stroke-width="0.1" stroke="#000" fill="#FFF"><path d="M17.4 132.8s-.2-1.8 1.6-1 138.4-.2 162 32.2c0 0-22-25.2-163.6-31.2z"/></g><g stroke-width="0.1" stroke="#000" fill="#FFF"><path d="M29 128.8s-.2-1.8 1.6-1S205.8 115.6 229.4 148c0 0-9.6-25.6-200.4-19.2z"/></g><g stroke-width="0.1" stroke="#000" fill="#FFF"><path d="M39 124s-.2-1.8 1.6-1 124-37.8 147.6-5.4c0 0-13.4-24.6-149.2 6.4z"/></g><g stroke-width="0.1" stroke="#000" fill="#FFF"><path d="M-19 146.8s-.2-1.8 1.6-1 19.6 3 21.6 41.8c0 0-7.2-42-23.2-40.8z"/></g><g stroke-width="0.1" stroke="#000" fill="#FFF"><path d="M-27.8 148.4s-.2-1.8 1.6-1 16-3.8 13.2 35c0 0 1.2-35.2-14.8-34z"/></g><g stroke-width="0.1" stroke="#000" fill="#FFF"><path d="M-35.8 148.8s-.2-1.8 1.6-1 17.2 1.4 4.8 23.8c0 0 9.6-24-6.4-22.8z"/></g><g stroke-width="0.1" stroke="#000" fill="#FFF"><path d="M11.5 104.5s-.4 2 1.1.8C28.7 92.6 61.1 33.7 116.8 28.1c0 0-38.3-12.1-105.3 76.4z"/></g><g stroke-width="0.1" stroke="#000" fill="#FFF"><path d="M22.7 102.7s-1.4-1.2.5-1.8S137.5 27.8 176.8 35.7c0 0-27.1-7.5-154.1 67z"/></g><g stroke-width="0.1" stroke="#000" fill="#FFF"><path d="M1.9 108.8s-.5 1.6 1.2.6c9-5.1 12.6-62.3 56.2-63.6 0 0-32.4-14.7-57.4 63z"/></g><g stroke-width="0.1" stroke="#000" fill="#FFF"><path d="M-18 119.8s-1.1 1.3.9 1c10.2-1.3 31.6-42.6 76-37.5 0 0-32-14.3-77 36.5z"/></g><g stroke-width="0.1" stroke="#000" fill="#FFF"><path d="M-6.8 113.7s-.8 1.5 1.1.8C4.1 111.2 17.2 66.6 61.8 63.1c0 0-34.1-7.9-68.5 50.6z"/></g><g stroke-width="0.1" stroke="#000" fill="#FFF"><path d="M-25.1 124.9s-.9 1 .7.8c8.3-1.1 25.6-34.5 61.6-30.4 0 0-25.9-11.6-62.3 29.6z"/></g><g stroke-width="0.1" stroke="#000" fill="#FFF"><path d="M-32.7 130.8s-1 1.1.6.9c4.2-.3 34.8-33.4 53.3-17.9 0 0-12-18.7-53.9 17z"/></g><g stroke-width="0.1" stroke="#000" fill="#FFF"><path d="M36.9 98.9s-1.2-1.4.7-1.7S160.2 39.1 198.2 52c0 0-25.9-10.9-161.3 47z"/></g><g stroke-width="0.1" stroke="#000" fill="#FFF"><path d="M3.4 163.2s-.2-1.8 1.6-1 17.2 1.4 4.8 23.8c0 0 9.6-24-6.4-22.8z"/></g><g stroke-width="0.1" stroke="#000" fill="#FFF"><path d="M13.8 161.6s-.2-1.8 1.6-1 19.6 3 21.6 41.8c0 0-7.2-42-23.2-40.8z"/></g><g stroke-width="0.1" stroke="#000" fill="#FFF"><path d="M20.6 160s-.2-1.8 1.6-1 26.4 4.2 50 36.6c0 0-35.6-36.8-51.6-35.6z"/></g><g stroke-width="0.1" stroke="#000" fill="#FFF"><path d="M28.2 158s-.4-1.8 1.4-1.2 22.3-1.4 60.4 32.8c0 0-46.2-34.9-61.9-31.6z"/></g><g stroke-width="0.1" stroke="#000" fill="#FFF"><path d="M38.6 153.6s-.4-1.8 1.4-1.2 36.7 5 88.4 40c0 0-74.2-42.1-89.9-38.8z"/></g><g stroke-width="0.1" stroke="#000" fill="#FFF"><path d="M-1.8 142s-.2-1.8 1.6-1 55.2 3.4 85.6 30.2c0 0-34.9-24.8-87.2-29.2z"/></g><g stroke-width="0.1" stroke="#000" fill="#FFF"><path d="M-11.8 146s-.2-1.8 1.6-1 26.4 4.2 50 36.6c0 0-35.6-36.8-51.6-35.6z"/></g><g stroke-width="0.1" stroke="#000" fill="#FFF"><path d="M49.5 149s-.6-1.7 1.4-1.3 37 2.3 91.1 33.4c0 0-77.7-34.4-92.5-32.1z"/></g><g stroke-width="0.1" stroke="#000" fill="#FFF"><path d="M57.9 146.6s-.6-1.7 1.4-1.3 37 2.3 91.1 33.4c0 0-77.1-34.8-92.5-32.1z"/></g><g stroke-width="0.1" stroke="#000" fill="#FFF"><path d="M67.5 141.6s-.6-1.7 1.4-1.3 45 4.7 134.7 39c0 0-120.7-40.4-136.1-37.7z"/></g><g fill="#000"><path d="M-43.8 148.4s5.2-.4 4 1.2-3.6.8-3.6.8l-.4-2z"/></g><g fill="#000"><path d="M-13 162.4s5.2-.4 4 1.2-3.6.8-3.6.8l-.4-2z"/></g><g fill="#000"><path d="M-21.8 162s5.2-.4 4 1.2-3.6.8-3.6.8l-.4-2z"/></g><g fill="#000"><path d="M-117.2 150.2s5 1.3 3.4 2.4-3.7-.4-3.7-.4l.3-2z"/></g><g fill="#000"><path d="M-115.2 140.6s5 1.3 3.4 2.4-3.7-.4-3.7-.4l.3-2z"/></g><g fill="#000"><path d="M-122.4 136.2s5 1.3 3.4 2.4-3.7-.4-3.7-.4l.3-2z"/></g><g fill="#CCC"><path d="M-42.6 211.2l-5.6 2c-2 0-13.2 3.6-18.8 13.6 0 0 12.4-9.6 24.4-15.6z"/></g><g fill="#CCC"><path d="M45.1 303.9l.5.7q1.5.3 1.8-.3c-.9-4.4-1.7-9.3-5.9-11.1q-1.5-.4-2.1 1-.3 2.2.1 4.3c.3 1.4 2.5 1.4 3.4.1l2.3 5.2z"/></g><g fill="#CCC"><path d="M34 308.6c.8 1.4.6 3.3 2 3.8.7.3 2.6-.7 2.2-1.8q-.8-3.3-2.6-6.1l-.1-1.1q-1-2-3.1-1.6-1.2 3.4 1.6 6l.1.7z"/></g><g fill="#CCC"><path d="M-5.6 303.4q-.2-.6 0-1.2 1.1-1.5 1-3.2s-1.5-.9-2.1-.3q-1.2 1.8-1.9 4.2l-.6 1.4s-.9 1.9-.8 2.5c.1.3-.1 10.2.1 10 .6-.7 3.7-10.5 3.7-11.4l.6-2z"/></g><g fill="#CCC"><path d="M-31.2 296.6c2.6-2.5 5.4-5.5 5-9.2-.1-1-1.9-.5-2.1.4q-1.4 5.3-5.4 8.7c-2.2 2-4.1 8.4-4.3 8.9q5.5-7.8 6.8-8.8z"/></g><g fill="#CCC"><path d="M-44.8 290.6l.4-1.2q1.8-2 2.3-4.4-.1-.6-.7-.4-.5.3-.7.4-2.8 3.7-4.9 7.9c-.2.4-1.3 4.8-1 5s2-4.1 2.2-4.2l2.4-3.1z"/></g><g fill="#CCC"><path d="M-28 310.2l1.9-3s.3-2.4-.6-1.7c-1.3.9-4.7 2.3-5 8.1 0 .6 3-2.1 3.6-3.5z"/></g><g fill="#CCC"><path d="M-13.6 293q.7-.6 1.6-.5 1.1-.6 1.6-1.6 2.05-2.98 2.9-6.4c-1.5-1.4-2.2.6-2.8 1.6-1.3-1.6-2.3.2-3.6.8l-.4-.3-2.9 2.3-.7.1-1.9 1.6c-1.1 2.7-4.2 4.8-6.1 12.3.4.9 4.5-6.6 5-7.3.8-1.2.9 1.7 2.2 1q.1.1.4.3.2-.5.8-.4l.1-1.1 1.9-3.3 2 .8z"/></g><g fill="#CCC"><path d="M46.2 347.4s7.4-20.4 3-31.6c0 0 11.4 21.6 6.8 32.8 0 0-.4-10.4-4.4-15.4 0 0-4 12.8-5.4 14.2z"/></g><g fill="#CCC"><path d="M31.4 344.8s5.4-8.8-2.6-27.2c0 0-.8 20.4-7.6 31.4 0 0 14.2-20.2 10.2-4.2z"/></g><g fill="#CCC"><path d="M21.4 342.8s-.2-20 .2-23c0 0-3.8 16.6-14 26.2 0 0 14.4-12 13.8-3.2z"/></g><g fill="#CCC"><path d="M11.8 310.8s6 13.6-4 32c0 0 6.4-12.2 1.6-19.2 0 0 2.6-3.4 2.4-12.8z"/></g><g fill="#CCC"><path d="M-7.4 342.4s-1-15.6.8-17.8c0 0 .2-6.4-.2-7.4 0 0 4-6.2 4.2 1.2 0 0 1.4 7.8 4.2 12.4 0 0 3.6 5.4 3.4 11.8 0 0-10-30.2-12.4-.2z"/></g><g fill="#CCC"><path d="M-11 314.8s-6.6 10.8-8.4 29.8c0 0-1.4-6.2 2.4-20.6 0 0 4.2-15.4 6-9.2z"/></g><g fill="#CCC"><path d="M-32.8 334.6s5-5.4 6.4-10.4c0 0 3.6-15.8-2.8-7.2 0 0 .2 8-8 15.4 0 0 4.8-2.4 4.4 2.2z"/></g><g fill="#CCC"><path d="M-38.6 329.6s3.4-17.4 4.2-18.2c0 0 1.8-3.4-1-.2 0 0-8.8 19.2-12.8 25.8 0 0 8-9.2 9.6-7.4z"/></g><g fill="#CCC"><path d="M-44.4 313s11.6-22.4-10.2 3.4c0 0 11-9.8 10.2-3.4z"/></g><g fill="#CCC"><path d="M-59.8 298.4s4.8-18.8 7.4-18.6l1.6 1.6s-6 9.6-5.4 19.4c0 0-.6-9.6-3.6-2.4z"/></g><g fill="#CCC"><path d="M270.5 287s-12-10-14.5-13.5c0 0 13.5 18.5 13.5 25.5 0 0 2.5-7.5 1-12z"/></g><g fill="#CCC"><path d="M276 265s-21-15-24.5-22.5c0 0 26.5 29.5 26.5 34 0 0 .5-9-2-11.5z"/></g><g fill="#CCC"><path d="M293 111s-12-8-13.5-6c0 0 10.5 6.5 13 15 0 0-1.5-9 .5-9z"/></g><g fill="#CCC"><path d="M301.5 191.5l-17.5-12s19 17 19.5 21l-2-9z"/></g><g stroke="#000"><path d="M-89.2 169l22 4.8"/></g><g stroke="#000"><path d="M-39 331s-.5-3.5-9.5 7"/></g><g stroke="#000"><path d="M-33.5 336s2-6.5-4.5-2"/></g><g stroke="#000"><path d="M20.5 344.5s1.5-11-10 2"/></g></g></svg>