<svg xmlns="http://www.w3.org/2000/svg" viewBox="0 0 900 900" version="1.1"><g fill="none" transform="matrix(1.7656463,0,0,1.7656463,324.90716,255.00942)"><g stroke-width="0.2" stroke="#000" fill="#FFF"><path d="M-122 84s0 2-1 2-17-48-38-46c0 0 18-7 39 44z"/></g><g stroke-width="0.2" stroke="#000" fill="#FFF"><path d="M-119 81s0 2-1 2 0-51-20-56c0 0 19-1 21 54z"/></g><g stroke-width="0.2" stroke="#000" fill="#FFF"><path d="M-91 124s1 1 1 1-50-12-59 6c0 0 3-19 58-8z"/></g><g stroke-width="0.2" stroke="#000" fill="#FFF"><path d="M-94 134s2 0 2 1-51 4-55 25c0 0-2-20 53-26z"/></g><g stroke-width="0.2" stroke="#000" fill="#FFF"><path d="M-98 128s2 1 1 2-51-4-57 16c0 0 0-19 56-18z"/></g><g stroke-width="0.2" stroke="#000" fill="#FFF"><path d="M-109 110s1 2 1 2-45-25-59-10c0 0 9-17 58 8z"/></g><g stroke-width="0.2" stroke="#000" fill="#FFF"><path d="M-116 114s1 2 0 2-47-20-59-4c0 0 7-18 59 2z"/></g><g stroke-width="0.2" stroke="#000" fill="#FFF"><path d="M-119 118s1 1 1 2-49-14-59 4c0 0 4-18 58-6z"/></g><g stroke-width="0.2" stroke="#000" fill="#FFF"><path d="M-108 119s1 1 0 2-41-31-57-18c0 0 11-16 57 16z"/></g><g stroke-width="0.2" stroke="#000" fill="#FFF"><path d="M-128 90s0 2 0 2-30-42-49-34c0 0 15-12 49 32z"/></g><g stroke-width="0.2" stroke="#000" fill="#FFF"><path d="M-128 97s2 2 1 2-38-35-55-23c0 0 12-15 54 21z"/></g><g stroke-width="0.2" stroke="#000" fill="#FFF"><path d="M-128 101s2 2 1 2-41-31-57-17c0 0 11-16 56 15z"/></g><g stroke="#000" fill="#FFF"><path d="M-130 103q1 10 3 16c0 0-3 12 6 25 0 0-1 8 1 11 0 0 4 8 9 9q6 2 22 5c0 0 17 14 14 27 0 0 0 16-4 18 0 0 12-11 2 6l-4 18s25-21 10-3l-10 26s19-18 12-10l-3 9s43-27 12 2c0 0 8-3 13 0 0 0 6-2 6 0 0 0-21 10-25 29 0 0 9-10 5 1l1 11s4-21 3 16c0 0 20-18 8 3v17s15-17 9-4c0 0 10-9 6 7 0 0-1 10 3-1 0 0 16-31 10-5 0 0 0 20 4 5 0 0 1 10 10 17 0 0-1-50 12-14l4 16s2-9 2-14l8 8s15-23 12-10c0 0-8 16-6 21 0 0 17-35 18-37 0 0-2 43 9 7 0 0 5 12 3 16 0 0 8-8 7-11 0 0 4-8 7 5 0 0 2 10 4 7 0 0 4 24 5 1 0 0 1-14-6-25q1-1-2-8c0 0 14 22 7-7 0 0 11 8 12 8 0 0-14-23-5-18 0 0-5-11 13 1 0 0-16-16 2-6 0 0 8 6 0-4 0 0-14-16 8 2 0 0 11 17 12 20 0 0-10-30-14-32 0 0 8-37 49-21 0 0 7 17 11-1 0 0 13-7 24 21 0 0 4-14 4-17 0 0 6 2 6 0 0 0 13 5 14 4 0 0 7 7 7 3 0 0 9 3 7-1 0 0 9 16 10 20l2-14 2 2s2-7 1-8 20 6 25 27l2 9s6-15 4-19c0 0 5 1 6 5 0 0 4-23-1-29 0 0 4-1 5 3v-8s8 1 8-1c0 0 4-4 6 1 0 0-12-36 6-16 0 0 7 10 4-8s-8-21-3-21l-1-5s1 0 1 0 5 4-1-18c0 0 7 1-5-28 0 0 3-2-1-11 0 0 8 5 10 3q1 0-3-6c0 0-22-54-1-32 0 0 11 13 5-10 0 0-9-24-8-28l-430 23z"/></g><g stroke="#000" fill="#cc7226"><path d="M300 80q1 1 4 3c0 0 7 11 1-7 0 0-9-29 0-18 0 0 6 7 3-6q-6-24-7-23s12 5-15-35l9 4s-20-40-41-45l-8-6s38-38 25-75c0 0-6-5-16 4 0 0-6 5-12 3 0 0-31 1-33 1s-37-37-103-19c0 0-5 2-9 1 0 0-19-16-67 6 0 0-10 2-12 2s-4 0-12 7-9 7-11 9c0 0-16 11-21 12 0 0-12 6-16 16l-4 1s-1 7-2 9c0 0-4 3-5 9 0 0-9 6-9 10q0 2-2 10c0 0-7 5-6 8 0 0-8 14-7 21 0 0-6-1-9 2l-2 5c0 0-3 1-1 5l-2 4q2 0-3 9c0 0-7 19-5 24 0 0 1 5-2 6 0 0-4 0 5 12q1 0-3 3c0 0-17 4-19 20 0 0-14 15-14 20q0 4 1 11c0 0-1 8 27 9S300 80 300 80z"/></g><g fill="#cc7226"><path d="M-116 103c-25-40-10 17-10 17 9 34 138-4 138-4S181 86 192 82s107 2 107 2l-6-16C228 21 209 44 195 40s-11 6-14 7S139 23 132 24 100 1 115 32C131 66 57 72 40 60s7 19 7 19c19 20-16 3-16 3C-3 69-27 95-30 96s-8 4-9-3-8-23-40 3c-20 17-34-5-34-5l-3 12z"/></g><g fill="#e87f3a"><path d="M134 25c-7 1-32-23-17 9C133 69 58 73 42 62c-17-11 7 19 7 19 18 20-16 3-16 3C-2 71-26 97-29 97s-8 4-9-2-8-23-40 3c-21 18-34-4-34-4l-4 10c-25-40-10 19-10 19 9 34 140-5 140-5S182 88 194 84s105 2 105 2l-5-17C229 22 210 46 197 42s-11 6-15 7S140 25 134 25z"/></g><g fill="#ea8c4d"><path d="M135 27c-7 1-31-23-17 9C134 72 60 75 43 64s7 18 7 18c18 20-16 4-16 4C0 73-24 98-28 99s-8 4-8-2-9-23-40 3c-23 18-36-3-36-3l-4 9c-24-39-9 20-9 20 9 34 140-6 140-6S184 90 195 86s105 2 105 2l-6-18C229 24 212 48 198 44s-11 6-14 6S141 26 135 27z"/></g><g fill="#ec9961"><path d="M136 29c-6 1-31-23-17 9C136 75 60 76 44 66c-17-12 7 18 7 18 19 20-16 3-16 3C1 74-23 100-26 101s-8 4-9-3-8-22-40 4c-24 18-37-2-37-2l-4 7c-22-37-8 22-8 22 9 34 140-7 140-7S185 91 196 87s104 2 104 2l-5-18C230 25 213 50 199 46s-11 5-14 6S142 28 136 29z"/></g><g fill="#eea575"><path d="M137 31c-6 0-30-24-16 8C137 79 62 79 45 67s8 19 8 19c18 20-16 3-16 3C2 76-22 102-25 103s-8 4-9-3-8-22-40 3c-25 20-37 0-37 0l-5 6c-20-35-8 23-8 23 9 34 141-9 141-9S186 93 197 89s103 2 103 2l-5-19C230 26 214 51 201 47s-12 6-15 7S144 30 137 31z"/></g><g fill="#f1b288"><path d="M139 32c-7 1-33-22-17 9C141 80 64 80 47 69s7 19 7 19c18 20-16 3-16 3C4 78-20 104-24 104s-8 4-8-2-8-22-40 3c-27 20-39 1-39 1l-5 4c-18-33-7 25-7 25 9 34 142-10 142-10S188 95 199 91s102 2 102 2l-5-20C231 27 216 53 202 49s-11 6-14 7S145 32 139 32z"/></g><g fill="#f3bf9c"><path d="M140 34c-6 1-33-22-17 9C144 83 65 82 48 71s7 18 7 18c19 20-16 4-16 4C5 80-19 105-22 106s-8 4-9-2-8-22-40 3c-27 21-39 2-39 2l-6 3c-16-30-6 26-6 26 8 34 142-11 142-11S189 96 200 92s101 2 101 2l-5-19C231 28 217 55 203 51s-11 5-14 6S146 33 140 34z"/></g><g fill="#f5ccb0"><path d="M141 36c-6 1-33-22-16 9C147 84 66 84 49 73s8 18 8 18c18 20-16 3-16 3C6 81-18 107-21 108s-8 4-9-3-7-21-40 4c-28 21-40 3-40 3l-6 1c-14-28-6 28-6 28 9 34 143-12 143-12S190 98 201 94s101 2 101 2l-5-20C232 29 218 57 205 53s-12 5-15 6S148 35 141 36z"/></g><g fill="#f8d8c4"><path d="M143 38c-7 0-34-22-17 8C148 86 68 86 51 74s7 19 7 19c18 20-16 3-16 3C8 83-16 109-20 110s-8 4-8-3-8-22-40 3c-30 23-42 5-42 5h-6c-13-26-5 29-5 29 9 34 144-14 144-14S192 100 203 96s99 2 99 2l-5-21C232 30 220 58 206 54s-11 6-14 7S149 37 143 38z"/></g><g fill="#fae5d7"><path d="M144 39c-6 1-34-22-17 9C149 89 69 87 52 76s7 18 7 18c19 20-16 4-16 4C9 85-15 110-18 111s-8 4-9-2-7-22-40 3c-31 23-42 6-42 6l-7-2c-13-24-4 31-4 31 9 35 144-15 144-15S193 102 204 98s99 1 99 1l-5-21C233 32 221 60 207 56s-11 6-14 6S150 38 144 39z"/></g><g fill="#fcf2eb"><path d="M145 41c-6 1-32-23-17 9C150 93 70 89 53 78s7 18 7 18c19 20-16 3-16 3-34-12-58 13-61 14s-8 4-9-2-7-22-40 3c-32 24-43 7-43 7l-7-3c-13-23-4 32-4 32 9 34 145-16 145-16S194 103 205 99s98 2 98 2l-5-22C233 33 222 62 208 58s-11 5-14 6S152 40 145 41z"/></g><g fill="#FFF"><path d="M-116 120c-13-22-3 33-3 33 9 35 146-17 146-17s168-31 180-35 96 2 96 2l-4-23C234 34 223 64 210 60s-11 5-15 6S153 42 147 43s-32-23-17 9C152 99 69 89 55 80c-17-12 7 18 7 18 18 20-16 3-16 3-35-13-59 13-62 14s-8 4-9-3-7-21-40 4c-33 24-44 8-44 8l-7-4z"/></g><g fill="#000"><path d="M-74 150s-7 11 13 24c0 0 2 2-16-2 0 0-6-2-8-13q-1-1-10-10s21 1 21 1z"/></g><g fill="#CCC"><path d="M66 102s18 27 17 32q-3 16 2 24s12 37 12 37-1 1 12-37c0 0 11-16-9-34 0 0-35-29-34-22z"/></g><g fill="#000"><path d="M-54 176s11 8-3 39l6-3s-1 12-4 14l7-3s5 8 1 13c0 0 17 8 16 14 0 0 6-8 2-14s-11-3-10-21l-9 3s6-9 6-15l-8 2s15-26 5-28q-9-1-9-1z"/></g><g fill="#CCC"><path d="M-22 193s3-4 0-3-34 15-40 25c0 0 35-25 40-22z"/></g><g fill="#CCC"><path d="M-11 201s2-4 0-3-34 15-40 25c0 0 34-25 40-22z"/></g><g fill="#CCC"><path d="M2 186s3-4 0-4-34 16-40 26c0 0 34-25 40-22z"/></g><g fill="#CCC"><path d="M-21 230s0-6-3-6-39 19-45 28c0 0 42-25 48-22z"/></g><g fill="#CCC"><path d="M-20 219s1-5-2-4c-2 0-28 11-34 21 0 0 29-22 36-17z"/></g><g fill="#CCC"><path d="M-35 266l-10 8s11-8 14-6c0 0-6 11-7 16 0 0 10-13 16-12 0 0 7 0 7 11 0 0 6-11 9-10 0 0 1 6 0 13 0 0 4-8 8-6 0 0 7-2 6 10 0 0 0 10-1 13 0 0 6-27 8-27 0 0 8-1 13 8 0 0-4-8 1-6 0 0 10 2 14 8 0 0-7-12-2-8l8 6s9 21 11 23c0 0-8-22-6-22 0 0-2-12 3 3 0 0-3-14 2-13s10 11 19 8c0 0 9 6 11-63l-124 46z"/></g><g fill="#000"><path d="M-30 174s15-6 55 0c0 0 7 0 14-9s34-16 40-14l10 7v1s13 10 13 18-14 55-24 71-19 29-38 26c0 0-21-4-47 0 0 0-29-1-32-9s12-23 12-23 4-9 3-23-1-43-6-45z"/></g><g fill="#e5668c"><path d="M-8 176c9 18-21 83-21 83-2 2 13 8 23 5 11-2 51 2 51 2 24-16 36-60 36-60s11-24-7-27-82-3-82-3z"/></g><g fill="#b23259"><path d="M-10 206q6-20 2-30c0 0 63 6 74-15 4-8 19 23 18 33 0 0-63 14-77 3l-17 9z"/></g><g fill="#a5264c"><path d="M-5 223s2 7-1 11q0 0-3 1c0 0 2 4 8 5l4 5s7 6 11 5 15-5 15-5 6-3 15 0q1 1 3-5 1-7 5-10s12-15 11-15-68 8-68 8z"/></g><g stroke="#000" fill="#ff727f"><path d="M-10 174s-3 23 1 31 2 11 1 15 4 14 9 20l12 1s16-3 25-1c0 0 9 2 12-13 0 0 5-7 12-9s15-45 11-53-19-12-35 3-18-1-48 6z"/></g><g stroke-width="0.5" stroke="#000" fill="#FFC"><path d="M-8 249s-1-2-5-2c0 0-23-4-31-16 0 0-7-6-3 6 0 0 11 20 18 23 0 0 16 4 21-11z"/></g><g fill="#cc3f4c"><path d="M72 185c0-8 2-16 1-20-7-13-24-7-35 3-16 16-18-1-48 6 0 0-2 14-1 24 0 0 38-11 38-6 0 0 2-3 11-3s32-1 34-4z"/></g><g stroke-width="2" stroke="#a51926"><path d="M29 175s4 5 1 15c0 0-15 16-13 30"/></g><g stroke-width="0.5" stroke="#000" fill="#FFC"><path d="M-19 260s-5-13 4-6l4 4c-2 1-7 5-8 2z"/></g><g stroke-width="0.5" stroke="#000" fill="#FFC"><path d="M-14 261s-4-10 3-5l3 3c-5 2 0 4-6 2z"/></g><g stroke-width="0.5" stroke="#000" fill="#FFC"><path d="M-10 261s-3-10 4-5l3 3c-4 2 0 4-7 2z"/></g><g stroke-width="0.5" stroke="#000" fill="#FFC"><path d="M-3 261s-3-10 3-4l3 2c-3 2 0 4-6 2z"/></g><g stroke-width="0.5" stroke="#000" fill="#FFC"><path d="M4 261s-4-10 3-5l3 3c-1 2 0 4-6 2z"/></g><g stroke-width="0.5" stroke="#000" fill="#FFC"><path d="M10 262s-5-12 5-6l3 4c-1 1 0 4-8 2z"/></g><g stroke-width="2" stroke="#a5264c"><path d="M-18 245s13-3 19 0l7 1s5-1 5-1"/></g><g stroke-width="2" stroke="#a5264c"><path d="M16 254s12-14 24-10c7 3 6 0 7-3s1-7 6-10"/></g><g stroke-width="0.5" stroke="#000" fill="#FFC"><path d="M33 238s-4-11-7 2-6 16-7 19c0 0 0 5 8 5 0 0 11-1 11-4s-1-14-5-22z"/></g><g stroke-width="2" stroke="#a5264c"><path d="M47 245s4-3 6-1"/></g><g stroke-width="2" stroke="#a5264c"><path d="M54 228s2-4 7-5"/></g><g fill="#b2b2b2"><path d="M-26 265s18 3 23 2v2l-21-1s-11-6-2-3z"/></g><g stroke-width="0.5" stroke="#000" fill="#FFC"><path d="M-12 172l20 1s7 31 3 38c0 0-1 3-4-3 0 0-18-32-21-34s1-2 2-2z"/></g><g stroke-width="0.5" stroke="#000" fill="#FFC"><path d="M-89 169s9 2 22 5c0 0 4 22 8 27s-1 5-4 2-19-17-21-21-5-13-5-13z"/></g><g stroke-width="0.5" stroke="#000" fill="#FFC"><path d="M-67 174s6 1 7 4-1 5-1 5-1 3-3 1-4-10-3-10z"/></g><g fill="#000"><path d="M-67 174s4 5 7 5 4-1 7 0c5 1 4-1 11 0l8 1s6 0 7-2 6-6 6-6-13 2-16 3c0 0-22 1-30-1z"/></g><g stroke-width="0.5" stroke="#000" fill="#FFC"><path d="M-22 174s-7 3-7 6 5 6 5 6 3 4 3 2-1-14-1-14z"/></g><g stroke-width="0.5" stroke="#000" fill="#FFC"><path d="M-60 179s7 11 7 0q1 0-1-1c-6 0-4-4-6 1z"/></g><g stroke-width="0.5" stroke="#000" fill="#FFC"><path d="M-53 180s8 11 8-1q0 0-2 0c-5-1-5-5-6 1z"/></g><g stroke-width="0.5" stroke="#000" fill="#FFC"><path d="M-46 180s8 10 8 0q0 0-2-1c-4-1-4-4-6 1z"/></g><g stroke-width="0.5" stroke="#000" fill="#FFC"><path d="M-39 180s8 11 9 1l-1-1c-5-1-5-5-8 0z"/></g><g fill="#e5e5b2"><path d="M-75 183l-7-1c-3-5-5-12-5-12s6 1 19 4q0 0 2 9h-9z"/></g><g fill="#e5e5b2"><path d="M-10 178q-2-3-3-4c-3-2 1-2 2-2l18 1s1 2 2 6c0 0-11-2-19 0z"/></g><g fill="#cc7226"><path d="M44 40C72 44 97 9 99-1s-9-22-9-22c2-3-3-17-8-26s-22-8-39-9C27-59 9-36 7-34s5 40 7 46-2 32-2 32c34-9 4-8 32-4z"/></g><g fill="#ea8e51"><path d="M8-33c-1 1 5 39 6 45s-1 31-1 31c33-9 4-7 31-3S96 8 98-1s-8-21-8-21c1-3-4-17-9-26s-21-8-38-9C28-58 9-35 8-34z"/></g><g fill="#efaa7c"><path d="M9-33c-1 2 5 39 6 44s-2 31-2 31c32-9 4-7 31-3C71 43 95 8 97-1s-8-21-8-21c1-3-4-16-9-25s-20-8-37-9C28-57 10-34 9-33z"/></g><g fill="#f4c6a8"><path d="M10-32c-2 2 4 38 5 43s-1 31-1 31c30-9 4-8 30-4C70 42 94 8 96-1s-8-20-8-20c1-3-3-16-8-25s-20-8-37-9C28-56 11-34 9-32z"/></g><g fill="#f9e2d3"><path d="M10-31c-1 1 5 37 6 42s-1 30-1 30c28-9 3-7 29-3C70 41 94 8 95-1s-8-20-8-20c2-3-3-16-8-24s-19-8-36-9c-14-1-32 21-33 22z"/></g><g fill="#FFF"><path d="M44 37C69 40 93 8 94-1s-7-19-7-19c1-3-4-16-8-24s-20-8-36-9c-14-1-31 21-32 22s4 37 6 42-2 29-2 29c26-9 4-7 29-3z"/></g><g fill="#CCC"><path d="M91 3S63 10 51 9C51 9 35 2 27 24c0 0-4 7-6 9S91 3 91 3z"/></g><g fill="#000"><path d="M94 1S65 13 55 12C55 12 39 8 31 22c0 0-9 10-12 11 0 0 0 2 6-2l10 5s15 10 25-6c0 0 4-12 4-14S85 9 87 8c1 0 8-4 7-7z"/></g><g fill="#99cc32"><path d="M47 36C40 36 32 33 32 26S40 14 47 14s12 5 12 11S54 36 47 36z"/></g><g fill="#659900"><path d="M43 20q-8 1-9 2 3-8 13-8 7 0 10 5 0-1-14 1z"/></g><g fill="#FFF"><path d="M55 20s-4-4-4-1c0 0 4 4 4 1z"/></g><g fill="#000"><path d="M45 28q-4-1-4-5s2-4 4-4 5 2 5 4-2 5-5 5z"/></g><g fill="#cc7226"><path d="M-59 14s-3-21 0-25c0 0 10-10 10-14 0 0 0-18-2-19s-8-6-14 0c0 0-11 18-10 24v2s-8 0-9 2l-3 6c0 0-2 2 0 5q-1 0-2 6l8 4s2 15 12 20c5 2 8-5 10-11z"/></g><g fill="#FFF"><path d="M-60 13s-2-20 0-23c0 0 9-9 9-13 0 0 0-16-1-17s-8-6-14 0c0 0-9 16-8 22v2s-7 0-8 1l-3 5c0 0-2 3 0 5q-1 0-2 6l7 3s2 13 11 18c5 2 8-4 9-9z"/></g><g fill="#eb955c"><path d="M-51-43c-1-1-9-6-14 0 0 0-11 18-10 24v2s-7-1-9 1l-2 6c0 0-3 2-1 5q-1 0-1 6l7 4s2 14 12 19c5 2 8-4 10-10 0 0-3-21-1-25 0 0 11-10 11-13 0 0-1-18-2-19z"/></g><g fill="#f2b892"><path d="M-52-42c0 0-8-6-14 0 0 0-10 17-9 23v2s-7 0-8 2l-3 5c0 0-2 2 0 5q-2 0-2 6l7 4s2 13 12 18c5 3 8-4 10-10 0 0-3-20-1-24 0 0 10-9 10-13 0 0 0-17-1-18z"/></g><g fill="#f8dcc8"><path d="M-52-41c-1-1-8-6-14 0 0 0-9 17-9 23v2s-7-1-8 1l-2 5c0 0-3 2-1 5q-1 0-2 6l7 4s2 13 12 18c5 2 8-4 9-10 0 0-3-19 0-24 0 0 10-9 9-12 0 0 0-17-1-18z"/></g><g fill="#FFF"><path d="M-60 12s-2-18 0-22c0 0 9-9 9-13 0 0 0-16-1-17-1 0-8-6-14 0 0 0-9 16-8 22v2s-7 0-8 1l-3 5c0 0-2 3 0 5q-1 0-2 6l7 3s2 13 11 18c5 2 8-4 9-9z"/></g><g fill="#CCC"><path d="M-63 6S-84-4-85-5c0 0 9 8 10 8s12 3 12 3z"/></g><g fill="#000"><path d="M-80 0s19 4 19 8c0 3-1 16-6 15C-75 20-72 6-80 0z"/></g><g fill="#99cc32"><path d="M-71 4s9 1 10 4c0 2 1 10-5 11-4 1-6-9-5-15z"/></g><g fill="#000"><path d="M15 46q-1-2 2-2c2 0 14-4 15-7s14 2 14 2l6 3c5 2 12 2 12 2 2 1 6 4 6 4 14 10 27 3 27 3 20-7 14-24 14-24-3-9 0-12 0-12 0-4 7 2 7 2q4 8 4 9c8 12 4-6 4-6l-2-6s-2-5-2-5c-3-3-1-10-1-10 2-14 0-12 0-12-1-2-11 8-11 8-2 4-8 5-8 5-3 2-6 1-6 1C93 0 88 7 88 7l7 5s5-3 6-3 5 5 5 5c0 2-6 7-6 7 0 5-2 3-2 3q-4 0-5 8s-5 5-5 5c-2 7-3 4-3 4 0-5-6 1-6 1h-6c-7-2-4-4-4-4 2-3 13 0 13 0 2-2-6-6-6-6v-6c2-4 8-9 8-9 10-1 7-3 7-3C85 9 79 16 79 16 77 23 59 38 59 38c-4 3-2-4-6 0S29 32 29 32C17 31 14 47 11 44c0 0 5 8 4 2z"/></g><g fill="#000"><path d="M209-120s-25 8-28 27c0 0-2 23 18 40 0 0 0 7 2 10 0 0-1 5 18-3l27-8s6-3 11-12 21-27 17-52c0 0 1-12-5-12 0 0-8-2-15 6 0 0-7 3-9 3l-36 1z"/></g><g fill="#000"><path d="M264-121s2-9-3-4c0 0-7 6-14 6 0 0-15 2-19 15 0 0-4 27 4 33 0 0 5 7 12 1s22-37 20-51z"/></g><g fill="#323232"><path d="M264-121s2-8-3-4c0 0-7 6-14 6 0 0-15 2-19 15 0 0-4 26 4 32 0 0 5 7 12 1s22-36 20-50z"/></g><g fill="#666"><path d="M263-120s2-9-2-4c0 0-7 5-14 5 0 0-14 2-19 15 0 0-3 26 4 32 0 0 5 7 12 0s21-35 19-48z"/></g><g fill="#999"><path d="M263-120s2-8-3-4c0 0-6 6-13 6 0 0-14 2-18 14 0 0-4 26 3 31 0 0 5 7 12 1s21-35 19-48z"/></g><g fill="#CCC"><path d="M262-120s3-8-2-3c0 0-6 5-13 5 0 0-14 2-18 14 0 0-4 25 4 30 0 0 4 7 11 1s21-34 19-47z"/></g><g fill="#FFF"><path d="M262-119s2-8-2-4c0 0-7 5-13 5 0 0-14 2-18 14 0 0-3 25 4 30 0 0 4 7 11 1s20-34 18-46z"/></g><g fill="#992600"><path d="M51 84S30 65 22 64c0 0-34-4-49 14 0 0 18-20 45-15 0 0-21-4-34-1l-26 14-3 5s4-15 22-21c0 0 23-5 34 0 0 0-22-7-32-5 0 0-30-2-43 24 0 0 4-14 19-21 0 0 14-9 34-6 0 0 14 3 20 5s4 0-5-5C4 52-1 42-15 42c0 0-43 4-54 16 0 0 14-11 24-14 0 0 23-8 31-7 0 0 25 1 33-3 0 0-12 5-8 8s10 11 10 12 24 23 27 28l3 2z"/></g><g fill="#CCC"><path d="M189 278s-15-36-28-46c0 0 26 16 29 34 0 0 0 10-1 12z"/></g><g fill="#CCC"><path d="M236 286s-26-56-45-80c0 0 43 38 49 64v6l-3-2s-1 8-1 12z"/></g><g fill="#CCC"><path d="M292 237s-62-59-64-62c0 0 61 66 64 73 0 0-2-8 0-11z"/></g><g fill="#CCC"><path d="M104 280s20-52 38-29c0 0 16 10 15 13 0 0-4-6-22-6 0 0-19-3-31 22z"/></g><g fill="#CCC"><path d="M294 153s-44-29-52-30c-12-2 50 29 54 39 0 0 2-2-2-9z"/></g><g fill="#000"><path d="M144 260s20-2 27-9l4 3 18-38 4 5s14-15 13-23 13 6 13 6-1-11 6-4c0 0-2-16 6-8 0 0-10-30 12-4 6 6 2-1 2-1s-26-48-5-33c0 0 2-23 1-28s-3-26-8-32 0-6 6-1c0 0-11-24 2-12 0 0-4-15-8-18 0 0-6-17 10-7 0 0-5-12-8-15 0 0-12-28-4-23l4 4s-7-14 0-10 6 4 6 4S224-17 244 0c0 0-8-14-11-20 0 0-19-21-5-14l5 1s-9-10-17-11 3-8 9-6 22 9 22 9 13 19 17 19c0 0-20-7-14 1 0 0 14 14 7 13 0 0-6 8-1 16 0 0-19-18-4 8l7 16S235 7 246 29c0 0 17 24 19 24s6 9 6 9l-4-2 5 9s-11-12-5 1l6 15s-21-22-7 7c0 0-17-5-8 12 0 0-1 16-1 22s2 33-3 41 6 27 8 31 6 15-3 6-4-4-2 5 8 25 7 30q0 2-5-2c0 0-14-23-13-9 0 0-1 8-4 17 0 0-3 11-3 2 0 0-4-17-6-9s-7 14-10 16-8-20-9-10c0 0-12-12-17 4l-11 16s-1-12-2-6c0 0-30 6-40 2z"/></g><g fill="#000"><path d="M109-97s-11-8-15-8 27-9 69 19c0 0 4 3 8 2 0 0 3 3 0 6 0 0-8 10 3 21 0 0 18 7 13-2 0 0 10 4 13 8s1 0 1 0l-12-12s-6-2-8-11-6-18-1-21c0 0-4 4-3 0s4-7 6-8 18-16 24-16c0 0-9 1-12 0s-29-12-35-14c0 0-17-6-5-4 0 0 36 4 54 17 0 0-7-9-26-16 0 0-22-12-57-7 0 0-18 3-26 5l-3-1s-12-10-40-3c0 0-17 5-26 10 0 0-15 1-18 4 0 0-19 15-21 16s-13 8-14 8c0 0 24-6 27-9s20-5 22-3 11 1 1 1c0 0 76 15 77 17s4 1 4 1z"/></g><g fill="#cc7226"><path d="M181-106s-10-8-12-8-15-10-19-10-16-9-44-1q-1-1 3-3l7-3c0 0 20-4 27 0 0 0 10 2 16 9 0 0 11 3 14 2 0 0 9 2 9 4 0 0 6 3 4 5 0 0 1 2-5 5z"/></g><g fill="#cc7226"><path d="M168-108l3 1q0 1-1 1h-3q-1 0-1 0-3-1-6 0l-6-1 0 0-10-3q-3-1-7-2-2-1-5-2-2-1-4-2l-6-1v1l-1-1h-5l-4-1-9-1 13-3 7-1q1 0 2 1v-1l7 4h1l5 2h5 1 3 1q2 1 3 1h1l3 1 0 0 3 1 2 1 6 3q1 1 2 1z"/></g><g fill="#cc7226"><path d="M92-123l-8-4 0 0-3-2-2-1-8-3 3-1q0 0 0 0 3-1 6-1 2 1 5 1l1 1 6 1q3 1 5 2 0 1-1 1 1 0 1 1 0 0 0 0 0 1-1 1v-1l-1 4q-1-1-1-1v1q-1 2-2 2z"/></g><g fill="#cc7226"><path d="M59-115l-9-2 0 0q-2-1-4-3l-4-1 0 0-4-2 8-1 0 0q0 0 0 0 1 0 1 0 1-1 2 0l0 0h1l0 0q0 0 0 0h3l2 2 13 5q1 0 1 1 0 0 1 0 1 1 2 2 1 1 0 1l-13-3z"/></g><g fill="#cc7226"><path d="M45-71l-3-5q0-1 0-1 1 0 2 1l5 2c2 2 6 2 6 6l-1 1-8-3-1-1z"/></g><g fill="#cc7226"><path d="M18-124h7l-8 2s-8 2-8 2l9-4z"/></g><g fill="#000"><path d="M33-114s-15 2-19 3-23 9-26 11c0 0-13 5-30 25 0 0 7-3 9-6 0 0 14-13 14-10 0 0 12-9 11-6 0 0 25-12 23-8 0 0 21-5 20-3 0 0 19 4 16 5 0 0-5 1 1 4 0 0-3 5-9 1s-2-2-7-1q0 1-7-3c0 0-6-5-15-1 0 0-30 12-32 13q-2 0-6 6c0 0-6 5-9 6 0 0-13 12-14 13l-4 6c0 0 6-4 8-6 0 0 14-10 19-11l6-4c0 0 14-9 18-9 0 0 9 5 12-2 0 0 6-2 11-1l3-5c0 0 1-1 2 2 0 0 4 4 8 2 0 0 4 0 2 2 0 0-4 4-16 4 0 0-12 1-29 8 0 0-29 11-39 21 0 0-6 9-11 10 0 0-6 1-12 8 0 0 10-5 19-5 0 0 4-3 0 1 0 0-4 7-2 13l-2 7c0 0-7 12-7 15s1 12 1 13-1-2 3 0 7 4 7 7-2-5-2-7-4-9-3-11q0 0 1 2 0 1 0-4c0 0 1-5 3-9s3-7 3-7 1-7 2-4l4 2s-3-2-1-5c0 0-1-5 1-8 0 0 7-8 8-9s1-1 1-1 6-4 0-2q-1 0-7 1c0 0-8 2-4-2s14-10 18-9l1 1 11-2-1 1s0-1 4-1 10 1 11-1 5-3 5-1-1 3-1 3 5-6 4-3-8 7-10 13l11-8 3-3s4 2 4 1 5-8 6-8 3-2 3 0 7 8 7 8 4-1 5 0 6-20 6-20l25-10 43-4-17-7-61-11z"/></g><g stroke-width="2" stroke="#4c0000"><path d="M51 85S36 68 28 66c0 0-13-7-38 1"/></g><g stroke-width="2" stroke="#4c0000"><path d="M25 64S0 56-16 60c0 0-18 2-27 16"/></g><g stroke-width="2" stroke="#4c0000"><path d="M21 63S4 56-11 54c0 0-16-3-33 4 0 0-12 6-17 16"/></g><g stroke-width="2" stroke="#4c0000"><path d="M22 63S7 52 6 51C6 51-1 40-14 40c0 0-22 0-39 8"/></g><g fill="#000"><path d="M21 54c1 2 28 31 28 31 36 36 8 2 8 2C49 82 40 64 40 64c-1-3 14 7 14 7 4 1 17 20 17 20-6-3-2 5-2 5 3 2 24 17 24 17q6 6 7 6c14-5 8 8 8 8 2 7 8-5 8-5 11-17-5-14-5-14C81 110 74 94 74 94c-3-2 6 0 6 0 9 2-7-12-7-12 2 0 12 7 12 7 10 9 12 7 12 7 18-9 28-1 28-1 2 1-3 8-2 13s7 18 7 18c-3 2-2 12-2 12 17 24 7 22 7 22-16-1-1 7-1 7 3 2 12 9 12 9-3-1-4 4-4 4 5 4 2 9 2 9-6 1-7 5-7 5 6 8-4 8-4 8 4 5-1 17-1 17-5 0-11 5-11 5 2 5-8 11-8 11-8 1-6 8-6 8-8 6-10 22-10 22-1 11-3 14 2 12s4-15 4-15c-4-15 38-31 38-31 4-2 5-7 5-7 2 0 11 8 11 8 8 11 8 2 8 2 1-4 0-10 0-10 6-21-8-28-8-28-10-33 4-25 4-25 2 6 13 11 13 11l4-2c-2-5 7-11 7-11 2 6 8-2 8-2 4-24 16-10 16-10 4 1 6-5 6-5 3-11 0-24 0-24 3-1 13 5 13 5 3-3-7-20-3-18s9 4 9 4c1-2-9-14-9-14-5-3-10-23-10-23 7 3-3-12-3-12 0-3 6-14 6-14-1-7 0-7 0-7 3 1 11 3 4-3s1-12 1-12c4-2-9-2-9-2-5-4-5-8-5-8 8 2-6-13-9-16s7-9 7-9c14-4 2-7 2-7-20 0-9-10-9-10 6 0 5-2 5-2-6-2-15-8-15-8-4-4-1-3-1-3 17 1-12-10-12-10 8 0-10-10-10-10-2-2-5-9-5-9-6-6-11-12-11-12 0-5-5-10-5-10-11-13-17-13-17-13-15-3-20-3-20-3l-53 5c-26 13-18 34-18 34 6 8 15 4 15 4 5-6 16-4 16-4 21 3 18 0 18 0C85-64 69-70 68-71s-9-4-9-4c-3-1-7-10-7-10-3-3 13 2 13 2-2 1 6 5 6 5 17-1 28 10 28 10 11 17 11 9 11 9 3-10-9-31-9-31 0-2 8 5 8 5 2-2 3 3 3 3 0 3 4 11 4 11 2 13 6 5 6 5l5 10c1 2-5 10-5 10 0 3 1 3-5 10s-2 12-2 12c-2 7 7 6 7 6q5 3 6 3 4 2 4 1c2-4 8-2 8-2 2-2 10-3 10-3q0-3 5-4s-22-44-22-44c7-1-1-13-1-13-3-7 9 8 11 9s3 4 2 4-4 2-2 2 14 15 17 25 10 14 16 20 5 31 5 31c0 8 6 19 6 19 2 4-2 22-2 22q-2 3-1 3c1 1 8 14 8 14-2 0 2 4 2 4 5 6-1 3-1 3-6-2 1 8 1 8 1 2-8-3-8-3-9 0 2 7 2 7 9 7-3 3-3 3-4-2-1 5-1 5 3 1 20 8 20 8 1 4-2 9-2 9q-1 7-2 7c-1 9-2 9-2 9-4 1-11 14-11 14-2 3-12 15-12 15-2 7-20 0-20 0-7 3-5 0-5 0 0-2 4-8 4-8 7-3 5-14 5-14 4-1-7-4-7-5s6-3 6-3c8-2 3-4 3-4 0-4 3-10 3-10 11-1 0-17 0-17C153 90 152 84 152 84c13-8 4-21 5-24s1-26 1-26c-2-6-5-19-5-19 2-6 10-18 10-18 2-4 11-9 9-12s-10-1-10-1c-8-2-7 3-7 3l-3 6c0 8-9 15-9 15-11 6-2 10-2 10 6 6-4 7-4 7-11-2-3 8-3 8 11 13 8 16 8 16-10 1 2 10 2 10s0-2 0 0 3 6 4 8-3 2-3 2c0 9-15 5-15 5h-2c-1 1-13 0-18-2S97 69 97 69s-4 2-12 2-15 3-15 3c-5-1 4-5 4-5s6-5-2-5C50 66 39 56 39 56q-3-4-4-5c-10-2 1 13 1 13q1 2 0 2c-1-1-9-7-9-7q-3-1-6-5z"/></g><g fill="#4c0000"><path d="M-3 43s12 5 14 8 17 14 17 14-6-2-8-3S6 52 6 52 3 46-3 43z"/></g><g fill="#99cc32"><path d="M-61 12v-4C-62 5-71 4-71 4q-1 2-1 5c0 0 5 5 11 3z"/></g><g fill="#659900"><path d="M-61 11v-3C-62 5-71 4-71 4q-1 2-1 4c0 0 5 6 11 3z"/></g><g fill="#000"><path d="M-65 12q-1-1-1-3s0-2 1-2 1 1 1 2-1 3-1 3z"/></g><g fill="#000"><path d="M-65 9z"/></g><g fill="#000"><path d="M-111 110s-6 10 19 4c0 0 14-2 17-4 1 1 9 4 12 4 7 2 15-8 15-8s5-10 8-10-1 1-1 1-6 10-6 12c0 0-5 20-21 21 0 0-16 0-15 6 0 0 9-2 11 0 0 0 11 0 3 6l-7 12s0 4-10 0c-10-3-20-16-20-16s-16-14-5-28z"/></g><g fill="#e59999"><path d="M-112 114s-2 9 35-1l6 1c3 0 15 3 17 2 0 0-7 14-19 12 0 0-13 2-13 6 0 0 4 8 9 10q1 0 2 6s-3 4-5 5-5-2-7-2-10-7-14-11-13-17-12-20 1-8 1-8z"/></g><g fill="#b26565"><path d="M-109 131q4 7 8 11c4 4 13 11 14 11s5 3 7 2 5-2 5-5-2-6-2-6q-5-3-7-7c0 0 0 2-5 2s-11-4-12-7-4-6-3-2 4 7 6 7 1 2-1 2-6-1-10-6z"/></g><g fill="#992600"><path d="M-112 110s2-14 3-18c0 0 0-6 2-11s4-10 7-15 4-10 8-11 10-11 12-12 3 0 3 0 7-15 20-11c0 0-16-2 0-12 0 0-5 1-1-6 2-4 1 2-10 14 0 0-5 9-10 12s-17 10-18 14-5 9-7 11-5 6-5 9l-3 5s-1 5-1 7-2 4-2 7c0 0 1 19 0 21l2-4z"/></g><g fill="#FFF"><path d="M-120 115s-2-2-7 4c0 0 8 33 8 35q1 0-1-10s-2-20-2-20l2-9z"/></g><g fill="#992600"><path d="M-99 54s-17 3-17 32l-1 25s-1-25-2-27 3-13 0-7c0 0-14 14-6 35 0 0 1 4-2-1 0 0-5-12-3-19q-1 0 2-5c0 0 8-12 11-14 0 0 2-14 17-19 0 0 6-3 1 0z"/></g><g fill="#000"><path d="M41-12l1-2 2-2 1-4q1-1 0-2l-3-8q0-1-1-2l-2-3-1-2q-2 0-2 1-1 3 1 7v2q0 6-1 11l0 0q-2 4-5 8-1 1-2 3 0 1 0 2C25 0 23 4 20 8l1 2q1 0 2-1 1-1 1-2v-1c3-2 5-5 7-8q3 0 5-2h2q2-2 1-5l2-3z"/></g><g fill="#000"><path d="M32-17l0 0q1-1 1-1v-1q3-4 2-8 1-1 0-3l-2-5q-1-3-4-1 0 0 0 2 0 0 0 0v1l-1 4q1 2 3 5l-2 7q-1 0 0 0 0 1 1 2 0 0 1 0l1-2z"/></g><g fill="#000"><path d="M95-27q2 3-1 6c1 3 4 1 6 1q0-1 1-1l3-1 2-3q3-6-1-12v-1q-2-2-5-3l-4-11-3-3s-2 1-2 2l0 0q0 1 0 1 0 0 0 0l-2 3q-1 5 3 10 1 1-1 3 0 1 0 3 1 3 4 6z"/></g><g fill="#000"><path d="M58-9c-2 2-5 5-2 7q0 0 0 0 3-3 7-3 0 0 1 0l4-2q6 0 11-2l4-2q2-1 3-2 1 0 1 0l1-2v-1q4-2 2-6 0-1-1-1l-3-1-1 1h-3q-2 1-4 1l-1 1h-1q-2 0-4 2h-1l-3 3 0 0-2 1q-1 1-1 0l1-5 6-8 1-6q-1-1-1-1v-3q-2-1-4 1-2 1-5 0-1-1-2-3l-1-4 0 0v-1l-2-2q0-2-1-2l-6 1-1-1q-1 0-2 0-1 0-2 1-2 0-4 2s-3 2-4 4q-1 2 0 4l6-2q0 0 0 1 1 0 1-1l3 3s2 0 3 1l3 6q-1 2-1 4 0 2 2 2l2-2q0 0 0 1l-1 7q-1 0-1 0l-7 10v2l5-1c0-1 1-2 2-2l1-1h1l5-3h1q0-1 1-1 0 0 0 0l-1 2q-1 0-2 1h-1l-2 3z"/></g><g fill="#000"><path d="M2-58s-9-3-20 23c0 0-3 5-5 7s-14 6-16 10l-10 16s15-16 18-19c0 0 8-8 5-1 0 0-14 10-13 20 0 0-6 14-6 16 0 0 16-32 18-33s4-1 2 2-1 20-4 22c0 0 8-20 7-23 0 0 3-4 6 1l-1 16 4 12s-2-11-1-27c0 0-2-10 2-4S2-9 2-4c0 0-5-18-15-22l-4 6-1-2s-3-1 1-8 4-8 4-8 6 8 8 8c0 0 13-8 14 16 0 0 7-14-2-21 0 0-15-2-14-7l8-12c3-6 2-3 2-3z"/></g><g fill="#000"><path d="M-18-42l-16 6-7 9s17-10 21-11 2-4 2-4z"/></g><g fill="#000"><path d="M-58-35s-2 1-2 4-3 3-2 6 3 5 3 1 1-6 2-7 2-6-1-4z"/></g><g fill="#000"><path d="M-67 26s-8-4-11-8-3 2-8 2C-92 19-91 3-91 3l-4 8s-1 14 7 12q6-1 4 1s5 1 3 3 11-4 9 7l5-8z"/></g><g fill="#000"><path d="M-79 40s-16 5-19-5c0 0-5 3-3 6s4 3 4 3 5 1 4 2-3 4-3 4 11-6 17-10z"/></g><g fill="#FFF"><path d="M149 119q-1 2-4 3c-2-1-4-4-6-2l-2-1v-3q-1-2-1-4 2-1 2-4-1-1-1-1 1 0 1-1l0 0-1-1q2-2 4 0l1-1q0-1 1-1l3-1q1-1 3-1 3 2 5 4 1 2 1 3l-2 1 2 4q0 1-1 1h-1q1 5-4 5z"/></g><g fill="#FFF"><path d="M140 138l-1-5q0 0 1 0 0 0 0 0l5 6v2l-3 6q-2-1-4-2l2-4v-3z"/></g><g fill="#CCC"><path d="M-27 129s-17 10-2-5c8-10 18-15 18-15s11-5 14-6 19-6 22-7 13-4 20 0 15 8 15 8S43 96 40 98s-11 2-17 6c0 0-15 4-18 6s-14 14-15 13 0-1 1-4 0-5-8 2-10 8-10 8z"/></g><g fill="#000"><path d="M-19 123s1-13 10-11c0 0 8-4 11-6 0 0 8-2 9-3 19-8 33-4 34-5s20 6 23 10c1 1-10-5-19-7-9-2-30 0-41 5-3 2-12 8-15 8s-12 9-12 9z"/></g><g fill="#CCC"><path d="M-23 149s-15-3 2-4c0 0 18-2 22-7 0 0 13-10 16-10s33-8 33-10 6-2 8-2 1 2-2 3-34 17-41 19-18 8-22 10-16 1-16 1z"/></g><g fill="#000"><path d="M-4 141s-8 0 0-1c0 0 9-4 11-6 0 0 7-5 9-5s15-4 15-5 35-14 39-11c3 2-7 1-17 5-1 1-35 15-38 16s-9 4-12 5-7 2-7 2z"/></g><g fill="#000"><path d="M-11 144s5-1 4 1-4 1-4 1v-2z"/></g><g fill="#000"><path d="M-19 145s6 0 4 1-3 1-3 1l-1-2z"/></g><g fill="#000"><path d="M-29 147s5-1 4 1-4 1-4 1v-2z"/></g><g fill="#000"><path d="M-37 148s6-1 4 1-3 1-3 1l-1-2z"/></g><g fill="#000"><path d="M2 108l3 2-4 1 1-3z"/></g><g fill="#000"><path d="M-8 114s6-2 4 1l-4 1v-2z"/></g><g fill="#000"><path d="M-19 118s5 0 4 2-4 0-4 0v-2z"/></g><g fill="#000"><path d="M-27 124s5 0 4 2-4 0-4 0v-2z"/></g><g fill="#000"><path d="M-34 129s5 0 4 1-3 1-3 1l-1-2z"/></g><g fill="#000"><path d="M5 136s7-1 6 1-5 1-5 1l-1-2z"/></g><g fill="#000"><path d="M16 131s7-1 5 1-5 2-5 2v-3z"/></g><g fill="#000"><path d="M26 126s7 0 6 2-5 1-5 1l-1-3z"/></g><g fill="#000"><path d="M37 122s7-1 5 1-5 1-5 1v-2z"/></g><g fill="#000"><path d="M9 104s7-1 6 1c-2 2-6 2-6 2v-3z"/></g><g fill="#000"><path d="M19 100s7 0 6 2-6 2-6 2v-4z"/></g><g fill="#000"><path d="M-3 140s5 0 4 2-4 0-4 0v-2z"/></g><g fill="#992600"><path d="M-77 41s-4 9-4 12c0 0 0-9 2-11s2-1 2-1z"/></g><g fill="#992600"><path d="M-95 55s-3 15-3 17c0 0-1-11-1-12s4-5 4-5z"/></g><g fill="#CCC"><path d="M-74-19v3h-3s15 13 15 20c0 0 1-8-12-23z"/></g><g fill="#000"><path d="M-70-18l-1-2 1-1v-2l1-3 2-6q0 0 1-1l2-3 1-1s2 0 2 1l-3 6v2l-1 8h-1q1 4 2 7 1 1 1 3 1 1 0 2l2 9 1 2q-3-1-2-2l-1-2v-2l-2-5q-2-1-3-3v-1q-2-2-2-4v-2z"/></g><g fill="#000"><path d="M-74-16s1 6 3 8 1 1-2 0-2-2-2-2-3 0 0 2 6 4 4 4-9-4-9-6-1-7-1-7 1-1 6-1l1 2z"/></g><g stroke-width="0.1" stroke="#000" fill="#FFF"><path d="M-75 2s-8-3-27 1c0 0 9-2 28 0 10 1-1-1-1-1z"/></g><g stroke-width="0.1" stroke="#000" fill="#FFF"><path d="M-72 2s-9-3-27-2c0 0 9-1 27 3 10 2 0-1 0-1z"/></g><g stroke-width="0.1" stroke="#000" fill="#FFF"><path d="M-71 2s-8-4-27-4c0 0 10 0 28 5 10 3-1-1-1-1z"/></g><g stroke-width="0.1" stroke="#000" fill="#FFF"><path d="M-69 2s-7-4-24-5q0-1 24 6c9 4 0-1 0-1z"/></g><g stroke-width="0.1" stroke="#000" fill="#FFF"><path d="M46 13s-1 1-1-1S74-2 77-2c0 0-30 14-31 15z"/></g><g stroke-width="0.1" stroke="#000" fill="#FFF"><path d="M42 14s0 0 0-1S69-3 72-4c0 0-29 16-30 18z"/></g><g stroke-width="0.1" stroke="#000" fill="#FFF"><path d="M39 15s-1 1-1 0C38 13 58-2 68-4c0 0-18 8-29 19z"/></g><g stroke-width="0.1" stroke="#000" fill="#FFF"><path d="M36 17s0 1 0-1S54 1 62 0C62 0 46 7 36 17z"/></g><g fill="#CCC"><path d="M5 165s-16-3 1-4c0 0 18-2 22-7 0 0 14-10 17-10s19-4 19-6 7-5 8-4 2 10-1 10-22 8-28 10-18 8-23 10-15 1-15 1z"/></g><g fill="#000"><path d="M78 127s-3 2-5 5c0 0-6 10-20 13 0 0-23 9-31 11 0 0-13 5-21 5 0 0-7 0-1 1 0 0 21-2 24-3 0 0 16-6 19-8s21-8 23-10 12-10 12-14z"/></g><g fill="#000"><path d="M19 159s5 0 4 1-4 1-4 1v-2z"/></g><g fill="#000"><path d="M12 160s5 0 4 2-4 0-4 0v-2z"/></g><g fill="#000"><path d="M1 162s5-1 4 1-3 1-3 1l-1-2z"/></g><g fill="#000"><path d="M-6 162s5 0 4 1-4 1-4 1v-2z"/></g><g fill="#000"><path d="M35 152s7-1 6 1-5 1-5 1l-1-2z"/></g><g fill="#000"><path d="M46 147s6-3 5 2c0 2-5 1-5 1v-3z"/></g><g fill="#000"><path d="M55 144s7-3 5 2c0 3-4 1-4 1l-1-3z"/></g><g fill="#000"><path d="M64 139s5-5 6 2c0 3-5 1-5 1l-1-3z"/></g><g fill="#000"><path d="M27 156s5 0 4 1-4 1-4 1v-2z"/></g><g stroke-width="0.1" stroke="#000" fill="#FFF"><path d="M62 35s0 0 0-1C62 33 79 20 88 18c0 0-16 7-26 17z"/></g><g fill="#000"><path d="M65 98s22 23 32 26c0 0 9 12 5 38 0 0-3 7-7-14 0 0 4-25-8-9 0 0-8-10-2-9h4S81 115 64 100s1-2 1-2z"/></g><g stroke-width="0.1" stroke="#000" fill="#FFF"><path d="M7 137s0-2 2-1 96 7 127 31c0 0-45-23-129-30z"/></g><g stroke-width="0.1" stroke="#000" fill="#FFF"><path d="M17 133s0-2 2-1 138 0 162 32c0 0-22-25-164-31z"/></g><g stroke-width="0.1" stroke="#000" fill="#FFF"><path d="M29 129s0-2 2-1 175-12 198 20c0 0-9-26-200-19z"/></g><g stroke-width="0.1" stroke="#000" fill="#FFF"><path d="M39 124s0-2 2-1 124-38 147-5c0 0-13-25-149 6z"/></g><g stroke-width="0.1" stroke="#000" fill="#FFF"><path d="M-19 147s0-2 2-1 19 3 21 42c0 0-7-42-23-41z"/></g><g stroke-width="0.1" stroke="#000" fill="#FFF"><path d="M-28 148s0-1 2-1 16-3 13 35c0 0 1-35-15-34z"/></g><g stroke-width="0.1" stroke="#000" fill="#FFF"><path d="M-36 149s0-2 2-1 17 1 5 24c0 0 9-24-7-23z"/></g><g stroke-width="0.1" stroke="#000" fill="#FFF"><path d="M12 104s-1 2 1 1C29 93 61 34 117 28c0 0-39-12-105 76z"/></g><g stroke-width="0.1" stroke="#000" fill="#FFF"><path d="M23 103s-2-1 0-2S138 28 177 36c0 0-27-8-154 67z"/></g><g stroke-width="0.1" stroke="#000" fill="#FFF"><path d="M2 109s-1 1 1 0c9-5 13-62 56-63C59 46 27 31 2 109z"/></g><g stroke-width="0.1" stroke="#000" fill="#FFF"><path d="M-18 120s-1 1 1 1C-7 120 14 78 59 83c0 0-32-14-77 37z"/></g><g stroke-width="0.1" stroke="#000" fill="#FFF"><path d="M-7 114s-1 1 1 0C4 111 17 67 62 63c0 0-34-8-69 51z"/></g><g stroke-width="0.1" stroke="#000" fill="#FFF"><path d="M-25 125s-1 1 1 1c8-1 25-35 61-31 0 0-26-11-62 30z"/></g><g stroke-width="0.1" stroke="#000" fill="#FFF"><path d="M-33 131s-1 1 1 1c4-1 35-34 53-18 0 0-12-19-54 17z"/></g><g stroke-width="0.1" stroke="#000" fill="#FFF"><path d="M37 99s-1-1 1-2c2 0 122-58 160-45 0 0-26-11-161 47z"/></g><g stroke-width="0.1" stroke="#000" fill="#FFF"><path d="M3 163s0-2 2-1 17 2 5 24c0 0 9-24-7-23z"/></g><g stroke-width="0.1" stroke="#000" fill="#FFF"><path d="M14 162s0-2 1-1 20 3 22 41c0 0-7-42-23-40z"/></g><g stroke-width="0.1" stroke="#000" fill="#FFF"><path d="M21 160s-1-2 1-1 27 4 50 37c0 0-35-37-51-36z"/></g><g stroke-width="0.1" stroke="#000" fill="#FFF"><path d="M28 158s0-2 2-1 22-2 60 33c0 0-46-35-62-32z"/></g><g stroke-width="0.1" stroke="#000" fill="#FFF"><path d="M39 154s-1-2 1-2 37 5 88 40c0 0-74-42-90-38z"/></g><g stroke-width="0.1" stroke="#000" fill="#FFF"><path d="M-2 142s0-2 2-1 55 3 85 30c0 0-35-25-87-29z"/></g><g stroke-width="0.1" stroke="#000" fill="#FFF"><path d="M-12 146s0-2 2-1 26 4 50 37c0 0-36-37-52-36z"/></g><g stroke-width="0.1" stroke="#000" fill="#FFF"><path d="M50 149s-1-2 1-1 37 2 91 33c0 0-78-34-92-32z"/></g><g stroke-width="0.1" stroke="#000" fill="#FFF"><path d="M58 147s-1-2 1-2 37 3 91 34c0 0-77-35-92-32z"/></g><g stroke-width="0.1" stroke="#000" fill="#FFF"><path d="M68 142s-1-2 1-2 45 5 135 39c0 0-121-40-136-37z"/></g><g fill="#000"><path d="M-44 148s5 0 4 2-3 0-3 0l-1-2z"/></g><g fill="#000"><path d="M-13 162s5 0 4 2-4 0-4 0v-2z"/></g><g fill="#000"><path d="M-22 162s5 0 4 1-3 1-3 1l-1-2z"/></g><g fill="#000"><path d="M-117 150s5 2 3 3-4-1-4-1l1-2z"/></g><g fill="#000"><path d="M-115 141s5 1 3 2-4 0-4 0l1-2z"/></g><g fill="#000"><path d="M-122 136s5 2 3 3-4-1-4-1l1-2z"/></g><g fill="#CCC"><path d="M-43 211l-5 2c-2 0-13 4-19 14 0 0 12-10 24-16z"/></g><g fill="#CCC"><path d="M45 304q0 0 1 1l1-1q0-7-5-11-2 0-3 1 0 2 1 4 1 3 3 1l2 5z"/></g><g fill="#CCC"><path d="M34 309l2 3q2 1 2-1l-2-7v-1q-1-2-4-1-1 3 2 6l0 0z"/></g><g fill="#CCC"><path d="M-6 303q0 0 0-1l1-3s-1-1-2 0l-2 4q0 1 0 1s-1 2-1 3c0 0 0 10 0 10l4-12v-2z"/></g><g fill="#CCC"><path d="M-31 297q5-4 5-10-1-1-2 1-2 5-6 8c-2 2-4 9-4 9q6-7 7-8z"/></g><g fill="#CCC"><path d="M-45 291l1-2 2-4q0-1-1 0 0 0-1 0-2 4-4 8l-1 5s2-4 2-4l2-3z"/></g><g fill="#CCC"><path d="M-28 310l2-3s0-2-1-1c-1 0-4 2-5 8l4-4z"/></g><g fill="#CCC"><path d="M-14 293l2-1q1 0 2-1l2-7q-2 0-2 2l-4 1 0 0-3 2h-1l-2 2c-1 2-4 4-6 12 0 1 5-7 5-7l2 1q0 0 1 0 0-1 0 0 0-1 1-2l2-3 2 1z"/></g><g fill="#CCC"><path d="M46 347s8-20 3-31c0 0 12 21 7 33 0 0 0-11-4-16 0 0-4 13-6 14z"/></g><g fill="#CCC"><path d="M31 345s6-9-2-27c0 0-1 20-8 31 0 0 14-20 10-4z"/></g><g fill="#CCC"><path d="M21 343s0-20 1-23c0 0-4 16-14 26 0 0 14-12 13-3z"/></g><g fill="#CCC"><path d="M12 311s6 13-4 32c0 0 6-12 1-19q2 0 3-13z"/></g><g fill="#CCC"><path d="M-7 342s-1-15 0-17v-8c0 0 4-6 4 1 0 0 2 8 5 13 0 0 3 5 3 12 0 0-10-31-12-1z"/></g><g fill="#CCC"><path d="M-11 315s-7 11-8 30c0 0-2-7 2-21 0 0 4-15 6-9z"/></g><g fill="#CCC"><path d="M-33 335s5-6 7-11c0 0 3-16-3-7 0 0 0 8-8 15 0 0 5-2 4 3z"/></g><g fill="#CCC"><path d="M-39 330s4-18 5-19c0 0 1-3-1 0 0 0-9 19-13 26 0 0 8-9 9-7z"/></g><g fill="#CCC"><path d="M-44 313s11-22-11 3c0 0 11-9 11-3z"/></g><g fill="#CCC"><path d="M-60 298s5-18 8-18l1 1s-6 10-5 20c0 0-1-10-4-3z"/></g><g fill="#CCC"><path d="M270 287s-12-10-14-13c0 0 14 18 14 25 0 0 2-7 0-12z"/></g><g fill="#CCC"><path d="M276 265s-21-15-24-23c0 0 26 30 26 34 0 0 0-8-2-11z"/></g><g fill="#CCC"><path d="M293 111s-12-8-13-6c0 0 10 7 12 15 0 0-1-9 1-9z"/></g><g fill="#CCC"><path d="M302 192l-18-12s19 16 20 20l-2-8z"/></g><g stroke="#000"><path d="M-89 169l22 5"/></g><g stroke="#000"><path d="M-39 331s-1-3-9 7"/></g><g stroke="#000"><path d="M-34 336s2-6-4-2"/></g><g stroke="#000"><path d="M20 344s2-10-10 2"/></g></g></svg>