<svg xmlns="http://www.w3.org/2000/svg" xmlns:xlink="http://www.w3.org/1999/xlink" style="-ms-transform: rotate(360deg); -webkit-transform: rotate(360deg); transform: rotate(360deg);" preserveAspectRatio="xMidYMid meet" viewBox="0 0 1000 1000"><path d="M938 1191q-2 15-12 28-11 15-24 21l-22 5-570 4-183-3q-17 0-30-13l-21-26-7-26q0 5 2-22 2-22 2-28L70 586l-3-20 6-28 14-26q17-10 82-41l45-21q20-9 25-11 18-9 22-10l24-5q12 0 29 8 87 11 170 11 111 0 226-17l17-3 24 4 25 14 132 61q29 20 29 59l-3 123 2 404 1 103M777 936q-2-20-4-73-1-30-1-85l3-214-1-18 2-47-5-33q-18-26-49-26l-109 15q-60 5-113 5l-118-6-10 1q-17 0-44-7-29-7-40-7l-25 5-16 12-10 15-4 16 3 13 2 226-6 214q11 30 43 39 38 0 120 3 72 4 108 4l66-1h22q53 0 87-2 29-2 69-6 27-15 30-43m146 245-3-44-1-507-2-13q0-7 3-27 3-22 3-28l-4-26q-4-9-18-18L791 468l3 15q0 8-2 160-2 154-2 128l1 99 1 30 3 34-2 23-11 18 16 19 14 22 99 196q12-11 12-31m-22 43q-15-30-27-53-11-23-42-82-30-60-42-83l-19-24q-19 16-47 16l-214 6-116 233 285-1 79-1h50 22l42-3 25-6 5-2M267 1001h-17l-117 232 16 3 118-235m224 0h-64l-120 237h65l119-237m-112 1h-48l-119 235h45l121-235M473 846h-191v-56q16-19 42-53 26-34 40-51 40-50 40-81 0-17-4-23-5-8-19-8-18 0-24 13l-6 32h-64l-1-11q0-37 24-59 22-21 63-21 47 0 72 18 25 20 25 62 0 48-25 79-32 42-95 111h123v48m-124 0h-66 66" fill="currentColor"/></svg>