<svg xmlns="http://www.w3.org/2000/svg" xmlns:xlink="http://www.w3.org/1999/xlink" style="-ms-transform: rotate(360deg); -webkit-transform: rotate(360deg); transform: rotate(360deg);" preserveAspectRatio="xMidYMid meet" viewBox="0 0 1000 1000"><path d="M173 704c4-26 15-65 61-110q22-21 31-25 5-3 18-4l48 5 82 6q9 1 29-3l20-4q8-2 12 11 0 8-11 16l-13 15q-31 37-43 55c-45 68-60 131-67 160q-10 41-9 59c0 70 54 80 79 80l21-3c16-4 19-9 44-26q30-15 30-44l-1-23q-1-23 12-75c18-75 50-149 59-166l23-31c6-8 19-29 52-29 41 0 47 42 47 53q-2 23-3 30-14 53-42 103c-2 2-21 40-35 59l-18 22-20 28q-18 18-18 29c0 10 9 26 10 27 7 14 21 41 63 41q12 2 41-9 40-18 69-55l42-48q7-9 21-31 33-55 39-120 2-42-31-63-11-2-17-25l9-18q8-22 34-24 9-1 25 7 26 10 29 70c0 26-8 55-10 62-12 41-54 142-130 232-6 6-26 32-51 50q-25 17-52 24l-52 8c-6 0-45 0-64-24q-7-12-9-17l-7-14-10-12q-5 0-16 13l-30 25c-23 18-34 20-62 26q-15 4-22 4l-25-4c-15-1-41 2-68-26q-20-17-25-69 0-18 9-61c18-69 52-119 93-179l18-24 13-15q6-7 5-9-3-5-15-3l-52-2-51-5c-52 0-74 40-74 59q2 18 9 22c12 11 22 12 22 29q-2 30-30 32l-19-5q-23-8-17-57m378 104 1 34q0 10 4 12 6-1 14-14l32-42c36-49 47-77 54-102l7-44q0-29-24-32-15 1-27 11c-42 30-61 125-61 177" fill="currentColor"/></svg>