<svg xmlns="http://www.w3.org/2000/svg" xmlns:xlink="http://www.w3.org/1999/xlink" style="-ms-transform: rotate(360deg); -webkit-transform: rotate(360deg); transform: rotate(360deg);" preserveAspectRatio="xMidYMid meet" viewBox="0 0 1000 1000"><path d="M475 403q4-11 15-13l15-1 6-3q13-5 22 6l32 13q17 10 24 17l23 20q27 25 46 35 20 10 45 5 17-3 23-14 7-10 5-28l-12-39q-9-20-20-31C635 306 567 282 492 298q-52 11-98 47-47 36-81 91-22 38-29 83-7 46-7 112 0 146 44 228 52 98 178 129 106 26 173-22 44-30 67-78 23-47 21-98-1-51-18-99-17-47-55-85-38-38-88-53l-57-10q-32-2-57 4l-16 8q-18 8-29 7-22-2-31-18-6-9-4-22l1-6v-2q0-53 31-85 14-15 37-26M443 524h1l9-4q19-8 22-9 33-7 69-6 36 2 67 12 57 18 101 61 44 43 65 99 20 55 22 114 1 59-26 115-27 55-79 92-80 57-205 26C395 1001 328 952 288 877 255 817 240 735 240 631q0-45 1-73 2-29 12-70 10-41 29-72 36-61.5 90-102 52-40 113-53 63-12 125 7 62 20 116 76 15 15 27 40 12 26 15 51 4 31-9 53-15 26-50 32-25 4-51-5-25-8-38-18-12-9-34-28-16-15-25-22l-22-13-26-7q-33 14-47 29-20 21-20 58l-1 10m75 152q-20 19-24 49-2 17 4 24 6 6 22 3l7-9q5-12 4-30-2-24-13-37m26-28q20 22 25 62 2 27-6 47-12 28-37 33-38 7-57-17-16-19-13-52 5-44 36-72v-3l8-12 15-3 3 1h15l10 10 1 5" fill="currentColor"/></svg>