<svg xmlns="http://www.w3.org/2000/svg" xmlns:xlink="http://www.w3.org/1999/xlink" style="-ms-transform: rotate(360deg); -webkit-transform: rotate(360deg); transform: rotate(360deg);" preserveAspectRatio="xMidYMid meet" viewBox="0 0 1000 1000"><path d="M134 963l-2 29h30l28 1q27 0 28 1l48 8 61 13q44 9 71 15 27 6 38 8-19-36-30-57-18-35-18-63l0-31 2-37 2-40 3-39 54 93 189 92 13 8 13 8 29 14 32 11 69 12 83 4L829 905q-31-14-54-25l-85-38-46-21q-10-5-66-57-55-51-57-66 0-14 100-44l124-37q21-8 71-36 60-35 69-39l3-23q-54-1-94-3l-35-1h-30l-24 0-17 2-11 2-14 5-191 84L400 708c0-28 0-28 0-53l1-50q2-51 7-70 2-10 13-34 11-23 29-60 11-22 18-36 7-13 8-16L395 257 177 275l-1 25h4l35 97 57 47q0 74-3 116-3 43-7 60-1 8-11 31-10 23-30 60l-15 32-10 21 26 77q25 68 25 92 0 23-45 27-2 0-68 3" fill="currentColor"/></svg>