<svg xmlns="http://www.w3.org/2000/svg" viewBox="0 0 1000 1000"><path fill="currentColor" d="M515 508l30 17 13 7 12 9 9 9 17 23 4 12-3 11-3 12-3 11-3 12-6 24-3 22-3 24-3 22-1 12v34l1 29 2 29 4 29 5 29 6 29 7 29 9 29 11 28-278-2 5-4 4-6 3-6 5-6 6-12 4-7 2-7v-345l-5-2-6-3-4-4-6-4-6-3-5-4-6-3-6-3-1-1h-2l-3-2h-3v-1l-1-1 54-10s18-4 27-7l24-7 25-9 24-8 24-10 23-12zM490 292l17 15s12 10 18 14l18 13s12 8 19 12l20 11 21 10 48 15-21 9-42 21-21 11-9 6-11 5-18 12a112 112 0 00-16 12l-17 14-15-15a208 208 0 01-18-13l-37-24a96 96 0 01-20-11C398 406 390 402 383 399 378 398 375 396 372 394l-23-8C345 385 342 383 337 382l45-17 23-10 19-10 18-11 18-12 17-13 13-14z"/></svg>