<svg xmlns="http://www.w3.org/2000/svg" xmlns:xlink="http://www.w3.org/1999/xlink" style="-ms-transform: rotate(360deg); -webkit-transform: rotate(360deg); transform: rotate(360deg);" preserveAspectRatio="xMidYMid meet" viewBox="0 0 24 24"><path d="M15.98 14.5q.8.26 1.43.72.65.45 1.02 1.06.39.61.54 1.35.16.73-.01 1.55-.21 1.02-.89 1.94-.68.92-1.62 1.58-.95.68-2.12 1.07-1.18.4-2.43.4-1.25 0-2.24-.4C9 23.51 8.44 23.15 8 22.7q-.66-.66-.93-1.58-.29-.92-.06-1.94.16-.82.61-1.55.44-.73 1.1-1.35.66-.61 1.49-1.06.83-.47 1.77-.72-1.4-.51-2.1-1.62-.72-1.12-.4-2.56.19-.94.77-1.75.57-.82 1.45-1.43.88-.61 1.93-.97 1.06-.36 2.19-.36 1.12 0 2.01.36.89.36 1.5.97.61.61.88 1.43.26.81.07 1.75-.31 1.44-1.51 2.56-1.2 1.11-2.79 1.62M15.7 6.36q-.6 0-1.05.31-.44.32-.74.84l-.52 1.24-.38 1.52-.27 1.53q-.09.7-.01 1.23.09.53.39.84.3.31.9.31.62 0 1.15-.31.52-.32.93-.84.42-.53.71-1.23l.47-1.53.18-1.52q.01-.71-.18-1.24-.19-.53-.58-.84-.38-.31-1-.31M12.05 23.47q.69 0 1.28-.33.59-.34 1.06-.93.47-.58.8-1.38l.51-1.68q.18-.89.19-1.68 0-.79-.21-1.39-.2-.6-.64-.94-.45-.33-1.14-.33-.7 0-1.19.33-.49.34-.85.94-.36.6-.62 1.39l-.44 1.68-.25 1.68q-.09.79.01 1.38.09.58.44.93.35.33 1.05.33" fill="currentColor"/></svg>