<svg xmlns="http://www.w3.org/2000/svg" xmlns:xlink="http://www.w3.org/1999/xlink" style="-ms-transform: rotate(360deg); -webkit-transform: rotate(360deg); transform: rotate(360deg);" preserveAspectRatio="xMidYMid meet" viewBox="0 0 24 24"><path d="M3.2 23.1v.7h.7l1.3.1 1.2.2 3.2.6.9.2-.8-1.4L9.3 22v-.7l.1-.9v-1l.1-.9 1.3 2.2 4.5 2.2.4.2.3.2.7.4.7.2 1.7.3 2 .1-1.2-2.6-2.2-1-1.1-.5-1.1-.5q-.3-.1-1.6-1.4-1.4-1.2-1.4-1.6 0-.3 2.4-1l3-.9q.5-.2 1.7-.9 1.4-.8 1.6-.9l.1-.5-2.2-.1h-.9-.7-.6-.4l-.3.1-.3.1-4.6 2L9.6 17v-1.3-1.2l.2-1.7.3-.8.7-1.4.6-1.3L9.5 6.2l-5.3.4v.6h.1l.9 2.3 1.3 1.2v2.7l-.2 1.5-.3.7-.7 1.5-.4.7-.2.5.6 1.9q.6 1.6.6 2.2 0 .5-1.1.6 0 0-1.6.1" fill="currentColor"/></svg>