<?xml version="1.0" encoding="UTF-8" standalone="no"?><svg xmlns="http://www.w3.org/2000/svg" xmlns:serif="http://www.serif.com/" width="100%" height="100%" viewBox="0 0 144 144" version="1.1" xml:space="preserve" fill-rule="evenodd" clip-rule="evenodd" stroke-linecap="round" stroke-linejoin="round" stroke-miterlimit="1.5"><rect id="" serif:id="" x="0" y="0" width="144" height="144" fill="none"/><g><g><path d="M121 91.6c0 0-4.8-1.5-7.1.4q-2.9 3.7 1 3.5 3.4-1.3 5.9-.1c1.6.9 3.2-2.8.2-3.8z" fill="#d6c295" stroke="#000" stroke-width="1.01px"/><path d="M104.7 57.7c0 0-2.3-2.5-3.2 3.5" fill="none" stroke="#61e0ee" stroke-width="1.01px"/><path d="M102.7 55.2c0 0-2.9-1.6-2 4.3" fill="none" stroke="#61e0ee" stroke-width="1.01px"/><path d="M96.6 57.1c0 0 2.3-2.4 3.1 3.8" fill="none" stroke="#61e0ee" stroke-width="1.01px"/><path d="M113.2 115c0 0-.3-5-2.9-6.5q-4.6-1.3-3 2.3 2.5 2.7 2.3 5.4c-.3 1.8 3.8 2 3.6-1.2z" fill="#d6c295" stroke="#000" stroke-width="1.01px"/><path d="M88.2 117.1c0 0-2.6-4.3-1.3-7q2.9-3.7 3.7.1-.5 3.6 1.2 5.8c1.3 1.3-2 3.8-3.6 1.1z" fill="#d6c295" stroke="#000" stroke-width="1.01px"/><path d="M84.2 72.7q-.6-1-1.7-1.6c-5.7-2.3-3.7 4.3-.4 4" fill="#61e0ee"/><path d="M80.5 70l0 0h.1l0 0h.1l0 0h.1l0 0h.1.1.1l.1.1h.1.2.1l.1.1h.1.2l.1.1h.1l.1.1h.2l.1.1h.2v.1h.1.1v.1h.1l.1.1h.1l0 0 .1.1.1.1h.1v.1h.1l.1.1h.1v.1l.1.1h.1l.1.1v.1l.1.1h.1v.1l.1.1.1.1 0 0 0 0v.1h.1v.1l0 0v.1h.1v.1l0 0v.1l0 0h.1v.1l0 0 0 0v.1l0 0 0 0v.1l0 0v.1l0 0-.1.1v.1l0 0-.1.1 0 0-.1.1h-.1v.1h-.1-.1l0 0 0 0h-.1l0 0h-.1l0 0h-.1l0 0-.1-.1 0 0h-.1l-.1-.1 0 0v-.1l-.1-.1 0 0v-.1h-.1l0 0 0 0 0 0 0 0 0 0 0 0v-.1l0 0 0 0 0 0 0 0 0 0 0 0 0 0 0 0 0 0v-.1l0 0h-.1l0 0v-.1h-.1v-.1h-.1v-.1h-.1v-.1h-.1l-.1-.1 0 0-.1-.1 0 0-.1-.1 0 0 0 0h-.1l-.1-.1 0 0h-.1v-.1l0 0h-.1l0 0 0 0 0 0-.2-.1h-.1l-.1-.1h-.1-.1l-.1-.1h-.1-.1l-.1-.1h-.1-.1-.1-.1l0 0-.1-.1 0 0h-.1l0 0 0 0h-.1l0 0h-.1l0 0 0 0h-.1l0 0 0 0 0 0h-.1l0 0 0 0h-.1l0 0 0 0 0 0h-.1l0 0 0 0v.1l0 0h-.1l0 0 0 0 0 0h-.1l0 0 0 0 0 0 0 0 0 0h-.1l0 0v.1l0 0 0 0 0 0 0 0h-.1l0 0 0 0 0 0v.1l0 0 0 0 0 0 0 0 0 0 0 0h-.1v.1l0 0 0 0 0 0 0 0 0 0 0 0 0 0v.1l0 0 0 0 0 0 0 0 0 0 0 0v.1l0 0 0 0 0 0 0 0 0 0v.1l0 0 0 0 0 0 0 0v.1l0 0 0 0 0 0 0 0 0 0v.1l0 0 0 0 0 0v.1l0 0 0 0 0 0 0 0v.1l0 0 0 0v.1l0 0h.1v.1l0 0 0 0v.1l0 0v.1h.1v.1l0 0v.1h.1v.1l0 0 .1.1 0 0v.1h.1v.1l0 0 .1.1 0 0v.1h.1v.1h.1v.1l0 0h.1v.1h.1v.1h.1l0 0 .1.1 0 0h.1v.1h.1l0 0h.1v.1h.1l0 0h.1l0 0 .1.1 0 0 0 0h.1l0 0 0 0h.1l0 0 0 0 0 0h.1l0 0 0 0 0 0h.1l0 0 0 0v.1h.1l0 0 0 0h.1l0 0 0 0v-.1h.1l0 0h.1l0 0 .1.1 0 0h.1l0 0 .1.1h.1v.1h.1v.1.1h.1v.1l0 0v.1l0 0 0 0v.1l0 0v.1.1h-.1v.1l-.1.1 0 0-.1.1 0 0h-.1l-.1.1h-.1l0 0 0 0h-.1l0 0h-.1l0 0h-.1l0 0h-.1l0 0h-.1l0 0 0 0h-.1-.1l0 0-.1-.1h-.1-.1-.1-.1l0 0-.1-.1h-.1-.1v-.1h-.1-.1l-.1-.1h-.1l-.1-.1 0 0-.1-.1h-.1v-.1h-.1l-.1-.1 0 0h-.1l-.1-.1v-.1h-.1v-.1l-.1-.1h-.1v-.1h-.1v-.1l-.1-.1 0 0-.1-.1 0 0v-.1h-.1v-.1l-.1-.1v-.1h-.1v-.1l-.1-.1v-.1l0 0-.1-.1v-.1-.1h-.1v-.1-.1-.1h-.1v-.1-.1-.1l0 0v-.1l0 0v-.1h-.1l0 0v-.1l0 0v-.1l0 0 0 0v-.1l0 0v-.1l0 0 0 0v-.1l0 0v-.1l0 0v-.1l0 0 0 0 .1-.1 0 0v-.1-.1-.1l.1-.1 0 0v-.1l.1-.1v-.1l0 0 .1-.1v-.1h.1v-.1h.1l.1-.1v-.1h.1l.1-.1 0 0 .1-.1h.1.1l.1-.1h.1l0 0 .1-.1h.1.1.1l0 0h.1l0 0h.1l0 0h.1l0 0h.1l0 0h.1z"/><path d="M115.2 68.4q.8.2 1.5-.4c4.9-3.8-1.8-5.3-3.2-2.3" fill="#61e0ee"/><path d="M116.4 63.4l0 0h.1l0 0h.1l0 0 0 0h.1l0 0h.1l0 0 0 0h.1l.1.1 0 0h.1l0 0h.1.1l.1.1 0 0h.1.1.1v.1h.1.1l.1.1 0 0h.1l.1.1 0 0 .1.1h.1v.1h.1v.1h.1l.1.1v.1h.1v.1h.1v.1.1l.1.1 0 0v.1l.1.1v.1.1l0 0v.1l0 0v.1l0 0v.1l0 0v.1l0 0v.1l0 0 0 0v.1l0 0v.1.1.1l-.1.1v.1.1l-.1.1 0 0v.1l-.1.1v.1l-.1.1-.1.1v.1l-.1.1h-.1v.1l-.1.1-.1.1-.1.1v.1l-.1.1-.1.1-.1.1-.1.1h-.1l-.1.1-.1.1-.2.1-.1.1-.1.1-.1.1 0 0h-.1v.1h-.1l0 0-.1.1 0 0h-.1l-.1.1 0 0h-.1-.1v.1h-.1-.1l0 0h-.1l0 0h-.1v.1h-.1l0 0 0 0h-.1l0 0h-.1l0 0 0 0h-.1l0 0h-.1l-.1-.1 0 0h-.1l0 0h-.1l0 0 0 0-.1-.1h-.1l0 0-.1-.1 0 0-.1-.1v-.1l0 0v-.1h-.1v-.1l0 0 0 0v-.1l0 0v-.1l0 0 .1-.1 0 0v-.1l.1-.1 0 0 .1-.1 0 0h.1v-.1h.1.1l0 0h.1l0 0 0 0h.1l0 0h.1l0 0 0 0h.1l0 0 0 0 0 0 0 0 0 0 0 0 0 0 0 0 0 0 0 0 0 0 0 0 0 0 0 0h.1l0 0 0 0 0 0 0 0 0 0 0 0 0 0 0 0h.1l0 0 0 0 0 0 0 0 0 0 0 0 0 0h.1l0 0 0 0 0 0v-.1l0 0h.1l0 0 0 0 0 0h.1l0 0v-.1h.1l0 0 0 0 .1-.1h.1v-.1l.2-.1h.1v-.1l.1-.1.1-.1.1-.1h.1l.1-.1v-.1h.1l.1-.1v-.1l.1-.1 0 0 .1-.1 0 0v-.1l.1-.1 0 0v-.1h.1v-.1l0 0v-.1l0 0h.1l0 0v-.1l0 0 0 0 0 0 0 0v-.1l0 0 0 0 0 0 0 0 0 0 0 0v-.1l0 0 0 0 0 0 0 0 0 0 0 0 0 0v-.1l0 0 0 0 0 0 0 0 0 0 0 0 0 0 0 0 0 0v-.1l0 0 0 0h-.1l0 0 0 0 0 0 0 0 0 0v-.1l0 0 0 0 0 0h-.1l0 0v-.1l0 0 0 0h-.1l0 0v-.1h-.1l0 0 0 0h-.1l0 0v-.1h-.1l0 0 0 0h-.1l0 0 0 0h-.1v-.1l0 0h-.1l0 0 0 0h-.1l0 0 0 0 0 0h-.1l0 0 0 0 0 0h-.1l0 0 0 0h-.1l0 0 0 0 0 0h-.1l0 0 0 0h-.1l0 0 0 0 0 0h-.1l0 0 0 0h-.1l0 0 0 0 0 0h-.1l0 0 0 0h-.1l0 0 0 0 0 0h-.1l0 0h-.1l0 0 0 0h-.1v.1l0 0h-.1l0 0h-.1l0 0-.1.1h-.1l0 0h-.1l0 0-.1.1 0 0h-.1l0 0-.1.1 0 0h-.1v.1h-.1l0 0v.1h-.1v.1h-.1l0 0v.1h-.1v.1l0 0h-.1v.1l0 0-.1.1 0 0v.1l-.1.1 0 0v.1h-.1l-.1.1 0 0h-.1-.1v.1h-.1l0 0 0 0h-.1l0 0 0 0h-.1v-.1h-.1-.1v-.1h-.1v-.1h-.1v-.1-.1h-.1v-.1l0 0v-.1l0 0v-.1l0 0 0 0v-.1l.1-.1 0 0v-.1l.1-.1v-.1l.1-.1v-.1h.1l.1-.1v-.1l.1-.1 0 0 .1-.1.1-.1 0 0 .1-.1h.1l.1-.1 0 0 .1-.1h.1v-.1h.1l.1-.1h.1l.1-.1 0 0h.1l.1-.1h.1.1l.1-.1 0 0h.1.1l.1-.1h.1l0 0h.1l0 0h.1l0 0h.1.1l0 0 0 0 .1-.1 0 0h.1l0 0h.1l0 0 0 0h.1l0 0h.1l0 0h.1l0 0z"/><path d="M114.9 108.3c0 0 2.5-5 2.1-9.3-1.5-13.3 2.4-16 .9-24.1q-.8-4.6-3.3-8.4c-3.8-5.2-11.1-7.9-17.4-6.7q-3.7.9-7.1 2.8c-7.9 4.2-9.5 13-8.5 20.5.5 3.3 3.3 8.4 2.9 11.7q-1.5 9.4 1.5 15.1 3.9 6.3 16.8 5.8c1.3-.1 9.3-1.5 12.1-7.4z" fill="#61e0ee"/><g clip-path="url(#_clip1)" fill="#4fcbe0"><path d="M86.7 65.9c0 0-2.6 3.4-1.9 8.8 1.1 8 4.4 6.3 4.2 20.8q-1.1 10.1 2.7 15.9c3.1 4.2 11.9 4.2 14.1 3.6s-8.8 2.3-15.1-.3S83.5 101.5 84.3 94.8 79.8 86.1 81.6 74.6c2.8-6.8 2.9-6.4 5.1-8.7z"/><path d="M97.3 75.8c0 0-.8 3.9-5.5 3.7s-5-5-5-5l10.5 1.3z"/><path d="M117.2 73.8c0 0-.7 3.9-5.4 3.7s-5-5-5-5l10.4 1.3z"/></g><path d="M100.4 58.9h.1l0 0h.1.1.1l0 0h.1.1.1.1l0 0h.1.1.1.1l0 0h.2.1.1l.1.1h.1.1.2.2.1l.2.1h.1.2.2l.1.1h.2.1l.2.1h.1.2l.2.1h.1.2l.1.1h.2l.1.1h.2.1l.2.1h.1l.2.1h.1l.2.1h.1l.2.1h.2l.1.1h.2l.1.1.2.1h.1l.2.1.1.1h.1l.2.1.1.1h.2l.1.1.2.1h.1l.2.1.1.1h.1l.2.1.1.1.2.1.1.1h.1l.2.1.1.1.1.1.2.1h.1l.1.1.2.1.1.1.1.1.2.1.1.1.1.1.2.1.1.1.1.1.1.1.1.1.2.1.1.1.1.1.1.1.2.1.1.1.1.1.1.1.1.1.1.1.1.1.2.1.1.1.1.2.1.1.1.1.1.1.1.1.1.1.1.2.1.1.1.1.1.1.1.1.1.2.1.1.1.1v.1l.1.2.1.1.1.1.1.1.1.1v.2l.1.1.1.1.1.1v.2l.1.1.1.1v.2l.1.1.1.1v.2l.1.1.1.1v.2l.1.1.1.1v.2l.1.1v.1l.1.2v.1l.1.2.1.1v.1l.1.2v.1l.1.2v.1l.1.1v.2l.1.1v.2l.1.1v.2.1l.1.1v.2l.1.1v.2.1l.1.1v.2l.1.2v.3l.1.3.1.2v.3l.1.3.1.3v.2.2l.1.2v.2.2l.1.2v.2.2.2l.1.1v.2.2.1.2.1.1.1l.1.1v.1.1.1l0 0v.1.1.1.1.1l0 0v.1.1.1.1.1l0 0v.1.1.1.1l0 0v.1.1.1.1l0 0v.1l-.1.1v.1.1l0 0v.1.1.1l0 0v.2.1.1.1.1.1l-.1.1v.2.1.2.1l-.1.2v.3l-.1.3v.3l-.1.3v.3l-.1.3-.1.5-.1.6-.1.5v.3l-.1.3v.3l-.1.4v.3l-.1.3v.4l-.1.3v.1.2.2l-.1.2v.2.1.2.2l-.1.2v.2.2.1.2.1.1.2l-.1.1v.1.1.1.1.1.1.2.1.1.1.1.1.1.1.1.1.2.1.1.1.1.1.2.1.1.1.1.2.1.1.1.2.1.1.1.2.1.1.2.2.2l.1.2v.3.1.3.3.3l.1.3v.3.3l.1.3v.3.3l0 0v.1l0 0v.1l0 0v.1l.1.1 0 0v.1l0 0v.1l0 0v.1l0 0v.1l0 0v.1.1l0 0v.1l0 0v.1l0 0v.1l0 0v.1l0 0v.1l0 0v.1.1l0 0v.1l0 0v.1l0 0v.1l0 0-.1.1 0 0v.1l0 0v.1.1l0 0v.1l0 0v.1.1.2l-.1.2v.2.2l-.1.2v.2.2l-.1.2v.2l-.1.2v.2l-.1.2v.2l-.1.2v.2l-.1.2v.2l-.1.1v.2l-.1.2v.2l-.1.1-.1.2v.1l-.1.2v.1l-.1.2v.1l-.1.2v.1l-.1.2-.1.2-.1.2-.1.2-.1.2v.2l-.1.1v.1l-.1.1 0 0-.1.2v.1l-.1.1-.1.2-.1.1-.1.2v.1l-.1.1-.1.2-.1.1-.1.1-.1.1-.1.2-.1.1-.1.1-.1.1-.1.2-.1.1-.1.1-.1.1-.1.1-.1.1-.1.1-.1.1-.1.1-.1.2-.1.1-.1.1-.1.1-.1.1h-.2l-.1.1-.1.1-.1.1-.1.1-.1.1-.2.1-.1.1-.1.1-.1.1h-.1l-.2.1-.1.1-.1.1h-.1l-.1.1-.2.1-.1.1h-.1l-.1.1-.2.1-.1.1h-.1l-.1.1h-.2l-.1.1-.1.1h-.1l-.1.1-.2.1h-.1l-.1.1h-.1l-.2.1h-.1l-.1.1h-.1l-.1.1h-.1-.1l-.1.1h-.2l-.1.1-.3.1-.2.1-.2.1h-.3l-.2.1-.2.1h-.2l-.2.1h-.2l-.2.1h-.2l-.2.1h-.2l-.2.1h-.1l-.2.1h-.2-.1-.1l-.2.1h-.1-.1-.1-.1l0 0h-.1-.1v.1h-.1l0 0 0 0h-.2-.2-.1-.1-.2l-.1.1h-.1-.1-.1-.1-.1l0 0h-.1-.1-.1-.1-.1-.1-.1-.1-.1-.1-.1-.1l0 0h-.1-.1-.1-.1-.1-.1-.1-.1-.1-.1l0 0h-.1-.1-.1-.1-.1-.1-.1-.1-.1-.1l-.1-.1h-.1-.2-.1-.1-.1-.2-.2l-.2-.1h-.1-.2-.2l-.1-.1h-.2-.2-.1l-.2-.1h-.2-.1l-.2-.1h-.2-.1l-.2-.1h-.2-.1l-.2-.1h-.1-.2l-.2-.1h-.1l-.2-.1h-.1l-.2-.1h-.1l-.2-.1h-.1l-.2-.1h-.1l-.2-.1h-.1l-.2-.1h-.1l-.2-.1h-.1l-.1-.1h-.2l-.1-.1-.2-.1h-.1l-.1-.1h-.2l-.1-.1-.1-.1h-.2l-.1-.1h-.1l-.1-.1-.2-.1h-.1l-.1-.1-.1-.1h-.2l-.1-.1-.1-.1-.1-.1h-.1l-.1-.1-.2-.1-.1-.1h-.1l-.1-.1-.1-.1-.1-.1h-.1l-.1-.1-.1-.1-.1-.1-.1-.1h-.1l-.1-.1-.1-.1-.1-.1-.1-.1v-.1l-.1-.1h-.1l-.1-.1-.1-.1-.1-.1v-.1l-.1-.1-.1-.1-.1-.1v-.1l-.1-.1-.1-.1 0 0-.1-.1-.1-.1v-.1l-.1-.1v-.1l-.1-.1v-.1l-.1-.1-.1-.2-.1-.3-.1-.2-.1-.2-.1-.2-.1-.2v-.2l-.1-.2-.1-.2-.1-.2-.1-.2v-.3l-.1-.2-.1-.2v-.2l-.1-.2-.1-.2v-.2l-.1-.2v-.2l-.1-.3v-.2l-.1-.2v-.2-.2l-.1-.2v-.3-.2l-.1-.2v-.2-.2l-.1-.3v-.2-.1-.1-.3-.1-.1-.2-.2-.1-.1-.1-.1l-.1-.2v-.1-.1-.1-.1-.2-.1-.1l.1-.1v-.2-.1-.1-.2-.1-.1-.1-.3-.1-.3-.3-.1l.1-.3v-.3-.3-.3l.1-.3v-.2-.3l.1-.4v-.3-.3l.1-.3v-.3-.2l0 0v-.1l0 0 0 0v-.1l0 0 0 0v-.1l0 0 0 0 .1-.1 0 0v-.1l0 0 0 0v-.1l0 0 0 0v-.1l0 0v-.1h-.1l0 0v-.1l0 0 0 0v-.1l0 0v-.1l0 0 0 0v-.1l0 0v-.1l0 0 0 0v-.1l0 0v-.1l0 0v-.1l0 0 0 0v-.1l0 0-.1-.1v-.1-.1-.2-.1l-.1-.2v-.2l-.1-.2v-.2l-.1-.1v-.2l-.1-.2v-.2l-.1-.2v-.2l-.1-.2v-.2l-.1-.2-.1-.2v-.2l-.1-.2-.1-.3-.2-.4-.2-.6-.2-.6v-.2L82 87l-.1-.4-.1-.3-.1-.2v-.1l-.1-.2-.1-.2v-.2l-.1-.2v-.2l-.1-.2v-.2l-.1-.1v-.2l-.1-.2v-.2l-.1-.1v-.2-.1-.2-.1l0 0-.1-.1v-.2-.2-.2-.1l-.1-.2v-.1-.1-.1-.1-.2-.2l0 0-.1-.2v-.1-.1-.1-.1-.1-.1-.1-.1-.1l0 0v-.1-.1-.1-.1-.1-.1-.1-.1-.1-.1-.1-.1-.1l0 0v-.1-.1-.1-.1-.1-.1-.1-.1-.1-.1-.1-.1-.1-.1l0 0v-.1-.1-.1l.1-.2v-.1-.2-.2-.1-.1-.2-.1l.1-.2v-.2-.2-.2l.1-.2v-.2-.1l.1-.2v-.2-.2l.1-.2v-.2l.1-.1v-.2-.2l.1-.2v-.2l.1-.2v-.1l.1-.2v-.2l.1-.2v-.2l.1-.1.1-.2v-.2l.1-.2.1-.1v-.2l.1-.2v-.2l.1-.1.1-.2.1-.2v-.2l.1-.1.1-.2.1-.2.1-.1.1-.2v-.2l.1-.1.1-.2.1-.2.1-.1.1-.2.1-.2.1-.1.1-.2.1-.1.1-.2.1-.2.2-.1.1-.2.1-.1.1-.2.1-.1.1-.2.2-.1.1-.2.1-.1.2-.2.1-.1.1-.2.2-.1.1-.1.1-.2.2-.1.1-.1.2-.2.1-.1.2-.1.1-.2.2-.1.1-.1.2-.2.2-.1.1-.1.2-.1.2-.1.1-.2.2-.1.2-.1.2-.1.2-.1.1-.1.2-.1.2-.1.2-.1.3-.2.2-.1.2-.1.2-.1.3-.1.2-.2.2-.1.2-.1.2-.1.3-.1.2-.1.2-.1.2-.1.2-.1.3-.1.2-.1.2-.1.2-.1h.3l.2-.1.2-.1.3-.1h.1l.1-.1h.1.1l.1-.1h.2l.1-.1h.1.1l.2-.1h.1.1l.1-.1h.1.2.1l.1-.1h.1.1.2l.1-.1h.2.1.2l.2-.1h.1.2l0 0h.2l.2-.1 0 0h.1.2l0 0h.1.1.1.1l0 0h.1.1.1.1l0 0h.1.1.1.1l0 0h.1.1.1zm-.2 1.3h-.1l0 0h-.1-.1l0 0h-.1-.1-.1l0 0h-.1-.1-.1l0 0h-.1-.1l-.1.1h-.1-.1l0 0h-.2-.1l0 0h-.2l-.1.1h-.2-.1-.1-.2l-.1.1h-.2-.1-.1l-.1.1h-.1-.1-.1l-.2.1h-.1-.1l-.1.1h-.1-.1-.1l-.1.1h-.1-.2l-.1.1h-.1l-.1.1h-.1l-.2.1h-.2l-.2.1-.3.1-.2.1-.2.1-.2.1-.2.1-.2.1h-.2l-.2.1-.3.1-.2.1-.2.1-.2.2-.2.1-.2.1-.2.1-.2.1-.2.1-.3.1-.3.2-.1.1-.2.1-.2.1-.1.1-.2.1-.2.1-.1.1-.2.1-.2.1-.1.1-.2.1-.1.1-.2.1-.1.1-.2.2-.1.1-.1.1-.2.1-.1.1-.1.2-.2.1-.1.1-.1.1-.2.2-.1.1-.1.1-.1.2-.2.1-.1.1-.1.2-.1.1-.1.1-.1.2-.1.1-.1.1-.1.2-.1.1-.1.2-.1.1-.1.2-.1.1-.1.2-.1.1-.1.2-.1.1-.1.2-.1.1-.1.2v.1l-.1.2-.1.1-.1.2v.1l-.1.2-.1.2-.1.1v.2l-.1.1-.1.2v.2l-.1.1v.2l-.1.2-.1.1v.2l-.1.2v.1l-.1.2v.2l-.1.1v.2l-.1.2v.1l-.1.2v.2.2l-.1.1v.2.2l-.1.2v.1.2l-.1.2v.1.2.2l-.1.2v.2.1.2l-.1.2v.1.1.2.1.2.1.1.1.1.1.1L82 78v.1.1.1.1l0 0v.1.1.1.1.1.1.1l0 0v.1.1.1.1.1.1.1.1l0 0v.1.1.1.1l.1.1v.1.1l0 0v.1.1.1.2.1.1.1.2.1.1l.1.2v.1.2.2.1l.1.2v.2l0 0v.1l0 0v.2l.1.1v.2.1l.1.2v.2.1l.1.2v.2l.1.1v.2l.1.2v.2l.1.1.1.2v.2l.1.2.1.4.1.4.2.3.2.8.2.4.1.4.1.3.1.2.1.2v.2l.1.2v.2l.1.2.1.2v.2l.1.2v.2l.1.2v.2l.1.2v.2l.1.2v.2.2l.1.2 0 0v.1.1l0 0v.1.1.1l0 0 .1.1 0 0v.1l0 0 0 0v.1l0 0v.1l0 0v.1l0 0v.1l0 0v.1l0 0v.1l0 0v.1l0 0 0 0v.1l0 0v.1l0 0v.1l0 0v.1l0 0v.1l0 0 0 0v.1l0 0v.1l0 0v.1l0 0v.1l0 0-.1.3v.3l-.1.3v.3.3.3l-.1.3v.3.3l-.1.3v.3.2.3.3.1.1l-.1.3v.1.1.2.1.1.1.2.1.1.1.1.2.1.1.1.1.1.2.1.1.1.1.1.2.2l.1.2v.1.1.2.2.2l.1.2v.2.2l.1.2v.2.3l.1.2v.2l.1.1v.2.2l.1.2v.2l.1.2.1.2v.2l.1.2v.2l.1.2.1.2.1.2v.2l.1.2.1.2.1.2.1.2v.2l.1.2.1.2.1.2.1.1 0 0v.1l.1.1v.1h.1v.1l.1.1v.1l.1.1 0 0 .1.1.1.1v.1h.1l.1.1v.1l.1.1h.1v.1l.1.1h.1l.1.1v.1l.1.1h.1l.1.1.1.1.1.1 0 0 .1.1.1.1h.1l.1.1.1.1h.1l.1.1.1.1h.1l.1.1.1.1h.1l.1.1.1.1h.2l.1.1h.1l.1.1.1.1h.1l.1.1h.2l.1.1.1.1h.1l.2.1h.1l.1.1h.1l.2.1h.1l.1.1h.2l.1.1h.1l.2.1h.1l.1.1h.2l.1.1h.2.1l.2.1h.1l.2.1h.1l.1.1h.2.1l.2.1h.1.2l.2.1h.1.2l.1.1h.2.1.2l.1.1h.2.2.1l.2.1h.2.1.2.1.1l.2.1h.1.1.1.1.2.1l0 0h.1.1.1.1.1.1v.1h.1.1.1.1.1.1l0 0h.1.1.1.1.1.1l0 0h.1.1.1.1.1.1.1l0 0h.1l.1-.1h.1.1.1.1.1l0 0h.1.1.1.2.1.1.1l.2-.1 0 0h.1l0 0 0 0h.1l0 0h.1.1.1.1l.1-.1h.1.2.1l.1-.1h.2.2l.1-.1h.2l.2-.1h.2l.1-.1h.2l.2-.1h.2l.2-.1.2-.1h.3l.2-.1.2-.1.2-.1h.2l.1-.1h.1.1l.1-.1h.1l.1-.1h.2l.1-.1h.1l.1-.1h.1l.1-.1h.1l.2-.1.1-.1h.1l.1-.1h.1l.1-.1.1-.1h.2l.1-.1.1-.1h.1l.1-.1.1-.1h.1l.1-.1.1-.1h.2l.1-.1.1-.1.1-.1h.1l.1-.1.1-.1.1-.1.1-.1.1-.1h.1l.1-.1.1-.1.1-.1.1-.1.1-.1.1-.1.1-.1.1-.1.1-.1.1-.1.1-.1.1-.1.1-.1.1-.1.1-.1v-.1l.1-.1.1-.1.1-.1.1-.1.1-.1v-.1l.1-.1.1-.2.1-.1v-.1l.1-.1.1-.1v-.2l.1-.1.1-.1v-.1l.1-.1v-.1l.1-.1v-.1l.1-.2.1-.2.1-.2.1-.2v-.2l.1-.1v-.2l.1-.1v-.1l.1-.2v-.1l.1-.2v-.1l.1-.2v-.1l.1-.2v-.2l.1-.1v-.2l.1-.2v-.2l.1-.1v-.2l.1-.2v-.2l.1-.2v-.1l.1-.2v-.2-.2l.1-.2v-.2-.2-.2l.1-.2 0 0v-.1l0 0v-.1l0 0v-.1l0 0v-.1l0 0v-.1l0 0v-.1l0 0v-.1l0 0v-.1l0 0 0 0v-.1l0 0v-.1l0 0v-.1l0 0v-.1l0 0v-.1l0 0v-.1l0 0v-.1l0 0v-.1l0 0v-.1l0 0v-.1l0 0v-.1l0 0 0 0v-.1l0 0v-.1l0 0v-.1l0 0v-.1l0 0v-.2l-.1-.3v-.4-.3l-.1-.3v-.3-.3-.2-.3l-.1-.3v-.2-.1-.3-.1-.1-.3-.1-.2-.1-.1-.2-.1l-.1-.1v-.2-.1-.1-.1-.2-.1-.1-.1-.2-.1-.1-.1-.1-.2-.1-.1l.1-.1v-.1-.1-.2-.1-.1-.1-.1-.1-.1-.1-.1-.3-.1-.2-.1l.1-.2v-.1-.1-.2-.2-.2-.2l.1-.2v-.2-.2-.2l.1-.2v-.2-.1-.2l.1-.4v-.3l.1-.4v-.3l.1-.3v-.4l.1-.3.1-.3.1-.6.1-.6v-.3l.1-.3v-.3l.1-.3v-.3l.1-.3v-.3-.1l.1-.2v-.1-.1-.1-.2-.1l0 0 .1-.2 0 0v-.1-.1-.1-.1-.1-.1l0 0v-.1-.1-.1l0 0v-.1-.1l0 0v-.1-.1-.1l0 0v-.1-.1-.1-.1l0 0v-.1-.1-.1l0 0v-.1-.1-.1l0 0v-.1-.1-.1-.1l0 0v-.1-.1-.1-.1l0 0v-.1-.2-.1-.1l-.1-.2v-.2-.1-.2l-.1-.2v-.2-.2-.1l-.1-.2v-.2l-.1-.3v-.2l-.1-.3v-.3l-.1-.2v-.3l-.1-.3-.1-.2v-.1-.1l-.1-.2v-.1l-.1-.1v-.2-.1l-.1-.1v-.2l-.1-.1v-.2l-.1-.1v-.1-.2l-.1-.1v-.1l-.1-.2v-.1l-.1-.1v-.1l-.1-.2v-.1l-.1-.1-.1-.2v-.1l-.1-.1v-.1l-.1-.2v-.1l-.1-.1-.1-.1v-.2l-.1-.1v-.1l-.1-.1-.1-.1v-.2l-.1-.1-.1-.1v-.1l-.1-.1-.1-.1v-.2l-.1-.1-.1-.1-.1-.1v-.1l-.1-.1h-.1v-.1l-.1-.1-.1-.1-.1-.2-.1-.1v-.1l-.1-.1-.1-.1-.1-.1-.1-.1-.1-.1-.1-.1-.1-.1-.1-.1-.1-.1-.1-.1-.1-.1-.1-.1-.1-.1-.1-.1-.1-.1-.1-.1-.1-.1-.2-.1-.1-.1-.1-.1-.1-.1-.1-.1-.1-.1-.1-.1h-.2l-.1-.1-.1-.1-.1-.1-.1-.1-.2-.1-.1-.1h-.1l-.1-.1-.2-.1-.1-.1-.1-.1h-.1l-.2-.1-.1-.1-.1-.1h-.1l-.2-.1-.1-.1h-.1l-.2-.1-.1-.1h-.1L108 62l-.1-.1h-.1l-.2-.1h-.1l-.1-.1-.2-.1h-.1l-.1-.1h-.2l-.1-.1h-.2l-.1-.1h-.1l-.2-.1h-.1l-.2-.1h-.1l-.1-.1h-.2l-.1-.1h-.2-.1l-.2-.1h-.1l-.2-.1h-.1-.1l-.2-.1h-.1-.2l-.1-.1h-.2-.1-.2l-.1-.1h-.2-.1-.2-.1l-.1-.1h-.1-.1-.1-.1-.2l0 0h-.2-.1l0 0h-.1l-.1-.1h-.1l0 0h-.1-.1l0 0h-.1-.1-.1l0 0h-.1-.1-.1l0 0h-.1-.1z"/><path d="M96 112.5c13.4 3.1 15.7-4.6 16.2-6.3q1.4-6.3.5-12.7-.4-1.8-1.7-3.3c-1.9-2.1-10.4-2.3-13.6-1.8l-3.5 1.1c-4 1.7-5.4 21.3 2.2 23z" fill="#b7f8ff"/><circle cx="115.6" cy="79.6" r="0.6" fill="#b7f8ff"/><circle cx="87.8" cy="81.8" r="0.6" fill="#b7f8ff"/><path d="M78.5 90.7c0 0 2.7 4.2 5.7 4.1q4.7-1 1.5-3.4Q82.2 90.3 81 87.8c-.6-1.7-4.2.2-2.5 2.9z" fill="#d6c295" stroke="#000" stroke-width="1.01px"/><g><g><path d="M105.3 81.5q-.1 1.6-.5 3l-1.1.4q-2.1.2-2-2.3" fill="#ededed"/><path d="M105.3 81l0 0 0 0h.1l0 0h.1l0 0 .1.1 0 0h.1v.1l0 0v.1h.1v.1l0 0 0 0 0 0v.1l0 0 0 0 0 0v.1l0 0-.1.1 0 0 0 0v.1l0 0v.1l0 0v.1l0 0 0 0v.2.1.4l-.1.2v.1l0 0v.1.1l0 0v.1.1l0 0v.1.1l-.1.1v.1.1.1l-.1.1v.1.1l0 0 0 0v.1l-.1.1 0 0 0 0v.1l0 0-.1.1 0 0v.1l0 0-.1.1v.1h-.1l0 0-.1.1 0 0-.1.1 0 0h-.1l0 0-.1.1 0 0h-.1l0 0 0 0h-.1l0 0 0 0-.1.1 0 0 0 0 0 0h-.1l0 0h-.1-.1l0 0h-.1l0 0 0 0h-.1l0 0-.1.1 0 0h-.1l0 0h-.1l0 0h-.1l0 0 0 0h-.1l0 0h-.1l0 0h-.1l0 0 0 0h-.1l0 0h-.1l0 0 0 0-.1-.1 0 0 0 0h-.1l0 0h-.1-.1l0 0-.1-.1h-.1l0 0-.1-.1h-.1l0 0-.1-.1 0 0-.1-.1 0 0-.1-.1 0 0v-.1h-.1v-.1l0 0-.1-.1 0 0v-.1-.1l0 0 0 0-.1-.1v-.1l0 0 0 0v-.1l0 0 0 0-.1-.1v-.2-.1-.2l-.1-.2v-.1-.1l-.1-.2v-.1-.1l0 0v-.1l0 0 0 0 0 0v-.1l0 0 0 0 0 0v-.1l0 0 .1-.1 0 0v-.1l0 0h.1v-.1h.1l0 0h.1l0 0 0 0h.1l0 0 0 0 0 0h.1l0 0 0 0h.1l0 0h.1v.1l0 0 .1.1 0 0 0 0 .1.1 0 0v.1.2l.1.2v.1.1l.1.2v.2.1.1l.1.1v.1l0 0 0 0v.1l0 0 0 0 0 0 0 0v.1l0 0 0 0 0 0 0 0 .1.1 0 0 0 0 0 0 0 0 0 0 0 0 0 0v.1l0 0 0 0 0 0 0 0 0 0 0 0 0 0 0 0h.1l0 0 0 0 0 0 0 0 0 0v.1l0 0 0 0 0 0 0 0 0 0 0 0h.1l0 0 0 0 0 0 0 0 0 0 0 0 0 0 0 0h.1l0 0 0 0 0 0 0 0 0 0h.1l0 0v.1l0 0h.1l0 0 0 0 0 0h.1l0 0 0 0 0 0h.1l0 0 0 0h.1l0 0 0 0h.1l0 0h.1l0 0v-.1h.1l0 0h.1l0 0 0 0h.1l0 0 0 0 0 0h.1l0 0 0 0 0 0h.1l0 0 0 0 0 0 0 0 0 0 0 0h.1l0 0 0 0 0 0v-.1l0 0 0 0 0 0 0 0 0 0 0 0h.1l0 0 0 0 0 0 0 0 0 0 0 0 0 0 0 0 0 0 0 0 0 0 0 0 0 0 0 0 0 0 0 0 0 0 0 0 0 0 0 0 0 0v-.1l0 0h.1l0 0 0 0 0 0 0 0v-.1l0 0 0 0 0 0 0 0v-.1l0 0 0 0 0 0h.1l0 0v-.1l0 0v-.1l0 0v-.1-.1l.1-.1 0 0v-.1-.1l0 0v-.1-.1l0 0v-.1l0 0v-.1-.1l.1-.1v-.1-.3-.2-.1-.1l0 0v-.1l0 0v-.1l0 0 .1-.1v-.1-.1l0 0 0 0v-.1l0 0v-.1h.1l0 0v-.1h.1v-.1h.1l0 0 0 0h.1l0 0 0 0h.1l0 0 0 0z"/><path d="M103.2 75.8q-2.5.3-2.7 2 .4 1.6 2.9 1.6 2.6-.3 2.7-2-.3-1.6-2.9-1.6z"/><path d="M103.5 78.3l0 0h.1l0 0v.1l0 0h.1l0 0 0 0h.1v.1h.1l0 0v.1l0 0h.1v.1l0 0 0 0 0 0v.1l0 0 0 0 0 0v.1l0 0v.1.1l0 0v.1.1.1l0 0v.2.1l.1.1v.1.1.2.3l.1.2v.2.1.1.1.1l0 0 0 0v.1l0 0 0 0 0 0 0 0v.1l0 0v.1h-.1l0 0v.1l0 0h-.1v.1l0 0h-.1l0 0 0 0h-.1l0 0 0 0 0 0h-.1l0 0 0 0 0 0 0 0h-.1l0 0 0 0h-.1l0 0 0 0h-.1v-.1l0 0h-.1v-.1l0 0 0 0-.1-.1 0 0 0 0 0 0v-.1l0 0 0 0 0 0v-.2-.1-.1-.1-.1l-.1-.2v-.3-.2-.2-.1l-.1-.1v-.1-.1-.2l0 0v-.1-.1-.1-.1l0 0v-.1l0 0 0 0 0 0 0 0v-.1l0 0 0 0 0 0v-.1h.1v-.1l0 0 0 0 .1-.1 0 0h.1l0 0 0 0 0 0 .1-.1 0 0 0 0 0 0 0 0h.1l0 0 0 0z"/><path d="M106.2 80.8l0 0h.1l0 0h.1l0 0h.1l0 0h.1l0 0h.1l0 0h.1l0 0 0 0h.1.1l0 0 .1.1h.1.1.1l.1.1h.1l0 0h.1l.1.1h.1l.1.1 0 0 .1.1h.1v.1l0 0h.1l0 0v.1h.1l0 0v.1h.1l0 0v.1l0 0h.1v.1l0 0v.1h.1l0 0v.1l0 0 0 0v.1l0 0 0 0 .1.1 0 0 0 0 0 0 0 0v.1l0 0 0 0v.1.1.1.1h-.1v.1l-.1.1h-.1-.1l0 0h-.1l0 0h-.1-.1-.1v-.1l-.1-.1v-.1l-.1-.1 0 0 0 0 0 0 0 0 0 0 0 0 0 0 0 0 0 0v-.1l0 0 0 0 0 0 0 0 0 0 0 0 0 0 0 0 0 0 0 0v-.1l0 0h-.1l0 0 0 0 0 0 0 0 0 0 0 0 0 0 0 0 0 0v-.1l0 0 0 0 0 0 0 0 0 0 0 0 0 0h-.1l0 0 0 0 0 0 0 0 0 0 0 0v-.1l0 0 0 0 0 0 0 0 0 0h-.1l0 0v-.1h-.1l0 0h-.1v-.1h-.1l0 0 0 0h-.1-.1v-.1h-.1l0 0h-.1l0 0h-.1l0 0 0 0h-.1l0 0 0 0h-.1l0 0h-.1l0 0 0 0h-.1l0 0h-.1l0 0 0 0h-.1l0 0h-.1l0 0h-.1l0 0h-.1l0 0 0 0h-.1l0 0h-.1l0 0h-.1l0 0h-.1-.1l0 0h-.1l0 0h-.1l-.1.1 0 0h-.1-.1-.1-.1l-.2.1h-.1-.1-.1l-.1.1h-.1-.1-.1l-.1.1h-.2-.1l-.1.1h-.1l-.1.1h-.1-.1l-.2.1h-.1l-.1.1h-.1l-.1.1h-.1-.2l-.1.1h-.1l-.1.1h-.1l-.1.1-.2.1h-.1l-.1.1h-.1l-.1.1h-.1l-.1.1-.1.1h-.2l-.1.1h-.1l-.1.1-.1.1h-.1l-.1.1-.1.1h-.1l-.1.1-.1.1h-.1l-.1.1-.1.1h-.1l-.1.1-.1.1h-.1l-.1.1-.1.1-.1.1h-.1l-.1.1-.1.1v.1h-.1l-.1.1-.1.1-.1.1 0 0-.1.1-.1.1-.1.1v.1h-.1l-.1.1v.1l-.1.1 0 0-.1.1-.1.1h-.1-.1l0 0h-.1l0 0h-.1l-.1-.1h-.1v-.1l-.1-.1v-.1l0 0v-.1l0 0v-.1-.1l.1-.1 0 0 .1-.1.1-.1v-.1l.1-.1.1-.1.1-.1.1-.1v-.1h.1l.1-.1.1-.1.1-.1.1-.1.1-.1.1-.1h.1l.1-.1.1-.1.1-.1.1-.1h.1l.1-.1.1-.1.1-.1h.1l.1-.1.1-.1.1-.1h.1l.1-.1.2-.1h.1l.1-.1.1-.1h.1l.1-.1.2-.1h.1l.1-.1.1-.1h.1l.2-.1h.1l.1-.1.1-.1h.1l.2-.1h.1l.1-.1h.1l.2-.1h.1l.1-.1h.1l.1-.1h.2l.1-.1h.1l.1-.1h.2.1l.1-.1h.1l.2-.1h.1.1l.1-.1h.1.2.1l.1-.1h.1.1l.2-.1h.1.1.1.1l.1-.1h.1.1.1.1.1l0 0h.1l0 0h.1l0 0h.1l0 0h.1.1l0 0h.1l0 0h.1l0 0h.1z"/><path d="M106.3 63.9q-.7.8-.4 1.2.5.3 1.2-.3.7-.8.4-1.2-.4-.3-1.2.3z" fill="#b7f8ff"/><path d="M97.4 64.2q-.8-.7-1.2-.4-.3.5.4 1.2.8.7 1.2.3.3-.4-.4-1.1z" fill="#b7f8ff"/><path d="M113 64.8q-5.3-.2-6.5 4.9-.2 5.2 4.9 6.4 5.2.3 6.4-4.8.3-5.3-4.8-6.5z" fill="#fff"/><g clip-path="url(#_clip2)" fill="#61e0ee"><path d="M107 72.8c0 0 1.9-5 7.9-6.8q-2.9-2.6-7.2.5-2.8 4.7-.7 6.3z"/><path d="M118.1 71c0 0-3.5 4.2-9.7 4q1.9 3.3 7 1.8 4.2-3.5 2.7-5.8z"/></g><path d="M113 64.8q-5.3-.2-6.5 4.9-.2 5.2 4.9 6.4 5.2.3 6.4-4.8.3-5.3-4.8-6.5z" fill="none" stroke="#000" stroke-width="1.01px"/><path d="M110.3 71.1q-1 0-1.2.9-.1 1 .9 1.2.9 0 1.1-.9.1-.9-.8-1.2z"/><path d="M110 72.2l-.3.2.2.3.4-.2-.3-.3z" fill="#fff"/><path d="M97.4 70.3q-2.2-4.8-7.3-3.5Q85.4 69 86.6 74q2.2 4.8 7.3 3.6 4.8-2.2 3.5-7.3z" fill="#fff"/><g clip-path="url(#_clip3)" fill="#61e0ee"><path d="M88 69c0 0 5.3-.6 9.7 3.8q.9-3.7-3.8-6.1Q88.4 66.3 88 69z"/><path d="M94.6 78c0 0-5.2-1.1-7.9-6.8q-2.1 3.3 1.6 7.1 5 2.1 6.3-.3z"/></g><path d="M97.4 70.3q-2.2-4.8-7.3-3.5Q85.4 69 86.6 74q2.2 4.8 7.3 3.6 4.8-2.2 3.5-7.3z" fill="none" stroke="#000" stroke-width="1.01px"/><path d="M94.3 72.3q-1.1-.1-1.3 1-.1 1 1 1.3 1.1 0 1.3-1 .1-1.1-1-1.3z"/><path d="M94.6 73.4l-.4.3.3.4.3-.3-.2-.4z" fill="#fff"/></g><path d="M88.3 79q.2.9 3.8 1.1" fill="none" stroke="#000" stroke-width="1.01px"/><path d="M116.7 76.8q.9.1 2.5-3" fill="none" stroke="#000" stroke-width="1.01px"/><path d="M72.3 68l3.5 1.9" fill="none" stroke="#000" stroke-width="1.01px"/><path d="M126.3 71.8l-3.8-1.2" fill="none" stroke="#000" stroke-width="1.01px"/><path d="M71.1 73.9l3.9-.4" fill="none" stroke="#000" stroke-width="1.01px"/><path d="M126.5 65.8l-3.9 1.1" fill="none" stroke="#000" stroke-width="1.01px"/><path d="M72.3 79.2 75.7 77" fill="none" stroke="#000" stroke-width="1.01px"/><path d="M124.3 60.8l-2.9 2.7" fill="none" stroke="#000" stroke-width="1.01px"/></g></g><g><path d="M17.1 78c0 0 0 5 2.6 6.7q4.4 1.5 3.1-2.1C21.4 80.7 20.3 78.8 20.7 77s-3.6-2.1-3.6 1z" fill="#d6c295" stroke="#000" stroke-width="1.01px"/><path d="M34.2 57.1c0 0 2.3-2.5 3.2 3.5" fill="none" stroke="#61e0ee" stroke-width="1.01px"/><path d="M34.2 57.1c0 0 2.3-2.5 3.2 3.5" fill="none" stroke="#61e0ee" stroke-width="1.01px"/><path d="M42.3 56.5c0 0-2.2-2.4-3 3.8" fill="none" stroke="#61e0ee" stroke-width="1.01px"/><path d="M42.3 56.5c0 0-2.2-2.4-3 3.8" fill="none" stroke="#61e0ee" stroke-width="1.01px"/><path d="M36.2 54.5c0 0 2.6-1.7 2.1 5.1" fill="none" stroke="#61e0ee" stroke-width="1.01px"/><path d="M36.2 54.5c0 0 2.6-1.7 2.1 5.1" fill="none" stroke="#61e0ee" stroke-width="1.01px"/><path d="M25.7 114.4c0 0 .3-5 2.9-6.5q4.6-1.3 3 2.3-2.5 2.7-2.3 5.4c.3 1.8-3.8 2-3.6-1.2z" fill="#d6c295" stroke="#000" stroke-width="1.01px"/><path d="M25.7 114.4c0 0 .3-5 2.9-6.5q4.6-1.3 3 2.3-2.5 2.7-2.3 5.4c.3 1.8-3.8 2-3.6-1.2z" fill="#d6c295" stroke="#000" stroke-width="1.01px"/><path d="M50.7 116.5c0 0 2.7-4.3 1.4-7q-3-3.7-3.7.1.4 3.6-1.3 5.8c-1.3 1.3 2 3.8 3.6 1.1z" fill="#d6c295" stroke="#000" stroke-width="1.01px"/><path d="M50.7 116.5c0 0 2.7-4.3 1.4-7q-3-3.7-3.7.1.4 3.6-1.3 5.8c-1.3 1.3 2 3.8 3.6 1.1z" fill="#d6c295" stroke="#000" stroke-width="1.01px"/><path d="M54.7 72.1q.6-1 1.7-1.6c5.7-2.3 3.7 4.3.4 4" fill="#61e0ee"/><path d="M58.6 69.4l0 0h.1l0 0h.1l0 0h.1l0 0h.1l0 0h.1l.1.1h.1.1l0 0 .1.1h.1.1l.1.1 0 0 .1.1h.1l.1.1v.1h.1v.1h.1v.1l.1.1 0 0 .1.1v.1.1h.1v.1.1.1l.1.1 0 0v.1l0 0 0 0v.1l0 0v.1l0 0v.1l0 0 0 0v.1l0 0v.1l0 0 0 0v.1l0 0v.1l0 0 0 0v.1h-.1v.1.1l0 0v.1.1l-.1.1v.1l0 0v.1l-.1.1v.1l0 0-.1.1v.1.1h-.1v.1l-.1.1 0 0-.1.1v.1h-.1v.1l-.1.1v.1h-.1v.1h-.1v.1l-.1.1h-.1v.1l-.1.1h-.1v.1h-.1l-.1.1 0 0-.1.1h-.1l-.1.1 0 0-.1.1h-.1l-.1.1 0 0h-.1l-.1.1h-.1l0 0h-.1l-.1.1h-.1-.1l0 0h-.1l-.1.1h-.1l0 0h-.1l0 0h-.1l0 0h-.1l0 0h-.1-.1l0 0h-.1l0 0 0 0h-.1l0 0h-.1l-.1-.1 0 0h-.1l-.1-.1 0 0-.1-.1v-.1l0 0v-.1l-.1-.1 0 0 0 0v-.1-.1l0 0 0 0 .1-.1v-.1l0 0 .1-.1v-.1h.1.1v-.1h.1.1l0 0h.1l0 0 0 0h.1l0 0 0 0h.1l0 0 0 0h.1l0 0 0 0 0 0h.1l0 0 0 0v-.1h.1l0 0 0 0h.1l0 0 0 0 0 0h.1l0 0 0 0h.1v-.1h.1l0 0h.1l0 0 .1-.1 0 0h.1v-.1h.1l0 0h.1v-.1h.1v-.1h.1l0 0 .1-.1 0 0v-.1h.1v-.1h.1l0 0v-.1h.1v-.1l0 0 .1-.1 0 0v-.1h.1v-.1l0 0 .1-.1 0 0v-.1h.1v-.1l0 0v-.1l0 0 .1-.1 0 0v-.1l0 0 0 0v-.1l0 0 0 0 0 0 0 0v-.1l0 0 0 0 0 0v-.1l0 0 0 0h.1l0 0v-.1l0 0 0 0 0 0 0 0v-.1l0 0 0 0 0 0 0 0v-.1l0 0 0 0 0 0h-.1l0 0v-.1l0 0 0 0 0 0 0 0 0 0 0 0v-.1l0 0 0 0 0 0 0 0 0 0 0 0 0 0v-.1l0 0 0 0h-.1l0 0 0 0 0 0 0 0v-.1l0 0 0 0 0 0 0 0 0 0h-.1l0 0 0 0v-.1l0 0 0 0h-.1l0 0 0 0 0 0 0 0h-.1l0 0 0 0 0 0 0 0h-.1v-.1l0 0 0 0 0 0h-.1l0 0 0 0 0 0h-.1l0 0 0 0h-.1l0 0 0 0h-.1l0 0 0 0h-.1l0 0 0 0h-.1l0 0h-.1l0 0v.1h-.1-.1l0 0h-.1-.1l-.1.1h-.1-.1l-.1.1h-.2-.1l-.1.1h-.1l-.1.1 0 0h-.1l0 0 0 0h-.1v.1h-.1l0 0-.1.1 0 0h-.1v.1h-.1l-.1.1 0 0-.1.1 0 0-.1.1h-.1v.1h-.1v.1l0 0-.1.1 0 0-.1.1 0 0 0 0 0 0 0 0 0 0 0 0 0 0 0 0 0 0 0 0 0 0 0 0v.1l0 0 0 0 0 0 0 0 0 0 0 0-.1.1v.1l0 0-.1.1v.1h-.1-.1v.1h-.1-.1l0 0h-.1l0 0h-.1l0 0 0 0h-.1-.1l-.1-.1 0 0-.1-.1 0 0-.1-.1v-.1l0 0v-.1h-.1v-.1l0 0v-.1l0 0 0 0 .1-.1 0 0 0 0v-.1l0 0v-.1l0 0v-.1h.1v-.1l0 0v-.1h.1l0 0v-.1l0 0 .1-.1.1-.1 0 0 .1-.1.1-.1v-.1h.1l.1-.1v-.1h.1l.1-.1h.1v-.1l.1-.1h.1l.1-.1 0 0 .1-.1h.1l.1-.1 0 0h.1L56 70l0 0 .1-.1h.1.2l.1-.1h.1l.2-.1h.1l.1-.1h.2l.1-.1h.1.1.1.2l.1-.1h.1l0 0h.1.1.1l0 0h.1l0 0h.1l0 0h.1z"/><path d="M23.7 67.8q-.8.2-1.5-.4c-4.9-3.8 1.8-5.3 3.2-2.3" fill="#61e0ee"/><path d="M22.6 62.8h.1l0 0h.1l0 0 0 0h.1l0 0h.1l0 0 0 0h.1l0 0 .1.1 0 0h.1l0 0h.1.1l0 0h.1l.1.1h.1l0 0h.1l.1.1h.1.1l.1.1 0 0h.1l.1.1h.1.1v.1h.1l.1.1h.1v.1h.1l.1.1v.1h.1l.1.1h.1v.1l.1.1 0 0 .1.1.1.1v.1l.1.1 0 0 .1.1v.1l.1.1v.1l0 0v.1l0 0 0 0v.1l0 0 0 0v.1l0 0v.1l0 0-.1.1v.1l0 0-.1.1 0 0-.1.1h-.1l0 0-.1.1 0 0h-.1l0 0 0 0h-.1l0 0 0 0h-.1l0 0-.1-.1h-.1l0 0-.1-.1 0 0-.1-.1 0 0v-.1h-.1v-.1l0 0-.1-.1 0 0v-.1l0 0-.1-.1 0 0-.1-.1 0 0 0 0-.1-.1 0 0 0 0-.1-.1 0 0-.1-.1 0 0h-.1l0 0-.1-.1 0 0h-.1v-.1h-.1l0 0h-.1l0 0-.1-.1h-.1l0 0h-.1l0 0h-.1v-.1l0 0h-.1l0 0 0 0h-.1l0 0 0 0 0 0h-.1l0 0 0 0h-.1l0 0 0 0h-.1l0 0 0 0 0 0h-.1l0 0 0 0h-.1l0 0 0 0 0 0h-.1l0 0 0 0h-.1l0 0 0 0 0 0h-.1l0 0 0 0h-.1l0 0 0 0 0 0h-.1l0 0 0 0 0 0h-.1l0 0 0 0 0 0h-.1v.1l0 0h-.1l0 0 0 0h-.1l0 0 0 0h-.1v.1l0 0h-.1l0 0 0 0h-.1v.1l0 0 0 0h-.1l0 0v.1l0 0 0 0h-.1l0 0 0 0 0 0v.1l0 0 0 0 0 0 0 0 0 0 0 0 0 0v.1l0 0 0 0 0 0 0 0h-.1l0 0 0 0 0 0 0 0v.1l0 0 0 0 0 0 0 0 0 0 0 0 0 0v.1l0 0 0 0 0 0 0 0 0 0 0 0v.1h.1l0 0 0 0 0 0v.1l0 0 0 0 0 0v.1l0 0 .1.1 0 0v.1h.1v.1.1h.1v.1l.1.1 0 0 .1.1v.1h.1l.1.1v.1h.1l.1.1.1.1.1.1.1.1h.1l.1.1.1.1 0 0 .1.1 0 0 0 0h.1v.1l0 0h.1l0 0 0 0 0 0h.1v.1l0 0 0 0 0 0h.1l0 0 0 0 0 0 0 0 0 0h.1l0 0 0 0 0 0 0 0 0 0 0 0 0 0 0 0h.1l0 0 0 0 0 0 0 0 0 0 0 0 0 0 0 0 0 0 0 0 0 0 0 0h.1l0 0 0 0 0 0 0 0 0 0 0 0h.1l0 0 0 0h.1l0 0 0 0h.1l0 0 0 0h.1.1l.1.1 0 0h.1v.1h.1v.1.1h.1v.1l0 0v.1l0 0v.1l0 0 0 0v.1l0 0-.1.1v.1l0 0-.1.1 0 0-.1.1 0 0-.1.1h-.1l0 0 0 0h-.1-.1l0 0 0 0-.1.1 0 0h-.1l0 0h-.1l0 0 0 0h-.1l0 0h-.1l0 0 0 0-.1-.1 0 0h-.1l0 0 0 0h-.1-.1l0 0-.1-.1h-.1l0 0h-.1l-.1-.1 0 0h-.1v-.1h-.1l0 0-.1-.1 0 0L22 68h-.1l-.1-.1-.1-.1-.1-.1-.1-.1-.1-.1-.1-.1h-.1l-.1-.1-.1-.1-.1-.1-.1-.1 0 0-.1-.1-.1-.1v-.1l-.1-.1-.1-.1 0 0-.1-.1-.1-.1v-.1l-.1-.1v-.1l-.1-.1 0 0v-.1l0 0-.1-.1v-.1-.1l-.1-.1v-.1-.1l0 0v-.1l0 0v-.1l0 0 0 0v-.1l0 0v-.1l0 0v-.1l0 0v-.1l0 0 .1-.1v-.1-.1-.1h.1v-.1-.1l.1-.1 0 0 .1-.1v-.1h.1v-.1h.1v-.1h.1l.1-.1 0 0 .1-.1h.1v-.1h.1.1v-.1h.1.1l.1-.1 0 0h.1.1l.1-.1 0 0h.1.1l0 0h.1l0 0h.1l0 0 0 0 .1-.1 0 0h.1l0 0 0 0h.1l0 0h.1l0 0h.1l0 0 0 0h.1l0 0z"/><path d="M23.7 67.8q-.8.2-1.5-.4c-4.9-3.8 1.8-5.3 3.2-2.3" fill="#61e0ee"/><path d="M22.6 62.8h.1l0 0h.1l0 0 0 0h.1l0 0h.1l0 0 0 0h.1l0 0 .1.1 0 0h.1l0 0h.1.1l0 0h.1l.1.1h.1l0 0h.1l.1.1h.1.1l.1.1 0 0h.1l.1.1h.1.1v.1h.1l.1.1h.1v.1h.1l.1.1v.1h.1l.1.1h.1v.1l.1.1 0 0 .1.1.1.1v.1l.1.1 0 0 .1.1v.1l.1.1v.1l0 0v.1l0 0 0 0v.1l0 0 0 0v.1l0 0v.1l0 0-.1.1v.1l0 0-.1.1 0 0-.1.1h-.1l0 0-.1.1 0 0h-.1l0 0 0 0h-.1l0 0 0 0h-.1l0 0-.1-.1h-.1l0 0-.1-.1 0 0-.1-.1 0 0v-.1h-.1v-.1l0 0-.1-.1 0 0v-.1l0 0-.1-.1 0 0-.1-.1 0 0 0 0-.1-.1 0 0 0 0-.1-.1 0 0-.1-.1 0 0h-.1l0 0-.1-.1 0 0h-.1v-.1h-.1l0 0h-.1l0 0-.1-.1h-.1l0 0h-.1l0 0h-.1v-.1l0 0h-.1l0 0 0 0h-.1l0 0 0 0 0 0h-.1l0 0 0 0h-.1l0 0 0 0h-.1l0 0 0 0 0 0h-.1l0 0 0 0h-.1l0 0 0 0 0 0h-.1l0 0 0 0h-.1l0 0 0 0 0 0h-.1l0 0 0 0h-.1l0 0 0 0 0 0h-.1l0 0 0 0 0 0h-.1l0 0 0 0 0 0h-.1v.1l0 0h-.1l0 0 0 0h-.1l0 0 0 0h-.1v.1l0 0h-.1l0 0 0 0h-.1v.1l0 0 0 0h-.1l0 0v.1l0 0 0 0h-.1l0 0 0 0 0 0v.1l0 0 0 0 0 0 0 0 0 0 0 0 0 0v.1l0 0 0 0 0 0 0 0h-.1l0 0 0 0 0 0 0 0v.1l0 0 0 0 0 0 0 0 0 0 0 0 0 0v.1l0 0 0 0 0 0 0 0 0 0 0 0v.1h.1l0 0 0 0 0 0v.1l0 0 0 0 0 0v.1l0 0 .1.1 0 0v.1h.1v.1.1h.1v.1l.1.1 0 0 .1.1v.1h.1l.1.1v.1h.1l.1.1.1.1.1.1.1.1h.1l.1.1.1.1 0 0 .1.1 0 0 0 0h.1v.1l0 0h.1l0 0 0 0 0 0h.1v.1l0 0 0 0 0 0h.1l0 0 0 0 0 0 0 0 0 0h.1l0 0 0 0 0 0 0 0 0 0 0 0 0 0 0 0h.1l0 0 0 0 0 0 0 0 0 0 0 0 0 0 0 0 0 0 0 0 0 0 0 0h.1l0 0 0 0 0 0 0 0 0 0 0 0h.1l0 0 0 0h.1l0 0 0 0h.1l0 0 0 0h.1.1l.1.1 0 0h.1v.1h.1v.1.1h.1v.1l0 0v.1l0 0v.1l0 0 0 0v.1l0 0-.1.1v.1l0 0-.1.1 0 0-.1.1 0 0-.1.1h-.1l0 0 0 0h-.1-.1l0 0 0 0-.1.1 0 0h-.1l0 0h-.1l0 0 0 0h-.1l0 0h-.1l0 0 0 0-.1-.1 0 0h-.1l0 0 0 0h-.1-.1l0 0-.1-.1h-.1l0 0h-.1l-.1-.1 0 0h-.1v-.1h-.1l0 0-.1-.1 0 0L22 68h-.1l-.1-.1-.1-.1-.1-.1-.1-.1-.1-.1-.1-.1h-.1l-.1-.1-.1-.1-.1-.1-.1-.1 0 0-.1-.1-.1-.1v-.1l-.1-.1-.1-.1 0 0-.1-.1-.1-.1v-.1l-.1-.1v-.1l-.1-.1 0 0v-.1l0 0-.1-.1v-.1-.1l-.1-.1v-.1-.1l0 0v-.1l0 0v-.1l0 0 0 0v-.1l0 0v-.1l0 0v-.1l0 0v-.1l0 0 .1-.1v-.1-.1-.1h.1v-.1-.1l.1-.1 0 0 .1-.1v-.1h.1v-.1h.1v-.1h.1l.1-.1 0 0 .1-.1h.1v-.1h.1.1v-.1h.1.1l.1-.1 0 0h.1.1l.1-.1 0 0h.1.1l0 0h.1l0 0h.1l0 0 0 0 .1-.1 0 0h.1l0 0 0 0h.1l0 0h.1l0 0h.1l0 0 0 0h.1l0 0z"/><path d="M24 107.7c0 0-2.5-5-2-9.3 1.5-13.3-2.5-16-.9-24.1q.7-4.6 3.3-8.4 6.7-8.1 17.3-6.7 3.8.9 7.1 2.8c7.9 4.2 9.5 13 8.5 20.5-.4 3.3-3.3 8.4-2.9 11.7q1.5 9.4-1.5 15.1-3.9 6.3-16.8 5.8C34.8 115 26.9 113.6 24 107.7z" fill="#61e0ee"/><g clip-path="url(#_clip4)" fill="#4fcbe0"><path d="M52.2 65.2c0 0 2.7 3.5 1.9 8.9-1 8-4.4 6.3-4.2 20.8q1.2 10.1-2.6 15.9c-3.1 4.2-12 4.2-14.2 3.6s8.8 2.3 15.1-.3 7.2-13.2 6.4-19.9S59.1 85.5 57.4 74c-2.9-6.8-3-6.4-5.2-8.7z"/><path d="M41.7 75.2c0 0 .7 3.9 5.4 3.6s5-5 5-5l-10.4 1.4z"/><path d="M21.7 73.2c0 0 .8 3.9 5.4 3.6s5-4.9 5-4.9l-10.4 1.3z"/></g><path d="M38.7 58.3h.1.1.1l0 0h.1.1.1l0 0h.1.1.1.1l0 0h.1.1.1.1.1.1l.2.1h.1.2.1.2l.1.1h.2.1.2l.2.1h.1.1.1l.1.1h.2.1l.1.1h.1.2l.1.1h.1.1l.1.1h.2.1l.1.1h.1.1l.1.1h.2l.2.1.2.1.2.1.3.1h.2l.2.1.3.1.2.1.2.1.2.1.2.1.3.1.2.1.2.1.2.1.2.2.3.1.2.1.2.1.2.1.2.1.3.2.2.1.2.1.2.1.2.1.2.1.1.1.2.1.2.2.2.1.1.1.2.1.2.1.1.2.2.1.1.1.2.1.1.2.2.1.1.1.2.2.1.1.2.1.1.2.2.1.1.2.1.1.2.1.1.2.1.1.1.2.2.1.1.2.1.1.1.2.1.1.2.2.1.2.1.1.1.2.1.1.1.2.1.1.1.2.1.2.1.1.1.2.1.2.1.1.1.2v.2l.1.1.1.2.1.2.1.1v.2l.1.2.1.2.1.1v.2l.1.2.1.2v.1l.1.2.1.2v.2l.1.2v.1l.1.2v.2l.1.2v.2l.1.1v.2l.1.2v.2l.1.2v.1l.1.2v.2.2l.1.2v.2.2l.1.1v.2.2.2l.1.2v.2.2.1.2l.1.2v.1.1.2.1.1.1.1.1.1l0 0v.1.1.1.1.1.1.1.1.1l.1.1v.1.1.1l0 0v.1.1.1.1l-.1.1v.1.1.1.1.1.1.1.1l0 0v.1.1.1.1.1.1.2.1.2l0 0-.1.2v.2.1.2.2.1l-.1.2v.2.2.1.1h-.1v.2.2.2l-.1.1v.2l-.1.2v.2l-.1.1v.2l-.1.2v.2l-.1.2v.2l-.1.2-.1.1v.2l-.1.2-.1.4-.1.4-.2.4-.2.8-.2.4-.1.4-.1.3L56 89v.2l-.1.2-.1.2v.2l-.1.2v.2l-.1.2v.2l-.1.2v.2l-.1.1v.2l-.1.2v.2l-.1.2v.1.2.1l0 0v.1l0 0-.1.1 0 0v.1l0 0v.1l0 0v.1l0 0 0 0v.1l0 0v.1l0 0 0 0v.1l0 0v.1l0 0 0 0v.1l0 0 0 0v.1l0 0v.1l0 0 0 0v.1l0 0 0 0v.1l0 0v.1l0 0 0 0v.1l0 0 0 0v.1l0 0 0 0v.1l0 0v.2l.1.3v.3.3l.1.4v.3.3l.1.2v.3.3.3l.1.3v.3.2.3.2.1.3.1l.1.1v.1.2.1.1.2.1.1.1.2.1.1.1.1.2.1.1.1.1l-.1.2v.1.1.1.3.2.2.1l-.1.3v.2.2.2l-.1.2v.3.2l-.1.2v.2l-.1.2v.2l-.1.3v.2l-.1.2v.2l-.1.2v.2l-.1.2-.1.2v.2l-.1.3-.1.2-.1.2v.2l-.1.2-.1.2-.1.2-.1.2-.1.2-.1.2-.1.3-.1.2v.1l-.1.1v.1l-.1.1-.1.1v.1l-.1.1v.1h-.1l-.1.1v.1l-.1.1-.1.1-.1.1v.1l-.1.1-.1.1-.1.1-.1.1 0 0-.1.1-.1.1-.1.1-.1.1-.1.1-.1.1h-.1l-.1.1-.1.1-.1.1-.1.1h-.1l-.1.1-.1.1-.1.1h-.1l-.1.1-.1.1-.2.1h-.1l-.1.1-.1.1-.1.1h-.1l-.2.1-.1.1h-.1l-.1.1-.2.1h-.1l-.1.1-.2.1h-.1l-.1.1h-.2l-.1.1-.1.1h-.2l-.1.1h-.1l-.2.1h-.1l-.2.1h-.1l-.2.1-.1.1h-.2l-.1.1h-.1-.2l-.2.1h-.1l-.2.1h-.1l-.2.1h-.1l-.2.1h-.1-.2l-.2.1h-.1-.2l-.1.1h-.2-.2l-.1.1h-.2-.2l-.1.1h-.2-.2-.1l-.2.1h-.2-.2-.1l-.2.1h-.2-.2-.1-.1-.1-.2-.1l-.1.1h-.1-.1-.1-.1-.1-.1-.1-.1l0 0h-.1-.1-.1-.1-.1-.1-.1-.1-.1-.1l0 0h-.1-.1-.1-.1-.1-.1-.1-.1-.1-.1-.1l0 0h-.1-.1-.1-.2-.1-.1-.1l-.2-.1h-.1-.1-.2-.1-.1-.1l0 0 0 0h-.1l0 0-.1-.1h-.1-.1-.1-.1-.2l-.1-.1h-.2-.1l-.2-.1h-.1-.2l-.2-.1h-.2l-.2-.1h-.2l-.2-.1h-.2l-.2-.1-.2-.1h-.2l-.2-.1-.3-.1-.2-.1h-.2l-.3-.1-.1-.1h-.1l-.1-.1h-.1l-.2-.1h-.1l-.1-.1h-.1l-.1-.1h-.2L30 114h-.1l-.1-.1-.2-.1h-.1l-.1-.1-.1-.1h-.2l-.1-.1h-.1l-.1-.1-.1-.1-.2-.1h-.1l-.1-.1-.1-.1h-.2l-.1-.1-.1-.1-.1-.1-.1-.1h-.2l-.1-.1-.1-.1-.1-.1-.1-.1-.2-.1-.1-.1-.1-.1-.1-.1-.1-.1h-.1l-.1-.1-.2-.1v-.1l-.1-.1-.1-.1-.1-.1-.1-.1-.1-.1-.1-.1-.2-.1-.1-.2-.1-.1-.1-.1-.1-.1-.1-.1-.1-.1-.1-.2v-.1l-.1-.1-.1-.1-.1-.2-.1-.1-.1-.1-.1-.2-.1-.1v-.1l-.1-.2-.1-.1-.1-.2v-.1l-.1-.1v-.1l-.1-.1v-.1l-.1-.2-.1-.2-.1-.2-.1-.2-.1-.2v-.2l-.1-.1v-.2l-.1-.1v-.2l-.1-.1-.1-.2v-.1l-.1-.2v-.1l-.1-.2v-.2l-.1-.2v-.1l-.1-.2-.1-.2v-.2l-.1-.2v-.2l-.1-.2v-.2-.2l-.1-.2v-.2l-.1-.2v-.2-.2l-.1-.2v-.2-.2l-.1-.2v-.1l0 0v-.1l0 0v-.1l0 0v-.1-.1l0 0v-.1l0 0v-.1l0 0v-.1l0 0v-.1l0 0-.1-.1 0 0v-.1-.1l0 0v-.1l0 0v-.1l0 0v-.1l0 0v-.1l0 0v-.1l0 0v-.1-.1l0 0v-.1l0 0 .1-.1 0 0v-.1l0 0v-.1l0 0v-.1-.1l0 0v-.1l0 0v-.1-.2l.1-.3v-.3-.3-.3l.1-.3v-.3-.2-.3l.1-.3v-.3-.1-.1-.3-.1-.2-.1-.1-.2-.1-.1-.1-.2-.1-.1l.1-.1v-.2-.1-.1-.1-.1-.2-.1-.1-.1-.1l-.1-.1v-.2-.1-.1-.1-.1-.1-.1-.1-.1-.1-.2-.1-.1-.1-.1-.2-.1-.2-.1l-.1-.2v-.2-.1-.2-.2-.2l-.1-.2v-.1-.2-.2-.2l-.1-.2v-.2-.1l-.1-.4v-.3l-.1-.4v-.3l-.1-.3v-.3l-.1-.4v-.3l-.2-.6-.1-.6v-.3l-.1-.3v-.3l-.1-.3v-.3l-.1-.3v-.3-.2l-.1-.1v-.2-.1-.2-.1-.1l-.1-.1v-.1-.1-.2l0 0v-.2-.1l0 0v-.1-.1-.1-.1l0 0v-.1-.1-.1-.1l0 0-.1-.1v-.1-.1-.1l0 0v-.1-.1-.1-.1-.1l0 0v-.1l.1-.1v-.1-.1-.1l0 0v-.1-.1-.1-.1-.1-.1l0 0v-.2-.1-.2l.1-.2v-.1-.2-.2-.2l.1-.2v-.2-.2l.1-.2v-.2-.2l.1-.3.1-.2v-.3l.1-.3v-.3l.1-.3.1-.2v-.2l.1-.1v-.2-.1l.1-.1v-.2l.1-.1v-.2l.1-.1v-.2-.1l.1-.1v-.2l.1-.1v-.2l.1-.1v-.1l.1-.2v-.1l.1-.2.1-.1v-.1l.1-.2v-.1l.1-.2v-.1l.1-.1.1-.2v-.1l.1-.1v-.2l.1-.1.1-.1v-.2l.1-.1.1-.1.1-.2v-.1l.1-.1.1-.1.1-.2v-.1l.1-.1.1-.1.1-.2v-.1l.1-.1.1-.1.1-.1.1-.2.1-.1.1-.1.1-.1.1-.2.1-.1.1-.1.1-.1.1-.1.1-.2.1-.1L25 64l.1-.1.1-.1.1-.1.1-.1.2-.1.1-.2.1-.1.1-.1L26 63l.1-.1.2-.1.1-.1.1-.1.1-.1.1-.1.2-.1.1-.1.1-.1.1-.1.2-.1.1-.1h.1l.2-.2h.1l.1-.1.1-.1.2-.1.1-.1.2-.1.1-.1h.1l.2-.1.1-.1.1-.1h.2l.1-.1.2-.1.1-.1h.1l.2-.1.1-.1.2-.1h.1l.2-.1.1-.1h.2l.1-.1h.1l.2-.1.1-.1h.2l.1-.1h.2l.1-.1h.2l.1-.1h.2l.1-.1h.2l.2-.1h.1l.2-.1h.1l.2-.1h.1.2l.1-.1h.2l.1-.1h.2.2l.1-.1h.2.1.2l.1-.1h.2.2l.1-.1h.2.1.2.1.1l.2-.1h.1l0 0h.2.1.1l0 0h.1.1.1.1l0 0h.1.1.1.1l0 0h.1.1.1.1l0 0h.1zm-.1 1.3h-.1-.1-.1l0 0h-.1-.1l0 0h-.1-.1-.1l0 0h-.1-.1-.1l0 0-.1.1h-.1-.1-.1-.1-.1-.2-.1l-.2.1h-.1-.2-.1-.2l-.1.1h-.1-.2l-.1.1h-.2-.1-.2l-.1.1h-.2-.1l-.2.1h-.1l-.1.1h-.2-.1l-.2.1h-.1l-.2.1h-.1l-.1.1h-.2l-.1.1h-.2l-.1.1h-.1l-.2.1h-.1l-.2.1h-.1l-.1.1-.2.1h-.1l-.1.1h-.2l-.1.1-.1.1h-.2l-.1.1-.1.1h-.2l-.1.1-.1.1h-.2l-.1.1-.1.1-.1.1h-.2l-.1.1-.1.1-.1.1-.2.1h-.1l-.1.1-.1.1-.2.1-.1.1-.1.1-.1.1h-.1l-.1.1-.2.1-.1.1-.1.1-.1.1-.1.1-.1.1L27 64l-.1.1-.1.1-.1.1-.1.1-.2.1-.1.1-.1.1-.1.1-.1.1-.1.1-.1.1v.1l-.1.1-.1.1-.1.1-.1.1-.1.1-.1.2-.1.1-.1.1-.1.1v.1l-.1.1-.1.1-.1.1v.1l-.1.1-.1.2-.1.1v.1l-.1.1-.1.1v.1l-.1.2-.1.1v.1l-.1.1v.1l-.1.2-.1.1v.1l-.1.1v.2l-.1.1-.1.1v.1l-.1.2v.1l-.1.1v.2l-.1.1v.1l-.1.1v.2l-.1.1v.1l-.1.2v.1l-.1.1v.2.1l-.1.1v.2l-.1.1v.1.2l-.1.1v.2l-.1.1v.1.2l-.1.3-.1.3v.2l-.1.3-.1.3v.2l-.1.3v.2.2l-.1.1v.2.2.2l-.1.1v.2.2.2.1.1l-.1.2 0 0v.1.1.1.1.1l0 0v.1.1.1l0 0v.1.1.1.1l0 0v.1.1.1l0 0v.1.1.1l0 0v.1.1.1l0 0v.1.1.1l0 0v.1.1.1l0 0v.1.1l.1.1v.1.1l0 0v.2.1l0 0v.2.1l.1.1v.1.1.2.1l.1.3v.3.3l.1.3v.3l.1.2.1.3.1.7.1.6v.3l.1.3v.3l.1.4.1.3v.4l.1.3v.4.2l.1.1v.2.2.2l.1.2v.2.2.2.2l.1.2v.2.1.2.1.1.2.1.2.2l.1.1v.1.1.1.1.1.1.1.2.1.1.1.1.1.2.1.1.1.2.1.1.1.1.2.1.1.2.1.1.1.2.1.1.2l-.1.2v.2.3.1.1.3.3.3l-.1.3v.3.3l-.1.3v.3.3.3l-.1.1 0 0v.1l0 0v.1l0 0 0 0v.1l0 0v.1l0 0v.1l0 0v.1l0 0v.1l0 0v.1l0 0v.1l0 0v.1l0 0v.1l0 0v.1l0 0 0 0v.1l0 0v.1l0 0v.1l0 0v.1l0 0v.1l0 0v.1l0 0v.1l0 0v.1l0 0v.1h.1v.1l0 0v.1.1.2.2l.1.2v.2.2l.1.2v.2.1l.1.2v.2l.1.2v.2l.1.2v.1l.1.2v.2l.1.1v.2l.1.2v.1l.1.2v.1l.1.2v.1l.1.2v.1l.1.2v.1l.1.1v.1l.1.3.1.2.1.2.1.2.1.1v.1l.1.1v.2l0 0 .1.1.1.2v.1l.1.1.1.1v.2l.1.1.1.1.1.1v.1l.1.1.1.1.1.2.1.1.1.1v.1l.1.1.1.1.1.1.1.1.1.1.1.1.1.1.1.1.1.1.1.1.1.1h.1l.1.1.1.1.1.1.1.1.1.1.1.1h.1l.1.1.1.1.1.1.1.1h.1l.1.1.1.1.1.1h.2l.1.1.1.1h.1l.1.1.1.1h.1l.1.1.2.1h.1l.1.1h.1l.1.1.1.1h.1l.2.1h.1l.1.1h.1l.1.1h.1l.1.1h.2l.1.1h.1l.1.1h.1l.1.1h.1l.2.1.3.1h.2l.2.1.2.1h.2l.2.1.2.1h.2l.2.1h.2l.2.1h.1.2l.2.1h.1.2l.1.1h.2.1.1l.1.1h.1.1.1l0 0h.1l0 0 0 0h.1l0 0 0 0h.2l.2.1h.1.1.1.1.2.1.1.1l0 0h.1.1.1.1.1l.1.1h.1l0 0h.1.1.1.1.1.1.1l0 0h.1.1.1.1.1.1l0 0 .1-.1h.1.1.1.1.1l0 0h.1.1.1.1.1.1.1.2.1l.1-.1h.2.1.1.2.2l.1-.1h.2.2.1l.2-.1h.1.2.1l.2-.1h.2.1l.2-.1h.1.2l.1-.1h.2.1l.2-.1h.1l.2-.1h.1.2l.1-.1h.1l.2-.1h.1l.2-.1h.1l.1-.1h.2l.1-.1h.1l.2-.1h.1l.1-.1h.2l.1-.1h.1l.1-.1h.2l.1-.1h.1l.1-.1.2-.1h.1l.1-.1h.1l.1-.1.1-.1h.1l.2-.1h.1l.1-.1.1-.1h.1l.1-.1.1-.1h.1l.1-.1.1-.1h.1l.1-.1.1-.1.1-.1 0 0 .1-.1.1-.1h.1l.1-.1.1-.1v-.1h.1l.1-.1.1-.1 0 0 .1-.1.1-.1v-.1h.1l.1-.1v-.1l.1-.1h.1v-.1l.1-.1v-.1h.1v-.1l.1-.1v-.1l.1-.1 0 0 .1-.1v-.1l.1-.1.1-.2v-.2l.1-.2.1-.2.1-.2.1-.2.1-.2v-.2l.1-.2.1-.2.1-.2v-.2l.1-.2v-.2l.1-.2.1-.2v-.2l.1-.2v-.2l.1-.2v-.2l.1-.2v-.2-.2l.1-.2v-.2-.2l.1-.2v-.2-.2-.2-.2l.1-.2v-.2-.2-.1-.1-.1-.1-.1-.1-.1-.2-.1-.1-.1-.1-.1-.2-.1-.1-.1-.1-.2-.1-.1-.1-.1-.2-.2-.2-.2-.1-.3l-.1-.3v-.2-.3-.2-.1l-.1-.3v-.3-.1-.3l-.1-.3v-.3-.3l-.1-.3v-.3-.2-.1l0 0 0 0v-.1l0 0-.1-.1 0 0v-.1l0 0v-.1l0 0 0 0v-.1l0 0v-.1l0 0v-.1l0 0v-.1l0 0v-.1l0 0 0 0v-.1l0 0v-.1l0 0v-.1l0 0 .1-.1 0 0v-.1l0 0v-.1l0 0v-.1l0 0 0 0v-.1l0 0v-.1l0 0v-.1-.1-.1l0 0v-.1l.1-.1v-.2-.2l.1-.2v-.2l.1-.2v-.2l.1-.2v-.2l.1-.2v-.2l.1-.2.1-.2v-.2l.1-.2v-.2l.1-.2.1-.2v-.2l.2-.4.1-.4.2-.6.2-.6.2-.3.1-.4.1-.3v-.2l.1-.2.1-.2v-.1l.1-.2v-.2l.1-.2v-.1l.1-.2v-.2l.1-.1v-.2-.2l.1-.1v-.2-.1-.1-.1l0 0 0 0 .1-.2v-.2-.1-.2l.1-.2v-.2l0 0v-.1-.1-.1-.2-.1-.1-.1l.1-.1v-.1-.1-.1-.1l0 0v-.1-.1-.1-.1-.1-.1-.1-.1l0 0v-.1-.1-.1-.1-.1-.1-.1l0 0v-.1-.1-.1-.1-.1-.1-.1-.1l0 0v-.1-.1-.1-.1-.1-.1-.1-.1l0 0v-.1-.1l-.1-.2v-.1-.2-.1-.1-.1-.2l-.1-.2v-.1-.2-.2l-.1-.2v-.1-.2l-.1-.2v-.2-.1-.2l-.1-.2v-.2l-.1-.1v-.2-.2l-.1-.1v-.2l-.1-.2v-.2l-.1-.1v-.2l-.1-.2v-.1l-.1-.2v-.2l-.1-.1-.1-.2v-.2l-.1-.1v-.2l-.1-.1-.1-.2v-.2l-.1-.1-.1-.2-.1-.1v-.1l-.1-.2v-.1l-.1-.2-.1-.1-.1-.2-.1-.1-.1-.2v-.2h-.1l-.1-.1v-.2l-.1-.1-.1-.1-.1-.2-.1-.1-.1-.2-.1-.1-.1-.2-.1-.1-.1-.1-.2-.2-.1-.1-.1-.2-.1-.1-.1-.1-.1-.2-.2-.1-.1-.1-.1-.1-.1-.2-.2-.1-.1-.1-.1-.2-.2-.1-.1-.1-.1-.1-.2-.1-.1-.2-.2-.1-.1-.1-.2-.1-.1-.1-.2-.1-.1-.1-.2-.1-.1-.1-.2-.2-.1-.1-.2-.1h-.1l-.2-.1-.1-.1-.2-.1-.2-.1-.3-.2-.2-.1-.2-.1-.2-.1-.3-.1-.2-.1-.2-.1-.2-.1-.2-.1-.2-.1-.2-.1-.2-.1-.3-.1-.2-.1-.2-.1-.2-.1-.2-.1h-.2l-.2-.1-.3-.1-.2-.1h-.1l-.1-.1h-.2-.1l-.1-.1h-.1-.1l-.1-.1h-.1-.1l-.1-.1h-.1-.2l-.1-.1h-.1l0 0h-.1l0 0h-.1l-.1-.1h-.1-.1-.2l-.1-.1h-.1-.2-.1-.2l-.1-.1h-.2l0 0h-.2-.1l0 0h-.2l0 0-.2-.1h-.1l0 0h-.1-.1-.1l0 0h-.1-.1l0 0h-.1-.1-.1l0 0h-.1-.1-.1l0 0z"/><path d="M42.9 111.9C29.6 115 27.2 107.3 26.8 105.6q-1.5-6.3-.5-12.7.3-1.8 1.6-3.3c1.9-2.1 10.4-2.3 13.6-1.8l3.6 1.1c3.9 1.7 5.3 21.3-2.2 23z" fill="#b7f8ff"/><circle cx="23.3" cy="77.9" r="0.6" fill="#b7f8ff"/><circle cx="23.3" cy="77.9" r="0.6" fill="#b7f8ff"/><circle cx="50.9" cy="78.9" r="0.6" fill="#b7f8ff"/><circle cx="50.9" cy="78.9" r="0.6" fill="#b7f8ff"/><path d="M61 94.5c0 0-4.8 1.5-7.1-.4q-2.9-3.8 1-3.6 3.4 1.4 6 .3c1.6-1 3.1 2.8.1 3.7z" fill="#d6c295" stroke="#000" stroke-width="1.01px"/><g><path d="M37 80.9c-2.6-3.7-7.2 1.5-5.9 5.6 1.6 5.2 5.1 3.1 5.1 3.1q3.4-2.7.8-8.7z"/><path d="M32.9 81.2q0 1.6.5 2.6l1.1.5q2.3-.6 2.2-3-1.6-2.2-3.8-.1z" fill="#ededed"/><path d="M34.8 79.7l0 0 0 0h.1l0 0h.1l0 0 0 0h.1.1l0 0h.1l.1.1 0 0h.1.1.1v.1h.1.1l.1.1 0 0h.1v.1h.1l.1.1 0 0 .1.1h.1v.1h.1l.1.1 0 0 .1.1v.1h.1v.1h.1v.1l.1.1 0 0v.1h.1v.1l0 0 0 0 0 0v.1l0 0 0 0 0 0v.1l0 0 0 0v.1l-.1.1v.1.3.1l-.1.1v.1.2l-.1.1v.1.1.1h-.1v.1.1l0 0-.1.1v.1l0 0v.1l-.1.1v.1l0 0-.1.1v.1h-.1v.1l-.1.1 0 0-.1.1 0 0-.1.1v.1h-.1l-.1.1 0 0-.1.1h-.1l0 0 0 0h-.1v.1l0 0h-.1l0 0 0 0h-.1l0 0 0 0-.1.1 0 0 0 0 0 0h-.1l0 0 0 0 0 0h-.1l0 0 0 0 0 0h-.1l0 0 0 0 0 0 0 0h-.1l0 0v.1l0 0h-.1l0 0 0 0 0 0h-.1l0 0 0 0 0 0h-.1l0 0 0 0 0 0h-.1l0 0 0 0-.1-.1 0 0 0 0h-.1l0 0 0 0h-.1l0 0h-.1l0 0h-.1-.1l0 0 0 0 0 0h-.1l0 0v-.1h-.1l0 0h-.1l0 0h-.1v-.1h-.1l0 0h-.1v-.1h-.1v-.1h-.1v-.1h-.1v-.1l0 0 0 0-.1-.1v-.1l-.1-.1v-.1-.1h-.1v-.1-.1l-.1-.1v-.1-.1l0 0v-.1l0 0-.1-.1v-.1l0 0v-.1l0 0v-.1l0 0v-.1l0 0v-.2-.2-.1l-.1-.4v-.2-.2l0 0 0 0v-.1l0 0 0 0 0 0v-.1l0 0 .1-.1 0 0 .1-.1v-.1l.1-.1h.1v-.1l.1-.1h.1v-.1l.1-.1h.1l.1-.1 0 0 .1-.1h.1l.1-.1h.1.1v-.1h.1.1.1l.1-.1 0 0h.1l0 0h.1.1l0 0 0 0h.1l0 0h.1l0 0 0 0zm-.1 1 0 0h-.1l0 0 0 0 0 0h-.1l0 0 0 0 0 0h-.1l0 0 0 0 0 0h-.1l0 0v.1h-.1l0 0h-.1l0 0h-.1v.1h-.1l0 0-.1.1 0 0h-.1v.1h-.1v.1h-.1v.1h-.1l0 0 0 0v.1.1l.1.3v.2.2.1.1.1l0 0 0 0v.1l0 0 0 0v.1h.1l0 0v.1.1l0 0 0 0v.1l0 0v.1h.1v.1l0 0v.1l0 0v.1h.1v.1l0 0v.1l0 0 0 0 0 0h.1l0 0 0 0 0 0 0 0 0 0 0 0 0 0 0 0 0 0 0 0 0 0 0 0 0 0 0 0 0 0 0 0 0 0 0 0 0 0 0 0h.1v.1l0 0 0 0 0 0 0 0 0 0 0 0 0 0h.1l0 0 0 0 0 0 0 0 0 0 0 0h.1l0 0 0 0h.1l0 0 0 0 0 0h.1l0 0 0 0h.1v.1l0 0h.1l0 0 0 0 0 0 0 0 0 0h.1l0 0 0 0 0 0 0 0 0 0h.1l0 0 0 0 0 0 0 0 0 0 0 0 .1-.1 0 0 0 0 0 0 0 0 0 0 0 0 0 0h.1l0 0 0 0 0 0 0 0 0 0 0 0 0 0 0 0h.1l0 0 0 0 0 0 0 0 0 0 0 0 0 0 0 0h.1l0 0 0 0 0 0 0 0 0 0v-.1l0 0 0 0 0 0 0 0 0 0h.1l0 0 0 0 .1-.1 0 0 0 0h.1v-.1l0 0 0 0 .1-.1 0 0v-.1h.1v-.1l0 0 0 0 .1-.1 0 0v-.1l0 0v-.1l.1-.1 0 0v-.1l0 0 0 0v-.1l.1-.1v-.1-.1-.1l.1-.1v-.2-.1l.1-.2-.1-.1 0 0v-.1h-.1v-.1l0 0h-.1v-.1h-.1l0 0v-.1h-.1l0 0 0 0-.1-.1 0 0h-.1l0 0-.1-.1 0 0h-.1l0 0h-.1l0 0 0 0-.1-.1 0 0 0 0h-.1l0 0 0 0 0 0h-.1l0 0 0 0 0 0h-.1l0 0 0 0 0 0h-.1l0 0 0 0z"/><path d="M35.4 75.3q2.5.3 2.6 1.9-.3 1.6-2.9 1.6-2.5-.3-2.6-1.9.3-1.6 2.9-1.6z"/><path d="M35.1 77.8l0 0h.1l0 0 0 0 0 0 0 0 0 0h.1l0 0 0 0 0 0 .1.1 0 0 0 0h.1v.1l0 0 0 0v.1h.1l0 0 0 0 0 0v.1l0 0 0 0 0 0 0 0 0 0v.1l0 0 0 0v.1l0 0v.1l0 0 0 0v.1l0 0 0 0v.1l0 0 0 0v.1l0 0v.1l-.1.1 0 0v.1.1.2.1l-.1.1v.1.1l0 0v.1l0 0v.1l0 0 0 0v.1l0 0 0 0v.1l0 0 0 0 0 0 0 0v.1h-.1l0 0 0 0v.1l0 0 0 0h-.1v.1l0 0 0 0h-.1v.1h-.1l0 0 0 0 0 0 0 0 0 0h-.1l0 0 0 0 0 0 0 0h-.1l0 0 0 0 0 0 0 0h-.1l0 0 0 0 0 0h-.1v-.1l0 0 0 0h-.1v-.1l0 0h-.1l0 0v-.1l0 0 0 0v-.1l0 0 0 0 0 0 0 0 0 0v-.1l0 0 0 0 0 0 0 0v-.1l0 0v-.1l0 0 0 0v-.1l0 0v-.2-.1-.1l.1-.1v-.2-.1l0 0v-.1-.1l.1-.1 0 0 0 0v-.1l0 0 0 0 0 0v-.1l0 0 0 0v-.1l0 0 0 0v-.1l0 0 0 0 0 0v-.1l0 0 0 0 0 0 0 0v-.1l0 0 0 0 0 0 .1-.1 0 0 0 0v-.1h.1l0 0 0 0v-.1h.1l0 0 0 0 0 0h.1l0 0 0 0 0 0 0 0h.1l0 0 0 0 0 0z"/><path d="M30.9 62.7q.9-.6 1.2-.2.3.5-.5 1.1-.9.6-1.2.2-.3-.5.5-1.1z" fill="#b7f8ff"/><path d="M48 63.3q.8.7.6 1.1-.4.4-1.2-.2-.8-.6-.6-1.1.4-.3 1.2.2z" fill="#b7f8ff"/><path d="M25.6 64.3q5.2-.3 6.5 4.8.2 5.3-4.9 6.5-5.2.2-6.5-4.9-.2-5.2 4.9-6.4z" fill="#fff" stroke="#000" stroke-width="1.01px"/><path d="M27.9 69.8q1.8 0 2.2 1.7.1 1.9-1.7 2.3-1.8.1-2.2-1.7-.1-1.8 1.7-2.3z"/><path d="M28.5 72.2q.6 0 .7.5 0 .5-.5.6-.5 0-.6-.5-.1-.5.4-.6z" fill="#fff"/><path d="M45.8 65.9q5.2-.2 6.4 4.9.3 5.2-4.8 6.5c-3.2.4-6.1-1.8-6.5-4.9q-.3-5.2 4.9-6.5z" fill="#fff" stroke="#000" stroke-width="1.01px"/><path d="M44.9 71q-1.8-.1-2.3 1.7 0 1.9 1.8 2.3 1.8.1 2.2-1.7.1-1.9-1.7-2.3z"/><path d="M44.3 73.3q-.6 0-.7.5 0 .5.5.7.5 0 .6-.5.1-.5-.4-.7z" fill="#fff"/></g><g><rect x="6.8" y="87.8" width="2" height="30.7" fill="#5c5c5c"/><path d="M8.9 86.8h.2l.2.1.2.1.1.2.1.2.1.2v.1.1 30.6.2.2l-.1.2-.1.1-.2.2-.2.1h-.2l-.2.1h-2l-.2-.1h-.2l-.2-.1-.2-.2-.1-.1-.1-.2v-.2-.2-30.6-.2l.1-.2.1-.2.1-.2.2-.1.2-.1h.2.1 2 .1zm-2.1 1v30.7h2v-30.7h-2z"/><circle cx="7.9" cy="85.6" r="2.2" fill="#5c5c5c"/><path d="M7.9 82.3h.1v.1l0 0h.1l0 0h.1l0 0h.1l0 0h.1l0 0h.1l0 0h.1l.1.1h.1l0 0h.1.1l.1.1 0 0h.1l.1.1h.1l0 0 .1.1h.1v.1h.1.1v.1h.1v.1h.1l.1.1 0 0 .1.1v.1h.1v.1h.1v.1h.1v.1l.1.1 0 0 .1.1v.1l0 0 .1.1v.1l0 0 .1.1v.1.1l0 0 .1.1v.1.1l0 0 .1.1v.1l0 0v.1.1l0 0 0 0v.1l0 0v.1l0 0v.1l0 0 0 0v.1l0 0v.1l0 0 0 0v.1l0 0v.1l0 0v.1l0 0v.1l0 0v.1l0 0-.1.1v.1.1l0 0-.1.1v.1.1l0 0-.1.1v.1.1h-.1v.1.1h-.1v.1l-.1.1 0 0-.1.1 0 0-.1.1v.1h-.1v.1h-.1v.1h-.1l-.1.1 0 0-.1.1 0 0-.1.1h-.1l0 0-.1.1h-.1v.1h-.1-.1l-.1.1 0 0h-.1l0 0h-.1l-.1.1 0 0h-.1-.1-.1l0 0-.1.1 0 0h-.1l0 0 0 0h-.1l0 0h-.1l0 0 0 0h-.1l0 0h-.1l0 0 0 0h-.1l0 0h-.1l0 0h-.1l0 0 0 0h-.1l0 0h-.1l0 0h-.1v-.1h-.1l0 0h-.1-.1l0 0h-.1l-.1-.1 0 0h-.1-.1v-.1h-.1-.1l-.1-.1 0 0-.1-.1h-.1l0 0L6 88.2h-.1v-.1h-.1v-.1h-.1l0 0-.1-.1v-.1h-.1v-.1h-.1v-.1l-.1-.1 0 0-.1-.1 0 0-.1-.1v-.1l0 0L5 87.1v-.1l0 0-.1-.1v-.1-.1h-.1v-.1-.1-.1l0 0-.1-.1v-.1l0 0v-.1-.1l0 0 0 0v-.1l0 0v-.1l0 0v-.1l0 0 0 0v-.1l0 0v-.1l0 0v-.1l0 0 0 0v-.1l0 0v-.1l0 0 0 0v-.1-.1l0 0v-.1-.1h.1v-.1-.1-.1h.1v-.1-.1-.1h.1v-.1-.1h.1v-.1l0 0 .1-.1v-.1h.1v-.1h.1v-.1l.1-.1 0 0 .1-.1 0 0 .1-.1 0 0 .1-.1h.1v-.1h.1v-.1h.1l.1-.1 0 0h.1l.1-.1 0 0 .1-.1h.1.1v-.1h.1.1.1l0 0h.1l.1-.1 0 0h.1.1l0 0 0 0h.1l0 0h.1l0 0v-.1h.1l0 0h.1l0 0h.1l0 0 0 0zm0 1.1h-.1l0 0 0 0h-.1l0 0 0 0 0 0h-.1l0 0 0 0h-.1l0 0 0 0 0 0h-.1l0 0 0 0h-.1l0 0-.1.1 0 0 0 0h-.1l0 0h-.1l0 0v.1h-.1l0 0h-.1v.1h-.1l0 0-.1.1 0 0h-.1l0 0v.1h-.1v.1h-.1l0 0v.1h-.1l0 0v.1h-.1v.1l0 0-.1.1 0 0 0 0v.1h-.1l0 0v.1l0 0v.1h-.1v.1l0 0v.1l0 0 0 0v.1h-.1l0 0 0 0v.1l0 0v.1l0 0 0 0 0 0v.1l0 0 0 0 0 0v.1l0 0 0 0v.1l0 0 0 0 0 0v.1l0 0 0 0v.1l0 0 0 0v.1l0 0 0 0 0 0v.1l0 0 0 0 0 0v.1l0 0 0 0 0 0v.1l0 0 .1.1 0 0 0 0v.1l0 0v.1l0 0 .1.1 0 0v.1l0 0 .1.1 0 0v.1l0 0 .1.1 0 0 0 0 .1.1 0 0v.1h.1v.1l0 0h.1v.1h.1l0 0 .1.1 0 0 0 0 .1.1 0 0h.1l0 0 .1.1 0 0h.1l0 0 .1.1 0 0h.1l0 0 0 0h.1l0 0 .1.1 0 0 0 0h.1l0 0 0 0 0 0h.1l0 0 0 0h.1l0 0 0 0 0 0h.1l0 0 0 0h.1l0 0 0 0 0 0h.1l0 0 0 0h.1l0 0 0 0 0 0h.1l0 0 0 0 0 0h.1l0 0 0 0h.1l0 0v-.1h.1l0 0h.1l0 0 0 0h.1v-.1h.1l0 0h.1v-.1h.1l0 0h.1v-.1h.1l0 0 .1-.1 0 0 0 0 .1-.1 0 0h.1v-.1l0 0 .1-.1 0 0v-.1h.1l0 0v-.1h.1v-.1l0 0v-.1h.1v-.1l0 0v-.1h.1v-.1l0 0 0 0v-.1l0 0 0 0v-.1l0 0 .1-.1 0 0 0 0v-.1l0 0 0 0 0 0v-.1l0 0 0 0 0 0v-.1l0 0 0 0v-.1l0 0 0 0v-.1l0 0 0 0 0 0v-.1l0 0 0 0v-.1l0 0 0 0 0 0v-.1l0 0 0 0 0 0v-.1h-.1v-.1l0 0 0 0 0 0v-.1l0 0 0 0v-.1l0 0v-.1h-.1v-.1l0 0v-.1h-.1l0 0v-.1l0 0-.1-.1 0 0v-.1h-.1v-.1l0 0h-.1v-.1h-.1v-.1l0 0h-.1v-.1h-.1l0 0v-.1h-.1l0 0h-.1v-.1h-.1l0 0h-.1v-.1h-.1l0 0h-.1l0 0h-.1l0 0v-.1h-.1l0 0 0 0h-.1l0 0 0 0h-.1l0 0 0 0 0 0h-.1l0 0 0 0 0 0h-.1l0 0 0 0v-.1h-.1l0 0 0 0z"/><path d="M13.7 117.4q0-.7-.7-.7h-10.2q-.7 0-.7.7v1.5q0 .7.7.7h10.2q.7 0 .7-.7v-1.5z" fill="#5c5c5c"/><path d="M13 115.7h.1l0 0h.1l0 0 0 0h.1.1l.1.1h.1.1l0 0 .1.1h.1l.1.1 0 0 .1.1h.1v.1h.1v.1l.1.1 0 0 .1.1v.1l.1.1 0 0v.1l.1.1v.1.1l0 0v.1l0 0v.1l0 0v.1l0 0v1.5l0 0v.1l0 0v.1l0 0v.1l0 0v.1.1l-.1.1v.1l0 0-.1.1v.1l-.1.1 0 0-.1.1v.1h-.1v.1h-.1l-.1.1 0 0-.1.1h-.1l-.1.1 0 0h-.1-.1l-.1.1 0 0h-.1-.1l0 0 0 0h-.1l0 0h-.1l0 0h-10.2-.1l0 0 0 0h-.1l0 0h-.1-.1l0 0h-.1l-.1-.1 0 0h-.1l-.1-.1h-.1v-.1h-.1-.1v-.1l-.1-.1h-.1v-.1h-.1v-.1h-.1v-.1l-.1-.1v-.1l0 0-.1-.1v-.1-.1-.1l0 0v-.1h-.1v-.1l0 0v-.1l0 0v-1.5l0 0v-.1l0 0v-.1h.1v-.1l0 0v-.1-.1-.1l.1-.1 0 0v-.1l.1-.1v-.1h.1v-.1l.1-.1h.1v-.1h.1v-.1h.1l.1-.1h.1v-.1h.1.1.1l.1-.1 0 0h.1.1l0 0h.1l0 0 0 0h.1 10.2l0 0zm-10.2 1 0 0 0 0h-.1l0 0 0 0 0 0 0 0h-.1l0 0 0 0 0 0 0 0h-.1l0 0v.1l0 0h-.1l0 0 0 0 0 0h-.1v.1l0 0h-.1l0 0v.1l0 0 0 0-.1.1 0 0 0 0 0 0 0 0v.1l0 0 0 0 0 0 0 0 0 0v.1l0 0 0 0 0 0 0 0v.1l0 0 0 0 0 0v1.5l0 0 0 0 0 0v.1l0 0 0 0 0 0 0 0 0 0v.1l0 0 0 0 0 0 0 0 0 0v.1l0 0 0 0h.1v.1l0 0 0 0v.1h.1l0 0 0 0v.1h.1l0 0 0 0h.1v.1l0 0 0 0h.1l0 0 0 0 0 0 0 0 0 0h.1l0 0 0 0 0 0 0 0h.1l0 0 0 0h10.2l0 0 0 0 0 0h.1l0 0 0 0 0 0 0 0 0 0h.1l0 0 0 0 0 0 0 0h.1l0 0v-.1l0 0h.1l0 0 0 0 .1-.1 0 0 0 0 0 0 .1-.1 0 0 0 0 0 0v-.1l0 0h.1l0 0v-.1l0 0 0 0 0 0 0 0v-.1l0 0 0 0 0 0 0 0 0 0v-.1l0 0 0 0 0 0v-1.5l0 0 0 0 0 0v-.1l0 0 0 0 0 0 0 0v-.1l0 0 0 0 0 0 0 0 0 0v-.1l0 0h-.1l0 0v-.1l0 0 0 0 0 0 0 0-.1-.1 0 0 0 0 0 0-.1-.1 0 0 0 0h-.1l0 0 0 0v-.1h-.1l0 0 0 0 0 0 0 0h-.1l0 0 0 0 0 0 0 0h-.1l0 0 0 0 0 0h-10.2z"/></g><g><rect x="69.5" y="87.9" width="2" height="30.7" fill="#5c5c5c"/><path d="M71.6 86.9l.2.1.2.1.2.1.1.1.1.2.1.2v.2 30.7.2l-.1.2-.1.2-.1.2-.2.1-.2.1h-.2-.1-2-.2l-.2-.1-.2-.1-.1-.1-.2-.2-.1-.2v-.2-.1-30.7-.2l.1-.2.1-.2.1-.1.2-.1.2-.1.2-.1h.1 2 .1zm-2.1 1v30.7h2v-30.7h-2z"/><circle cx="70.5" cy="86.2" r="2.2" fill="#5c5c5c"/><path d="M70.6 82.9l0 0 0 0h.1l0 0h.1l0 0v.1h.1l0 0h.1.1l0 0h.1l0 0 0 0h.1l.1.1h.1.1l0 0 .1.1h.1.1v.1h.1.1v.1h.1.1v.1h.1l.1.1 0 0 .1.1 0 0 .1.1h.1v.1h.1v.1l.1.1 0 0 .1.1 0 0 .1.1v.1l0 0 .1.1v.1h.1v.1.1h.1v.1.1h.1v.1.1.1l.1.1 0 0v.1.1l0 0v.1l0 0v.1l0 0 0 0v.1l0 0v.1l0 0h.1v.1l0 0v.1l0 0v.1l0 0h-.1v.1l0 0v.1l0 0 0 0v.1l0 0v.1l0 0v.1.1l0 0v.1l-.1.1 0 0v.1.1l-.1.1 0 0v.1l-.1.1 0 0v.1l-.1.1 0 0-.1.1v.1l0 0-.1.1v.1h-.1v.1h-.1v.1l-.1.1 0 0-.1.1h-.1v.1h-.1v.1h-.1l-.1.1 0 0h-.1l-.1.1 0 0-.1.1h-.1l0 0-.1.1h-.1-.1l0 0-.1.1h-.1-.1-.1l0 0 0 0-.1.1 0 0h-.1l0 0h-.1l0 0h-.1l0 0 0 0h-.1l0 0h-.1l0 0 0 0h-.1l0 0h-.1l0 0h-.1l0 0 0 0h-.1l0 0h-.1l0 0 0 0h-.1l0 0-.1-.1 0 0h-.1-.1l0 0h-.1l-.1-.1h-.1l0 0h-.1l-.1-.1h-.1l0 0L69 89h-.1l0 0-.1-.1h-.1v-.1h-.1l-.1-.1 0 0-.1-.1 0 0-.1-.1h-.1v-.1h-.1v-.1h-.1v-.1l-.1-.1 0 0-.1-.1v-.1l0 0-.1-.1v-.1h-.1v-.1-.1h-.1v-.1-.1-.1h-.1v-.1-.1-.1h-.1v-.1-.1l0 0 0 0v-.1l0 0v-.1l0 0 0 0v-.1l0 0v-.1l0 0 0 0v-.1l0 0v-.1l0 0v-.1l0 0 0 0v-.1l0 0v-.1l0 0 0 0v-.1l0 0v-.1l0 0v-.1l0 0 .1-.1v-.1-.1l0 0 .1-.1v-.1-.1l0 0 .1-.1v-.1l0 0 .1-.1v-.1h.1v-.1-.1h.1v-.1l.1-.1 0 0 .1-.1 0 0 .1-.1 0 0 .1-.1h.1v-.1l.1-.1 0 0h.1l.1-.1 0 0 .1-.1h.1v-.1h.1.1v-.1h.1.1l.1-.1 0 0h.1.1l.1-.1 0 0h.1.1l0 0h.1l0 0h.1l0 0 0 0h.1v-.1h.1l0 0 0 0h.1l0 0h.1l0 0h.1zm-.1 1 0 0h-.1l0 0v.1h-.1l0 0 0 0 0 0h-.1l0 0 0 0 0 0h-.1l0 0 0 0h-.1l0 0 0 0h-.1l0 0 0 0-.1.1 0 0 0 0h-.1l0 0h-.1v.1h-.1l0 0h-.1v.1h-.1l0 0 0 0-.1.1 0 0h-.1v.1h-.1l0 0v.1h-.1v.1h-.1l0 0v.1h-.1v.1l0 0h-.1v.1l0 0v.1h-.1v.1l0 0v.1h-.1v.1l0 0v.1l0 0v.1l0 0h-.1v.1l0 0v.1l0 0 0 0 0 0v.1l0 0 0 0 0 0v.1l0 0 0 0v.1l0 0 0 0 0 0v.1l0 0 0 0v.1l0 0 0 0 0 0v.1l0 0 0 0v.1l0 0 0 0 0 0v.1l0 0 0 0v.1l0 0 .1.1 0 0 0 0v.1l0 0v.1l0 0 .1.1 0 0v.1l0 0 .1.1 0 0 0 0v.1h.1v.1l0 0 .1.1 0 0 0 0 .1.1 0 0 .1.1 0 0 0 0 .1.1 0 0h.1v.1h.1l0 0v.1h.1l0 0h.1v.1h.1l0 0h.1v.1h.1l0 0 0 0h.1l0 0 0 0h.1l0 0 .1.1 0 0 0 0h.1l0 0 0 0 0 0h.1l0 0 0 0 0 0h.1l0 0 0 0h.1l0 0 0 0 0 0h.1l0 0 0 0h.1l0 0 0 0 0 0h.1l0 0 0 0h.1l0 0 0 0 0 0h.1v-.1l0 0h.1l0 0h.1l0 0 0 0h.1v-.1h.1l0 0h.1l0 0 .1-.1 0 0h.1v-.1h.1l0 0 0 0 .1-.1 0 0h.1v-.1h.1v-.1l0 0h.1v-.1l0 0 .1-.1 0 0 0 0 .1-.1 0 0v-.1l0 0 .1-.1 0 0v-.1l0 0 .1-.1 0 0v-.1l0 0v-.1h.1l0 0v-.1l0 0 0 0v-.1l0 0 0 0 0 0v-.1l0 0 0 0 0 0v-.1l0 0 0 0v-.1l0 0 0 0 0 0v-.1l0 0 0 0v-.1l0 0 0 0 0 0v-.1l0 0 0 0v-.1l0 0 0 0 0 0v-.1l0 0 0 0 0 0v-.1l0 0 0 0v-.1l0 0 0 0v-.1h-.1v-.1l0 0v-.1l0 0-.1-.1 0 0v-.1l0 0-.1-.1 0 0v-.1h-.1l0 0v-.1l0 0-.1-.1 0 0h-.1v-.1l0 0-.1-.1 0 0 0 0-.1-.1 0 0h-.1v-.1h-.1l0 0h-.1v-.1h-.1l0 0 0 0-.1-.1 0 0h-.1l0 0h-.1v-.1l0 0h-.1l0 0h-.1l0 0 0 0 0 0h-.1l0 0 0 0 0 0h-.1l0 0v-.1h-.1l0 0 0 0 0 0h-.1l0 0 0 0h-.1l0 0 0 0z"/><path d="M76.5 117.4q0-.7-.7-.7h-10.2q-.7 0-.8.7v1.5q.1.7.8.7h10.2q.7 0 .7-.7v-1.5z" fill="#5c5c5c"/><path d="M75.8 115.7h.1l0 0h.1l0 0h.1l0 0h.1l.1.1h.1.1l0 0 .1.1h.1l.1.1 0 0 .1.1h.1v.1h.1v.1l.1.1 0 0 .1.1v.1.1h.1v.1.1l.1.1v.1l0 0v.1l0 0v.1l0 0v.1l0 0v1.5l0 0v.1l0 0v.1l0 0v.1l0 0v.1l-.1.1v.1.1h-.1v.1.1l-.1.1 0 0-.1.1v.1h-.1v.1h-.1l-.1.1 0 0-.1.1h-.1l-.1.1 0 0h-.1-.1l-.1.1 0 0h-.1l0 0h-.1l0 0h-.1l0 0h-.1l0 0h-10.2-.1l0 0h-.1l0 0 0 0h-.1-.1l0 0h-.1l-.1-.1h-.1l0 0-.1-.1h-.1l-.1-.1 0 0h-.1l-.1-.1v-.1h-.1v-.1h-.1v-.1l-.1-.1v-.1h-.1v-.1-.1l-.1-.1 0 0v-.1-.1-.1h-.1l0 0v-.1l0 0v-.1l0 0v-1.5l0 0v-.1l0 0v-.1l0 0 .1-.1 0 0v-.1-.1l0 0 .1-.1v-.1-.1l.1-.1 0 0 .1-.1v-.1h.1v-.1l.1-.1 0 0 .1-.1h.1v-.1h.1.1l.1-.1 0 0h.1l.1-.1h.1.1l0 0h.1l0 0 0 0h.1l0 0h.1 10.2l0 0zm-10.2 1 0 0h-.1l0 0 0 0 0 0 0 0 0 0h-.1l0 0 0 0 0 0 0 0h-.1l0 0v.1l0 0h-.1l0 0 0 0h-.1l0 0v.1l0 0h-.1l0 0v.1l0 0 0 0h-.1v.1l0 0 0 0 0 0v.1l0 0 0 0 0 0 0 0v.1l0 0 0 0 0 0 0 0v.1l0 0 0 0 0 0v1.5l0 0 0 0 0 0v.1l0 0 0 0 0 0 0 0 0 0v.1l0 0 0 0 0 0 0 0v.1l0 0 0 0 0 0 .1.1 0 0 0 0v.1h.1l0 0 0 0v.1h.1l0 0 0 0h.1v.1l0 0 0 0h.1l0 0 0 0 0 0 0 0 0 0h.1l0 0 0 0 0 0 0 0 0 0h.1l0 0h10.2l0 0 0 0 0 0h.1l0 0 0 0 0 0 0 0 0 0h.1l0 0 0 0 0 0 0 0h.1l0 0v-.1l0 0h.1l0 0 0 0 .1-.1 0 0 0 0 0 0 .1-.1 0 0 0 0v-.1l0 0 0 0h.1v-.1l0 0 0 0 0 0 0 0 0 0v-.1l0 0 0 0 0 0 0 0 0 0v-.1l0 0 0 0 0 0v-1.5l0 0 0 0 0 0v-.1l0 0 0 0 0 0 0 0v-.1l0 0 0 0 0 0 0 0 0 0 0 0-.1-.1 0 0 0 0v-.1l0 0 0 0 0 0-.1-.1 0 0 0 0 0 0-.1-.1 0 0 0 0h-.1l0 0 0 0 0 0-.1-.1 0 0 0 0 0 0 0 0 0 0h-.1l0 0 0 0 0 0 0 0h-.1l0 0 0 0 0 0h-10.2z"/></g><g><rect x="132.3" y="87.2" width="2" height="30.7" fill="#5c5c5c"/><path d="M134.4 86.2h.2l.2.1.1.2.2.1.1.2v.2l.1.1v.1 30.7.1l-.1.2-.1.2-.1.2-.1.1-.2.1-.2.1h-.1-.1-2-.2l-.2-.1h-.2l-.1-.2-.2-.1-.1-.2v-.2l-.1-.1v-.1-30.7-.1l.1-.2.1-.2.1-.2.2-.1.1-.1.2-.1h.3 2 .1zm-2.1 1v30.7h2v-30.7h-2z"/><circle cx="133.3" cy="85.4" r="2.2" fill="#5c5c5c"/><path d="M133.3 82.2l0 0h.1l0 0h.1l0 0 0 0h.1l0 0h.1l0 0 0 0 .1.1h.1l0 0h.1.1.1l.1.1 0 0h.1.1l.1.1 0 0h.1l.1.1 0 0 .1.1h.1l0 0 .1.1h.1v.1h.1v.1h.1l.1.1 0 0 .1.1 0 0 .1.1v.1h.1v.1h.1v.1l.1.1 0 0v.1l.1.1 0 0 .1.1v.1l0 0v.1l.1.1v.1l0 0 .1.1v.1.1l0 0v.1.1h.1v.1l0 0v.1l0 0 0 0v.1l0 0v.1l0 0v.1l0 0 0 0v.1l0 0v.1l0 0v.1l0 0 0 0v.1l0 0v.1l0 0 0 0-.1.1v.1l0 0v.1.1.1h-.1v.1.1l-.1.1 0 0v.1.1l-.1.1 0 0-.1.1v.1l0 0-.1.1 0 0-.1.1v.1h-.1v.1h-.1v.1l-.1.1 0 0-.1.1h-.1v.1h-.1v.1h-.1-.1v.1h-.1l-.1.1 0 0h-.1l-.1.1h-.1l0 0-.1.1h-.1l0 0h-.1l-.1.1h-.1-.1l0 0h-.1-.1l0 0v.1h-.1l0 0h-.1l0 0 0 0h-.1l0 0h-.1l0 0 0 0h-.1l0 0h-.1l0 0 0 0h-.1l0 0h-.1l0 0 0 0-.1-.1 0 0h-.1l0 0h-.1-.1-.1l-.1-.1 0 0h-.1-.1l-.1-.1 0 0h-.1l-.1-.1 0 0h-.1l-.1-.1 0 0-.1-.1h-.1l0 0-.1-.1h-.1v-.1h-.1v-.1h-.1v-.1l-.1-.1h-.1v-.1h-.1v-.1-.1h-.1v-.1h-.1v-.1l-.1-.1 0 0v-.1l-.1-.1v-.1l0 0-.1-.1v-.1-.1l0 0-.1-.1v-.1-.1l0 0v-.1-.1l0 0h-.1v-.1l0 0v-.1l0 0 0 0v-.1l0 0v-.1l0 0v-.1l0 0 0 0v-.1l0 0v-.1l0 0v-.1l0 0 0 0v-.1h.1v-.1l0 0v-.1-.1l0 0v-.1l.1-.1v-.1l0 0v-.1l.1-.1v-.1l0 0 .1-.1v-.1l0 0 .1-.1v-.1h.1v-.1l.1-.1 0 0v-.1h.1v-.1l.1-.1h.1v-.1h.1v-.1h.1v-.1h.1l.1-.1 0 0 .1-.1h.1l0 0 .1-.1h.1v-.1h.1.1v-.1h.1.1.1v-.1h.1.1.1.1l0 0 .1-.1 0 0h.1l0 0 0 0h.1l0 0h.1l0 0 0 0h.1l0 0h.1zm-.1 1 0 0 0 0 0 0h-.1l0 0 0 0h-.1l0 0 0 0h-.1l0 0 0 0v.1h-.1l0 0 0 0h-.1l0 0h-.1l0 0 0 0h-.1v.1h-.1l0 0h-.1l0 0-.1.1 0 0h-.1l0 0v.1h-.1l0 0-.1.1 0 0h-.1v.1l0 0h-.1v.1h-.1l0 0v.1h-.1v.1l0 0-.1.1 0 0 0 0v.1h-.1v.1l0 0v.1h-.1v.1l0 0v.1h-.1v.1l0 0 0 0v.1l0 0 0 0v.1l0 0 0 0v.1l0 0 0 0 0 0-.1.1 0 0 0 0 0 0v.1l0 0 0 0v.1l0 0 0 0 0 0v.1l0 0 0 0v.1l0 0 0 0 0 0v.1l0 0 0 0 .1.1 0 0 0 0 0 0v.1l0 0 0 0 0 0v.1l0 0v.1l0 0 0 0 .1.1 0 0v.1l0 0v.1h.1v.1l0 0v.1h.1v.1l0 0 .1.1 0 0 0 0 .1.1 0 0v.1h.1l0 0v.1h.1l0 0 .1.1 0 0 0 0 .1.1 0 0h.1v.1h.1l0 0h.1v.1h.1l0 0h.1l0 0 .1.1 0 0 0 0h.1l0 0h.1l0 0 0 0 0 0h.1l0 0 0 0 0 0 .1.1 0 0 0 0h.1l0 0 0 0h.1l0 0 0 0 0 0h.1l0 0 0 0h.1l0 0 0 0 0 0h.1l0 0 0 0 0 0 .1-.1 0 0 0 0h.1l0 0 0 0 0 0h.1l0 0 0 0h.1l0 0h.1v-.1h.1l0 0h.1l0 0 .1-.1 0 0 0 0h.1v-.1h.1l0 0 .1-.1 0 0h.1v-.1l0 0h.1v-.1h.1l0 0v-.1h.1v-.1l0 0h.1v-.1l0 0 .1-.1 0 0v-.1l0 0 .1-.1 0 0v-.1l0 0v-.1h.1v-.1l0 0 0 0v-.1l0 0v-.1l0 0 0 0 0 0 .1-.1 0 0 0 0 0 0v-.1l0 0 0 0v-.1l0 0 0 0 0 0v-.1l0 0 0 0v-.1l0 0 0 0 0 0v-.1l0 0 0 0v-.1l0 0 0 0 0 0v-.1l0 0 0 0 0 0-.1-.1 0 0 0 0v-.1l0 0 0 0v-.1l0 0 0 0v-.1h-.1v-.1l0 0v-.1l0 0-.1-.1 0 0v-.1l0 0-.1-.1 0 0v-.1h-.1v-.1l0 0h-.1v-.1l0 0h-.1v-.1h-.1v-.1l0 0h-.1v-.1h-.1l0 0h-.1v-.1h-.1l0 0v-.1h-.1l0 0h-.1l0 0-.1-.1 0 0h-.1l0 0h-.1l0 0 0 0h-.1l0 0 0 0 0 0-.1-.1 0 0 0 0h-.1l0 0 0 0 0 0h-.1l0 0 0 0 0 0h-.1l0 0 0 0h-.1z"/><path d="M139.3 116.7q-.1-.7-.8-.7h-10.2q-.6 0-.7.7v1.5q.1.6.7.7h10.2q.7-.1.8-.7v-1.5z" fill="#5c5c5c"/><path d="M138.6 114.9v.1h.1l0 0h.1l0 0h.1.1.1l0 0 .1.1h.1l.1.1 0 0h.1l.1.1 0 0 .1.1.1.1 0 0 .1.1 0 0 .1.1v.1l.1.1 0 0v.1l.1.1v.1l0 0v.1.1l.1.1 0 0v.1l0 0v.1l0 0v1.5l0 0v.1l0 0 0 0v.1l-.1.1 0 0v.1.1.1h-.1v.1.1l-.1.1 0 0-.1.1v.1h-.1v.1l-.1.1h-.1v.1h-.1l-.1.1 0 0h-.1l-.1.1h-.1l0 0-.1.1h-.1-.1l0 0 0 0h-.1l0 0h-.1l0 0h-.1-10.2l0 0h-.1l0 0 0 0h-.1l0 0h-.1-.1v-.1h-.1-.1-.1l-.1-.1 0 0-.1-.1h-.1v-.1h-.1l-.1-.1 0 0-.1-.1v-.1h-.1v-.1l-.1-.1 0 0-.1-.1v-.1-.1-.1h-.1v-.1-.1l0 0v-.1l0 0 0 0v-.1l0 0v-1.5-.1l0 0 0 0v-.1l0 0v-.1-.1l0 0 .1-.1v-.1-.1l.1-.1 0 0v-.1l.1-.1v-.1h.1v-.1h.1l.1-.1v-.1h.1l.1-.1 0 0h.1l.1-.1h.1l0 0 .1-.1h.1.1.1l0 0h.1l0 0 0 0 .1-.1 0 0h10.2.1zM128.3 116l0 0 0 0 0 0h-.1l0 0 0 0 0 0 0 0 0 0h-.1l0 0 0 0 0 0 0 0 0 0h-.1l0 0 0 0v.1h-.1l0 0 0 0h-.1v.1l0 0 0 0h-.1v.1l0 0 0 0v.1l0 0h-.1l0 0v.1l0 0 0 0 0 0 0 0 0 0v.1l0 0 0 0 0 0 0 0 0 0v.1l0 0v1.5l0 0 0 0 0 0 0 0 0 0v.1l0 0 0 0 0 0 0 0v.1l0 0 0 0 0 0 0 0 .1.1 0 0 0 0 0 0v.1l0 0h.1v.1l0 0 0 0h.1v.1l0 0h.1l0 0 0 0 0 0h.1l0 0 0 0v.1l0 0h.1l0 0 0 0 0 0 0 0 0 0h.1l0 0 0 0 0 0h10.2l0 0h.1l0 0 0 0 0 0 0 0h.1l0 0 0 0 0 0 0 0 .1-.1 0 0 0 0 0 0h.1l0 0 0 0 0 0h.1v-.1l0 0 0 0h.1v-.1l0 0 0 0 .1-.1 0 0 0 0 0 0 0 0v-.1l0 0 0 0 0 0 0 0v-.1l0 0h.1l0 0 0 0v-.1l0 0 0 0 0 0 0 0 0 0v-1.5l0 0 0 0v-.1l0 0 0 0 0 0 0 0v-.1h-.1l0 0 0 0 0 0 0 0v-.1l0 0 0 0 0 0v-.1l0 0h-.1l0 0v-.1l0 0 0 0-.1-.1 0 0 0 0h-.1l0 0v-.1l0 0h-.1l0 0 0 0 0 0 0 0 0 0h-.1l0 0 0 0 0 0 0 0h-.1l0 0 0 0 0 0 0 0h-.1l0 0h-10.2z"/></g><path d="M6.3 95.3q.6.7 2.8.2c1.3 0 14.9 3.9 27.2 3.6 23-.7 32.6-4.4 32.6-4.4l3.4.1.1 1.7L69 96.3c0 0-11.4 4.6-32.7 4.7C18.9 101.2 9.1 97.3 9.1 97.3q-1.2.4-2.9-.2-.3-1.5.1-1.8z" fill="#be2800" stroke="#000" stroke-width="1.01px"/><path d="M69.1 94.6q.5.7 2.8.2c1.3 0 14.8 3.9 27.2 3.6 23-.7 32.5-4.4 32.5-4.4h3.5v1.8l-3.3-.2c0 0-11.5 4.6-32.8 4.7-17.3.1-27.2-3.8-27.2-3.8q-1.1.5-2.9-.1-.2-1.5.2-1.8z" fill="#be2800" stroke="#000" stroke-width="1.01px"/></g></g><g fill="#a52828"><path d="M60.9 23.1q.8-.2.8-1v-2h-2.5-4.5-2.5v2q0 .8.8 1l.7.1 1 .2v7.1h-11.3v-7.1l1-.2.7-.1q.8-.2.8-1v-2h-2.5-4.5-2.6v2q0 .8.9 1l.7.1 1 .2v17.5l-1 .2-.7.1q-.9.2-.9 1v2h9.6v-2q0-.8-.8-1l-.7-.1-1-.2v-7.2h11.3v7.2l-1 .2-.7.1q-.8.2-.8 1v2h9.5v-2q0-.8-.8-1l-.7-.1-1-.2v-17.5l1-.2.7-.1z"/><path d="M65.6 20.1h-2.6v2q0 .8.9 1l.7.1 1 .2v17.5l-1 .2-.7.1q-.9.2-.9 1v2h17.7v-2.3-1.3-2.8h-.1-.4-1.4q-.6.1-.8.7 0 .4-.2 2.1h-7.8v-6.8h8.2v-3.5h-8.2v-6.6h7.8q.2 1.7.2 2.1.2.6.8.6h1.9v-2.7-1.3-2.3h-15.1z"/><path d="M104.6 20.1h-.6-1.4-2-4.5v2q0 .8.9 1l.4.1.5.1-3.1 5.9-.7 1.3-.5 1.3-.5-1.3-.7-1.3-3.2-5.9.5-.1.5-.1q.8-.2.8-1v-2h-4.5-1.9-1.4-.6-.6v2q0 .8.9 1l.7.1 1 .2 6.7 11.4v6.1l-.9.2-.8.1q-.8.2-.8 1v2h9.5v-2q0-.8-.8-1l-.7-.1-1-.2v-6.1l6.8-11.4 1-.2.7-.1q.8-.2.8-1v-2h-.5z"/><path d="M110.8 20.1h-3.9v9.5l.1 3 .4 3.1h2.8l.4-3.1.2-3v-9.5zm-4.5 21.8.1 1 .6.8.8.5 1 .2 1-.2.7-.5.6-.8.2-1-.2-1-.6-.8-.7-.5-1-.2-1 .2-.8.5-.6.8-.1 1z"/></g></svg>