<?xml version="1.0" encoding="UTF-8" standalone="no"?><svg xmlns="http://www.w3.org/2000/svg" xmlns:serif="http://www.serif.com/" viewBox="0 0 144 144" version="1.1" xml:space="preserve" fill-rule="evenodd" clip-rule="evenodd" stroke-linecap="round" stroke-linejoin="round" stroke-miterlimit="1.5"><rect id="" serif:id="" x="0" y="0" fill="none"/><g><path d="M16 58.6c0 0 2-2.1 2.7 2.9" fill="none" stroke="#61e0ee" stroke-width="0.85px"/><path d="M22.8 58.1c0 0-1.9-2-2.5 3.2" fill="none" stroke="#61e0ee" stroke-width="0.85px"/><path d="M17.7 56.4c0 0 2.2-1.4 1.8 4.3" fill="none" stroke="#61e0ee" stroke-width="0.85px"/><path d="M8.9 106.6c0 0 .3-4.2 2.5-5.4q3.8-1.2 2.5 1.9-2.1 2.2-2 4.5c.3 1.6-3.1 1.7-3-1z" fill="#d6c295" stroke="#000" stroke-width="0.85px"/><path d="M29.9 108.3c0 0 2.2-3.5 1.1-5.8q-2.5-3.1-3.1.1.4 3-1.1 4.8c-1.1 1.1 1.7 3.2 3.1.9z" fill="#d6c295" stroke="#000" stroke-width="0.85px"/><path d="M33.2 71.2q.5-.9 1.4-1.3c4.8-2 3.2 3.5.4 3.3" fill="#61e0ee"/><path d="M36.4 68.9h.1l0 0h.1l0 0 0 0h.1l0 0h.1l0 0h.1.1v.1h.1.1.1v.1h.1.1v.1h.1v.1h.1v.1h.1v.1h.1v.1h.1v.1.1h.1v.1l0 0v.1l.1.1 0 0v.1l0 0 0 0v.1l0 0 0 0v.1l0 0 0 0v.1l0 0 0 0v.1l0 0 0 0v.1l0 0 0 0v.1l0 0 0 0v.1l0 0 0 0v.1l0 0 0 0v.1l0 0v.1h-.1v.1.1l0 0v.1l-.1.1 0 0v.1l0 0-.1.1v.1l0 0-.1.1v.1l0 0-.1.1 0 0v.1l-.1.1 0 0-.1.1 0 0-.1.1 0 0v.1h-.1v.1h-.1l-.1.1v.1h-.1l0 0-.1.1 0 0-.1.1 0 0-.1.1h-.1v.1h-.1-.1v.1h-.1-.1v.1h-.1-.1-.1v.1h-.1-.1-.1l0 0 0 0h-.1-.1v.1l0 0h-.1l0 0h-.1l0 0 0 0h-.1l0 0h-.1l0 0 0 0h-.1l0 0 0 0-.1-.1h-.1l0 0h-.1v-.1h-.1v-.1l0 0-.1-.1 0 0v-.1l0 0 0 0v-.1l0 0 0 0v-.1l0 0v-.1l0 0 0 0 .1-.1 0 0v-.1h.1v-.1h.1.1v-.1l0 0h.1l0 0 0 0h.1l0 0 0 0h.1l0 0 0 0 0 0h.1l0 0 0 0 0 0 0 0h.1l0 0 0 0 0 0h.1l0 0 0 0 0 0h.1l0 0 0 0 0 0h.1l0 0 0 0 .1-.1 0 0 0 0h.1l0 0 0 0 .1-.1 0 0h.1l0 0 .1-.1 0 0 0 0h.1v-.1l0 0h.1v-.1h.1l0 0v-.1h.1l0 0v-.1h.1v-.1l0 0h.1v-.1l0 0v-.1h.1v-.1l0 0 0 0 .1-.1 0 0v-.1l0 0h.1v-.1l0 0v-.1l0 0 0 0v-.1l0 0 0 0 0 0 .1-.1 0 0 0 0 0 0 0 0v-.1l0 0 0 0 0 0 0 0v-.1l0 0 0 0 0 0 0 0 0 0v-.1l0 0 0 0 0 0 0 0 0 0v-.1l0 0 0 0 0 0 0 0 0 0 0 0v-.1l0 0 0 0 0 0 0 0 0 0 0 0 0 0v-.1l0 0 0 0 0 0 0 0 0 0 0 0h-.1l0 0 0 0v-.1l0 0 0 0 0 0 0 0 0 0 0 0 0 0 0 0 0 0 0 0 0 0 0 0 0 0-.1-.1 0 0 0 0 0 0 0 0 0 0 0 0 0 0 0 0h-.1l0 0 0 0 0 0 0 0 0 0 0 0v-.1h-.1l0 0 0 0 0 0 0 0 0 0h-.1l0 0 0 0 0 0h-.1l0 0 0 0 0 0 0 0h-.1l0 0 0 0h-.1l0 0 0 0 0 0h-.1l0 0 0 0h-.1l0 0 0 0h-.1l0 0 0 0h-.1v.1h-.1l0 0h-.1-.1-.1l-.1.1 0 0h-.1l-.1.1h-.1-.1l-.1.1 0 0h-.1l0 0 0 0 0 0h-.1v.1h-.1l0 0v.1h-.1l0 0-.1.1 0 0h-.1v.1h-.1v.1h-.1l0 0L34 71l0 0-.1.1 0 0 0 0v.1h-.1l0 0v.1l0 0 0 0 0 0 0 0 0 0 0 0 0 0 0 0 0 0 0 0 0 0v.1h-.1v.1l0 0-.1.1 0 0 0 0-.1.1h-.1l0 0 0 0-.1.1 0 0h-.1l0 0 0 0-.1-.1 0 0h-.1l0 0h-.1v-.1h-.1l0 0v-.1h-.1v-.1-.1l0 0 0 0v-.1l0 0 0 0 0 0v-.1l0 0 0 0v-.1l0 0 0 0v-.1l0 0 0 0 0 0 .1-.1 0 0v-.1l0 0 0 0 .1-.1v-.1h.1v-.1l.1-.1 0 0 .2-.2 0 0 .1-.1 0 0 .1-.1h.1v-.1h.1l.1-.1 0 0 .1-.1h.1l0 0 .1-.1 0 0 .1-.1h.1l0 0h.1v-.1h.2l.1-.1h.1.1l.1-.1h.1.1l.1-.1h.1.1.1l.1-.1h.1.1.1l0 0h.1l0 0 0 0h.1l0 0h.1l0 0h.1l0 0 0 0z"/><path d="M7.2 67.6q-.7.1-1.2-.4C1.9 64 7.5 62.8 8.7 65.3" fill="#61e0ee"/><path d="M6.3 63.4h.1l0 0 0 0h.1l0 0 0 0h.1l0 0 0 0h.1l0 0h.1l0 0 0 0h.1l0 0 0 0h.1l0 0 .1.1 0 0h.1.1l0 0h.1l.1.1 0 0h.1.1v.1h.1.1v.1h.1l0 0h.1v.1h.1.1v.1h.1v.1h.1l.1.1 0 0 .1.1 0 0 .1.1v.1h.1v.1l.1.1 0 0 .1.1v.1h.1v.1.1l0 0h.1v.1l0 0 0 0v.1l0 0 0 0v.1l0 0 0 0-.1.1 0 0v.1h-.1v.1l0 0h-.1v.1h-.1l0 0h-.1l0 0 0 0h-.1l0 0 0 0 0 0h-.1l0 0h-.1l0 0h-.1v-.1h-.1l0 0-.1-.1 0 0v-.1l0 0-.1-.1 0 0v-.1l0 0h-.1v-.1l0 0 0 0h-.1v-.1l0 0h-.1v-.1l0 0h-.1v-.1l0 0h-.1l0 0-.1-.1 0 0 0 0h-.1v-.1h-.1l0 0h-.1l0 0 0 0h-.1v-.1l0 0h-.1l0 0 0 0h-.1l0 0 0 0h-.1l0 0 0 0v-.1h-.1l0 0 0 0 0 0h-.1l0 0 0 0 0 0h-.1l0 0 0 0 0 0h-.1l0 0 0 0 0 0h-.1l0 0 0 0 0 0 0 0h-.1l0 0 0 0 0 0h-.1l0 0 0 0 0 0h-.1l0 0 0 0 0 0h-.1l0 0 0 0 0 0 0 0-.1.1 0 0 0 0 0 0 0 0h-.1l0 0 0 0 0 0 0 0h-.1l0 0 0 0 0 0-.1.1 0 0 0 0 0 0h-.1l0 0 0 0 0 0-.1.1 0 0 0 0 0 0 0 0 0 0h-.1l0 0 0 0v.1l0 0 0 0 0 0 0 0 0 0 0 0 0 0 0 0 0 0h-.1v.1l0 0 0 0 0 0 0 0 0 0 0 0 0 0 0 0 0 0 0 0 0 0v.1l0 0 0 0 0 0 0 0 0 0 0 0 0 0 0 0 0 0 0 0v.1l0 0 0 0 0 0 0 0 0 0 0 0 0 0v.1l0 0 0 0 0 0 0 0 0 0v.1l0 0 0 0 0 0 .1.1 0 0v.1l0 0 .1.1 0 0v.1h.1v.1l0 0 .1.1 0 0 .1.1 0 0 .2.2 0 0 .2.2 0 0 .2.2h.1l.1.1 0 0 .1.1 0 0h.1l0 0 0 0v.1l0 0 0 0h.1l0 0 0 0 0 0 0 0 0 0h.1l0 0 0 0 0 0 0 0 0 0v.1l0 0h.1l0 0 0 0 0 0 0 0 0 0 0 0 0 0 0 0 0 0 0 0h.1l0 0 0 0 0 0 0 0 0 0 0 0 0 0 0 0 0 0 0 0 0 0 0 0 0 0 0 0 .1-.1 0 0h.1l0 0 0 0h.1l0 0 0 0 0 0h.1v.1h.1l0 0h.1v.1h.1v.1l0 0 .1.1v.1l0 0 0 0 0 0v.1l0 0 0 0v.1l0 0v.1l0 0-.1.1 0 0v.1h-.1l0 0 0 0-.1.1 0 0h-.1l-.1.1 0 0 0 0h-.1l0 0h-.1l0 0h-.1l0 0 0 0h-.1l0 0 0 0h-.1l0 0 0 0h-.1l0 0 0 0h-.1l0 0-.1-.1 0 0h-.1l0 0h-.1v-.1h-.1l0 0h-.1l0 0L6 67.9l0 0 0 0 0 0-.1-.1h-.1l-.2-.2h-.1v-.1l-.2-.2h-.1l-.1-.1L5 67.1 4.9 67l0 0-.1-.1 0 0-.2-.2v-.1h-.1v-.1l-.1-.1 0 0v-.1h-.1v-.1l-.1-.1v-.1h-.1v-.1-.1L4 65.7l0 0v-.1-.1l0 0v-.1l0 0 0 0v-.1l0 0v-.1l0 0 0 0v-.1l0 0 0 0v-.1l0 0v-.1l0 0 0 0v-.1l0 0 0 0v-.1-.1h.1v-.1-.1h.1v-.1l0 0 .1-.1 0 0 .1-.1 0 0v-.1h.1v-.1h.1l.1-.1 0 0h.1v-.1h.1l0 0h.1v-.1h.1l0 0h.1v-.1h.1.1l0 0h.1l0 0h.1v-.1h.1l0 0 0 0h.1l0 0h.1l0 0 0 0h.1l0 0h.1l0 0 0 0h.1l0 0 0 0h.1l0 0 0 0z"/><path d="M7.5 101c0 0-2.1-4.2-1.7-7.8C7 82 3.7 79.8 5 73q.7-3.9 2.8-7.1 5.7-6.8 14.5-5.5 3.2.7 6 2.3 9.1 6.5 7.1 17.2-1.8 4.9-2.4 9.8 1.3 7.8-1.3 12.6-3.3 5.3-14 4.9C16.5 107.1 9.9 105.9 7.5 101z" fill="#61e0ee"/><g fill="#3fc9df"><path d="M31.1 65.4q1.3.3 1.6 7.4c-.9 6.7-3.7 5.3-3.5 17.4q1 8.5-2.2 13.4c-2.6 3.5-10 3.5-11.9 3s7.4 1.9 12.7-.2 6-11.2 5.3-16.8 3.8-7.2 2.3-16.8C33 67.1 33 67.4 31.1 65.4z"/><path d="M5.5 72c0 0 .7 3.3 4.6 3.1S14.3 71 14.3 71l-8.8 1.1z"/><path d="M22.3 73.2c0 0 .6 3.3 4.6 3.1s4.2-4.2 4.2-4.2l-8.8 1.1z"/></g><path d="M19.8 59.6h.1l0 0h.1.1l0 0h.1.1l0 0h.1.1l0 0h.1.1l0 0h.1.1l0 0h.1.1.1.1l.1.1h.1l0 0h.2.1.1l.2.1h.1.1.1.1l.1.1h.2.1.1l.1.1h.1.1l.2.1h.2l.2.1h.2l.4.2h.1l.4.2h.2l.4.2.4.2h.2l.2.1.1.1.4.2.4.2.2.1h.1l.4.2.2.1.3.2.4.2.1.1.2.1.1.1.2.1h.1l.2.1.2.2.2.1.1.1.2.1.1.1.1.2.2.1.2.2.2.1.2.2.2.2.3.3.2.2.1.1.1.2.2.2.1.1.1.2.2.2.1.1.1.2.2.2.1.2.2.2.1.2v.1l.1.1.1.2.1.1.1.2v.1l.1.1.1.2v.1l.1.2.1.1v.2l.2.2v.2l.1.1.1.2v.1l.1.2v.1l.1.2v.1l.1.2v.1l.1.2v.1l.1.2v.1.2l.1.1v.2.1l.1.2v.1l.1.2v.2.1.2l.1.1v.2.1l.1.2v.1.2.1.2l.1.2v.1.1.2l0 0v.1.2l0 0v.1.1.1.1h.1v.1.1.1l0 0v.1.1.1.1l0 0v.1.1.1.1l0 0v.1.1.1l0 0v.1.1.1.1l0 0v.1.1.1l0 0v.1.1.1l0 0v.1.1.1.1h-.1v.1.1.1.1.1.1l0 0v.2.1.1.1l-.1.1v.1.1.2.1.2l-.1.1v.1.2.1l-.1.2v.1.2l-.1.1v.2.1l-.1.2v.1l-.1.2v.1l-.1.2v.2l-.1.1-.2.6-.2.6-.3 1-.1.4-.2.3v.1l-.1.2v.2l-.1.1v.2l-.1.1v.2l-.1.2v.1.2l-.1.1v.2.1l-.1.2v.1.2l-.1.1v.2.1.2l0 0-.1.2 0 0 0 0v.1l0 0 0 0v.1l0 0 0 0v.1l0 0 0 0v.1l0 0 0 0v.1l0 0 0 0 0 0v.1l0 0 0 0v.1l0 0 0 0v.1l0 0 0 0 0 0v.1l0 0 0 0v.1l0 0 .1.2v.2.3l.1.3v.2.3.2l.1.3v.2.2.3l.1.2v.1.3.1.1.2.1.1.2.1.1.1.1.1.1.1.1.1.1.1.1.1.1.1.1.1.2.1.1.1l0 0v.1.1.2.1.2.2.1l-.1.2v.2.2.2l-.1.2v.1.2l-.1.2v.2.2l-.1.1v.2l-.1.2v.2l-.1.1v.2l-.1.2v.2l-.1.2v.1l-.2.4v.2l-.1.1-.1.2v.2l-.1.2-.1.1-.2.4v.2l-.1.1v.1l-.1.1 0 0-.1.1v.1l-.1.1v.1l-.1.1 0 0-.2.2v.1h-.1v.1l-.2.2 0 0-.2.2-.1.1 0 0-.2.2-.1.1 0 0-.2.2h-.1l-.1.1v.1h-.1l-.2.2h-.1l-.1.1h-.1l-.2.2h-.1l-.2.2h-.1l-.1.1h-.1l-.1.1h-.1l-.2.2h-.1l-.1.1h-.1l-.1.1h-.1l-.1.1h-.1l-.2.1h-.1l-.1.1h-.1l-.1.1h-.1l-.2.1h-.1l-.1.1h-.1-.2l-.1.1h-.1l-.1.1h-.2-.1l-.1.1h-.1-.2l-.1.1h-.1l-.2.1h-.1-.1l-.2.1h-.1-.1-.2l-.1.1h-.1-.2-.1l-.2.1h-.1-.1-.2l-.1.1h-.2l0 0h-.2-.1-.2l-.1.1 0 0h-.2l0 0h-.1-.1-.1-.1-.1-.1l0 0h-.1-.1-.1l0 0h-.1l-.1.1h-.1l0 0h-.1-.1-.1l0 0h-.1-.1-.1l0 0h-.1-.1-.1l0 0h-.1-.1-.1-.1l0 0h-.1-.1-.1l0 0h-.1-.1-.1l0 0-.1-.1h-.1-.1-.1l0 0h-.1-.1-.1l0 0h-.1-.2-.1-.1-.1-.1l-.1-.1h-.1l0 0h-.1-.1-.1-.1l-.1-.1h-.1-.2-.1l-.1-.1h-.2-.1l-.2-.1h-.2l-.1-.1h-.2l-.2-.1h-.1l-.2-.1h-.2l-.2-.1h-.2l-.4-.2-.2-.1h-.2l-.4-.2-.2-.1h-.1l-.1-.1h-.1l-.1-.1h-.1l-.1-.1h-.1L12 106h-.1l-.1-.1h-.1l-.1-.1h-.1l-.2-.2h-.1l-.1-.1h-.1l-.2-.2h-.1l-.2-.2h-.1l-.2-.2-.1-.1h-.1l-.2-.2-.1-.1h-.1l-.2-.2-.2-.2h-.1v-.1l-.2-.2-.2-.2h-.1l-.2-.2v-.1l-.2-.2-.2-.2-.1-.1v-.1l-.2-.2-.1-.1v-.2l-.2-.2-.1-.1v-.1l-.2-.2v-.2l-.1-.1v-.1l0 0v-.1l-.1-.1 0 0-.1-.1v-.1l-.2-.4-.1-.2v-.2l-.2-.4v-.1l-.1-.1v-.2l-.1-.1v-.1L6 98.9v-.1-.2l-.1-.1v-.2l-.1-.1v-.2l-.1-.1v-.2-.1l-.1-.2v-.2l-.1-.1v-.2-.2l-.1-.1v-.2l-.1-.2v-.2-.1-.2l-.1-.2v-.2-.1-.1-.2-.1-.1-.1l0 0v-.1l0 0v-.1l0 0v-.1l0 0 0 0v-.1l0 0v-.1l0 0v-.1l0 0v-.1l0 0v-.1l0 0 0 0v-.1l0 0v-.1l0 0v-.1l0 0v-.1l0 0 0 0v-.1l0 0v-.1l0 0 .1-.3v-.2-.3-.2l.1-.3v-.2-.3-.1-.1-.2-.3-.1-.1-.1l.1-.2v-.1-.2-.1-.1-.1-.1-.1-.1-.1-.1-.1-.1-.1-.1-.1-.1-.1-.1-.1-.1-.1-.1-.1-.1-.1-.1-.1-.1-.1-.1-.1l0 0v-.1-.1-.1-.1-.1-.1l-.1-.1v-.1-.1-.1-.1-.1-.2l0 0v-.2-.1-.1-.1L5.3 85v-.1-.1-.2-.2l-.1-.3v-.3-.3l-.1-.3v-.3L5 82.6v-.1-.3L4.9 82l-.2-.9v-.6l-.2-.6v-.2-.3l-.1-.2v-.3l-.1-.2v-.3-.1-.1-.1-.1-.1-.1l-.1-.1v-.1l0 0v-.1-.1l0 0v-.1-.1l0 0v-.1-.1l0 0v-.1-.1l0 0v-.1-.1l0 0v-.1-.1l0 0v-.1-.1l0 0v-.1-.1l0 0v-.1-.1l0 0v-.1-.1-.1l0 0v-.1-.1l0 0v-.1-.1-.1l0 0v-.1-.1-.1l0 0v-.2-.1l.1-.1v-.2-.1-.2-.1l.1-.2v-.1-.2-.2l.1-.1v-.3l.1-.2v-.2l.1-.2v-.3l.1-.2v-.3l.1-.1v-.1l.1-.2v-.1l.1-.3v-.2l.1-.3.1-.1v-.2l.1-.1v-.1-.1l.1-.1v-.2l.1-.1v-.1l.1-.1v-.1l.1-.1v-.2-.1l.1-.1 0 0v-.1l.1-.1v-.1l.1-.1v-.2l.2-.2v-.1l.1-.1v-.1l.1-.1v-.1l.2-.2v-.1l.2-.2v-.2h.1v-.1l.1-.1v-.1l.2-.2.1-.1v-.1l.2-.2.2-.2v-.1l.2-.2.2-.2.2-.2.2-.2 0 0 .2-.2.2-.2.2-.2h.1l.2-.2.2-.2.1-.1 0 0 .2-.2h.1l.1-.1.2-.1.2-.2h.1l.2-.2h.1l.2-.2.2-.1h.1l.2-.2h.1l.2-.2h.2l.2-.2h.1l.1-.1h.2l.1-.1h.1l.2-.2h.2l.1-.1h.1l.1-.1h.2l.1-.1h.1.1l.2-.1h.1l.1-.1h.1l.2-.1h.1.1l.2-.1h.1l.1-.1h.1.2l.1-.1h.1.2.1l.1-.1h.2.1l.1-.1h.2.1.1l.1-.1h.2.1.1.1.1l.2-.1 0 0h.2l0 0h.1.1l0 0h.1.1l0 0h.1.1l0 0h.1.1l0 0h.1.1l0 0h.1.1l0 0h.1.1l0 0h.1zm-.1 1.1h-.1l0 0h-.1-.1l0 0h-.1l0 0h-.1-.1l0 0h-.1-.1l0 0h-.1l0 0h-.1-.1l0 0h-.1l0 0-.2.1 0 0h-.2l0 0h-.1-.1-.1-.1l-.1.1h-.1-.2-.1-.1L17 61h-.1-.2-.1l-.1.1h-.1-.2l-.1.1h-.1-.1l-.1.1h-.2-.1l-.1.1h-.1-.1l-.2.1h-.1l-.1.1h-.1-.1l-.1.1h-.2l-.1.1h-.1l-.1.1h-.1l-.1.1h-.1l-.2.1h-.1l-.1.1h-.1l-.1.1h-.1l-.1.1h-.1l-.2.1-.1.1h-.1l-.1.1h-.1l-.2.2h-.1l-.2.2h-.1l-.2.2h-.1l-.2.2-.1.1h-.1l-.2.2h-.1l-.2.2-.2.2h-.1l-.2.2-.1.1v.1h-.1l-.2.2-.2.2-.1.1v.1h-.1l-.2.2-.1.1v.1l-.2.2-.2.2v.1l-.2.2v.1h-.1l-.1.1v.1l-.1.1v.1l-.2.2v.1l-.1.1v.1l-.1.1v.1l-.1.1v.1l-.1.1v.1l-.1.1v.1l-.1.1v.1h-.1v.1.1l-.1.1v.1l-.1.1v.1.1l-.1.1v.1l-.1.1v.1l-.1.1v.2.1l-.1.1 0 0v.1l-.1.1v.2l-.2.4v.3l-.1.2v.2l-.1.2v.3l-.2.4v.2.3l-.1.2v.2l-.1.1v.2.1.2.1l-.1.2v.1.2l0 0v.1.1.1l-.1.1v.1.1l0 0v.1.1l0 0v.1.1l0 0v.1.1l0 0v.1.1l0 0v.1.1l0 0v.1.1l0 0v.1l0 0v.1.1l0 0v.1.1l0 0v.1l0 0v.1.1l0 0v.1.1l0 0v.1l0 0v.1l.1.1 0 0v.1l0 0v.2l0 0v.1.1.1l.1.3v.2.3l.1.2v.2.3l.1.2v.3l.2 1 .1.5.1.3v.3.3l.1.2v.3l.1.3v.3l.1.3v.3.3.1l.1.1v.2.2l0 0v.2.1.1.1.1l.1.2v.1.1.1.1.1.1l0 0v.1.1.1.1.1.1.1.1.1.1.1.1.1.1.1.1.1.1.1.1.1.1.1.1.1.1.1.1.1.1.2.1.1.1.1.1.2.2.2.1l-.1.3v.2.1.1.3.2l-.1.3v.2.3.3l-.1.1v.1l0 0v.1l0 0 0 0v.1l0 0v.1l0 0 0 0v.1l0 0v.1l0 0 0 0v.1l0 0v.1l0 0 0 0v.1l0 0v.1l0 0 0 0v.1l0 0v.1l0 0 0 0v.1.1l0 0v.1.1.1l.1.2v.1.1.2.1.2l.1.1v.2.2l.1.1v.2.1l.1.2v.1.2l.1.1v.2l.1.1v.2L7 98v.2.1l.1.1v.2l.1.1v.1l.1.1v.2.1l.1.1.2.4v.2l.1.2.1.1v.2l.1.1v.1l.1.1 0 0v.1l.1.1v.1l.1.1v.1l.2.2v.1l.1.1v.1l.2.2v.1h.1l.1.1v.1l.2.2.1.1v.1l.1.1h.1l.2.2v.1l.1.1h.1l.2.2v.1h.1l.2.2.1.1h.1l.2.2 0 0 .2.2h.1l.2.2h.1l.1.1h.1l.1.1h.1l.2.2 0 0 .1.1h.1l.1.1h.1l.1.1h.1l.1.1h.1l.1.1h.1l.1.1h.1.1l.1.1.2.1h.2l.2.1.1.1.2.1h.2l.2.1h.2l.1.1.2.1h.2l.1.1h.2.2l.1.1h.2l.1.1h.2.1.1l.2.1h.1.1.1l.1.1 0 0h.1l0 0h.1.1l0 0h.1.1.1.1l.1.1h.1.1.1.1.1l0 0h.1.1l0 0h.1.1.1l0 0h.1.1.1l0 0h.1.1.1l0 0h.1.1l0 0h.1.1.1l0 0h.1.1.1l0 0h.1.1l0 0h.1.1.1l0 0h.1.1l0 0h.1.1l0 0h.1.2l0 0h.1.1l.1-.1h.1.1.1.1.2.1.1l.1-.1h.1.2.1.1l.2-.1h.1.1.2l.1-.1h.1.1l.2-.1h.1.1.1l.2-.1h.1.1l.1-.1h.2.1l.1-.1h.1l.1-.1h.2.1l.1-.1h.1l.1-.1h.1.1l.1-.1h.2l.1-.1h.1l.1-.1h.1l.1-.1h.1.1l.1-.1h.1l.1-.1h.1l.1-.1h.1l.2-.2h.1l.1-.1 0 0 .1-.1h.1l.1-.1h.1l.1-.1h.1v-.1l.1-.1h.1l.1-.1h.1v-.1h.1l.1-.1v-.1h.1l.1-.1 0 0 .2-.2 0 0 .2-.2 0 0 .1-.1 0 0 .1-.1v-.1h.1v-.1l.1-.1 0 0 .1-.1v-.1h.1v-.1l0 0 .1-.1v-.1l0 0 .1-.1v-.1l.2-.4.1-.1v-.2l.1-.2.1-.1v-.2l.1-.2.1-.1v-.2l.1-.1v-.2l.1-.2v-.1l.1-.2v-.2l.1-.1v-.2l.1-.2v-.1-.2l.1-.1v-.2-.2l.1-.2v-.1-.2l.1-.2v-.1-.2-.2-.2-.1-.1l.1-.1v-.1-.1-.1-.1-.1-.1-.1-.1-.1-.1-.1-.1-.1-.1-.1-.1-.1-.1-.1-.1-.1-.1-.1-.1-.1-.1-.1-.1-.1-.1-.1l-.1-.3v-.1-.2-.2-.3-.2l-.1-.2v-.3-.2-.3l-.1-.2v-.3-.2l-.1-.3v-.1-.1l0 0 0 0v-.1l0 0v-.1l0 0 0 0v-.1l0 0v-.1l0 0 0 0v-.1l0 0v-.1l0 0 0 0v-.1l0 0 0 0v-.1l0 0v-.1l0 0 0 0v-.1l0 0v-.1l0 0 0 0v-.1l0 0v-.1-.1-.2l.1-.1v-.2-.1l.1-.2v-.2-.1l.1-.2v-.2-.1l.1-.2v-.2l.1-.1v-.2l.1-.2v-.1l.1-.2v-.2l.1-.1v-.2l.2-.6.3-.8.3-.8.1-.3.1-.4.1-.1v-.2l.1-.1v-.2l.1-.1v-.2-.1l.1-.2v-.1-.1l.1-.2v-.1-.1l.1-.2v-.1-.1-.1-.2l.1-.1v-.2l0 0v-.1-.1-.2-.1l.1-.1v-.1-.1-.1-.1-.1l0 0v-.1-.1l0 0v-.1-.1-.1l0 0v-.1-.1l0 0v-.1-.1-.1l0 0v-.1-.1-.1l0 0 .1-.1v-.1-.1l0 0v-.1-.1-.1h-.1v-.1-.1-.1l0 0v-.1-.1-.1l0 0v-.1-.1-.1l0 0v-.1-.1l0 0v-.1-.1-.1-.1-.1-.2l0 0-.1-.2 0 0v-.1-.2-.1-.2l-.1-.1v-.2-.1-.1-.2l-.1-.1v-.2-.1l-.1-.2v-.1-.2l-.1-.1v-.2-.1l-.1-.1v-.2-.1l-.1-.2 0 0v-.1l-.1-.1v-.2-.1l-.1-.2v-.1l-.1-.1 0 0v-.2l-.2-.2v-.2l-.1-.1v-.1l-.1-.2-.1-.1v-.1l-.1-.2v-.1l-.1-.1-.1-.2v-.1l-.1-.1L33 68l-.1-.1v-.1l-.1-.1-.1-.2-.1-.1v-.1l-.2-.2-.1-.2-.2-.2-.2-.2v-.2l-.2-.2h-.1v-.1l-.2-.2-.2-.2-.2-.2-.2-.2-.2-.2-.2-.1-.2-.2-.2-.2-.2-.1-.2-.2-.1-.1-.2-.1-.2-.2h-.2l-.2-.2-.2-.1-.1-.1-.2-.1h-.1l-.3-.2-.4-.2-.4-.2-.1-.1-.4-.2h-.2l-.1-.1-.4-.2-.2-.1h-.2l-.1-.1-.2-.1h-.1l-.4-.2-.1-.1h-.2l-.2-.1h-.1l-.2-.1h-.2l-.2-.1h-.1l-.2-.1h-.2-.1l-.1-.1 0 0h-.1l0 0h-.1-.1l-.1-.1h-.1-.1-.1-.1-.1l-.1-.1h-.1-.2l0 0h-.1-.1-.1-.1v-.1h-.1l0 0h-.1-.1l0 0h-.1-.1l0 0h-.1l0 0h-.1-.1l0 0h-.1l0 0h-.1-.1l0 0h-.1l0 0h-.1z"/><path d="M23.3 104.5C12.1 107.1 10.2 100.6 9.8 99.2 9.1 96.5 8.7 91.4 9.4 88.6q.3-1.5 1.4-2.8c1.6-1.7 8.7-1.9 11.4-1.5l2.9.9c3.4 1.5 4.5 17.9-1.8 19.3z" fill="#b7f8ff"/><circle cx="7" cy="76" r="0" fill="#b7f8ff"/><circle cx="30" cy="77" r="0" fill="#b7f8ff"/><path d="M108.1 72.7q-.5-.9-1.4-1.3c-4.8-2-3.1 3.5-.3 3.3" fill="#61e0ee"/><path d="M105 70.4l0 0h.1l0 0 0 0h.1l0 0h.1l0 0h.1l0 0h.1l.1.1h.1.1.1.1.1l.1.1h.1l.1.1h.1.1l.1.1h.1l.1.1h.1.1l0 0 .1.1 0 0h.1l.1.1 0 0 .1.1 0 0 .1.1h.1v.1h.1l.1.1 0 0 .1.1 0 0 .2.2 0 0 .1.1 0 0 .1.1v.1h.1v.1l0 0 .1.1 0 0v.1l0 0 0 0 0 0v.1l0 0h.1v.1l0 0 0 0 0 0v.1l0 0 0 0v.1l0 0 0 0-.1.1v.1l0 0-.1.1 0 0v.1h-.1-.1l0 0 0 0-.1.1 0 0h-.1l0 0 0 0h-.1l0 0 0 0-.1-.1 0 0h-.1v-.1h-.1l0 0-.1-.1 0 0v-.1l0 0v-.1h-.1l0 0 0 0 0 0 0 0 0 0 0 0 0 0 0 0 0 0 0 0 0 0v-.1l0 0 0 0-.1-.1 0 0v-.1h-.1l0 0-.1-.1 0 0-.1-.1 0 0h-.1v-.1h-.1v-.1h-.1l0 0-.1-.1 0 0 0 0h-.1v-.1h-.1l0 0 0 0 0 0 0 0 0 0-.1-.1h-.1-.1l-.1-.1h-.1-.1l-.1-.1h-.1-.1-.1l0 0h-.1l0 0-.1-.1 0 0 0 0h-.1l0 0 0 0h-.1l0 0 0 0h-.1l0 0 0 0 0 0h-.1l0 0 0 0h-.1l0 0 0 0 0 0 0 0h-.1l0 0 0 0 0 0 0 0h-.1l0 0 0 0 0 0v.1l0 0h-.1l0 0 0 0 0 0 0 0 0 0 0 0 0 0h-.1l0 0 0 0 0 0 0 0 0 0v.1l0 0 0 0 0 0 0 0h-.1l0 0 0 0 0 0 0 0 0 0 0 0 0 0v.1l0 0 0 0 0 0 0 0 0 0 0 0 0 0 0 0 0 0 0 0v.1h-.1l0 0 0 0 0 0 0 0 0 0 0 0v.1l0 0 0 0 0 0 0 0 0 0 0 0v.1l0 0 0 0 0 0 0 0 0 0v.1l0 0 0 0 0 0 0 0 0 0v.1l0 0 0 0 0 0 0 0v.1l0 0h.1l0 0 0 0v.1l0 0 0 0 0 0 0 0v.1l0 0 0 0v.1l0 0h.1v.1l0 0 0 0v.1h.1v.1l0 0v.1h.1l0 0v.1l0 0 .1.1 0 0 0 0 .1.1 0 0v.1h.1l0 0v.1h.1l0 0v.1h.1l0 0 .1.1 0 0 0 0h.1v.1h.1l0 0 0 0 .1.1 0 0h.1l0 0h.1l0 0v.1l0 0h.1l0 0 0 0h.1l0 0 0 0 0 0 0 0h.1l0 0 0 0 0 0h.1l0 0 0 0 0 0 0 0h.1l0 0 0 0 0 0h.1l0 0 0 0h.1l0 0 0 0 0 0 .1.1h.1l0 0h.1v.1h.1v.1l0 0 .1.1 0 0v.1l0 0 0 0v.1l0 0 0 0v.1l0 0 0 0v.1l0 0v.1h-.1v.1h-.1v.1h-.1l0 0h-.1v.1h-.1l0 0 0 0h-.1l0 0h-.1l0 0 0 0h-.1l0 0h-.1l0 0 0 0h-.1v-.1h-.1l0 0 0 0h-.1-.1l0 0h-.1-.1v-.1h-.1-.1l0 0-.1-.1h-.1l0 0-.1-.1h-.1l0 0-.1-.1h-.1v-.1h-.1l-.1-.1 0 0h-.1v-.1h-.1v-.1h-.1v-.1l-.1-.1 0 0-.1-.1 0 0-.1-.1 0 0-.1-.1 0 0v-.1l-.1-.1 0 0-.1-.1 0 0v-.1l-.1-.1 0 0v-.1l-.1-.1 0 0v-.1l0 0-.1-.1v-.1l0 0v-.1-.1l0 0-.1-.1 0 0 0 0v-.1l0 0 0 0v-.1l0 0 0 0v-.1l0 0 0 0v-.1l0 0 0 0v-.1l0 0 0 0v-.1l0 0 0 0v-.1l0 0 0 0v-.1l0 0 0 0v-.1l0 0v-.1h.1v-.1-.1l0 0v-.1h.1v-.1-.1h.1v-.1h.1v-.1h.1v-.1h.1v-.1h.1l.1-.1 0 0h.1l.1-.1 0 0h.1.1l.1-.1 0 0h.1l0 0 0 0h.1l0 0h.1l0 0h.1l0 0 0 0h.1l0 0h.1z"/><g><path d="M15.4 78.6l.4 2.5.9.4q1.8-.2 1.8-2.8" fill="#ededed"/><path d="M15.4 78.2h.1l0 0 0 0 0 0h.1l0 0h.1v.1l0 0h.1v.1l0 0 0 0v.1l0 0 0 0 0 0 .1.1 0 0 0 0v.1l0 0v.1l0 0 0 0v.1l0 0v.1.1.3.1.1.1.1.1l0 0v.1h.1v.1l0 0 0 0v.1l0 0v.1l0 0 0 0v.1l0 0v.1.1l0 0 .1.1 0 0 0 0v.1l0 0 0 0 0 0 0 0 0 0 0 0v.1l0 0 0 0 0 0 0 0h.1l0 0 0 0 0 0 0 0 0 0v.1l0 0 0 0 0 0 0 0 0 0 0 0 0 0 0 0 0 0 0 0 0 0 0 0 0 0 0 0 0 0 0 0 0 0 0 0 0 0 0 0 0 0h.1l0 0 0 0 0 0 0 0 0 0 0 0 0 0 0 0 0 0 0 0h.1v.1l0 0 0 0 0 0h.1l0 0 0 0 0 0h.1l0 0 0 0h.1l0 0h.1l0 0 0 0h.1l0 0 0 0 0 0h.1l0 0 0 0 0 0 0 0h.1l0 0 0 0 0 0 0 0h.1l0 0 0 0 0 0 0 0 0 0h.1l0 0v-.1l0 0 0 0 0 0h.1l0 0 0 0v-.1l0 0h.1l0 0 0 0v-.1l0 0h.1v-.1l0 0 0 0v-.1l0 0 0 0 .1-.1 0 0 0 0v-.1l0 0 0 0v-.1l0 0v-.1h.1v-.1-.1-.2l.1-.1v-.2l.1-.2v-.2-.1-.2l.1-.1v-.1-.1l0 0 0 0 .1-.1 0 0 0 0 .1-.1 0 0 0 0h.1l0 0 0 0h.1v-.1l0 0 0 0 0 0h.1v.1l0 0 0 0h.1l0 0 0 0h.1v.1l0 0h.1v.1l0 0 0 0v.1l0 0 0 0 0 0 0 0v.1l0 0 0 0 0 0v.1l0 0 0 0v.2.1l-.1.1v.1.2l-.1.3v.1.2l-.1.1v.1.1.1l-.1.1 0 0v.1l0 0v.1h-.1v.1.1l0 0-.1.1v.1l0 0-.1.1 0 0v.1h-.1v.1h-.1v.1h-.1v.1h-.1v.1h-.1-.1v.1h-.1-.1-.1l0 0 0 0-.1.1 0 0h-.1l0 0h-.1l0 0 0 0h-.1l0 0h-.1l0 0h-.1l0 0 0 0h-.1l-.1-.1 0 0h-.1l0 0 0 0h-.1l0 0h-.1-.1l0 0 0 0 0 0-.1-.1 0 0 0 0 0 0h-.1l0 0-.1-.1 0 0h-.1l0 0v-.1h-.1l0 0v-.1h-.1v-.1h-.1l0 0v-.1l0 0v-.1h-.1v-.1l0 0 0 0 0 0v-.1-.1l-.1-.1v-.1l0 0v-.1-.1l0 0v-.1h-.1v-.1l0 0v-.1l0 0v-.1l0 0v-.1l0 0v-.1-.1l0 0v-.1-.1-.4-.1l0 0v-.1l-.1-.1 0 0 0 0v-.1l0 0 0 0v-.1l0 0 0 0v-.1l0 0 0 0 0 0 0 0v-.1l0 0 0 0 0 0v-.1h.1l0 0v-.1l0 0h.1v-.1l0 0h.1l0 0 0 0h.1l0 0 0 0 0 0h.1z"/><path d="M17.3 73.6q2.2.3 2.3 1.6-.3 1.4-2.5 1.4Q15 76.3 14.9 74.9q.3-1.3 2.4-1.3z"/><path d="M17.1 75.7l0 0h.1l0 0 0 0 0 0 0 0h.1l0 0v.1h.1l0 0 0 0v.1h.1l0 0v.1l0 0 0 0 0 0 0 0 0 0v.1l0 0 0 0 0 0 0 0v.1.1l0 0v.1.1l0 0v.1.1.1l0 0v.2l0 0v.2l-.1.3v.2.2l0 0v.2l0 0-.1.1 0 0v.1l0 0 0 0 0 0 0 0v.1l0 0 0 0v.1h-.1l0 0 0 0v.1h-.1l0 0 0 0 0 0h-.1l0 0 0 0 0 0 0 0h-.1l0 0 0 0 0 0 0 0 0 0h-.1l0 0 0 0 0 0 0 0h-.1l0 0 0 0-.1-.1 0 0 0 0v-.1h-.1l0 0 0 0v-.1l0 0 0 0 0 0 0 0 0 0v-.1l0 0 0 0 0 0v-.2l0 0v-.1-.1-.1l.1-.2v-.2-.3-.1-.1-.1l0 0v-.1h.1v-.1-.1l0 0v-.1-.1l0 0v-.1l0 0 0 0 0 0v-.1l0 0 0 0 0 0v-.1l0 0 0 0h.1v-.1l0 0 0 0h.1v-.1l0 0h.1l0 0 0 0 0 0 0 0h.1l0 0 0 0 0 0 0 0z"/><path d="M17.1 77.9l0 0h.1l0 0h.1l0 0 0 0h.1l0 0h.1l0 0 0 0h.1l0 0h.1l0 0 0 0h.1l0 0 0 0h.1l0 0h.1l0 0 .1.1 0 0h.1l0 0h.1.1l0 0h.1l0 0 .1.1 0 0h.1.1.1l0 0 .1.1h.1.1l0 0 .1.1h.1.1l.1.1 0 0h.1.1l.1.1 0 0h.1l.1.1h.1v.1h.1.1l.1.1 0 0 .1.1h.1.1v.1h.1l.1.1h.1v.1h.1l.1.1 0 0 .1.1h.1l.1.1 0 0 .2.2h.1v.1h.1l.1.1 0 0 .2.2 0 0 .1.1v.1l0 0v.1l0 0v.1l0 0v.1l-.1.1 0 0-.1.1h-.1l0 0 0 0h-.1l0 0h-.1-.1v-.1l-.1-.1h-.1l-.1-.1h-.1v-.1l-.1-.1h-.1v-.1h-.1l-.1-.1 0 0h-.1v-.1h-.1l-.1-.1 0 0-.1-.1h-.1v-.1h-.1-.1v-.1h-.1l-.1-.1 0 0h-.1l-.1-.1 0 0h-.1l-.1-.1 0 0h-.1l-.1-.1 0 0h-.1-.1v-.1h-.1-.1-.1v-.1h-.1l0 0h-.1-.1v-.1h-.1-.1l0 0h-.1l0 0h-.1v-.1h-.1l0 0h-.1l0 0 0 0h-.1l0 0h-.1l0 0 0 0h-.1l0 0 0 0h-.1l0 0h-.1v-.1l0 0h-.1l0 0 0 0h-.1l0 0 0 0h-.1l0 0 0 0h-.1l0 0 0 0h-.1l0 0 0 0h-.1l0 0 0 0h-.1l0 0 0 0h-.1l0 0 0 0h-.1l0 0h-.1l0 0 0 0h-.1l0 0v.1h-.1l0 0 0 0h-.1l0 0 0 0h-.1l0 0 0 0h-.1l0 0 0 0h-.1l0 0h-.1-.1v.1h-.1l0 0h-.1l0 0h-.1l-.1.1 0 0h-.1-.1-.1v.1h-.1-.1l0 0-.1.1h-.1-.1l0 0-.1.1h-.1l0 0-.1.1h-.1-.1v.1h-.1l-.1.1 0 0h-.1l-.1.1h-.1v.1h-.1-.1l-.1.1 0 0-.1.1h-.1v.1h-.1l-.1.1h-.1l-.1.1 0 0h-.1l0 0 0 0-.1-.1h-.1l0 0-.1-.1v-.1h-.1v-.1l0 0 0 0v-.1l0 0v-.1l0 0 .1-.1v-.1h.1l.1-.1h.1l.1-.1 0 0 .1-.1h.1l.1-.1h.1v-.1h.1l.1-.1h.1l.1-.1 0 0h.1l.1-.1h.1l.1-.1 0 0h.1l.1-.1h.1l0 0 .1-.1h.1.1l.1-.1 0 0h.1l.1-.1h.1.1l0 0h.1l.1-.1h.1.1l0 0h.1l.1-.1h.1l0 0h.1l0 0h.1.1l0 0 .1-.1 0 0h.1l0 0 0 0h.1l0 0 0 0h.1l0 0h.1l0 0 0 0h.1l0 0h.1l0 0 0 0h.1l0 0h.1l0 0 0 0h.1l0 0h.1l0 0z"/><path d="M15.7 64q.8-.2 1 .2.1.5-.7.8-.9.2-1.1-.2 0-.5.8-.8z" fill="#b7f8ff"/><path d="M21.7 64.5q.7.5.6.9-.3.4-1 0-.8-.4-.6-.9.2-.3 1 0z" fill="#b7f8ff"/><path d="M9.1 64.4q4.4-.2 5.5 4.1.2 4.4-4.1 5.4C7.9 74.3 5.4 72.5 5.1 69.8q-.2-4.3 4-5.4z" fill="#fff" stroke="#000" stroke-width="0.85px"/><path d="M26 65.8q4.4-.2 5.5 4 .2 4.4-4.1 5.5Q23 75.5 22 71.2q-.2-4.4 4-5.4z" fill="#fff" stroke="#000" stroke-width="0.85px"/></g><g><path d="M15.4 78.6l.4 2.5.9.4q1.8-.2 1.8-2.8" fill="#ededed"/><path d="M15.4 78.2h.1l0 0 0 0 0 0h.1l0 0h.1v.1l0 0h.1v.1l0 0 0 0v.1l0 0 0 0 0 0 .1.1 0 0 0 0v.1l0 0v.1l0 0 0 0v.1l0 0v.1.1.3.1.1.1.1.1l0 0v.1h.1v.1l0 0 0 0v.1l0 0v.1l0 0 0 0v.1l0 0v.1.1l0 0 .1.1 0 0 0 0v.1l0 0 0 0 0 0 0 0 0 0 0 0v.1l0 0 0 0 0 0 0 0h.1l0 0 0 0 0 0 0 0 0 0v.1l0 0 0 0 0 0 0 0 0 0 0 0 0 0 0 0 0 0 0 0 0 0 0 0 0 0 0 0 0 0 0 0 0 0 0 0 0 0 0 0 0 0h.1l0 0 0 0 0 0 0 0 0 0 0 0 0 0 0 0 0 0 0 0h.1v.1l0 0 0 0 0 0h.1l0 0 0 0 0 0h.1l0 0 0 0h.1l0 0h.1l0 0 0 0h.1l0 0 0 0 0 0h.1l0 0 0 0 0 0 0 0h.1l0 0 0 0 0 0 0 0h.1l0 0 0 0 0 0 0 0 0 0h.1l0 0v-.1l0 0 0 0 0 0h.1l0 0 0 0v-.1l0 0h.1l0 0 0 0v-.1l0 0h.1v-.1l0 0 0 0v-.1l0 0 0 0 .1-.1 0 0 0 0v-.1l0 0 0 0v-.1l0 0v-.1h.1v-.1-.1-.2l.1-.1v-.2l.1-.2v-.2-.1-.2l.1-.1v-.1-.1l0 0 0 0 .1-.1 0 0 0 0 .1-.1 0 0 0 0h.1l0 0 0 0h.1v-.1l0 0 0 0 0 0h.1v.1l0 0 0 0h.1l0 0 0 0h.1v.1l0 0h.1v.1l0 0 0 0v.1l0 0 0 0 0 0 0 0v.1l0 0 0 0 0 0v.1l0 0 0 0v.2.1l-.1.1v.1.2l-.1.3v.1.2l-.1.1v.1.1.1l-.1.1 0 0v.1l0 0v.1h-.1v.1.1l0 0-.1.1v.1l0 0-.1.1 0 0v.1h-.1v.1h-.1v.1h-.1v.1h-.1v.1h-.1-.1v.1h-.1-.1-.1l0 0 0 0-.1.1 0 0h-.1l0 0h-.1l0 0 0 0h-.1l0 0h-.1l0 0h-.1l0 0 0 0h-.1l-.1-.1 0 0h-.1l0 0 0 0h-.1l0 0h-.1-.1l0 0 0 0 0 0-.1-.1 0 0 0 0 0 0h-.1l0 0-.1-.1 0 0h-.1l0 0v-.1h-.1l0 0v-.1h-.1v-.1h-.1l0 0v-.1l0 0v-.1h-.1v-.1l0 0 0 0 0 0v-.1-.1l-.1-.1v-.1l0 0v-.1-.1l0 0v-.1h-.1v-.1l0 0v-.1l0 0v-.1l0 0v-.1l0 0v-.1-.1l0 0v-.1-.1-.4-.1l0 0v-.1l-.1-.1 0 0 0 0v-.1l0 0 0 0v-.1l0 0 0 0v-.1l0 0 0 0 0 0 0 0v-.1l0 0 0 0 0 0v-.1h.1l0 0v-.1l0 0h.1v-.1l0 0h.1l0 0 0 0h.1l0 0 0 0 0 0h.1z"/><path d="M17.3 73.6q2.2.3 2.3 1.6-.3 1.4-2.5 1.4Q15 76.3 14.9 74.9q.3-1.3 2.4-1.3z"/><path d="M17.1 75.7l0 0h.1l0 0 0 0 0 0 0 0h.1l0 0v.1h.1l0 0 0 0v.1h.1l0 0v.1l0 0 0 0 0 0 0 0 0 0v.1l0 0 0 0 0 0 0 0v.1.1l0 0v.1.1l0 0v.1.1.1l0 0v.2l0 0v.2l-.1.3v.2.2l0 0v.2l0 0-.1.1 0 0v.1l0 0 0 0 0 0 0 0v.1l0 0 0 0v.1h-.1l0 0 0 0v.1h-.1l0 0 0 0 0 0h-.1l0 0 0 0 0 0 0 0h-.1l0 0 0 0 0 0 0 0 0 0h-.1l0 0 0 0 0 0 0 0h-.1l0 0 0 0-.1-.1 0 0 0 0v-.1h-.1l0 0 0 0v-.1l0 0 0 0 0 0 0 0 0 0v-.1l0 0 0 0 0 0v-.2l0 0v-.1-.1-.1l.1-.2v-.2-.3-.1-.1-.1l0 0v-.1h.1v-.1-.1l0 0v-.1-.1l0 0v-.1l0 0 0 0 0 0v-.1l0 0 0 0 0 0v-.1l0 0 0 0h.1v-.1l0 0 0 0h.1v-.1l0 0h.1l0 0 0 0 0 0 0 0h.1l0 0 0 0 0 0 0 0z"/><path d="M17.1 77.9l0 0h.1l0 0h.1l0 0 0 0h.1l0 0h.1l0 0 0 0h.1l0 0h.1l0 0 0 0h.1l0 0 0 0h.1l0 0h.1l0 0 .1.1 0 0h.1l0 0h.1.1l0 0h.1l0 0 .1.1 0 0h.1.1.1l0 0 .1.1h.1.1l0 0 .1.1h.1.1l.1.1 0 0h.1.1l.1.1 0 0h.1l.1.1h.1v.1h.1.1l.1.1 0 0 .1.1h.1.1v.1h.1l.1.1h.1v.1h.1l.1.1 0 0 .1.1h.1l.1.1 0 0 .2.2h.1v.1h.1l.1.1 0 0 .2.2 0 0 .1.1v.1l0 0v.1l0 0v.1l0 0v.1l-.1.1 0 0-.1.1h-.1l0 0 0 0h-.1l0 0h-.1-.1v-.1l-.1-.1h-.1l-.1-.1h-.1v-.1l-.1-.1h-.1v-.1h-.1l-.1-.1 0 0h-.1v-.1h-.1l-.1-.1 0 0-.1-.1h-.1v-.1h-.1-.1v-.1h-.1l-.1-.1 0 0h-.1l-.1-.1 0 0h-.1l-.1-.1 0 0h-.1l-.1-.1 0 0h-.1-.1v-.1h-.1-.1-.1v-.1h-.1l0 0h-.1-.1v-.1h-.1-.1l0 0h-.1l0 0h-.1v-.1h-.1l0 0h-.1l0 0 0 0h-.1l0 0h-.1l0 0 0 0h-.1l0 0 0 0h-.1l0 0h-.1v-.1l0 0h-.1l0 0 0 0h-.1l0 0 0 0h-.1l0 0 0 0h-.1l0 0 0 0h-.1l0 0 0 0h-.1l0 0 0 0h-.1l0 0 0 0h-.1l0 0 0 0h-.1l0 0h-.1l0 0 0 0h-.1l0 0v.1h-.1l0 0 0 0h-.1l0 0 0 0h-.1l0 0 0 0h-.1l0 0 0 0h-.1l0 0h-.1-.1v.1h-.1l0 0h-.1l0 0h-.1l-.1.1 0 0h-.1-.1-.1v.1h-.1-.1l0 0-.1.1h-.1-.1l0 0-.1.1h-.1l0 0-.1.1h-.1-.1v.1h-.1l-.1.1 0 0h-.1l-.1.1h-.1v.1h-.1-.1l-.1.1 0 0-.1.1h-.1v.1h-.1l-.1.1h-.1l-.1.1 0 0h-.1l0 0 0 0-.1-.1h-.1l0 0-.1-.1v-.1h-.1v-.1l0 0 0 0v-.1l0 0v-.1l0 0 .1-.1v-.1h.1l.1-.1h.1l.1-.1 0 0 .1-.1h.1l.1-.1h.1v-.1h.1l.1-.1h.1l.1-.1 0 0h.1l.1-.1h.1l.1-.1 0 0h.1l.1-.1h.1l0 0 .1-.1h.1.1l.1-.1 0 0h.1l.1-.1h.1.1l0 0h.1l.1-.1h.1.1l0 0h.1l.1-.1h.1l0 0h.1l0 0h.1.1l0 0 .1-.1 0 0h.1l0 0 0 0h.1l0 0 0 0h.1l0 0h.1l0 0 0 0h.1l0 0h.1l0 0 0 0h.1l0 0h.1l0 0 0 0h.1l0 0h.1l0 0z"/><path d="M15.7 64q.8-.2 1 .2.1.5-.7.8-.9.2-1.1-.2 0-.5.8-.8z" fill="#b7f8ff"/><path d="M21.7 64.5q.7.5.6.9-.3.4-1 0-.8-.4-.6-.9.2-.3 1 0z" fill="#b7f8ff"/><path d="M9.1 64.4q4.4-.2 5.5 4.1.2 4.4-4.1 5.4C7.9 74.3 5.4 72.5 5.1 69.8q-.2-4.3 4-5.4z" fill="#fff" stroke="#000" stroke-width="0.85px"/><path d="M26 65.8q4.4-.2 5.5 4 .2 4.4-4.1 5.5Q23 75.5 22 71.2q-.2-4.4 4-5.4z" fill="#fff" stroke="#000" stroke-width="0.85px"/></g><path d="M134.6 87.9c0 0 3.2 2.8 2.9 5.3q-1.4 3.7-3 .8-.6-3-2.5-4.3c-1.4-.7.6-3.5 2.6-1.8z" fill="#d6c295" stroke="#000" stroke-width="0.85px"/><path d="M125.3 60.1c0 0-2-2.1-2.7 2.9" fill="none" stroke="#61e0ee" stroke-width="0.85px"/><path d="M118.5 59.6c0 0 1.9-2 2.5 3.2" fill="none" stroke="#61e0ee" stroke-width="0.85px"/><path d="M123.6 57.9c0 0-2.2-1.4-1.8 4.3" fill="none" stroke="#61e0ee" stroke-width="0.85px"/><path d="M130.3 108.5c0 0-.3-4.2-2.5-5.5q-3.8-1.1-2.5 1.9 2.1 2.3 2 4.6c-.3 1.5 3.1 1.6 3-1z" fill="#d6c295" stroke="#000" stroke-width="0.85px"/><path d="M111.3 109c0 0 2.2-3.6 1.1-5.9q-2.4-3.1-3.1.1.4 3.1-1 4.9c-1.1 1.1 1.6 3.1 3 .9z" fill="#d6c295" stroke="#000" stroke-width="0.85px"/><path d="M134.1 69.1q.7.1 1.2-.4c4.1-3.2-1.5-4.4-2.7-1.9" fill="#61e0ee"/><path d="M135.1 64.9l0 0 0 0h.1l0 0 0 0h.1l0 0 0 0h.1l0 0 0 0h.1l0 0 0 0h.1l0 0 .1.1 0 0h.1l0 0 0 0h.1.1l0 0 .1.1h.1l0 0h.1v.1h.1.1v.1h.1l0 0 .1.1 0 0 .1.1 0 0h.1v.1h.1v.1h.1v.1.1h.1v.1l0 0 .1.1v.1l0 0v.1.1h.1v.1l0 0 0 0v.1l0 0 0 0v.1l0 0v.1l0 0 0 0v.1l0 0 0 0-.1.1v.1l0 0v.1.1l-.1.1 0 0v.1l-.1.1 0 0v.1l-.2.2 0 0-.1.1v.1l-.1.1 0 0-.2.2v.1h-.1l-.2.2-.1.1 0 0-.2.2-.2.2h-.1l-.1.1h-.1v.1h-.1l0 0h-.1v.1h-.1l0 0h-.1v.1h-.1l0 0h-.1l0 0-.1.1 0 0h-.1l0 0 0 0h-.1l0 0 0 0h-.1l0 0 0 0h-.1l0 0 0 0h-.1l0 0 0 0h-.1l0 0h-.1v-.1h-.1-.1l0 0-.1-.1 0 0-.1-.1 0 0v-.1h-.1l0 0v-.1l0 0v-.1l0 0 0 0v-.1l0 0 0 0v-.1l0 0 .1-.1 0 0v-.1h.1v-.1h.1l0 0h.1v-.1h.1l0 0 0 0h.1l0 0 0 0h.1l0 0 0 0 .1.1 0 0 0 0 0 0 0 0 0 0 0 0 0 0 0 0 0 0 0 0 0 0h.1l0 0 0 0 0 0 0 0 0 0 0 0 0 0 0 0 0 0 0 0h.1l0 0v-.1l0 0 0 0 0 0 0 0 0 0 0 0h.1l0 0 0 0 0 0 0 0 0 0 0 0h.1l0 0v-.1l0 0 0 0h.1l0 0 .1-.1 0 0h.1l.2-.2 0 0 .2-.2h.1v-.1l.1-.1 0 0 .1-.1h.1v-.1l.1-.1 0 0v-.1h.1v-.1l0 0 .1-.1 0 0v-.1l0 0 0 0 .1-.1 0 0 0 0 0 0v-.1l0 0 0 0 0 0 0 0 0 0v-.1l0 0 0 0 0 0 0 0 0 0 0 0 0 0v-.1l0 0 0 0 0 0 0 0 0 0 0 0 0 0 0 0 0 0v-.1l0 0 0 0 0 0 0 0 0 0 0 0 0 0 0 0 0 0 0 0 0 0v-.1l0 0 0 0 0 0 0 0 0 0h-.1l0 0 0 0 0 0 0 0v-.1l0 0 0 0 0 0h-.1l0 0 0 0v-.1l0 0h-.1l0 0 0 0 0 0 0 0h-.1l0 0v-.1l0 0h-.1l0 0 0 0 0 0h-.1l0 0 0 0 0 0 0 0h-.1l0 0 0 0 0 0 0 0-.1-.1 0 0 0 0 0 0 0 0h-.1l0 0 0 0 0 0h-.1l0 0 0 0 0 0h-.1l0 0 0 0 0 0 0 0h-.1l0 0 0 0 0 0h-.1l0 0 0 0 0 0h-.1l0 0 0 0 0 0h-.1l0 0 0 0 0 0h-.1l0 0 0 0v.1h-.1l0 0 0 0 0 0h-.1l0 0 0 0h-.1l0 0 0 0h-.1l0 0-.1.1 0 0 0 0 0 0h-.1l0 0-.1.1 0 0h-.1l0 0v.1h-.1l0 0h-.1v.1l0 0h-.1l0 0v.1h-.1l0 0v.1h-.1v.1l0 0 0 0-.1.1 0 0 0 0v.1h-.1v.1l0 0-.1.1 0 0-.1.1 0 0h-.1l0 0h-.1l0 0 0 0-.1.1 0 0v-.1l0 0h-.1l0 0h-.1-.1v-.1h-.1l0 0v-.1h-.1v-.1l0 0v-.1l0 0v-.1l0 0 0 0v-.1l0 0 0 0v-.1l0 0v-.1l.1-.1 0 0 .1-.1v-.1l0 0 .1-.1v-.1h.1v-.1l.1-.1 0 0 .1-.1h.1v-.1h.1v-.1h.1.1v-.1h.1l.1-.1 0 0h.1l.1-.1 0 0h.1l.1-.1 0 0h.1.1v-.1h.1.1l0 0h.1.1l0 0 .1-.1 0 0 0 0h.1l0 0 0 0h.1l0 0 0 0h.1l0 0 0 0h.1l0 0h.1l0 0 0 0h.1l0 0 0 0h.1z"/><path d="M133.8 102.5c0 0 2.1-4.2 1.7-7.8-1.2-11.2 2.1-13.4.8-20.2q-.6-3.9-2.7-7.1Q127.9 60.6 119 61.9q-3.2.7-6 2.3-9.1 6.5-7.1 17.2 1.8 4.9 2.4 9.8-1.2 7.8 1.3 12.6 3.3 5.3 14.1 4.9c1.1-.1 7.7-1.3 10.1-6.2z" fill="#61e0ee"/><g><path d="M110.2 66.9c0 0-2.2 5.4-.8 9.7q2.9 6.9 3.3 16.4-.5 9.1 1.6 11.7c2.7 3.4 10 3.9 11.9 3.4s-7.4 1.9-12.7-.2-6-11.1-5.3-16.8-3.8-7.2-2.3-16.8c2.4-5.7 2.5-5.4 4.3-7.4z" fill="#3fc9df"/></g><path d="M121.7 61.1l0 0h.1l0 0h.1.1l0 0h.1.1l0 0h.1.1l0 0h.1.1l0 0h.1.1.1.1l0 0h.1l.1.1h.1.1.2.1.1.1l.1.1h.2.1.1l.2.1h.1.1.2l.1.1h.1.1l.2.1h.1.1l.2.1h.1.1l.1.1h.2l.1.1h.1.2l.1.1h.1l.1.1h.2l.1.1h.1l.1.1h.2l.1.1h.1l.1.1h.2l.2.2h.1l.1.1h.2l.1.1h.1l.2.2h.1l.2.1.1.1h.1l.2.2h.1l.1.1.2.1.1.1h.1l.2.2.1.1h.1l.2.2.2.2h.2l.2.2.2.2.2.2 0 0 .2.2.2.2.2.2.2.2.2.2.2.2v.1l.2.2.2.2.1.1v.1l.2.2.1.1v.1l.2.2v.1l.2.2v.1l.1.1v.1l.2.2v.1l.1.2v.1l.1.1v.1l.2.2v.1l.1.1v.2l.1.1v.1l.1.1v.1l.1.1v.1.2l.1.1v.1l.1.1v.1l.1.2v.1.1l.1.1.1.2v.3l.2.5v.2l.2.5v.2l.1.2v.3l.1.2v.2l.1.3v.1.2.2l.1.1v.2.1.2l.1.1v.1.1.1.1.1.1.1.1.1l0 0v.1.1.1h.1v.1.1l0 0v.1.1l0 0v.1.1.1l0 0v.1.1l0 0v.1.1l0 0v.1.1l0 0v.1.1l0 0v.1l-.1.1 0 0v.1.1l0 0v.1.1l0 0v.1.1l0 0v.1.1.1l0 0v.2l0 0-.1.2v.2.3l-.1.2v.3.2l-.1.3v.2l-.1.3-.2 1-.1.5v.3.3l-.1.2v.3l-.1.3v.3l-.1.3v.3.3l-.1.2v.1.1.1.2.1.1l-.1.1v.1.2l0 0v.2.1.2l0 0v.1.1.1.1.1.1.1l-.1.1 0 0v.1.1.1.1.1.1.1.1.1.1.1.1.1.1.1.1.1.1.1.1.1.1.1.1.1.1.1.1l.1.1v.2.1.1.2.1.2.2.2.2l.1.3v.2.3.2l.1.3v.2.3l0 0v.1l0 0v.1l0 0 0 0v.1l0 0v.1l0 0v.1h.1v.1l0 0v.1l0 0 0 0v.1l0 0v.1l0 0v.1l0 0v.1l0 0v.1l0 0 0 0v.1l0 0v.1l0 0-.1.1v.1.1.1.2.1.2.2l-.1.2v.2.1l-.1.2v.2.1l-.1.2v.2.1l-.1.2v.2l-.1.1v.2.1l-.1.2v.1l-.1.2v.1l-.1.2v.1l-.1.2v.1l-.1.1v.1l-.1.2v.1l-.2.4-.1.2v.2l-.1.2-.1.1v.1l-.1.2 0 0-.1.1v.1l-.1.1v.1l-.1.2-.1.1v.1l-.2.2v.1l-.1.1-.1.2-.1.1v.1l-.2.2-.2.2v.1l-.2.2-.2.2h-.1l-.1.1v.1l-.2.2-.2.2-.1.1h-.1l-.2.2-.2.2h-.1l-.2.2h-.1l-.2.2-.1.1h-.1l-.2.2h-.1l-.1.1h-.1l-.2.2h-.1l-.1.1h-.1l-.1.1h-.1l-.1.1h-.1l-.1.1h-.1l-.1.1h-.1l-.1.1h-.1l-.1.1-.2.1h-.2l-.4.2-.2.1h-.2l-.4.2h-.2l-.2.1-.1.1h-.2l-.2.1h-.2l-.1.1h-.2-.1l-.2.1h-.1-.2l-.1.1h-.2-.1-.1l-.1.1h-.1-.1-.1l0 0h-.1l0 0h-.1l-.2.1 0 0h-.2-.1-.1-.1-.1-.1l0 0h-.1-.1-.1-.1l0 0h-.1-.1l-.1.1 0 0h-.1-.1-.1-.1l0 0h-.1-.1-.1l0 0h-.1-.1-.1l0 0h-.1-.1-.1l0 0h-.1-.1-.1-.1l0 0h-.1l-.1-.1h-.1l0 0h-.1-.1-.1l0 0h-.1-.1l0 0h-.1-.2l0 0h-.2-.1l-.1-.1h-.2l0 0h-.2-.1-.2l-.1-.1h-.1-.2-.1-.2l-.1-.1h-.1-.2l-.1-.1h-.2-.1-.1l-.2-.1h-.1-.1l-.2-.1h-.1-.1l-.2-.1h-.1-.1l-.1-.1h-.2l-.1-.1h-.1-.1l-.2-.1h-.1l-.1-.1h-.1l-.2-.1h-.1l-.1-.1h-.1l-.1-.1h-.1l-.2-.1h-.1l-.1-.1h-.1l-.1-.1h-.1l-.1-.1h-.1l-.1-.1h-.1l-.1-.1h-.2l-.2-.2h-.1l-.1-.1h-.1v-.1l-.1-.1h-.1l-.2-.2h-.1l-.1-.1h-.1l-.2-.2 0 0-.2-.2-.1-.1h-.1v-.1l-.1-.1h-.1l-.1-.1v-.1l-.1-.1h-.1l-.1-.1v-.1h-.1l-.1-.1v-.1l-.1-.1v-.1h-.1v-.1l-.2-.2v-.1h-.1v-.1l-.1-.1v-.1-.1h-.1l-.2-.4v-.2l-.1-.2-.1-.1-.1-.2v-.2l-.1-.2-.1-.1v-.2l-.2-.4v-.1l-.1-.2v-.2l-.1-.2v-.1l-.1-.2v-.2l-.1-.2v-.2-.1l-.1-.2v-.2-.2l-.1-.2v-.1-.2l-.1-.2v-.2-.2-.2-.2-.1l-.1-.2v-.1-.2-.1-.1-.1-.1-.1-.1-.1-.1-.1-.1-.1-.1-.1-.1-.1-.1-.1-.1-.1-.1-.1-.1-.1-.2-.1-.2-.1l.1-.2v-.2-.2-.2-.3-.2l.1-.2v-.3-.2-.3l.1-.3v-.2-.3l.1-.3v-.1l0 0 0 0v-.1l0 0 0 0v-.1l0 0 0 0 0 0v-.1l0 0 0 0v-.1l0 0 0 0v-.1l0 0 0 0v-.1l0 0 0 0 0 0v-.1l0 0 0 0v-.1l0 0 0 0v-.1l0 0 0 0v-.1l0 0 0 0v-.1-.1l-.1-.2v-.1-.2-.1l-.1-.2v-.1-.2l-.1-.1v-.2-.1l-.1-.2v-.1l-.1-.2v-.2l-.1-.1v-.2l-.1-.1v-.2l-.1-.2v-.1l-.1-.4-.2-.6-.3-.7-.2-.6-.2-.6v-.1l-.1-.2v-.2l-.1-.1v-.2l-.1-.1v-.2l-.1-.1v-.2-.1l-.1-.2v-.1-.2l-.1-.1v-.2-.1-.1l-.1-.2v-.1-.1-.2-.1-.1-.1-.1l-.1-.1v-.1-.1-.1-.1-.1-.1-.1-.1l0 0v-.1-.1-.1-.1l0 0v-.1-.1-.1l0 0v-.1-.1l-.1-.1v-.1l0 0v-.1-.1-.1l0 0v-.1-.1-.1-.1l0 0v-.1-.1l.1-.1 0 0v-.1-.1-.1-.1l0 0v-.1-.1-.1l0 0v-.1-.1-.1-.1l0 0v-.1-.2-.1l0 0 .1-.2v-.1-.1-.2-.1-.2l.1-.1v-.2-.2-.1l.1-.2v-.1-.2l.1-.1v-.2-.1l.1-.2v-.1-.2l.1-.2v-.1l.1-.2v-.1-.2l.1-.1v-.2l.1-.1v-.2l.1-.1v-.2l.2-.2v-.2l.1-.1v-.2l.1-.1.1-.2v-.1l.1-.2.1-.1v-.2l.2-.2v-.2l.1-.1.1-.2.2-.2v-.2l.2-.2.1-.2.2-.2.1-.2.2-.2v-.2l.2-.2.3-.3.2-.2.2-.2.1-.2.2-.2.1-.1.2-.1.1-.1.1-.2.1-.1.2-.1.2-.2.2-.1.2-.2.2-.1.2-.2.2-.1.1-.1.2-.1.1-.1.2-.1.1-.1.2-.1.1-.1.5-.2.4-.2.4-.2.2-.1.1-.1.4-.2.2-.1h.2l.4-.2.1-.1.2-.1h.2l.4-.2.2-.1h.2l.4-.2h.2l.4-.2h.2l.2-.1h.1.1l.1-.1h.1.1.1l.1-.1h.1.2.1.1l.1-.1h.2.1.1l0 0h.2l.1-.1h.1.1.1l0 0h.1.1l0 0h.1.1l0 0h.1.1l0 0h.1.1l0 0h.1.1l0 0h.1.1l0 0h.1.1zm-.2 1.1 0 0h-.1-.1l0 0h-.1l0 0h-.1-.1l0 0h-.1-.1l0 0h-.1l0 0h-.1-.1l0 0h-.1l0 0-.2.1 0 0h-.2l0 0h-.1-.1-.1-.1l-.1.1h-.1-.1-.2-.1l-.1.1 0 0h-.1-.1-.1l-.1.1h-.1-.2l-.1.1h-.2l-.2.1h-.2l-.4.2h-.1l-.4.2h-.2l-.2.1-.1.1-.2.1h-.2l-.4.2-.1.1-.2.1h-.2l-.2.1-.1.1-.4.2-.4.2-.2.1-.3.2h-.1l-.2.1-.2.2-.2.1-.1.1h-.2l-.2.2-.1.1-.2.1-.2.2-.2.1-.2.2-.2.2-.1.1-.2.1-.2.2-.2.2-.2.2-.1.1-.1.2-.2.2-.2.2-.2.2-.1.2v.1l-.2.2-.1.1-.1.2-.1.1v.1l-.1.1-.1.2-.1.1v.1l-.1.1-.1.2v.1l-.1.1-.1.2v.1l-.1.1-.1.2v.1l-.1.1v.2l-.1.1v.1l-.1.2-.1.1v.1l-.1.2v.1.2l-.1.1v.1l-.1.2v.1l-.1.2v.1.1l-.1.2v.1.2l-.1.1v.2.1l-.1.2v.1.1.2l-.1.1v.2.1.2l-.1.1v.1.1.1.2l0 0v.1.2h-.1v.1.1.1.1.1.1l0 0v.1.1.1l0 0v.1.1l0 0v.1.1.1l0 0v.1.1.1l0 0v.1.1.1l0 0v.1.1.1l0 0v.1.1l0 0v.1.1.1l0 0v.1.1.1l0 0v.1.1.1l0 0v.1.1.1l0 0v.1l.1.1v.1.2l0 0v.2.1l0 0v.2.1l.1.2 0 0v.2.1.1.1l.1.2v.1.1l.1.2v.1.1l.1.2v.1l.1.2v.1l.1.2v.1l.1.2v.1l.1.4.2.6.4 1 .2.6.1.3v.2l.1.1v.2l.1.2v.1l.1.2v.2l.1.1v.2l.1.2v.1l.1.2v.2.1l.1.2v.2.1.2l.1.1v.2.2l0 0 0 0v.1l0 0 0 0v.1l0 0v.1l0 0 0 0v.1l0 0v.1l0 0 0 0v.1l0 0v.1l0 0 0 0v.1l0 0 0 0v.1l0 0v.1l0 0 0 0v.1l0 0 0 0v.1l0 0v.2l-.1.3v.2.3.2l-.1.3v.2.3.2l-.1.2v.2.1.2.2.1.1.3.1l-.1.1v.1.1.1.1.1.1.1.1.1.1.1.1.1.1.1.1.1.1.1.1.1.1.1.1.1.1.1l.1.1v.1.2.1.1.2.1l.1.2v.2.2.1l.1.2v.2.1l.1.2v.2.1l.1.2v.2l.1.1v.2l.1.2v.1l.1.2v.2l.1.1v.2l.1.1.1.2v.2l.1.1.2.4v.1l.2.4v.1l.1.1 0 0v.1h.1v.1l.1.1 0 0v.1l.1.1 0 0 .1.1v.1h.1v.1h.1v.1l.1.1h.1v.1l.1.1 0 0 .1.1h.1v.1l.1.1h.1v.1h.1l.2.2 0 0 .1.1h.1l.1.1h.1v.1l.1.1h.1l.1.1h.1l.1.1h.1l.1.1 0 0 .1.1h.1l.1.1h.1l.1.1h.1l.1.1h.1l.1.1h.1l.1.1h.1l.1.1h.2l.1.1h.1l.1.1h.1.1l.1.1h.1l.1.1h.2.1l.1.1h.1.1l.2.1h.1l.1.1h.1.1l.2.1h.1.1l.1.1h.2.1.1l.2.1h.1.1.2l.1.1h.1.2.1.1l.2.1h.1.1.1.1.1.1.1.1l.1.1h.1.1l0 0h.1.1l0 0h.1.1.1l0 0h.1.1l0 0h.1.1l0 0h.1.1.1l0 0h.1.1.1l0 0h.1.1l0 0h.1.1.1l0 0h.1.1.1l0 0h.1.1l0 0h.1.1.1l0 0h.1.1.1l0 0h.1.1.1l0 0 .2-.1h.1.1.1.1l0 0h.1l0 0 0 0h.1.1l0 0 .1-.1h.1.1.2l.1-.1h.1.2l.1-.1h.2.1l.2-.1h.1l.2-.1h.1l.2-.1h.2l.2-.1h.1l.4-.2h.2l.4-.2h.2l.2-.2h.1l.1-.1h.1.1l.1-.1h.1l.1-.1h.1l.1-.1h.1l.1-.1h.1l.1-.1h.1l.2-.2h.1v-.1h.1l.2-.2h.1l.1-.1h.1l.2-.2h.1l.1-.1v-.1h.1l.2-.2.1-.1h.1l.1-.1v-.1l.1-.1h.1l.2-.2.1-.1v-.1h.1l.2-.2v-.1l.2-.2v-.1l.1-.1h.1l.1-.1v-.1l.1-.1v-.1l.2-.2v-.1l.1-.1v-.1l.2-.2v-.1-.1l.1-.1v-.1l.1-.1v-.1l.1-.1.1-.2v-.2l.2-.4.1-.2v-.1-.1l.1-.1v-.1l.1-.2v-.1l.1-.1v-.2l.1-.1v-.2-.1l.1-.1v-.2l.1-.1v-.2-.1l.1-.2v-.1-.2l.1-.2v-.1-.2l.1-.1v-.2-.2-.1l.1-.2v-.1-.1-.2-.1-.1l0 0v-.1-.1l0 0 0 0v-.1l0 0v-.1l0 0 0 0v-.1l0 0v-.1l0 0 0 0v-.1l0 0v-.1l0 0v-.1l0 0 0 0v-.1l0 0 0 0v-.1l0 0v-.1l0 0 0 0v-.1l0 0v-.1l0 0-.1-.3v-.2-.3-.2l-.1-.3v-.2-.3-.2-.1-.2-.2l-.1-.1v-.1-.1-.2-.2-.1-.1-.1-.1-.1-.2-.1-.1-.1-.1-.1-.1-.1-.1-.1-.1-.1-.1-.1-.1-.1-.1-.1-.1-.1-.1-.1-.1-.1-.1-.1-.1-.1-.1-.1-.1l0 0v-.1-.1l.1-.1v-.1-.1-.1-.2l0 0v-.2-.1-.1-.1l.1-.2v-.1-.2-.1-.3l.1-.3v-.3-.3l.1-.3v-.3l.1-.2v-.3l.1-.3v-.3l.2-1 .1-.5v-.3l.1-.2v-.3l.1-.2v-.2-.3l.1-.2v-.3l0 0v-.1-.1-.1l0 0v-.1l.1-.1v-.1l0 0v-.1-.1l0 0v-.1l0 0v-.1-.1l0 0v-.1-.1l0 0v-.1l0 0v-.1-.1l0 0v-.1-.1l0 0v-.1l0 0v-.1-.1l0 0v-.1-.1l0 0v-.1-.1l0 0v-.1-.1l0 0v-.1-.1l0 0v-.1-.1l0 0v-.1-.1l0 0v-.2l0 0-.1-.2v-.1-.1-.1-.2-.1l-.1-.2v-.1-.2l-.1-.1v-.2-.3l-.1-.2v-.2l-.1-.2v-.2l-.1-.3v-.2l-.2-.4v-.3l-.2-.4v-.2l-.1-.1v-.1-.1l-.1-.1v-.2l-.1-.1v-.1-.1l-.1-.1v-.1l-.1-.1v-.1l-.1-.1v-.1l-.1-.1v-.2h-.1v-.2l-.1-.1v-.1l-.1-.1v-.1l-.1-.1v-.1l-.1-.1v-.1l-.1-.1v-.1l-.1-.1v-.1h-.1l-.1-.1v-.1l-.1-.1v-.1l-.2-.2v-.1l-.2-.2-.1-.1v-.1l-.1-.1h-.1l-.1-.1v-.1l-.2-.2-.2-.2-.1-.1v-.1h-.1l-.2-.2-.2-.2-.1-.1h-.1v-.1l-.2-.2-.1-.1h-.1l-.2-.2-.1-.1h-.1l-.2-.2-.1-.1h-.1l-.1-.1 0 0-.1-.1h-.1l-.2-.2h-.1l-.2-.2h-.1l-.1-.1h-.2l-.2-.2h-.1l-.1-.1h-.1l-.1-.1h-.1l-.2-.2h-.2l-.1-.1h-.1l-.1-.1h-.1l-.1-.1h-.1-.2l-.1-.1h-.1l-.1-.1h-.1l-.1-.1h-.2-.1l-.1-.1h-.1l-.1-.1h-.2-.1l-.1-.1h-.1-.1l-.2-.1h-.1-.1-.1l-.1-.1h-.2-.1-.1l-.1-.1h-.2-.1-.1-.1l-.2-.1 0 0h-.1-.1-.1-.1l0 0h-.2l0 0-.1-.1h-.1l0 0h-.1l0 0h-.1-.1l0 0h-.1l0 0h-.1-.1l0 0h-.1-.1l0 0h-.1l0 0h-.1-.1l0 0h-.1z"/><path d="M122.9 106.4q9-2.7 8.6-5.7 1.3-5.2.5-10.6-.4-1.5-1.4-2.8c-1.6-1.8-8.8-1.9-11.4-1.5l-3 .9c-3.3 1.5-4.5 17.7 1.8 19.3q2.9.7 4.9.4z" fill="#b7f8ff"/><circle cx="135" cy="75" r="0" fill="#b7f8ff"/><circle cx="112" cy="78" r="0" fill="#b7f8ff"/><path d="M117.2 94.1c0 0-1.4-4-3.8-4.6q-4-.1-1.9 2.5 2.6 1.6 3.1 3.8c.1 1.6 3.5.7 2.6-1.7z" fill="#d6c295" stroke="#000" stroke-width="0.85px"/><g><path d="M114.2 80.2c-1-3.1-1.6-.7 9.6-1.8 10.6-1.1 10.1-3.4 9.7-.9-.3 2.6-2.9 8.3-7.8 9.5s-10.5-3.4-11.5-6.8z"/><path d="M123.2 74.2q-2.2.2-2.3 1.6.3 1.3 2.5 1.3 2.1-.2 2.2-1.6-.3-1.3-2.4-1.3z"/><path d="M123.4 76.3l0 0h.1l0 0 0 0 0 0 0 0 0 0h.1l0 0 0 0 0 0 .1.1 0 0 0 0h.1v.1l0 0 0 0 0 0v.1l0 0 0 0 0 0 0 0 0 0v.1l0 0v.1.1l0 0v.1l0 0v.1l.1.1 0 0v.1.1.1l0 0v.3.3l.1.2v.1.1l0 0v.1.1l0 0v.1l0 0 0 0 0 0 0 0 0 0v.1l0 0 0 0 0 0v.1h-.1l0 0 0 0v.1l0 0h-.1l0 0v.1h-.1l0 0 0 0 0 0 0 0h-.1l0 0 0 0 0 0 0 0 0 0h-.1l0 0 0 0 0 0 0 0h-.1l0 0v-.1h-.1l0 0 0 0v-.1h-.1l0 0 0 0v-.1l0 0 0 0 0 0 0 0v-.1l0 0 0 0v-.1l0 0-.1-.1v-.1-.1l0 0v-.2-.3l-.1-.3v-.1-.1l0 0v-.1-.1-.1-.1l0 0v-.1-.1l0 0v-.1l0 0 0 0v-.1l0 0 0 0 0 0v-.1l0 0 0 0 0 0 .1-.1 0 0 0 0 0 0 .1-.1 0 0 0 0h.1l0 0 0 0 0 0 0 0 0 0h.1l0 0 0 0 0 0z"/><path d="M126.2 64.2q-.7.5-.5.9.4.3 1.1-.2.6-.6.4-1-.4-.2-1 .3z" fill="#b7f8ff"/><path d="M117.3 64.4q-.8-.4-1.1 0-.1.4.6.8.8.4 1.1.1.1-.5-.6-.9z" fill="#b7f8ff"/><path d="M109.3 78.4c0 0-5.2 1.4-3.2 3.4s3.2-3.4 3.2-3.4z" fill="#b7f8ff"/><path d="M108 75.1c0 0-3.5.3-2.5 1.9s2.5-1.9 2.5-1.9z" fill="#b7f8ff"/><path d="M139.2 74.5c0 0 1.9 3 2.8 1.4s-2.8-1.4-2.8-1.4z" fill="#b7f8ff"/><path d="M137.8 71.1c0 0 2.9 1.9 3 .1s-3-.1-3-.1z" fill="#b7f8ff"/><path d="M114.2 80.2c-1-3.1-1.6-.7 9.6-1.8 10.6-1.1 10.1-3.4 9.7-.9-.3 2.6-2.9 8.3-7.8 9.5s-10.5-3.4-11.5-6.8z"/><path d="M123.2 74.2q-2.2.2-2.3 1.6.3 1.3 2.5 1.3 2.1-.2 2.2-1.6-.3-1.3-2.4-1.3z"/><path d="M123.4 76.3l0 0h.1l0 0 0 0 0 0 0 0 0 0h.1l0 0 0 0 0 0 .1.1 0 0 0 0h.1v.1l0 0 0 0 0 0v.1l0 0 0 0 0 0 0 0 0 0v.1l0 0v.1.1l0 0v.1l0 0v.1l.1.1 0 0v.1.1.1l0 0v.3.3l.1.2v.1.1l0 0v.1.1l0 0v.1l0 0 0 0 0 0 0 0 0 0v.1l0 0 0 0 0 0v.1h-.1l0 0 0 0v.1l0 0h-.1l0 0v.1h-.1l0 0 0 0 0 0 0 0h-.1l0 0 0 0 0 0 0 0 0 0h-.1l0 0 0 0 0 0 0 0h-.1l0 0v-.1h-.1l0 0 0 0v-.1h-.1l0 0 0 0v-.1l0 0 0 0 0 0 0 0v-.1l0 0 0 0v-.1l0 0-.1-.1v-.1-.1l0 0v-.2-.3l-.1-.3v-.1-.1l0 0v-.1-.1-.1-.1l0 0v-.1-.1l0 0v-.1l0 0 0 0v-.1l0 0 0 0 0 0v-.1l0 0 0 0 0 0 .1-.1 0 0 0 0 0 0 .1-.1 0 0 0 0h.1l0 0 0 0 0 0 0 0 0 0h.1l0 0 0 0 0 0z"/><path d="M109.3 78.4c0 0-5.2 1.4-3.2 3.4s3.2-3.4 3.2-3.4z" fill="#40c9e0" stroke="#b7f8ff" stroke-width="0.85px"/><path d="M108 75.1c0 0-3.5.3-2.5 1.9s2.5-1.9 2.5-1.9z" fill="#40c9e0" stroke="#b7f8ff" stroke-width="0.85px"/><path d="M139.2 74.5c0 0 1.9 3 2.8 1.4s-2.8-1.4-2.8-1.4z" fill="#40c9e0" stroke="#b7f8ff" stroke-width="0.85px"/><path d="M137.8 71.1c0 0 2.9 1.9 3 .1s-3-.1-3-.1z" fill="#40c9e0" stroke="#b7f8ff" stroke-width="0.85px"/><path d="M122 79.4l.6 2.5.9.3q1.9-.4 1.8-3" fill="#ededed"/><path d="M125.3 78.8l0 0 0 0h.1l0 0h.1l0 0v.1h.1l0 0v.1h.1l0 0v.1l0 0 0 0v.1l0 0 0 0 0 0 0 0v.1.2l-.1.1v.2.3.1l-.1.1v.2.1.1.1l0 0-.1.1 0 0 0 0v.1.1l0 0v.1l-.1.1 0 0v.1.1h-.1v.1l0 0v.1l-.1.1 0 0-.1.1 0 0v.1h-.1v.1l-.1.1 0 0h-.1v.1h-.1l-.1.1 0 0-.1.1h-.1l0 0h-.1l-.1.1 0 0h-.1-.1l0 0h-.1l0 0h-.1l0 0 0 0h-.1l0 0h-.1l0 0h-.1l0 0h-.1l0 0 0 0h-.1l0 0 0 0h-.1l0 0h-.1l0 0 0 0h-.1l0 0 0 0 0 0h-.1l0 0v-.1l0 0h-.1l0 0 0 0 0 0h-.1v-.1h-.1l0 0h-.1v-.1l0 0h-.1v-.1h-.1v-.1l0 0v-.1h-.1l0 0v-.1l0 0v-.1h-.1v-.1-.1l-.1-.1v-.1-.1-.1l-.1-.1 0 0v-.1-.1l0 0v-.1-.2l-.1-.2v-.3l-.1-.2v-.1l0 0v-.1l0 0v-.1l0 0v-.1l0 0 0 0v-.1h-.1l0 0 0 0h.1v-.1l0 0 0 0 0 0v-.1l0 0v-.1h.1l0 0v-.1h.1l0 0h.1l0 0 0 0 0 0h.1l0 0 0 0 0 0 0 0h.1l0 0 0 0h.1l0 0 .1.1 0 0 0 0 .1.1 0 0v.1l0 0 0 0v.1l0 0v.1l.1.1 0 0v.1.1.3l.1.3v.1.2.1h.1l0 0v.1.1.1.1l0 0 .1.1 0 0v.1.1l0 0 0 0 0 0 .1.1 0 0 0 0 0 0 0 0 0 0 0 0 0 0 0 0v.1l0 0 0 0 0 0 0 0 0 0 0 0 0 0 0 0h.1l0 0 0 0 0 0 0 0 0 0 0 0 0 0 0 0 0 0 0 0 0 0 0 0 0 0 0 0 0 0 0 0 0 0 0 0 0 0h.1l0 0 0 0v.1l0 0 0 0 0 0 0 0 0 0 0 0h.1l0 0 0 0 0 0h.1l0 0 0 0 0 0h.1l0 0h.1l0 0 0 0h.1l0 0 0 0 0 0h.1l0 0 0 0 0 0h.1l0 0 0 0 0 0h.1l0 0v-.1l0 0 0 0h.1l0 0 0 0 0 0h.1l0 0 0 0v-.1l0 0h.1l0 0 0 0v-.1h.1l0 0 0 0v-.1h.1l0 0v-.1l0 0v-.1h.1l0 0v-.1l0 0 0 0v-.1l0 0 0 0 .1-.1 0 0 0 0v-.1l0 0v-.1l0 0v-.1l0 0 .1-.1v-.1-.1-.2-.1l.1-.2v-.3-.1-.1-.2h.1l0 0v-.1l0 0 0 0v-.1h.1l0 0 .1-.1 0 0 0 0h.1l0 0 0 0 0 0h.1l0 0 0 0z"/><path d="M112.9 69.8l6 1.1-5.7 2.7" fill="none" stroke="#000" stroke-width="0.85px"/><path d="M131.6 72.2l-6-1.9 3.4-1.2 2.5-.8" fill="none" stroke="#000" stroke-width="0.85px"/></g><path d="M127.7 85.6q0-1.9-1.5-1.6-3.1.7-4.5.3-1.1.9-.8 1.9 3 1.2 6.8-.6z" fill="#ededed"/><path d="M126.7 83.5l0 0h.1l0 0 0 0 0 0v.1h.1l0 0 0 0h.1l0 0 0 0h.1l0 0 0 0h.1v.1h.1l0 0h.1v.1l0 0h.1l0 0 .1.1 0 0v.1h.1l0 0v.1l0 0 .1.1 0 0 0 0v.1h.1v.1l0 0 0 0v.1l0 0v.1h.1v.1.1.1l.1.1v.1.1.1.1.1l.1.1 0 0 0 0v.1l0 0-.1.1 0 0v.1h-.1v.1h-.1l-.1.1-.2.1h-.1l-.1.1h-.2l-.1.1h-.1l-.2.1h-.1l-.1.1h-.1l-.2.1h-.1-.1l-.1.1h-.1-.2l-.1.1h-.1-.1-.1l-.1.1h-.1-.1l0 0h-.2l0 0h-.1l0 0h-.1l0 0h-.1l0 0-.1.1 0 0h-.1l0 0h-.1l0 0h-.1l0 0h-.1l0 0h-.1l0 0h-.1l0 0h-.1l0 0h-.1v-.1h-.1l0 0h-.1l0 0h-.1l0 0h-.1l0 0h-.1-.1l0 0 0 0h-.1-.1l0 0-.1-.1h-.2-.2l-.2-.1h-.2-.2l-.2-.1-.4-.1h-.3l-.1-.1 0 0h-.1l-.1-.1 0 0v-.1l-.1-.1 0 0 0 0v-.1l0 0 0 0v-.1l0 0 0 0v-.1l0 0 0 0 0 0v-.1l0 0 0 0 0 0 0 0v-.1l0 0 0 0 0 0v-.1l0 0 0 0 0 0v-.1l0 0 0 0v-.1l0 0 0 0 .1-.1 0 0 0 0v-.1-.1l.1-.1v-.1-.1h.1v-.1l.1-.1 0 0v-.1h.1v-.1l0 0 0 0 .1-.1 0 0v-.1h.1l0 0v-.1h.1l0 0 .1-.1 0 0 0 0 .1-.1 0 0h.1l0 0h.1l0 0 0 0h.1l0 0h.1.1.1l0 0h.1.1.1l0 0h.1.1l0 0h.1l0 0h.1l.2.1h.2l0 0h.1l0 0h.1l0 0h.1l0 0 0 0h.1l0 0h.1l0 0h.1l0 0h.1l0 0h.1l0 0h.1l0 0h.1.1.1l.2-.1h.1.2.2l.2-.1h.2l.2-.1h.3l.3-.1 0 0 0 0h.1l0 0 0 0h.1l0 0 0 0h.1l0 0v-.1l0 0h.1l0 0 0 0 0 0h.1l0 0zm-.1.9 0 0 0 0 0 0 0 0 0 0 0 0h-.1l0 0 0 0 0 0 0 0 0 0h-.1l0 0 0 0 0 0-.2.1h-.3l-.2.1h-.3l-.2.1h-.2-.2l-.1.1h-.2-.2l0 0h-.1-.1l0 0-.1.1h-.1l0 0h-.1-.1l0 0h-.1l0 0h-.1l0 0h-.1l0 0h-.1l0 0h-.1v-.1h-.1l0 0h-.1-.2-.2l0 0h-.1l0 0h-.1-.1l0 0h-.1-.1l0 0-.1-.1h-.1-.1l0 0h-.1l0 0 0 0v.1l0 0 0 0 0 0 0 0 0 0 0 0h-.1v.1l0 0 0 0 0 0v.1h-.1l0 0v.1l0 0-.1.1 0 0v.1l-.1.1v.1l0 0 0 0v.1l0 0 0 0 0 0h-.1l0 0v.1l0 0 0 0 0 0 0 0 0 0 0 0v.1l0 0 0 0h.3l.5.2h.2.2l.2.1h.1.1.1l0 0h.1l0 0h.1l.1.1 0 0h.1l0 0 0 0h.1l0 0h.1l0 0h.1l0 0h.1l0 0 0 0h.1l0 0h.1l0 0h.1l0 0h.1l0 0 0 0h.1l0 0h.1l0 0h.1l0 0h.1l0 0h.1l0 0h.1l0 0 0 0h.1.1l.1-.1h.1l0 0h.1.1l.1-.1h.1.1.1l.1-.1h.2.1l.1-.1h.1l.1-.1h.1.2l.1-.1h.1l.1-.1.2-.1h.1l0 0-.1-.1v-.1l0 0v-.1-.1-.1h-.1v-.1l0 0 0 0 0 0v-.1l0 0 0 0 0 0 0 0 0 0 0 0v-.1l0 0 0 0h-.1l0 0 0 0 0 0 0 0 0 0v-.1l0 0 0 0 0 0 0 0 0 0 0 0 0 0 0 0 0 0 0 0 0 0h-.1l0 0 0 0 0 0 0 0v-.1l0 0 0 0 0 0 0 0 0 0 0 0 0 0 0 0 0 0 0 0 0 0 0 0h-.1l0 0 0 0 0 0 0 0 0 0 0 0 0 0 0 0 0 0 0 0h-.1l0 0 0 0 0 0 0 0 0 0 0 0h-.1z"/><circle cx="123" cy="75" r="4" fill="#c33" stroke="#000" stroke-width="0.85px"/><path d="M112 64.8c0 0-2.6-2.1-1.5-6.1S109 55.8 108 56.9q-2.7 1.3-1.6-5.4c1.7-4.3-1.9-3.9-3.2-1.2q-2.2 1.5.6 8.4 5.3 7.4 6.6 7.4l1.6-1.3z" fill="#d6c295" stroke="#000" stroke-width="0.85px"/><path d="M129.3 63.5c0 0 2.6-2.1 1.5-6.1s1.5-2.9 2.4-1.8q2.8 1.3 1.7-5.4C133.2 46 136.8 46.3 138 49q2.2 1.5-.5 8.4-5.3 7.4-6.6 7.4l-1.6-1.3z" fill="#d6c295" stroke="#000" stroke-width="0.85px"/><path d="M109.4 70.7q-.5-1.2 3.5-7.4 5.5-5.8 12.5-3.5 5.8 3.9 5.5 4.8" fill="none" stroke="#000" stroke-width="0.85px"/><path d="M6.2 71.9c0 0-5.2 8.7-1.9 15.4q2.9 3.3 3.1.4C5 80.8 7.8 74.2 9 73.3S7.9 69.9 6.2 71.9z" fill="#d6c295" stroke="#000" stroke-width="0.85px"/><path d="M24.5 74c0 0-3.1 9 1.5 14.6q3.6 2.4 3.1-.5C25 82.9 26.6 75.7 27.6 74.5s-2.1-3-3.1-.5z" fill="#d6c295" stroke="#000" stroke-width="0.85px"/><path d="M6.2 69.2l2.1.1q.5-1.7 1.4-2.6.8 1 1.3 2.9 2 .7 1.9 1.3-1.2 1-2.7.3c-.7-.4 1 1.6.3 2q-1.4 0-1.8-1.8-.6-.9-2.3-.3-1.2-.6-.2-1.9z"/><path d="M29.4 72.7l-1.5-1.4q.8-1.5.8-2.8-1.3.3-3 1.3-1.9-1-2.2-.5.2 1.6 1.8 2.2c.7.2-2 .4-1.7 1.2q1.1 1 2.6-.1 1-.2 1.8 1.4 1.3.4 1.4-1.3z"/><path d="M10.1 76.4q-.4.6-.8 2.3 0 .7.8.8.7-.1.8-.8-.4-1.7-.8-2.3z" fill="#c33" stroke="#000" stroke-width="0.85px"/><path d="M29.6 80q-.4.7-.8 2.3.1.8.8.8.7 0 .8-.8Q30 80.7 29.6 80z" fill="#c33" stroke="#000" stroke-width="0.85px"/><path d="M21.1 83.8q-.4.7-.8 2.3 0 .8.8.8.7 0 .8-.8-.4-1.6-.8-2.3z" fill="#c33" stroke="#000" stroke-width="0.85px"/><g transform="matrix(0.379128,0,0,0.379128,-3885.37,-1640.33)" fill="#e22c30"><path d="M10386.9 4521.9q-.7-2.5-2-4.1-1.2-1.7-3-2.6-1.7-.9-3.8-.8-2.7-.1-4.7 1.1-2 1-3.6 2.8l-.5-2.3-.5-.9-1-.3h-3.8-3.8v3q0 1.2 1.3 1.5l2.5.5v24.1l-2.5.5q-1.3.3-1.3 1.6v2.9h13.8v-2.9q0-1.3-1.3-1.6l-2.5-.5v-5.6q1.2 1.2 2.7 1.9 1.5.6 3.7.6 2.5 0 4.6-1 2-1 3.4-2.8 1.4-1.8 2.2-4.2.8-2.5.8-5.4 0-3.1-.7-5.5zm-6.1 9.4q-.5 1.7-1.3 2.7-.7 1.1-1.9 1.6-1.1.5-2.5.5l-2.6-.5q-1.3-.5-2.3-1.8v-11.5q1.2-1.5 2.5-2.3 1.4-.8 3.3-.8l2.1.5q1 .4 1.7 1.4.7 1 1 2.5.4 1.6.4 3.9 0 2.2-.4 3.8z"/><path d="M10401.8 4536l-1-.2-1.6-.3v-32.2h-6.1-3.8v3q0 1.2 1.3 1.5l2.5.5v27.2l-2.5.5q-1.3.2-1.3 1.5v3h13.8v-3q0-1.3-1.3-1.5l0 0z"/><path d="M10417.1 4514.4q-2.9 0-5.2 1-2.3 1-3.9 2.7-1.6 1.7-2.4 4.1-.8 2.3-.9 4.9 0 3.3 1 5.9 1 2.6 2.7 4.3 1.7 1.7 4 2.7 2.3.8 5 .8l2.7-.2 2.9-.6 2.6-1.3 2.3-2.1-1.8-2.2-.4-.4-.7-.2-1.2.4-1.4.7-1.9.8-2.6.4q-3 0-4.9-1.9-1.8-1.8-2.1-5.8h15.9l.7-.1.4-.4.2-.7.1-1.2q0-2.7-.8-4.9-.9-2.1-2.3-3.6-1.5-1.6-3.5-2.3-2.1-.8-4.5-.8zm.1 4.4 2.4.5 1.7 1.3 1 1.8.4 2.3h-11.6q.4-2.8 1.9-4.3 1.5-1.6 4.2-1.6z"/><path d="M10454 4536l-1.9-.4v-11.4q0-2.2-.6-4-.6-1.8-1.9-3.1-1.2-1.3-2.9-2.1-1.8-.7-4.1-.7-6.2 0-10.6 4.1l1.1 1.9.7.8 1.1.3 1.4-.3 1.3-.8 1.8-.8q.9-.3 2.5-.3 2.1 0 3.1 1.2 1.1 1.3 1.1 3.9v1.5q-4.4 0-7.3.7-3 .8-4.7 1.9-1.8 1.1-2.6 2.6-.7 1.4-.7 2.9 0 1.8.5 3l1.6 2.2 2.3 1.3 3 .5 2.5-.3 2.1-.6 2-1.1 1.9-1.6.5 1.8q.2.9.7 1.1l1.4.3h5.9v-3q.1-1.2-1.2-1.5zm-7.9-2.1-1.3 1.2-1.4.8-1.5.6-1.8.1q-1.5 0-2.5-.7-1-.7-1-2.3l.5-1.6q.4-.7 1.5-1.2 1.2-.6 3-.9 1.8-.4 4.5-.4v4.4z"/><path d="M10475.1 4529.7l-1.4-1.9-2-1.3-2.3-.9-2.3-.7-2-.8-1.4-1-.6-1.4q0-1.3 1.1-2 1-.8 2.8-.8 1.9 0 3 .4.3 2.6.4 2.8.2.9 1.1.9h2.9v-7.2l0 0q-4.6-1.5-7.5-1.4-2.4 0-4.1.7-1.9.6-3.1 1.7-1.2 1-1.8 2.5-.6 1.4-.6 3 0 1.7.5 2.9l1.4 2 2 1.3 2.3 1 2.4.7 2 .8 1.5 1q.5.5.5 1.4l-.2 1.2-.8 1-1.3.7-1.9.2q-1.8.1-4.1-.4-.2-2.8-.3-2.9-.2-1-1.2-1h-2-.6-.2v7.3q3 1.2 8.1 1.4 2.5 0 4.4-.7 1.9-.6 3.2-1.7 1.3-1.2 1.9-2.7.7-1.6.7-3.5 0-1.5-.5-2.6l0 0z"/><path d="M10490.3 4514.4q-2.9 0-5.2 1-2.3 1-3.9 2.7-1.6 1.7-2.4 4.1-.8 2.3-.9 4.9 0 3.3 1 5.9 1 2.6 2.7 4.3 1.7 1.7 4 2.7 2.3.8 4.9.8l2.8-.2 2.9-.6 2.6-1.3 2.3-2.1-1.8-2.2-.4-.4-.7-.2-1.2.4-1.4.7-1.9.8-2.6.4q-3 0-4.9-1.9-1.8-1.8-2.1-5.8h15.8l.7-.1.5-.4.2-.7.1-1.2q0-2.7-.9-4.9-.8-2.1-2.3-3.6-1.4-1.6-3.4-2.3-2.1-.8-4.5-.8zm.1 4.4 2.4.5 1.7 1.3 1 1.8.4 2.3h-11.7q.5-2.8 2-4.3 1.5-1.6 4.2-1.6z"/><path d="M10503.5 4536.7l.3 1.5.7 1.1 1.1.8 1.4.3-.5 1.4-.7 1.2-.9 1-.6.8-.4.4-.1.5.4.9 1.2 1 2.3-2.3 1.7-2.6 1.1-2.6.3-2.6-.2-1.6-.7-1.3-1.1-1-1.7-.3-1.5.3-1.1.7-.7 1.1-.3 1.3z"/><path d="M10378.4 4579.7l-1.4-1.9-2-1.3-2.3-.9-2.3-.7-2-.8-1.4-1-.6-1.4q0-1.3 1.1-2 1-.8 2.8-.8 1.9 0 3 .4.3 2.6.4 2.8.2.9 1.1.9h2.9v-7.2l0 0q-4.6-1.5-7.5-1.4-2.4 0-4.1.7-1.9.6-3.1 1.7-1.2 1-1.8 2.5-.6 1.4-.6 3 0 1.7.5 2.9l1.4 2 2 1.3 2.3 1 2.4.7 2 .8 1.5 1q.5.5.5 1.4l-.2 1.2-.8 1-1.3.7-1.9.2q-1.8.1-4.1-.4-.2-2.8-.3-2.9-.2-1-1.2-1h-2-.6-.2v7.3q3 1.2 8.1 1.4 2.5 0 4.4-.7 1.9-.6 3.2-1.7 1.3-1.2 1.9-2.7.7-1.6.7-3.5 0-1.5-.5-2.6l0 0z"/><path d="M10391 4590.9q1.9 0 3.6-.6 1.7-.6 3.1-1.7l-1.8-3-.4-.4-.5-.1-.4.1-.5.3-.7.3-.9.1q-1 0-1.6-.7-.7-.6-.7-1.8v-13.9h6.8v-4.4h-6.8v-8.1h-3.2l-.9.3-.4.7-1.3 7-4.2.7v2.5l.4.9.9.4h2.6v14.3q0 3.3 1.8 5.2 1.8 1.9 5.1 1.9z"/><path d="M10412.7 4564.4q-2.9 0-5.2 1-2.4.9-4 2.6-1.7 1.7-2.6 4.1-.9 2.5-.9 5.5 0 3 .9 5.5.9 2.4 2.6 4.2 1.6 1.7 4 2.6 2.3.9 5.2.9 2.9 0 5.2-.9 2.3-.9 4-2.6 1.6-1.8 2.5-4.2.9-2.5.9-5.5 0-3-.9-5.5-.9-2.4-2.5-4.1-1.7-1.7-4-2.6-2.3-1-5.2-1zm0 21.7q-3.2 0-4.8-2.2-1.6-2.1-1.6-6.2 0-4.2 1.6-6.4 1.6-2.2 4.8-2.2 3.2 0 4.7 2.2 1.5 2.2 1.6 6.3-.1 4.1-1.6 6.3-1.5 2.2-4.7 2.2z"/><path d="M10453.5 4571.9q-.7-2.5-2-4.1-1.2-1.7-3-2.6-1.7-.9-3.8-.8-2.7-.1-4.7 1.1-2 1-3.6 2.8l-.5-2.3-.5-.9-1-.3h-3.8-3.8v3q0 1.2 1.3 1.5l2.5.5v24.1l-2.5.5q-1.3.3-1.3 1.6v2.9h13.8v-2.9q0-1.3-1.3-1.6l-2.5-.5v-5.6q1.2 1.2 2.7 1.9 1.5.6 3.7.6 2.5 0 4.6-1 2-1 3.4-2.8 1.4-1.8 2.2-4.2.8-2.5.8-5.4 0-3.1-.7-5.5zm-6.1 9.4q-.5 1.7-1.3 2.7-.7 1.1-1.9 1.6-1.1.5-2.5.5l-2.6-.5q-1.3-.5-2.3-1.8v-11.5q1.2-1.5 2.5-2.3 1.4-.8 3.3-.8l2.2.5q.9.4 1.6 1.4.7 1 1 2.5.4 1.6.4 3.9 0 2.2-.4 3.8z"/><path d="M10479.9 4586l-2.5-.5v-20.7h-6.2-3.8v3q0 1.2 1.3 1.5l2.5.5v15.7l-2.5.5q-1.3.3-1.3 1.5v3h13.8v-3q0-1.2-1.3-1.5l0 0zm-1.6-28.7-.4-1.5-.8-1.3-1.3-.8-1.5-.3-1.5.3-1.3.8-.8 1.3-.3 1.5.3 1.5.8 1.3 1.3.8 1.5.3 1.5-.3 1.3-.8.8-1.3.4-1.5z"/><path d="M10493.4 4590.9q1.9 0 3.6-.6 1.7-.6 3.1-1.7l-1.9-3-.3-.4-.5-.1-.4.1-.5.3-.7.3-.9.1q-1 0-1.7-.7-.6-.6-.6-1.8v-13.9h6.8v-4.4h-6.8v-8.1h-3.2l-.9.3-.4.7-1.3 7-4.2.7v2.5l.4.9.9.4h2.6v14.3q0 3.3 1.7 5.2 1.9 1.9 5.2 1.9z"/><path d="M10508.4 4554.3h-5.8v14.3l.2 4.5.6 4.6h4.1l.6-4.6.3-4.5v-14.3zm-6.7 32.8.2 1.5.8 1.1 1.3.8 1.5.3 1.4-.3 1.2-.8.8-1.1.3-1.5-.3-1.5-.8-1.2-1.2-.8-1.4-.3-1.5.3-1.3.8-.8 1.2-.2 1.5z"/></g></g></svg>