<?xml version="1.0" encoding="UTF-8" standalone="no"?><svg xmlns="http://www.w3.org/2000/svg" xmlns:serif="http://www.serif.com/" viewBox="0 0 144 144" version="1.1" xml:space="preserve" fill-rule="evenodd" clip-rule="evenodd" stroke-linecap="round" stroke-linejoin="round" stroke-miterlimit="1.5"><rect id="" serif:id="" x="0" y="0" fill="none"/><g><g><path d="M40.6 114.2c7.6.3 6.6-6.2 10.9-10.4l10.6-5C68.8 92.6 69 80 58.1 79q-3.3-.3-6.1 1.5c-6.8 4.1-4.7 10.8-8.1 16.8l-7.5 8.5c-1.3 3.1.6 8.2 4.2 8.3z" fill="#0096ff"/><path d="M57.3 78.3h0 .1.2.1.2.2l.3.1h.2.3l.2.1h.3l.2.1h.3l.4.2h.3l.4.2h.3l.8.4.8.4.2.1.1.1.4.2.3.3.2.1.1.2.2.1.6.6.1.1.1.2.2.1.1.2.1.1.1.2.3.3v.2l.1.1.4.8.1.2.1.1v.2l.2.4v.2l.2.4v.2l.1.2v.2.2l.1.2v.2.2l.1.2v.2.2.2.2.1.1.1.1h0v.1h0v.1h0v.1h0v.1h0v.1.1.1.1.1.1.2l-.1.2v.2.2.2.2l-.1.2v.2l-.1.2v.2l-.1.2v.2l-.1.2v.2l-.1.3-.1.4-.2.4-.1.4-.2.4-.2.5-.4.8-.4.8-.2.2-.1.2-.1.1-.2.4-.2.2-.1.2-.2.1-.2.4-.6.6-.2.2-.1.2-.2.1-.1.2-.2.1-.1.2-.4.2-.1.2-.2.1-.1.1-.4.2-.1.1-.8.4-.1.1-.3.1-.4.1-.3.2-.4.1-.3.1-.4.1-.4.2-.6.1-.7.3-.5.1-.3.1-.4.1-.3.2-.4.1-.6.2-.1.1-.2.1-.1.1-.2.1h-.1l-.1.1-.2.1-.1.1-.2.1-.3.3-.2.1-.6.6-.1.2-.4.4-.1.2-.2.2-.2.4-.2.2-.1.2-.2.2-.2.5-.2.3-.2.5-.3.4-.3.7-.3.5-.2.5-.4.8-.2.2-.3.6-.2.2-.1.2-.2.2-.1.2-.2.1-.1.2-.4.4-.2.1-.2.2-.2.1-.2.2-.4.2-1 .4-.6.2h-.3l-.3.1h-.3l-.3.1h-.3-.4-.1-.1-.1-.2-.4-.2-.2l-.1-.1h-.2-.2l-.4-.2h-.1l-.4-.2-.1-.1-.2-.1-.1-.1-.2-.1-.1-.1-.2-.1-.5-.5-.1-.1-.1-.2-.2-.1-.1-.2-.1-.1-.1-.2-.1-.1-.1-.2-.1-.1-.1-.2v-.2l-.1-.1-.2-.4v-.2l-.1-.2-.1-.1v-.2l-.1-.2v-.2l-.1-.2v-.1-.2l-.1-.2v-.2-.2-.1-.2-.1-.1-.1-.1h0v-.1h0v-.1-.1-.1h0v-.2-.2-.2-.2l.1-.2v-.1l.1-.2v-.2l.1-.2v-.1l.1-.2v-.2l.1-.1.3-.6.1-.1.2-.4.1-.1.1-.2.1-.1.1-.2.2-.1.1-.2.3-.4.3-.3.3-.2.2-.3.3-.2.5-.5.4-.3.7-.6.7-.7.3-.2.7-.7.2-.3.3-.2.1-.2.1-.1.1-.2.1-.1.1-.2.2-.2.1-.2.1-.1.2-.4.1-.3.2-.3.3-.8.2-.3.2-.6.1-.2v-.3l.2-.6.2-.5.2-1 .1-.6.2-.7.3-1.5.1-.6.2-.5v-.3l.2-.5.2-.6.2-.5.4-1.2.1-.2.2-.3.1-.2.2-.3.1-.3.2-.2.2-.3.2-.2.2-.3.4-.4.2-.3.3-.2.2-.3.6-.4.2-.2.3-.2.3-.3.4-.2.3-.1.1-.1.8-.4.8-.4.2-.1h.2l.4-.2h.2l.2-.1h.2l.2-.1h.2l.2-.1h.2.2l.2-.1h.2.2.2.1.1.1.1.1 0 .1zm-.1 1.2h-.1-.1 0-.1-.1l-.2.1h-.1-.2-.2-.2l-.2.1h-.1l-.2.1h-.2-.2l-.2.1-.1.1h-.2l-.2.1h-.2l-.2.1-.1.1-.2.1h-.2l-.2.1-.1.1-.2.1-.1.1-.6.3-.6.4-.2.2-.3.2-.2.2-.3.2-.8.8-.2.2-.2.3-.1.2-.2.2-.1.2-.2.3-.1.2-.2.2-.4 1-.4 1-.2.5v.3l-.2.5-.2.9-.2.6-.1.8-.2.9-.1.6-.2.6-.1.5-.2.6v.3l-.4 1.2-.2.6-.2.3-.2.6-.2.3-.1.3-.2.3-.1.2-.1.1-.1.2-.1.1-.2.4-.2.1-.1.2-.1.1-.1.2-1.1 1.1-.5.5-.3.2-.4.4-.7.5-.9.9-.3.2-.2.2-.2.3-.3.2-.3.4-.1.2-.1.1-.1.2-.2.2-.1.2-.1.1-.1.2-.2.2v.2l-.2.2v.1l-.1.2v.1.1l-.1.1v.2l-.1.1v.2.1.1l-.1.2v.1.2.1h0v.1.1h0 0v.1h0v.1h0 0v.1.1.2.1l.1.2v.1.2.2l.1.1v.2.1l.1.2v.2l.1.1v.2l.1.1v.1l.1.2.1.1v.2l.2.2.1.2.1.1v.1l.1.2.4.4.4.4.3.3.2.1h.1l.1.1h.1l.2.2h.2.1l.1.1h.2.1.1.1.1l.3.1h.1.1.1.2.1l.3-.1h.3.3.2l.3-.1h.2l.7-.3h.2l.4-.2.1-.1.4-.2.1-.2.2-.1.1-.1.2-.1.1-.2.2-.1.1-.2.1-.1.1-.2.3-.3.3-.6.2-.2.4-.8.3-.4.3-.7.5-1 .2-.5.4-.6.2-.4.2-.3.1-.2.2-.2.1-.3.6-.6.1-.2.2-.3.4-.4.2-.1.1-.2.2-.1.1-.1.2-.1.1-.1.4-.2.1-.1.2-.1.1-.1.6-.3.1-.1.4-.1.4-.2.3-.1.4-.1.3-.1.4-.2.5-.1.8-.2.5-.2.4-.1.3-.2.4-.1.3-.1.4-.1.3-.2.2-.1h.1l.4-.2.1-.1.2-.1h.1l.1-.1L61 99l.1-.1.2-.1.2-.2.2-.1.1-.2.1-.1.2-.1.1-.2.2-.1.1-.2.6-.6.1-.1.2-.4.4-.4.2-.4.1-.1.4-.8.1-.1.4-.8v-.1l.2-.4.1-.3.2-.4.2-.8.2-.4v-.2-.2l.1-.2v-.2l.1-.2v-.2-.2-.2l.1-.2v-.1-.2-.2-.2l.1-.2v-.1-.1h0v-.1h0v-.1h0v-.1h0v-.1h0v-.1-.1-.1-.1h0l-.1-.2v-.2-.2-.2-.2l-.1-.1v-.2-.2l-.1-.2v-.2-.1l-.1-.2v-.2l-.1-.1v-.2l-.1-.1-.1-.2v-.2l-.1-.1v-.2l-.1-.1-.2-.4-.1-.1v-.1l-.1-.2-.1-.1-.1-.2-.2-.2-.1-.2-.1-.1-.1-.2-.1-.1-.2-.1-.2-.2-.1-.2-.2-.1-.2-.2-.2-.1-.1-.1-.2-.1-.1-.1-.2-.1-.1-.1-.4-.2-.1-.1-.4-.2h-.2l-.1-.1-.4-.2h-.2l-.2-.1h-.1l-.2-.1h-.2l-.2-.1h-.2-.2l-.2-.1h-.3l-.2-.1h-.3-.2-.2-.2-.1-.1-.1-.1-.1 0-.1z"/><path d="M127.6 21.7q-4.2-3.7-9-.6l-6.8 13.1c-5.9 6.5-13.9 4.7-17.8 13l-1.1 14.3C90.3 66.9 83 64.3 82.4 72.8q-.3 2.8 1.4 5c4 4.7 11.6 1.7 14.8-2.2s3.1-9 5.8-13l15.1-9.9Q124 48 123.8 41.6q-.6-2.1 0-3.9c7.4-11.2 5.9-13.9 3.8-16z" fill="#e98fca"/><path d="M122.8 19h.1 0 .1.1.1.1l.2.1h.1.2.1.2l.2.1h.1.2l.1.1h.2l.2.1h.1l.2.1.1.1h.2l.2.1.1.1h.2l.2.2.2.1.1.1.2.1.2.2.2.1.1.1.2.1.5.5.6.6.1.2.1.1v.1l.1.1.1.2.1.1.1.2v.1l.1.1.1.2v.2l.1.1.1.2v.2l.1.1v.2.2.2l.1.2v.2.1.1h0v.1.1.1.1.2l-.1.2v.3.2l-.1.3v.2l-.1.3v.2l-.4 1.2-.3.9-.2.3-.1.4-.2.3-.1.4-.2.3-.8 1.6-.2.4-.3.4-.2.5-.3.4-.2.5-.3.4-.9 1.5-.4.5-.2.4-.1.1v.1l-.1.1h0v.1.1.1l-.1.1h0v.1h0v.1h0 0v.1h0 0v.1h0v.1h0v.1.2l.1.2v.2l.1.5.1.3v.3.3l.1.1v.2h0v.4.2.1.1.2.4.4l-.1.4v.4l-.1.4v.4l-.3 1.2-.1.3-.2.8-.2.3-.1.4-.2.3-.1.4-.2.3-.2.4-.2.3-.2.4-.6.9-.2.4-.3.3-.2.3-.3.3-.2.3-1 1-.8.8-.3.1-.2.2-.3.2-.2.2-.2.1-.6.4-.2.1-.3.2-.2.1-.4.3-1.2.6-.5.3-.6.3-.5.3-2.8 1.4-.5.2-1 .6-.4.3-.5.2-.2.2-.2.1-.3.2-.4.2-.5.5-.4.2-.1.2-.2.1-.2.4-.2.1-.1.2-.1.1-.2.4-.2.2-.1.2-.1.1-.3.6v.2l-.2.4-.1.4-.4.8-.2.8-.2.4-.1.5-.4 1.1-.2.7-.1.5-.2.4-.1.4-.2.4-.1.4-.2.5-.2.3-.4.8-.4.8-.2.2-.2.4-.2.2-.1.2-.2.2-.1.2-.2.2-.1.2-.8.8-.2.2-.2.1-.4.4-.2.1-.4.4-.3.1-.2.2-.2.1-.3.2-.2.1-.3.2-.4.2-.3.1-.3.2-1 .4-.8.3h-.3l-.6.2h-.2l-.3.1h-.3l-.3.1h-.3-.1-.3-.3-.1-.1 0-.1-.1-.2-.3-.2-.3l-.3-.1h-.3l-.3-.1h-.1l-.8-.3L86 80l-.6-.2-.2-.1-.2-.2-.3-.1-.3-.3-.2-.1-.8-.8-.2-.2-.1-.2-.1-.1-.1-.2-.1-.1-.2-.4-.1-.1-.1-.2-.1-.1-.1-.2v-.2l-.1-.1v-.2l-.1-.1h0v-.2l-.1-.2v-.1l-.1-.2v-.2-.2-.2l-.1-.1v-.2-.1-.1-.1-.1-.1-.1h0 0v-.1h0v-.1h0v-.2-.3-.4l.1-.4v-.4l.1-.4v-.3l.1-.4.4-1.2.1-.3.2-.3.1-.2.2-.3.1-.2.2-.2.1-.3.4-.4.2-.1.4-.4.2-.1.2-.2.2-.1.2-.2.6-.3.2-.2.4-.2.5-.2.4-.2.7-.3 1.2-.6.2-.1.2-.2.8-.4.1-.2.4-.2.1-.2.2-.1.1-.2.3-.3.1-.2.2-.2.2-.4.1-.3h.1v-.1l.1-.1v-.2l.1-.1v-.2-.1l.1-.2v-.1-.2l.1-.2v-.2-.1-.1-.1-.1-.1-.1-.1h0v-.1h0v-.1-.1-.1-.1-.4-.4l-.1-.5v-.4l-.1-1-.1-.7v-.5l-.1-.5v-.5-.5-.2-.1-.2-.1h0v-.2h0v-.1-.1-.2-.1-.1-.3-.2-.3-.3l.1-.2v-.3l.1-.2v-.3l.1-.3v-.2l.2-.5.2-.6v-.2l.1-.3.2-.2.2-.5.2-.4.1-.1.4-.8.1-.1.2-.4.4-.4.1-.2.2-.3.3-.3.2-.3L96 43l.2-.3.6-.4.5-.5 1.2-.8.2-.1.3-.2.3-.1.6-.4.6-.2.3-.2.4-.1.6-.3.7-.3 1-.4.6-.3.7-.2.4-.2.3-.2.3-.1.3-.2.3-.1.3-.2.3-.1.6-.4.3-.1 1.2-.8.5-.5.6-.4.3-.3.2-.3.3-.2.3-.3.2-.4.2-.1.2-.4.2-.2.1-.2.1-.1.4-.8.2-.4v-.2l.2-.4.3-.8.2-.9.2-.5.3-1.1.2-.5.1-.5.2-.4.1-.5.2-.4.2-.5.4-.8.3-.7.2-.2.1-.2.2-.2.1-.2.2-.2.1-.2.8-.8.2-.1.5-.5.2-.1.1-.1.2-.1.1-.1h.1l.4-.2.1-.1.2-.1h.1l.2-.1h.2l.1-.1.2-.1h.1l.2-.1h.2.1l.2-.1h.1.2.2l.1-.1h.2.1.1.1.1.1 0 0 .1 0 .1zm0 1.3h-.1 0-.1 0-.1-.1 0-.2-.1-.2-.1l-.1.1h-.2-.1-.2l-.1.1h-.1l-.2.1h-.1-.2l-.2.2h-.2l-.1.1h-.1l-.2.1-.1.1h-.1l-.1.1-.2.1-.2.2h-.1l-.2.2-.2.1-.5.5-.1.2-.2.1-.1.2-.3.3-.2.4-.2.2-.4.8-.3.6v.2l-.3.6-.1.4-.2.4-.2.9-.4 1.1-.1.6-.2.5-.1.4-.3.8-.2.5-.4.8-.2.5-.2.4-.2.2-.1.2-.2.2-.1.2-.2.2-.1.2-1.1 1.1-.3.3-.3.2-.3.3-.3.2-.3.3-1.2.8-.3.2-.4.2-.6.4-.3.1-.3.2-.4.1-.3.2-.8.3-1.2.6-1.1.4-.6.3-.6.2-.6.3-.3.2-.3.1-.3.2-.3.1-.2.2-.3.1-.3.2-.3.1-.2.2-.3.2-.2.2-.3.2-.2.2-.3.2-.9.9-.2.3-.2.2-.6.9-.1.2-.1.1-.1.2-.1.1-.3.6-.1.1-.4.8v.2l-.1.3v.2l-.2.5v.2l-.1.2v.3l-.1.2v.3.2l-.1.2v.3.2.3.2.1.1.2h0v.1h0v.1.1.1h0v.2.1.5.4.5l.1.5v.6l.2 1.1v.5.4l.1.5v.4.2.2.1h0v.1h0v.1h0v.1.1.1.1.1.2.2l-.1.2v.2.2l-.1.2v.2l-.1.2v.2l-.2.4v.2l-.1.2-.2.3-.1.2-.2.2-.1.3-.6.6-.1.2-.2.2-.2.1-.4.4-.4.2-.2.2-.5.2-.2.2-.4.2-.3.2-.5.2-.6.3-1 .4-.3.2-.6.3v-.1l-.2.1-.3.3-.4.2-.1.2-.2.1L85 68l-.5.5-.1.2-.3.3-.2.5-.2.4-.2.5-.2.6v.3l-.2.6v.3.4L83 73v.3.1.1.1h0 0v.1h0v.1.1.1h0v.2l.1.1v.2.1.2.1l.1.1v.2.1l.1.2v.1.1l.1.2.1.1v.2l.1.1v.1l.1.2.3.3v.1l.1.2.1.1.2.1.1.2.4.4.2.1.2.2.2.1.2.2.8.4.6.3h.3l.2.1h.2l.2.1h.3.2l.3.1h.2.1.1 0 .1.1.1.3l.2-.1h.3.2l.2-.1h.3.2l.5-.2h.2l1-.4 1-.4.4-.2.3-.1.2-.2.4-.2.3-.2.4-.2.2-.2.2-.1.2-.2.2-.1.2-.2.1-.2.2-.1.2-.2.2-.1.1-.2.5-.5.2-.4.2-.1.4-.8.2-.1.4-.8.2-.4v-.2l.2-.3.1-.4.2-.4.1-.4.2-.4.1-.4.2-.4.7-2.4.1-.4.2-.4.1-.4.2-.5.1-.4.5-1 .3-.6.2-.2.3-.6.2-.2.2-.4.2-.2.1-.2.2-.2.2-.1.2-.2.1-.2.2-.2.2-.1.2-.2.2-.1.3-.2.2-.2.2-.1.2-.2.3-.1.2-.2.3-.1.3-.2.5-.3.6-.3 1-.6.7-.3L112 57l.7-.4.6-.2.5-.3.6-.3 1-.6.2-.1.3-.2.2-.2.3-.1.2-.2.2-.1.3-.2.2-.2.2-.1.2-.2.3-.2.2-.1.4-.4.1-.2.4-.4.3-.2.2-.3.3-.3.8-1.2.8-1.2.2-.4.1-.3.2-.3.1-.3.2-.4.2-.6.1-.4.1-.3.1-.4.2-.6v-.4l.1-.4v-.3l.1-.4v-.3-.4-.2-.1-.1-.1-.1-.4-.1h0v-.1l-.1-.2v-.3-.2l-.1-.5-.1-.3v-.3l-.1-.2v-.2-.1h0v-.1-.1h0 0v-.1h0v-.1-.1-.1-.1l.1-.2v-.1-.2l.2-.2v-.2l.1-.1.2-.4.4-.5.3-.5.3-.4.3-.5.2-.5.3-.4.3-.5.2-.4.3-.4.8-1.6.2-.3.1-.4.2-.3.1-.3.2-.4.4-1.2.4-1v-.3l.1-.2v-.2l.1-.2v-.3-.2-.2l.1-.1v-.1-.1-.1h0 0v-.1h0v-.1-.1-.1l-.1-.1v-.2-.1-.2l-.1-.1v-.1-.2l-.1-.1v-.1l-.1-.1v-.2l-.1-.1v-.1l-.2-.2v-.1l-.3-.3-.1-.2-.6-.6-.4-.4h-.1l-.1-.1-.2-.1-.2-.2h-.1l-.1-.1-.2-.1h-.1l-.2-.2h-.2l-.1-.1h-.1l-.2-.1h-.1-.1l-.2-.1h-.1-.2l-.1-.1h-.1-.2-.1-.2l-.1-.1h-.1 0-.1-.1 0-.1 0-.1 0 0z"/><path d="M63.3 40.2q-4.2-3.7-9.1-.6l-6.7 13.1c-5.9 6.5-13.9 4.7-17.9 13l-1 14.3C26 85.4 18.7 82.9 18.1 91.4q-.3 2.7 1.4 4.9c4 4.7 11.6 1.7 14.8-2.2s3-9 5.8-13l15.1-9.9q4.5-4.7 4.3-11-.6-2.2 0-4c7.3-11.2 5.8-13.9 3.8-16z" fill="#e764c6"/><path d="M58.5 37.5h0 .1.1 0 .1l.2.1h.1.2.2.1l.2.1h.1.2l.2.1h.1l.2.1h.1l.2.1h.2l.1.1.2.1h.1l.2.1.1.1.2.1h.1l.2.1.2.2.2.1.1.1.2.1.2.2.2.1.1.2.4.4.2.3.5.5.1.2.1.1v.2l.2.2.1.2v.2l.1.1.1.2v.1l.1.2v.2.2l.1.2v.2.2.2.1.1h0v.1.1.1.2.2.3l-.1.2v.2l-.1.3v.3l-.2.5v.3L65 47l-.3.9-.2.3-.2.6-.2.4-.1.3-.4.8-.2.3-.6 1.2-.3.5-.2.4-.3.4-.2.5-.3.4-1.2 2-.4.5v.1l-.1.1v.1h0l-.1.1v.1.1.1h0v.1h0v.1h0 0v.1h0 0 0v.1h0v.1h0v.1h0v.2.3l.1.2.1.5v.3l.1.3v.2.2.1l.1.3v.2.2.2.2l-.1.4v.4.4l-.1.4v.4l-.4 1.6-.1.3-.2.8-.2.3-.1.4-.2.3-.1.4-.2.3-.2.4-.2.3-.2.4-.6.9L57 70l-.3.3-.2.3-.3.3-.2.3-.9.9-.3.2-.6.6-.3.2-.2.2-.3.2-.2.1-.2.2-.3.2-.3.1-.2.2-.3.2-.7.4-.6.3-.5.3-.6.3-.5.3-.7.3-1.4.7-.7.4-.6.3-.5.2-1 .6-.3.2-.3.1-.2.2-.2.1-.2.2-.4.2-.2.2-.2.1-.2.2-.4.2-.1.2-.2.1-.1.2-.3.3-.1.2-.3.3-.3.6-.1.1-.4.8-.3.6-.1.4-.4.8-.2.8-.2.4-.7 2.4-.1.4-.2.4-.1.4-.2.5-.1.4-.2.4-.2.3-.4.8-.4.8-.2.2-.2.4-.2.2-.1.2-.2.2-.1.2-.2.2-.1.2-.6.6-.2.1-.4.4v.2l-.2.2-.2.1-.2.2-.3.2-.2.1L32 97l-.3.1-.2.2-.2.1-.3.2-.5.2-.2.2-.6.2-1 .4-.6.2-.5.2h-.3l-.3.1h-.3l-.2.1h-.3-.3l-.3.1h-.3-.1-.1-.1-.1 0-.1-.2-.1-.3-.3l-.2-.1h-.3l-.3-.1h-.3l-.1-.1h-.1l-.6-.2-1-.4-.2-.2-.3-.1-.5-.5-.3-.1-.2-.2-.2-.3-.5-.5-.1-.2-.2-.2v-.1l-.1-.2-.1-.1-.1-.2-.1-.1-.1-.2v-.2l-.1-.1-.1-.2v-.1l-.1-.2v-.2l-.1-.1v-.1-.2l-.1-.1v-.2-.2l-.1-.2v-.2-.1-.2-.1-.1-.1-.1h0v-.1h0 0v-.2-.4-.4l.1-.4v-.4l.1-.3v-.4l.1-.3.1-.4.2-.6.2-.5.2-.3.1-.3.2-.2.1-.3.2-.2.1-.2.6-.6.1-.2.2-.1.2-.2.2-.1.2-.2.4-.2.2-.2.5-.2 1.2-.6 1.8-.9.8-.4.2-.1.2-.2L26 82l.4-.2.1-.2.2-.1.1-.2.2-.1.1-.2.2-.2.2-.4.2-.2.2-.4.1-.1v-.2l.1-.1v-.2l.1-.1v-.2l.1-.1v-.2-.2-.1-.2l.1-.2v-.1-.1-.1-.1h0v-.1h0v-.1h0v-.1h0v-.1h0v-.1l-.1-.4v-.4-.4l-.1-.4v-.6l-.1-1.2-.1-.4v-.3-.2-.5l-.1-.5v-.4-.2-.1-.1h0v-.1h0v-.1-.1h0v-.1-.1-.1-.2-.2l.1-.3v-.3-.2-.3l.1-.2v-.3-.3l.2-.5v-.2l.2-.6.4-1 .4-.8.4-.8.2-.2.1-.2.2-.2.2-.4.2-.3.3-.3.2-.3 1-1 .3-.2.5-.5 1.2-.8.2-.2.3-.1.3-.2.3-.1.3-.2.3-.1.3-.2.3-.1.3-.2.6-.2.6-.3.9-.3.8-.4.6-.2.6-.3.3-.1.3-.2.3-.1L42 56l.3-.1.3-.2.3-.1.9-.6.3-.1.6-.4.2-.3.6-.4.3-.3.3-.2.2-.3.3-.2.5-.5.1-.2.2-.2.1-.2.3-.3.1-.2L48 51l.4-.8.4-.8v-.2l.3-.6.1-.4.2-.5.1-.4.5-1.7.1-.5.2-.4.1-.5.2-.3v-.2l.2-.5.2-.4.3-.7.2-.2.2-.4.2-.2.2-.4.4-.4.1-.2.8-.8.2-.1.2-.2.2-.1.2-.2.2-.1.1-.1.2-.1.1-.1.2-.1.1-.1h.2l.2-.1.1-.1h.2l.1-.1h.2l.2-.1h.1l.2-.1h.1l.2-.1h.2.1.2l.1-.1h.2.2.1.1.1 0 .1 0 .1 0 .1zm-.1 1.3h0 0-.1-.1 0-.1-.1-.1-.1-.2l-.1.1h-.2-.1-.1l-.2.1h-.1 0-.2l-.1.1h-.2l-.1.1h-.1l-.2.1h-.1l-.2.1-.1.1h-.1l-.2.2-.2.1h-.1l-.2.2-.2.1-.3.3-.2.1-.1.2-.2.2-.2.1-.1.2-.3.3-.2.4-.3.3-.4.8-.4.8v.2l-.2.5-.2.4-.2.9-.2.5-.3 1.2-.2.4-.1.5-.2.4-.1.5-.2.5-.2.4-.2.5-.3.6-.2.3-.2.4-.2.2-.2.4-.2.2L48 53l-.2.2-.2.3-.9.9-.3.2-.5.5-.3.2-.3.3-.3.1-.6.4-.4.2-.9.6-.3.1-.4.2-.3.1-.3.2-.3.1-1 .5-.7.2-.9.4-.8.4-.6.2-.4.2-.3.2-.6.2-.2.2-.3.1-.3.2-.3.1-.3.2-.2.1-.3.2-.2.2-.6.4-.4.4-.3.2-.9.9-.8 1.2-.3.3-.1.2-.1.1-.2.4-.1.1-.1.2v.2l-.2.4-.2.5-.2.4v.3l-.2.5v.2.2l-.1.3v.2.3l-.1.2v.2.3.2.1.2.1.1.1h0v.1h0v.1.1h0v.1.2.1.5.4l.1.5v.5l.1.6.1 1.1v.5l.1.4v.5.4.2.1.2h0v.1h0v.1h0v.1h0v.1h.1v.1.2.2l-.1.2v.2.2.2l-.1.2v.2l-.1.2v.2l-.4.8-.2.3-.1.2-.2.3-.1.2-.6.6-.1.2-.2.2-.2.1-.4.4-.4.2-.2.2-.7.3-.2.2-.7.3-.4.2-.7.3-1.2.6-.4.2-.2.2-.6.3-.6.6-.6.6-.3.6-.2.2-.3.7v.3l-.3.8v.3l-.1.4v.3l-.1.4v.3.2.2h0v.1.1h0v.1.1h0v.1.1h0v.1.2.1l.1.1v.2.1.2l.1.1v.1.2l.1.1v.2l.1.1v.1l.1.2v.1l.1.2.1.1v.1l.1.1.1.2.4.4.1.2.4.4.2.1.2.2.2.1.2.2.8.4.8.4h.3l.2.1h.2l.3.1h.2.2.3l.1.1h.1.1 0 .1.1.1l.3-.1h.2.3.2l.2-.1h.3l.2-.1h.3l.4-.2h.3l.5-.2.4-.2 1-.4.2-.1.3-.2.4-.2.2-.2.5-.2.2-.2.2-.1.2-.2.2-.1.7-.7.2-.1.1-.2.2-.1.2-.2.1-.2.3-.3.1-.2.3-.3.3-.6.3-.3.4-.8.1-.2v-.2l.2-.3.1-.4.2-.4.1-.4.2-.4.2-.9.2-.6.4-1.1.2-.6.1-.4.2-.5.1-.4.2-.4.1-.4.5-1 .4-.8.2-.2.3-.6.2-.2.1-.2.2-.2.1-.2.4-.4.1-.2.2-.1.4-.4.2-.1.2-.2.2-.1.3-.2.2-.2.2-.1.3-.2.2-.1.2-.2.4-.2.5-.3.5-.2.6-.3 1.2-.7 1.4-.7.7-.3.4-.2.2-.2.5-.3.6-.3.5-.3.5-.2.2-.2.3-.2.2-.1.3-.2.2-.1.3-.2.2-.2.2-.1.2-.2.3-.1.6-.6.2-.1.1-.2.7-.7.2-.3.3-.3.8-1.2.8-1.2.2-.3.1-.3.2-.4.1-.3.2-.3.1-.4.2-.6.1-.4.1-.3.1-.4v-.3l.1-.4.1-.3v-.4-.3l.1-.4v-.4-.1-.1-.1-.1-.2-.4h0v-.1h0v-.1l-.1-.2v-.2-.3l-.1-.2v-.1l-.1-.4v-.3l-.1-.2v-.2-.1-.1h0v-.1-.1h0v-.1h0v-.1-.1-.1l.1-.1v-.2-.1l.1-.2v-.1l.1-.2.1-.1v-.1l.6-1 .4-.5.3-.4.2-.5.3-.5.3-.4.2-.4.3-.5.6-1.2.2-.3.4-.8.2-.3.1-.4.1-.3.2-.3.3-.9.2-.3v-.3l.3-.7v-.3l.1-.2v-.2l.1-.3v-.2-.2-.2l.1-.2h0v-.1-.1h0v-.1h0v-.1-.1l-.1-.2v-.1-.2-.1-.1l-.1-.2v-.1l-.1-.1v-.1l-.1-.2v-.1l-.1-.1v-.1l-.2-.2v-.1l-.3-.3-.2-.4-.2-.2-.2-.1-.4-.4-.2-.2v-.1l-.2-.1-.1-.1h-.1l-.2-.2-.2-.1h-.1l-.1-.1h-.1l-.1-.1-.2-.1h-.1l-.1-.1h-.2l-.1-.1h-.1-.2l-.1-.1h-.2-.1-.1l-.2-.1h-.1-.2-.1-.1 0-.1-.1-.1 0 0-.1 0 0z"/><path d="M97.3 91.9c0 0-6-1.2-7.4-4.7S91.2 82 93.1 84q2.9 3.5 6.3 3.7c2.2-.1 1.7 4.9-2.1 4.2z" fill="#d6c295" stroke="#000" stroke-width="1.24px"/><path d="M68.8 41c0 0 2.9-3 4 4.3" fill="none" stroke="#61e0ee" stroke-width="1.24px"/><path d="M78.8 40.2c0 0-2.8-2.9-3.8 4.7" fill="none" stroke="#61e0ee" stroke-width="1.24px"/><path d="M71.3 37.8c0 0 3.2-2.1 2.6 6.3" fill="none" stroke="#61e0ee" stroke-width="1.24px"/><path d="M57 110.5c0 0 .3-6.2 3.5-8s5.4.5 3.7 2.7q-3 3.4-2.8 6.7c.4 2.3-4.7 2.4-4.4-1.4z" fill="#d6c295" stroke="#000" stroke-width="1.24px"/><path d="M92.2 110.3c0 0-1.4-6-4.8-7.3s-5.3 1.5-3.2 3.4q3.6 2.7 4 6.1c0 2.3 5 1.5 4-2.2z" fill="#d6c295" stroke="#000" stroke-width="1.24px"/><path d="M94 59.4q.7-1.3 2.1-1.9c7-2.9 4.5 5.2.4 4.8" fill="#61e0ee"/><path d="M98.6 56h.1 0 .1 0 .1 0l.2.1h.1.1.1.1l.2.1h.1l.1.1h.1.1l.1.1v.1h.1l.1.1h.1l.1.1v.1l.2.2h.1v.1l.1.1v.1l.1.2.1.1.1.2v.2.2.2.1.1.1.1.2.2.2l-.1.2v.2l-.2.4-.1.1v.2l-.2.4-.3.3-.2.4-.2.1-.1.2-.2.1-.1.2-.4.2-.3.3-.8.4h-.3l-.2.1h-.2l-.2.1h-.2-.1 0 0-.1 0 0-.1 0 0-.1 0-.1l-.2-.1h-.2v-.1L96 63l-.2-.2-.1-.2v-.1-.1l.1-.2v-.1l.1-.2.2-.1.1-.1h.2l.1-.1h.1.1 0 0 .1 0 0 0 0 .1 0 0 0 0 .1.1.2.1l.1-.1h.2.1l.2-.2h.1l.2-.1.4-.4.4-.4.1-.2.2-.2v-.1l.1-.1v-.1l.1-.2v-.1l.1-.1v-.1-.1-.2l.1-.1h0v-.1h0 0 0 0v-.1h0 0l-.1-.1v-.1-.1h0v-.1h-.1 0v-.1h0 0-.1 0v-.1h0 0 0-.1 0v-.1h-.1 0 0-.1v-.1h-.1 0-.1 0 0-.1 0 0-.1 0 0 0-.1 0 0 0 0-.1 0-.1-.2-.2-.1-.2l-.3.1h-.2l-.4.2-.5.2h-.1l-.1.1h-.1l-.2.1-.2.2-.2.1-.1.2-.2.1-.2.2v.1h-.1v.1h0-.1v.1h0 0v.1l-.1.2-.1.1-.4.2h-.1-.1-.2l-.2-.1-.1-.1-.2-.1v-.2l-.1-.1v-.1-.1h0v-.2-.1l.1-.2v-.1l.2-.2v-.1l.3-.3.1-.2.1-.1h0l.2-.1.5-.5.6-.3.1-.1.4-.2.4-.1.3-.2.3-.1h.3l.6-.2h.3.2.2.1 0 0 .1 0z"/><path d="M56 54.1q-1.1.2-1.9-.5c-5.9-4.7 2.2-6.5 4-2.8" fill="#61e0ee"/><path d="M54.6 48h.1.1.2.2l.2.1h.2.2l.4.2h.2l.8.4.2.1.2.2.2.1.1.2.2.1.1.2.2.2.1.2.2.2v.1l.1.1v.2l.1.2v.1l-.1.1v.2l-.4.4h-.2-.1 0-.1-.1l-.4-.2-.1-.1-.1-.2h0v-.1l-.1-.1h0l-.1-.2-.3-.3h-.1l-.3-.3h-.2v-.1h-.1l-.1-.1h0-.1l-.2-.1h-.1l-.2-.1h-.1-.1-.2-.1l-.1-.1h-.1 0-.1 0-.1 0-.1-.1l-.1.1h-.1-.2-.1l-.1.1h-.1-.1l-.1.1h-.1l-.1.1h-.1 0l-.1.1h0 0l-.1.1h0v.1h-.1 0 0 0 0 0v.1h0 0 0 0 0 0 0 0 0v.1h0 0 0 0 0 0 0 0 0v.1h0 0 0 0 0 0v.1h0 0 0v.1h.1v.1.1h0v.1h.1v.1.1l.5.5.2.2.1.2.2.2.3.2.2.2.2.1.2.2h0l.1.1h.1.1l.1.1h0 .1 0 .1 0 0 0 0 0 0 0 .1 0 0 0 0 0 0 0 0 0 0 0 .1 0 0 0 0 .1.2.1.1l.2.1.1.1.2.1.1.2v.1.1.1h0v.2l-.1.1-.1.2-.1.1-.2.1-.1.1h-.1-.1-.1l-.1.1h0-.1 0-.1 0 0-.1 0-.2l-.2-.1h-.2l-.2-.1-.1-.1h-.2l-.1-.1-.2-.1-.2-.2h-.1l-.3-.2-.5-.5-.3-.2-.4-.4-.2-.3-.2-.2-.2-.4-.1-.1v-.1l-.2-.2v-.1-.1l-.1-.1v-.2-.1l-.1-.1v-.1-.1-.1h0v-.1h0 0v-.1h0 0v-.1h0v-.1-.1-.1-.1l.1-.1v-.1-.1l.1-.1v-.1-.1l.2-.2.1-.2.2-.1.4-.4.4-.2h.1l.4-.2h.2l.2-.1h.2.2l.2-.1h.1 0l.1.1h.1 0 .1 0z"/><path d="M56.4 103c0 0-3.2-6.1-2.6-11.3C55.7 75.3 50.8 72 52.7 62q.9-5.6 4-10.3c4.7-6.3 13.6-9.6 21.4-8.1q4.6 1 8.7 3.4c9.6 5.1 11.6 16 10.4 25.1l-3.5 14.4c1 8.4.7 13-1.9 18.5-2.3 4.6-11 8.1-20.6 7.1-1.6-.2-11.4-1.9-14.8-9z" fill="#61e0ee"/><g fill="#3fc9df"><path d="M90.9 51c0 0 3.3 4.2 2.4 10.8-1.3 9.9-5.5 7.7-5.2 25.5.1 8.9.7 14.2-3.2 19.5s-14.7 5.2-17.4 4.4 10.8 2.8 18.5-.3 8.9-16.3 7.9-24.5 5.5-10.5 3.3-24.7C93.7 53.4 93.6 53.9 90.9 51z"/><path d="M78 63.1c0 0 .9 4.8 6.7 4.5s6.1-6.1 6.1-6.1L78 63.1z"/><path d="M53.5 60.7c0 0 .9 4.8 6.7 4.5s6.1-6.1 6.1-6.1l-12.8 1.6z"/></g><path d="M74.4 42.4h.1.2.1.4l.4.1h.4.4l.4.1h.3l.4.1h.4l.4.1.3.1h.3l.9.3h.3l.5.2.6.2.5.2.6.2.4.2.5.2.6.2.5.3.5.2.6.3.5.3.5.2.6.3.3.2.4.2.3.2.2.1.2.2.4.2.3.2.2.1.2.2.4.2.4.4.2.1.5.5.2.1.7.7.9.9.3.4.3.3.6.8.2.4.3.4.2.4.3.4.8 1.6.4.8.2.5.2.4.1.4.2.5.1.4.2.5.2.8.4 1.8.1.5v.5l.2.9v.4l.1.5v.5.4l.1.5v.4.5.2.3.1.2.1.2.3.4.5l-.1.5v.4.5l-.1.4v.3.4l-.1.5v.1.1.3l-.1.2v.2l-.1.2v.2l-.2.9-.2.5-.2.9L97 76l-.1.4-.3.7-.4 1.2-.3 1-.2.6-.4 1-.2.9-.2.4-.2.9v.3l-.1.2v.3l-.1.2v.2.2.2l-.1.2v.2.2.1.1.1h0 0v.1h0v.1.1.1.2.1l.2 1.4.1.8.1.7v.7l.1.7v.7l.1.7v.6.6.3.4.1.2.1.3.6.6l-.1.5v.5.2.3.3l-.1.2v.3l-.1.3v.3.2l-.2.5v.3l-.1.3v.2l-.2.5v.3l-.4 1v.3l-.2.5-.2.6-.3.5-.2.5-.2.6-.2.4-.2.3-.2.4-.2.3-.2.2-.1.2-.2.3-.8.8-.2.2-.3.2-.2.2-.3.2-.2.2-.6.4-.2.2-.3.2-.3.1-.6.4-.3.1-.3.2-.3.1-.4.2-.3.1-.3.2-.4.1-.3.2-.4.1-.3.1-.4.1-.4.2-.3.1-1.6.4-.4.1h-.4l-1.2.3h-.4l-.5.1h-.4l-.4.1h-.4l-.5.1h-.4-.4-.5-.4-.2-.3-.1-.1-.1-.1-.2-.5-.4-.5-.5l-.4-.1h-.5l-.2-.1h-.3-.2l-.4-.1h-.3l-.8-.2-.9-.2-.5-.2-.5-.1-.6-.2-.5-.2-1.2-.4-.3-.1-.3-.2-.5-.2-.3-.2-.3-.1-.3-.2-.3-.1-.9-.6-.3-.1-1.2-.8-.3-.3-.6-.4-.8-.8-.3-.2-.2-.3-.8-.8-.4-.6-.2-.4-.3-.3-.2-.3-.4-.8-.1-.1-.2-.6-.2-.4L55 102l-.2-.3-.2-.6-.2-.4-.2-.8-.2-.4-.1-.4-.2-.5-.2-.9-.2-1v-.1l-.1-.4v-.3-.2l-.1-.3v-.3l-.1-.2v-.3-.1-.1-.3-.3l-.1-.2v-.1-.2h0v-.1-.1h0v-.1-.1-.2-.1l.1-.3v-.2-.3-.4l.1-.7.1-.8v-.7l.1-.7v-.6l.1-.7v-.6-.7-.6-.3-.3-.1-.1-.2-.1-.3-.6-.5-.6-.5l-.1-.5v-.5l-.1-.5v-.2-.5l-.1-.4v-.5l-.1-.4v-.5l-.1-.4v-.2-.1l-.2-.8-.1-.8-.2-.8-.2-1.5-.2-.7-.1-.8-.1-.6-.1-.4v-.4l-.1-.3v-.4-.4l-.1-.4v-.3-.4-.4l-.1-.4v-.2-.2-.1-.1-.1-.2-.2l.1-.4v-.5-.4-.4l.1-.5v-.4l.2-.9v-.5l.1-.5.1-.1.1-.4v-.3l.1-.4.2-.6.1-.4.1-.3.1-.4.2-.6.1-.4.1-.3.1-.4.2-.6.2-.4.1-.3.2-.4v-.1L54 55l.1-.3.2-.4.2-.3.1-.3.2-.3L55 53l.1-.3.8-1.2.2-.3.3-.3.2-.3.8-.8.2-.3.6-.6.3-.2.2-.3.3-.2.3-.3.3-.2.3-.3.6-.4.7-.5.6-.4.4-.2.3-.2.4-.2.6-.4.4-.1.3-.2.4-.2.4-.1.3-.2.4-.1L66 44l.8-.2.3-.2 1.2-.3.3-.1.8-.2h.2l.4-.1h.4l.3-.1.4-.1h.4l.4-.1h.4.4l.4-.1h.4.2.2.1.1.1.1zm-.2 1.7h-.2-.2-.4-.3-.4-.3l-.4.1h-.4l-.3.1h-.4l-.3.1-.4.1h-.4l-.3.1-.4.1-.3.1-.4.1L68 45l-.6.2-.4.1-.3.1-.4.2-.3.1-.3.2-.4.1-.3.1-.3.2-.4.2-.3.1-.6.4-.3.1-1.2.8-.6.4-.3.3-.9.6-.2.3-.3.2-.2.3-.3.2-.2.3-.3.2-.2.3-.3.2-.8 1.2-.2.2-.2.3-.1.3-.2.2-.2.3-.1.3-.2.3-.1.3-.2.3-.1.3-.2.3-.2.6-.2.4-.4 1.2-.1.4-.1.3-.1.4-.2.6-.1.4-.1.3-.1.4-.1.3v.3l-.1.3-.1.4v.3l-.3 1.4v.4l-.1.4v.4.4l-.1.4v.4.2.2.2.1h0v.1.1.2.2.4.3l.1.4v.3.4l.1.4v.3.4l.1.3.1.4.2 1.3.1.8.3 1.5.1.8.2.8.1.8.1.5v.4l.2.9v.5l.1.4v.5.5l.1.5v.6.5l.1.6v.5.6.3.3.1.2.1.3.3.7.6l-.1.7v.6.7l-.1.7-.1.8v.7l-.1.8-.1.3v.3.2.1.1.2.1h0v.1.1h0v.1h0v.2.1.1.2.3l.1.2v.3.2.2l.1.3v.2.3l.1.2.4 1.8.3 1.2.2.4.2.8.1.3.2.3.2.6.3.8.2.3.1.2v.1l.2.4.8 1.2.2.2.2.3.2.2.2.3.2.2.2.3.3.2.7.7.3.2.2.2.3.2.2.2.3.2.3.1.3.2.2.2.3.1.3.2.3.1.3.2.2.1.3.2.9.3.2.2 1.2.4.7.3.5.1.5.2.9.2 1.2.3h.3l.3.1h.2.2.2l.5.1h.4.4l.5.1h.4.2.2.2.1.1.2.1.2.2.4.4l.4-.1h.5.4l.4-.1h.4l.4-.1h.4l.4-.1h.4l.3-.1.8-.2h.4l.3-.1.8-.2.3-.1.4-.1.6-.2.4-.2.6-.2.4-.1.3-.2.3-.1.3-.2.5-.2.3-.2.3-.1.3-.2.2-.1.3-.2.2-.2.3-.1.2-.2.2-.1.2-.2.3-.2.7-.7.2-.2.1-.2.5-.5.4-.8.2-.4.4-1 .2-.4.2-.3v-.3l.2-.5.2-.4v-.3l.2-.4v-.3l.2-.5v-.2l.1-.2v-.3l.1-.2v-.3l.1-.2v-.2-.3l.1-.3v-.2-.3l.1-.2v-.4-.5-.6l.1-.5v-.3-.3-.1-.2-.1-.3-.6l-.1-.6v-.6-.7l-.1-.7v-.6l-.1-.8-.1-.3v-.4l-.1-.7-.1-.8v-.3-.3-.2-.1-.1-.1h0v-.1h0v-.2-.1-.2-.2-.3-.2-.2l.1-.3v-.2l.1-.2v-.3l.1-.2.2-.9.2-1 .2-.5.1-.5.2-.4.2-.5 1-3 .1-.5.2-.4.1-.5.2-.4.3-1.3.1-.3v-.2l.1-.2v-.2-.1l.1-.4v-.4l.1-.4v-.5-.4l.1-.4v-.4-.5-.4-.2-.2-.3-.1-.1-.1-.1-.2-.2-.2-.5-.4-.5-.4l-.1-.4v-.5l-.1-.4v-.5l-.3-1.2v-.4l-.3-1.3-.2-.4-.3-1.2-.2-.4-.1-.4-.2-.4-.1-.4-.8-1.6-.2-.4-.2-.3-.2-.4L93 54l-.2-.3-.2-.4-.3-.3-.5-.7-.6-.6-.3-.4-.2-.1-.1-.2-.2-.1-.6-.6-.2-.2h-.1l-.1-.1-.2-.1-.2-.2-.2-.1-.1-.2-.4-.2-.2-.2-.2-.1-.2-.2-.8-.4-.2-.1-.6-.4-.5-.2-.6-.3-.7-.4-.3-.1-.5-.3-.5-.2-.6-.2-.7-.3-.3-.2-.5-.2h-.3l-.5-.2-.6-.2h-.1l-.6-.2h-.2l-.3-.1h-.3l-.6-.2h-.4l-.4-.1h-.3-.4l-.3-.1h-.4-.4-.1-.2-.2-.1-.1z"/><path d="M79.5 108.2C63.1 112 60.3 102.5 59.7 100.4 58.6 96.5 58.1 89 59.1 84.9q.4-2.2 2-4.1C63.4 78.2 73.9 78 77.8 78.6q2.3.4 4.4 1.4c4.8 2.1 6.5 26.1-2.7 28.2z" fill="#b7f8ff"/><circle cx="55.4" cy="66.5" r="0.7" fill="#b7f8ff"/><circle cx="89.3" cy="67.7" r="0.7" fill="#b7f8ff"/><path d="M62 79.5c0 0-5.5 2.8-5.8 6.5s2.6 4.7 3.9 2.2Q62 84.1 65.2 83c2.2-.5.3-5.2-3.1-3.5z" fill="#d6c295" stroke="#000" stroke-width="1.24px"/><g><g><path d="M62.9 68.2c.6 10.2 4.7 14 9.1 14s3.8-10.4 3.8-10.4L62.9 67.5"/><g><path d="M66.8 69.8l.8 5.5q.5.6 1.3.5 2.8-.4 2.9-4.2" fill="#ededed"/><path d="M66.8 69.2h.2l.4.4v.2.2l.1.3v.4l.1.8.1.7v.5.4l.1.4v.4l.1.2v.1.2l.1.1v.2l.1.1v.1h0v.1h0 0 .1 0 0v.1h.1 0 .1 0l.1.1h.1.1.2.1 0 .1 0 0 0 .1 0 0 0 0 .1 0 0 .1 0 0 .1 0 .1 0 .1v-.1h.1 0 .1 0v-.1h.1 0 .1v-.1h0l.1-.1h0l.2-.2v-.1l.1-.2v-.1l.1-.1.1-.2v-.2l.1-.1v-.2-.2l.1-.3.1-.4.1-.6.1-.4v-.1l.1-.2.1-.1.2-.1h.1.1 0 .2l.4.4v.2h0v.1.2l-.1.3-.1.6-.2.8v.2l-.2.4v.2l-.1.1-.1.2v.2l-.2.4-.3.3v.1h-.1l-.1.1v.1l-.1.1h-.1l-.1.1h-.1l-.2.2h-.1-.1l-.1.1h-.1-.1l-.1.1h-.1-.1-.2 0-.1 0 0-.1 0-.1 0-.1-.1-.2-.2l-.1-.1h-.2-.1l-.1-.1h-.1l-.1-.1h-.2l-.3-.3-.1-.2-.2-.2v-.1l-.1-.2v-.2l-.1-.1v-.2-.2l-.1-.2v-.3l-.1-.4v-.4l-.1-.4v-.5l-.1-.8-.1-.7v-.3-.3-.2h0v-.1-.2-.1l.1-.1.2-.1.1-.1h.1.1 0z"/><path d="M70.2 63.3q3.1.4 3.3 2.4-.4 2-3.6 2C68 67.6 66.6 66.5 66.6 65.3q.4-2 3.6-2z"/><path d="M69.9 66.4h.1l.1.1h.1l.1.1h.1v.1l.1.1v.1.1h0v.1.1.1.1.3l-.1.4v.4l-.1.7v.5l-.1.3v.2.1l-.2.2v.1h-.1l-.1.1h-.1-.1 0 0-.2l-.1-.1h-.1v-.1l-.2-.2v-.1h0v-.1h0 0v-.4l.1-.3v-.7l.1-.5v-.3-.4-.1-.1-.1-.1-.1h0l.1-.1v-.1l.1-.1v-.1l.1-.1h.1.1l.1-.1h.1 0z"/><path d="M65.3 47.2q1.2.2 1.3.9-.2.6-1.4.6-1.3-.2-1.3-.8.1-.7 1.4-.6z" fill="#b7f8ff"/><path d="M83.8 47.3q1.2.1 1.2.8-.1.6-1.4.6-1.2-.2-1.3-.8.2-.7 1.5-.6z" fill="#b7f8ff"/><path d="M58.2 49.8q6.5-.3 8 6 .3 6.4-6 7.9-6.4.3-7.9-5.9-.3-6.5 5.9-8z" fill="#fff" stroke="#000" stroke-width="1.24px"/><path d="M82.9 51.9q6.5-.3 8 5.9.3 6.5-6 8-6.4.3-7.9-6-.3-6.4 5.9-7.9z" fill="#fff" stroke="#000" stroke-width="1.24px"/></g></g><path d="M90.4 61.5c0 0-.1-6-5.3-7s-6.4 4.7-5.2 6.7c1.9 3.1 6.4 3 7.2.2.9-3.2-2.3-4.6-3.8-3.9q-2.2 1.4-1.2 3 1.7 1.3 2.3-.6" fill="none" stroke="#000" stroke-width="1.24px"/><path d="M65.8 54.5c0 0-3.9-4.7-8.5-2.2s-2.1 7.7.2 8.6c3.4 1.2 6.9-1.8 5.7-4.5s-4.7-2.1-5.4-.6q-.9 2.4 1 3.1 2.1 0 1.3-2" fill="none" stroke="#000" stroke-width="1.24px"/></g><path d="M32.1 131.1v1.9l.2.4.5.2h2.2v3.2l-1.5.5-2 .2q-1.2 0-2.3-.4-1.1-.4-1.8-1.2-.8-.8-1.2-2-.5-1.2-.5-2.8 0-1.4.4-2.5.5-1.2 1.2-2 .7-.8 1.8-1.2 1-.5 2.3-.5 2.4 0 4.2.7.2 1.5.2 1.9.1.4.6.4h1.4v-4.5q-3.4-1.3-6.2-1.3h-.1-.1q-2 .1-3.6.7-1.7.7-2.9 1.8-1.2 1.2-1.9 2.9-.6 1.7-.6 3.6 0 2 .7 3.7.6 1.6 1.8 2.8 1.2 1.2 2.8 1.9 1.6.6 3.5.6l2.1-.1 1.7-.3 1.6-.6 1.4-.9v-7.1h-5.9z" fill="#40c9e0"/><path d="M57.2 131.1q0-1.9-.7-3.5-.6-1.7-1.8-2.9-1.1-1.2-2.8-1.9-1.6-.6-3.6-.6-2 0-3.7.6-1.6.7-2.8 1.9-1.2 1.2-1.9 2.9-.6 1.6-.6 3.5 0 2 .6 3.7.7 1.6 1.9 2.8 1.1 1.2 2.8 1.9 1.7.6 3.7.7 2 0 3.6-.7 1.6-.7 2.8-1.9 1.2-1.2 1.8-2.8.7-1.7.7-3.7zm-3.4 0q0 1.5-.4 2.7-.3 1.1-1.1 1.9-.7.8-1.7 1.2-1.1.5-2.4.4-1.2.1-2.3-.4-1-.4-1.8-1.2-.7-.8-1.1-1.9-.4-1.2-.4-2.7 0-1.4.4-2.5.4-1.2 1.1-2 .8-.8 1.8-1.2 1-.5 2.3-.4 1.3-.1 2.4.4 1 .4 1.7 1.2.8.8 1.1 2 .4 1.1.4 2.5z" fill="#40c9e0"/><path d="M71.8 125.7q-.4-1-1.3-1.8-.8-.7-2.1-1.1-1.3-.5-3.1-.5h-5.4-1.8v1.5q0 .6.6.7l.5.1.7.2v12.8l-1.1.1-.1.1q-.6.1-.6.7v1.5h6.9v-1.5q0-.6-.6-.7l-.5-.1-.7-.1v-3.9h2.1q1.8.1 3-.4 1.3-.4 2.2-1.2.8-.7 1.2-1.8.5-1.1.5-2.4 0-1.2-.4-2.2zm-3.1 3.6-.7 1-1.1.7q-.6.2-1.6.2h-2.1v-6.3h2.1q1 0 1.6.2l1.1.6.7 1 .2 1.2-.2 1.4z" fill="#40c9e0"/><path d="M91 124.5q.6-.1.6-.7v-1.5h-1.9-3.3-1.8v1.5q0 .6.6.7l.5.1.7.1v5.2h-8.2v-5.2l1.1-.2h.1q.6-.1.6-.7v-1.5h-1.8-3.3-1.9v1.5q0 .6.6.7l1.3.2v12.8l-1.1.2-.2.1q-.6.1-.6.7v1.5h7v-1.5q0-.6-.6-.7l-.5-.1-.7-.2v-5.2h8.2v5.2l-1 .2-.2.1q-.6.1-.6.7v1.5h7v-1.5q0-.6-.6-.7l-.6-.1-.7-.2v-12.8l1.1-.1.2-.1z" fill="#40c9e0"/><path d="M94.4 122.3h-1.8v1.5q0 .6.6.7l.5.1.7.2v12.8l-1.1.1-.1.1q-.6.1-.6.7v1.5h12.9v-1.7-1-2h-.1-.3-1q-.5 0-.6.5 0 .3-.1 1.5h-5.7v-4.9h6v-2.6h-6v-4.8h5.7q.1 1.2.1 1.5.1.5.6.5h1.4v-2-.9-1.7h-11.1z" fill="#40c9e0"/><path d="M121.7 137.8l-.6-.1-.8-.2-2.7-4q-.5-.7-1.1-1.1l1.7-.7 1.2-1.2.7-1.4.3-1.7q0-1.1-.4-2-.4-1-1.2-1.6-.8-.7-2.1-1.1-1.3-.4-3.1-.4h-5.2-1.9v1.5q0 .6.7.7l.5.1.7.2v12.8l-1.1.1-.1.1q-.7.1-.7.7v1.5h7v-1.5q0-.6-.6-.7l-.5-.1-.7-.1v-4.5h1.2l.7.1.5.5 3.7 5.6.5.5.7.2h3.3v-1.5q0-.6-.6-.7h0zm-6.5-7.3-1.7.2h-1.8v-5.8h1.9q1.8 0 2.7.7.9.7.9 2l-.2 1.3-.7.9q-.4.5-1.1.7z" fill="#40c9e0"/><path d="M102.7 3.4C95.1 3.1 96 9.6 91.7 13.8l-10.6 5c-6.7 6.2-6.9 18.8 4 19.8q3.3.2 6.1-1.5C98.1 33 95.9 26.3 99.3 20.3l7.5-8.5c1.3-3.1-.6-8.2-4.1-8.4z" fill="#0096ff"/><path d="M102.1 2.8h.1.2.3.2l.2.1h.2.2l.2.1h.1l.4.2h.2l.1.1.2.1.1.1.2.1.1.1.2.1.1.1.2.1.1.2.1.1.2.1.1.2.1.1.1.2.1.1.1.2.1.1.1.2.1.1.2.4.1.1v.2l.1.2.1.1.1.2v.2l.1.2v.2l.1.1v.2l.1.2v.2l.1.2v.1.2.2.2l.1.2h0v.1.1.1h0v.1h0v.1.1.1l-.1.2v.2.1.2l-.1.2v.2.2l-.1.1v.2l-.1.2-.1.1v.2l-.2.4-.1.1-.3.6-.1.1-.1.2-.1.1-.2.4-.1.1-.2.1-.1.2-.2.2-.2.3-.3.3-.3.2-.2.3-.3.2-.3.3-.3.2-.5.5-.7.6-.2.2-.3.2-1 1-.2.3-.3.3-.1.2-.2.2-.1.2-.1.1-.1.2-.1.1v.1l-.2.3-.1.3-.2.2-.4 1.2-.2.5-.2.6-.3.8v.3l-.1.4-.2.5-.2 1.1-.3 1.2-.2 1.1-.2.5v.3l-.4 1.2v.2l-.2.6-.2.3-.3.8-.2.3-.1.2-.2.3-.1.2-.2.3-.2.2-.1.3-.2.2-.2.3-.3.2-.2.3-.7.7-1.2.8-.3.3-.3.2-.4.2L91 38l-.6.3h-.2l-.8.4h-.2l-.2.1h-.2l-.4.2h-.2l-.2.1h-.2-.2l-.2.1h-.2-.2-.2l-.2.1h-.2-.2-.1 0-.1 0-.1 0-.1-.1-.1-.2l-.2-.1h-.3-.2-.3l-.2-.1h-.3l-.2-.1h-.3l-.2-.1h-.2l-.5-.2h-.2l-.5-.2-.4-.2h-.2l-.4-.2-.1-.1-.6-.3-.3-.3-.4-.2-.1-.1-.2-.1-.1-.2-.2-.1-.4-.4-.1-.2-.2-.1-.1-.2-.4-.4-.2-.4-.1-.1-.2-.4h-.1v-.1l-.1-.2v-.1l-.1-.1v-.2l-.1-.2-.1-.1-.2-.4v-.2l-.1-.2v-.2l-.2-.4v-.2-.2l-.1-.2v-.2l-.1-.2v-.2-.2-.2-.2l-.1-.2v-.2-.1-.1-.1-.1-.1h0v-.1h0v-.1h0v-.1-.1-.1-.1-.2-.2l.1-.2v-.2-.2-.2-.2l.1-.2v-.2l.1-.2v-.2-.2l.1-.2v-.2l.2-.4.2-.8.2-.4.1-.4.5-1 .4-.8.4-.8.2-.1.3-.6.3-.3.1-.2.2-.2.1-.2.2-.1.2-.4.2-.1.1-.2.2-.1.2-.2.1-.2.2-.1.3-.3.2-.1.1-.1.2-.1.1-.1.4-.2.1-.1.6-.3.1-.1.2-.1.4-.1.3-.2.8-.2.3-.2 1.6-.4.6-.2.4-.2.6-.2.4-.1.3-.1.3-.2.4-.2h.2l.2-.2.2-.1.1-.1h.2l.2-.2.2-.1.3-.3.2-.1.1-.2.4-.4.1-.2.4-.4.1-.2.2-.2.2-.4.2-.2.2-.4.1-.3.2-.2.2-.5.3-.4.6-1.2.3-.8.1-.2.2-.3.3-.6.2-.2.2-.4.2-.2.1-.2.2-.2.1-.2.2-.1.2-.2.1-.2.2-.1.2-.2.2-.1.2-.2.7-.3.2-.2.5-.2h.3l.3-.1L100 3h.3l.3-.1h.3l.4-.1h.3.2.1.1.1zM102 4h-.2-.3l-.3.1h-.3-.2l-.3.1h-.2l-.3.1h-.2l-.8.4-.2.1-.1.1h-.1l-.1.1-.2.1-.5.5-.4.4-.1.2-.2.1-.3.6-.3.3-.2.4-.1.3-.3.4-.2.5-.4.7L95 10l-.2.4-.3.5-.1.3-.2.2-.2.5-.2.3-.1.2-.2.2-.1.2-.2.2-.2.3-.8.8-.1.2-.3.3-.2.1-.3.3-.2.1-.1.1-.2.1-.1.1-.4.2-.1.1h-.2l-.8.4-.3.1-.4.1-.3.1-.4.2-.4.1-.6.2-.7.2-.5.1-.3.2-.4.1-.3.1-.4.1-.3.2-.7.3h-.1l-.2.1-.1.1-.2.1h-.1l-.2.1-.2.2-.2.1-.5.5-.6.6-.4.4-.1.2-.4.4-.2.4-.4.4-.3.6-.1.1-.4.8-.1.1-.1.2v.2l-.1.2-.2.3-.1.4-.2.4-.2.8-.1.1v.2l-.1.2v.2.2l-.1.2v.2l-.1.2v.2.2.2.2l-.1.2v.1.2.1.1.1.1.1h0v.1h0v.1h0v.1h0v.1.1.1.1.2.1l.1.2v.2.2.2.1l.1.2v.2.2l.1.2v.1.1l.1-.1v.2l.1.1v.2l.1.1.1.2v.2l.1.1.1.2v.1l.1.2.1.1.1.2.1.1v.2l.2.2.1.2.1.1.1.2.1.1.2.1.1.2.3.3.2.1.1.2.1.1.2.1.1.1.2.1.1.1.2.1.1.1.2.1.1.1.4.2h.2l.1.1.6.3h.2l.2.1h.2l.4.2h.2l.2.1h.3.2l.2.1h.3.2l.2.1h.2.2.1.1.1 0 .1 0 .1 0 .1.1.1 0 .2.2l.2-.1h.2.1.2l.2-.1h.2l.2-.1h.2.1l.4-.2h.2l.2-.1h.1l.6-.3L90 37h.2l.2-.1.1-.1.2-.1.1-.1.3-.1.3-.2.2-.2.4-.3h0l.2-.2.3-.2.8-.8.2-.2.2-.3.2-.2.1-.2.2-.2.1-.2.2-.3.1-.2.2-.3.2-.4.4-1 .3-.8v-.3l.3-.7.2-1.1.2-.6.3-1.7.2-.6.1-.6.2-.6v-.3l.4-1.2.2-.6.2-.3.2-.6.2-.3.1-.3.2-.3.2-.5.1-.1.1-.2.1-.1.2-.4.2-.1.1-.1.1-.2.5-.5.2-.3.3-.2.8-.8.3-.2.7-.6.5-.5.3-.2.2-.3.3-.2.7-.7.2-.3.3-.3.1-.2.2-.2.1-.2.1-.1.1-.2.2-.2.1-.2v-.1l.1-.2.1-.1.1-.2v-.1l.1-.1v-.2l.1-.1v-.2-.1l.1-.1v-.2-.1-.2-.1-.1-.1h0v-.1-.1h0v-.1h0v-.1h0v-.1h0v-.1-.1-.2-.2l-.1-.1v-.2-.1-.2l-.1-.2v-.1l-.1-.2v-.1l-.1-.2v-.2l-.2-.2v-.2l-.1-.1-.1-.2v-.1l-.1-.1-.1-.2-.2-.2v-.2l-.4-.4-.4-.4-.3-.3h-.2l-.2-.2h-.1l-.2-.1h-.1l-.1-.1h-.1-.1-.1-.2l-.1-.1h-.1-.1-.2-.1-.1-.1-.1-.1z"/><path d="M124.2 63.5c-7.4-1.1-7.4 6.3-10.9 9.9s-7.6 2.1-9.7 8.2c-1.9 5.4.1 11.9 6.5 12 4.5.1 7.8-4.3 8.5-8.4q.1-2.9.9-5.5l6.4-7.5c1-2.6 1.6-8.3-1.7-8.7z" fill="#f5a02b"/><path d="M122.9 62.7h.2.3l.4.1h.3l.3.1h.2.2l.1.1.2.1h.2l.2.2.2.1.1.1.2.1.1.2.3.3.1.2.1.1.1.2v.1l.1.2.1.1v.2l.1.1v.2l.1.2v.1l.1.2v.2.2.2l.1.1v.2.2.2.1.1h0v.1.1.1.2.4.3.4l-.1.3v.4l-.1.3-.1.4v.3l-.1.3-.1.4-.3.8v.2l-.1.2-.1.1-.1.2-.1.1v.2l-.1.1-.1.2-.1.1-.1.2-.2.2-.1.2-.2.3-.9.9-.7.7-.5.4-.6.5-.7.7-.3.2-.4.4-.1.3-.2.2-.2.1v.2l-.4.4v.2l-.2.2v.2l-.2.2v.2l-.1.1v.2.1l-.1.2v.1.2.1l-.1.2v.3.3.4l-.1.6v.4.4.4l-.1.1v.2.2.2l-.1.2v.2l-.1.2v.2l-.2.4v.2l-.1.2v.2l-.4.8v.2l-.4.8-.2.4-.3.3-.3.6-.3.3-.1.2-.5.5-.1.2-.6.6-.2.1-.1.2-.4.2-.1.2-.8.4-.1.1-.8.4-.4.2h-.2l-.4.2h-.3l-.2.1h-.2-.2-.2l-.3.1h-.1-.1-.1 0-.1-.1-.3l-.4-.1h-.3-.3l-.3-.1h-.2l-.6-.2-1-.4-.5-.2L106 93l-.2-.1-.2-.2-.2-.1-.4-.4-.2-.1-.2-.2-.1-.2-.4-.4-.2-.4-.2-.2-.2-.5-.2-.2-.4-1v-.2l-.2-.5v-.2l-.2-.6v-.2-.3l-.1-.2v-.3-.3-.2-.2-.1-.1h0v-.1-.1-.1-.2-.2-.3-.3l.1-.3v-.3-.2l.1-.3v-.3l.2-.6v-.2l.2-.5.4-1.2.2-.5.2-.2.2-.5.2-.2.2-.4.2-.2.1-.2.2-.2.1-.2.2-.1.1-.2.2-.1.1-.2.2-.1.3-.3.2-.1.1-.1.4-.2.1-.1.2-.1.4-.3.3-.1.4-.2.3-.2.6-.2.5-.2.3-.2.4-.2.7-.3.1-.1.4-.2.1-.1.2-.1.5-.5.2-.1.1-.2.2-.1.1-.2.3-.3.1-.2.5-.5.4-.8.2-.2.1-.3.3-.5.2-.4.3-.7.4-.6.2-.5.5-1 .2-.2.2-.4.2-.2.1-.2.2-.2.1-.2.2-.2.1-.2.4-.4.1-.2.2-.1.4-.4.4-.2.3-.2.4-.2.5-.2.6-.2.2-.1h.3l.3-.1h.3.3.2.2 0 .1zm-.1 1.3h-.2-.2-.3-.2l-.3.1h-.2l-.2.1h-.2l-.7.3-.1.1-.6.3-.6.6-.6.6-.1.1-.1.2-.2.2-.3.6-.2.2-.6 1.2-.3.5-.4.9-.2.4-.3.5-.2.4-.1.3-.2.2-.1.2-.2.2-.2.4-.2.2-.1.2-.2.2-.1.2-.4.4-.1.2-.2.1-.5.5-.2.1-.3.3-.8.4-.1.1-.6.3-.3.2-.3.1-.4.2-.7.3-.4.2-.3.1-.6.4h-.2l-.2.2-.2.1-.1.1-.2.1-.2.2-.2.1-.1.1-.2.1-.1.2-.1.1-.2.1-.1.2-.1.1-.1.2-.2.1-.4.8-.2.2-.2.4-.4 1-.1.3v.2l-.2.5v.2l-.2.5v.3.2l-.1.2v.3.2.2l-.1.3v.1.1.1.1.1h0v.2.1l.1.2v.2.3.2.3l.1.2v.2l.1.3v.2l.2.4v.2l.4.8.4.8.2.4.2.1.1.2.2.1.1.2.2.1.1.2.2.1.1.2.8.4.8.4.2.1h.3l.5.2h.2l.3.1h.2.3.3.1.1 0 .1 0 .1.1.2.2.2l.1-.1h.2.2l.2-.1h.2l.1-.1.2-.1h.2l.1-.1.2-.1.1-.1h.2l.2-.1.1-.1.2-.1.1-.1.2-.1.1-.1.2-.1.1-.2.2-.1.5-.5.4-.4.1-.2.2-.1.2-.4.1-.1.1-.2.1-.1.2-.4.1-.1.3-.6.1-.1.3-.6v-.2l.1-.1.1-.2v-.2l.2-.4v-.1l.1-.2v-.2l.1-.2v-.2l.1-.1v-.2-.2-.2l.1-.1v-.2-.3-.4l.1-.4v-.6-.4-.3l.1-.4v-.2-.1-.2l.1-.2v-.2l.1-.2v-.1l.1-.2v-.2l.2-.4.1-.1.1-.2v-.2l.2-.2.1-.2.1-.1.1-.2.1-.1.1-.2.7-.7.2-.3.2-.2.3-.2.2-.2.4-.3.5-.6.5-.4.4-.4.3-.2.8-.8.1-.2.2-.2v-.1l.1-.1.1-.2.2-.2v-.1l.1-.1.1-.2v-.1l.1-.1v-.2l.1-.1.3-.8v-.3l.2-.6v-.3l.1-.3v-.3l.1-.4v-.3-.4-.3-.2h0v-.1-.1-.1-.1h0v-.1-.2-.1-.2-.2l-.1-.1v-.1-.2-.1l-.1-.2v-.1-.1l-.1-.2v-.1l-.1-.1v-.1l-.2-.2v-.1l-.1-.1v-.1l-.1-.1h-.1l-.1-.1v-.1h-.1l-.1-.1h-.1l-.1-.1h-.1l-.1-.1h-.1-.1-.1l-.3-.1h-.3-.3-.2-.1-.1-.1z"/><path d="M41.6 41.3c5 1.7 5.3-4.4 7.7-7s5.3-1.4 6.8-5.8c1.3-3.7 0-8.3-4.6-8.4q-4.9.8-6 6 0 2-.6 3.8-2.4 2.5-4.5 5.3c-.7 1.8-2 5 1.2 6.1z" fill="#f5a02b"/><path d="M51.5 19.5h0 .1.3.2.2l.2.1h.2l.2.1h.2l.3.1h.2l.1.1.8.4.1.1.2.1.1.1.2.1.1.1.2.1.1.2.1.1.1.2.2.1.1.1.2.4.1.1.1.2.1.1.1.2v.2l.1.1.1.2v.2l.2.4v.1.2l.1.2v.2.2l.1.1v.2.2.2.1.1.1.1.1.1h0v.1.1.1.2.2.2.2l-.1.2v.2.2l-.1.2v.2l-.1.2v.2l-.2.4v.2l-.4.8v.2l-.1.1-.2.4-.1.1-.1.2-.2.2-.1.2-.1.1-.2.1-.1.1-.1.2-.2.2-.2.1-.2.2h-.1l-.3.3-.8.3L53 33l-.8.3-.3.2-.5.2-.8.4-.3.3h-.1l-.4.4-.4.4-.1.2-.2.2v.2l-.1.1-.2.4-.4.6-.1.4-.3.5-.2.6-.2.3-.2.4-.2.3-.2.5-.1.1-.2.4-.2.1-.1.2-.2.2-.1.2-.2.1-.1.1-.1.2-.2.1-.1.1-.4.2-.1.1-.2.1h-.2l-.2.1h-.2l-.2.1h-.2-.2-.1-.1-.1 0-.1-.2-.3l-.2-.1h-.3l-.2-.1h-.2l-.3-.1-.1-.1h-.2l-.1-.1-.2-.1-.1-.1h-.2l-.3-.3-.2-.1-.3-.3v-.1l-.2-.2-.1-.2v-.1l-.1-.1v-.1l-.1-.1v-.2l-.1-.1v-.1-.1-.1l-.1-.1v-.2-.1-.1-.1h0v-.1h0 0v-.1-.1-.1-.3-.2-.2l.1-.3v-.2l.2-.5v-.2l.3-.8.1-.4.2-.3v-.2l.2-.4.2-.2.2-.4.2-.2.1-.2.2-.2.1-.2.2-.1.2-.2.1-.2.2-.1.3-.3.5-.4.5-.5.2-.1.1-.2.4-.4.1-.2.2-.1.1-.2.1-.1.1-.2v-.1l.1-.1v-.1-.1l.1-.1v-.1-.1-.1l.1-.1v-.2-.2-.2l.1-.2v-.3-.6-.2-.3l.1-.2v-.3l.1-.3v-.3l.4-1.2.2-.5.2-.3.1-.3.2-.3.1-.2.2-.3.2-.2.2-.3.2-.2.1-.2.2-.2.2-.1.4-.4.1-.1.2-.1.2-.2.2-.1.1-.1h.1l.2-.1.1-.1.2-.1h.1l.1-.1h.2l.1-.1h.2l.1-.1h.2.2l.1-.1h.2.1.2.1.1 0 0 .1 0zm-.1 1.2h0-.1-.1 0-.1-.1l-.1.1h-.1-.2-.1-.1l-.1.1h-.1L50 21h-.1-.1l-.2.2h-.1l-.1.1h-.1l-.3.3h-.1l-.4.4h-.1l-.4.4-.3.3-.2.3-.1.2-.2.2-.2.5-.1.1-.4 1-.3.7v.2l-.1.3v.2.2.3l-.1.2v.5.4.2.3l-.1.2v.2.2l-.1.1v.2.1l-.1.1v.2l-.1.1-.1.2v.1l-.1.2-.2.2-.1.2-.2.2-.2.4-.2.2-.2.1-.1.2-.3.3-.4.3L43 33l-.3.2-.2.2-.1.2-.2.1-.4.4-.1.2-.3.3-.1.2-.1.1v.2l-.1.2-.1.1-.1.3-.1.4-.3.7v.2l-.1.2v.2l-.1.2v.2l-.1.2v.2.2.1h0v.1h0 0v.1h0v.1h0 0v.1.1h0l.1.1v.1.1.1h0l.1.1v.1.1l.1.1h0l.1.1h0l.1.1v.1h.1l.1.1h0l.2.2h.1l.2.2h.1l.1.1h.1l.1.1h.2l.2.1h.2l.2.1h.2.1.1.1.1 0 0 .1.1.1.2.1l.1-.1h.2l.1-.1h.1l.2-.2h.1l.4-.4.4-.4.2-.2.1-.2.1-.1.1-.2L46 39l.1-.3.2-.3.1-.3.2-.3.3-.6.2-.5.2-.4.2-.3.1-.4.2-.2.1-.2L48 35l.1-.1.1-.2.1-.1.1-.2.2-.1.1-.2.2-.2.1-.2.2-.1.4-.4.2-.1.2-.2.3-.1.3-.2.4-.2.3-.1.3-.2.8-.3.4-.2.2-.2.4-.2h.1l.3-.3h.1l.2-.2v-.1l.4-.4v-.1l.3-.3.1-.2v-.1l.1-.2.1-.1.1-.2.1-.1v-.2l.2-.4v-.1l.1-.2v-.2l.1-.1v-.2-.1l.1-.2v-.2-.1-.2l.1-.1v-.2-.1-.1h0v-.1-.1h0v-.1h0v-.1h0v-.1-.1h0v-.2-.2l-.1-.1v-.1-.2-.1-.2l-.1-.1v-.2l-.1-.1v-.1-.1l-.1-.2v-.1l-.1-.2-.1-.1v-.1l-.1-.2-.2-.2v-.1l-.1-.2-.3-.3.1-.2-.2-.2-.2-.1-.3-.3h-.1l-.1-.1-.2-.1-.1-.1h-.2l-.1-.1h-.1l-.1-.1h-.2-.1l-.2-.1h-.2-.1-.2l-.2-.1h-.1-.1-.1 0-.1 0 0z"/><path d="M38.2 62.6l8.1 2.5-6.4 5.8-1.7-8.2z" fill="none" stroke="#000" stroke-width="1.24px"/><path d="M108.4 23.4l-.1 8.5-7.4-4.4 7.5-4.1z" fill="none" stroke="#000" stroke-width="1.24px"/><path d="M105.5 104l-4.3-7.3 8.6.1-4.3 7.2z" fill="none" stroke="#000" stroke-width="1.24px"/><circle cx="39.3" cy="48.2" r="2.2" fill="#2b92f5"/><circle cx="109.6" cy="67.2" r="2.2" fill="#e764c6"/><circle cx="44" cy="97.3" r="2.2" fill="#f5a02b"/><circle cx="111.5" cy="17.4" r="2.2" fill="#f5a02b"/><circle cx="68.8" cy="33.3" r="0.7" fill="#484848"/><circle cx="116.7" cy="47.2" r="0.7" fill="#484848"/><circle cx="15.3" cy="75.4" r="0.7" fill="#484848"/><circle cx="42.7" cy="86.6" r="0.7" fill="#484848"/><circle cx="104.7" cy="72.4" r="0.7" fill="#484848"/></g></g></svg>