<?xml version="1.0" encoding="UTF-8" standalone="no"?><svg xmlns="http://www.w3.org/2000/svg" xmlns:serif="http://www.serif.com/" width="100%" height="100%" viewBox="0 0 144 144" version="1.1" xml:space="preserve" fill-rule="evenodd" clip-rule="evenodd" stroke-linecap="round" stroke-linejoin="round" stroke-miterlimit="1.5"><rect id="" serif:id="" x="0" y="0" width="144" height="144" fill="none"/><g><g><path d="M120.97 91.61c0 0-4.76-1.56-7.1.36s-1.19 4.27 1.01 3.58q3.43-1.31 5.92-.17c1.58.96 3.19-2.82.17-3.77z" fill="#d6c295" stroke="#000" stroke-width="1.01px"/><path d="M104.73 57.67c0 0-2.35-2.44-3.23 3.52" fill="none" stroke="#61e0ee" stroke-width="1.01px"/><path d="M102.74 55.23c0 0-2.96-1.64-2.04 4.32" fill="none" stroke="#61e0ee" stroke-width="1.01px"/><path d="M96.62 57.09c0 0 2.25-2.35 3.03 3.81" fill="none" stroke="#61e0ee" stroke-width="1.01px"/><path d="M113.19 115.02c0 0-.27-5-2.9-6.49s-4.41.43-2.98 2.24q2.46 2.71 2.3 5.46c-.32 1.82 3.78 1.95 3.58-1.21z" fill="#d6c295" stroke="#000" stroke-width="1.01px"/><path d="M88.21 117.06c0 0-2.65-4.25-1.35-6.98s3.86-2.18 3.72.12q-.46 3.64 1.25 5.79c1.31 1.31-1.98 3.77-3.62 1.07z" fill="#d6c295" stroke="#000" stroke-width="1.01px"/><path d="M84.21 72.74q-.56-1.06-1.69-1.59c-5.72-2.33-3.72 4.23-.39 3.97" fill="#61e0ee"/><path d="M80.47 69.98h.05.1l.44.04.47.1.5.14.54.18.39.16.57.36.32.24.56.54.32.42.15.42.02.13v.08l-.1.28-.21.21-.36.11h-.07l-.28-.1-.21-.21-.1-.24 0 0v-.01-.01l-.1-.14-.39-.38-.48-.36-.34-.19h-.06l-.47-.17-.42-.13-.68-.12h-.07-.07-.03-.03-.03-.06-.06l-.25.06L80 71.38l-.22.08-.2.38v.03.03.02.02.04.02.02.02.04.04.04l.08.38.17.4.25.4.32.36.35.31.4.23.4.14.21.04h.06.06.03.03.03.06.06.08l.28.08.22.2.13.34v.04.04l-.08.29-.2.23-.27.12-.16.02h-.1-.05-.05-.1l-.39-.04-.36-.09-.36-.12-.63-.34-.28-.2-.51-.48-.42-.56-.31-.56-.12-.31-.11-.4v-.02l-.07-.48v-.08-.08-.04-.08-.08l.05-.32.09-.32.15-.28.2-.28.26-.23.3-.18.33-.14.36-.08.3-.03h.1.1z"/><path d="M115.21 68.43q.84.17 1.49-.45c4.88-3.79-1.79-5.31-3.23-2.29" fill="#61e0ee"/><path d="M116.39 63.42h.08.08l.64.09.32.08.57.26.27.17.24.21.21.25.17.28.11.32.05.34v.04.04.04.09l-.05.36-.11.36-.17.36-.22.36-.27.36-.34.36-.39.36-.74.58-.46.24-.27.1-.45.09h-.08-.04-.08l-.52-.12-.23-.18-.13-.26-.02-.14v-.04l.07-.28.18-.22.26-.13.14-.02h.04l.21.04h.01.01l0 0 0 0h.02.01.01.01.01.01.01.01.01.01.02.02.02l.23-.08.51-.36.38-.32.55-.58.32-.48.14-.38v-.03-.03-.01-.01-.01-.01-.01-.01-.02-.02-.02l-.22-.32-.27-.16-.35-.11-.37-.07h-.06-.06-.06-.03-.03-.03-.03-.03-.03-.06-.06l-.48.08-.47.14-.4.22-.34.29-.27.34-.13.22-.2.21-.34.11h-.04l-.28-.07-.23-.18-.13-.26-.02-.14v-.04l.07-.28.19-.33.23-.31.25-.28.28-.24.29-.21.64-.32.32-.12.64-.13.32-.04h.08.08.04.08z"/><path d="M114.9 108.31c0 0 2.54-4.99 2.06-9.26-1.5-13.39 2.44-16.02.9-24.18q-.75-4.57-3.27-8.41C110.8 61.3 103.53 58.62 97.2 59.83q-3.74.85-7.09 2.79c-7.88 4.18-9.52 13.02-8.49 20.46.45 3.3 3.29 8.43 2.87 11.74-.86 6.89-.62 10.62 1.53 15.06 1.83 3.79 8.97 6.64 16.77 5.83 1.33-.14 9.28-1.53 12.11-7.39z" fill="#61e0ee"/><g fill="#4fcbe0"><path d="M86.74 65.86c0 0-2.68 3.45-1.96 8.81 1.09 8.05 4.47 6.32 4.24 20.81-.12 7.22-.55 11.58 2.63 15.92s11.92 4.22 14.15 3.58-8.8 2.3-15.12-.26c-6.3-2.55-7.2-13.27-6.37-19.97S79.78 86.14 81.57 74.59c2.87-6.76 2.94-6.38 5.17-8.74z"/><path d="M97.27 75.75c0 0-.78 3.92-5.45 3.69s-5-5-5-5l10.45 1.31z"/><path d="M117.25 73.76c0 0-.78 3.92-5.45 3.69s-5-5-5-5l10.45 1.31z"/></g><path d="M100.37 58.87h.08.16.16l1.28.08.64.07.64.09 1.28.25 1.21.32 1.2.41 1.2.49 1.12.56 1.12.63.52.34.52.36.51.38.96.81.47.44.44.44.42.47.79.97.65.96.57 1.03.27.53.48 1.11.41 1.12.19.56.32 1.12.23.91.25 1.12.15.85.12.75.08.72.07 1.21v.17.17.17.08.08.08.08.16.16l-.08 1.26-.06.6-.08.6-.16 1.05-.21 1.2-.46 2.51-.2 1.36-.24 2.24-.05.81-.07 1.52v.23.23.23.12.24.12.24.25l.08 2.09.08 1.13.25 2.56v.11.11.05.05.06.05.05.05.11.11.11l-.08.88-.08.64-.14.84-.16.8-.4 1.5-.24.67-.24.62-.2.56-.36.85-.5 1.03-.32.56-.34.53-.37.5-.4.48-.41.45-.88.82-.46.38-.48.35-.96.63-.96.56-.96.48-.96.4-.76.28-.9.29-.82.23-.75.18-.64.14-.53.1-.99.11-1.66.1h-.18-.18-.09-.09-.09-.09-.18-.18-.18l-1.44-.08-1.37-.15-1.36-.23-.65-.13-1.27-.32-.6-.18-.6-.2-.57-.21-1.11-.48-.52-.25-.98-.56-.46-.28-.44-.3-.8-.64-.36-.33-.64-.72-.28-.36-.48-.8-.33-.68-.23-.52-.09-.11-.33-.84-.29-.84-.25-.84-.21-.84-.17-.86-.13-.88-.09-.91-.07-1.41v-.24-.25-.12-.25-.25l.06-1.57.08-1.11.18-1.78.2-1.54v-.07-.07-.07-.04-.04-.04-.04-.04-.07-.08-.08-.08l-.13-1.02-.14-.71-.18-.73-.37-1.24L83 89.94l-.32-.98-.35-.98L82 87l-.35-1.06-.24-.76-.2-.72-.16-.7-.09-.55-.16-1.39-.12-1.98v-.18-.19-.09-.09-.09-.09-.09-.19-.19-.19l.08-1.52.17-1.52.12-.73.31-1.44.2-.72.22-.72.24-.72.28-.7.3-.68.33-.68.36-.68.4-.64.42-.64.46-.61.48-.6.52-.58.56-.56.59-.54.62-.52.66-.48.69-.47.73-.44.91-.48.87-.44.88-.42.88-.4.91-.37.86-.31.96-.31 1.46-.36.62-.11.64-.08 1.44-.1h.16.16.08.08.08zm-.15 1.35h-.07-.07-.15-.15l-1.16.08-1.12.17-.47.09-1.32.36-1.21.43-.84.34-.84.38-.84.4-.84.43-.89.48-.68.4-.64.42-.6.44-1.12.96-.51.52-.48.52-.45.56-.42.56-.4.58-.36.6-.33.6-.31.63-.28.64-.26.64-.24.67-.2.68-.18.68-.16.68-.14.68-.12.68-.17 1.43-.08 1.44v.18.18.18.09.09.09.09.09.18.18.18l.08 1.41.06.68.14 1.16.12.61.16.66.2.69.69 2.06.65 1.89.26.8.24.8.21.8.17.79.09.58.1.94v.09.09.09.05.05.05.04.09.09.09l-.17 1.39-.06.6L85 97.1l-.06.57-.08 1.1-.08 1.78v.24.24.12.23.23l.04.9.07.86.1.84.14.8.17.8.21.8.25.79.29.8.33.8.51 1.06.2.32.23.31.25.29.59.56.69.56.79.56.89.49.97.48 1.05.4.56.2 1.74.48 1.23.24.64.11 1.31.15 1.53.09h.17.17.17.09.09.09.17.17.17l1.42-.08.94-.11.48-.08.59-.12.68-.16.76-.22.83-.26.77-.27.44-.17.89-.4.89-.48.88-.55.44-.29.44-.32.4-.33.8-.73.72-.81.32-.44.3-.46.28-.48.23-.44.23-.49.35-.8.2-.52.2-.58.2-.63.2-.68.19-.72.16-.75.13-.76.09-.63.07-.7v-.1-.1-.1-.1-.05-.05-.05-.05-.05-.05-.1-.1-.1l-.23-2.3-.08-1.15-.06-.66-.07-1.84v-.25-.12-.12-.12-.12-.24-.24-.24l.08-1.79.06-.84.16-1.56.1-.82.1-.7.24-1.34.34-1.85.2-1.17.21-1.5.12-1.76v-.15-.08-.08-.08-.08-.08-.15-.15-.16l-.09-1.3-.08-.68-.11-.71-.16-.88-.25-1.08-.36-1.31-.16-.55-.18-.53-.4-1.04-.22-.52-.48-.98-.27-.48-.56-.9-.32-.44-.73-.88-.8-.82-.43-.4-.44-.37-.46-.36-.48-.35-.96-.64-1.56-.85-1.11-.48-1.12-.41-1.12-.33-.57-.14-1.19-.23-.6-.08-.6-.06-.9-.06h-.15-.15-.07-.07-.07-.07-.07z"/><path d="M96.05 112.53c13.32 3.1 15.65-4.67 16.11-6.36.86-3.18 1.28-9.35.51-12.63q-.38-1.84-1.64-3.38c-1.9-2.07-10.42-2.25-13.6-1.77q-1.89.35-3.56 1.12c-3.96 1.68-5.36 21.26 2.19 23.02z" fill="#b7f8ff"/><circle cx="115.6" cy="79.6" r="0.6" fill="#b7f8ff"/><circle cx="87.8" cy="81.8" r="0.6" fill="#b7f8ff"/><path d="M78.5 90.66c0 0 2.72 4.21 5.74 4.2s3.62-2.56 1.47-3.42Q82.22 90.31 81 87.84c-.63-1.74-4.25.18-2.51 2.82z" fill="#d6c295" stroke="#000" stroke-width="1.01px"/><g><g><path d="M105.27 81.47q-.04 1.62-.52 3.05-.43.44-1.04.42c-1.9.18-1.62-.7-2.02-2.37" fill="#ededed"/><path d="M105.3 80.96l.2.06.17.14.12.29v.05l-.09.73-.12 1.29-.08.44-.25.71-.14.22-.18.18-.4.22-.48.11-.52.06h-.09-.09-.04-.04-.04-.08-.08l-.57-.11-.26-.11-.23-.15-.32-.39-.18-.48-.18-.93-.15-.71v-.05-.05l.07-.2.15-.15.25-.09h.03.03l.2.05.17.14.1.18.24 1.2.1.43.16.28.37.12h.05.06.03.03.03.03.03.03.07.07l.53-.08.28-.16v-.01-.01l0 0 .08-.2.12-.45.09-.84.11-1.27.05-.26.12-.17.28-.12h.03.03.03z"/><path d="M103.22 75.83q-2.54.32-2.68 1.95.34 1.61 2.9 1.6 2.54-.31 2.68-1.95-.34-1.61-2.9-1.6z"/><path d="M103.51 78.34h.04l.16.05.14.11.13.28v.04.07l.04.6.07.68.11.87.02.26v.04l-.15.31-.31.15h-.04-.02-.04l-.16-.05-.15-.11-.14-.27v-.02l-.03-.35-.12-.92-.06-.64-.03-.5v-.08-.02-.04l.05-.16.11-.15.27-.13h.04.04z"/><path d="M106.17 80.76h.05.1.1l.76.1.35.1.32.14.29.18.28.26.22.29.15.32.04.16v.2l-.07.18-.13.15-.27.1h-.1l-.18-.06-.15-.12-.23-.47-.22-.21-.38-.16-.77-.13h-.08-.08-.04-.04-.04-.04-.09-.09l-.78.08-.86.17-.89.25-.95.32-.96.39-.47.22-1.32.73-.81.56-.74.56-.62.63-.53.63-.17.1-.19.04-.19-.04-.15-.11-.11-.15-.04-.19.04-.19.24-.35.31-.36.34-.36.36-.33.8-.64.43-.3.9-.56.48-.27.96-.48.96-.42.96-.34.48-.15.96-.23.91-.14.55-.05h.1.1.05.1z"/><path d="M106.35 63.92q-.71.73-.42 1.18.43.32 1.21-.34.71-.73.42-1.18-.44-.32-1.2.34z" fill="#b7f8ff"/><path d="M97.37 64.16q-.79-.64-1.21-.31-.28.46.44 1.17.79.64 1.21.31.28-.46-.45-1.17z" fill="#b7f8ff"/><path d="M112.98 64.82c-3.12-.45-6.02 1.73-6.47 4.85s1.73 6.02 4.86 6.47 6.02-1.73 6.47-4.86-1.73-6.02-4.86-6.47z" fill="#fff"/><g fill="#61e0ee"><path d="M106.98 72.8c0 0 1.92-5.04 7.92-6.85-1.54-1.23-4.74-1.96-7.23.53s-1.49 5.84-.69 6.32z"/><path d="M118.08 71.04c0 0-3.43 4.16-9.7 3.95 1.07 1.66 3.86 3.38 7.02 1.82s3.28-5.06 2.68-5.77z"/></g><path d="M112.98 64.82c-3.12-.45-6.02 1.73-6.47 4.85s1.73 6.02 4.86 6.47 6.02-1.73 6.47-4.86-1.73-6.02-4.86-6.47z" fill="none" stroke="#000" stroke-width="1.01px"/><path d="M110.26 71.13q-.95-.05-1.18.88-.04.95.88 1.18.95.05 1.18-.88.04-.95-.88-1.18z"/><path d="M110.01 72.16l-.33.25.25.33.33-.25-.25-.33z" fill="#fff"/><path d="M97.42 70.27c-1.04-2.98-4.31-4.55-7.29-3.51s-4.55 4.31-3.51 7.29 4.31 4.55 7.29 3.51 4.55-4.31 3.51-7.29z" fill="#fff"/><g fill="#61e0ee"><path d="M87.97 68.97c0 0 5.36-.62 9.73 3.88.38-1.93-.44-5.11-3.79-6.17s-5.87 1.37-5.93 2.3z"/><path d="M94.64 78.01c0 0-5.27-1.13-7.97-6.79-.98 1.71-1.22 4.98 1.62 7.07s6 .59 6.35-.28z"/></g><path d="M97.42 70.27c-1.04-2.98-4.31-4.55-7.29-3.51s-4.55 4.31-3.51 7.29 4.31 4.55 7.29 3.51 4.55-4.31 3.51-7.29z" fill="none" stroke="#000" stroke-width="1.01px"/><path d="M94.31 72.28q-1.08-.06-1.33 1-.06 1.08 1 1.33 1.08.06 1.33-1 .06-1.08-1-1.33z"/><path d="M94.56 73.41l-.37.28.28.37.37-.28-.28-.37z" fill="#fff"/></g><path d="M88.3 79.02c0 0 1.6 1.53 3.8 1.1" fill="none" stroke="#000" stroke-width="1.01px"/><path d="M116.67 76.8c0 0 2.04-.86 2.52-3.05" fill="none" stroke="#000" stroke-width="1.01px"/><path d="M72.26 68.03l3.57 1.83" fill="none" stroke="#000" stroke-width="1.01px"/><path d="M126.32 71.78l-3.83-1.17" fill="none" stroke="#000" stroke-width="1.01px"/><path d="M71.06 73.9l3.99-.43" fill="none" stroke="#000" stroke-width="1.01px"/><path d="M126.46 65.79l-3.85 1.13" fill="none" stroke="#000" stroke-width="1.01px"/><path d="M72.29 79.18l3.39-2.13" fill="none" stroke="#000" stroke-width="1.01px"/><path d="M124.31 60.81l-2.96 2.7" fill="none" stroke="#000" stroke-width="1.01px"/></g></g><g><path d="M17.1 78.02c0 0 .01 5.01 2.57 6.63s4.43-.2 3.09-2.08Q20.44 79.73 20.74 77c.41-1.81-3.68-2.14-3.64 1.02z" fill="#d6c295" stroke="#000" stroke-width="1.01px"/><path d="M34.2 57.08c0 0 2.35-2.44 3.23 3.52" fill="none" stroke="#61e0ee" stroke-width="1.01px"/><path d="M34.2 57.08c0 0 2.35-2.44 3.23 3.52" fill="none" stroke="#61e0ee" stroke-width="1.01px"/><path d="M42.31 56.49c0 0-2.25-2.35-3.03 3.81" fill="none" stroke="#61e0ee" stroke-width="1.01px"/><path d="M42.31 56.49c0 0-2.25-2.35-3.03 3.81" fill="none" stroke="#61e0ee" stroke-width="1.01px"/><path d="M36.18 54.51c0 0 2.64-1.68 2.15 5.12" fill="none" stroke="#61e0ee" stroke-width="1.01px"/><path d="M36.18 54.51c0 0 2.64-1.68 2.15 5.12" fill="none" stroke="#61e0ee" stroke-width="1.01px"/><path d="M25.74 114.42c0 0 .27-5 2.9-6.49s4.41.43 2.98 2.24q-2.46 2.71-2.3 5.46c.32 1.82-3.78 1.95-3.58-1.21z" fill="#d6c295" stroke="#000" stroke-width="1.01px"/><path d="M25.74 114.42c0 0 .27-5 2.9-6.49s4.41.43 2.98 2.24q-2.46 2.71-2.3 5.46c.32 1.82-3.78 1.95-3.58-1.21z" fill="#d6c295" stroke="#000" stroke-width="1.01px"/><path d="M50.72 116.46c0 0 2.65-4.25 1.35-6.98s-3.86-2.18-3.72.12q.46 3.64-1.25 5.79c-1.31 1.31 1.98 3.77 3.62 1.07z" fill="#d6c295" stroke="#000" stroke-width="1.01px"/><path d="M50.72 116.46c0 0 2.65-4.25 1.35-6.98s-3.86-2.18-3.72.12q.46 3.64-1.25 5.79c-1.31 1.31 1.98 3.77 3.62 1.07z" fill="#d6c295" stroke="#000" stroke-width="1.01px"/><path d="M54.72 72.14q.56-1.06 1.69-1.59c5.72-2.33 3.72 4.23.39 3.97" fill="#61e0ee"/><path d="M58.57 69.38h.1l.39.05.36.1.32.15.28.19.25.25.18.28.14.3.08.32.04.32v.04.04.08.08l-.1.64-.09.32-.12.31-.32.57-.42.56-.51.48-.59.39-.32.16-.36.12-.36.09-.39.04h-.1-.1-.1l-.3-.07-.24-.17-.14-.27-.03-.14v-.08l.09-.28.2-.22.35-.12h.04.07.06.03.03.03.03.06.06l.41-.09.4-.19.39-.28.32-.33.28-.4.2-.37.14-.4.06-.28v-.04-.04-.02-.02-.04-.02-.04-.04-.04l-.16-.38-.18-.08-.32-.08h-.05-.06-.03-.03-.03-.07-.07l-.68.11-.41.12-.69.26-.42.27-.46.39-.32.39v.01.01l0 0-.12.27-.23.2-.28.09h-.08l-.28-.09-.22-.2-.13-.35v-.08l.13-.44.26-.37.55-.57.61-.45.28-.18.28-.14.55-.21.51-.15.48-.11.65-.08h.1.05.05z"/><path d="M23.72 67.83q-.84.17-1.49-.45c-4.88-3.79 1.79-5.31 3.23-2.29" fill="#61e0ee"/><path d="M22.62 62.82h.04.04.08l.64.09.32.08.64.26.32.16.29.2.28.24.26.27.24.3.2.33.09.28v.04.04l-.07.28-.19.22-.26.13-.14.02h-.04l-.28-.07-.12-.08.04-.02-.28-.43-.29-.33-.35-.27-.41-.21-.48-.13-.42-.07h-.06-.06-.03-.03-.03-.03-.06-.06-.06l-.42.08-.35.12-.26.16-.22.32v.02.02.01.01.01.01.01.01.03.03l.11.33.28.45.22.28.64.6.5.38.39.18h.02.02.02.01.01.01.01.01.01.01.01.01.02l0 0h.01.01l.21-.04h.04l.28.07.22.18.13.26.02.14v.04l-.07.28-.19.22-.23.12-.41.08h-.08-.04-.08l-.31-.05-.28-.08-.49-.24-.62-.45-.42-.36-.37-.36-.3-.36-.25-.36-.11-.28L20 65.84l-.13-.36-.07-.45v-.09-.04-.04l.05-.35.1-.32.16-.29.2-.26.24-.22.55-.33.28-.12.64-.14.32-.04h.08.08.04.04.04z"/><path d="M23.72 67.83q-.84.17-1.49-.45c-4.88-3.79 1.79-5.31 3.23-2.29" fill="#61e0ee"/><path d="M22.62 62.82h.04.04.08l.64.09.32.08.64.26.32.16.29.2.28.24.26.27.24.3.2.33.09.28v.04.04l-.07.28-.19.22-.26.13-.14.02h-.04l-.28-.07-.12-.08.04-.02-.28-.43-.29-.33-.35-.27-.41-.21-.48-.13-.42-.07h-.06-.06-.03-.03-.03-.03-.06-.06-.06l-.42.08-.35.12-.26.16-.22.32v.02.02.01.01.01.01.01.01.03.03l.11.33.28.45.22.28.64.6.5.38.39.18h.02.02.02.01.01.01.01.01.01.01.01.01.02l0 0h.01.01l.21-.04h.04l.28.07.22.18.13.26.02.14v.04l-.07.28-.19.22-.23.12-.41.08h-.08-.04-.08l-.31-.05-.28-.08-.49-.24-.62-.45-.42-.36-.37-.36-.3-.36-.25-.36-.11-.28L20 65.84l-.13-.36-.07-.45v-.09-.04-.04l.05-.35.1-.32.16-.29.2-.26.24-.22.55-.33.28-.12.64-.14.32-.04h.08.08.04.04.04z"/><path d="M24.03 107.71c0 0-2.54-4.99-2.06-9.26 1.5-13.39-2.44-16.02-.9-24.18q.75-4.58 3.27-8.41C28.13 60.7 35.4 58.02 41.73 59.23q3.74.85 7.09 2.79c7.88 4.18 9.52 13.02 8.49 20.46-.45 3.29-3.29 8.43-2.87 11.74.86 6.89.62 10.62-1.53 15.06-1.83 3.79-8.97 6.64-16.77 5.83-1.33-.14-9.28-1.53-12.11-7.39z" fill="#61e0ee"/><g fill="#4fcbe0"><path d="M52.19 65.25c0 0 2.68 3.45 1.96 8.81-1.09 8.05-4.47 6.32-4.24 20.81.12 7.22.55 11.58-2.63 15.92s-11.92 4.22-14.15 3.58 8.8 2.3 15.12-.26 7.21-13.27 6.38-19.97 4.53-8.61 2.74-20.16C54.5 67.22 54.43 67.6 52.2 65.24z"/><path d="M41.66 75.16c0 0 .78 3.92 5.46 3.69s5-5 5-5l-10.45 1.31z"/><path d="M21.68 73.16c0 0 .78 3.92 5.46 3.69s5-5 5-5l-10.45 1.31z"/></g><path d="M38.72 58.27h.16.16.16l1.28.09.64.08.63.11.99.23.96.26 1.29.45.92.37.88.4.88.42.88.44.92.49 1.09.65.68.48.65.5.61.52.57.55.54.56.51.6.48.6.44.63.61.96.36.68.33.68.3.68.28.69.25.72.22.72.2.72.31 1.44.12.73.1.76.08.76.09 1.71v.19.19.09.09.09.09.09.19.18l-.08 1.45-.05.72-.15 1.34-.11.6-.17.71-.2.72-.24.76-.38 1.15-.68 1.95-.29.87-.24.76-.21.76-.17.72-.11.61-.1.8v.08.08.08.08.04.04.04.04.04.04.07.07.07l.2 1.54.18 1.77.08 1.11.06 1.58v.25.25.12.25.24l-.04.95-.07.92-.11.89-.15.88-.19.85-.23.84-.27.84-.31.84-.35.84-.38.79-.46.8-.58.72-.33.36-.36.33-.79.64-.44.31-.94.56-.49.28-.52.25-1.1.48-.56.21-1.2.39-1.26.32-.64.15-1.36.24-1.36.16-1.62.09h-.18-.18-.09-.09-.09-.09-.09-.09-.18-.18l-1.47-.08-1.07-.1-.5-.08-.61-.13-.72-.17-.8-.22-.87-.27-.87-.31-.96-.4-.96-.47-.96-.55-.96-.62-.96-.71-.88-.81-.42-.44-.4-.47-.37-.49-.36-.52-.32-.55-.5-1-.36-.83-.46-1.2-.24-.67-.22-.71-.2-.76-.17-.8-.15-.83-.1-.74-.09-.99v-.11-.11-.11-.06-.05-.05-.05-.11-.11-.11l.1-1.08.12-1.19.09-1.14.1-2.35v-.24-.24-.12-.12-.12-.12-.23-.23-.23l-.08-1.72-.06-.8-.16-1.51-.11-.89-.2-1.34-.46-2.49-.2-1.2-.21-1.5-.07-.91L20.15 79l-.03-.48v-.16-.16-.08-.08-.08-.08-.17-.17-.17l.09-1.39.09-.72.12-.76.18-.93.12-.56.26-1.05.32-1.12.18-.56.4-1.12.48-1.12.26-.53.56-1.04.64-.96.78-.96.41-.48.89-.89.96-.81.5-.39 1.04-.72 1.11-.64 1.12-.56.6-.26 1.2-.47.6-.2 1.21-.33.63-.14.64-.12.64-.1.64-.08 1.44-.1h.16.16.08.08.08zm-.15 1.35h-.07-.15-.15l-1.2.08-1.2.15-1.18.23-1.12.31-.56.18-.56.2-.56.22-1.1.48-1.04.56-.51.3-.96.65-.48.36-.45.36-.44.39-.82.8-.4.42-.72.88-.57.87-.28.46-.5.96-.24.51-.61 1.56-.33 1.08-.16.56-.23.88-.23 1.07-.25 1.5-.08.68-.07 1.13v.16.15.15.08.08.08.07.15.15l.08 1.19.05.57.23 1.57.2 1.18.46 2.53.21 1.4.09.74.16 1.57.05.84.07 1.58v.23.24.24.12.24.12.25.25l-.09 2.15-.08 1.15-.12 1.21-.13 1.17v.1.1.1.05.05.05.05.05.05.1.1.1.1l.08.8.09.67.14.76.16.74.19.71.2.68.2.63.2.58.22.57.54 1.22.24.46.28.48.31.46.32.44.72.81.8.72.85.64.88.57.44.27.89.48.88.4.44.17.82.29.82.26.76.21 1.25.28.77.12.66.06 1.41.08h.17.09.09.09.09.09.09.09.17.17.17l1.36-.08.67-.06.64-.08.64-.1 1.24-.24 1.19-.32.56-.16.56-.19 1.05-.4.97-.48.9-.49.79-.56.69-.56.59-.56.26-.28.43-.64.48-1 .34-.8.29-.8.26-.79.22-.8.18-.8.14-.8.11-.84.07-.86.04-.9v-.23-.23-.12-.12-.24-.24l-.06-1.51-.09-1.22.14-.12L54 96.43l-.12-1.19-.17-1.39v-.09-.09-.09-.05-.05-.04-.09-.09-.09l.12-1.13.14-.72.18-.8.22-.8.24-.8.7-1.99.79-2.35.2-.7.16-.66.13-.61.07-.47.08-.68.06-.68.09-1.59v-.18-.18-.09-.09-.09-.09-.09-.18-.18-.18l-.08-1.44-.07-.72-.09-.71-.25-1.36-.16-.68-.18-.68-.2-.68-.24-.67-.25-.64-.28-.64-.3-.63-.33-.6-.36-.6-.39-.59-.41-.56-.45-.56-.48-.53-.51-.52-.54-.48-.57-.48-.6-.44-.64-.43-.68-.4-.88-.48-.84-.44-1.68-.79-.85-.35-.81-.3-.44-.15-1.32-.36-1.02-.18-.56-.08-1.31-.09h-.15-.15-.07-.15z"/><path d="M42.88 111.93c-13.32 3.1-15.65-4.67-16.11-6.36-.86-3.18-1.28-9.35-.51-12.63q.38-1.84 1.64-3.38c1.9-2.07 10.42-2.25 13.6-1.76q1.88.34 3.56 1.12c3.96 1.68 5.36 21.26-2.19 23.02z" fill="#b7f8ff"/><circle cx="23.3" cy="77.9" r="0.6" fill="#b7f8ff"/><circle cx="23.3" cy="77.9" r="0.6" fill="#b7f8ff"/><circle cx="50.9" cy="78.9" r="0.6" fill="#b7f8ff"/><circle cx="50.9" cy="78.9" r="0.6" fill="#b7f8ff"/><path d="M60.97 94.54c0 0-4.79 1.49-7.1-.46s-1.13-4.28 1.06-3.57q3.4 1.37 5.92.26c1.6-.94 3.15 2.87.12 3.77z" fill="#d6c295" stroke="#000" stroke-width="1.01px"/><g><path d="M37.01 80.93c-2.6-3.75-7.17 1.48-5.93 5.54 1.6 5.26 5.15 3.09 5.15 3.09 1.96-.79 2.85-5.64.78-8.63z"/><path d="M32.89 81.18q.02 1.65.52 2.65.43.44 1.04.42c1.9.18 2-1.88 2.25-2.94q-1.61-2.19-3.8-.13z" fill="#ededed"/><path d="M34.75 79.67h.08l.64.11.3.12.56.32.25.2.24.24.2.25.14.24.04.15v.05l-.2.93-.19.76-.24.56-.16.28-.2.24-.24.23-.41.24-.32.11-.29.06h-.05-.05-.05-.02-.03-.05-.03-.03-.03-.03-.05-.05-.05l-.59-.09-.4-.13-.2-.13-.19-.18-.17-.26-.15-.32-.11-.32-.08-.34-.1-.94-.07-.79v-.05-.05l.07-.2.23-.28.28-.29.3-.23.32-.18.32-.14.32-.09.32-.04h.08.04.04zm-.06 1.01h-.03-.05-.05l-.4.1-.4.22-.35.33 0 0v.01l.12 1.29.04.28.16.47.11.18 0 0 0 0 .25.16.4.07h.04.04.02.02.03.02.02.01.02.01.02.01.03.03.03.03.03.03.03l.33-.17.24-.22.22-.34.16-.42.19-.75.06-.35-.01-.15-.32-.31-.35-.23-.4-.13-.2-.04h-.05-.05-.03-.03-.03z"/><path d="M35.36 75.27q2.54.32 2.68 1.95-.34 1.61-2.9 1.6-2.54-.31-2.68-1.95.34-1.61 2.9-1.6z"/><path d="M35.11 77.77h.04l.28.12.08.09v.02l.08.22v.04.02.02.08.08.08.07l-.04.33-.17.89-.04.32v.04l-.14.27-.31.16h-.04-.04-.02-.04l-.28-.13-.16-.31v-.04-.04-.04l.23-1.49v-.06-.06-.06-.07-.07-.02-.04l.12-.28.31-.16h.04.02.02.02z"/><path d="M30.91 62.68q.85-.56 1.24-.18.23.49-.56 1.12-.85.56-1.24.18-.22-.49.57-1.11z" fill="#b7f8ff"/><path d="M48.05 63.32q.78.64.55 1.12-.39.37-1.24-.2-.78-.64-.55-1.12.39-.37 1.24.2z" fill="#b7f8ff"/><path d="M25.6 64.26c3.12-.44 6.02 1.73 6.47 4.86s-1.73 6.02-4.86 6.47-6.02-1.73-6.47-4.85 1.73-6.02 4.86-6.47z" fill="#fff" stroke="#000" stroke-width="1.01px"/><path d="M27.87 69.84q1.85-.09 2.27 1.71.09 1.85-1.71 2.27-1.85.09-2.27-1.71-.09-1.85 1.71-2.27z"/><path d="M28.53 72.17q.52-.02.64.48.02.52-.48.64-.52.02-.64-.48-.02-.52.48-.64z" fill="#fff"/><path d="M45.75 65.94c3.12-.45 6.02 1.73 6.47 4.86s-1.73 6.02-4.85 6.47S41.35 75.54 40.9 72.41s1.73-6.02 4.86-6.47z" fill="#fff" stroke="#000" stroke-width="1.01px"/><path d="M44.92 71.02q-1.85-.09-2.27 1.71-.09 1.85 1.71 2.27 1.85.09 2.27-1.71.09-1.85-1.71-2.27z"/><path d="M44.26 73.34q-.52-.02-.64.48-.02.52.48.64.52.02.64-.48.02-.52-.48-.64z" fill="#fff"/></g><g><rect x="6.8" y="87.8" width="2" height="30.7" fill="#5c5c5c"/><path d="M8.92 86.78l.21.04.36.21.25.34.07.2.02.21v30.66l-.02.21-.18.38-.14.16-.36.21-.31.05h-2.01l-.21-.02-.38-.18-.16-.14-.21-.36-.05-.31v-30.66l.02-.21L6 87.19l.14-.16.36-.21.32-.05h2.01l.1.01zM6.8 87.79v30.66h2.01v-30.66h-2.01z"/><circle cx="7.9" cy="85.6" r="2.2" fill="#5c5c5c"/><path d="M7.93 82.34h.08.08l.64.11.59.22.53.33.24.2.41.47.33.54.12.28.09.31.09.56v.08.08.08.08.08l-.11.64-.1.31-.29.56-.38.49-.46.41-.54.31-.29.12-.31.09-.56.09h-.08-.08-.04-.04-.08-.08l-.64-.11-.58-.22-.53-.33-.34-.26-.38-.49-.42-.83-.15-.8v-.08-.04-.04-.04-.08-.08l.11-.64.22-.58.33-.53.2-.24.47-.42.54-.31.28-.12.31-.09.56-.09h.08.08.04.04zm-.07 1.01h-.06-.06-.06l-.44.08-.4.17-.35.24-.32.31-.24.34-.18.4-.1.49v.06.06.03.03.03.03.03.06.06l.08.45.16.4.24.36.3.32.33.24.4.18.55.12h.06.06.03.03.03.03.06.06l.44-.08.4-.16.36-.24.32-.3.25-.34.18-.4.11-.55v-.06-.06-.03-.03-.03-.06-.06-.06l-.09-.36-.14-.4-.23-.37-.3-.32-.45-.33h-.02l-.3-.13-.52-.11h-.06-.06-.06-.03-.03z"/><path d="M13.72 117.42q-.07-.67-.73-.73h-10.2q-.67.07-.73.73v1.47q.07.67.73.73h10.2q.67-.07.73-.73v-1.47z" fill="#5c5c5c"/><path d="M13.03 115.67l.36.05.47.19L14 116l.26.22.21.27.15.3.1.33.03.27v.04 1.48.04l-.05.35-.11.32-.17.29-.22.26-.27.21-.3.15-.32.1-.27.03h-.04-10.21-.04l-.36-.05-.32-.11-.29-.17-.25-.22-.21-.27-.15-.3-.1-.32-.02-.18v-.09-.04-1.48-.08l.06-.35.12-.32.17-.28.23-.25.27-.2.3-.15.51-.1h.04.04 10.21.04zM2.79 116.68h-.02-.02-.04l-.28.09-.22.19-.17.4v.04.02.02 1.47.02.04.04l.09.28.19.22.36.16h.04.02.02.02 10.2.02.02.04l.28-.09.22-.19.17-.4v-.04-.02-.02-1.47-.02-.04-.04l-.1-.28-.19-.22-.37-.16h-.04-.02-.02-.02-10.2z"/></g><g><rect x="69.5" y="87.9" width="2" height="30.7" fill="#5c5c5c"/><path d="M71.62 86.94l.21.04.36.21.25.34.07.2.02.21v30.66l-.02.21-.18.38-.14.16-.36.21-.32.05h-2.01l-.21-.02-.38-.18-.16-.14-.21-.36-.04-.21v-.1-30.66l.02-.21.18-.38.14-.16.36-.21.32-.05h2.01l.11.01zm-2.11 1v30.66h2.01v-30.66h-2.01z"/><circle cx="70.5" cy="86.2" r="2.2" fill="#5c5c5c"/><path d="M70.56 82.93h.08.08l.64.11.59.22.28.16.49.38.42.46.31.55.12.28.09.31.09.56v.08.08.04.04.08.08l-.11.64-.22.58-.33.53-.2.24-.47.42-.54.31-.29.12-.31.09-.56.09h-.08-.04-.04-.08-.04-.08l-.64-.1-.59-.22-.54-.33-.46-.42-.2-.24h-.03l-.31-.54-.12-.28-.09-.31-.09-.56v-.08-.08-.04-.04-.08L67.28 86l.11-.64.22-.59.31-.54.42-.46.24-.2.54-.33.59-.22.64-.1h.08.04.04.04zm-.07 1.01h-.03-.06-.06l-.45.08-.4.16-.36.24-.32.31-.24.33-.18.4-.12.55v.06.06.03.06.03.06.06l.08.45.16.4.24.35.3.32.34.25.4.18.55.12h.06.06.03.03.03.06.06l.45-.08.4-.15.36-.24.32-.3.25-.33.18-.4.12-.54v-.06-.06-.06-.03-.03-.06-.06-.06l-.08-.44-.16-.4-.24-.35-.31-.32-.34-.24-.4-.18-.55-.11h-.06-.03-.03-.03-.03z"/><path d="M76.52 117.42q-.07-.67-.73-.73h-10.2q-.67.07-.73.73v1.47q.07.67.73.73h10.2q.67-.07.73-.73v-1.47z" fill="#5c5c5c"/><path d="M75.83 115.67l.36.05.32.11.29.17.26.22.21.27.15.3.1.32.03.27v.04 1.48.04l-.05.35-.11.32-.17.29-.22.26-.27.21-.3.15-.33.1-.27.03h-.04-10.21-.04l-.36-.05-.32-.11-.3-.17-.25-.22-.21-.27-.15-.3-.1-.33-.03-.27v-.04-1.48-.04l.05-.36.11-.32.17-.29.22-.26.26-.21.29-.15.33-.1.27-.03h.04 10.21.04zm-10.24 1.01h-.02-.02-.04l-.28.09-.23.19-.17.4v.04.02.02 1.47.02.02.04l.09.28.19.23.24.13.16.04h.04.02.02 10.2.02.02.04l.28-.09.23-.19.17-.4v-.04-.02-.02-1.47-.02-.02-.04l-.09-.28-.19-.23-.23-.13-.2-.05h-.04-.02-.02-10.2z"/></g><g><rect x="132.3" y="87.2" width="2" height="30.7" fill="#5c5c5c"/><path d="M134.37 86.21l.21.04.36.21.25.34.07.2.02.21v30.66l-.02.21-.18.38-.14.16-.36.21-.32.05h-2.01l-.21-.02-.38-.18-.16-.14-.21-.36-.05-.32v-30.66l.02-.21.18-.38.14-.16.36-.21.31-.05h2.01l.11.01zm-2.11 1v30.66h2.01v-30.66h-2.01z"/><circle cx="133.3" cy="85.4" r="2.2" fill="#5c5c5c"/><path d="M133.3 82.2h.04.08l.64.1.32.1.28.12.54.33.46.42.2.24.33.54.22.59.1.64v.08.04.04.04.08.08l-.11.64-.1.3-.29.56-.37.49-.47.42-.54.31-.28.12-.64.15-.24.03h-.08-.08-.04-.04-.08-.08l-.64-.11-.58-.22-.54-.33-.24-.2-.42-.47-.31-.55-.12-.28-.09-.31-.09-.56v-.08-.08-.04-.04-.08-.08l.11-.64.22-.58.33-.54.2-.24.47-.42.55-.31.28-.12.64-.15.24-.03h.08.04.04.08zm-.07 1.01h-.03-.03-.06l-.45.08-.4.15-.36.24-.32.3-.25.33-.18.4-.12.54v.06.06.03.03.03.03.03.06.06l.08.45.16.4.24.35.3.32.34.25.4.18.55.12h.06.03.03.03.03.03.03.03.06l.45-.08.4-.15.36-.24.32-.3.24-.33.19-.4.12-.54v-.06-.06-.06-.03-.03-.06-.06-.06l-.08-.44-.17-.4-.24-.35-.3-.32-.34-.24-.4-.18-.55-.11h-.06-.03-.03-.03-.03z"/><path d="M139.26 116.69q-.07-.67-.73-.73h-10.2q-.67.07-.73.73v1.47q.07.67.73.73h10.2q.67-.07.73-.73v-1.47z" fill="#5c5c5c"/><path d="M138.57 114.94l.35.05.32.11.29.17.25.22.21.27.15.3.1.33.03.27v.04 1.48.04l-.05.35-.11.32-.17.29-.22.26-.26.21-.3.15-.33.1-.26.03h-.04-10.21-.04l-.35-.05-.32-.11-.29-.17-.25-.22-.21-.26-.15-.3-.1-.32-.03-.27v-.04-1.48-.04l.05-.35.11-.32.17-.29.22-.25.26-.21.3-.15.33-.1.26-.03h.04 10.21.04zm-10.24 1.01h-.02-.02-.04l-.28.09-.23.19-.13.24-.04.16v.04.02.02 1.47.02.04.04l.1.28.19.22.36.16h.04.02.02.02 10.2.02.02.04l.28-.09.23-.19.17-.4v-.04-.02-.02-1.47-.02-.02-.04l-.09-.28-.19-.23-.4-.17h-.04-.02-.02-10.2z"/></g><path d="M6.32 95.29c0 0 1.7 1.02 2.79.18 1.34 0 14.86 3.97 27.2 3.61 23.02-.67 32.57-4.37 32.57-4.37l3.44.03.05 1.78-3.36-.22c0 0-11.44 4.56-32.71 4.72C18.94 101.16 9.09 97.27 9.09 97.27s-2.54.49-2.9-.18q-.24-1.46.13-1.8z" fill="#be2800" stroke="#000" stroke-width="1.01px"/><path d="M69.06 94.56c0 0 1.7 1.02 2.79.18 1.34 0 14.86 3.97 27.2 3.61 23.02-.67 32.57-4.37 32.57-4.37l3.44.03.05 1.78-3.36-.22c0 0-11.44 4.56-32.71 4.72-17.36.13-27.22-3.76-27.22-3.76s-2.54.49-2.9-.18q-.24-1.46.13-1.8z" fill="#be2800" stroke="#000" stroke-width="1.01px"/></g></g><g fill="#a52828"><path d="M60.86 23.1q.84-.19.83-1.03v-1.96h-2.5-4.53-2.5v1.96q0 .84.83 1.03l1.67.3v7.06h-11.29v-7.06l1-.17.7-.13q.84-.19.83-1.03v-1.96h-2.53-4.49-2.53v1.96q0 .84.83 1.03l.7.13 1 .17v17.49l-1 .17-.7.13q-.84.19-.83 1.03v1.96h9.55v-1.96q0-.84-.83-1.03l-.7-.13-1-.17v-7.23h11.29v7.23l-1.67.3q-.84.19-.83 1.03v1.96h9.52v-1.96q0-.84-.83-1.03l-1.67-.3v-17.49l1.67-.3z"/><path d="M65.56 20.11h-2.53v1.96q0 .84.83 1.03l.7.13 1 .17v17.49l-1 .17-.7.13q-.84.19-.83 1.03v1.96h17.71v-2.33-1.26-2.77h-.17-.4-1.36q-.63.02-.77.63-.06.4-.23 2.13h-7.76v-6.8h8.16v-3.46h-8.16v-6.67h7.76q.17 1.75.23 2.13.13.62.77.63h1.93v-2.77-1.23-2.33h-15.18z"/><path d="M104.59 20.11h-.6-1.4-1.97-4.5v1.96q0 .84.83 1.03l.47.13.5.1-3.16 5.83-.67 1.33-.5 1.27-.5-1.27-.67-1.33-3.2-5.83.47-.1.46-.13q.84-.19.83-1.03v-1.96h-4.5-1.97-1.37-.6-.57v1.96q0 .84.83 1.03l.7.13 1 .17 6.79 11.43v6.06l-1.7.3q-.84.19-.83 1.03v1.96h9.52v-1.96q0-.84-.83-1.03l-1.67-.3v-6.06l6.79-11.43 1.67-.3q.84-.19.83-1.03v-1.96h-.53z"/><path d="M110.75 20.11h-3.89v9.53l.17 2.96.4 3.1h2.76l.4-3.1.17-2.96v-9.53zm-4.49 21.82.17 1 .53.77.83.53 1 .2.96-.2.8-.53.53-.77.2-1-.2-1-.53-.8-.8-.53-.96-.2-1 .2-.83.53-.53.8-.17 1z"/></g></svg>