<svg xmlns="http://www.w3.org/2000/svg" fill="none" viewBox="0 0 24 24" stroke-width="1.5" stroke="currentColor" aria-hidden="true" data-slot="icon"><path stroke-linecap="round" stroke-linejoin="round" d="M4.26 10.15a60.44 60.44 0 00-.49 6.35A48.62 48.62 0 01 12 20.9a48.62 48.62 0 01 8.23-4.41 60.46 60.46 0 00-.49-6.35m-15.48 0a50.64 50.64 0 00-2.66-.81A59.91 59.91 0 01 12 3.49a59.9 59.9 0 01 10.4 5.84l-2.66.81m-15.48 0A50.72 50.72 0 01 12 13.49a50.7 50.7 0 01 7.74-3.34M6.75 15a.75.75 0 10 0-1.5.75.75 0 00 0 1.5Zm0 0v-3.67A55.38 55.38 0 01 12 8.44m-7.01 11.55A5.98 5.98 0 00 6.75 15.75v-1.5"/></svg>