<svg xmlns="http://www.w3.org/2000/svg" fill="none" viewBox="0 0 24 24"><path stroke="#0f172a" stroke-linecap="round" stroke-linejoin="round" stroke-width="1.5" d="M12 12.75q1.73 0 3.38.24c1.04.14 1.87.96 1.87 2.01 0 3.73-2.35 6.75-5.25 6.75S6.75 18.73 6.75 15c0-1.05.83-1.87 1.87-2.01a24 24 0 013.38-.24m0 0c2.88 0 5.65.5 8.2 1.44q-.19 3.16-1.15 6.06M12 12.75c-2.88 0-5.65.5-8.2 1.44q.19 3.16 1.15 6.06m7.05-7.5a2.25 2.25 0 002.25-2.35M12 12.75a2.25 2.25 0 01-2.25-2.35M12 8.25q1.5 0 2.92-.24c.4-.06.74-.35.8-.76a4 4 0 00-.4-2.25M12 8.25q-1.5 0-2.92-.24a.9.9 0 01-.8-.76A4 4 0 018.68 5M12 8.25c-1.2 0-2.2.95-2.25 2.15M12 8.25c1.2 0 2.2.95 2.25 2.15M8.68 5a6 6 0 01-1.15-1q.11-.96.57-1.75M8.68 5a3.75 3.75 0 016.64 0m0 0q.63-.42 1.15-1a5 5 0 00-.57-1.75M4.92 6q-.3 1.63-.4 3.31 2.53.83 5.23 1.09M19.08 6q.3 1.63.4 3.31-2.52.83-5.23 1.09"/></svg>