<svg xmlns="http://www.w3.org/2000/svg" fill="none" viewBox="0 0 24 24"><path stroke="#0f172a" stroke-linecap="round" stroke-linejoin="round" stroke-width="1.5" d="M12 8.25v-1.5m0 1.5q-2.04 0-4.02.17A2.2 2.2 0 006 10.6v2.51m6-4.87q2.04 0 4.02.17A2.2 2.2 0 0118 10.6v2.51m-3-4.87v-1.5m-6 1.5v-1.5m12 9.75-1.5.75q-1.5.7-3 0a3.4 3.4 0 00-3 0q-1.5.7-3 0a3.4 3.4 0 00-3 0q-1.5.7-3 0L3 16.5m15-3.38a49 49 0 00-12 0m12 0 1.16.16A2.2 2.2 0 0121 15.46v5.16q-.09 1.04-1.12 1.13H4.13Q3.09 21.66 3 20.63v-5.17q.12-1.79 1.84-2.18L6 13.12m6.27-10.01a.37.37 0 11-.54 0l.27-.27zm-3 0a.37.37 0 11-.54 0L9 2.84zm6 0a.37.37 0 11-.54 0l.27-.27z"/></svg>