<svg xmlns="http://www.w3.org/2000/svg" fill="none" viewBox="0 0 24 24" stroke-width="1.5" stroke="currentColor" aria-hidden="true" data-slot="icon"><path stroke-linecap="round" stroke-linejoin="round" d="M6.83 6.17A2.31 2.31 0 01 5.19 7.23l-1.13.17C3 7.58 2.25 8.51 2.25 9.57V18a2.25 2.25 0 00 2.25 2.25h15A2.25 2.25 0 00 21.75 18V9.57q-.11-1.75-1.8-2.17a47.87 47.87 0 00-1.13-.17 2.31 2.31 0 01-1.64-1.05l-.82-1.32a2.19 2.19 0 00-1.74-1.04 48.77 48.77 0 00-5.23 0 2.19 2.19 0 00-1.74 1.04l-.82 1.32ZM16.5 12.75a4.5 4.5 0 11-9 0 4.5 4.5 0 01 9 0ZM18.75 10.5h.01v.01h-.01V10.5Z"/></svg>