<svg xmlns="http://www.w3.org/2000/svg" xmlns:xlink="http://www.w3.org/1999/xlink" viewBox="0 0 640 480"><path fill="#171796" d="M0 0h640v480h-640z"/><path fill="#fff" d="M0 0h640v320h-640z"/><path fill="red" d="M0 0h640v160h-640zM320 364c51 0 93-42 93-93v-111h-187v111c0 51 42 93 93 93z"/><path fill="#fff" d="M320 363a92 92 0 00 92-92v-109h-183v109a92 92 0 00 92 92z"/><g fill="red"><path d="M267 165h-35v39h35zm0 77h35v-39h-35zM232 271q0 5 1 10h35v-39h-35zM338 243h-35v39h35zm0 77h35v-39h-35zm35 21a89 89 0 00 20-21h-20v21zM267 320h35v-39h-35zM247 320a89 89 0 00 20 21v-21zm79 39q6 0 12-2v-37h-35v37a87 87 0 00 11 2q6 0 12 0"/><path d="M407 281q1-5 1-10v-28h-35v39zM338 243h35v-39h-35zm0-77h-35v39h35zM408 204v-39h-35v39z"/></g><path fill="#fff" d="M410 159l22-50L415 82l-28 10L368 70l-25 15L320 66l-23 19L272 70l-19 22L225 82l-17 27 22 49a218 218 0 01 90-19q48 0 90 19"/><path fill="#0093dd" d="M253 95l-27-10-15 25 6 13 15 34a220 220 0 01 35-12z"/><path fill="#fff" stroke="#000" stroke-width=".3" d="M251 119a13 13 0 01 2 6q-1.25 11.75-13 13a13 13 0 01-13-11 13 13 0 00 12 7 13 13 0 00 13-16z"/><path d="M228 114l1-5-4-3h0 0l5-2 1-5v0h0l4 3 5-2h0v0l-1 5 4 3h0 0l-5 2-1 5v0h0l-4-3-5 2h0z"/><path fill="#f7db17" d="M234 108l4 3 4-2zm0 0 8 2-3-3zm-8-2 8 2-4-3zm8 2-8-2 3 3zm0 0 5-6-4 2zm-6 6 5-6-4 2zm5-6-5 6 4-2zm6-6-5 6 4-2zm-6 6-3-8-1 4zm3 8-2-8-1 4zm-2-8 3 8 1-4zm-3-8 2 8 1-4z"/><path fill="#171796" d="M298 87 272 73 253 95l13 50a220 220 0 01 36-6z"/><path fill="red" d="M262 132a232 232 0 01 38-6l-1-13a246 246 0 00-40 7zm-6-25a258 258 0 01 42-7l-1-13a271 271 0 00-44 7z"/><g transform="translate(-160)scale(.00237)"><path fill="#0093dd" d="M212105 36890l-23 13-9517-7794-9497 7778 1788 21560q3814.75-318.5 7709-322 3912.5 3.5 7744 325l1795-21560z"/><g id=""><path d="M202545 46585q-29.25-5.25-69 45l-545 720c-195 61-242 180-167 348-261-26-291 193-302 432q-376-569-814-307c-11-230-187-338-439-392-180-10-319-65-436-145l-170-106c-126-88-226-5-172 74l802 1302c-14 80 6 151 88 204l140 397-32 113c-221-105-443-118-664-133q-252.5-9.25-361-137c-54-63-91-26-92 82-3 534 162 1014 599 1492q-346 6-694 21c-79 6-95 39-73 104 126 304 339 579 822 766q-312 168-357 520c-9 224-75 382-212 455-60 32-81 65-24 106 253 185 565 193 895 112q-237.75 404.75-198 850c208 56 412 15 614-52-29 61-44 175-52 309q-10 172-104 343c-32 33-65 84 4 102 336 91 648 52 915-47 0 243 2 487 76 727 18 58 70 102 125 26 155-214 322-396 527-517 31 90 75 168 156 215q144 83 153 343c0 30-2 60 35 90 149 7 514-380 589-597 206 121 284 246 439 461 55 76 99 29 128-25 62-243 67-481 66-724 267 99 579 138 915 47 69-19 36-70 4-102-62-114-105-250-113-365-9-133-14-226-43-287 202 68 405 108 614 52 29-297-53-579-211-850 330 80 655 73 908-112 57-41 35-74-24-106-136-73-203-231-212-455q-45-353-357-520c483-187 696-463 822-766 22-66 6-99-73-104l-711-27c437-478 606-961 604-1495-1-108-38-146-92-82-74 87-179 137-348 146-222 15-435 24-656 128l-32-113 153-393c82-53 102-123 88-204l781-1302c54-79-46-162-171-74l-170 106c-117 80-257 134-437 145-251 54-417 167-428 397q-439-263-814 307c-11-239-41-457-302-432q113.5-256.25-178-352c-186-250-458-470-644-720q-44.25-50.25-69-45z"/><g fill="#f7db17"><path d="M205075 47978c-51-26-124 17-162 95s-33 170 19 196c40 20 84-6 119-56l22-36 5-9c38-78 49-163-2-188zm-5008 0c52-26 124 17 162 95s39 165-13 191-103-24-141-102-60-158-9-184zm4539 905c-32 0-59 27-59 59s26 59 59 59 59-26 59-59c0-32-26-59-59-59m-4032 0a59 59 0 10 0 118 59 59 0 00 0-118m4294-304q-1130-134.75-2260-133s-1509 41-2269 115c-26 8-21 90 14 86q1133.25-111.25 2256-113 1114-2.25 2228 129c39 4 54-80 32-84z"/><path d="M200319 48495q1151.25-115 2289-116 1130.5-1.75 2261 133l111-184q-48 16-90-5c-76-38-92-161-36-274 56-114 164-175 240-138q58.75 32.25 68 114l446-739c-204 130-328 214-581 252q-425.5 58.25-368 307c38 156-57 133-201 54-314-171-541 71-652 353-73 186-159 181-168-13l-7-200c-21-223-89-286-216-224-161 78-175 25-137-58 28-60 86-128 66-221-9-67-66-92-151-98-182-244-467-483-649-727l-556 727c-86 5-142 30-152 98-20 93 52 157 80 217 38 82 23 135-137 57-127-61-186-3-207 220q-10 104-13 209c-9 194-95 199-168 13-111-282-352-524-667-353-145 79-203 102-182-54 23-172-107-266-388-307-253-37-377-122-581-252l419 682q18-38 53-57c76-38 184 24 240 138 56 113 40 237-36 274q-15 7-32 10l100 163zm4389 911-24 11c-46 19-80 66-134 124q-86 91.75-211 188c-12 10-25 19-44-6s-7-35 6-44q120.75-94 204-182 45-48 77-92l-284-30q-121.5 35.5-222 95-90.25 52.75-137 125c-8 14-16 27-44 11-27-16-19-30-11-44q55-87 158-147 50-30 106-54l-321-25q-33 20-61 47-30 29-56 67c-9 13-18 26-44 8s-18-31-8-44q29-43 64-77l9-9-241-14-8 7a340 340 0 00-93 126c-6 15-12 29-41 18-29-12-23-26-17-41q18-43 45-81l27-33-344-12-14 11q-38 22-66 51c-28 28-35 40-48 63-8 14-16 28-43 12-28-16-20-29-12-43q24-42 59-77l21-19-365-4q-180 0-360 3l22 20q34 35 59 77c8 14 16 27-12 43s-35 2-44-12q-20-34-48-63c-28-28-41-36-66-51q-10-4-15-12-172 3-345 11l29 35q28 38 45 81c6 15 12 29-17 41s-35-3-41-18q-14-36-38-67-23-32-55-59l-10-10-243 13 13 12q36 34 64 77c9 13 18 26-8 44s-35 5-44-8q-26-39-56-67s-41-35-64-49l-5-3-330 23q66 27 122 61 103.75 60 158 147c8 14 16 27-11 44-27 16-35 3-44-11q-46-72.25-137-125-111.75-65.25-246-102h-2l-268 24q33 49 86 106 83.25 88 204 182c13 9 25 19 6 44s-32 15-44 6q-125.75-97-211-188c-37-38-99-111-135-140-196-90-354-127-575-147-153-14-318-9-458-79q51.75 129.5 126 229 77.5 105 209 147l22 25q42 236 169 386 78 90 188 149-112-122-172-251-98.5-216-77-420c1-16 3-32 34-29 32 3 30 19 29 35q-19.5 187.5 72 387c56 118 159 237 291 346 24 19 0 63-29 55-154-44-290-123-383-231q-134-156-180-397-138.75-50.5-222-164-69.5-92-118-205 43.5 637.5 456 1137c61 75 165 182 255 216 92 35 95 100-20 101l-105 1q127.75 46.5 233 105c127 73 217 162 224 273 1 16 2 32-29 34-32 2-33-14-34-29-6-86-82-160-192-223-113-65-259-117-402-160q-234.75-1.5-459 3 56.5 42.75 131 84c82 44 188 86 343 122q133 32 233 91 106 64 177 150c10 12 20 25-5 45s-34 8-45-5q-63-79-159-135-92-54-216-84c-161-38-272-81-358-128q-108.5-60.75-184-123c180 393 450 573 835 689q34 10 61 19l9 2q129 32 266 55l261 37c16 1 32 3 29 34-3 32-19 30-34 29l-266-38q-87-15-171-33-40.75 8.25-107 12c-232 14-420 225-435 494l-1 16q132-124.75 273-212c117-68 239-103 364-69 15 4 31 8 22 39-8 31-23 27-39 22-106-28-212 3-316 63-108 63-213 158-315 253-24 147-82 285-205 377 61 34 104 65 163 45q128.25-60.75 261-108 135.75-48 282-57c16-1 32-1 33 31s-14 32-31 33q-136.5 7.75-264 53-112.5 40.25-222 91c221 47 460-1 667-79q90.5-37.75 133-41 79.25-42.5 172-79 103-45 182-57c16-2 32-4 35 28 4 32-12 33-28 35-112 13-127 21-222 79 0 21-66 57-126 96-36 24-70 52-87 67-95 86-144 181-188 287q-44 105-68 224 81.75-163.5 201-303 140.25-165.5 345-265c14-7 29-13 42 15 13 29-1 35-15 42q-192.75 92.75-324 250-133.5 157.5-219 345c-31 64-8 1-42 86q160.75-182.75 323-307c132-100 283-157 418-133 15 3 31 6 26 37s-21 28-37 26c-116-21-250 32-369 121-121 92-244 223-366 361 184 26 366-26 542-85 91-30 183-135 239-152q28-36 57-67 50-56 102-100c12-10 24-20 45 4s8 34-4 45q-50 42-96 94-48 53-92 113-8.25 14.75-24 16c-60 70-151 162-172 240-57 210-25 370-122 576q105.5-55.75 175-134 78.25-88.75 128-230 57.25-156.75 167-270 114.75-116.75 261-172c15-5 30-11 41 19s-4 35-19 41q-132.5 49.25-238 157-100.5 102.5-153 247-53.25 151.25-141 250-65.25 74-156 127l121-7c79-6 211-66 279-119q98-77 154-206c6-15 13-29 42-16s23 27 16 42q-62 145-173 231-84 65-196 93 237.25-10.25 467-100c65-24 87-168 127-208q47.25-88 105-158 70-86 164-127c15-6 29-12 41 18 12 29-3 35-17 41q-77.75 33.75-139 108-53.5 64.5-98 147c10 73-51 228-53 305-7 205-2 409 53 612q80-106 162-192l1-15q28.25-160.75 40-332 12-169-6-329c-2-16-4-32 27-35 32-4 34 12 35 28q19.25 167.75 7 340-9 135-30 269c54-51 53-51 77-103q55-120 67-237 14-120-13-230c-4-15-7-31 24-38s35 8 38 24q29.5 120.75 14 252-12 98-49 199 83-62.5 178-122-6-114.25-3-227 2.25-104 18-190c4-20 7-40 47-33s37 27 33 48q-13.25 76.5-16 177-2.5 119.25 4 243c5 82 49 185 125 230 103 62 158 163 186 274q24-218.75 3-400-26-216-114-368c-8-14-16-27 12-44 27-16 35-2 43 12q95 165 122 393 26 220-13 488c102-82 381-258 352-594q-10-40-28-75c-7-14-14-28 14-42s35 0 42 14q26 49 39 110 7 36 11 76c13-7 45-43 51-39l80 54q-32-90-42-178-15-131 14-252c4-15 7-31 38-24s27 23 24 38q-27 110-13 230 13 116 67 237 7.75 11.75 5 25l70 65q-19-127-28-255-13-173.5 7-341c2-16 4-32 35-28s29 20 27 35q-18 160-6 329 11.75 170.5 40 332l1 7c54 59 95 120 152 196q79.5-304.5 66-612c-2-76-69-227-65-302q-44.75-83.75-100-151-61.25-75-139-108c-15-6-29-12-18-41 12-29 27-24 41-18q93.25 41 164 127 56.75 68.75 103 154c57 7 78 179 143 212 154 57 298 94 453 100q-112-28-195-93-110-86-173-231c-6-15-13-29 16-42s35 2 42 16q56 130 154 206c85 66 289 124 400 127q-91.25-54.25-157-128-87-98.75-141-250-52.5-143.75-153-247a642 642 0 00-238-157c-15-6-29-11-19-41 11-29 26-24 41-19q146.25 54.5 261 172 109.75 112.5 167 270 49.75 140.5 128 230 69.75 80.25 177 135c-98-207-66-367-122-577-35-129-232-277-193-320 45-51 133 88 248 127 175 59 357 111 540 85-122-138-244-269-366-361-119-90-237-140-352-120-16 3-31 6-37-26-5-31 10-34 26-37 135-24 269 32 401 132 111 84 201 175 311 298-18-47 0-14-30-77q-86.75-186.75-220-345-132.75-155.75-324-250c-14-7-28-13-15-42 13-28 28-22 42-15q204.75 100.25 345 265 120.25 141.5 203 307-24-122-68-227c-44-106-93-201-188-287-62-56-209-140-208-179l-63-24q-95.5-41-164-52c-16-2-32-4-28-35 4-32 19-30 35-28q78.25 11.5 182 56l98 60c53 4 139 47 208 74 206 78 446 126 666 79q-109.25-50.75-223-91-126.75-45.25-264-53c-16-1-32-1-31-33s17-31 33-31q146.25 8.25 282 57 132.75 47.25 261 108c59 27 101-7 163-45-123-92-181-230-205-376l-2-2c-102-95-207-190-315-253-104-60-210-91-316-63-15 4-31 8-39-22-8-31 7-35 22-39 125-33 247 1 364 69q141.5 87 274 213l-1-17c-15-270-203-480-435-494-78-5-189 21-186-32 4-59 97-44 234-86 385-116 655-296 836-690q-76.5 62-186 124c-86 47-198 91-358 128q-123 29-216 84-96 58-159 135c-10 12-20 25-45 5s-14-32-5-45q70-86 177-150 101-59 233-91c155-36 261-78 343-122q74.5-40.5 131-84-225-4.5-459-3c-143 44-289 96-402 160-110 63-186 136-192 223-1 16-2 32-34 29-32-2-31-18-29-34 8-111 97-200 224-273q105.25-58.5 233-105l-104-1c-116-2-112-66-20-101 90-34 190-141 251-216 271-334 412-714 456-1130q-47.75 109.5-115 198-83.25 112-222 164-46 240-180 397-139 162-369 230c-29 8-52-35-29-55q195.25-165.25 278-344 90.75-199.5 72-387c-1-16-3-32 29-35 31-3 33 13 34 29q21 204-78 420-60 128-172 251 110-59 187-149 127-150 170-386l22-25q130.75-42.75 209-147 74.25-99 126-228c-140 69-304 64-457 78-213 19-369 68-554 152z"/><path d="M204649 49231c-680-88-1359-113-2041-114q-1025.25 2-2058 112c-20 6-15 33-14 46q-1 40.5 121 27 963-91.5 1932-93c674 0 1351 21 2038 102 33 9 77-85 22-81z"/><path fill-rule="evenodd" d="M20057 49160q1024.25-108.25 2038-110 1011.75-1.75 2025 127l31-127q-26 14-58 15a123 123 0 11 113-171l60-170q-1084.75-124-2171-122-1092.75 1.75-2193 107l58 164q35.5-51 101-54a123 123 0 11 0 246q-19 0-36-6l33 94-2 7zm3067-416a123 123 0 10 0 246 123 123 0 10 0-246m0 64a59 59 0 00 0 118c32 0 59-27 59-59s-26-59-59-59m-1082-91a123 123 0 10 123 123c0-68-55-123-123-123m0 64a59 59 0 10 0 118 59 59 0 00 0-118m-1064-40a123 123 0 10 0 246 123 123 0 00 0-246m0 64c-33 0-59 26-59 59s26 59 59 59a59 59 0 00 0-118"/></g><path d="M202601 47974q-22.25-104-100-175-78.5-71.75-187-88c-33-4-39-58-7-68q91.25-32 157-133 69.25-105.5 95-256c5-34 64-35 69-1q25.25 125.75 97 208 86.75 99 193 138c31 12 25 63-8 68q-87.75 16.5-141 87c-50 62-81 145-100 221-8 33-62 31-69-2zm33-118q30-79.75 81-146 41.25-52.5 99-84-78-45-143-120-42-51-73-116-29 89-75 158-46 71-108 116 75 29 134 82 52 47 85 110m799 5115-515 206c-17 7-35 14-48-21-14-34 4-41 21-48l515-206c17-7 35-14 48 21 14 34-4 41-21 48m59-326-604 328c-16 9-33 18-51-15s-1-42 15-51l604-328c16-9 33-18 51 15s1 42-15 51m-1826-65 604 328c16 9 33 18 15 51s-34 24-51 15l-604-328c-16-9-33-18-15-51s34-24 51-15m51 322 515 206c18 7 35 14 21 48-14 35-31 28-49 21l-515-206c-17-7-34-14-21-48 14-35 31-28 48-21zm224 434q209 53 358 31 134.5-20.5 191-146v-493q-163.5-1.75-303-41c-109-31-170-98-201-178-41-107-27-235-4-329 5-18 9-36 45-27s32 27 27 45c-20 82-33 194 1 284 23 60 69 110 152 133q140 37.75 307 38 164.75.25 304-40 124.5-39 192-123s65-117 57-176q-9.5-53.5-49-80-55-35-128-37-70.25-.25-142 16l-77 13c-19 2-37 5-42-32s14-40 32-42l73-12q78-18 159-18 93.75 2.25 168 51 65.5 43 80 131 14.5 124-73 233-80.75 101.25-229 147-127.25 36-274 42v483q4 8 2 16 57.25 120 188 141c97 18 221 2 358-31 18-5 36-9 45 27 8 37-9 41-28 45q-221.75 56.5-388 32-139-23.25-215-132-76 108.75-215 132-166.25 26-388-32c-18-4-37-8-28-45 8-36 27-32 45-27zm356 210 402-9c19 0 38-1 38 37 1 38-18 38-37 38l-402 9c-19 0-37 1-38-37s18-38 37-38m593-3082q227.25-189.75 423-297 200.5-110.75 359-106c19 1 37 1 36 39-1 37-20 37-39 36q-138.5-3.25-322 97-188.5 102.5-410 289c-14 12-29 24-53-5s-9-41 5-53zm-605 56c-141-130-298-240-445-314-139-71-268-108-363-100-19 2-37 4-40-34-4-37 15-39 34-40 110-10 252 31 404 107 152 77 315 191 461 325 14 13 28 25 2 53-25 27-39 15-53 2zm-213 1004q56-124 136-219 80-94 174-170c14-12 29-24 52 5 24 29 9 41-5 53q-89 72-164 160-74 88-125 201c-8 17-15 34-49 19s-27-32-19-49m371-1734q74.25 98 114 223 40 123 39 279 10 121.5-7 249-17 130.5-97 246-66.75 89.5-165 113-80.5 19-164-7c29 100 51 208 6 308-8 18-33 27-51 18q-65-33-128-62s-84-36-127-51l-1-1q-142-54.5-236-112-98-58-150-124l1 2q-65-74-88-170-20-83.25-22-174-109-59-194-116-96-65-161-131c-13-14-26-27 1-53s40-12 53 1q58 60 150 121 90 60 204 121 185.75 20.75 370 109 158 76 317 192 17.25 12.25 27 20l25 19q78.25 33.5 152 16 72.25-16.5 122-84 69-100.25 84-214 15.75-117 6-234v-2q0-146-35-258-36-113-102-201c-11-15-22-30 7-52s41-7 52 7zm-375 1047q-156-116-311-190-158-74-314-98 3 72 18 135 18.25 78.75 71 138l1 1q45 55 130 107 89 54 225 106l-1-1q67 24 133 54l93 44c19-83-10-179-37-267q-3-10-9-29zm776-1003q-66.75 87.75-102 201-36 113-35 258v2q-9.75 117.75 6 234 15.75 113.75 84 214 49.75 66.75 122 84 73.75 17.5 152-16l25-19q7.5-7 27-20 157.75-117 317-192 184-88 370-109 113-60 204-121s111-81 149-121c13-13 26-27 53-1s14 39 0 53q-65 66-161 131-86 57-194 116-2 92-22 174-23 95.5-88 170l1-2q-52 66-150 124-94 57-237 112l-1 1q-64 22-127 51-64 29-128 62c-18 9-43 0-51-18-45-100-23-208 6-308q-84 27-164 7-98.25-22.75-165-113-80-115.5-97-246-17-128.25-7-249-.75-155.25 39-279 40-126 114-223c11-15 22-30 52-7 30 22 19 37 7 52zm940 715q-157 23.5-314 98-156 74-311 190-5.5 18.25-8 29c-27 88-56 184-37 267l93-44q65-30 133-54l-1 1q136-52 225-106 85.75-51.25 131-107l1-1q51.25-59.25 71-138 16-63 19-135z"/><path fill-rule="evenodd" d="M203459 50602a216 216 0 00 0 433 217 217 0 00 0-433m0 69c-81 0-147 66-147 147s66 147 147 147 147-66 147-147-66-147-147-147m0 60a87 87 0 10 0 174 87 87 0 00 0-174m-1697-124c119 0 217 97 217 216s-97 217-217 217a217 217 0 01 0-433m0 69c81 0 147 66 147 147s-66 147-147 147-147-66-147-147 66-147 147-147m0 60a87 87 0 11 0 174 87 87 0 01 0-174"/></g><use xlink:href="#A" transform="rotate(-2.2 -55532.8 156275.8)"/><use xlink:href="#A" transform="rotate(2.2 459865.8 156275.8)"/></g><path fill="#171796" d="M387 95l-19-22-25 14-4 51a220 220 0 01 36 6z"/><path d="M348 98q1 0 3 0 0 0 1 1 0 0 1-1a4 4 0 01 2-1q1-1 3-1h3q1 0 2 1l2 1q1 1 2 1a9 9 0 00 4 0q1 0 0 0l-8-1 2 2q1 1 4 2a8 8 0 00 5 1h0 0a5 5 0 01-3 1 10 10 0 01-5-1q-2-1-3-2a8 8 0 00-3-1 6 6 0 00-3 0q0 0 1 0 1 0 2 0 1 0 0 1a2 2 0 01-2 1h-2v1 0 1q0 0 0 0 0 0 0 1l1 1q1 0 1 1 1 0 1 1 0 0 1 0h3q1 0 2 1h1 1 2q1 0 1 1 1 1 2 0a3 3 0 01 2 0h1q1 0 1 0 1 0 1 1 0 0 0 0 0 1-1 1 0 1 0 1 0 1-1 1 0 0-1 0a1 1 0 01-1 0v1l-1 1v1q1 1 0 1 1 1 0 2 0 1 0 1 0 0 0 1 0 1 0 1h0 0l-2 1h0a10 10 0 01-2 2q0 1-1 1h0q1 0 0 1l-1 1q-2 0-2 0 0 0 0-1-1 0-1-1 0 0 0 0 1 0 1 0v-1q0-1 1-1 1 0 1-1l1-2v-2q-1 0-1 0h0-1l-1 1q0 0-1 0l-2 2q0 0 0 1 0 1 0 1h-1q0 0 0 1 0 0-1 0h-2q0 0 0-1 0 0 0 0 0 0 0 0h1a5 5 0 01 2-1l1-1q0-1 1-1v-1 0q0 0 0-1v-1q-2 1-2 0-1 1-1 0-1 0-1 0h-1v1q0 1 0 2l-1 2h0q0 1 0 1v1 0q0 0 0 1l-1 1h-1q0 0 0-1h0 0q0 0 0 0l1-1q0 0 0 0 0-1 1-1l1-2q0 0 0 0h0s0 0 0 0a1 1 0 01 0-1v-2-1h0q0 0-1 0v1q0 1-1 2v1q0 1 0 1h0q0 0 0 1-1 1-2 0-1 0-1-1v-1q1 0 2-1 0-1 1-1 0-1 0-1 0-1 0-1-1 0 0-1 0 0 0 0 0 0 0 0-1 0 0-1 0 0 0 0h0q0 0 0-1v-1q-1 0-1-1l1-1q0 0 0-1l1-1h0q0 0 0-1h0q-1 0 0-1-1 0 0-2v0h-1q0 0-1 0h0v-1l-1-1q0 0 1-1 0-1 1-2v0h-1l-1-1q0 0 0 0-1-1 0-1"/><g fill="#f7db17"><path d="M364 122h0l-1 1q0 0 0 0h0q0 0 0 0h0v-1h0v0q-1 1-2 2v2h0q0 0 0 0h-1 1q0 0 0 0h-2q0 0 0 0h0q0 0 0 0v0h-1 0 1a5 5 0 01 2-1l1-1q0-1 1-2v-1 0q0-1 0-1v-1l1-1v1h0v0 0h0 1l1-1v1l-1 1v0h0v-1l1-1v1z"/><path d="M349 113h0v-2 1h0v0q0 0 0 1h0 0v-1h0 0 0 0 0v0 1h0v1q0 0 0 0h0 0 0 0 0v1h0 0 0q0 0 0 1h0 0 0 0 0 0q0 0 0 0 0 0 0 1v1h0 0v0q-1 1-1 2l-1 1a4 4 0 01-2 2q0 0 0 0 0 0 0 0 1-1 0 0v0h2q1 0 0-1 0-1 1-1v0-1h0l1-1v0q0 0 0 0 0 0 0 0 0-1 1 0v-1-1h0l1-1h0v2 0 2h0v1 3q0 0 0 1v0q0 0 0 0l-1 2q0 0-1 1 0 0 0 0l-1 1q0 0 0 0 0 0 1 0v1h1q1 0 1-1h0 0 1v0-1q0 0 0-1h0l1-2q1-1 0-1 0 0 0 0h0 0 0v0h0 0v0h0v0q0 0 0 0v0h0v0h1 0v-1 1h0q1 0 1 0v-2-1q0 0 0 0v1 1q0 1 0 0h0v0l2-2v0l-2 1v0q0 0 1 0h1 0l1-1v-1l1-1a2 2 0 00 1-1h0v1h-1l-1 1h0v1q0 0 1 0l1-1h0 0 0v0h0 0v1h1v1q0 0 0 1v-1h0 0 0 0 0v0h1q0 1 0 1v0h0 0 0v0q0 0 1 1h0v0h0v0h0v0-1q0 0 0 0 0 0 0 0h0 0l-2 3q-1 0-1 1v1h-1q0 0 0 0h1q0 0 0 1v0h2q1 0 1-1 0 0 0-1v0q0 0 0 0 1 0 1-1 1-1 2-2 0 0 0 0h0 0 0v0h0q0 0 0 0l2-1q0 0 0 0h0q0 0 0-1 0 0 0-1 0 0 0-1v0h0v0q0 0 1-1 0 0 0-1h-1 1 0v-1l-1-1v0l1 1v-1h0 0 0 0 0 1v-1h0 0 0 0v0h0 0 0q0 0 1 0h0 0v0h0l1 1q0 0 1 0h0 0q0 0 0 0h0 0v-1h0 0 0 0v-1h0q0 0 1-1 0 0 0 0 0 0 0 0-1 0-1 0v0h0-1 0 0 0 0 0-1 0 0v0h0-2 0v1-1h0 0 0 0 0v2-2h0-1v1-1h-1v1h0v0h0 0 0 0 0 0v0 0h0-1a5 5 0 01 1 2v-1l-1-1h-1 0q0 0 0 0h0 0 0 0l1 1-1-1h-1-1v2h0v-2h0v2 0-2l-1-1v1 0-2h-1q0 0 0 1 0 0-1-1h-1 0 0v1h0s0 0 0 0q0 0 0 0h0v-1h0 0-1v2h0v-1-1h-1v0h0v0q0-1-1-1v0h0 0 0v0q0-1-1-1v0h0 0v-1h0v1 1h0v-2h0v0h0v0h0v0h0 0 0v-1h0 0 0v0h0v0-1h0 0v0h0 0v0h-2 1 1v-1h0 1v0q0 0 0 0 0 0 0 0 0 0 1 0h0v0h0q1 0 1 0h-1-1 1 1 0a5 5 0 01-2-1h-1q-1 0-1 0h0 0-1s0 0 0 0h1 4v0q0 0 0-1h-1-1 1v1 0h0v-1h-2-1 1q0 0 1 1v0h0v-1h-2l-1 1h0v0l1-1h2 1 0-1q-1 0-2 1h0 0-1l-2 1q-1 0-1 0v2q-1 1-1 2h0 0v0h0 0 0v0h0 0 0 0 0q0 0 0 0v1h0 0q0-1 0-1h0v0h0v0h1q1-1 0 0h0v1l-1 1q0 0 0 0 0 0 0 1h0l1-1v-1h0v-1q0 0 0-1h0 0 0 0 0 0 0v1 0l-1 1h0l2-2v1 1h0v-1l-1 1q-1 0 0 1h0 0 0v0l-1 1h0 0l1-1v0l-1 1h0l-1 1h2v0h-1v0 0h-1q0 1 0 1l-1 1z"/><path d="M349 100h-1 0q0 0 0 0h0 0 0 0 0 0 0 0 0 0 0 0a3 3 0 01 2 0q0 0 1 1h0q-1 0-1 0 0 0 0 1z"/></g><path d="M365 122h0q0 0 0-1v0zm2 4h0 0v0l1-1zm1-2h0 0 0zm-1 0h0 0v0h0 0zm1-2h0 0zm1 0v0h0 0zm0-6q0 1 0 2v-1a1 1 0 00 0-1h0v1 2h0v0q0-1 0-2zm-1 1v0h0v0zm0 1v1h0 0 0 0v-1zm1 0v1-1zm1 0v2 1-1-1h0zm0-2h0v0h0v-1zm0-3v0q0 0 0 0zs0 0 0 0m0-2v1h0v1h0v-1h0zm-2-1q0 0 1 1h-1v2q0 1-1 1a4 4 0 00 0-2h0v2l1-1a4 4 0 00 0-2h1q0 0 0-1l-1-1zm5-1v0h0v0s0 0 0 0zm-1 0h0 0v0h0zm-2 0h0v1q0 0 0 0v-1zm-6 0v0h0zm1-1h0v0h0v0h0zm2 2v0 0h0zm1-2v0a0 0 0 00 0 0q0 0 0 0zm-6 0v1h0v0h0v0h0 0zm2 2v1 1q0 0 0 1l1 1v-2q0 0 0 0v0h0v0h0v2h0q-1 0-1-1v-1-1-1h0zm-1 1q0 0 0 1v1h0l1-1h0 0 0v0 0h0-1v0-1zm-1 0v0h0z"/><path d="M363 114q0 0 0 1v2 1h0 0l1-1h0l-1 1h0 0q0-1 0-1v-2zm2 4h0 0q0 0 0 1v1h0v-1l-1-1v0q1 0 1 1v1-1-1h0q0 0 0 0zm1 0h0 0 0zm1 0v1-1zm1 4v0zm-1-1v0h0v0h0 0zm-1 0h0v0zm-1-1h0v0h0v0h0zm-2 2h0v0s0 0 0 0v0h0zm-5 5v0h0q0 0 0 0zm1 0h0 0 0v0zm1-1h0v0zm2-4h0v0h0v-1h0zM363 111h0 0 0 0v0h0zm-1-1v1 0zm-1 2h0 0 0zm2 3v0h0v0zm-2-2 1 1v1q0 0 0 0v-1-1h0 0v2h0v-2 0h0v1h0v0h0v-2zm1 5v0h0 0v-1h0q0 0 0 0zm-2 1v0h0zm2-2v1h0v1 1-1q0 0 0-1h0v-1zm0-1v1 1h0 0 0v-1h0 0zm-2 1q0 1 0 1 0 0-1 1h0v0q0 0 1-1 0 0 0-1zm-3 2v0h0v0h0 0v0s0 0 0 0zm-1 0v1 1h0v0h0v-1 1 1h0v0h0v-2zm0 4v-1h0v1zm0 1v0s0 0 0 0v0zm-1 2v-1h0 0 0q0 0 0 0zm-1-7v0h0v0zm-2 4v0h0v0zm5-8v1q0 0 0 1 0 0 0 1v0q0 0 0 0h0v1h0v0-1q0 0 0-1v-1zm0-1v1 2q0 1 0 1v0a3 3 0 01 0-2v-1-1zm-2 3v0h0 0zm-1 0v1h0 0v0h0v0h0zM357 108a2 2 0 00 0 2v-1zm-1 1v2h0v-2 0zm-4 0q0 1-1 1v2 1-2-1q0 0 1-1zm3-1v0h0 0v1-1h0 0zm-4 0v1q0 0 0 1v2h0v-1q0 0 0-1v-1-1zm2 0v0h0 0zm0 0h0v1h0v1-1h0a2 2 0 00 0 1q0 1 0 2h0a3 3 0 01 0-2q0-1 1-1 0 0 0-1h0zm-1-1q0 0 0 1h0 0 0v0h0q0 0 0-1v0zm6 6h0v0 0zm0 2v1 2-1-1h0zm-1-2a3 3 0 01 1 2h0a2 2 0 00-1-2zm0 2-1 1v1-1h0v-2-1-1h0v2q0 0 0 1v1-2-1zm-3-1v1 0h0v-1zm-2 1v0h0zm1-2h0 0 0v0zm-2 3a3 3 0 01 0-2q0-1 1-1v-1q0 0 0-1h0v1l-1 1v1q0 1 0 2zm-1-1v0h0 0zm5-3v1q0 0 0 1h0v-1zm1-1a2 2 0 01 0 2v-1h0q0 0 0 0l1 1v-1zm1-1v1 2h0 0v0-2h0zm-2 0h0v1-1q0 0 0 0 0 0 0 0zm-4 3v1l-1 1 1-1q0 0 0-1zm0-2v0h0 0v0zm3 0v1h0zm1-1q0 0 0 1v2q0 0 0 1v-2-1q0 0 0-1zm-5-8h1q1 0 1 0h1-1q-1 1-1 1a1 1 0 01-1 0q0 0 0 0a1 1 0 00 1 0q0 0 1 0h-2z"/><path d="M352 101h0 0 0zm2 2 1-1v0h0 0v0zm4-2h0 0 0 0zm-2 0h0 1v0h-1zq0 0 0 0m0 0v0h0 0 0v0zm-4 1h0v0h0v0zm1 0v0zm-1-1h1 0zs0 0 0 0m1-2h0 0 0 0zm-1 0h0v0h0v0zm-1 0h0 0 0 0 0zm-1 1h0v0zm0 1h0q0 0 0 0v0zq0 0 0 0m-1 0v0h0v0zm1 1v1h0v-1zm-1 0v0h0v0zm-1-4h0v0h0 0 0zm5 7a2 2 0 01 0 1h0a2 2 0 00 0-1v0zm-2 2q0 0 0-1v-1q0 0 0-1v-1h0a2 2 0 01 0 2h0zm-2-1h0 0 0zm0 0h0 0v0h0zq0 0 0 0m2-2h0v0h-1q0 0 0 0zm-1 0q0 0 0 0m24 7h0 0v0h0zm-27 12h0 0v0h0 0q0 0 0 0z"/><g fill="red"><path d="M369 100h2q-1 0-2 1h0zm-1 0h1v0s0 0 0 0v0h-1 0v0zM357 96q1 0 2 0h0q0 0 0 1h0 0v-1h0 0a5 5 0 01 2 1q0 0 0 0h0v0h0v-1 0l2 1v0h0v0h0q0 0 1 0v0l1 1v0q0 0 0 0v0q0 0 1 0v0h0 1 0 0v0L363 99h0l-2-1h0-2-2v-1h0z"/><path d="M355 97h2q1 0 1 0v1h-2l-1-1h0zm7 4h0a7 7 0 00-3-1q0-1 0-1l-1-1h1l2 1v1q0 0 0 1v0q1 0 1-1v-1l2 2q0 0 0 1h-1v0z"/><path d="M364 102l-2-1q1 0 1 0 0 0 0-1l1 1h1v1h0-1z"/><path d="M366 104l-2-1h1 0 0v0l2 1q0 0 0 0h-1z"/><path d="M368 105l-2-1q1 0 1 0 0 0 0 0l1 1v0h0s0 0 0 0z"/><path d="M373 104s0 0 0 0q-2 1-5 0 0 0 1 0v0h2 0 0s0 0 0 0q0 0 1 0h0 2zm-10 24h0-1q0 0 0 0h1q0 0 0 1v0h2a3 3 0 00 1-1v-1q-1 0 0 0zm-15-5q0 0-1 1 0 0 0 0 1-1 0 0v0h2q1 0 0-1v0h-1 0zm10 4h0 1q0 0 0 0h-2q0 0 0 0h0 1v0h0 0 0 0 0 1 0q1 0 1 0m-7 0h0l-1 1q0 0 0 0 0 0 1 0 0 0 0 0v1h1q1 0 1-1h0 0zM354 100h0 3 2v0q0 0 0-1l-1-1h-1-1 1v1h0q0 0 0-1h-2q0 0-1 0h1q0 0 1 1h0v-1h-2l-1 1zm-2 0 1-1h2 1 0-1l-2 1h0 0-1l-1 1q0 0 1 0"/></g><path fill="#0093dd" d="M409 156l21-47L414 85l-27 10-13 50a219 219 0 01 34 12"/><path fill="#fff" d="M383 113a252 252 0 01 40 14l-8 18a232 232 0 00-36-13z"/><path fill="red" d="M415 142l5-12a249 249 0 00-39-14l-3 12a236 236 0 01 37 13z"/><path d="M386 126q0 0 1 0h2q0 0 0 0v0q-1-1-1-2 0 0 0 0h0q-1 0-1 0h-1 0q0-1 0-1h1 1q0 0 1-1v0s0 0 0 0a1 1 0 01 1 0q1 0 1 1 1 0 1 0 0 0 0 1v0h0l1 1q2 0 5 2a19 19 0 01 4 1h1q4-1 7 2 1 0 2 1 1 0 2 0a8 8 0 01 3 1q2 0 2 1 1 1 0 1 0 1-2 0-1 0-2-1-1 0-2-1l-1-1h-1v0q0 0 0 1v1q0 0 1 1h1q0 0 0 0v2h0v1l-1 1q-1 0-1 0h0l1-1h0v-1h0l-1-1q-1-1-2-1-1 0-2-1h-1q0 0 0 0h-2q-1 0-1 0 0 0-1 0h0q0 0 0 0-1 0-1 0v-1h1q1 0 1 0h0a4 4 0 01-2 0q-2-1-3 0 0 0-1 0h0q-1 0-1 0a4 4 0 01-2 0q-1 0-1 0h-1q-1 0 0 0-1 0 0 0 0 0 0 0 1 0 1 0 0 0 1 0h1q0 0 1 0h1v0q0 0-1-1a3 3 0 01-2 0q-1 0-1 0h-3a1 1 0 01-1 0h-1q0 0 0 0 0 0 0 0 0 0 1 0z"/><path fill="#fff" d="M401 130s0 0 0 0q-1 0-2 0-1-1-2-1h1 2q1 0 2 0 1 0 1 1l1 1h-1z"/><path d="M403 95v0l1 5-4 3h0 0l5 2 1 5v0h0l4-3 5 2h0v0l-1-5 4-3h0 0l-5-2-1-5v0h0l-4 3z"/><path fill="#f7db17" d="M401 103l4-3 4 1zm8-2 3-3 4 2zm8-1-3 3-4-2zm-8 2-4 3-4-2zm-5-6 4 1 1 5zm6 6 4 2 1 4zm5 6-4-2-1-4zm-6-6-4-2-1-4zm3-8 1 5-4 3zm-3 8 1 5-3 3zm-3 8-1-4 4-3zm3-8-1-5 4-3z"/></svg>