<svg xmlns="http://www.w3.org/2000/svg" viewBox="0 0 6626.266 3786.438"><g><g transform="translate(3798.01 5382.5)"><rect width="6626.27" height="3786.44" x="-3798.01" y="-5382.5" fill="#da0000"/><rect width="6626.27" height="2524.29" x="-3798.01" y="-5382.5" fill="#fff"/><rect width="6626.27" height="1262.15" x="-3798.01" y="-5382.5" fill="#239f40"/><g><path fill="#fdd116" d="M-251-3376c0 173-58 39-240 39s-179 54-179-118 15-301 197-301 222 208 222 380"/><path fill="#fdd116" fill-rule="evenodd" d="m-902-3802 19-20 38-30 31-15 17-5 82-2 14 10 24 18 15 11 12 18 23 13 14 35-10 23 10 22 5 26 2 69 14 5 23 20 22 16 24 8 76 19h198l51 3 82 23 63 31 72 33 51 36 40 13 35-2 18-27v-30l-20-25-44-34-60-43-46-37-24-21-20-38-9-39 8-23 9-25 37-19 37-6 42 4 27 10 35 6 19 20 17 40-11 4-42-8-27-16-6-36-44-9-34 4-31 16-16 25 2 40 27 36 47 34 43 30 49 29 37 32 22 32 11 43-9 29-28 28-31 14-44 2-46-14-39-16-28-7 7 46-10 102 12 41 47 25 16 44-4 44-5 58-8 44-22 24-31 10-43 1-21-12-7-34-2-16 34-37 34 5 4-30-5-21-33-33-60-30-43-44-7-12-22 23-27 33-14 38 3 34-14 27-26 48-48 59-99 5-11-28 2-14 6-23 32-28 28 9 21-9 21-20v-34l-3-37-9-56 13-52 3-7-20-35-180 32-98-3h-36l-36 20-9 35-29 22-33 49-35 72-19 31-20 45-60 34-101-1-3-26 14-33 25-26 41-5 22-3 34-70 26-76 27-64-18-11-35-15-96-29-65-8-53 23-14 31-34 7-12-16 6-35 5-13-16-44 5-33 19-19 48 3 30 35 31-5 96 12 6 1 15-17-18-221-3-45-8-28 19-49 3-29z"/><path d="M-482-3982h-8v15l3 95 2 60 1 56 3 1c4-1 3 7 4-71l1-71 1-49 1-35-3-1zm-71 5h-3c-10 2-11 3-9 11l4 19 3 13 3 20 3 16 3 11 3 16 8 39 5 29 10 49q2 4 6 1 2 0 0-8l-2-14-2-10-8-53-8-56-5-30-5-33-1-11q1-9-6-9m140 1-2 2-7 43-4 32-4 30-4 30-6 35-6 52c6 1 6 2 8-12l6-30 1-7 1-6v-5l2-7 3-16 3-17 4-24 3-13 4-24 2-13 3-16 5-28q0-4-9-5zm-209 9-7 1q-11 3-9 8l2 4 4 11 6 14 6 15 4 11 2 5 2 6 9 22 8 19 6 18 5 10 7 18 10 27 9 25 4 10q6 6 4-6l-13-39-3-11-4-11-4-13-4-14-4-12-8-24-17-55-1-3c-2-4-9-26-10-33q-1-3-3-3m282 13q-2-1-7 14l-6 15-2 7-1 5-3 6-7 23-3 9-4 8-1 4-1 3-4 13-6 14-2 8-4 11-6 18-5 14-4 10-3 8c-8 19-8 20-6 21q6 4 8-4l3-8 5-14 7-17 1-4 1-3 10-26 3-6 2-6 1-3 1-2 2-5 4-9 2-5 1-3 2-5 2-6 4-9 3-10 4-8 2-6 4-11 4-12 4-8 3-8 1-5q1-4-2-5l-6-2zm-350 30-1 1-3 1-4 1q-3 3-1 5l2 3 1 2 12 20 8 15q6 9 8 8 5-1 1 1-3 1 1 7l3 6 2 3 5 8 6 11 6 9 2 4 1 1 1 2 2 3c2 2 7 2 7 0l-15-30-1-1-3-7-4-9-2-5-6-10-19-35-4-9q-3-5-5-5m415 2-5 6v2l-2 3-8 15-12 22-4 7-12 23-5 9-6 10-5 9-11 20-12 21-8 15-4 6-10 18-3 5 3 2q4 3 6-1l8-15 4-6 3-5 6-11 7-12 6-9 14-23 2-4 2-5 3-4 15-24 1-1 2-3 6-11 9-15 4-5 3-6 3-5 1-2 2-3 2-4c2 0 7-11 6-12zm-236 19h-10l1 6 8 70 2 21 4 40 2 11h4a371 371 0 00-1-55l-1-20-3-53c-1-18-1-21-6-21m54 3q-2 0-2 3l-1 18-2 28-2 34-3 63 2 1c3 0 4-2 8-40l2-18 4-39 5-36c1-8 1-9-1-11l-7-2zm-112 9h-4c-7 0-7 1-3 15l5 17 2 8 3 8 5 19 6 21 4 16 3 11 5 19 3 9q2 3 4 2t2 0l-2-13-8-30-8-34-5-22-4-17-2-4-1-4-2-12zm173 3q-4-1-8 14l-18 77-4 16-2 11-3 10q-4 11-2 12 2 3 5 0l3-9 2-7 1-3 4-16 1-4 9-29 2-6 9-32 5-18 3-9q2-6-5-7zm-361 5-8 1c-13 1-35 7-37 11l5 5c8 7 21 26 26 38l3 7q2 3 7 2 6 1 8-7l1-6 8-14 2-3c0-2 13-14 21-19l5-5c0-5-22-10-41-10m545 1q-3 0-7 7l-5 6-6 7-7 9-5 6-26 32-7 8-3 5-4 4-5 7-14 16-35 44-7 7-7 9q-6 7-3 9l3 1 8-9 9-10 8-8 10-12 6-7q12-15 19-21l5-6 9-11 7-8 51-57 10-12 5-7c0-2-7-9-9-9m-129 12q-3 0-6 8l-3 8-2 5-9 21-2 5-5 10-22 51-10 21q-1 2 1 4 1 2 3 2c1 0 21-39 21-42l1-1 7-14 8-17 26-50q2-7-6-11zm-285 4h-1q-8 2-9 4l2 5 24 48 2 2 14 30 17 36 4 8 3 1q3-2-1-11l-3-7-1-1-1-2-3-9-5-9-3-7-2-6-3-6-5-12-3-7-1-4-8-19-4-9-4-8c-6-14-7-17-9-17m-190 0-9 2a63 63 0 00-20 11c-5 5-5 7 3 14l8 7 7 7 8 10 6 7 3 5 1 2c2 2 3 2 14-3s15-9 15-12c0-2-8-18-11-21l-4-6-5-6-8-11q-5-6-8-6m113 1-4 2a95 95 0 00-29 32c-5 9-6 11-6 14q-1 5 5 5 6 2 8 5 4 4 6 4l3 1 6-7 2-3 5-6a58 58 0 01 17-15l10-8 3-4-6-5-8-6-1-1-6-4zm416 25-6 6-20 29-22 33-5 8-20 29-10 14 3 2q4 4 9-5l17-23 7-9 8-10 9-13 21-27 1-3 2-3 5-6 5-7 3-6c0-3-4-9-7-9m-576 4-9 7-12 9q-1 3 3 5l17 8 6 5a85 85 0 01 19 21l3 5 14-7c7-7 4-13-11-29-10-9-28-24-30-24m200 1-5 2-9 7-5 3c-3 0-27 24-27 27l4 5 9 7q7 10 13-1 10-15 31-28 7-4-1-12l-5-6-2-3zm505 7-5 3-6 6-7 6-37 32-22 19-10 8-9 8-36 30-18 16-13 12c-10 8-10 7-7 11q2 3 7-1l4-4 8-6 12-10 27-21 5-4 16-13 10-8 6-5 4-3 2-1 16-12 27-22 10-9 21-17 5-4-4-5zm-473 23-17 6c-20 11-25 15-25 28 0 7 0 8 3 11q13 13 28 0 7-5 6-12 0-10-8-10-5 0-9 7-5 8-5-1 2-9 7-11l4-2 8-1q11-1 12 11 3 14-7 24c-4 4-6 5-14 7q-16 4-16 10 0 5 12 9l13 7 26 24 3 3q1 2 3 0l1-16c-1-17-2-20-4-20q-2-1 0-1 3-1 1-3l-1-3-5-5q-7-4-2-7l7-16v-11c-1-7-5-15-6-15l-2-4-6-6q-3-3-7-3m-260 1q-13 0-20 14a27 27 0 00 5 30q5 3-2 10a54 54 0 00-12 23 36 36 0 00-1 17l3 11q0 3 10-7l13-9 8-5c3-2 6-4 18-7l7-1 1-5 1-9v-3h-7q-16 0-21-12a44 44 0 01 0-25l4-8q3-2 8-2 7 1 9 5c6 5 3 15-2 9q-4-4-9 0-6 6 0 15 4 7 12 6 10-1 14-13c1-5-1-14-2-14l-1-1c0-4-16-15-28-18zm652 3-1 1-35 37-20 21-45 48 2 3 2 2 53-49 48-45 6-7-4-5-3-4q0-2-2-2m268 8-17 1-30 7a92 92 0 00-33 28l-2 3c-2 2-8 16-10 24a94 94 0 00 3 51l2 5a152 152 0 00 23 37 257 257 0 00 33 32l11 8 5 4 6 4 7 5 20 15 36 25 16 11 15 12a221 221 0 01 34 32 46 46 0 01 9 21 52 52 0 01-3 23l-2 5c0 2-10 11-15 14q-3 2-16 2h-12l-14-6-60-30-14-8-23-15-11-6-20-11-14-8-22-10a344 344 0 00-65-24l-19-6-58-15-8-2-31-4c-10-1-93 0-95 1a1287 1287 0 01-124 0l-19-3-16-3h-10l-2 19v7l8 1 18 1c16 2 81 1 108 0a1639 1639 0 01 203 1l19 5 41 14a124 124 0 01 32 14l9 4 12 6 37 20 8 5 31 17 16 9a241 241 0 00 63 30l21 5a59 59 0 00 22 1 41 41 0 00 25-13c6-5 7-7 9-14 3-9 1-26-3-36l-2-6-3-4-3-5-28-28-11-9-32-24-24-17-40-30-14-10-10-8-13-12-13-10q-3 0-3-5c0-2-4-9-6-10l-1-1-3-6-3-7-3-6-2-7-4-17-1-5q-2 1 1-18 4-21 9-28l2-4 7-8a84 84 0 01 45-20l20-2c23-1 54 5 67 13 6 4 7 4 14 4 9-1 21 3 26 7q11 10 14 16l8 17 6 13q4 6-3 5l-9-2-14-2a58 58 0 01-29-8l-11-10-4-8v-2l-2-12v-10l-5-3q-30-17-81-5c-7 1-21 7-24 9a68 68 0 00-25 34l-2 21a98 98 0 00 10 31c5 12 31 37 53 52l15 11 14 9 43 27 21 14c5 3 5 2 11 8l18 14a176 176 0 01 27 26l4 5c4 4 16 28 16 33l1 5a94 94 0 01-1 32 81 81 0 01-17 33l-8 7-5 3-3 2-18 6a73 73 0 01-30 4 88 88 0 01-38-6l-9-3-61-21-16-7q-11-5-18-1-5 4 1 18l3 8 1 3q2 2 4 18 3 16-3 57l-7 37c-3 11-4 13-2 21 2 13 7 26 11 31 5 5 6 15 2 18l-6 2q-7-1-15-12l-3-6c-3-1-16-30-18-37a202 202 0 01 0-46l3-12 2-10q3-12 2-34 0-28-2-31l-3-7c-4-17-14-42-21-50q-7-8-12-5c-4 2-3 5 7 21 9 15 12 23 15 45a184 184 0 01-6 61 130 130 0 00-7 39c0 12 2 20 7 34l18 35 4 7a108 108 0 00 21 22c3 2 3 2 2 10q-1 9 1 15a83 83 0 00 12 26c4 4 16 22 17 25 3 7 4 25 3 35-2 19-6 27-14 34-7 5-9 5-25 2-11-2-13-1-17 4a22 22 0 00-3 18q2 4-2 7l-6 9c-3 6-3 8-3 16l1 10 2 3-2 1 10 3H6l3-2 2-3 9-11a62 62 0 00 15-21 44 44 0 00 7-20l4-25 7-40 2-14q1-16-2-26a43 43 0 01-1-24l1-12q0-14-5-18l-2-2-4-6-2-2-8-5-28-14-11-6q-8-3-14-16c-4-6-4-7-4-21q0-19 4-28l5-26 2-14 1-29c0-23 0-24-3-30q-5-11 7-6l20 5 19 5q50 16 77 17l22-2 17-4 25-13 19-21 2-3c8-8 14-36 10-52l-4-18-10-19-4-6-2-2a300 300 0 00-52-49h-3q1-1-6-5l-14-10-16-10-7-5-2-1-2-2-7-4-5-3-6-4-22-13-10-6-14-10-23-20c-20-19-21-21-27-37a56 56 0 01 1-43l2-6q1-3 13-12a75 75 0 01 31-14l12-2c14-3 41 0 52 7 4 3 4 3 4 10q-1 16 5 24 7 11 17 15a121 121 0 00 42 10l17 2q21 5 19 0v-3l-5-7-18-36-4-7-6-8-8-8-11-6-9-4h-12l-15-1a172 172 0 00-64-12zm-147 29-12 6-26 16-57 34-18 11-8 4-8 5-9 6-12 7-18 10-15 9c-10 5-9 4-7 7l3 3 32-17 39-21 21-11 23-13 38-20c32-18 31-18 37-20q5 0 3-4l-3-8zm224 2q-7 0-6 10c0 6 0 7 4 13 5 7 18 18 22 18l9 3 10 1q6 0 5-4l-3-6c0-3-4-12-8-16a44 44 0 00-24-18l-8-1zm-712 0-2 2c-1 2-1 3 11 22l5 11q4 9 6 4 2-2 0-4l-1-3-2-3-9-16zm406 8-2 1-7 7-14 10-13 9-8 6-5 4-11 7-28 21-24 17-7 5 2 4c3 3 4 2 11-3l10-7 15-9 24-17 11-7 27-18 11-7 8-5c8-5 8-5 6-9zm-528 17-5 1q-4 2-1 6c2 2 3 4 3 14v13l1-1 8-1c9-1 24-10 24-14 0-3 3-9 6-10q2 0 2-2 2-4-6 0l-7 2-18-7q-3-2-7-2m-62 6-3 1h-10q-15-2-21 4l-3 1c-2 1-2 10 0 11l6 2 7 1 5 2 6 3 6 4q5 3 6 1 2 0 1-2l-1-9v-9l1-7q2-3 0-3m130 20-2 4a45 45 0 00-3 21q2 6 14 8 6 1 8 3c5 5 6 11 7 46l1 51 1 64 2 46q1 4 8-1l13-12 2-4c5-7 5-13 3-135 0-24-2-43-4-44l-1-3-8-19a67 67 0 00-18-17l-7-4q-3-3-9-4zm-208 1c-8 0-26 9-36 20a62 62 0 00-12 22c-4 13-4 13-3 36l1 34 2 78c1 26 1 31 5 52l6 24 6 20 5 16q2 3 4 3c2 0 2-4 2-44l-1-48v-8c1-9-1-64-1-85l-1-45v-31a52 52 0 01 20-17l8-3a56 56 0 00 0-22q-1-2-4-2zm783 13-27 9-25 10-28 10-23 9-30 11-9 4-11 4-16 6-19 7-16 6c-4 2-4 2 0 8h2l11-4 12-4 19-7 73-25 74-25c20-7 19-6 16-14q-1-5-3-5m-85 0-36 16-20 10-20 9-13 6-11 5-20 9q-15 6-8 10 1 2 2 1l25-10 14-7 15-6 19-8 15-7 9-3 8-4 14-5c10-4 11-5 11-7q-2-8-4-9m-540 1-8 9-6 6q-2 1-1 2 2 3 4 0l9-4q8-4 8-6c1-1-4-7-6-7m-103 2q-2 0-3 4-4 7 3 7l7 3q8 2 9 0l-5-5-8-7zm74 8-2 1q-3 2-2 4l1 8q1 5-2 9-2 4-8 4l-8 1-4-1-7-1q-9 1-7-14 1-14-7-4a40 40 0 00-9 24q-1 7 4 10 4 4 7 4 7-1 3-3-1-1 1-3 1-4 7 0 3 4 3 8c1 21-2 26-19 27q-8 1-11-2-8-6-7-22 3-14-5-14t-8 13c0 17 11 32 25 34q9 1 20-4 13-6 20-2a61 61 0 00 22 4q14 1 19-6s4-5 7-27q1-10-10-7-5 0-2 11 5 29-27 19c-12-4-13-5-13-15q0-8 2-10c2-3 9-7 9-5l-2 1q-3 3 0 4 10 2 17-7c7-9 7-13 4-20l-1-3q-1-6-7-13zm-83 9-3 3-2 6-2 5 14 2 7 1q12 0 2-7-11-10-15-10m132 1-27 4q-4 3 8 6l10 2 8 1 1-4 1-6v-3zm27 4q-5 0-10 4l-3 2 1 25v30l1 80 1 77h11l8-4c10-3 10 0 9-48l-2-143c-1-8-8-20-13-22zm-200 5c-3 0-10 5-10 7l-1 2c-2 1-2 61 0 107 1 18 2 134 1 166 0 22 1 28 6 43l10 20 3 5 2 3q2 3 5 0c2-1 2-3 2-17l-2-116-1-103v-7l-1-41c0-44-1-48-7-62q-3-7-7-6m716 26c-5 0-67 17-81 22l-50 14q-9 1-7 4l1 4 1 2 15-4 26-7 26-6 17-4 40-10 12-4c2-1 2-10 1-11zm-542 10q-3 0-4 4l-1 7a34 34 0 01-8 15 63 63 0 01-21 11 62 62 0 01-26-2 35 35 0 00-23 1q-23 9-35 3l-7-4c-6-3-14-18-14-28q0-4-6-3c-2 1-2 1-3 11l2 145 2 179 3 5c5 5 6 4 16-15l9-18-1-93v-136q1-3 5 1a34 34 0 00 18 9l11-1 22-1c17 0 21-1 29-7q2-3 5-2c2 1 2 2 2 13v21l1 42 1 35h5a78 78 0 00 22-12v-163c0-14 0-17-4-17m621 4-28 5-12 3-20 4-6 2-79 16-36 7-13 3-11 2q-10 1-5 5l2 3 10-2c15-4 17-4 60-11l28-5 59-10 25-4 20-4q14 0 9-9l-2-5zm-528 4h-1v20l3 62c4 1 12 16 13 26 3 16 2 20-2 33a64 64 0 01-12 20 99 99 0 01-32 19q-11 5-38 11a347 347 0 00-55 18 95 95 0 00-24 16 121 121 0 00-26 35l-6 24 6 25a46 46 0 00 34 25l7 1 19-6 7-4c15-7 34-32 39-50a74 74 0 00 2-37c-1-5-5-12-7-12q-4 1-6 14l-7 27c-2 7-10 21-12 22a44 44 0 01-23 17 37 37 0 01-23-1 40 40 0 01-16-17 64 64 0 01 0-24l3-6a121 121 0 01 26-26l9-6 8-4 24-7 11-3 9-1 8-2 12-2c23-4 48-13 60-23q21-16 24-37l1-8q4-31-6-47-6-8-13-10-8-2-1-4t11-10c2-4 2-6 2-23 0-24 0-25-14-36q-11-9-14-9m46 35q-3-1-2 17l1 16q-1 2 15 5 13 2 13-1l1-14c1-14 1-13-13-18l-11-4zm414 8-14 1-67 7-1 2 4 2 9 2h29c30-1 39-1 41-3 1-1 2-10 0-11zm-622 10q9 0 20 6 3 3 8 1 6-2 7-1t-6 4c-5 3-7 3-16 3-17 0-21 0-27 2q-15 4-17-3-3-4 4-5l9-2q9-5 17-5zm679 19h-19l-38 1q0 3 5 4l6 2 33 3 31 1q5-1 6-6 1-2-3-4zm-649 18-1 1-12 1-13 3-1 3 3 115 3-1 13-10 11-9 1-50c-1-45-1-53-4-53m-63 5h-1l-1 88 1 88q2 3 4-2a92 92 0 01 22-33l5-6-1-10-1-81c-1-39-1-40-3-40zm535 17-6 2-2 75q1 18 6 34l13 22 1 2c0 2 10 11 19 16a108 108 0 00 48 18 69 69 0 00 34-3q8-2 24-21a55 55 0 00 9-23v-20l-3-16-6-21c-1-5-3-6-15-6q-15-1-9 8l5 9c11 14 11 47 0 62q-7 10-25 11c-28 1-57-9-70-25-6-7-15-23-15-28l-1-3c-2-2-2-35-1-43l1-42-3-7zm-873 76-2 1-3 2-12 6-6 5c-5 4-6 20-2 29 2 4 2 7 2 21l1 20q3 8 15 13l6 2-3 3a40 40 0 00-9 32q5 24 32 34l15 1a35 35 0 00 18-3q26-14 25-40l-1-10 7-4q8-2 10-4 2-3 9-3l37 1q24 3 33 8 10 6 25 8l10 2 9 2 15 2 12 2 20 3q6 2 6-2c0-2-5-9-6-9l-20-13-10-7h-11a258 258 0 01-68-12 84 84 0 00-32-8q-15-1-20-9-2-8 1-12c2-2 4-2 18 1l19 4 16 2 18 3 13 2 12 1 23 4c16 4 17 3 15-7l-2-7-32-4-30-2-18-3-27-5q-19-3-20-8 0-6 14-4l10 2 28 7c5 2 11 2 33 2l31 2 4 2v-8l-2-4c0-5-1-6-18-7l-22-2-25-3-40-7-14-1c-7 0-9-1-15-6q-4-4-19-11l-5-4zm7 12q6 0 10 7v8l-2 4q-8 3-10-11-1-8 1-8zm499 21h-2l-2 12a57 57 0 01-4 22l-4 9a175 175 0 01-26 48c-11 14-37 35-42 35q-4 1-5 5l3 5 6 7c3 4 3 5 3 12q-2 26-23 18-10-5-12-14l-7-20q-7-14-25-15c-7-1-9 0-14 2a59 59 0 00-18 13l-3 4-7 11-6 11-6 14-7 19-13 38-7 16-4 12-2 4-2 6-4 9-17 36c-2 1-3 7-3 8q2 3 7-1a157 157 0 00 26-41l9-19 2-4 4-12 3-8 1-3 8-17 7-17 3-8 10-21 7-10a31 31 0 01 21-11q5-1 8 3 6 5 6 14l-3 18-5 15-6 15-3 7-5 11-8 16-5 9q-3 4-4 1c-2-1-3-10-1-11l1-3 3-12c2-3 3-15 3-20q0-4-2-5c-5-2-9 2-18 20l-18 34-3 4-2 2-7 15-6 10q-19 36-40 51l-7 4-4 3q-4 3-11 0-3-2-10-1c-23 2-23 2-24 4q-9 8 13 7h26c18 1 22 0 28-5l12-14 3-6 5-8 2-5 1-3 2-7 4-7q10-22 13-24l7-9q8-13 11-6v6l-5 11-14 21-2 4-4 7-4 13-5 11-2 8-3 7a48 48 0 01-23 21q-7 4-31 9l-7 2q-4 0-3-2 1-6-11-11l-11-4q-5 1-4-3 0-2-4-5-8-6-11 4l-4 9q-3 6 1 5c8 0 19 5 22 11l2 3q2 1-1 8l-4 5-4 7-1 4h84v-1h-1l4-2 5-3 12-9 11-11 7-9 12-18 3-14v-4q0-3 3-4 16-9 19-19l1-12c0-9 1-11 10-20 6-7 7-8 10-16l14-30v11l3 2 11-15 5-10 3-7 8-16 7-15q-1-4 9-7 8-4 8-6l5-5 1-2 4-6a60 60 0 00 4-30l-1-5 14-15a168 168 0 00 39-51l2-4 3-4 1-1 1-3 3-8c7-23 8-30 3-45q-2-9-5-9m-434 13q3 0 3 10l2 12c4 7 2 19-3 22-6 3-7 8-1 6 6-1 18 2 16 4l-10 3c-9 3-11 3-16 2-6-1-6-7 0-8h3l-3-4c-2-5-2-5 0-10l1-18c0-15 1-18 5-19zm-52 25 3 1q7 4 1 15l-4 5h-15l1-6q0-10 10-14zm863 26a153 153 0 00-40 6l-17 5-14 4-6 2-17 5-75 16-12 2-22 2-27 2c-20 2-37 3-64 3a217 217 0 01-42-3l-37-6q-17-3-30 10-6 8-5 10c2 3 26 8 45 10l15 2 44 1a603 603 0 00 133-15l17-4 31-8 18-6 26-8c2-2 26-10 32-12l13-3a123 123 0 01 33-5q8 2 11 5a37 37 0 01 8 19c1 12 2 13 10 21a34 34 0 01 8 15l5 9c7 9 9 11 10 16l-1 9-2 5c0 2-3 4-23 24-14 14-17 18-20 27l-4 14q-2 4-5 2-3-1 0-16c2-14 3-17 15-23l12-7 10-12 2-5a40 40 0 00 1-25l-2-5q-1-3-7 0l-1 7q1 19-15 35l-4 4h-9a34 34 0 01-17-5q-13-5-17-16-9-16-5-24l2-5 2-6 3-6q0-3 7-10l7-7-5 1a30 30 0 00-22 16 54 54 0 00-4 39 57 57 0 00 18 35q13 12 12 19t-10 13q-21 11-27 27c-2 4-2 15-1 20s2 20 0 25l-3 7-2 5-3 5-3 6-14 15c-14 14-22 17-40 12l-11-2q-14 1-15 16c0 7 2 10 14 19q5 5 5 13c0 10-11 18-18 14q-6-5-1-6 8-3 9-10 2-12-10-13-8 1-14 13l-3 6-2 5q-3 15-4-4c0-9 1-11 3-15q3-4 1-6a16 16 0 00-11-7q-3 0-5 2c-4 4-6 16-4 20l3 7 7 11h106l11-9 4-4q22-22 23-27l14-20 7-13 8-16 11-13 9-11 1-1 3-7q4-12 2-18l-5-17 4-19 2-8q0-6 7-20l6-9 14-11 16-15 7-9 3-3 5 7 16 20 30 25c21 16 20 15 48 31 20 12 29 19 35 30l4 8a33 33 0 01 3 24c-3 7-4 8-15 7-19-2-26 0-35 8l-11 15c-5 11-6 14-4 19q2 3 7 3 13 0 12-13a20 20 0 01 6-13l6-3c4-3 5-3 16-1 18 1 23-1 29-12l4-14v-24l-2-6-3-6-2-3-6-7a84 84 0 01-17-20l-2-18q-1-13-3-16-2-5-11-13-12-11-12-15l-4-7-7-11-6-10-5-8-12-17q-3-2-10-2-19-2-29-13l-8-8q-6-5-11-3-3 3 0 9 4 5-2 16-6 12-12 13-9 0-11-12-5-12 2-15l3-4 2-3q5-6-1-17l-14-14-7-6q-3-3-34-9zm-862 11c6 0 7 5 1 7s-14 11-14 18l2 6q2 4 1 6-3 4-7-1-3-2-3-10c-1-9 2-13 10-21q7-6 10-5m902 13 3 1 4 4c2 2 2 10 0 12s-10 1-12-2q-2-3 0-10 2-5 4-5zm-587 3q-2-1-5 7l-3 8-5 9-4 7-1 3-1 2-3 5-6 11-12 26-1 2-4 12-2 6-2 7-3 6-3 10-2 9-1 3-1 4-2 6-2 7-3 9-5 10-4 10-3 9-4 10-2 6c0 4-12 22-20 31l-4 7c0 2-3 2-23 3-31 0-41 3-55 17q-13 14-15 25-1 6-5 11-13 12-8 27l2 5 1 2v1h26v-5q0-6-3-11l-3-7 5-5q5-4 5-7 3-4 0-6l-4-4 2-4q3-3 2-5 1-5 6-11c5-6 10-6 19-9l17-3 30-4 6-1c3 1 13-9 15-15l3-5 7-16 1-3 10-22 2-6 4-8 1-4 7-17 3-9 2-9 5-16 5-15a179 179 0 01 13-37q12-24 22-33c10-11 10-11 9-16 0-7-5-21-6-20m481 34q-7 0-9 3l-4 3-4 4c-2 0-9 22-11 32l-2 11c0 4 1 24 4 35l2 12 4 18c2 5 2 9 3 22q0 22 3 37 2 7-4 13l-5 7q-6 10-22 13c-4 1-5 1-11-1l-13-4c-6 0-7 0-12 2a98 98 0 00-26 24l-2 3c-2 0-4 7-4 10q1 8 7 12 7 5 8 0v-8l-1-6 3-6c2-5 12-14 16-14l12 1 9 3c16 4 26 0 41-15l14-17 4-10q2-6-2-20v-28q2-3-4-24l-3-13-2-7-2-14-1-29 2-12 5-14c4-10 6-12 9-15l4-5q-1-3-7-3zm172 14h3a50 50 0 01 35 25l2 4c4 4 13 18 13 19l1 1 3 5 13 19c5 6 6 7 8 12q4 9 1 12t-11 0l-31-16-12-9-18-14c-17-15-24-24-26-37-2-9-2-9 3-13q6-8 16-8m152 68 9 2q6 2 9 7 6 10 1 25c-2 8-2 12 0 34a138 138 0 01-21 95 52 52 0 01-19 9c-5 0-17 3-23 6-10 4-11 4-12-2-3-14-3-14 7-13q8 1 14-2 21-6 28-23c5-11 7-17 9-40 1-11 4-24 5-27q2-2-1-7-5-9-10-10c-9-3-20-10-20-14l-2-5c-6-13 2-29 17-33zm-279 55q8 0 15 8c7 7 9 10 10 21q1 5-2 10c-3 6-5 7-17 11q-13 3-13 8l-6 16-2 4-3 3-7 10a149 149 0 01-31 29l-11 5c-19 6-18 5-18 12l-1 7q-1 4-5 3-2 0-2-5 2-7-10-19l-7-8q2-4 15-2c6 2 8 2 14 0l11-4 19-14 6-6 7-9 6-7 9-17a31 31 0 00 1-19 31 31 0 01 0-21 31 31 0 01 16-15zm-542 48q5 0 7 4a15 15 0 01-2 18l-6 2q-5 1-8-2-6-6-2-14 5-8 11-8m-17 39q3 0 5 2c2 3 2 3 0 9l-5 11-4 7c-7 12-20 26-27 30l-6 3c-4 3-14 6-20 7l-7 1q-4 0-10-5l-2-6q-4-3 7-4l15-3 8-2c5 0 21-10 27-16 4-4 11-16 11-19l4-12q0-3 4-3m543 16c1 1-4 11-9 18-16 20-19 24-26 29s-7 5-10 4c-6-3-6-11-1-16l9-6a78 78 0 00 27-19zm194 12q-5 1-7 3l-3 6q-2 4 1 12l7 12q7 11 8 2l-1-7c-2-5 3-18 6-19 2-1 2-6-1-6l-5-2zm115 0a57 57 0 01-17 21l-6 4c-2 2-9 5-11 4l-3-2q-8-6-29 3-8 4-10 10l-2 4h-16l1-3 6-10 3-4q2-3 5-1 4 3 15-3a27 27 0 01 21-4l7 1 10-4 16-11zm-984 14c-3 0-7 6-7 9l-1 3c-2 2-3 9-2 13q0 4 5 4c10 1 11 1 14-1l3-3c0-2 5-10 6-10q3-1-2-6c-4-4-12-9-16-9"/><path fill-rule="evenodd" stroke="#000" stroke-width="1.236" d="M-1142-3434c-16 1-16 15-19 25q-22-17 0-46l112-1c16 0 16-15 19-25q22 17 1 46z"/><path fill="#fdd116" fill-rule="evenodd" stroke="#000" stroke-linecap="round" stroke-linejoin="round" stroke-width="11.124" d="M-1127-3449c8-461 312-616 385-647l-37 29c-284 225-292 436-290 620z"/><path fill="#d7eef4" fill-rule="evenodd" stroke="#000" stroke-linejoin="round" stroke-width="12.883" d="M-1151-2923h135l-108-52h277l-108 52h266l-109-52h278l-109 52h266l-108-52h278l-109 52h266l-108-52h277l-108 52h134l-1 39h-1309z"/></g></g><path fill="#fff" d="M2723 2476c73-4 83-15 38-40-29-15-27-16 51-16s79 1 50 16c-54 30-32 37 116 37 150 0 176-9 109-38-33-14-31-14 51-14 84 0 85 1 51 16-61 26-29 36 116 36 142 0 164-7 109-37-28-15-26-16 51-16s79 1 51 16c-55 30-33 37 115 37 151 0 176-9 110-38-34-14-32-15 51-15h86l-38 21c-44 23-34 30 54 35 32 2-233 4-590 4s-618-2-581-4M2654 2479v-13h64c58 1 63 1 60 2-4 2-19 5-33 6q-38 2-4 3c99 4 1106 3 1146 0l9-1h-11c-28-2-54-5-61-8-3-1 6-1 62-1l65-1v6l-1 12v8H2654zm181-20q-1-6 27-22c18-10 19-12 15-14s-74-4-110-2c-21 1-23 1-22 4 0 2 5 5 23 16l15 11-80-38h218l-4 3-41 19-38 18-2 4q-1 4-1 1m68 13c-21-1-46-3-53-5a4313 4313 0 01 251 1q-30 5-129 5zm212-10c2-6 2-6-43-27l-41-20 53-1h109l54 1-40 19-42 21-2 4q0 3-2 2l-1-4q-1-7 36-24 17-8 13-10l-6-1h-133c-6 2-3 4 19 14q33 16 32 22l-2 4q-6 5-4-1m134 11-70-5h248l-55 5zm242-18q1-4 25-18c16-9 18-11 15-13s-14-3-66-3-63 1-66 3-1 4 15 13c14 8 25 16 24 17l-80-38 54-1h109l53 1-42 20zm65 18-52-5a4666 4666 0 01 256 0l-38 4c-19 1-138 2-166 1m213-11-1-5-42-22-42-19 54-1h109l54 1-39 18-40 19q0-2 32-19l22-12h-134c-19 1-22 1-22 3q-2 2 21 12 34 15 34 22c0 2-5 7-6 7zm-1114 18v-13l65 1c70 0 68 0 69-6 2-5 1-6-43-27l-41-19 109-1 106 1-41 20c-36 17-40 20-41 22q-3 6 4 8c3 2 11 2 134 2h134c6 0 9-7 4-12l-42-21-40-19h216l-32 15c-46 23-50 24-51 27q-3 6 5 8l135 1h130l3-2q7-3 4-8l-28-15-41-20-15-7h109l107 1-80 38q-3 1-4 6 0 4 6 6c4 2 268 2 271 0q3 0 3-5 0-4-3-5l-76-38-6-3h108l108 1-78 37c-2 0-7 6-7 8q2 5 6 6h130v11l-1 13c-1 2-58 2-648 2h-648z"/><path fill="#fff" stroke="#000" stroke-width=".947" d="m2696 1929-18-2c-2-1 3-73 7-102a672 672 0 01 324-509l-20 16a1024 1024 0 00-118 118 609 609 0 00-136 288 894 894 0 00-12 158v34h-5z"/></g></svg>