<svg xmlns="http://www.w3.org/2000/svg" viewBox="0 0 6626.3 3786.4"><g transform="translate(3798 5382.5)"><rect width="6626.3" height="3786.4" x="-3798" y="-5382.5" fill="#da0000"/><rect width="6626.3" height="2524.3" x="-3798" y="-5382.5" fill="#fff"/><rect width="6626.3" height="1262.1" x="-3798" y="-5382.5" fill="#239f40"/><path fill="#fdd116" d="M-251-3376c0 172-58 38-240 38s-180 54-180-118 15-301 197-301 222 208 222 380"/><path fill="#fdd116" fill-rule="evenodd" d="m-902-3802 19-20 38-30 31-15 17-5 82-1 15 10 24 18 15 11 12 17 23 13 14 36-10 23 10 22 5 26 2 68 14 5 23 20 22 16 24 9 20 4 56 14h197l52 3 82 24 63 31 72 33 52 36 40 13 35-2 19-26v-30l-20-25-44-34-60-43-46-36-24-22-20-38-9-39 8-24 10-25 36-19 38-6 41 5 28 10 35 5 19 20 17 41-11 4-42-8-26-16-6-36-44-8-34 4-31 16-21 22 2 40 27 36 46 34 44 30 49 29 37 32 22 32 11 44-10 29-27 28-32 13-43 3-46-15-39-16-27-7 7 47-11 102 12 41 47 25 17 44-4 44-5 57-8 44-22 23-31 10-43 1-21-12-7-34-1-16 34-37 34 5 5-30-6-21-33-33-60-31-43-44-6-11-22 23-27 33-14 38 3 35-14 26-27 49-47 58-100 5-11-28 3-14 6-23 32-28 29 9 20-9 22-20-1-34-3-37-8-56 12-52 3-7-20-35-180 33-98-4h-36l-36 20-9 36-29 22-33 49-35 72-20 30-20 46-60 34-101-2-3-25 14-34 25-26 41-5 22-3 33-69 26-76 27-64-19-11-35-15-96-28-65-9-52 24-14 31-35 6-12-16 6-35 5-13-16-44 6-33 18-20 48 4 29 34 32-5 95 12 6 2 16-17-18-221-2-46-9-28 20-48 2-29z"/><path d="M-482-3982h-7v15c0 19 1 68 2 95q1 22.5 2 60 1 55 1 57 0 1 3 0c3 0 3 8 4-71 0-31 1-62 1-70s1-30 1-50v-35l-2-1zm-71 6h-3q-13 0-9 10a1255 1255 0 01 7 32l4 20a633 633 0 00 5 27 2324 2324 0 01 16 84 649 649 0 00 8 39 34 34 0 01 1 6q0 2 1 4 2 4 6 1 2-1 1-8-1-6-2-14l-2-10c-1-5-4-24-5-36a58 58 0 00-2-9 35 35 0 01-1-7l-4-28-9-57q-2.5-18-5-33a77 77 0 01-1-12q0-9-5-9m139 1h-1q-2 0-2 2-1 1-7 43a4153 4153 0 01-8 62l-4 31-3 17-3 18q-3 23-7 47-1 4 1 4 7 6 8-12 1-8 3-17s2-11 2-13 1-6 1-6 1-4 1-6a18 18 0 01 1-5q1-1 2-7s2-11 3-16l3-17a468 468 0 01 4-24l6-37 5-29q1-6.5 5-28 0-4-9-5zm-208 8q-2 0-7 1-11 2-9 8 1 3 1 4s3 6 5 11l6 14q1.5 3.2 6 14l4 11q2 4 2 6s1 3 2 6l9 22 8 19 3 9 3 9q2 4 4 10l7 18a571 571 0 01 10 27q3 8 9 25 3 7 4 10 6 6 4-6l-9-28-4-12-4-11-3-11a376 376 0 01-6-20q-1-2-2-6l-12-36q-6.5-19.2-10-31-3-10-5-16a31 31 0 01-2-7q0-2-1-4a274 274 0 01-10-33q0-3-3-3m282 13q-2-2-7 14l-5 15a34 34 0 00-2 6q0 2-2 5a41 41 0 00-3 7 417 417 0 01-14 40q-1 2-1 4s0 2-1 4-3 7-4 13q-3 10-4 12a5 5 0 00-1 3q0 2-1 4l-2 4-4 11-6 18a528 528 0 01-9 25l-3 8c-8 19-8 19-6 21q6 4 8-4 1-3 3-8s4-9 5-14q5-15 6-17t1-4a5 5 0 01 1-3c1-1 8-18 10-26l3-6a7 7 0 00 1-4q0-2 1-3s1-2 1-3 0-2 1-2 2-2 2-5 2-7 3-9a22 22 0 00 2-5q0-1 1-3l2-5 3-6q2-4 4-9s3-7 4-10a132 132 0 00 5-14l9-22 3-9q2-6 3-8s1-3 1-5q1-4-2-5a32 32 0 00-7-2m-349 30q-1 0-2 1t-2 1s-3 1-4 2q-3 1-1 5 1 3 2 3t1 1a22 22 0 00 3 6l9 15 9 15q5 10 8 8 4-1 1 1s-2 2 0 7q2 5 3 6l2 4q2 3 4 8 3 4 6 11s4 8 6 9 2 3 2 4q0 1 1 1t1 2 2 3q6 2 8 0a287 287 0 00-15-30q-1 0-1-2t-3-7a80 80 0 01-4-9q-1-4-2-5-1-2-6-10a686 686 0 00-19-35 71 71 0 01-4-8q-3-6-4-6m415 2q-3 2-5 7 0 2-1 2t-2 3l-8 14a570 570 0 00-12 22q-1 1-4 7a626 626 0 01-18 32l-10 20q-9 16-11 19a303 303 0 00-12 22 172 172 0 01-9 15q0 1-3 6-5 8-10 18l-3 5 2 2q4 3 6-1 1-3 8-14 4-6 4-7s1-3 3-5 4-7 6-10a439 439 0 01 12-21c4-8 13-23 14-23a20 20 0 00 2-4 15 15 0 01 3-5 17 17 0 00 3-4q3-6 10-16 5-7 5-9 0-1 1-1t2-2l7-11q5-8 6-10 0-1 3-5s3-5 3-5 2-3 3-5 3-5 3-6q0-1 1-1t2-4q1-3 2-4c1 0 6-11 6-12a54 54 0 00-10-8m-236 19h-11l1 6a3223 3223 0 01 10 90q3 24 4 40 1 9 2 11t4 0q2.5 1.2 2-14a395 395 0 00-2-22q-1-9-1-18s0-14-1-20q-1.5-14.8-3-52 .8-24-6-21m54 3q-2 0-2 3s-1 10-1 18a902 902 0 01-2 29q-1 14-2 34-1.8 20.5-2 41a265 265 0 00-1 22q1 1 2 1c3 0 4-2 8-40l2-18q2-10 4-39 2-21 4-37 2-10-1-10a15 15 0 00-6-3zm-112 9h-4q-9.8-3-3 15a638 638 0 01 7 25q1 2 2 8l19 68q2 5 5 19 1 6 3 9 2 2 3 2l2-1q1-1-2-12a758 758 0 01-8-31 956 956 0 01-8-33q-4-17.8-5-22-3-10-4-17-1-4-2-5t-1-4-2-12zm173 2q-5-1-8 15a1920 1920 0 01-18 77 1189 1189 0 01-9 36q-4 11-2 12 3 3 6 0a47 47 0 00 2-8 29 29 0 01 2-7 5 5 0 00 1-3 9 9 0 01 1-4 38 38 0 00 3-12q0-2 1-4 2-5.8 7-22a34 34 0 01 2-6q1-2 2-6 2-7 9-32l8-27q2-5-5-7zm-362 6h-8c-13 1-34 8-36 11q0 1 5 5c8 7 21 26 26 38a46 46 0 00 4 7q2 3 7 3 7 1 7-8 1-4 2-6a58 58 0 01 10-17c0-2 14-14 21-18q5-3 5-5c0-5-22-10-41-10m545 1q-2-1-7 6a71 71 0 01-5 6 74 74 0 00-6 8 84 84 0 01-7 9 70 70 0 00-5 6l-26 32-7 8-4 4s-2 2-4 5l-6 6-13 16a2177 2177 0 00-35 43l-6 8q-5 6-8 9-6 6-2 9a8 8 0 00 3 2 77 77 0 00 9-10 693 693 0 01 16-18l16-18q13-15 20-22 5-5 5-6 0-2 9-11 3-3 7-8 13.5-15.5 24-28a1080 1080 0 00 26-30l10-12q4-5 5-7-2.2-6-9-9m-129 11q-2 0-5 8l-6 13a462 462 0 01-9 21l-2 5-5 10-8 18a95 95 0 01-5 11 68 68 0 01-5 13l-4 10c0 1-8 19-10 21q-1 2 0 4t3 2c2 0 21-39 21-42q0-1 1-2 1-2 8-14l8-16 26-50q3-8-6-12zm-285 4h-1q-8 2-9 4a917 917 0 01 26 52q0 1 1 1 1.8 3 14 30l17 36 4 8 2 1q3-2-1-11a41 41 0 01-3-7q0-1-1-1t-1-2-3-9a422 422 0 01-12-28l-6-12a49 49 0 01-3-7q0-1-2-4-4-9-8-19a355 355 0 00-7-18q-8-18-9-16m-190 0q-2 0-9 1a63 63 0 00-20 12q-9 6 3 14 6 5 8 7s3 4 7 8q6 6 9 10l6 7q2 3 3 4s1 2 1 2q.2 4 14-4s15-8 15-11a87 87 0 00-13-24q0-1-2-3a66 66 0 01-5-6 120 120 0 00-8-10q-5-6-8-6m113 1-4 2a95 95 0 00-30 32q-6 11.5-6 14-1 4 5 5 5 2 8 5s4 4 5 4 2 1 3 0q4.5-3.5 6-7 0-1 2-3l5-6a58 58 0 01 16-15 67 67 0 00 10-8l4-4-6-6q-6-5-8-6-1 0-2-1a31 31 0 00-6-4zm416 25q-3 1-6 6l-20 29-26 39-2 2a816 816 0 01-20 29c-1 1-10 14-10 14l3 2q4 4 9-5c4-6 15-20 17-23l7-9 7-10q2-2 10-13l21-28q1-1 1-2s1-2 2-3l4-6 6-7q3-4 3-6-2-6.8-7-9m-576 4q-4.5 2.2-9 6a304 304 0 01-12 10q-1 3 3 4 6.2 1.5 17 9l7 5a86 86 0 01 19 21q2 4 3 5a38 38 0 00 13-8q12-7-11-28c-9-9-28-24-30-24m200 0q-1 0-5 2-5 3-9 7a24 24 0 01-5 4c-3 0-27 24-27 27q0 2 4 5s6 5 9 8q7 10 13-1 10-16 31-28 6-4-1-12a21 21 0 01-4-6q0-2-3-3-2-1-3-1m505 7a15 15 0 00-5 3l-14 12q-7.2 6.2-19 17l-18 16a793 793 0 01-22 19l-20 16a2743 2743 0 01-54 46l-13 11q-12 9-6 12 2 3 7-1l12-10 11-9a3156 3156 0 01 49-37 175 175 0 01 10-8l6-5a17 17 0 01 4-3q1 0 2-1l15-12a2271 2271 0 00 37-30 604 604 0 00 21-18l4-4-4-6q-4-5-6-6m-473 22a50 50 0 00-18 7q-26.8 11.8-25 28-1 8 3 11 13 13 28 0 6-5 6-12 0-9-8-10-6 0-9 6-5 8-5-1 1-9 7-11a7 7 0 00 4-2q2-2 8-2 11-1 12 11 3 13-8 24-3.2 5-14 7-16 4-16 10t12 10a50 50 0 01 13 7 245 245 0 01 26 24q1 2 3 3t3 0s1-4 1-16q-.5-22.8-4-20-2 0 0-1 3-1 1-3-1-1-1-3s-2-3-4-5q-7-4-2-8a57 57 0 00 7-16q1-5 0-11-3-12.8-6-15-1 0-3-3a48 48 0 00-5-6q-3-3-7-3m-260 1q-14 0-20 14a28 28 0 00 5 30q4 4-2 10a53 53 0 00-12 23 37 37 0 00-1 18 43 43 0 00 2 10q0 4 11-6 6.5-6.5 13-10l8-5q3-2 18-6l7-2 1-5q1-4 1-9v-4h-7q-15 0-21-12a45 45 0 01 0-25q2-3 2-4s1-2 3-4q2-3 8-2t9 4q7.2 13.5-2 9-4-4-9 0-6 6 0 15 4 7 12 7s12-6 14-13q1.2-10.8-2-14-1 0-1-1c0-4-16-15-27-18q-4-1-8-1m651 3q-1 0-2 1c0 1-20 22-34 37l-21 21-29 30a214 214 0 00-16 17q0 1 2 3t3 2q5-3.5 52-49l16-15a1847 1847 0 00 32-30q5-5 6-7s-1-3-3-5q-3-3-3-4s-1-1-2-2m269 8q-11 0-18 1a278 278 0 00-30 7 91 91 0 00-33 27 97 97 0 00-12 27 95 95 0 00 5 56 153 153 0 00 23 37 251 251 0 00 33 32l17 13 5 4q5 3 7 5a241 241 0 00 20 14c3 2 19 14 28 20l9 6q13 8 16 11l15 11a217 217 0 01 34 32 46 46 0 01 9 22 50 50 0 01-3 22 19 19 0 00-2 5c0 2-10 12-15 14q-3 2-16 2h-12l-15-6c-14-6-57-27-60-30q-2-2-14-9a459 459 0 01-23-14 589 589 0 01-31-17q-9-5-14-8l-21-10a343 343 0 00-65-25l-19-6a461 461 0 00-66-16q-9-2-31-4c-10-1-93-1-95 0s-61 2-87 2a370 370 0 01-37-2l-19-3a310 310 0 01-16-3q-9-2-9 0a68 68 0 00-2 19v7l9 1 18 1c16 1 82 1 108 0 56-3 146-4 160-2q12 2 12 0 4-4 32 3a189 189 0 01 18 5c1 1 18 6 28 9a68 68 0 01 9 3q3 1 4 1c3 0 21 7 25 10q4 2 7 4s6 3 9 4l12 6q8 4 37 20a82 82 0 01 8 5q5.5 4 32 17a219 219 0 01 16 8c6 5 29 17 40 21q6 2 11 4s5 2 6 2 4 1 7 3a91 91 0 00 21 5 58 58 0 00 22 1 42 42 0 00 25-13q7-5.5 8-14a70 70 0 00-5-42 14 14 0 00-3-5 16 16 0 01-3-4 231 231 0 00-40-38q-18-14-32-23a657 657 0 01-24-17 984 984 0 00-41-30 361 361 0 01-23-18q-2-2-13-12a52 52 0 00-13-10q-3 0-4-5-1.5-5.8-6-10-1 0-1-1t-3-6a22 22 0 01-3-7q0-2-1-2t-2-5q-1-4-2-7a59 59 0 01-3-17q0-4-1-5-2 0 1-18 3-21 9-29 2-2 2-4s3-4 7-7a83 83 0 01 45-21q8-2 20-2c24-1 54 5 67 13q6 4 13 4 16.8.5 26 7 11 10 14 17l14 30q3 6-4 5-4 0-9-2s-9-2-14-2a59 59 0 01-28-9 31 31 0 01-11-10 28 28 0 01-4-7q0-1-1-2-1.2 1.5-1-12v-9l-5-3q-30-18-82-6a117 117 0 00-24 9 67 67 0 00-25 34 76 76 0 00-2 21 99 99 0 00 10 31c6 12 31 37 53 52l15 11q8 6 14 9a746 746 0 01 43 27l21 14q4.8 2.5 11 8l17 14q19.2 15 28 27 3 4 4 5c4 4 16 28 16 33q0 3 1 6a96 96 0 01 0 32 80 80 0 01-18 32l-8 7a19 19 0 01-5 3 67 67 0 01-21 8 73 73 0 01-31 4 88 88 0 01-38-6 1604 1604 0 01-70-24q-10-4-16-7-12-6-18-2-5 4 1 18 3 6 3 8s0 2 1 2a58 58 0 01 5 18q2 17-3 58-1.8 18-8 36-4 13.2-2 22 4 21 12 31 7.8 11.2 2 18a12 12 0 01-6 2q-7-1-15-12l-4-5a202 202 0 01-17-38c-2-7-2-37 0-46l2-12 2-10q3-12 3-34-1-28-3-31-1-2-2-7c-4-17-15-42-21-50q-7-8-12-6-6.8 0 6 21s12 23 15 45c2 14-1 44-6 61a128 128 0 00-8 39q-.5 15.5 8 34c2 5 16 34 17 35a107 107 0 00 25 29q4 1 2 11-1 8 1 14 5 15.2 13 26s16 22 17 26a98 98 0 01 3 34q-3 26-14 34-6 6.8-24 3-14-4-18 4a22 22 0 00-3 18q2 4-2 7a38 38 0 00-6 9 28 28 0 00-3 16q0 9 1 10l3 3q1 1-2 1l10 4H5l3-3H7l2-3a171 171 0 01 10-10 62 62 0 00 15-21c5-10 5-10 6-21q2-14 4-25 1-7 4-24 1-5 2-7s1-5 2-9l2-13a55 55 0 00-2-26 43 43 0 01-1-24 50 50 0 00 1-12q0-14-5-18-2-2-2-3s-1-2-2-2q-2-1-2-3s-1-2-2-2a42 42 0 01-8-4 83 83 0 00-14-7 99 99 0 01-14-7q-6-4-11-6-7-3-14-16c-4-6-4-6-4-21q0-19 4-28 4-10 5-25l2-14q1-6 1-28c0-23 0-24-2-30q-6-12 7-6 8 2 20 6s15 4 19 5q50 15 77 17a81 81 0 00 22-2 131 131 0 00 17-4 131 131 0 00 24-12 119 119 0 00 22-24c8-8 13-37 10-52a173 173 0 00-4-18 98 98 0 00-10-19q-3-4-4-6 0-1-1-1t-1-2c0-2-23-26-34-35q-7-6-12-9s-5-4-6-4q-1-1-2 0 0-1-6-5l-30-20q-5-3-7-5-1-1-2-1t-2-2q-2-2-6-4t-5-3l-6-4a217 217 0 01-22-14 86 86 0 00-10-6c-1 0-12-8-13-10a230 230 0 01-25-20c-20-19-21-21-27-37a55 55 0 01 1-44 29 29 0 00 2-5q1-4 13-13a76 76 0 01 31-13l12-2c14-4 41 0 52 7q5 .5 4 10 0 16 6 24a44 44 0 00 16 15 127 127 0 00 42 10q6 0 17 2 21 4 20 0 0-2-1-3s-3-4-5-8a431 431 0 01-18-36 45 45 0 00-4-7l-6-8q-5-6-6-6s-2-1-2-1q-2-2-10-6l-9-4h-12q-13 1-15-1a169 169 0 00-64-11m-147 29-4 2-7 4a702 702 0 01-27 16 1817 1817 0 00-39 23l-36 22-7 4q-3 2-8 5s-7 4-10 6l-12 7a113 113 0 01-9 5l-10 6q-8 5-14 8-12.5 5.5-7 8 2 2 4 3 4-1.8 32-17l60-33 24-13q13.8-7.8 38-20c32-18 31-17 37-19q5-2 4-5a32 32 0 00-3-8zm224 2q-7 0-7 10-1 6 4 13c5 7 18 17 22 17q2 0 3 1 2 1 6 2s7 1 10 1q7 1 5-3 0-3-1-4t-1-2a49 49 0 00-8-16 44 44 0 00-33-19m-712 0q-1 0-2 2c-1 2-1 3 10 22l6 10q4 8 6 4 2-2 0-4-1-2-1-3s-1-2-2-3-5-8-9-16a59 59 0 00-8-13m405 8q-1 0-1 1a33 33 0 01-7 6l-14 10q-7 5-13 9s-6 5-8 6l-5 4-11 8q-8 6-17 12s-10 7-12 8q-7.5 6.2-24 17a28 28 0 00-7 5q0 1 2 3 2 5 11-2l10-7 27-18q2-1 7-5s5-3 5-3 5-3 11-7q10-7 13-8 3-2 5-4a84 84 0 01 9-6l11-7 8-5q10-4 6-9-5-9-6-8m-527 16q-2 0-5 1-5 2-1 7 2 1 2 14v12a50 50 0 01 9-2c9-1 24-10 24-14q1-6 6-10a3 3 0 00 2-3q1-4-5 0a20 20 0 01-7 2 60 60 0 01-18-7q-3-2-7-2m-62 6a7 7 0 00-2 1q-2 1-10 0-15-2-21 4a9 9 0 01-3 2q-3 4.8 0 11 2 1 6 1t7 1a18 18 0 00 5 2q3 1 6 4l6 4q4 2 6 1t1-3-1-8v-10q0-3 1-6 2-3 0-3m130 20-2 4a46 46 0 00-3 21q1 7 14 8a15 15 0 01 8 4c5 5 6 11 7 45l1 52c0 11 1 40 1 64s1 45 1 46q2 4 9-1 10.2-7.5 13-12 0-1 2-4c5-7 5-12 3-135q-.5-39.2-4-44-1-1-1-3 0-4-9-18a67 67 0 00-18-17l-7-4q-3-3-10-3zm-208 1q-17.2 1.8-36 20a63 63 0 00-12 22c-4 12-4 13-3 36a8529 8529 0 01 3 112c0 26 1 30 5 52 3 16 3 16 6 24l5 20q3 12 6 16 2 3 4 3c2 0 2-4 1-44v-56c0-9-1-64-2-85a909 909 0 01 0-45c-1-8-1-29 0-31a51 51 0 01 20-17 48 48 0 00 8-3 58 58 0 00 0-22q-1-2-4-2m782 13q-3 0-27 10l-25 9-28 10-53 20-9 4-11 4-16 6a482 482 0 01-19 7q-11 4-16 6-6 1-1 8 1 1 3 1 2-1 11-4a498 498 0 01 30-11q27.5-10.2 73-25c15-5 58-20 75-25 19-6 18-6 16-14q-1-5-4-5m-85 0q3-1.8-36 16l-20 10-19 9q-12 6-13 6-2 0-11 5l-21 10q-14 6-8 10 1 1 2 1l24-11q6-3 15-6l15-6q6-3 18-8l16-7 9-4q6-2 8-3s7-3 13-6q13-5 11-7-1-7-4-8m-540-3q-2 0-9 9a51 51 0 01-6 7q-1 1-1 2 2 2 4 0 1-1 9-5t9-5q-.8-5-6-7m-103 2q-1 0-3 4-3 7 3 7l8 2q8 3 9 1 0-1-5-5s-6-5-8-7q-2-2-3-2m74 8q-1 0-3 1-3 2-2 4t1 8q1 6-2 10-2 4-8 3-6 0-8 1s-3 0-4 0a24 24 0 00-7-1q-8 1-7-14 2-14-6-4a40 40 0 00-9 24q-1 7 4 10 4 4 7 4 6-1 4-3-2-1 0-3 2-5 8 1a10 10 0 01 3 7q4 28.5-19 27-8 1-11-2-8-6-7-22 2-14-6-13-8 0-8 13 1.8 27.5 26 34 8 1 20-4 13-6 20-2a61 61 0 00 22 5q14 0 18-6c3-4 4-6 7-27q1-10-10-6-5 0-2 10 5 30-27 20-15.8-3-12-15 0-8 2-11 5.5-6.2 8-5 0 1-2 2-3 2 0 4a19 19 0 00 18-7 19 19 0 00 4-20q-1-2-1-4a31 31 0 00-7-12q-2-3-4-3m-83 9q-1 0-2 1t-2 3a25 25 0 01-2 6q-2 4-2 5s3 1 7 1q6 1 7 1h7q12 1 2-6-12-10-16-10m132 1c-5 0-25 3-27 4q-4 3 8 5l10 2q6 2 8 1s1-2 1-4 0-5 1-6q1-2 0-2h-2m27 4a16 16 0 00-11 4l-2 2v25a4766 4766 0 01 2 109c0 42 1 76 1 77q2 3 10 0 4-2 9-3c10-4 9 0 9-48-1-120-2-137-2-143q-3-15.5-12-22-2-1-3-1m-201 5q-7.2 2-10 7 0 1-1 2c-2 1-1 61 0 107 1 18 1 134 1 166 0 22 0 28 6 42a65 65 0 00 7 14 29 29 0 00 3 5q3 4 3 6s1 2 2 3q2 4 5 0 2.5 1.2 2-17-1-36-2-116l-1-75a907 907 0 01 0-34l-1-41c-1-43-1-48-8-62q-3-7-7-6m716 26c-5 0-67 17-81 22-3 1-38 11-50 14q-9 2-7 5 0 2 1 4 0 1 1 1 6.8-.8 15-3a316 316 0 01 26-7l25-6q13-3 17-4s9-2 17-4l24-6a52 52 0 00 12-4q2.8-5.2 1-12zm-542 10h-1q-3 0-4 4l-1 7a35 35 0 01-8 15q-8.2 5.8-21 10a60 60 0 01-26-2 34 34 0 00-23 1q-23 10-35 3a73 73 0 00-7-4q-11.5-8.8-14-28 0-4-6-3-3-2-2 11a4640 4640 0 00 2 145c0 11 1 55 1 98 0 46 0 80 1 81a19 19 0 00 3 5q3.5 10 16-16l9-18v-93q-.8-122.8 0-136 1-3 5 1a34 34 0 00 18 9q5 0 11-1a148 148 0 01 22-1q21.2 1 29-7 3-2 5-2 2.5-1 2 13v63c0 19 1 34 1 35q0 2 5 0a76 76 0 00 22-11q1.2 3.2 1-55a5842 5842 0 01 0-108q1-20-3-17m620 4q-8.8.2-28 5l-12 3a375 375 0 00-26 6c-9 2-50 10-78 16a3952 3952 0 01-60 12q-10 1-6 6l2 2 10-2c15-3 17-3 60-11l27-5c10-2 43-8 60-10l25-4 20-4q14-1 10-9-1-4-2-5zm-527-2h-1q-1 2 0 19 1.2 18.5 1 40-.5 26 2 22c4 1 12 16 13 26 3 17 2 20-2 34a65 65 0 01-12 20 102 102 0 01-32 19 402 402 0 01-39 11 347 347 0 00-55 18 106 106 0 00-19 12l-5 4a119 119 0 00-26 35 86 86 0 00-7 24 89 89 0 00 6 25 46 46 0 00 34 25l7 1c2 0 18-4 19-5l8-4c15-7 34-32 38-51a76 76 0 00 2-36q-3-10-7-12-4 1-6 13a130 130 0 01-7 28q-7 14.8-11 22a44 44 0 01-23 18 37 37 0 01-23-1 40 40 0 01-16-18 64 64 0 01 0-23l3-6c2-4 20-23 22-23q1 0 4-3s6-4 10-6l8-4q8-4.2 25-7 7-1 11-2a78 78 0 01 9-2 174 174 0 01 20-4q38.2-7.2 60-22 21-17 24-37l1-8q4-31-6-47-5-8-12-10-8-2-2-4 7-2 11-10 2.5-1.8 2-23c0-24 0-25-15-36q-12-9-14-9m46 35q-4-1-3 16 0 13 1 16 0 2 15 5 13 3 13-1 0-3 1-14c1-14 1-13-12-18l-11-4q-2-1-4-1m413 8q-4 0-13 1c-24 3-66 7-67 7q-1 0-1 1t4 2s6 1 8 2q6 1 29 0 42.2-.8 41-3 2.8-5.5 1-11zm-622 10a42 42 0 01 20 6q3 2 8 0 5-1 6 0t-5 4-16 3q-21.8-.5-27 2-15 4-17-2-2-5 5-5a36 36 0 00 9-3 40 40 0 01 18-5m679 19h-19q-33.2-.2-38 1-1 2 4 4l7 2q6 1.8 33 2l31 2q6 0 6-6 0-2-3-4-1-2-21-2m-648 18q-1 0-2 1-3 1-12 2-11 1-12 3-2 2-1 3c1 1 1 52 2 95q0 23 2 20a5 5 0 00 3-1l13-10 12-9v-50c0-45 0-53-3-53m-64 6h-1q-1.2-2.5-1 88c0 48 0 88 1 88q2 2 4-3a92 92 0 01 21-33l6-6-1-10c-1-12-1-28-2-81 0-39 0-40-2-40a252 252 0 00-26-3m535 17q-4 0-5 2c-1 2-3 58-2 75a110 110 0 00 7 34 86 86 0 00 13 22q1 0 1 2 2.8 5.8 19 16a109 109 0 00 48 18 69 69 0 00 34-3q8-2 24-20a55 55 0 00 9-23 59 59 0 00 0-20q-1-10-3-16a186 186 0 01-6-21q1-7-15-6-15-1-9 8 2 5 5 8c11 15 11 47 0 62q-7 11-26 11-44.8.2-70-25c-6-7-14-23-14-28q0-2-1-4c-2-2-2-34-1-43q1-8 2-22 1-16-1-20a31 31 0 00-3-7q-1-1-4-1m-873 76q-1 1-2 1-3 1-3 2s-2 1-4 2a18 18 0 00-7 4l-6 5q-7.8 10.8-2 29 2.5 3.2 2 20 0 15 1 20 3 8 14 13l6 2-3 3a40 40 0 00-9 31q5 24 32 34 4 2 15 1 11.2.2 18-4 26-13 25-40 0-8-1-10t7-3q8-2 10-5t9-3a432 432 0 01 37 0q23 4 33 8 10 6 25 8 9 2 11 2s4 1 9 2l15 2 12 2q12 2 20 4s7 0 7-2q-2.2-6-6-9-2 0-20-14l-9-7h-11a261 261 0 01-68-12 83 83 0 00-32-7q-16-1-20-9-3-7 1-13 0-3.2 18 1a582 582 0 00 35 7q8 1 18 2s12 1 13 2l12 1q9 1 22 4 21.5 7.8 16-7-1-6-2-8-3-2-33-3a279 279 0 01-30-3q-18.8-1.8-18-2-7.5-2.2-27-6-19-3-19-8t14-4q8 1 10 2l12 3q10 2 16 4 3.8 2.5 33 2 29 .2 31 2 4 2 5 2 1-4-1-8-1-1-1-3 3.8-7.2-18-7a221 221 0 01-22-2 798 798 0 00-25-4 870 870 0 01-40-6q-8-2-14-2-8 1-15-6-4-4-18-11a16 16 0 01-5-4zm7 12q6 1 10 7 2 4 0 8-1 4-2 5-8 4-10-11-1-8 1-8zm499 21q-1 0-1 1-2 1-2 12a56 56 0 01-5 22l-3 9a177 177 0 01-26 48c-12 14-37 35-42 35q-4 1-5 5 0 2 3 4 3 3 6 7 4 4 3 12-2 27-23 18-10-5-12-13a91 91 0 00-7-20q-7-14-25-15-8-1-14 2c-6 3-18 11-18 13a15 15 0 01-3 4q-3 4-7 12s-5 10-6 11a62 62 0 00-7 14q-1 4-2 6t-4 12a335 335 0 01-13 38 125 125 0 00-7 17q0 3-4 11l-2 4-2 6-4 9a626 626 0 01-17 36q-3 4-3 8 2 2 7-1a155 155 0 00 26-42l8-19q2-3 2-4s1-1 1-3 2-6 3-9q2-5 3-8s0-3 1-3 4-8 8-17a263 263 0 01 7-17q1-2 3-8 2.2-6 9-21 2-4 8-10a31 31 0 01 21-10q5-1 8 2 6 5 6 14-.8 9-3 18a47 47 0 00-3 12 6 6 0 01-1 3q-1 2-2 5a78 78 0 01-4 10q-3 6-3 7s-2 6-5 12l-8 16a50 50 0 01-5 9q-3 4-4 2-2.8-6.2-1-11 1-1 1-3a44 44 0 01 3-12 97 97 0 00 3-20q0-4-3-5-6-5-18 20l-18 34q-2 3-3 4-2 2-2 3a56 56 0 01-8 15q-3 4-6 9-19 36-40 51a52 52 0 01-7 5q-1 0-4 2-5 4-11 0-3-2-10-1c-23 2-23 2-24 4q-8 8 14 7h26q22.2 1.2 28-5a51 51 0 00 13-14q0-2 3-6a124 124 0 00 8-16q0-2 2-6l3-7q10-22 13-24a34 34 0 00 8-9q8-12 10-6 1 2 0 6-2.2 8.2-6 12a165 165 0 00-16 24q-2 3-4 8a108 108 0 01-4 13q-2 7-4 11-1 2-1 4s0 3-1 4l-3 7a48 48 0 01-22 21q-8 4-31 9l-8 2q-3 1-3-2 1-6-10-11a36 36 0 00-12-4q-4 0-4-3t-4-5q-8-6-11 5l-4 9q-3 6 0 5 14.8-.2 22 10 1 3 2 3 2 2-1 8a35 35 0 01-4 6 24 24 0 00-4 7l-1 4h84-1l4-3a31 31 0 01 5-3l12-8q5-5 10-11t7-9a94 94 0 00 12-18 77 77 0 00 3-18q0-3 3-4 16-9 19-18 1-4 1-12-1.8-10.8 10-20 7.2-7.2 10-16 2-7 4-12s2-5 2-6c0-2 6-12 7-12q2 0 1 2-2 7 0 9 1 2 3 1 4-3 10-14l6-10a30 30 0 00 3-7q1-4 8-16 5-10 7-16 0-3 9-7 8-4 9-6a4 4 0 01 3-3q2-1 2-2t1-2 4-7a60 60 0 00 4-30l-1-6 14-14c23-23 30-32 37-47q2-3 2-4 1-1 2-4s2-4 2-4q1 0 1-2t1-3 3-8c8-22 8-29 4-44q-3-10-5-10m-434 13q4 0 4 10 0 8 2 12 5.5 14-4 22-10 7-1 6 14-1.8 16 4a65 65 0 01-10 3q-11 4-16 2-9-4 0-8h3l-2-4q-3-4 0-9a59 59 0 00 2-18q-1-19 5-19zm-52 25q1 0 3 1 6 4 0 15l-3 5h-16v-6q0-10 11-14 3-1 4-1m862 26q-18 0-39 6l-18 5q-10 3-13 4s-4 1-6 2l-17 4c-21 6-63 15-76 17l-12 2q-8 1-21 2l-27 2a554 554 0 01-64 2 215 215 0 01-42-3 1313 1313 0 00-36-6 31 31 0 00-30 10q-6 7-5 10c2 3 26 8 45 10l15 2a330 330 0 00 44 2 607 607 0 00 133-15 365 365 0 01 18-4 284 284 0 00 31-9q8-2 17-5a197 197 0 00 15-5q5-2 7-2t4-2a310 310 0 01 45-15c9-3 27-5 33-4q8 1 11 5a37 37 0 01 7 18c2 13 2 14 10 22q5 5 8 14a32 32 0 00 5 9q10.2 10.8 10 17 1 6-1 9t-2 5c0 2-3 4-23 24q-18.5 16.5-19 27l-4 14q-2 4-5 2s-1-6 0-17q0-16.8 15-23 9-5 12-7a60 60 0 00 10-12q0-1 2-5a40 40 0 00-1-30q-1-3-6-1-2 1-1 8a46 46 0 01-15 34l-5 5h-9a34 34 0 01-17-4q-13-6-17-16-8-17-5-24l2-5 2-6q1-4 2-4s1-1 1-2q0-2 7-9l7-7-5 1a31 31 0 00-22 16 54 54 0 00-5 39 58 58 0 00 18 34q13 12 12 20-2 7-10 12-21 11-27 27-3 9 0 21a63 63 0 01 0 24q-2 4-3 8a18 18 0 00-2 4 25 25 0 01-3 6 33 33 0 00-3 5q0 1-14 15-17 20.2-40 12a77 77 0 00-12-2q-14 1-15 16-2 7.8 14 20a16 16 0 01 6 12c0 10-12 19-19 14q-5-4-1-6s8-6 9-10q2-12-10-13-8 1-14 13a32 32 0 01-3 6q-1 1-2 6-3 15-4-5 0-11 2-14s2-5 1-7a16 16 0 00-11-7 8 8 0 00-5 2q-6.5 10-4 20 1 2 3 7l7 10h107l10-9 4-4q22-22 23-27a154 154 0 01 14-21q4-5 8-12l5-10 3-6s6-8 11-13q8-8 9-10 0-2 1-2t3-7q4-12 1-18a57 57 0 01-4-17 61 61 0 01 4-20q2-4 2-8 0-6 8-19 5-8 5-9 4-4.8 14-11a70 70 0 00 16-15l7-8 3-3 4 7a97 97 0 00 17 21 235 235 0 00 30 24c21 16 20 15 49 32q28 15 34 30l4 8a32 32 0 01 3 24q0 9.5-15 7-25-3.5-35 8a45 45 0 00-11 15q-8 15-4 19 2 4 6 3 13 1 12-13 1-7 6-13 2-2 6-4 2.8-2.8 16-1 23.5 4.5 29-12a60 60 0 00 4-14q1.5-17 0-25-1-1-2-6s-2-6-3-6-2-2-2-3-3-3-6-7q-15-15-17-21-1-4-3-17s-2-15-2-17a70 70 0 00-11-13 97 97 0 01-12-14l-10-19q-4-8-6-10a53 53 0 01-5-8 59 59 0 00-12-17q-3-2-10-2a42 42 0 01-30-13 96 96 0 00-7-8q-7-5-11-3-3 4 0 9 4 6-2 17-6 12-13 13s-8-5-10-12q-5-12 1-16 4-2 4-3s1-2 2-3q5-7-2-18a54 54 0 00-13-14l-7-6q-3-4-34-10h-6m-863 10q11 3 1 8-11 5.2-13 18 0 3 2 7t1 6q-3 4-7 0-3-2-3-10-2-12 10-22 6-6 10-6m902 13q1 0 3 1 3 2 5 4 3 6 0 12-6 2.8-12-2-2-3 0-10 2-5 4-6zm-587 3q-1-1-4 8l-3 8-5 9a39 39 0 01-4 7q-1 1-1 3t-1 2a23 23 0 00-3 5l-6 11a204 204 0 00-13 28q-1 1-2 6s-2 6-2 6l-2 6q-2 5-2 7l-2 6-3 10q-2 5-2 8t-1 3s-1 2-1 4 0 4-1 4q-1 1-1 3a18 18 0 01-2 7 25 25 0 00-2 6q0 1-1 3l-4 10a85 85 0 01-4 10q-1 1-1 2s-1 3-2 6a28 28 0 00-2 5q0 1-2 5a23 23 0 00-2 6c0 4-11 22-19 32a21 21 0 00-4 6q3.2 3.8-22 3c-32 0-41 3-55 17q-14 14-15 26 0 5-6 10-12 12-8 28l2 5q1 1 1 2h26v-5q0-5-3-11-2-5-3-7s2-3 4-6 5-5 6-7q2-3-1-6a24 24 0 00-3-4q-1-1 1-4t2-5q1-5 6-11 4-4 19-9 9-3 17-3a116 116 0 00 30-4q4-1 6-1c3 1 13-10 15-15q1-4 2-5a85 85 0 00 8-19 165 165 0 00 10-23 24 24 0 00 2-6q0-2 2-4 2-3 2-4s1-2 1-3q4-8 6-17 2-5 3-10 2-4 3-9t4-16s4-13 5-15a178 178 0 01 13-37q12-24 22-33 12.5-12.5 10-16-3-15.2-6-20m480 34q-6 0-9 3l-4 3q-2 2-2 3t-1 1c-2 0-9 21-11 32l-2 11c-1 4 1 24 3 34l2 12q2 11 5 18 2 4 2 22 0 23 3 37 2 7-4 13l-6 7q-6 9-22 13-5 2-11-2a47 47 0 00-13-3q-7-1-13 2a98 98 0 00-25 24q-2 3-3 3-2.8 2.8-4 10 0 7 7 12t9-1q2-3 0-8-2-4-1-6l2-5q6.5-10.5 16-15 7 0 12 1l9 3q21.2 7.5 41-15 9-9 12-13s2-4 2-4q2-2 4-10 2-6-2-20c-1-4-1-25 0-28q2-3-4-23a177 177 0 01-3-13l-2-14a107 107 0 01 0-48 41 41 0 01 4-14q5-12 9-15 3-3 4-5-1-3-6-3m173 14h3a50 50 0 01 35 25q0 1 2 4a152 152 0 01 13 20q0 1 1 1t3 4a75 75 0 00 13 19q6 7 9 12 4 9 0 12-3 3-11 0a293 293 0 01-31-16q-4-2-12-9c-11-9-10-8-18-14q-23.5-19.2-26-37-3.5-10.2 2-13a22 22 0 01 17-8m152 68q4 0 8 2 6 2 9 7 6 10 1 25-3 6 0 33a137 137 0 01-3 55c-4 15-13 35-18 40a52 52 0 01-19 9q-10.2.8-22 6-13 7-13-2-5.8-17.8 8-13 7 1 13-2 21-7 28-23s7-17 9-41a107 107 0 01 6-27q1-2-2-7-4-8-9-9-17.5-6.2-20-14a25 25 0 00-2-6q-7.2-23.2 17-33 6-2 9-2m-280 55q8 0 15 8 9.5 8.2 10 21 1 5-2 10-3.2 7-17 11-13 4-13 8-1.2 7.2-7 16a14 14 0 00-2 4 144 144 0 00-10 13 147 147 0 01-31 30 57 57 0 01-11 5c-19 6-18 5-18 12q0 5-1 7-1 4-5 3-2 0-2-6 1.2-6.8-11-18-6-6-6-9 1-4 15-1a25 25 0 00 14 0 70 70 0 00 11-4 94 94 0 00 19-14l5-6a243 243 0 00 13-15q2-3 10-18a31 31 0 00 0-18 31 31 0 01 0-22 31 31 0 01 16-15q3-1 6-1m-542 48a8 8 0 01 7 4 15 15 0 01-2 18 12 12 0 01-6 3q-5 1-8-3-6-6-2-14t11-8m-17 39q3 0 5 2 3 2-1 9a98 98 0 01-5 11l-4 8q-13.5 21-27 30a44 44 0 00-6 3 55 55 0 01-20 6 62 62 0 00-8 1q-4 0-9-4a5 5 0 01-1-3 5 5 0 00-1-3q-4-3 8-4a83 83 0 00 14-3 56 56 0 01 9-2c5 0 20-10 26-16a58 58 0 00 11-19q0-1 2-5s2-5 2-6q0-4 4-4m543 16q0 4.5-9 18c-16 20-19 24-26 29s-7 5-10 4q-9-6-1-16 3-3 9-5a78 78 0 00 27-20 82 82 0 01 10-9m194 12q-5 0-7 2-1 2-2 6-2 5 1 12 2 7 6 13 7 10 8 2 0-4-1-7c-1-5 3-18 6-19q3-4 0-6a17 17 0 01-6-1q-2-1-5-1m115 0q1 0 1 1a57 57 0 01-16 20l-6 4q-6 4-11 4-2-1-4-3-7-5-28 4-8 3-11 10l-2 3h-16l1-3a47 47 0 01 6-10q1-2 3-4 1-2 4-1 4 3 15-4a26 26 0 01 22-4l7 1 9-5q9-5 16-10 7-6 9-6m-984 14q-6 2-8 10 0 2-1 3-3 5-2 13 0 4 6 4 12 2 14-1 3-2 3-3 2.2-6.5 6-10 2-1-2-6-8-7.5-16-9"/><path fill-rule="evenodd" stroke="#000" stroke-width="1.2" d="M-1142-3434c-16 0-16 15-19 25q-22-18 0-46l112-1c16 0 16-15 19-25q22 18 0 46z"/><path fill="#fdd116" fill-rule="evenodd" stroke="#000" stroke-linecap="round" stroke-linejoin="round" stroke-width="11.2" d="M-1126-3449c8-461 311-615 384-647a1486 1486 0 00-38 29c-283 226-292 436-290 620z"/><path fill="#d7eef4" fill-rule="evenodd" stroke="#000" stroke-linejoin="round" stroke-width="12.9" d="M-1151-2923h135l-108-52h278l-108 52h266l-108-52h278l-108 52h266l-108-52h278l-108 52h266l-108-52h278l-113 52h135l-1 39h-1309z"/></g><path fill="#fff" d="M2723 2476q107.5-4.2 38-40c-28-15-26-16 51-16s79 1 51 16c-55 30-33 37 115 37 150 0 176-9 110-38-34-15-32-15 51-15 84 0 85 1 50 16-60 26-29 36 116 36 142 0 164-7 109-37-28-15-26-16 51-16s79 1 51 16c-55 30-33 37 115 37 150 0 176-9 110-38-34-15-32-15 51-15h86l-38 20c-44 24-34 30 54 36 32 2-233 4-589 4s-618-2-581-4m-69 3v-13h64c58 0 63 0 60 2q-10.5 3.8-33 6-39 3-4 3c99 3 1106 3 1146 0l8-1-11-1q-45.8-3.2-60-8c-3-1 6-1 62-1h65v5q0 5-1 13l-1 8H2655zm181-20q-2-6 27-22 23.5-13 14-14c-4-2-74-4-110-2q-26.8.5-22 4-2 2 24 16a57 57 0 01 15 11 851 851 0 01-40-19l-40-19h218l-4 2-41 20q-33.2 16.5-38 18s-2 2-2 4q-1 4-1 0m67 13a412 412 0 01-52-5c-2 0 52-1 127-1 111 0 129 0 123 1q-30 5-128 5c-27 0-58 0-69-1m212-10c2-6 2-6-42-27l-42-20h217l-41 19a1064 1064 0 00-42 21q-2 2-2 4 0 3-1 2a6 6 0 01-1-4q-1-7 36-24 17-8 13-10-2-1-6-2c-7-1-129-1-133 0q-11 1 19 14 34 15 33 22 0 3-2 5-6 4-4-1m134 11c-28-1-68-4-70-6h125q120-.2 123 1-12 3.2-54 5c-22 1-100 1-123 0m238-15q2-4 25-17 21.8-11.8 15-13c-3-2-14-3-66-3s-63 0-66 3q-6.8 1.2 15 13 23.2 14 24 16-3.5-1.2-40-19l-40-19h217l-42 20a682 682 0 01-42 19m66 18c-21-1-46-3-52-5a11758 11758 0 01 257-1c-1 1-23 3-38 4-19 1-138 2-166 1m213-11v-5q-2-2-42-22l-41-20h216l-39 19a932 932 0 01-40 18q0-1 32-19a572 572 0 00 22-12c1-1-109-1-134 0q-25.2.8-22 3-2 2 20 11 34 15 35 23-2 3.8-7 6-1 0 0-3m-1117 20v-13h65c70 0 68 0 70-5 1-6 0-7-43-27q-37-18.2-41-20s49 0 108 0q106 0 107 1l-42 20c-36 17-40 19-41 22q-2 5 4 8c3 2 11 2 134 2h134q10-2 5-11a682 682 0 00-42-21l-40-20h108c60 0 108 0 108 1s-15 7-31 15c-47 22-50 24-52 27q-3 5 5 8c4 2 14 2 135 2h130l4-2q6-4 3-9-2-2-28-15-25.8-12.2-41-20l-14-7h108c65 0 108 0 108 1-1 1-79 38-80 38q-3 1-4 6 0 4 6 7c4 2 268 1 271 0q3-1 2-5 0-4-2-6-5-3-37-18l-40-19-6-3h108c64 0 108 0 108 1-1 1-77 37-78 37q-5 2.5-7 8 1 5 6 6h130v24c-1 1-59 2-648 2h-648z"/><path fill="#fff" stroke="#000" stroke-width=".9" d="M2696 1928q-16-1-18-1c-2-2 4-73 8-103q41.2-300 258-465c20-15 65-45 66-44 0 0-14 11-20 16-40 34-88 81-118 117q-109 131-136 289a898 898 0 00-12 158v33h-5z"/></svg>