<svg
   xmlns:svg="http://www.w3.org/2000/svg"
   xmlns="http://www.w3.org/2000/svg"
   width="600"
   height="450"
   version="1.0"><defs></defs></sodipodi:namedview><g
     transform="translate(268.1 -251.6)"><path d="M-268 252h600v450h-600z" fill="#fff" fill-opacit stroke="none" style="overflow:visible"/><path d="M-268 552h600v150h-600z" fill="#da0000" fill-opacit stroke="none" style="overflow:visible"/><path d="M-268 252h600v150h-600z" fill="#239f40" fill-opacit stroke="none" style="overflow:visible"/><g
       transform="translate(109.4 -2.7)"><g
         transform="matrix(0.66947313,0,0,0.66947313,-287.1485,335.54707)"><path d="M123 394h408v-23h-408z" fill="#f6b721" fill-opacity="1" stroke="#000" stroke-width="3.5" stroke-dasharray="none" style="stroke-miterlimit:4;display:inline"/><path d="M136 369c0 4 2 11 4 13-7-1-7-9-8-13zm12 0c0 4 2 11 4 13-7-1-7-9-8-13zm12 0c0 4 2 11 4 13-7-1-7-9-8-13zm12 0c0 4 2 11 4 13-7-1-7-9-8-13zm12 0c0 4 2 11 4 13-7-1-7-9-8-13zm12 0c0 4 2 11 4 13-7-1-7-9-8-13zm12 0c0 4 2 11 4 13-7-1-7-9-8-13zm12 0c0 4 2 11 4 13-7-1-7-9-8-13zm12 0c0 4 2 11 4 13-7-1-7-9-8-13zm12 0c0 4 2 11 4 13-7-1-7-9-8-13zm12 0c0 4 2 11 4 13-7-1-7-9-8-13zm12 0c0 4 2 11 4 13-7-1-7-9-8-13zm12 0c0 4 2 11 4 13-7-1-7-9-8-13zm12 0c0 4 2 11 4 13-7-1-7-9-8-13zm12 0c0 4 2 11 4 13-7-1-7-9-8-13zm12 0c0 4 2 11 4 13-7-1-7-9-8-13zm12 0c0 4 2 11 4 13-7-1-7-9-8-13zm12 0c0 4 2 11 4 13-7-1-7-9-8-13zm12 0c0 4 2 11 4 13-7-1-7-9-8-13zm12 0c0 4 2 11 4 13-7-1-7-9-8-13zm12 0c0 4 2 11 4 13-7-1-7-9-8-13zm12 0c0 4 2 11 4 13-7-1-7-9-8-13zm12 0c0 4 2 11 4 13-7-1-7-9-8-13zm12 0c0 4 2 11 4 13-7-1-7-9-8-13zm12 0c0 4 2 11 4 13-7-1-7-9-8-13zm12 0c0 4 2 11 4 13-7-1-7-9-8-13zm12 0c0 4 2 11 4 13-7-1-7-9-8-13zm12 0c0 4 2 11 4 13-7-1-7-9-8-13zm12 0c0 4 2 11 4 13-7-1-7-9-8-13zm12 0c0 4 2 11 4 13-7-1-7-9-8-13zm12 0c0 4 2 11 4 13-7-1-7-9-8-13zm12 0c0 4 2 11 4 13-7-1-7-9-8-13z" font-size="medium" font-style="normal" font-weight="normal" text-decoration="none" letter-spacing="normal" word-spacing="normal" text-anchor="start" fill="#000" fill-opacity="1" stroke-width="0" stroke-dasharray="none" font-family="Sans" style="font-variant:normal;font-stretch:normal;text-indent:0;text-align:start;line-height:normal;text-transform:none;direction:ltr;block-progression:tb;writing-mode:lr-tb;color:#000;stroke-miterlimit:4;marker:none;visibility:visible;display:inline;overflow:visible;enable-background:accumulate;-inkscape-font-specification:Sans"/></g><g
         transform="matrix(0.66947313,0,0,0.66947313,-298.54946,335.54707)"><g><g
             transform="matrix(0.88589821,0,0,0.88589821,59.304729,-35.612069)"><path d="M68 274c0 0-6-62 7-100 9-26 22-48 43-65C151 82 203 74 239 91c-32 2-74 12-97 31-18 15-31 35-38 57-12 37-6 97-6 97z" fill="#f6b721" fill-opacity="1" stroke="#000" stroke-width="4" stroke-linecap="butt" stroke-linejoin="miter" stroke-opacity="1" stroke-dasharray="none" style="stroke-miterlimit:4"/><path d="M91 172c-11 32-11 68-10 98h4c-1-30-1-66 9-97 10-31 30-59 70-76-47 11-68 58-74 75z" font-size="medium" font-style="normal" font-weight="normal" text-decoration="none" letter-spacing="normal" word-spacing="normal" text-anchor="start" fill="#000" fill-opacity="1" stroke="none" stroke-width="4" font-family="Sans" style="font-variant:normal;font-stretch:normal;text-indent:0;text-align:start;line-height:normal;text-transform:none;direction:ltr;block-progression:tb;writing-mode:lr-tb;baseline-shift:baseline;color:#000;marker:none;visibility:visible;display:inline;overflow:visible;enable-background:accumulate;-inkscape-font-specification:Sans"/></g><path d="M119 202h25v57h-25z" fill="#f6b721" fill-opacit stroke="#000" stroke-width="3.5" stroke-opacit stroke-dasharra stroke-dashoffset="0" style="stroke-miterlimit:4"/><g transform="matrix(5.2941999,0,0,4.822969,-1068.4839,-764.28781)" stroke-width="0.7" stroke-dasharray="none" style="stroke-miterlimit:4"><path d="M284 343c-3-1-5 0-11-8 0 0-3 1-4 1h-2c-1 0-3-2-3-2l-1-5c0 0-1 0-1-1q0-.25 0-2c0-1 1-1 2-1h4l3 1c4 1 12 2 12 2zM224 211c0 0 2 0 3 0h2c0 0 1 1 1 1 0 0-1 1-1 1-1 1-3 1-4 0v-1-1zM224 209c0 0 2 0 3 0 1 0 2-1 2 0 0 0 1 1 1 1 0 0-1 1-1 1-1 1-4 1-5 0v-1-1zM262 328c0 0 2 0 3 0 1 0 2-1 2 0 0 0 1 1 1 1 0 0-1 1-1 1-1 1-4 1-5 0v-1-1zM238 201c0 0-2 4-3 6 0 1 0 3 0 3 1 0 1 0 2-1q-.25 1.5 1 3c1 0 2-1 2-2 0 1 0 2 1 4 1 0 2-1 2-2 0 1 0 2 1 4q1.75-1.5 2-3c0 1 1 3 2 3 1-1 1-3 1-4 1 1 2 2 2 2 1-1 1-2 1-4 1 1 2 2 2 2q1.25-1.5 1-3c1 1 2 1 2 1 0 0 1-2 0-3q1.5 1.25 3 1v-3c1 1 3 1 4 0-3-5-7-5-11-6-5 5-11 5-18 2z" fill="#f6b721" fill-opacity="1" stroke="#000" stroke-width="0.7" stroke-linecap="butt" stroke-linejoin="miter" stroke-opacity="1" stroke-dasharray="none" style="stroke-miterlimit:4"/></g><path d="M147 209h13l8-6-8-6h-13l-15-5-15 5h-14l-8 6 8 6h14l15 5zM358 45h-6l1 113L336 83l-13 3 22 77L298 56c-4 2-9 3-13 5l52 108-48-69c-4 2-7 5-11 7l46 60L242 90l-9 9 87 77-69-42c-2 3-5 7-7 10l82 45 3-5 1 1 7-6 3-2 0 0 7-3 0 0 6-1h6l6 1 0 0 7 3 0 0 3 2 7 6 1-1 2 4-2 1 3 8 2 8 94-17-2-12-92 21 123-44q-1.75-6-5-12l-110 43 71-39c-2-4-4-7-7-10l-69 42 87-77-9-9-82 77 46-60c-3-3-7-5-11-7l-39 61h-1L430 61c-4-2-8-4-13-5l-44 101h-1l20-71-13-3-16 69 2-107h-8z" fill="#f6b721" fill-opacity="1" stroke="#000" stroke-width="3.5" stroke-linecap="butt" stroke-linejoin="miter" stroke-opacity="1" stroke-dasharray="none" style="stroke-miterlimit:4;display:inline"/></g><path d="M358 144c-37 0-67 27-67 61 0 34 30 61 67 61 37 0 67-27 67-61 0-34-30-61-67-61z" fill="#f6b721" fill-opacity="1" stroke="#000" stroke-width="3.5" stroke-opacity="1" stroke-dasharray="none" stroke-dashoffset="0" style="stroke-miterlimit:4;display:inline"/><g transform="matrix(5.2941999,0,0,4.822969,-1066.4839,-776.28781)" stroke-width="0.7" stroke-dasharray="none" style="stroke-miterlimit:4"><g stroke-width="0.7" stroke-dasharray="none" style="stroke-miterlimit:4"><path d="M272 226c-2 3 1 5-1 7 0 0-2 0-4-1h-3l-3 3c-1 2 0 4 2 3 2 2 4 1 6 0h2 2q3-1.5 3-6l1 1-1-3 2 1-1-3 2 1q0-.25 0-2 0-1.75 0-2c0-1 0-1-1-2v-1c-5-2-4-8-3-11l-10 7c-2 1 1 6 5 7zM341 302c0 1 0 3-1 3-1 1-2 0-3-1l-3-4c-1-1-3-2-5-2-2 0-3 1-4 2-2 2-2 6 0 9 2 3 8 5 10 7q3 2.75 3 4c0 1 1 3 0 4-1 2-2 2-5 3-3 0-6-3-10-4-6-1-8 2-13 2-11 0-15-4-15-4l-12 15c-4 1-4 7 0 10l-3 3c-1 2-1 2-2 4 0 0-2 0-4-1h-3l-3 3c-1 2 0 4 2 3 2 2 4 1 6 0h2 2q1.5-1.25 3-4c0-1 1-2 1-2l1 1q1.25-1.5 1-3l1 1q1.5-1.5 0-3l1 1c0 0 0-1 1-2 0-1 1-1 1-2q0-1.75 0-2c1 1 1 1 2 1 0-1 0-2 1-2q6-.25 12-2c3-1 5-3 7-5 1-1 1-1 2-1 1-1 3 0 4 0 1 0 1 1 1 1 1 3 3 8 9 10-2 3 1 5-1 7 0 0-2 0-4-1h-3l-3 3c-1 2 0 4 2 3 2 2 4 1 6 0h2 2q2.75-1.5 4-6l1 1q.25-1.5-1-3l2 1-1-3 2 1q0-.25 0-2 0-1.75 0-2c0-1 0-1-1-2v-1q-4.25-3-4-6c0-3 0-5-2-7h2c4 0 7-2 8-5q1.5-3 0-6c-1-2-2-3-4-5-2-2-8-4-9-6-2-2-1-5 0-6 1-1 3-2 6 0l3 4c1 1 4 2 6 1 2-1 2-3 2-5 0-1 2-2 4-3-1-1-4-3-5 0-2-2-4-1-5 1 2 0 3 0 4 2zM257 209l-1 1c-6 2-11 2-17 0l-1 2c-1 3 0 5 1 7 1 0 1-1 2-1q-.25 1.5 1 3c1-1 2-2 2-2q.25 1.5 2 3 1.75-1.5 2-3c0 1 1 2 2 2q1.25-1.5 1-3c1 1 1 2 2 2 1-1 1-3 1-3 0 1 1 1 2 1q1.25-1.5 1-3c1 1 2 1 2 1q0-1.25 0-4c1 0 1 1 2 1q1.5-4.75-3-8zM257 197h2c0-2-1-3-2-4h2c-2-3-1-6-4-8 1-2 0-3 0-5 0 0 0-2 0-2 0 0-2 0-3 1 0 1-1 1-1 1 0-1 0-2-1-2 0 1-1 2-1 2q.25-1.5-1-3-1.25 1.5-1 3c0 0-1-2-1-2-1 1-1 1-1 2 0 0-1-1-1-1-1-1-3-1-3-1q0 .25 0 2c0 1-2 3 0 5-3 2-2 5-4 8h2c-2 1-2 2-2 4h2c0 1-1 2-2 2q-1.75 1.5-2 3 1.75 0 2 0v3c1 0 2-1 2-1v3c1 0 2-1 2-2q-.25 1.5 1 3c1 0 1-1 2-1q-.25 1.5 1 3c1-1 2-1 2-2 0 1 0 1 1 3l2-3c0 1 1 2 2 2q1.25-1.5 1-3c1 1 1 1 2 2q1.25-1.5 1-3l3 2v-3q1.5 1.25 3 1 .25-1.5-1-3h3c0 0-1-1-1-2l-3-2c0 0-2-2-2-2z" fill="#f6b721" fill-opacity="1" stroke="#000" stroke-width="0.7" stroke-linecap="butt" stroke-linejoin="miter" stroke-opacity="1" stroke-dasharray="none" style="stroke-miterlimit:4;display:inline"/><path d="M272 221c-1 0-2-1-2-2l1-2c0 2 1 3 1 4zm-1 1c-1 0-2-1-2-2l1-2c0 2 1 3 1 4zm-1 1c-1 0-2-1-2-2l1-2c0 2 1 3 1 4zm-1 11q-.25 0-2 0c-1 0-1 0-2 1-1 0-1 1-1 2v1h0 1 0v-1c0-1 1-1 1-1 1-1 2-1 4-1zm5 0 2-3v-3c-1 0-2 6-2 6zm4-9c0 1-2 1-2 1-1 0-1-1-1-2 0 1 2 2 3 1zm0-3c0 1-2 1-2 1-1 0-1-1-1-2 0 1 2 2 3 1zM288 207c1 0 3 1 4 1q1.75 0 2 0h-1l2 3c-1-2-5-5-6-5zm-3 9q0 4.5 3 6 1.5 3 6 3c-1-1-4-3-5-4-2-2-2-5-3-6zm8 17 1-3v-3c-1 0-1 6-1 6zm-9-19c1-1-1-2-1-2-1 0-2 0-2 1 1-1 3 0 3 1zm-16-1c0 2 6 4 7 4l2-1c-2 1-7-1-9-3zm-3 0c0 2 6 5 8 5l2-1c-2 1-9-3-9-4zm-1 2c0 2 5 5 6 5l2-1c-3 1-7-2-8-4zm-2 2c0 2 3 4 5 4l2-1c-2 0-6-2-6-4zm-2 0c0 1 3 5 4 5h2c-2 0-5-3-6-4zm-1 2c0 1 1 3 2 3h2c-2 0-4-3-4-3zm-2 1q-.25 1.5 1 3h2c-2 0-3-2-3-2zm-9 3c0 1 2 1 2 1 1 0 1-1 1-2 0 1-2 2-3 1zm0 3c0 1 2 1 2 1 1 0 1-1 1-2 0 1-2 2-3 1zm-4 8 3-2q1.25-1.5 1-3c-1 0-4 5-4 5zm46 1q-.25 0-2 0c-1 0-1 0-2 1-1 0-1 1-1 2v1h0 1 0v-1c0-1 1-1 1-1 1-1 2-1 4-1zm-50-1q-.25 0-2 0c-1 0-1 0-2 1-1 0-1 1-1 2v1h0 1 0v-1c0-1 1-1 1-1 1-1 2-1 4-1zM262 214h-1v1c0-1-1-3-1-3q0 1.75 3 2zm-3 3h-1l-1 1v-4c0 1 1 3 2 4zm-3 1h-1l-1 1c0-1 0-4 0-5 0 1 1 3 1 4zm-4 1h-1l-1 1c0-1 0-4 0-4 0 1 1 3 1 4zm-4 0h-1l-1 1c0-1 0-4 0-4 0 1 1 3 1 4zm-5 0h1l1 1v-4l-1 3zm-3-1h1l1 1v-4l-1 3zM264 206h-1v1c0-1-1-3-2-4 0 1 2 2 4 3zm-3 2-1-1v2c0-1-1-3-1-4q1.75 1.5 2 3zm-3 2-1-1v2c0-1-1-3-1-4q.25 1.5 2 3zm-3 1h-1v1-4c0 1 1 3 2 3zm-7 2-1-1-1 1c0-1 1-3 1-4 0 1 0 3 1 4zm4-1h-1v1-4c0 1 1 3 2 3zm-9 0h1v1-4c0 1-1 3-2 3zm-4-1h1v1c0-1 0-4 0-4 0 1-1 3-2 4zm-3-2h1v1c0-1 1-3 1-4q-.25 1.5-2 3zM279 302v1c0 1-1 1-1 2v1c0 0 0-1 1-1q1.75 0 2 0v-1c0-1-2-2-2-2zm13 0c0 0-2 1-2 2v1c0 0 1-1 2 0 1 0 1 1 1 1v-1c0-1 0-1-1-2v-1zm-14 6c-1 1-1 1-1 2 0 1 1 1 1 1h0c0 0-1 1-1 1 0 2 0 4 1 5-1 1-2 3-2 4l3-3c0 0 1 0 1 1 0 1-1 3-1 4 1-1 2-3 2-4h1v2c0 1-1 3-2 4 1-1 1-3 2-4 0 0 1 0 1 1v4c1-1 1-3 1-4q-.25 0 1 0h0c0 1 0 3 1 4v-4h1c0 1 1 3 2 4 0-1-1-4-1-4h0q0-.25 0-2l3 3-3-4c1 0 2 0 2-1 1 1 3 3 4 4-1-1-3-4-3-4 1-1 1-3 1-5 0 0 0-1-1-1h0c1 0 1-1 1-1 0-1 0-2-1-2v2c0 1-1 1-1 1h-1 1 0c0 0 0 1 1 1 0 2 0 3-1 4-1 1-2 2-4 1-1 0-1 0-1-1q-.25 0 1 0h0 0 1l0 0 0 0v-1c0 0-1-1-1-1h0 0v-3c0-1 1-1 2-1q1.75 0 2 0c0-1-1-1-2-1-1 0-2 1-2 2q0 1.25 0 4h0 0c0 0 0 0 1 1q0-.25 0 1 .25 0-1 0h0 0 0 0 0 0 0 0q.25 0-1 0 0 .25 0-1c0 0 0 0 1-1h0 0q0-1.25 0-4c0-1-1-2-2-2-1 0-2 0-2 1q.25 0 2 0c1 0 1 1 2 1v3h0 0c0 0-1 0-1 1q0 1.25 0 1l0 0 0 0q-.25 0 1 0h0 0 1c0 1 0 1-1 1-2 0-3 0-4-1-1-1-1-2-1-4 0 0 0-1 1-1h0 1-1c-1 0-1-1-1-1v-2zm4 2h-1c0 1 1 2 2 1 0-1-1-1-1-1zm7 0c-1 0-1 1-1 1 1 1 2 0 2-1h-1zm-3 9h0 1 1q0 1.25 0 1c0 1-1 1-2 1-1 0-2 0-2-1v-1h1 1 0zm-9 2c-1 1-2 3-3 3L236 202v1c1-2 2-2 2-4zm2 0c-1 1-2 4-3 5h1v1c0-3 2-4 2-6zm17 0c0 1 2 2 3 4v-1h1c-2-1-2-1-4-3zM255 200c0 1 3 4 3 6v-1h1c-1-1-3-4-4-5zm-13 2c-1 1-1 3-2 4h1v1c0-3 1-3 1-4zm12 0c0 1 2 3 1 5l1-1 1 1c-1-1-2-4-3-5zm-2 0c0 2 1 3 1 6l1-1 1 1c-1-1-1-4-2-5zm-7 1c-1 1-1 3-1 4l1-1 1 1c-1-2 0-3 0-4zm5 0c0 2 1 2 0 5l1-1 1 1c-1-1-1-3-2-4zm-2 1c-1 1 0 2-1 3l0 0 1 1c-1-2 0-2-1-4zM339 157c-6 0-13 3-15 5 3 0 12-2 16-2 4 1 10 6 11 8q1.25 7.5-2 15h0c0 0-1 0-1 1-1 1-3 2-4 4-2 3-1 4-1 5v2h2c0 0 3 0 4 1 0 0 0 1 1 1 0 1 1 1 2 2 1 1 3 1 4 1h4c1 0 3 0 4-1 1 0 2-1 2-2 1-1 1-1 1-1 2-1 4 0 4 0l2 1v-2c0-2 1-3 0-6-1-2-3-4-4-5-1 0-1-1-1-1h0q-1.75-9 1-15c1-3 8-6 12-7 4 0 13 3 16 4-2-3-10-8-16-7-5 0-13 4-15 9-2 5-2 11-1 17 0 1 1 2 1 2 1 1 1 1 2 1 1 1 2 1 3 3 1 1 0 1 0 3-1 0-2-1-4 0q-1.5.25-3 2c0 0-1 1-1 1h-3q-1.75 0-2 0-.25 0-2 0c-1 0-2 0-2-1h0c0 0 0-1-1-1-1-1-1-2-2-2-2-1-3 0-4 0 0-1 0-1 1-3 1-2 2-2 3-3 1 0 1-1 2-1 1 0 1-1 2-2 2-6 3-11 2-17-1-4-9-10-14-11q-1.75 0-2 0zm-2 10h-3q-3 0-6 3c2 5 9 10 18 3-2-3-5-6-9-6zm46 4h-3q-3 0-6 3c2 5 9 10 18 3-2-3-5-6-9-6z" font-size="medium" font-style="normal" font-weight="normal" text-decoration="none" letter-spacing="normal" word-spacing="normal" text-anchor="start" fill="#000" fill-opacity="1" stroke="none" stroke-width="0.7" font-family="Sans" style="font-variant:normal;font-stretch:normal;text-indent:0;text-align:start;line-height:normal;text-transform:none;direction:ltr;block-progression:tb;writing-mode:lr-tb;color:#000;marker:none;visibility:visible;display:inline;overflow:visible;enable-background:accumulate;-inkscape-font-specification:Sans"/></g><g stroke-width="0.7" stroke-dasharray="none" style="stroke-miterlimit:4"></g><g stroke-width="0.7" stroke-dasharray="none" style="stroke-miterlimit:4"><g stroke-width="0.7" stroke-dasharray="none" style="stroke-miterlimit:4"></g><g stroke-width="0.7" stroke-dasharray="none" style="stroke-miterlimit:4"></g><g stroke-width="0.7" stroke-dasharray="none" style="stroke-miterlimit:4"></g></g></g></g></g></g></svg>