<svg
   xmlns:svg="http://www.w3.org/2000/svg"
   xmlns="http://www.w3.org/2000/svg"
   width="600"
   height="450"
   version="1.0"><defs></defs></sodipodi:namedview><g
     transform="translate(268.1 -251.6)"><g transform="matrix(0.975897,0,0,0.975897,-123.26039,441.15348)" fill="#efa70a" fill-rule="evenodd" stroke="none" stroke-width="1" stroke-linecap="butt" stroke-linejoin="miter" stroke-dasharray="none"/><g transform="matrix(0.975897,0,0,0.975897,-120.58811,497.13601)" fill="#dbce6f" fill-rule="nonzero" stroke="none" stroke-width="1" stroke-linecap="butt" stroke-linejoin="miter" stroke-dasharray="none"/><rect width="600" height="450" x="-268.1" y="251.6" fill="#fff" fill-opacity="1" stroke="none" style="overflow:visible"/><rect width="600" height="150" x="-268.1" y="551.6" fill="#da0000" fill-opacity="1" stroke="none" style="overflow:visible"/><rect width="600" height="150" x="-268.1" y="251.6" fill="#239f40" fill-opacity="1" stroke="none" style="overflow:visible"/><g transform="matrix(0.8918587,0,0,0.8918587,1.2567215,575.26823)" fill="#fff" fill-rule="nonzero" stroke="none" stroke-width="1" stroke-linecap="butt" stroke-linejoin="miter" stroke-dasharray="none"/><g
       transform="translate(109.4 -2.7)"><g
         transform="matrix(0.66947313,0,0,0.66947313,-287.1485,335.54707)"><path d="M123 394h408v-23h-408z" fill="#f6b721" fill-opacity="1" stroke="#000" stroke-width="3.5" stroke-dasharray="none" style="stroke-miterlimit:4;display:inline"/><path d="M136 369c0 4 2 11 4 13-7-1-7-9-8-13zm12 0c0 4 2 11 4 13-7-1-7-9-8-13zm12 0c0 4 2 11 4 13-7-1-7-9-8-13zm12 0c0 4 2 11 4 13-7-1-7-9-8-13zm12 0c0 4 2 11 4 13-7-1-7-9-8-13zm12 0c0 4 2 11 4 13-7-1-7-9-8-13zm12 0c0 4 2 11 4 13-7-1-7-9-8-13zm12 0c0 4 2 11 4 13-7-1-7-9-8-13zm12 0c0 4 2 11 4 13-7-1-7-9-8-13zm12 0c0 4 2 11 4 13-7-1-7-9-8-13zm12 0c0 4 2 11 4 13-7-1-7-9-8-13zm12 0c0 4 2 11 4 13-7-1-7-9-8-13zm12 0c0 4 2 11 4 13-7-1-7-9-8-13zm12 0c0 4 2 11 4 13-7-1-7-9-8-13zm12 0c0 4 2 11 4 13-7-1-7-9-8-13zm12 0c0 4 2 11 4 13-7-1-7-9-8-13zm12 0c0 4 2 11 4 13-7-1-7-9-8-13zm12 0c0 4 2 11 4 13-7-1-7-9-8-13zm12 0c0 4 2 11 4 13-7-1-7-9-8-13zm12 0c0 4 2 11 4 13-7-1-7-9-8-13zm12 0c0 4 2 11 4 13-7-1-7-9-8-13zm12 0c0 4 2 11 4 13-7-1-7-9-8-13zm12 0c0 4 2 11 4 13-7-1-7-9-8-13zm12 0c0 4 2 11 4 13-7-1-7-9-8-13zm12 0c0 4 2 11 4 13-7-1-7-9-8-13zm12 0c0 4 2 11 4 13-7-1-7-9-8-13zm12 0c0 4 2 11 4 13-7-1-7-9-8-13zm12 0c0 4 2 11 4 13-7-1-7-9-8-13zm12 0c0 4 2 11 4 13-7-1-7-9-8-13zm12 0c0 4 2 11 4 13-7-1-7-9-8-13zm12 0c0 4 2 11 4 13-7-1-7-9-8-13zm12 0c0 4 2 11 4 13-7-1-7-9-8-13z" font-size="medium" font-style="normal" font-weight="normal" text-decoration="none" letter-spacing="normal" word-spacing="normal" text-anchor="start" fill="#000" fill-opacity="1" stroke-width="0" stroke-dasharray="none" font-family="Sans" style="font-variant:normal;font-stretch:normal;text-indent:0;text-align:start;line-height:normal;text-transform:none;direction:ltr;block-progression:tb;writing-mode:lr-tb;color:#000;stroke-miterlimit:4;marker:none;visibility:visible;display:inline;overflow:visible;enable-background:accumulate;-inkscape-font-specification:Sans"/></g><g
         transform="matrix(0.66947313,0,0,0.66947313,-298.54946,335.54707)"><g><g
             transform="matrix(0.88589821,0,0,0.88589821,59.304729,-35.612069)"><path d="M68 274c0 0-6-62 7-100 8-26 22-48 43-66 33-27 85-35 121-18-32 2-74 12-97 32-18 15-31 35-38 57-12 37-6 97-6 97z" fill="#f6b721" fill-opacity="1" stroke="#000" stroke-width="4" stroke-linecap="butt" stroke-linejoin="miter" stroke-opacity="1" stroke-dasharray="none" style="stroke-miterlimit:4"/><path d="M90 172c-11 32-11 68-10 98l4 0c-1-30-1-66 10-97s30-59 70-76c-47 11-68 58-74 75z" font-size="medium" font-style="normal" font-weight="normal" text-decoration="none" letter-spacing="normal" word-spacing="normal" text-anchor="start" fill="#000" fill-opacity="1" stroke="none" stroke-width="4" font-family="Sans" style="font-variant:normal;font-stretch:normal;text-indent:0;text-align:start;line-height:normal;text-transform:none;direction:ltr;block-progression:tb;writing-mode:lr-tb;baseline-shift:baseline;color:#000;marker:none;visibility:visible;display:inline;overflow:visible;enable-background:accumulate;-inkscape-font-specification:Sans"/></g><rect y="201.9" x="119.3" height="56.7" width="25.3" fill="#f6b721" fill-opacity="1" stroke="#000" stroke-width="3.5" stroke-opacity="1" stroke-dasharray="none" stroke-dashoffset="0" style="stroke-miterlimit:4"/><g transform="matrix(5.2941999,0,0,4.822969,-1068.4839,-764.28781)" stroke-width="0.7" stroke-dasharray="none" style="stroke-miterlimit:4"><path d="M284 343c-3-1-6 0-11-8 0 0-2 1-4 1q-1 0-2 0c-1 0-3-2-3-2l0-5c0 0-1 0-1-1q0-1 0-2 1-1 2-1 2-1 4 0l3 1c4 1 12 2 12 2zM262 328c0 0 2 0 3 0 1 0 2-1 2 0 0 0 1 1 1 1s-1 1-1 1c-1 0-4 1-5 0q0 0 0-1 0-1 0-1z" transform="translate(-38.2 -121.3)" fill="#f6b721" fill-opacity="1" stroke="#000" stroke-width="0.7" stroke-linecap="butt" stroke-linejoin="miter" stroke-opacity="1" stroke-dasharray="none" style="stroke-miterlimit:4"/><path d="M224 211c0 0 2 0 3 0 1 0 1 0 2 0 0 0 1 1 1 1s-1 1-1 1c-1 0-3 1-4 0q0 0 0-1 0-1 0-1zm0-2c0 0 2 0 3 0 1 0 2-1 2 0 0 0 1 1 1 1s-1 1-1 1c-1 0-4 1-5 0q0 0 0-1 0-1 0-1zM238 201c0 0-2 4-3 6 0 1 0 3 0 3q1 0 2-1 0 2 1 3 1 0 2-2c0 1 0 2 1 4 1 0 2-2 2-2q0 2 1 4c1-1 2-2 2-3 0 1 1 3 2 3q1-2 1-4c1 1 2 2 2 2q1-2 1-4 1 2 2 2 1-2 1-3c1 1 2 1 2 1 0 0 1-2 0-3q1 1 3 1 0-2 0-3 2 1 4 0c-2-5-6-6-11-6q-7 7-18 2z" fill="#f6b721" fill-opacity="1" stroke="#000" stroke-width="0.7" stroke-linecap="butt" stroke-linejoin="miter" stroke-opacity="1" stroke-dasharray="none" style="stroke-miterlimit:4"/></g><path d="M147 209h13l8-6-8-6h-13l-14-5-14 5h-14l-8 6 8 6h14l14 5zM358 45l-6 0 2 114L336 83q-7 1-13 3l22 78L298 56q-6 2-13 5l51 108L289 100q-6 3-11 7l46 60L243 90q-5 4-9 9l87 77-69-42q-4 5-7 10l82 45 3-5 2 1 7-6 3-2v0l7-3v0l6-2h6l6 2v0l7 3v0l3 2 7 6 2-1 2 4-2 1 4 8 2 8 94-17q-1-6-2-12L392 196l123-44q-2-6-5-12L400 183l71-39q-3-5-7-10l-69 42 87-77q-4-5-9-9l-82 77 46-60q-5-4-11-7l-43 62-1-1L430 61q-6-3-13-5l-44 102-1 0 20-71q-6-2-13-3l-16 69 2-107-8 0z" fill="#f6b721" fill-opacity="1" stroke="#000" stroke-width="3.5" stroke-linecap="butt" stroke-linejoin="miter" stroke-opacity="1" stroke-dasharray="none" style="stroke-miterlimit:4;display:inline"/></g><path d="M358 144c-37 0-67 27-67 61s30 61 67 61 67-27 67-61-30-61-67-61z" fill="#f6b721" fill-opacity="1" stroke="#000" stroke-width="3.5" stroke-opacity="1" stroke-dasharray="none" stroke-dashoffset="0" style="stroke-miterlimit:4;display:inline"/><g transform="matrix(5.2941999,0,0,4.822969,-1066.4839,-776.28781)" stroke-width="0.7" stroke-dasharray="none" style="stroke-miterlimit:4"><g stroke-width="0.7" stroke-dasharray="none" style="stroke-miterlimit:4"><path d="M272 226c-2 3 1 5-1 7 0 0-2 0-4 0q-2 0-3 0-2 1-3 3c-1 2 0 4 2 3 2 2 4 1 6 0q1 0 2 0 1 0 2 0 2-1 4-6l2 1q0-2-1-3l2 1q0-2-1-3l2 1q0 0 0-2c0-1 0-2 0-2l-1-2c0 0 0-1 0-1-5-2-4-8-3-11l-10 7c-2 1 1 6 5 7zM257 209l-1 0c-6 2-11 2-17 0l-1 2q-1 4 1 7 1 0 2-2c0 1 0 2 1 4q2-1 2-2 0 2 2 3 2-1 2-3 1 1 2 2c1-1 1-2 1-3q1 2 2 2c1-1 1-2 1-4q1 1 2 2 1-1 1-3 2 1 2 1 0-2 0-4c1 0 1 1 2 1 1-3 0-6-3-8zm0-12 2 0c0-2-1-3-2-4 1 0 1 0 2 0-2-3-1-6-4-8 1-2 0-3 0-4 0 0 0-2 0-2s-2 0-3 1c0 1-1 1-1 1 0-1 0-2-1-2l-1 2q0-2-1-3-1 1-1 3l-1-2c-1 1-1 1-1 2 0 0-1-1-1-1-1-1-3-1-3-1s0 1 0 2c0 1-2 3 0 4-3 2-2 5-4 8 1 0 1 0 2 0-2 1-2 2-2 4 1 0 1 0 2 0q-1 1-2 2-2 2-2 4 1 0 2 0 0 1 0 3 2-1 2-1 0 2 0 3 1 0 2-2 0 2 1 3 1-1 2-1c0 1 0 2 1 3 1-1 2-1 2-2q0 1 1 3c1-1 1-2 2-3 0 1 1 2 2 2 1-1 1-2 1-2q1 1 2 2 1-2 0-3 1 1 3 2 0-1 0-3 1 1 3 1 0-2-1-3 1 0 3 0c0 0 0-1-1-2l-3-2c0 0-2-2-2-2z" fill="#f6b721" fill-opacity="1" stroke="#000" stroke-width="0.7" stroke-linecap="butt" stroke-linejoin="miter" stroke-opacity="1" stroke-dasharray="none" style="stroke-miterlimit:4;display:inline"/><path d="M272 221c-1 0-2-1-2-2l1-2c0 2 1 3 1 4zm-1 1c-1 0-2-1-2-2l1-2c0 2 1 3 1 4zm-1 1c-1 0-2-1-2-2l1-2c0 2 1 3 1 4zm-1 11c0 0-2 0-2 0q-1 0-2 1-1 1-1 2 0 1 0 1 0 0 0 0l1 0q0 0 0 0 0 0 0-1 0-1 1-1c1-1 2-1 4-1zm5 0c0-1 1-2 2-3q0-2 0-3c-1 0-2 6-2 6zm4-8c0 1-2 1-2 1s-1-1-1-2c0 1 2 2 3 1zm0-3c0 1-2 1-2 1s-1-1-1-2c0 1 2 2 3 1zm9-16c1 0 3 1 4 1q1 0 2 0l-1 0 2 3c-1-2-5-5-6-5zm-3 9q0 4 2 6 2 2 6 3c-1-1-4-2-5-4-2-2-2-5-3-6zm8 17q1-1 1-3 0-2 0-3c-1 0-1 6-1 6zm-9-19c1-1-1-2-1-2s-2 0-2 1c1-1 3 0 3 1zm-16-1c0 2 6 4 7 4l2-1c-2 1-7-1-9-3zm-3 0c0 2 6 5 8 5l2-1c-2 1-9-3-9-4zm-1 2c0 2 5 5 6 5l2-1c-3 1-7-2-8-4zm-2 2c0 2 3 4 5 4l2-1c-2 0-6-2-6-4zm-2 0c0 1 2 4 4 5l2 0c-2 0-5-3-6-4zm-1 2c0 1 1 3 2 3l2 0c-2 0-4-3-4-3zm-2 1c0 1 0 2 1 2l2 0c-2 0-3-2-3-2zm-9 3c0 1 2 1 2 1s1-1 1-2c0 1-2 2-3 1zm0 2c0 1 2 1 2 1s1-1 1-2c0 1-2 2-3 1zm-4 8q1-1 3-2 1-1 1-3c-1 0-4 4-4 5zm46 1c0 0-2 0-2 0q-1 0-2 1-1 1-1 2 0 1 0 1 0 0 0 0l1 0q0 0 0 0 0 0 0-1 0-1 1-1c1-1 2-1 4-1zm-50-1c0 0-2 0-2 0q-1 0-2 1-1 1-1 2 0 1 0 1 0 0 0 0l1 0q0 0 0 0 0 0 0-1 0-1 1-1c1-1 2-1 4-1zm25-20-2 0 0 1c0-1-1-2-1-3q1 1 3 2zm-3 3-1 0-1 1c0-1 0-4 0-4 0 1 1 3 2 4zm-3 2-1 0-1 1c0-1 0-4 0-5 0 1 1 3 2 4zm-4 1-1 0-1 1c0-1 0-4 0-4 0 1 1 3 1 4zm-4 0-1 0-1 1c0-1 0-4 0-4 0 1 1 3 1 4zm-5 0 1 0 1 1c0-1 0-3 0-4 0 1-1 2-1 3zm-3-1 1 0 1 1c0-1 0-3 0-4 0 1-1 2-1 3zm24-12-1 0 0 1c0-1-1-3-2-4 0 1 2 2 4 3zm-3 2-1-1 0 2c0-1-1-3-1-4 0 1 2 2 2 3zm-3 2-1-1 0 2c0-1 0-3-1-4 0 1 1 2 2 3zm-3 1-1 0 0 1c0-1 0-3 0-4 0 1 1 2 2 3zm-7 2-1-1-1 1c0-1 1-3 1-4 0 1 0 3 1 4zm4 0-1 0 0 1c0-1 0-3 0-4 0 1 1 2 2 3zm-9 0 1 0 0 1c0-1 0-3 0-4 0 1-1 2-2 3zM239 212l1 0 0 1c0-1 0-4 0-4 0 1-1 3-2 4zm-3-2 1 0 0 1c0-1 0-3 1-4 0 1-1 2-2 3zM339 157c-6 0-13 3-15 5 2 0 12-2 16-2 4 1 10 6 11 8 1 5 0 10-2 15q0 0 0 0 0 0-1 1-2 1-4 4c-2 3-1 4-1 6v2l2 0c0 0 2 0 4 1q0 0 1 1 1 1 2 2 2 1 4 1l4 0q2 0 4-1 2-1 2-2 1-1 1-1c2 0 4 0 4 0l2 1 0-2c0-2 1-3 0-6-1-2-3-4-4-5q-1-1-1-1 0 0 0 0c-1-6-1-11 1-15 1-3 8-6 12-6 4 0 13 4 16 4-2-3-10-8-16-8-5 0-13 4-15 9-2 5-2 11-1 17q0 1 1 2 1 1 2 1c1 1 2 1 3 3 1 1 0 1 0 3-1 0-2-1-4 0q-2 1-3 2-1 1-1 1-1 0-3 0s-2 0-2 0-1 0-2 0-2 0-2-1l0 0q0 0-1-1-1-1-2-2c-2-1-3 0-4 0 0-1 0-1 0-2 1-2 2-2 3-3q1 0 2-1 1-1 2-2c2-6 3-11 2-17-1-4-9-10-14-11q-1 0-2 0zm-2 10q-1 0-3 0-3 1-6 3c2 5 9 10 18 3-2-3-5-6-9-6zm46 4q-1 0-3 0-3 1-6 3c2 5 9 10 18 3-2-3-5-6-9-6z" font-size="medium" font-style="normal" font-weight="normal" text-decoration="none" letter-spacing="normal" word-spacing="normal" text-anchor="start" fill="#000" fill-opacity="1" stroke="none" stroke-width="0.7" font-family="Sans" style="font-variant:normal;font-stretch:normal;text-indent:0;text-align:start;line-height:normal;text-transform:none;direction:ltr;block-progression:tb;writing-mode:lr-tb;color:#000;marker:none;visibility:visible;display:inline;overflow:visible;enable-background:accumulate;-inkscape-font-specification:Sans"/></g><g stroke-width="0.7" stroke-dasharray="none" style="stroke-miterlimit:4"><path d="M341 302q0 2-1 3-2 1-3-1c-1-1-2-3-3-4q-2-2-5-2-2 0-4 2c-2 2-2 6 0 9 2 3 8 5 10 7q3 2 3 4s0 3 0 4q-1 2-5 2c-3 0-6-3-10-4-6-1-8 2-13 2-11 0-16-4-16-4l-12 15c-4 2-4 7 0 10-1 1-2 2-3 3q-1 2-2 4c0 0-2 0-4 0-1 0-2 0-3 0q-2 1-3 3c-1 2 0 4 2 3 2 2 4 1 6 0q1 0 2 0 1 0 2 0c2-1 2-2 3-4 0-1 2-2 2-2l1 1q1-2 0-3l1 1q1-2 0-3l1 1q0 0 1-2 1-1 1-2c0-1 0-2 0-2q1 1 2 1c0-1 0-2 0-2q6 0 12-2 4-2 7-5l2-1c0-1 3 0 4 0 0 0 1 1 1 1 1 2 3 8 9 10-2 3 1 5-1 7 0 0-2 0-4-1q-2 0-3 0-2 1-3 3c-1 2 0 4 2 3 2 2 4 1 6 0q1 0 2 0 1 0 2 0 2-1 4-6l2 1q0-2-1-3l2 1q0-2-1-3l2 1q0 0 0-2c0-1 0-2 0-2l-1-2c0 0 0-1 0-1-3-2-4-4-4-6 0-3 0-5-2-7q1 0 2 0c4 0 7-2 8-5q1-3 0-6c-1-2-2-3-4-5-2-2-8-4-9-6-2-2-1-5 0-6s3-2 6 0c1 1 2 3 3 4 1 1 4 2 6 1s2-3 2-5q0-2 4-3c-1-1-4-3-5 0-2-2-4-1-5 1q2-1 4 2z" transform="translate(-38.2 -121.3)" fill="#f6b721" fill-opacity="1" stroke="#000" stroke-width="0.7" stroke-linecap="butt" stroke-linejoin="miter" stroke-opacity="1" stroke-dasharray="none" style="stroke-miterlimit:4;display:inline"/><g stroke-width="0.7" stroke-dasharray="none" style="stroke-miterlimit:4"/><g stroke-width="0.7" stroke-dasharray="none" style="stroke-miterlimit:4"/></g><g stroke-width="0.7" stroke-dasharray="none" style="stroke-miterlimit:4"><g stroke-width="0.7" stroke-dasharray="none" style="stroke-miterlimit:4"></g><g stroke-width="0.7" stroke-dasharray="none" style="stroke-miterlimit:4"></g><g stroke-width="0.7" stroke-dasharray="none" style="stroke-miterlimit:4"><path transform="translate(-38.2 -121.3)" d="M279 302c0 0 0 1 0 1q0 1-1 2c0 0 0 1 0 1s0-1 1-1 2 0 2 0 0-1 0-2c0-1-2-2-2-2zm13 0c0 0-2 1-2 2 0 0 0 2 0 2s1 0 2 0 1 1 1 1 0-1 0-1q0-1 0-2 0-1 0-1zm-14 6q-1 1-1 2 0 1 1 1l0 0q0 0-1 1-1 3 1 5c-1 1-2 3-2 4 1-1 2-2 2-3l1 1c0 1-1 3-1 4 1-1 2-3 2-4l1 0q0 1 0 2c0 1-1 3-2 4 1-1 2-3 2-4q0 0 1 1c0 1 0 3 0 4l1-4 1 0h0c0 1 0 3 1 4l0-4 1 0c0 1 1 3 2 4 0-1-1-4-1-4l0 0q0-1 0-2c1 1 2 2 4 3-1-1-2-3-3-4q1 0 2-1c1 1 3 3 4 4-1-1-3-4-3-4q2-2 1-5 0-1-1-1l0 0q1 0 1-1 0-1-1-2 0 1 0 2 0 1-1 1l-1 0 1 0q0 0 0 0 0 0 0 1 1 2-1 4-1 2-4 1c-1 0-1 0-1-2l1 0 0 0 0 0q1 0 1 0l0 0v0q0 0 0-1 0-1-1-1l0 0 0 0q0-2 0-3 0-1 2-1 1 0 2 0-1-1-2-1-2 0-2 2 0 2 0 4l0 0 0 0q0 0 0 1 0 0 0 0 0 0-1 0 0 0 0 0 0 0 0 0l0 0q0 0 0 0 0 0 0 0l0 0q0 0 0 0 0 0 0 0 0 0-1 0 0 0 0 0 0 0 0-1l0 0 0 0q0-2 0-4 0-1-2-2-2 0-2 1 1 0 2 0 1 0 2 1 0 1 0 3l0 0 0 0q0 0-1 1 0 1 0 1v0l0 0q0 0 1 0 0 0 0 0 0 0 0 0l1 0c0 1 0 1-1 2q-3 0-4-1-1-2-1-4 0 0 0-1 0 0 0 0l1 0-1 0q-1 0-1-1 0-1 0-2zm4 2q0 0-1 0c0 1 1 2 2 1q0-1-1-1zm7 0q-1 0-1 1c1 1 2 0 2-1q-1 0-1 0zm-3 9q0 0 0 0 0 0 1 0h1q0 1 0 1-1 1-2 1-2 0-2-1 0-1 0-1h1q1 0 1 0 0 0 0 0zm-9 2c-1 1-2 3-3 3l1 0 0 1c1-2 2-2 2-4zm2 0c-1 1-2 4-3 5l1 0 0 1c0-2 2-4 2-6zm17 0c0 1 2 2 3 4l0-1 1 0c-2-1-2-1-4-3zm-2 0c0 2 3 4 3 6l0-1 1 0c-1-1-3-4-4-5zM280 323c-1 1-1 3-2 4l1 0 0 1c0-2 1-3 1-4zm12 0c0 2 2 3 1 5l0-1 1 1c-1-1-2-4-3-5zm-2 0c0 2 1 3 0 6l1-1 1 1c-1-1-1-4-2-5zm-7 1c-1 1-1 3-1 4l1-1 1 1c-1-2 0-3 0-4zm5 0c0 2 1 2 0 5l1-1 1 1c-1-1-1-3-2-4zm-2 1c0 1 0 2-1 4l1-1 1 1c-1-2 0-2-1-4z" font-size="medium" font-style="normal" font-weight="normal" text-decoration="none" letter-spacing="normal" word-spacing="normal" text-anchor="start" fill="#000" fill-opacity="1" stroke="none" stroke-width="0.7" font-family="Sans" style="font-variant:normal;font-stretch:normal;text-indent:0;text-align:start;line-height:normal;text-transform:none;direction:ltr;block-progression:tb;writing-mode:lr-tb;color:#000;marker:none;visibility:visible;display:inline;overflow:visible;enable-background:accumulate;-inkscape-font-specification:Sans"/></g></g></g></g></g></g></svg>