<svg xmlns="http://www.w3.org/2000/svg" viewBox="-239.3232879638672 -118.50362396240234 508.21319580078125 407.4847717285156"><style><![CDATA[.A{font-family:sans-serif;text-anchor:middle}.B{stroke-width:2px}.C{fill:#000;font-size:8px}.D{font-size:10px}.E{font-size:40}.F{fill:#a5abb6}.G{stroke:none}.H{fill:#fff}.I{fill:#fb95af;stroke:#e0849b}.J{fill:#6dce9e;stroke:#60b58b}]]></style><g><g transform="translate(34.3 115.4) rotate(269.4922065296122)"><path d="M40 2h38v-3h-38zm64 0h37v3l9-4-9-4v3h-37z" class="F G"/><text pointer-events="none" x="90.5" y="3" transform="rotate(180 90.4747773292455 0)" class="A C">DATE</text></g><g transform="translate(34.3 115.4) rotate(320.9491277401273)"><path d="M40 2h50v-3h-50zm86 0h50v3l9-4-9-4v3h-50z" class="F G"/><text pointer-events="none" x="107.7" y="3" class="A C">ACTION</text></g><g transform="translate(-133.5 -12.1) rotate(397.2348046509669)"><path d="M40 2h35v-3h-35zm86 0h35v3l9-4-9-4v3h-35z" class="F G"/><text pointer-events="none" x="100.9" y="3" class="A C">PERSON_IN</text></g><g transform="translate(34.3 115.4) rotate(504.96431082365075)"><path d="M40 2h22v-3h-22zm95 0h22v3l9-4-9-4v3h-22z" class="F G"/><text pointer-events="none" x="98.4" y="3" transform="rotate(180 98.40460647876948 0)" class="A C">PLACE_OF_ISSUE</text></g><g transform="translate(-133.5 -12.1) rotate(487.2348046509669)"><path d="M12 38l10 39a23 23 0 11-44 0l8-30 6 2-2-10-7 8 6 2-8 30a20 20 0 10 39 0L9 39z" class="F G"/><text pointer-events="none" x="0" y="114.8" transform="rotate(180 0 111.75802982729645)" class="A C">KNOWS</text></g><g transform="translate(34.3 115.4) rotate(359.590090167363)"><path d="M40 2h21v-3h-21zm81 0h21v3l9-4-9-4v3h-21z" class="F G"/><text pointer-events="none" x="90.8" y="3" class="A C">REFERENCES</text></g><g transform="translate(-195.3 114.6) rotate(360.215641982899)"><path d="M40 2h49v-3h-49zm92 0h49v3l9-4-9-4v3h-49z" class="F G"/><text pointer-events="none" x="110.3" y="3" class="A C">PLACE_IN</text></g></g><g><g transform="translate(37.7 245)"><circle cx="0" cy="0" r="40" class="B I"/><text class="A H"><tspan dy="2.5" class="E"/><tspan y="5" class="D"> Literature</tspan></text></g><g transform="translate(208.6 -25.9)"><circle cx="0" cy="0" r="40" fill="#de9bf9" stroke="#bf85d6" class="B"/><text class="A H"><tspan dy="2.5" class="E"/><tspan y="5" class="D"> Lemma</tspan></text></g><g transform="translate(224.9 114.1)"><circle cx="0" cy="0" r="40" fill="#ffd86e" stroke="#edba39" class="B"/><text fill="#604a0e" class="A"><tspan dy="2.5" class="E"/><tspan y="5" class="D"> Reference</tspan></text></g><g transform="translate(-195.3 114.6)"><circle cx="0" cy="0" r="40" class="B J"/><text class="A H"><tspan dy="2.5" class="E"/><tspan y="5" class="D"> IndexPlace</tspan></text></g><g transform="translate(162.3 243)"><circle cx="0" cy="0" r="40" class="B I"/><text class="A H"><tspan dy="2.5" class="E"/><tspan y="5" class="D"> IndexEntry</tspan></text></g><g transform="translate(34.3 115.4)"><circle cx="0" cy="0" r="40" fill="#ff756e" stroke="#e06760" class="B"/><text class="A H"><tspan dy="2.5" class="E"/><tspan y="5" class="D"> Regesta</tspan></text></g><g transform="translate(-133.5 -12.1)"><circle cx="0" cy="0" r="40" fill="#68bdf6" stroke="#5ca8db" class="B"/><text class="A H"><tspan dy="2.5" class="E"/><tspan y="5" class="D"> IndexPerson</tspan></text></g><g transform="translate(32.6 -74.5)"><circle cx="0" cy="0" r="40" stroke="#9aa1ac" class="B F"/><text class="A H"><tspan dy="2.5" class="E"/><tspan y="5" class="D"> Date</tspan></text></g><g transform="translate(-134.2 233.6)"><circle cx="0" cy="0" r="40" class="B J"/><text class="A H"><tspan dy="2.5" class="E"/><tspan y="5" class="D"> Place</tspan></text></g></g></svg>