<svg xmlns="http://www.w3.org/2000/svg" viewBox="-239.32 -118.5 508.21 407.49"><path fill="#a5abb6" d="M35.4 75.4 35.1 38h-3l.3 37.5zM34.9 12l-.4-37.5h3l-4.5-9-4.5 9h3l.4 37.5z"/><text x="90.5" y="3" font-family="sans-serif" font-size="8" pointer-events="none" text-anchor="middle" transform="rotate(89.5 49.39 -16.26)">DATE</text><path fill="#a5abb6" d="m66.3 91.4 38.6-31.3-1.9-2.3-38.6 31.3zm66.6-54 38.6-31.3 1.9 2.3 4.1-9.1-9.8 2.1 1.9 2.4L131 35.1z"/><text x="107.7" y="3" font-family="sans-serif" font-size="8" pointer-events="none" text-anchor="middle" transform="rotate(-39.05 179.91 9.36)">ACTION</text><path fill="#a5abb6" d="m-102.5 13.3 28.1 21.4 1.8-2.4-28.1-21.3zm68.7 52.3L-5.6 87l-1.8 2.4 9.8 1.8-4.4-9-1.8 2.4L-32 63.2z"/><text x="100.9" y="3" font-family="sans-serif" font-size="8" pointer-events="none" text-anchor="middle" transform="rotate(37.23 -48.83 -204.12)">PERSON_IN</text><path fill="#a5abb6" d="m.7 137.2-17.9 12.5 1.7 2.5 17.9-12.6zM-77 191.6l-18 12.6-1.7-2.4-4.8 8.8 10-1.5-1.7-2.4 17.9-12.6z"/><text x="98.4" y="3" font-family="sans-serif" font-size="8" pointer-events="none" text-anchor="middle" transform="rotate(-35.04 298.42 315.15)">PLACE_OF_ISSUE</text><path fill="#a5abb6" d="m-171.1-25.8-37-15.2a22.9 22.9 0 1126.8-35.2l19 24.5-4.7 3.7 9 4.3-1.9-9.9-4.8 3.7-18.9-24.5a19.9 19.9 0 10-23.3 30.7l37 15.1z"/><text y="114.8" font-family="sans-serif" font-size="8" pointer-events="none" text-anchor="middle" transform="rotate(-52.77 -304.2 240.26)">KNOWS</text><path fill="#a5abb6" d="m74.3 116.7 20.8-.2v-3l-20.8.2zm80.8-.6 20.8-.2v3l9-4.5-9-4.5v3l-20.8.2z"/><text x="90.8" y="3" font-family="sans-serif" font-size="8" pointer-events="none" text-anchor="middle" transform="rotate(-.41 16152.67 -4736.19)">REFERENCES</text><path fill="#a5abb6" d="m-155.3 116.2 48.8.2v-3l-48.8-.2zm91.8.4 48.8.1v3l9-4.4-9-4.6v3l-48.8-.1z"/><text x="110.3" y="3" font-family="sans-serif" font-size="8" pointer-events="none" text-anchor="middle" transform="rotate(.22 -30539.85 -51839.78)">PLACE_IN</text><g transform="translate(37.7 245)"><circle r="40" fill="#fb95af" stroke="#e0849b" stroke-width="2"/><text y="5" fill="#fff" font-family="sans-serif" font-size="10" pointer-events="none" text-anchor="middle"> Literature</text></g><g transform="translate(208.6 -25.9)"><circle r="40" fill="#de9bf9" stroke="#bf85d6" stroke-width="2"/><text y="5" fill="#fff" font-family="sans-serif" font-size="10" pointer-events="none" text-anchor="middle"> Lemma</text></g><g transform="translate(224.9 114.1)"><circle r="40" fill="#ffd86e" stroke="#edba39" stroke-width="2"/><text y="5" fill="#604a0e" font-family="sans-serif" font-size="10" pointer-events="none" text-anchor="middle"> Reference</text></g><g transform="translate(-195.3 114.6)"><circle r="40" fill="#6dce9e" stroke="#60b58b" stroke-width="2"/><text y="5" fill="#fff" font-family="sans-serif" font-size="10" pointer-events="none" text-anchor="middle"> IndexPlace</text></g><g transform="translate(162.3 243.1)"><circle r="40" fill="#fb95af" stroke="#e0849b" stroke-width="2"/><text y="5" fill="#fff" font-family="sans-serif" font-size="10" pointer-events="none" text-anchor="middle"> IndexEntry</text></g><g transform="translate(34.3 115.4)"><circle r="40" fill="#ff756e" stroke="#e06760" stroke-width="2"/><text y="5" fill="#fff" font-family="sans-serif" font-size="10" pointer-events="none" text-anchor="middle"> Regesta</text></g><g transform="translate(-133.5 -12.1)"><circle r="40" fill="#68bdf6" stroke="#5ca8db" stroke-width="2"/><text y="5" fill="#fff" font-family="sans-serif" font-size="10" pointer-events="none" text-anchor="middle"> IndexPerson</text></g><g transform="translate(32.6 -74.5)"><circle r="40" fill="#a5abb6" stroke="#9aa1ac" stroke-width="2"/><text y="5" fill="#fff" font-family="sans-serif" font-size="10" pointer-events="none" text-anchor="middle"> Date</text></g><g transform="translate(-134.2 233.6)"><circle r="40" fill="#6dce9e" stroke="#60b58b" stroke-width="2"/><text y="5" fill="#fff" font-family="sans-serif" font-size="10" pointer-events="none" text-anchor="middle"> Place</text></g></svg>