<svg xmlns="http://www.w3.org/2000/svg" viewBox="0 0 72 72"><g stroke="none"><path fill="#fcea2b" d="M43.28 20.52c.28-.65 1.44-3.29 1.92-3.86 2.59-3.14 7.54-3.34 7.54-3.34s.74 4.9-1.85 8.04q-1.08 1.26-2.47 1.96l-1.86.85c.82-.44 3.59-1.63 4.57-1.76 4.04-.5 7.78 2.75 7.78 2.75s-2.82 4.07-6.86 4.57q-2.3.2-4.21-.64l-1.51-.56c1.07.4 3.64 1.56 4.53 2.46 2.85 2.91 2.53 7.85 2.53 7.85s-4.95.22-7.8-2.69c-.63-.64-1.89-3.78-2.24-4.54l.77 2.4q.37 1.07.41 2.27c.07 4.07-3.55 7.44-3.55 7.44s-3.75-3.24-3.82-7.31c-.02-.83 1.35-4.71 1.35-4.71l-1.14 2.62q-2.83 3.86-7.55 4.45-1.47.1-1.54.07s-.32-4.94 2.53-7.85q1.29-1.25 2.84-1.83l1.71-.71c0 0-4.31 1.45-5.75 1.28-4.04-.51-6.86-4.57-6.86-4.57s3.73-3.25 7.78-2.75c.84.1 3.84 1.58 4.56 1.92l-2.21-1.21q-1.18-.66-2.11-1.76c-2.59-3.14-1.85-8.04-1.85-8.04s4.95.2 7.54 3.34c.5.61 1.85 3.22 2.13 3.91l-.91-1.94q-.46-1.19-.51-2.55c-.07-4.07 3.55-7.44 3.55-7.44s3.75 3.24 3.82 7.31q.01 1.35-.41 2.56"/><circle cx="40.8" cy="26.2" r="5" fill="#f1b31c"/><path fill="#5c9e31" d="M23.36 38.97c2.34 2.87 1.65 7.32 1.65 7.32s-4.5-.2-6.84-3.07S16.52 35.9 16.52 35.9s4.5.2 6.84 3.07zM36.65 52.5c2.86-2.33 7.29-1.64 7.29-1.64s-.2 4.48-3.06 6.82-7.29 1.64-7.29 1.64.21-4.48 3.06-6.82z"/></g><g fill="none" stroke="#000" stroke-width="2"><circle cx="40.8" cy="26.2" r="5" stroke-linecap="round" stroke-linejoin="round"/><path stroke-linecap="round" stroke-linejoin="round" d="M23.86 38.56c2.79 3.41 1.96 8.71 1.96 8.71s-5.35-.24-8.14-3.66S15.72 34.9 15.72 34.9s5.35.25 8.14 3.66zM43.28 20.52c.28-.65 1.44-3.29 1.92-3.86 2.59-3.14 7.54-3.34 7.54-3.34s.74 4.9-1.85 8.04q-1.08 1.26-2.47 1.96l-1.86.85c.82-.44 3.59-1.63 4.57-1.76 4.04-.5 7.78 2.75 7.78 2.75s-2.82 4.07-6.86 4.57q-2.3.2-4.21-.64l-1.51-.56c1.07.4 3.64 1.56 4.53 2.46 2.85 2.91 2.53 7.85 2.53 7.85s-4.95.22-7.8-2.69c-.63-.64-1.89-3.78-2.24-4.54l.77 2.4q.37 1.07.41 2.27c.07 4.07-3.55 7.44-3.55 7.44s-3.75-3.24-3.82-7.31c-.02-.83 1.35-4.71 1.35-4.71l-1.14 2.62q-2.83 3.86-7.55 4.45-1.47.1-1.54.07s-.32-4.94 2.53-7.85q1.29-1.25 2.84-1.83l1.71-.71c0 0-4.31 1.45-5.75 1.28-4.04-.51-6.86-4.57-6.86-4.57s3.73-3.25 7.78-2.75c.84.1 3.84 1.58 4.56 1.92l-2.21-1.21q-1.18-.66-2.11-1.76c-2.59-3.14-1.85-8.04-1.85-8.04s4.95.2 7.54 3.34c.5.61 1.85 3.22 2.13 3.91l-.91-1.94q-.46-1.19-.51-2.55c-.07-4.07 3.55-7.44 3.55-7.44s3.75 3.24 3.82 7.31q.01 1.35-.41 2.56M36.24 52c3.41-2.79 8.71-1.96 8.71-1.96s-.24 5.35-3.66 8.14-8.71 1.96-8.71 1.96.25-5.35 3.66-8.14zM34.37 41.03c-3.44 3.55-7.68 10.25-5.83 20.73"/></g></svg>