<svg xmlns="http://www.w3.org/2000/svg" viewBox="0 0 72 72"><style><![CDATA[.A{fill:none;stroke:#000;stroke-linecap:round;stroke-linejoin:round;stroke-width:1.9}.B{fill:#61b2e4}]]></style><defs><path id="ua" d="m14.92 35.75-1.97 2.04q5.25 1.42 9.76 4.68l.84-1.13q1.07-1.05 2.54-1.36.34-6.15 3.29-11.81l.01-.01q-3.99.86-7.64 2.74-3.77 1.97-6.83 4.85h0Z"/><path id="ub" d="m31.97 45.84q-.3 1.48-1.36 2.55-.51.51-1.15.85 3.26 4.5 4.7 9.75l2.04-1.97q2.88-3.07 4.85-6.83 1.89-3.65 2.74-7.64-5.67 2.95-11.83 3.28h0Z"/></defs><g><circle cx="48.5" cy="23.8" r="2.1" fill="#fff"/><path fill="#fcea2b" d="m16.12 48.11c-3.16 3.16-4.65 7.56-3.97 11.69 4.13.68 8.52-.82 11.68-3.98s4.65-7.56 3.97-11.69c-4.13-.68-8.52.82-11.68 3.98Z"/><use href="#ub" class="B"/><use href="#ua" fill="#92d3f5"/><path fill="#ea5a47" d="m34.82 20.75c-5.23 5.25-8.37 12.16-8.72 19.23q2.6-.45 4.51 1.36 1.83 1.93 1.36 4.53c7.08-.36 13.99-3.5 19.24-8.74 6.71-6.72 9.88-16.07 8.43-24.84q-2.6-.42-5.29-.31c-7.17.29-14.21 3.45-19.53 8.77h0Zm10.25-.53c1.84-1.84 4.83-1.84 6.67 0h0c1.84 1.84 1.84 4.83 0 6.67h0c-1.84 1.84-4.83 1.84-6.67 0s-1.84-4.83 0-6.67Z"/><path fill="#f1b31c" d="m26.54 52.04q-1.33 1.48-3.01 2.56c-3.49 2.22-7.72 2.83-11.44 1.65q-.22 1.8.06 3.55c4.13.68 8.52-.82 11.68-3.98q1.66-1.68 2.71-3.79h0Z"/><path fill="#d22f27" d="m26.2 38.69-.07 1.28q2.58-.43 4.48 1.37 1.83 1.93 1.36 4.53c7.08-.36 13.99-3.5 19.24-8.74q2.25-2.27 3.97-4.93-2.03 1.84-4.35 3.31c-7.56 4.71-16.69 5.89-24.63 3.18h0Z"/><path d="m24.04 48.55 2.55-1.44q3.68-2.31 6.63-5.56h0q2.83-3.16 4.73-6.91l.1-.39c-3.4-.75-14.85 10.25-14.02 14.29h0Z" class="B"/></g><g><path d="m48.41 29.49c-3.28 0-5.94-2.66-5.94-5.94s2.66-5.94 5.94-5.94 5.94 2.66 5.94 5.94-2.66 5.94-5.94 5.94Zm0-9.9c-2.18 0-3.96 1.78-3.96 3.96s1.78 3.96 3.96 3.96 3.96-1.78 3.96-3.96-1.78-3.96-3.96-3.96Z"/><path d="m20.65 45.06q-2.54 1.08-4.53 3.05c-3.16 3.16-4.65 7.56-3.97 11.69 4.13.68 8.52-.82 11.68-3.98q1.97-1.99 3.05-4.53" class="A"/><use href="#ua" class="A"/><use href="#ub" class="A"/><path d="m31.83 43.34q.35 1.31.14 2.52c7.08-.36 13.99-3.5 19.24-8.74 6.71-6.72 9.88-16.06 8.44-24.83-8.77-1.44-18.11 1.74-24.82 8.45-5.23 5.25-8.37 12.16-8.72 19.23q1.44-.27 2.77.24" class="A"/><path d="m37.07 34.2h0q-3.64 1.84-6.7 4.58-3.14 2.86-5.38 6.42l-1.39 2.47" class="A"/></g></svg>