<svg xmlns="http://www.w3.org/2000/svg" id="emoji" viewBox="0 0 72 72"><g id="color" stroke="none"><path fill="#FFFFFF" d="M23.8 12.4l1.7 7.2-5.3 5.3-8.3 14.3 1 4.7 2.2 1.3 4-.2 3.5-3.3 6.8-1.8c0 0 1.3 1.5 2.2 3s3.7 4.2 3.7 4.2l.5 6-1.8 6.2-2 2.8c0 0 22 9.5 33.2-7l-.5-6-1.8-5-3.3-5.2-1-1.5-.2-5.2-2.8-5.3-5-3-2.7-4.5-5.2-4.2-6.5-1.5-5.7 1-4.2-2.2L23.8 12.4z"/><path fill="#EA5A47" d="M50.7 23.2l5.2 4.1c0 0 5.6 8.2-.3 17.8-7 11.5 0 0 0 0q-2.5 5.23-1.7 9.7l-5.3-4.4V34.3L50.7 23.2z"/><polyline fill="#EA5A47" points="25.8985,19.2712 10.7847,12.0212 15.951,18.1399 21.1747,23.995 25.8985,19.2712"/><path fill="#92D3F5" d="M29.7 13.6l10.8.1c0 0 9.2 4.1 10.5 11.8l.7 9c-2.6 6.5-3.1 14.1 2.1 20.8h0c0 0-7.1 1.3-9.9-7.1L42.3 43.5l.3-6 1.4-5.6-.3-4.9-2.3-4.3-3.5-2.8-5.8-2.1L29.7 13.6"/><path fill="#61B2E4" d="M58.5 36.8c0 0 5.5 6.4 7 15.1q.25 1.65-.1 3.3c-.4 1.8-.8 5 .1 7.4.5 1.2-.6 2.4-1.8 2.1-3.7-.8-9.2-3.6-10.3-8.1v-.3l-.3-5.7.2-.8 3.7-6.8.1-.4L58.5 36.8"/></g><g id="hair"/><g id="skin"/><g id="skinshadow"/><g id="line"><path fill="none" stroke="#000000" stroke-linecap="round" stroke-linejoin="round" stroke-miterlimit="10" stroke-width="2" d="M58.5 37.8C60.2 40.1 65 44.5 64.5 54M32.5 41.9c0 0 8.5 6.8 0 18.8M35.2 30.9c.5 8.4-9.3 9.7-12 10.3l-.9.5-2.2 2.2q-.5.47-1.3.5h-3.5q-1.95-.13-2.7-1.9l-.5-1.6q-.45-1.23.3-2.3l8.8-14.6 4.7-4.7-2.1-6.9c0 0 7.8-.7 8.4 5.3 0 0 16.9 2.4 10.6 19.4 0 0-1.6 5.9 2.4 11.2M30.9 14c0 0 22.2-4 20 20M49.9 23.2c0 0 14.8 6.6 5.5 22.2 0 0-5.4 6.6.6 13.6"/><polyline fill="none" stroke="#000000" stroke-linecap="round" stroke-linejoin="round" stroke-miterlimit="10" stroke-width="2" points="24.809,19.1338 10.25,11.75 21.1747,23.995"/><circle cx="24.4" cy="28.9" r="2" fill="#000000" stroke="none"/></g></svg>