<svg xmlns="http://www.w3.org/2000/svg" id="emoji" viewBox="0 0 72 72"><g id="color"><path fill="#B1CC33" stroke="#B1CC33" stroke-linecap="round" stroke-linejoin="round" stroke-miterlimit="10" stroke-width="2" d="M46 24c-1.1-.6-4-1-5.9-.9C38.2 23.2 37 21 37 21c-.9 1.4-.3 2.8.6 3.9q1.85 2.15 4.6 2.8C47.7 28.9 48 30 48 30l-.2 2.9c3.9 1.6 4.6 4.5 4.9 5.5h-4.4c3.5 2.4 4.3 7.4 4.3 7.4L50 46c-.2 3-3.5 7.9-8 11s-2.2 7.8-2.2 7.8S34 58 42 51s.6-15 .6-15c1.6 12-4.4 14.6-4.4 14.6C30.3 52.2 29.8 47.2 29.8 47.2l3.8 1.4c8.5.7.2-11.1.2-11.1C24.3 32.2 20 40 19.6 38.6s1.6-4.8 1.6-4.8c-1.8-1.2-10.8 3.1-10.8 3.1C9.7 35.8 17.6 31 17.6 31 16.2 29 10 29 10 29s4-6 14.2-2.8L37 34c0 0-6.7-6.9-8-12-1.3-5.2 2.6-8.5 2-8l-3.3-4.3c1.9-.5 3.6.8 4.1 1.2l-1.6-5.1c2.5.1 3.8 2.1 4.2 2.8L36 5l3.9 3.5c0 0 2.1-1.5 3 .2C43.8 10.5 46 14 49.1 14.6s1.5 3.9 1.5 3.9S46 17 44 17s-2.8 1.6-2.8 1.6S41 18 45 20 46 24 46 24"/><path fill="#EA5A47" stroke="none" d="M50 21c0 0 4 2 3 4 0 0 3.3 0 4.2 2.5C58 30 63 28 63 28l-4.3-2.2c0 0 0-2.8-1.3-2.8C56 23 53 20 50 21z"/></g><g id="hair"/><g id="skin"/><g id="skinshadow"/><g id="line" fill="none" stroke="#000000" stroke-width="2"><path stroke-linecap="round" stroke-linejoin="round" stroke-miterlimit="10" d="M52.7 45.7c0 0-.9-4.9-4.3-7.4M52.7 38.3c-.3-1-1-3.9-4.9-5.5M48 30c0 0-.3-1.1-5.8-2.3q-2.83-.58-4.6-2.8C36.7 23.8 36.1 22.4 37 21c0 0 1.2 2.2 3.1 2.1C42 23 44.9 23.4 46 24M46 24c0 0 3-2-1-4s-3.8-1.4-3.8-1.4S42 17 44 17s6.6 1.5 6.6 1.5 1.6-3.3-1.5-3.9C46 14 43.8 10.5 42.9 8.8c-.9-1.8-3-.2-3-.2L36 5M24.2 26.2C14 23 10 29 10 29s6.2 0 7.6 2c0 0-7.9 4.8-7.2 5.9 0 0 9-4.2 10.8-3.1 0 0-2 3.3-1.6 4.8.4 1.4 4.8-6.4 14.1-1 0 0 8.3 11.8-.2 11.1L29.8 47.2c0 0 .6 4.9 8.4 3.3 0 0 6-2.6 4.4-14.6 0 0 7.4 8-.6 15s-2.2 13.8-2.2 13.8S37.5 60.1 42 57s7.8-8 8-11M31 14c.6-.5-3.3 2.8-2 8 1.3 5.1 8 12 8 12M34.5 8.5c-.5-.7-1.7-2.7-4.2-2.8M31.8 10.9c-.6-.4-2.2-1.7-4.1-1.2M50 21c0 0 4 2 3 4 0 0 3.3 0 4.2 2.5C58 30 63 28 63 28l-4.3-2.2c0 0 0-2.8-1.3-2.8C56 23 53 20 50 21z"/></g></svg>