<svg xmlns="http://www.w3.org/2000/svg" viewBox="0 0 480 480" fill="currentColor"><path d="M419 318a15 15 0 00-5-6c-32-22-39-60-39-87 0-33 25-62 40-76a15 15 0 00 0-22C392 104 352 90 315 90a135 135 0 00-75 23 134 134 0 00-170 17 140 140 0 00-40 101 238 238 0 00 75 168 75 75 0 00 52 21h164a75 75 0 00 55-24 234 234 0 00 33-46c13-24 12-28 10-32zm-65 58a45 45 0 01-33 14h-164a45 45 0 01-31-12 208 208 0 01-66-147 110 110 0 01 31-80 103 103 0 01 74-31h2a104 104 0 01 64 23 15 15 0 00 19 0 104 104 0 01 65-23 132 132 0 01 68 19c-24 27-38 57-38 86q0 67.75 42 104a198 198 0 01-33 47zM240 56a75 75 0 01 73-56h2a15 15 0 01 0 30h-2a45 45 0 00-44 34 15 15 0 11-29-8z"/></svg>