<svg xmlns="http://www.w3.org/2000/svg" fill="currentColor" viewBox="0 0 1000 1000"><path d="M872 662a31 31 0 00-11-13c-66-46-80-123-80-180 0-69 53-129 84-159a31 31 0 000-45 320 320 0 00-209-77 281 281 0 00-156 47 280 280 0 00-354 36 293 293 0 00-84 211 496 496 0 00157 350 156 156 0 00108 43h343a156 156 0 00113-49 488 488 0 0070-96c27-50 23-58 20-67M738 784a94 94 0 01-68 29H327a94 94 0 01-64-25 434 434 0 01-138-308 230 230 0 0165-166 215 215 0 01154-64h3a219 219 0 01133 48 31 31 0 0039 0 215 215 0 01137-48 277 277 0 01141 41 273 273 0 00-78 178q1 141 87 216a414 414 0 01-68 98M501 117A156 156 0 01652 0h4a31 31 0 010 62h-4a94 94 0 00-91 70 31 31 0 11-61-16Z"/></svg>