<svg xmlns="http://www.w3.org/2000/svg" viewBox="0.0 0.0 24.0 24.0" fill="none" stroke="black" stroke-width=".3"><path stroke-opacity="1" filling="0" d="M12 2.55l0 0q2.43.21 4.43 1.17 2.02.97 3.43 3.04 1.94 3.07 1.47 6.34-.48 3.28-2.8 5.65-2.31 2.36-5.93 2.68C9.99 21.6 7.7 20.69 5.96 19.18 4.23 17.66 3.06 15.54 2.71 13.26Q2.11 9.73 4.35 6.45C5.3 5.15 6.44 4.24 7.73 3.63 9.02 3.02 10.46 2.7 12 2.55l0 0M8.93 7.35l4.05 2.02 4.05 2.03q.32.6 0 1.2l-4.05 2.03-4.05 2.02q-.78.2-.98-.6v-4.05-4.05q.34-.54.98-.6l0 0m0 0 4.05 2.02 4.05 2.03q.32.6 0 1.2l-4.05 2.03-4.05 2.02q-.64-.06-.98-.6v-4.05-4.05q.34-.54.98-.6l0 0M15.22 12 9.3 14.96v-5.92m0 0L15.22 12 9.3 14.96v-5.92"/></svg>