<svg role="img" viewBox="0 0 2400 2400" xmlns="http://www.w3.org/2000/svg"><path d="M1250 0l-48 2c-423 33-310 481-317 630q-2 153-105 302c-89 105-213 275-272 452q-45 126-29 249a42 42 0 00-11 14l-66 84q-31 25-80 40-51 14-86 68l-13 60 6 54q12 60 4 97-37 100-11 148 30 45 94 60c81 20 191 14 277 60q145 74 262 47 82-20 121-95 80-12 226-33c70-6 157 27 258 20l11 33h0q66 116 188 107 121-12 226-131c63-77 168-108 238-150q57-29 65-85 4-56-71-138v-10h0q-23-32-34-93-8-63-49-105h0l-19-14a36 36 0 00-19-6q56-195-17-369c-53-141-147-264-217-348-80-100-158-196-156-337 3-215 24-613-354-614zm53 340h1q31-1 58 20l44 53 17 72 1-6v10a9 9 0 01 0-2v-2a181 181 0 01-15 71 95 95 0 01-21 34 71 71 0 00-9-4l-28-13a131 131 0 00-22-7l18-20 9-40v-2a121 121 0 00-6-40l-18-33-27-13h-2l-26 13a80 80 0 00-20 33 118 118 0 00-9 40v2l2 27-61-20a164 164 0 01-2-20v-2a177 177 0 01 15-77q12-34 43-53a98 98 0 01 59-20zm-296 6h4l40 14 34 47 15 67v0 27 8l-47 22v-27-1l-8-33a61 61 0 00-17-27 25 25 0 00-18-6h-2l-19 13a55 55 0 00-12 27 94 94 0 00-2 33v1l8 33 20 29-18 14a30 30 0 01-13 7 262 262 0 01-28-40 177 177 0 01-15-67 176 176 0 01 8-67 143 143 0 01 28-54q19-20 42-20zm137 171q49-5 122 40 34 24 105 47h0q38 21 48 40v-13a57 57 0 01 2 47q-21 50-106 84v0l-78 47q-40 26-101 27a114 114 0 01-45-7 357 357 0 01-32-20l-61-47v-1h-1q-59-39-69-71-11-40 19-60 33-22 48-34l18-13h0v0q25-35 84-60l47-7zm280 214c36 142 120 348 174 447 29 53 85 166 110 302l51 6c65-167-55-347-109-397q-31-32-12-34c59 53 136 157 165 276q21 81 2 167l20 7q152 72 123 154v-4h-18-2q24-66-106-122-148-67-177 47l-2 14-21 6q-62 41-79 119-17 80-20 187v0q-6 54-32 135c-150 107-358 154-535 33a265 265 0 00-40-53 145 145 0 00-28-33l47-7a61 61 0 00 31-33q17-44-34-116-51-71-179-152-93-60-115-140-23-80-1-165c24-107 87-211 127-276q21-19-41 97c-40 75-114 250-12 385a812 812 0 01 65-288c56-128 174-350 184-527l29 20 59 47q30 32 88 34l11 1q60-3 100-27l74-40h1q71-23 104-70zm219 896q7 104 88 138c59 13 143-33 179-77l21-1q46-7 85 27h0q28 33 39 88 8 62 41 107 69 80 64 114v-1 2-1q-2 35-50 59c-63 40-175 71-246 157q-98 111-204 119-103 11-157-90h-1q-26-64 6-169 34-103 46-190 4-108 20-181 16-71 64-98l4-2zm-1081 5h1l16 1q56 10 102 75l91 166h0q44 78 119 164 72 90 73 157v1q-12 109-112 129-103 22-240-46c-97-54-212-47-286-60q-55-10-72-40-20-29 12-123v0h0q12-53-3-112-11-60 4-94 25-42 69-53 47-14 92-47h0v0l67-84q26-32 66-34zm716-907q-65 42-149 54-81-9-128-47l-37-34q-21-26-7-33l56 53q44 38 117 47 80-9 140-47l65-47q16-24 28-27 16 3-15 33a810 810 0 01-69 47zm-108-158V564l3-5h26l15 14-14 7-30-14zm-55 0-31 14-14-7 15-13 26-1 3 5v2h0z"/></svg>