<svg role="img" viewBox="0 0 24 24" xmlns="http://www.w3.org/2000/svg"><path d="M20.45 3.44a11 11 0 00-2.48-1.91C16.94 1 15.1.09 12.48.03l-2.17.14q-1.06.16-2.12.56-1.62.63-2.57 1.55.91-.56 2.55-.99a10.08 10.08 0 01 3.73-.17q3.52.64 5.48 2.62a8.07 8.07 0 01 1.3 1.59q2.06 4.04.18 7.14-1.55 2.26-4.37 2.53-.95.01-2.25-.57c-2.63-1.34-3.02-4.69-1.12-6.31q-1.17-.35-2.65 1.36-1.02 1.94-.24 4.03a6.47 6.47 0 01-.59-1.9 7.7 7.7 0 01.42-3.85A8.21 8.21 0 01 9.45 5.4q1.42-1.59 2.75-2-.86-.71-2.42-.77C8.31 2.58 6.33 3.06 4.7 4.41a8.15 8.15 0 00-1.98 2.41q-.69 1.46-.7 1.68.3-2.32 1.25-4.05-1.36.8-2.41 3.04C.1 9.37-.2 11.61.14 13.99c.97 5.67 5.9 9.98 11.84 9.98C18.62 23.97 24 18.59 24 11.96a11.93 11.93 0 00-3.55-8.51z"/></svg>