<svg role="img" viewBox="0 0 1000 1000" xmlns="http://www.w3.org/2000/svg"><title>GitHub</title><path d="M500 12c-276 0-500 224-500 500 0 221 143 408 342 474q36 1 34-24 0-20 0-85c-139 30-168-67-168-67C184 753 151 737 151 737c-45-31 3-30 3-30 50 3 77 52 77 52 45 76 117 54 146 42q9-48 32-67c-111-12-228-55-228-247q2-82 52-134c-6-12-22-63 4-132 0 0 42-13 137 51q61-17 125-17 64 0 125 17c95-65 137-51 137-51 27 69 10 120 5 132q50 52 51 134c0 192-117 234-228 247q30 22 34 92 0 107 0 137-2 25 34 24C857 920 1000 733 1000 512c0-276-224-500-500-500"/></svg>