<svg role="img" viewBox="0 0 24 24" xmlns="http://www.w3.org/2000/svg"><title>Linux</title><path d="M12.5 0l-.48.02c-4.23.33-3.1 4.81-3.17 6.3-.08 1.09-.3 1.95-1.05 3.02-.89 1.05-2.13 2.75-2.72 4.52-.28.83-.41 1.68-.29 2.49a.42.42 0 00-.11.14l-.66.84s-.48.27-.8.4-.66.27-.86.68l-.13.6s.03.4.06.54c.06.4.12.73.04.97-.25.68-.28 1.15-.11 1.48s.54.47.94.6c.81.2 1.91.14 2.77.6s1.87.67 2.62.47c.53-.12.97-.46 1.21-.95.59 0 1.23-.27 2.26-.33.7-.06 1.57.27 2.58.2l.11.33h0c.39.78 1.11 1.13 1.88 1.07s1.59-.54 2.26-1.31 1.68-1.08 2.38-1.5c.35-.2.63-.47.65-.85s-.2-.81-.71-1.38v-.1h0c-.17-.2-.25-.54-.34-.93s-.18-.79-.49-1.05h0l-.19-.14a.36.36 0 00-.19-.06c.43-1.28.26-2.55-.17-3.69-.53-1.41-1.47-2.64-2.17-3.48-.8-1-1.58-1.96-1.56-3.37.03-2.15.24-6.13-3.54-6.14zm.53 3.4h.01l.58.2s.33.33.44.53.16.46.17.72l.01-.06v.1a.09.09 0 01 0-.02v-.02a1.81 1.81 0 01-.15.71.95.95 0 01-.21.34.71.71 0 00-.09-.04l-.28-.13a1.31 1.31 0 00-.22-.07l.18-.2s.08-.26.09-.4v-.02a1.21 1.21 0 00-.06-.4l-.18-.33s-.17-.13-.27-.13h-.02l-.26.13a.8.8 0 00-.2.33 1.18 1.18 0 00-.09.4v.02l.02.27-.61-.2a1.64 1.64 0 01-.02-.2v-.02a1.77 1.77 0 01.15-.77l.43-.53a.98.98 0 01.59-.2zm-2.96.06h.04l.4.14s.26.29.34.47.14.4.15.67v0 .27.08l-.47.22v-.27-.01l-.08-.33a.61.61 0 00-.17-.27.25.25 0 00-.18-.06h-.02l-.19.13a.55.55 0 00-.12.27.94.94 0 00-.02.33v.01l.08.33s.1.2.17.27l.03.02-.18.14a.3.3 0 01-.13.07 2.62 2.62 0 01-.28-.4 1.77 1.77 0 01-.15-.67 1.76 1.76 0 01.08-.67 1.43 1.43 0 01.28-.54l.42-.2zm1.37 1.71c.33 0 .73.07 1.22.4.29.2.52.27 1.05.47h0l.48.4v-.13a.57.57 0 01.02.47c-.12.31-.52.64-1.06.84v0l-.78.47s-.59.29-1.01.27a1.14 1.14 0 01-.45-.07 3.57 3.57 0 01-.32-.2l-.61-.47v-.01h-.01c-.4-.25-.62-.51-.69-.71s-.01-.47.19-.6.38-.27.48-.34.14-.1.18-.13h0v0c.17-.2.44-.47.84-.6l.47-.07zm2.8 2.14c.36 1.42 1.2 3.48 1.74 4.47.29.53.85 1.66 1.1 3.02l.51.06c.65-1.67-.55-3.47-1.09-3.97-.22-.2-.23-.34-.12-.34.59.53 1.36 1.57 1.65 2.76.13.54.16 1.1.02 1.67l.2.07c1.03.53 1.41.94 1.23 1.54v-.04h-.18-.02c.15-.47-.18-.82-1.06-1.22s-1.65-.34-1.77.47l-.02.14-.21.06c-.43.27-.66.67-.79 1.19s-.17 1.16-.2 1.87v0c-.02.33-.17.84-.32 1.35-1.5 1.07-3.58 1.54-5.35.33a2.65 2.65 0 00-.4-.53 1.45 1.45 0 00-.28-.33l.47-.07a.61.61 0 00.31-.33c.11-.27 0-.7-.34-1.16s-.93-.99-1.79-1.52c-.63-.4-.99-.87-1.15-1.4s-.14-1.08-.01-1.65c.24-1.07.87-2.11 1.27-2.76.11-.07.04.14-.41.97s-1.14 2.5-.12 3.85a8.12 8.12 0 01.65-2.88c.56-1.28 1.74-3.5 1.84-5.27l.29.2.59.47s.48.34.88.34l.11.01 1-.27s.52-.33.74-.4h.01c.47-.14.83-.4 1.04-.7zm2.19 8.96c.04.6.34 1.25.88 1.38s1.43-.33 1.79-.77l.21-.01c.32-.01.58.01.85.27h0l.39.88s.15.78.41 1.07c.49.53.65.91.64 1.14v-.01.02-.01c-.01.26-.18.4-.5.59-.63.4-1.75.71-2.46 1.57-.62.74-1.37 1.14-2.04 1.19s-1.24-.2-1.57-.9h-.01c-.21-.4-.12-1.02.06-1.69s.43-1.34.46-1.9c.04-.71.08-1.33.2-1.81s.31-.8.64-.98l.04-.02zm-10.81.05h.01l.16.01c.38.06.71.33 1.02.75l.91 1.66h0c.24.53.75 1.06 1.19 1.64s.77 1.13.73 1.57v.01c-.06.74-.48 1.15-1.12 1.29s-1.52 0-2.4-.46-2.12-.47-2.86-.6c-.37-.07-.61-.2-.72-.4s-.11-.6.12-1.23v0h0l-.03-1.12s-.08-.71.04-.94.4-.4.69-.53.64-.2.92-.47h0v0l.67-.84s.38-.34.66-.34zm7.16-9.07c-.43.2-.94.54-1.49.54s-.97-.27-1.28-.47l-.37-.34c-.16-.13-.14-.33-.07-.33s.13.13.2.2.21.2.36.33c.29.2.68.47 1.17.47s1.05-.27 1.4-.47l.65-.47s.15-.27.28-.27.03.13-.15.33a8.1 8.1 0 01-.69.47zm-1.08-1.58V5.64l.03-.05s.18-.03.26 0 .16.07.15.14-.09.07-.14.07-.09-.04-.14-.07-.15-.01-.16-.07zm-.55 0-.17.07s-.09.07-.14.07-.13-.02-.14-.07.09-.13.15-.13.18-.05.26-.01l.03.05v.02h0z"/></svg>