<svg xmlns="http://www.w3.org/2000/svg" viewBox="0 0 24 24" fill="none" stroke="#000" stroke-width=".3"><path d="M12 1.87l.23.09 4.91 4.9 4.9 4.91a.63.63 0 01 0 .46l-9.81 9.81a.63.63 0 01-.46 0L6.86 17.13l-4.9-4.9a.63.63 0 01 0-.46l4.9-4.91 4.91-4.9q.11-.05.23-.09M12.27 5.52h1.24v.37h-.86v.67h.55v.36h-.55v.87h.97v.37h-1.35v-2.64m-.85.69-.29.39h-.4v-.7h.4l.29.31m.04 1.2-.35.38h-.38v-.82h.38l.35.44M11.84 7.44l-.71.73h-.78v-2.65h.84c.28.33.51.87.32 1.26l.32.66M6.62 9.75h.78c.33.33.55.95.32 1.35l.38 1.29h-.39l-.35-1.24h-.37v1.24h-.38v-2.64m1.92 0h1.24v.37h-.86v.67h.55v.36h-.55v.87h.97v.37h-1.35v-2.64m4.09 0h.37l.66 2.64h-.38l-.19-.72h-.56l-.18.72h-.38l.66-2.64m1.39 0h.79c.32.33.55.95.31 1.35l.38 1.29h-.39l-.35-1.24h-.36v1.24h-.38v-2.64m1.92 0h1.24v.37h-.86v.67h.55v.36h-.55v.87h.96v.37h-1.34v-2.64M7.73 10.46l-.35.33h-.39v-.67h.39l.35.34m7.39 0-.34.33h-.39v-.67h.39l.34.34m-9.24.03-.34.38h-.39v-.75h.39l.34.37M6.25 10.49l-.69.75h-.41v1.15h-.38v-2.64h.79l.69.74m5.18 0-.34.38h-.39v-.75h.39l.34.37M11.8 10.49l-.69.75h-.41v1.15h-.38v-2.64h.79l.69.74m1 .05.19.76h-.38l.19-.76m6.4.53c-.15.48-.27 1.17-.75 1.32h-.73v-2.64h.67c.73.18.74.64.81 1.32M18.83 11.09c-.02.34-.18.69-.42.93h-.31v-1.9h.31c.28.22.38.62.42.97M6.24 13.98h1.34v.35h-.48v2.29h-.38v-2.29h-.48v-.35m6.63 0h1.34v.35h-.48v2.29h-.38v-2.29h-.48v-.35m4.85.74-.34.38h-.39v-.75h.39l.34.37M18.09 14.72l-.7.74h-.4v1.16h-.38v-2.64h.78l.7.74M9.08 15.3c-.13 1.1-.82 1.25-.82.01s.68-1.11.82-.01M9.44 15.3c-.24 1.52-1.54 1.79-1.54 0s1.3-1.51 1.54 0m6.28 0c-.14 1.1-.83 1.25-.83.01s.69-1.11.83-.01M16.08 15.3c-.25 1.52-1.55 1.79-1.55 0s1.3-1.51 1.55 0m-3.45.6c-.24.26-.38.78-.73.77s-.5-.55-.74-.82h.37c.14.17.55.98.74.05.12-.59-1.17-.6-.98-1.28.39-1.43.95-.4 1.34 0h-.36c-.07-.07-.54-.74-.62 0-.06.54.66.85.98 1.28M11.49 22.31l-4.9-4.9-4.91-4.9a1.37 1.37 0 01 0-1.01L6.59 6.59l4.9-4.9a1.38 1.38 0 01 1.01 0l4.91 4.9 4.9 4.91c.13.31.13.7 0 1.01l-4.9 4.9-4.91 4.9c-.31.13-.7.13-1.01 0M12.7 22.51c-.41.23-.95.13-1.4 0l-4.91-4.9L1.49 12.7a1.9 1.9 0 01 0-1.4l4.9-4.91 4.91-4.9c.43-.18.97-.18 1.4 0l9.81 9.81c.18.43.18.97 0 1.4l-9.81 9.81"/></svg>