<svg xmlns="http://www.w3.org/2000/svg"
xmlns:xlink="http://www.w3.org/1999/xlink" xmlns:cml="http://www.xml-cml.org/schema" width="454.1" height="281.4" x="0" y="0" font-family="sans-serif" stroke="#000" stroke-width="1"  stroke-linecap="round"><rect x="0%" y="0%" width="100%" height="100%" stroke-width="0" fill="#fff"/><path d="M374 215l4 14h-8zM214 128l-15 23-6-5zm40 4 24 33-7 4z" stroke-width="1" fill="#000"  stroke="#000"/><path d="M387 198h14m-14 6h14M374 188v-14m16-53v1m2-2v3m2-4v5m2-5v5m3-6v7m2-8v8M374 108v-14m-13 30h-14m14-6h-14M169 72l25 11M169 72l-32 24M100 80 98 53M50 159l22-16m302-9v14M274 167h40m0 0 14 23m33 11h-14M241 69l20 18m4 20-11 25m0 0-40-4m0 0-5-26m8-20 24-14M100 80 79 96m21-7-15 11M70 116l3 27m-1 0 24 11M81 139l17 8m21 5 22-16m0 0-4-40m-3 35-4-28m7-7L100 80" stroke="#000"  stroke-width="1"/><text x="14" y="174.6" fill="#666"  stroke="#666" stroke-width="1" font-size="16" >H</text><text x="26" y="178.3" fill="#666"  stroke="#666" stroke-width="1" font-size="13" >3</text><text x="32.5" y="174.6" fill="#666"  stroke="#666" stroke-width="1" font-size="16" >C</text><text x="161.5" y="165.7" fill="#666"  stroke="#666" stroke-width="1" font-size="16" >H</text><text x="173.5" y="169.3" fill="#666"  stroke="#666" stroke-width="1" font-size="13" >3</text><text x="180" y="165.7" fill="#666"  stroke="#666" stroke-width="1" font-size="16" >C</text><text x="368.1" y="209.4" fill="#ff7f00"  stroke="#ff7f00" stroke-width="1" font-size="16" >P</text><text x="368.1" y="129.4" fill="#ff7f00"  stroke="#ff7f00" stroke-width="1" font-size="16" >P</text><text x="70.4" y="48" fill="#0c0cff"  stroke="#0c0cff" stroke-width="1" font-size="16" >H</text><text x="82.4" y="51.7" fill="#0c0cff"  stroke="#0c0cff" stroke-width="1" font-size="13" >2</text><text x="88.9" y="48" fill="#0c0cff"  stroke="#0c0cff" stroke-width="1" font-size="16" >N</text><text x="62.2" y="111.3" fill="#0c0cff"  stroke="#0c0cff" stroke-width="1" font-size="16" >N</text><text x="102.9" y="167.3" fill="#0c0cff"  stroke="#0c0cff" stroke-width="1" font-size="16" >N</text><text x="378.9" y="237.4" fill="#ff0c0c"  stroke="#ff0c0c" stroke-width="1" font-size="32" >-</text><text x="368.1" y="249.4" fill="#ff0c0c"  stroke="#ff0c0c" stroke-width="1" font-size="16" >O</text><text x="408.1" y="129.4" fill="#ff0c0c"  stroke="#ff0c0c" stroke-width="1" font-size="16" >OH</text><text x="264.4" y="103.6" fill="#b2b200"  stroke="#b2b200" stroke-width="1" font-size="16" >S</text><text x="408.1" y="209.4" fill="#ff0c0c"  stroke="#ff0c0c" stroke-width="1" font-size="16" >O</text><text x="378.9" y="77.4" fill="#ff0c0c"  stroke="#ff0c0c" stroke-width="1" font-size="32" >-</text><text x="368.1" y="89.4" fill="#ff0c0c"  stroke="#ff0c0c" stroke-width="1" font-size="16" >O</text><text x="200" y="96.8" fill="#0c0cff"  stroke="#0c0cff" stroke-width="1" font-size="16" >N</text><text x="368.1" y="169.4" fill="#ff0c0c"  stroke="#ff0c0c" stroke-width="1" font-size="16" >O</text><text x="328.1" y="129.4" fill="#ff0c0c"  stroke="#ff0c0c" stroke-width="1" font-size="16" >O</text><text x="328.1" y="209.4" fill="#ff0c0c"  stroke="#ff0c0c" stroke-width="1" font-size="16" >O</text><text font-size="18.000000" fill ="black" font-family="sans-serif"
x="10" y="20" ></text></svg>