<svg xmlns="http://www.w3.org/2000/svg" width="454" height="281" x="0" y="0" stroke-linecap="round" class="A G H"><style><![CDATA[.A{stroke-width:1}.B{font-size:16}.C{fill:#ff0c0c;stroke:#ff0c0c}.D{fill:#0c0cff;stroke:#0c0cff}.E{fill:#666;stroke:#666}.F{font-size:13}.G{stroke:#000}.H{font-family:sans-serif}.I{fill:#ff7f00;stroke:#ff7f00}.J{font-size:32}]]></style><rect x="0%" y="0%" width="100%" height="100%" stroke-width="0" fill="#fff"/><path d="M374 215l4 14h-8zM214 128l-15 23-6-5zm40 4 24 33-7 4z" fill="#000" class="A G"/><path d="M387 198h14m-14 6h14M374 188v-14m16-53v1m2-2v3m2-4v5m2-5v5m3-6v7m2-8v8M374 108v-14m-13 30h-14m14-6h-14M169 72l25 11M169 72l-32 24M100 80 98 53M50 159l22-16m302-9v14M274 167h40m0 0 14 23m33 11h-14M241 69l20 18m4 20-11 25m0 0-40-4m0 0-5-26m8-20 24-14M100 79 79 96m21-6-15 10M70 116l3 27m0 0 24 11M81 139l17 8m21 5 22-16m0 0-4-40m-3 35-4-28m7-7L100 80" class="A G"/><text x="14" y="175" class="A B E">H</text><text x="26" y="178" class="A E F">3</text><text x="32" y="175" class="A B E">C</text><text x="162" y="166" class="A B E">H</text><text x="174" y="169" class="A E F">3</text><text x="180" y="166" class="A B E">C</text><text x="368" y="209" class="A B I">P</text><text x="368" y="129" class="A B I">P</text><text x="70" y="48" class="A B D">H</text><text x="82" y="52" class="A D F">2</text><text x="89" y="48" class="A B D">N</text><text x="62" y="111" class="A B D">N</text><text x="103" y="167" class="A B D">N</text><text x="379" y="237" class="A C J">-</text><text x="368" y="249" class="A B C">O</text><text x="408" y="129" class="A B C">OH</text><text x="264" y="104" fill="#b2b200" stroke="#b2b200" class="A B">S</text><text x="408" y="209" class="A B C">O</text><text x="379" y="77" class="A C J">-</text><text x="368" y="89" class="A B C">O</text><text x="200" y="97" class="A B D">N</text><text x="368" y="169" class="A B C">O</text><text x="328" y="129" class="A B C">O</text><text x="328" y="209" class="A B C">O</text><text font-size="18.000000" fill="black" x="10" y="20" class="H"/></svg>