<svg xmlns="http://www.w3.org/2000/svg" viewBox="0.0 0.0 24.0 24.0" fill="none" stroke="black" stroke-width=".3"><path stroke-opacity="1" filling="0" d="M14.37 9.34h0c.29 1.79 3.36 2.42 4.8 3.41l.33.26-.35.03c-.92.22 2.32.4 2.97.83q-.03.07-.43.05-.58.03-1.14.14c-.38.11-1.39 1.08-1.52 0-.03-.25.53-.07.71-.24.48-.43-1.3.07-1.95.03q-.72-.09-1.45-.27-2.42-.43-4.92-.15c-.06 0-2.81.37-3.4.24q-.94-.43-1.9-.61-.01.04.3.13.81.17 1.47.57.01.26-.5.32c-.62-.02-1.3-.85-1.79-.47-.12.09.43.06.42.21-.03.66-1.33.24-1.97.08-.15-.04.41-.24.31-.36-.25-.34-.82.23-1.24.25q-.55-.01-1.11-.09l-.28-.05.28-.1c3.47-.94.02.02-.19-.11-.1-.07 2.42-1.67 2.53-1.72q2.97-1.34 6.21-1.74c1.43-.14 2.57.12 3.81-.64h0M14.05 9.37h0c.41.03.49.66.82.9 1.4.98 3.1 1.47 4.52 2.47l.94.42q.5.1.99.24c2.56.94.09.57-.76.81q-.53.4-1.09.6c-.13-.01-.54-.6-.56-.62l-.53-.16q-2.42-.4-4.87-.56c-2.4.03-4.74.66-7.07.71-1.07.02-3.93.17-4.85-.52q-.04-.21.31-.46.56-.63 1.25-1.06C4.81 11.1 7.04 10.48 8.92 10.08q2.56-.33 5.13-.71h0M4.26 12.95h0q.44.08 0 0h0"/></svg>