<svg xmlns="http://www.w3.org/2000/svg" xml:space="preserve" viewBox="0 0 1000 1000"><path d="M500 1000c275 0 500-225 500-500s-225-500-500-500S0 225 0 500s225 500 500 500" fill="#5dddd3"/><path d="M333 590c-42-105-129-200-19-392 45-79 115-131 186-113 72-18 141 34 186 113 110 192 23 287-19 392l-167 0-167 0z" fill="#666"/><path d="M219 754c-5 8-18 80-33 135 86 69 195 111 314 111s228-42 314-111c-14-54-27-126-33-135-80-130-204-73-213-222 0 0-40 30-70 30s-67-28-67-28c-8 148-132 90-213 220M431 535c2 2 38 28 67 28 29 0 65-26 67-28 44-26 81-102 73-185-7-68-80 32-131-108-72 152-141 62-149 119-9 63 27 143 73 174z" fill="#fed198"/><path d="M571 554a221 221 0 01-2-21s-40 30-70 30-67-28-67-28q-1 11-2 21l2 2 0 0c2 2 38 33 67 32 29 0 65-30 67-32v0a182 182 0 00 5-4z" fill="#f0b97d"/><path d="M373 641c-44 23-124 24-154 73-5 9-19 113-33 175 86 70 195 111 315 111s229-42 315-111c-15-62-30-165-33-175-20-51-114-53-158-77-68 247-170 264-251 4l0 0h0z" fill="#fbb429"/><path d="M402 616c-3 77 10 186 97 214-81 3-134-114-194-144l97-69v0zM600 616c3 77-11 186-101 214 85 3 141-114 204-144l-102-69z" fill="#fff"/></svg>