<svg xmlns="http://www.w3.org/2000/svg" viewBox="0.0 0.0 24.0 24.0" height="200px" width="200px"><path fill="none" stroke="black" stroke-width=".3" stroke-opacity="1.0"  filling="0" d="M12.0 2.5500001907348633 L12.0 2.5500001907348633 C13.606608390808105 2.709066390991211 15.104549407958984 3.060948371887207 16.43461799621582 3.7229955196380615 C17.764686584472656 4.385043144226074 18.926883697509766 5.357255458831787 19.862003326416016 6.756983280181885 C21.186187744140625 8.739078521728516 21.612411499023438 10.979890823364258 21.32829475402832 13.103455543518066 C21.044178009033203 15.227020263671875 20.049724578857422 17.23333740234375 18.532550811767578 18.746442794799805 C17.015378952026367 20.259550094604492 14.975489616394043 21.27944564819336 12.600503921508789 21.430166244506836 C9.992717742919922 21.595661163330078 7.695192337036133 20.690662384033203 5.961532115936279 19.17551040649414 C4.227871894836426 17.660358428955078 3.058077096939087 15.535049438476562 2.705751895904541 13.259923934936523 C2.353426933288574 10.984797477722168 2.8185713291168213 8.559854507446289 4.354790210723877 6.445430278778076 C5.299400329589844 5.145285606384277 6.44124174118042 4.244863510131836 7.731661319732666 3.6327602863311768 C9.022080421447754 3.0206565856933594 10.461077690124512 2.696871519088745 12.0 2.5500001907348633 L12.0 2.5500001907348633"></path>
<path fill="none" stroke="black" stroke-width=".3" stroke-opacity="1.0"  filling="0" d="M8.92692756652832 7.346212863922119 L12.976927757263184 9.37121295928955 L17.026927947998047 11.396212577819824 C17.238576889038086 11.738603591918945 17.238576889038086 12.261397361755371 17.026927947998047 12.603788375854492 L12.976927757263184 14.628787994384766 L8.92692756652832 16.65378761291504 C8.33227825164795 16.794042587280273 8.168120384216309 16.57659149169922 7.949999809265137 16.049999237060547 L7.949999809265137 12.0 L7.950000286102295 7.950000286102295 C8.13642406463623 7.615625858306885 8.544549942016602 7.363394737243652 8.926997184753418 7.346247673034668 L8.926997184753418 7.346247673034668"></path>
<path fill="none" stroke="black" stroke-width=".3" stroke-opacity="1.0"  filling="0" d="M8.92692756652832 7.346212863922119 L12.976927757263184 9.37121295928955 L17.026927947998047 11.396212577819824 C17.238576889038086 11.738603591918945 17.238576889038086 12.261397361755371 17.026927947998047 12.603788375854492 L12.976927757263184 14.628787994384766 L8.92692756652832 16.65378761291504 C8.544495582580566 16.636598587036133 8.136397361755371 16.384374618530273 7.949999809265137 16.05000114440918 L7.949999809265137 12.000000953674316 L7.950000286102295 7.950000286102295 C8.13642406463623 7.615625858306885 8.544549942016602 7.363394737243652 8.926997184753418 7.346247673034668 L8.926997184753418 7.346247673034668"></path>
<path fill="none" stroke="black" stroke-width=".3" stroke-opacity="1.0"  filling="0" d="M15.215835571289062 12.0 L9.300000190734863 14.957916259765625 L9.300000190734863 9.042081832885742"></path>
<path fill="none" stroke="black" stroke-width=".3" stroke-opacity="1.0"  filling="0" d="M9.300000190734863 9.042150497436523 L15.215700149536133 12.0 L9.300000190734863 14.957849502563477 L9.300000190734863 9.042150497436523"></path></svg>