<svg xmlns="http://www.w3.org/2000/svg" viewBox="0.0 0.0 24.0 24.0" height="200px" width="200px"><path fill="none" stroke="black" stroke-width=".3" stroke-opacity="1.0"  filling="0" d="M11.999008178710938 1.8670997619628906 L11.999008178710938 1.8670997619628906 C12.0761079788208 1.8980995416641235 12.153207778930664 1.929099440574646 12.230307579040527 1.960099220275879 L17.134708404541016 6.864496231079102 L22.039108276367188 11.768893241882324 C22.09731674194336 11.911361694335938 22.097509384155273 12.088207244873047 22.039108276367188 12.230596542358398 L17.134708404541016 17.135143280029297 L12.23030948638916 22.039691925048828 C12.088129043579102 22.098337173461914 11.910980224609375 22.09859848022461 11.768908500671387 22.039691925048828 L6.863908767700195 17.13514518737793 L1.958909034729004 12.230598449707031 C1.9003496170043945 12.088273048400879 1.9005430936813354 11.911298751831055 1.958909034729004 11.76889419555664 L6.863908767700195 6.86449670791626 L11.768908500671387 1.960099220275879 C11.845608711242676 1.929099440574646 11.922307968139648 1.8980995416641235 11.999008178710938 1.8670997619628906 L11.999008178710938 1.8670997619628906"></path>
<path fill="none" stroke="black" stroke-width=".3" stroke-opacity="1.0"  filling="0" d="M12.271080017089844 5.523844242095947 L13.51278018951416 5.523844242095947 L13.51278018951416 5.894944190979004 L12.650879859924316 5.894944190979004 L12.650879859924316 6.5618438720703125 L13.198080062866211 6.5618438720703125 L13.198080062866211 6.923043727874756 L12.650879859924316 6.923043727874756 L12.650879859924316 7.794543743133545 L13.61478042602539 7.794543743133545 L13.61478042602539 8.165042877197266 L12.271080017089844 8.165043830871582 L12.271080017089844 5.523844242095947"></path>
<path fill="none" stroke="black" stroke-width=".3" stroke-opacity="1.0"  filling="0" d="M11.418782234191895 6.209643840789795 L11.418782234191895 6.209643840789795 C11.322881698608398 6.339443683624268 11.226982116699219 6.469244003295898 11.131081581115723 6.599043846130371 L10.732381820678711 6.599043846130371 L10.732381820678711 5.894944190979004 L11.131081581115723 5.894944190979004 C11.226982116699219 5.999844074249268 11.322881698608398 6.104743957519531 11.418782234191895 6.209643840789795 L11.418782234191895 6.209643840789795"></path>
<path fill="none" stroke="black" stroke-width=".3" stroke-opacity="1.0"  filling="0" d="M11.464981079101562 7.414443492889404 L11.464981079101562 7.414443492889404 C11.347580909729004 7.541143417358398 11.230181694030762 7.667843818664551 11.112781524658203 7.794543743133545 L10.732381820678711 7.794543743133545 L10.732381820678711 6.969543933868408 L11.112781524658203 6.969543933868408 C11.230181694030762 7.1178436279296875 11.347580909729004 7.266143798828125 11.464981079101562 7.414443492889404 L11.464981079101562 7.414443492889404"></path>
<path fill="none" stroke="black" stroke-width=".3" stroke-opacity="1.0"  filling="0" d="M11.835183143615723 7.442343711853027 L11.835183143615723 7.442343711853027 C11.600482940673828 7.683243751525879 11.36578369140625 7.9241437911987305 11.131083488464355 8.165043830871582 L10.352883338928223 8.165043830871582 L10.352883338928223 5.523844242095947 L11.186582565307617 5.523844242095947 C11.47293758392334 5.849844455718994 11.699993133544922 6.393770694732666 11.511181831359863 6.7844438552856445 L11.511181831359863 6.7844438552856445 C11.619181632995605 7.003743648529053 11.727182388305664 7.223043918609619 11.835182189941406 7.442343711853027 L11.835182189941406 7.442343711853027"></path>
<path fill="none" stroke="black" stroke-width=".3" stroke-opacity="1.0"  filling="0" d="M6.614552021026611 9.753303527832031 L7.4020514488220215 9.753303527832031 C7.7252702713012695 10.080565452575684 7.952419281005859 10.701337814331055 7.717351913452148 11.096704483032227 L8.097452163696289 12.394204139709473 L7.707752227783203 12.394204139709473 L7.355851650238037 11.152503967285156 L6.994351863861084 11.152503967285156 L6.994351863861084 12.394204139709473 L6.614552021026611 12.394204139709473 L6.614552021026611 9.753303527832031"></path>
<path fill="none" stroke="black" stroke-width=".3" stroke-opacity="1.0"  filling="0" d="M8.532751083374023 9.753303527832031 L9.77445125579834 9.753303527832031 L9.77445125579834 10.123503684997559 L8.912551879882812 10.123503684997559 L8.912551879882812 10.791003227233887 L9.45975112915039 10.791003227233887 L9.45975112915039 11.152503967285156 L8.912551879882812 11.152503967285156 L8.912551879882812 12.023103713989258 L9.87645149230957 12.023103713989258 L9.87645149230957 12.394204139709473 L8.532751083374023 12.394204139709473 L8.532751083374023 9.753303527832031"></path>
<path fill="none" stroke="black" stroke-width=".3" stroke-opacity="1.0"  filling="0" d="M12.619650840759277 9.753303527832031 L12.990750312805176 9.753303527832031 L13.648652076721191 12.394204139709473 L13.269152641296387 12.394204139709473 L13.083152770996094 11.670904159545898 L12.517951011657715 11.670904159545898 L12.342151641845703 12.394204139709473 L11.961750030517578 12.394204139709473 L12.619650840759277 9.753303527832031"></path>
<path fill="none" stroke="black" stroke-width=".3" stroke-opacity="1.0"  filling="0" d="M14.010150909423828 9.753303527832031 L14.797651290893555 9.753303527832031 C15.120941162109375 10.080495834350586 15.34815502166748 10.701419830322266 15.112950325012207 11.096704483032227 L15.493351936340332 12.394204139709473 L15.103652000427246 12.394204139709473 L14.75145149230957 11.152503967285156 L14.389951705932617 11.152503967285156 L14.389951705932617 12.394204139709473 L14.010150909423828 12.394204139709473 L14.010150909423828 9.753303527832031"></path>
<path fill="none" stroke="black" stroke-width=".3" stroke-opacity="1.0"  filling="0" d="M15.9286527633667 9.753303527832031 L17.170654296875 9.753303527832031 L17.170654296875 10.123503684997559 L16.308752059936523 10.123503684997559 L16.308752059936523 10.791003227233887 L16.855653762817383 10.791003227233887 L16.855653762817383 11.152503967285156 L16.308752059936523 11.152503967285156 L16.308752059936523 12.023103713989258 L17.272052764892578 12.023103713989258 L17.272052764892578 12.394204139709473 L15.9286527633667 12.394204139709473 L15.9286527633667 9.753303527832031"></path>
<path fill="none" stroke="black" stroke-width=".3" stroke-opacity="1.0"  filling="0" d="M7.726651668548584 10.457403182983398 L7.726651668548584 10.457403182983398 C7.612351417541504 10.568602561950684 7.498051643371582 10.679802894592285 7.383751392364502 10.79100227355957 L6.994351863861084 10.79100227355957 L6.994351863861084 10.123502731323242 L7.383751392364502 10.123502731323242 C7.498051643371582 10.234803199768066 7.612351417541504 10.346102714538574 7.726651668548584 10.457403182983398 L7.726651668548584 10.457403182983398"></path>
<path fill="none" stroke="black" stroke-width=".3" stroke-opacity="1.0"  filling="0" d="M15.1222505569458 10.457403182983398 L15.1222505569458 10.457403182983398 C15.008050918579102 10.568602561950684 14.893850326538086 10.679802894592285 14.779650688171387 10.79100227355957 L14.389951705932617 10.79100227355957 L14.389951705932617 10.123502731323242 L14.779650688171387 10.123502731323242 C14.893850326538086 10.234803199768066 15.008050918579102 10.346102714538574 15.1222505569458 10.457403182983398 L15.1222505569458 10.457403182983398"></path>
<path fill="none" stroke="black" stroke-width=".3" stroke-opacity="1.0"  filling="0" d="M5.882250785827637 10.494302749633789 L5.882250785827637 10.494302749633789 C5.767951011657715 10.620903015136719 5.653651714324951 10.747503280639648 5.539351940155029 10.874103546142578 L5.150251388549805 10.874103546142578 L5.150251388549805 10.123503684997559 L5.539351940155029 10.123503684997559 C5.653651714324951 10.247103691101074 5.767951965332031 10.37070369720459 5.882251739501953 10.494303703308105 L5.882251739501953 10.494303703308105"></path>
<path fill="none" stroke="black" stroke-width=".3" stroke-opacity="1.0"  filling="0" d="M6.253051280975342 10.494302749633789 L6.253051280975342 10.494302749633789 C6.021351337432861 10.741403579711914 5.789651393890381 10.988503456115723 5.5579514503479 11.235604286193848 L5.150251388549805 11.235604286193848 L5.150251388549805 12.394204139709473 L4.769852161407471 12.394204139709473 L4.769852161407471 9.753303527832031 L5.5579514503479 9.753303527832031 C5.789651393890381 10.000303268432617 6.021351337432861 10.24730396270752 6.253051280975342 10.494303703308105 L6.253051280975342 10.494303703308105"></path>
<path fill="none" stroke="black" stroke-width=".3" stroke-opacity="1.0"  filling="0" d="M11.433751106262207 10.494303703308105 L11.433751106262207 10.494303703308105 C11.319551467895508 10.620903968811035 11.205351829528809 10.747503280639648 11.09115219116211 10.874103546142578 L10.701451301574707 10.874103546142578 L10.701451301574707 10.123503684997559 L11.09115219116211 10.123503684997559 C11.205351829528809 10.247103691101074 11.319551467895508 10.37070369720459 11.433751106262207 10.494303703308105 L11.433751106262207 10.494303703308105"></path>
<path fill="none" stroke="black" stroke-width=".3" stroke-opacity="1.0"  filling="0" d="M11.804251670837402 10.494302749633789 L11.804251670837402 10.494302749633789 C11.572551727294922 10.741403579711914 11.340851783752441 10.988503456115723 11.109151840209961 11.235604286193848 L10.701451301574707 11.235604286193848 L10.701451301574707 12.394204139709473 L10.321651458740234 12.394204139709473 L10.321651458740234 9.753303527832031 L11.109151840209961 9.753303527832031 C11.340851783752441 10.000303268432617 11.572551727294922 10.24730396270752 11.804251670837402 10.494303703308105 L11.804251670837402 10.494303703308105"></path>
<path fill="none" stroke="black" stroke-width=".3" stroke-opacity="1.0"  filling="0" d="M12.796051025390625 10.540803909301758 L12.990752220153809 11.300704002380371 L12.61095142364502 11.300704002380371 L12.796051025390625 10.540803909301758"></path>
<path fill="none" stroke="black" stroke-width=".3" stroke-opacity="1.0"  filling="0" d="M19.20045280456543 11.068503379821777 L19.20045280456543 11.068503379821777 C19.047555923461914 11.552754402160645 18.932575225830078 12.236555099487305 18.44985008239746 12.394204139709473 L17.717552185058594 12.394204139709473 L17.717552185058594 9.753303527832031 L18.394351959228516 9.753303527832031 C19.118783950805664 9.92688274383545 19.13016128540039 10.38862419128418 19.200450897216797 11.068503379821777 L19.200450897216797 11.068503379821777"></path>
<path fill="none" stroke="black" stroke-width=".3" stroke-opacity="1.0"  filling="0" d="M18.82965087890625 11.087403297424316 L18.82965087890625 11.087403297424316 C18.807043075561523 11.428166389465332 18.65412139892578 11.781904220581055 18.412349700927734 12.023102760314941 L18.0970516204834 12.023102760314941 L18.0970516204834 10.123502731323242 L18.412349700927734 10.123502731323242 C18.687780380249023 10.339653015136719 18.792373657226562 10.739274978637695 18.82965087890625 11.087403297424316 L18.82965087890625 11.087403297424316"></path>
<path fill="none" stroke="black" stroke-width=".3" stroke-opacity="1.0"  filling="0" d="M6.2359538078308105 13.981861114501953 L7.579654216766357 13.981861114501953 L7.579654216766357 14.334060668945312 L7.097853660583496 14.334060668945312 L7.097853660583496 16.622760772705078 L6.717753887176514 16.622760772705078 L6.717753887176514 14.334060668945312 L6.2359538078308105 14.334060668945312 L6.2359538078308105 13.981861114501953"></path>
<path fill="none" stroke="black" stroke-width=".3" stroke-opacity="1.0"  filling="0" d="M12.871651649475098 13.981861114501953 L14.215353012084961 13.981861114501953 L14.215353012084961 14.334060668945312 L13.733552932739258 14.334060668945312 L13.733552932739258 16.622760772705078 L13.3534517288208 16.622760772705078 L13.3534517288208 14.334060668945312 L12.871651649475098 14.334060668945312 L12.871651649475098 13.981861114501953"></path>
<path fill="none" stroke="black" stroke-width=".3" stroke-opacity="1.0"  filling="0" d="M17.718753814697266 14.723161697387695 L17.718753814697266 14.723161697387695 C17.60445213317871 14.84996223449707 17.49015235900879 14.976761817932129 17.375850677490234 15.103562355041504 L16.98615074157715 15.103562355041504 L16.98615074157715 14.352962493896484 L17.375850677490234 14.352962493896484 C17.49015235900879 14.476362228393555 17.60445213317871 14.599761962890625 17.718753814697266 14.723161697387695 L17.718753814697266 14.723161697387695"></path>
<path fill="none" stroke="black" stroke-width=".3" stroke-opacity="1.0"  filling="0" d="M18.089553833007812 14.723161697387695 L18.089553833007812 14.723161697387695 C17.85775375366211 14.970261573791504 17.625953674316406 15.217360496520996 17.394153594970703 15.464460372924805 L16.98615264892578 15.464460372924805 L16.98615264892578 16.622760772705078 L16.606653213500977 16.622760772705078 L16.606653213500977 13.98186206817627 L17.394153594970703 13.98186206817627 C17.625953674316406 14.228961944580078 17.85775375366211 14.476061820983887 18.089553833007812 14.723161697387695 L18.089553833007812 14.723161697387695"></path>
<path fill="none" stroke="black" stroke-width=".3" stroke-opacity="1.0"  filling="0" d="M9.080853462219238 15.29796028137207 L9.080853462219238 15.29796028137207 C8.945380210876465 16.3963680267334 8.256453514099121 16.552461624145508 8.256453514099121 15.307260513305664 C8.256453514099121 14.063157081604004 8.941655158996582 14.199891090393066 9.080853462219238 15.29796028137207 L9.080853462219238 15.29796028137207"></path>
<path fill="none" stroke="black" stroke-width=".3" stroke-opacity="1.0"  filling="0" d="M9.442354202270508 15.29796028137207 L9.442354202270508 15.29796028137207 C9.19709587097168 16.815671920776367 7.894653797149658 17.087196350097656 7.894653797149658 15.29796028137207 C7.894653797149658 13.513666152954102 9.197120666503906 13.795299530029297 9.442354202270508 15.29796028137207 L9.442354202270508 15.29796028137207"></path>
<path fill="none" stroke="black" stroke-width=".3" stroke-opacity="1.0"  filling="0" d="M15.716552734375 15.29796028137207 L15.716552734375 15.29796028137207 C15.581082344055176 16.396373748779297 14.892154693603516 16.552459716796875 14.892154693603516 15.307260513305664 C14.892154693603516 14.063159942626953 15.577357292175293 14.199888229370117 15.716552734375 15.29796028137207 L15.716552734375 15.29796028137207"></path>
<path fill="none" stroke="black" stroke-width=".3" stroke-opacity="1.0"  filling="0" d="M16.078052520751953 15.29796028137207 L16.078052520751953 15.29796028137207 C15.832784652709961 16.81574249267578 14.530651092529297 17.0871639251709 14.530651092529297 15.29796028137207 C14.530651092529297 13.513699531555176 15.832809448242188 13.79522705078125 16.078052520751953 15.29796028137207 L16.078052520751953 15.29796028137207"></path>
<path fill="none" stroke="black" stroke-width=".3" stroke-opacity="1.0"  filling="0" d="M12.630453109741211 15.900361061096191 L12.630453109741211 15.900361061096191 C12.386453628540039 16.157161712646484 12.252434730529785 16.684165954589844 11.898453712463379 16.670761108398438 C11.528647422790527 16.656757354736328 11.404053688049316 16.11996078491211 11.156853675842285 15.844560623168945 L11.527654647827148 15.844560623168945 C11.672761917114258 16.022306442260742 12.081387519836426 16.82903289794922 12.269554138183594 15.900361061096191 C12.388345718383789 15.314080238342285 11.09807014465332 15.302484512329102 11.28675365447998 14.621160507202148 C11.68283748626709 13.190923690795898 12.23993968963623 14.220117568969727 12.630453109741211 14.621160507202148 L12.269552230834961 14.621160507202148 C12.195671081542969 14.547568321228027 11.725699424743652 13.875865936279297 11.648252487182617 14.621160507202148 C11.592687606811523 15.155876159667969 12.305322647094727 15.472228050231934 12.630453109741211 15.900361061096191 L12.630453109741211 15.900361061096191"></path>
<path fill="none" stroke="black" stroke-width=".3" stroke-opacity="1.0"  filling="0" d="M11.49467945098877 22.313297271728516 L6.590579986572266 17.409048080444336 L1.6864805221557617 12.504799842834473 C1.5577772855758667 12.194210052490234 1.5576436519622803 11.806733131408691 1.6864805221557617 11.496198654174805 L6.590579986572266 6.591048240661621 L11.49467945098877 1.6858978271484375 C11.805669784545898 1.5584276914596558 12.1920166015625 1.5583628416061401 12.50298023223877 1.6858978271484375 L17.408279418945312 6.591047763824463 L22.313579559326172 11.496197700500488 C22.44131088256836 11.807188987731934 22.441177368164062 12.193753242492676 22.313579559326172 12.504799842834473 L17.408279418945312 17.409048080444336 L12.50298023223877 22.313297271728516 C12.19240665435791 22.4417781829834 11.805280685424805 22.44171142578125 11.494680404663086 22.313297271728516 L11.494680404663086 22.313297271728516"></path>
<path fill="none" stroke="black" stroke-width=".3" stroke-opacity="1.0"  filling="0" d="M12.699600219726562 22.50946617126465 L12.699600219726562 22.50946617126465 C12.291716575622559 22.737091064453125 11.74705696105957 22.63907814025879 11.298299789428711 22.50946617126465 L6.394200325012207 17.604915618896484 L1.4901008605957031 12.700364112854004 C1.3114275932312012 12.269111633300781 1.311429500579834 11.73121452331543 1.4901008605957031 11.29996109008789 L6.394200325012207 6.39541482925415 L11.298299789428711 1.4908685684204102 C11.729828834533691 1.3120794296264648 12.267990112304688 1.3122754096984863 12.699600219726562 1.4908685684204102 L17.603849411010742 6.395414352416992 L22.508098602294922 11.299960136413574 C22.687715530395508 11.730820655822754 22.68771743774414 12.269502639770508 22.508098602294922 12.700363159179688 L17.603849411010742 17.604915618896484 L12.699600219726562 22.50946617126465"></path></svg>