<svg xmlns="http://www.w3.org/2000/svg" viewBox="0.0 0.0 24.0 24.0" height="200px" width="200px"><path fill="none" stroke="black" stroke-width=".3" stroke-opacity="1.0"  filling="0" d="M19.3112735748291 1.2100458145141602 L19.3112735748291 1.2100458145141602 C20.152761459350586 1.3165843486785889 20.988170623779297 1.6044871807098389 21.71770477294922 2.0371904373168945 L21.71770477294922 2.036457061767578 C21.98518943786621 2.409040689468384 22.33620834350586 2.7340543270111084 22.520156860351562 3.154208183288574 C23.532590866088867 5.466692924499512 21.45785903930664 6.48561954498291 20.999935150146484 8.434738159179688 L20.999935150146484 9.986612319946289 C20.93534278869629 10.145086288452148 20.797700881958008 10.286246299743652 20.639999389648438 10.352703094482422 L16.52737808227539 11.873114585876465 L15.70371150970459 15.708892822265625 L14.880044937133789 19.54467010498047 L14.880044937133789 22.433944702148438 C14.815478324890137 22.59243392944336 14.677764892578125 22.73356056213379 14.520051002502441 22.799999237060547 L7.680172443389893 22.799999237060547 C7.522458076477051 22.73356056213379 7.384744644165039 22.592435836791992 7.320178985595703 22.433944702148438 L7.320178985595703 19.871231079101562 L4.080235958099365 19.871231079101562 C3.932170867919922 19.815074920654297 3.7987186908721924 19.696645736694336 3.7238359451293945 19.557113647460938 L3.032294273376465 14.64116382598877 L1.4252824783325195 13.987677574157715 C1.3091645240783691 13.880454063415527 1.2288373708724976 13.722416877746582 1.2092857360839844 13.565579414367676 L2.7288198471069336 6.829399585723877 C3.4982306957244873 4.266616344451904 5.391700744628906 2.8106026649475098 7.580162525177002 2.312530994415283 C9.768625259399414 1.814459204673767 12.252079010009766 2.274329423904419 14.201459884643555 3.543313980102539 L17.060897827148438 2.4084110260009766 C17.71487808227539 1.865675449371338 18.495655059814453 1.4488290548324585 19.3112735748291 1.2100458145141602 L19.3112735748291 1.2100458145141602"></path>
<path fill="none" stroke="black" stroke-width=".3" stroke-opacity="1.0"  filling="0" d="M19.31003189086914 1.9381275177001953 L19.31003189086914 1.9381275177001953 C21.90703582763672 2.2246506214141846 22.756032943725586 4.342884063720703 21.222434997558594 6.420472145080566 L21.22281837463379 6.420472145080566 C20.81392478942871 6.933324813842773 20.495223999023438 7.531285285949707 20.295795440673828 8.156136512756348 L19.919954299926758 8.156136512756348 L19.919954299926758 6.203745365142822 C19.862308502197266 5.956517219543457 19.744848251342773 5.716698169708252 19.58408546447754 5.520229339599609 L18.528226852416992 4.714816570281982 C18.454753875732422 4.609566688537598 18.477415084838867 4.535159111022949 18.600234985351562 4.495166301727295 L20.639999389648438 4.495166301727295 L20.639999389648438 3.7629642486572266 L18.599868774414062 3.7629642486572266 C17.74280548095703 4.044947624206543 17.584796905517578 4.563834190368652 18.095863342285156 5.300579071044922 L19.152103424072266 6.105990886688232 C19.175024032592773 6.134115219116211 19.19175910949707 6.168404579162598 19.199966430664062 6.203745365142822 L19.199966430664062 8.156136512756348 L18.825580596923828 8.156136512756348 C17.800941467285156 6.194381237030029 16.645811080932617 5.219425201416016 17.507999420166016 3.015399932861328 L17.525279998779297 2.986844062805176 C18.033451080322266 2.520056962966919 18.6546573638916 2.1540253162384033 19.31003189086914 1.9381275177001953 L19.31003189086914 1.9381275177001953"></path>
<path fill="none" stroke="black" stroke-width=".3" stroke-opacity="1.0"  filling="0" d="M9.651506423950195 2.664679527282715 L9.651506423950195 2.664679527282715 C11.105447769165039 2.831116199493408 12.16199016571045 3.097919464111328 13.415239334106445 3.8574304580688477 L8.83900260925293 5.593459129333496 L8.544153213500977 6.801568508148193 L7.495138168334961 6.161634922027588 L6.079287052154541 7.601494312286377 L6.708191394805908 8.668668746948242 L5.5202107429504395 8.970322608947754 L5.5202107429504395 11.006552696228027 L6.708191394805908 11.308226585388184 L6.078561305999756 12.37503719329834 L7.494411945343018 13.814896583557129 L8.544153213500977 13.171656608581543 L8.840799331665039 14.379765510559082 L10.8430814743042 14.379765510559082 L11.139708518981934 13.171656608581543 L12.188741683959961 13.8119535446167 L15.723515510559082 12.192718505859375 L14.16978645324707 19.42715072631836 C14.166543006896973 19.453140258789062 14.163300514221191 19.4791316986084 14.160057067871094 19.5051212310791 L14.160057067871094 22.067893981933594 L8.040165901184082 22.067893981933594 L8.040165901184082 19.700992584228516 L11.119905471801758 17.614240646362305 L10.720324516296387 17.005064010620117 L7.572172164916992 19.139028549194336 L4.393435478210449 19.139028549194336 L3.716649055480957 14.32779312133789 C3.6696524620056152 14.215923309326172 3.59067702293396 14.113221168518066 3.494168281555176 14.039670944213867 L1.9800310134887695 13.423898696899414 L3.425048828125 7.017205238342285 C4.099775791168213 5.665852069854736 4.90388822555542 4.657179832458496 5.91556978225708 3.9466161727905273 C6.927251815795898 3.2360527515411377 8.146502494812012 2.8235979080200195 9.651506423950195 2.664679527282715 L9.651506423950195 2.664679527282715"></path>
<path fill="none" stroke="black" stroke-width=".3" stroke-opacity="1.0"  filling="0" d="M16.50002670288086 3.415548324584961 L16.50002670288086 3.415548324584961 C16.172597885131836 4.79976749420166 16.501523971557617 5.545658588409424 17.194091796875 6.742636680603027 L16.529539108276367 7.006959438323975 C16.06997299194336 5.974930763244629 15.48659610748291 4.989712715148926 14.801578521728516 4.091360569000244 L16.50002670288086 3.415548324584961"></path>
<path fill="none" stroke="black" stroke-width=".3" stroke-opacity="1.0"  filling="0" d="M14.061786651611328 4.386802673339844 L14.061786651611328 4.386802673339844 C14.780571937561035 5.26353120803833 15.388776779174805 6.24298620223999 15.85743522644043 7.275296688079834 L13.161792755126953 8.347229957580566 L13.60279655456543 7.600022792816162 L12.186944961547852 6.160162925720215 L11.137911796569824 6.801568508148193 L10.857837677001953 5.662273406982422 L14.061786651611328 4.386802673339844"></path>
<path fill="none" stroke="black" stroke-width=".3" stroke-opacity="1.0"  filling="0" d="M9.401309967041016 6.325642108917236 L10.278976440429688 6.325642108917236 L10.573806762695312 7.525340557098389 L11.032797813415527 7.718650817871094 L12.07678508758545 7.08236837387085 L12.697412490844727 7.713528156280518 L12.068489074707031 8.77850341796875 L12.257862091064453 9.240877151489258 L13.440070152282715 9.54033374786377 L13.440070152282715 10.432891845703125 L12.257862091064453 10.733819961547852 L12.068489074707031 11.194740295410156 L12.69596004486084 12.258244514465332 L12.043295860290527 12.871454238891602 L11.032797813415527 12.25640869140625 L10.573806762695312 12.449719429016113 L10.278976440429688 13.6475830078125 L9.401309967041016 13.6475830078125 L9.106460571289062 12.449356079101562 L8.64676284790039 12.255319595336914 L7.604935646057129 12.890856742858887 L6.984307765960693 12.259716033935547 L7.608165740966797 11.200953483581543 L7.417741775512695 10.732710838317871 L6.240198135375977 10.432891845703125 L6.240198135375977 9.54033374786377 L7.422425270080566 9.239405632019043 L7.611778259277344 8.77850341796875 L6.984307765960693 7.714980602264404 L7.604935646057129 7.083840370178223 L8.64676284790039 7.716815948486328 L9.106460571289062 7.522778511047363 L9.401309967041016 6.325642108917236"></path>
<path fill="none" stroke="black" stroke-width=".3" stroke-opacity="1.0"  filling="0" d="M17.749919891357422 7.308250904083252 L17.749919891357422 7.308250904083252 C17.873275756835938 7.683013916015625 17.996631622314453 8.057777404785156 18.11998748779297 8.432539939880371 L18.11998748779297 9.986612319946289 C18.17131996154785 10.129109382629395 18.2780704498291 10.260212898254395 18.40799331665039 10.338061332702637 L16.716026306152344 11.00399112701416 C16.832658767700195 9.914983749389648 16.8341121673584 8.807598114013672 16.72034454345703 7.718287944793701 L17.749919891357422 7.308250904083252"></path>
<path fill="none" stroke="black" stroke-width=".3" stroke-opacity="1.0"  filling="0" d="M16.041397094726562 7.987350940704346 L16.041397094726562 7.987350940704346 C16.12745475769043 8.9369535446167 16.117158889770508 9.900125503540039 16.010793685913086 10.847668647766113 L15.906389236450195 11.33385944366455 L13.544114112854004 12.273994445800781 L12.972076416015625 11.306390762329102 L14.160057067871094 11.004737854003906 L14.160057067871094 8.968507766723633 L13.80367660522461 8.878073692321777 L16.041397094726562 7.987350940704346"></path>
<path fill="none" stroke="black" stroke-width=".3" stroke-opacity="1.0"  filling="0" d="M9.840229034423828 8.522285461425781 L9.840229034423828 8.522285461425781 C10.179636001586914 8.665253639221191 10.600227355957031 8.688590049743652 10.85844898223877 8.951189041137695 C11.8548583984375 9.964488983154297 10.922481536865234 11.6986722946167 9.559295654296875 11.422916412353516 C7.578636169433594 11.022253036499023 8.502202987670898 8.935054779052734 9.840229034423828 8.522285461425781 L9.840229034423828 8.522285461425781"></path>
<path fill="none" stroke="black" stroke-width=".3" stroke-opacity="1.0"  filling="0" d="M18.83997344970703 8.88831901550293 L20.279949188232422 8.88831901550293 L20.279949188232422 9.620521545410156 L18.83997344970703 9.620521545410156 L18.83997344970703 8.88831901550293"></path>
<path fill="none" stroke="black" stroke-width=".3" stroke-opacity="1.0"  filling="0" d="M9.699752807617188 9.2685546875 L9.699752807617188 9.2685546875 C10.602848052978516 9.358978271484375 10.966293334960938 10.606099128723145 9.840229034423828 10.718871116638184 C8.8186674118042 10.82117748260498 9.12557601928711 9.580668449401855 9.699752807617188 9.2685546875 L9.699752807617188 9.2685546875"></path></svg>