<svg xmlns="http://www.w3.org/2000/svg" viewBox="0.0 0.0 24.0 24.0" height="200px" width="200px"><path fill="none" stroke="black" stroke-width=".3" stroke-opacity="1.0"  filling="0" d="M14.369558334350586 9.34465217590332 L14.369558334350586 9.34465217590332 C14.664395332336426 11.129638671875 17.73155975341797 11.764588356018066 19.171367645263672 12.745506286621094 L19.50189971923828 13.011774063110352 L19.14943504333496 13.037782669067383 C18.228212356567383 13.262072563171387 21.474658966064453 13.436857223510742 22.115230560302734 13.874602317810059 C22.23280143737793 13.95494556427002 21.83204460144043 13.904967308044434 21.690673828125 13.922056198120117 C21.309267044067383 13.968161582946777 20.917797088623047 13.963937759399414 20.54692268371582 14.06418228149414 C20.170730590820312 14.165863990783691 19.15968894958496 15.140692710876465 19.03168296813965 14.057022094726562 C19.002511978149414 13.810063362121582 19.555959701538086 13.99087905883789 19.740415573120117 13.82409954071045 C20.2220401763916 13.388628005981445 18.44072151184082 13.894641876220703 17.792722702026367 13.853487014770508 C17.30217933654785 13.822332382202148 16.82659339904785 13.671772003173828 16.34407615661621 13.578070640563965 C14.666841506958008 13.252363204956055 13.138204574584961 13.290244102478027 11.42312240600586 13.427770614624023 C11.355216026306152 13.433216094970703 8.610442161560059 13.799818992614746 8.023983001708984 13.669661521911621 C7.3741044998168945 13.525428771972656 6.788389682769775 13.038848876953125 6.122966289520264 13.057744026184082 C6.013512134552002 13.06085205078125 6.320326328277588 13.153081893920898 6.422057151794434 13.193588256835938 C6.909977436065674 13.387864112854004 7.504021644592285 13.407432556152344 7.891504764556885 13.761926651000977 C8.037542343139648 13.89553165435791 7.5867390632629395 14.083678245544434 7.388885021209717 14.078104972839355 C6.7733869552612305 14.060769081115723 6.089001655578613 13.22891902923584 5.602808475494385 13.6067476272583 C5.479166507720947 13.702832221984863 6.028659820556641 13.665465354919434 6.020435333251953 13.821836471557617 C5.985917568206787 14.478103637695312 4.687488555908203 14.059279441833496 4.050388336181641 13.898092269897461 C3.8961334228515625 13.859066009521484 4.45822286605835 13.664040565490723 4.36251163482666 13.536930084228516 C4.107413291931152 13.198143005371094 3.539503335952759 13.771044731140137 3.1158876419067383 13.79108715057373 C2.747751235961914 13.808505058288574 2.3811070919036865 13.732701301574707 2.013716697692871 13.703508377075195 L1.7276287078857422 13.647602081298828 L2.013716697692871 13.54824447631836 C5.478577613830566 12.612630844116211 2.031074047088623 13.574019432067871 1.8220691680908203 13.435649871826172 C1.7158411741256714 13.365323066711426 4.239151477813721 11.771904945373535 4.354429244995117 11.72282886505127 C6.314237117767334 10.88849925994873 8.424793243408203 10.17552375793457 10.555839538574219 9.976203918457031 C11.986797332763672 9.842364311218262 13.132511138916016 10.095300674438477 14.369558334350586 9.34465217590332 L14.369558334350586 9.34465217590332"></path>
<path fill="none" stroke="black" stroke-width=".3" stroke-opacity="1.0"  filling="0" d="M14.052031517028809 9.366889953613281 L14.052031517028809 9.366889953613281 C14.457094192504883 9.397305488586426 14.542028427124023 10.03244400024414 14.873973846435547 10.266565322875977 C16.27010726928711 11.25125789642334 17.96612548828125 11.736422538757324 19.389392852783203 12.73879337310791 L20.3256778717041 13.164271354675293 C20.657480239868164 13.244078636169434 21.000455856323242 13.286825180053711 21.321086883544922 13.403694152832031 C23.879558563232422 14.336248397827148 21.409727096557617 13.97010326385498 20.560691833496094 14.206721305847168 C20.161556243896484 14.317956924438477 19.885238647460938 14.833590507507324 19.47179412841797 14.806260108947754 C19.335567474365234 14.79725456237793 18.92877769470215 14.21081256866455 18.91459846496582 14.192278861999512 L18.38060760498047 14.025655746459961 C16.71194839477539 13.891582489013672 15.200528144836426 13.447454452514648 13.5092134475708 13.470256805419922 C11.1080322265625 13.502629280090332 8.765321731567383 14.131300926208496 6.440406799316406 14.17601203918457 C5.3729753494262695 14.196539878845215 2.510711669921875 14.353991508483887 1.5946617126464844 13.656434059143066 C1.4478063583374023 13.54460620880127 1.7819650173187256 13.335578918457031 1.9042081832885742 13.197273254394531 C2.2652299404144287 12.788812637329102 2.6857807636260986 12.424270629882812 3.148341417312622 12.135801315307617 C4.809892654418945 11.099599838256836 7.036349296569824 10.477547645568848 8.921065330505371 10.082305908203125 C10.651792526245117 9.719356536865234 12.319832801818848 9.755817413330078 14.052031517028809 9.366889953613281 L14.052031517028809 9.366889953613281"></path>
<path fill="none" stroke="black" stroke-width=".3" stroke-opacity="1.0"  filling="0" d="M4.260297775268555 12.946754455566406 L4.260297775268555 12.946754455566406 C4.710812568664551 12.946754455566406 4.404372215270996 13.055919647216797 4.260297775268555 12.946754455566406 L4.260297775268555 12.946754455566406"></path></svg>