<svg xmlns="http://www.w3.org/2000/svg" width="508.21319580078125" height="407.4847717285156" viewBox="-239.3232879638672 -118.50362396240234 508.21319580078125 407.4847717285156"><title>Neo4j Graph Visualization</title><desc>Created using Neo4j (http://www.neo4j.com/)</desc><g class="layer relationships"><g class="relationship" transform="translate(34.29709440218966 115.43847411448868) rotate(269.4922065296122)"><path class="outline" fill="#A5ABB6" stroke="none" d="M 40 1.5 L 77.4747773292455 1.5 L 77.4747773292455 -1.5 L 40 -1.5 Z M 103.4747773292455 1.5 L 140.949554658491 1.5 L 140.949554658491 4.5 L 149.949554658491 0 L 140.949554658491 -4.5 L 140.949554658491 -1.5 L 103.4747773292455 -1.5 Z"/><text text-anchor="middle" pointer-events="none" font-size="8px" fill="#000000" x="90.4747773292455" y="3" transform="rotate(180 90.4747773292455 0)" font-family="sans-serif">DATE</text></g><g class="relationship" transform="translate(34.29709440218966 115.43847411448868) rotate(320.9491277401273)"><path class="outline" fill="#A5ABB6" stroke="none" d="M 40 1.5 L 89.7052354796921 1.5 L 89.7052354796921 -1.5 L 40 -1.5 Z M 125.7052354796921 1.5 L 175.4104709593842 1.5 L 175.4104709593842 4.5 L 184.4104709593842 0 L 175.4104709593842 -4.5 L 175.4104709593842 -1.5 L 125.7052354796921 -1.5 Z"/><text text-anchor="middle" pointer-events="none" font-size="8px" fill="#000000" x="107.7052354796921" y="3" font-family="sans-serif">ACTION</text></g><g class="relationship" transform="translate(-133.46586290810586 -12.0612379563309) rotate(397.2348046509669)"><path class="outline" fill="#A5ABB6" stroke="none" d="M 40 1.5 L 75.3572332870861 1.5 L 75.3572332870861 -1.5 L 40 -1.5 Z M 126.3572332870861 1.5 L 161.7144665741722 1.5 L 161.7144665741722 4.5 L 170.7144665741722 0 L 161.7144665741722 -4.5 L 161.7144665741722 -1.5 L 126.3572332870861 -1.5 Z"/><text text-anchor="middle" pointer-events="none" font-size="8px" fill="#000000" x="100.8572332870861" y="3" font-family="sans-serif">PERSON_IN</text></g><g class="relationship" transform="translate(34.29709440218966 115.43847411448868) rotate(504.96431082365075)"><path class="outline" fill="#A5ABB6" stroke="none" d="M 40 1.5 L 61.90460647876948 1.5 L 61.90460647876948 -1.5 L 40 -1.5 Z M 134.9046064787695 1.5 L 156.80921295753896 1.5 L 156.80921295753896 4.5 L 165.80921295753896 0 L 156.80921295753896 -4.5 L 156.80921295753896 -1.5 L 134.9046064787695 -1.5 Z"/><text text-anchor="middle" pointer-events="none" font-size="8px" fill="#000000" x="98.40460647876948" y="3" transform="rotate(180 98.40460647876948 0)" font-family="sans-serif">PLACE_OF_ISSUE</text></g><g class="relationship" transform="translate(-133.46586290810586 -12.0612379563309) rotate(487.2348046509669)"><path class="outline" fill="#A5ABB6" stroke="none" d="M 11.801650543534434 38.24880448390895 L 22.154412347635265 76.88583753547168 A 22.935935394489817 22.935935394489817 0 1 1 -22.154412347635265 76.88583753547168 L -14.13102194945712 46.94213692051056 L -8.33546699172271 48.49505119112569 L -10.352761804100831 38.63703305156273 L -17.028799428324326 46.165679785203004 L -11.233244470589915 47.71859405581813 L -19.25663486876806 77.66229467077923 A 19.935935394489817 19.935935394489817 0 1 0 19.25663486876806 77.66229467077923 L 8.903873064667229 39.02526161921651 Z"/><text text-anchor="middle" pointer-events="none" font-size="8px" fill="#000000" x="0" y="114.75802982729645" transform="rotate(180 0 111.75802982729645)" font-family="sans-serif">KNOWS</text></g><g class="relationship" transform="translate(34.29709440218966 115.43847411448868) rotate(359.590090167363)"><path class="outline" fill="#A5ABB6" stroke="none" d="M 40 1.5 L 60.79883117514413 1.5 L 60.79883117514413 -1.5 L 40 -1.5 Z M 120.79883117514413 1.5 L 141.59766235028826 1.5 L 141.59766235028826 4.5 L 150.59766235028826 0 L 141.59766235028826 -4.5 L 141.59766235028826 -1.5 L 120.79883117514413 -1.5 Z"/><text text-anchor="middle" pointer-events="none" font-size="8px" fill="#000000" x="90.79883117514413" y="3" font-family="sans-serif">REFERENCES</text></g><g class="relationship" transform="translate(-195.32328822945465 114.57425638594913) rotate(360.215641982899)"><path class="outline" fill="#A5ABB6" stroke="none" d="M 40 1.5 L 88.81100447276935 1.5 L 88.81100447276935 -1.5 L 40 -1.5 Z M 131.81100447276935 1.5 L 180.6220089455387 1.5 L 180.6220089455387 4.5 L 189.6220089455387 0 L 180.6220089455387 -4.5 L 180.6220089455387 -1.5 L 131.81100447276935 -1.5 Z"/><text text-anchor="middle" pointer-events="none" font-size="8px" fill="#000000" x="110.31100447276935" y="3" font-family="sans-serif">PLACE_IN</text></g></g><g class="layer nodes"><g class="node" transform="translate(37.69567447416907,244.98115089559894)"><circle class="outline" cx="0" cy="0" r="40" fill="#FB95AF" stroke="#E0849B" stroke-width="2px"/><text text-anchor="middle" pointer-events="none" font-family="sans-serif" dy="2.5" font-size="40" fill="#FFFFFF"/><text text-anchor="middle" pointer-events="none" y="5" font-size="10px" fill="#FFFFFF" font-family="sans-serif"> Literature</text></g><g class="node" transform="translate(208.57132388220407,-25.942403006004184)"><circle class="outline" cx="0" cy="0" r="40" fill="#DE9BF9" stroke="#BF85D6" stroke-width="2px"/><text text-anchor="middle" pointer-events="none" font-family="sans-serif" dy="2.5" font-size="40" fill="#FFFFFF"/><text text-anchor="middle" pointer-events="none" y="5" font-size="10px" fill="#FFFFFF" font-family="sans-serif"> Lemma</text></g><g class="node" transform="translate(224.8898790295309,114.0748974241584)"><circle class="outline" cx="0" cy="0" r="40" fill="#FFD86E" stroke="#EDBA39" stroke-width="2px"/><text text-anchor="middle" pointer-events="none" font-family="sans-serif" dy="2.5" font-size="40" fill="#604A0E"/><text text-anchor="middle" pointer-events="none" y="5" font-size="10px" fill="#604A0E" font-family="sans-serif"> Reference</text></g><g class="node" transform="translate(-195.32328822945465,114.57425638594913)"><circle class="outline" cx="0" cy="0" r="40" fill="#6DCE9E" stroke="#60B58B" stroke-width="2px"/><text text-anchor="middle" pointer-events="none" font-family="sans-serif" dy="2.5" font-size="40" fill="#FFFFFF"/><text text-anchor="middle" pointer-events="none" y="5" font-size="10px" fill="#FFFFFF" font-family="sans-serif"> IndexPlace</text></g><g class="node" transform="translate(162.30840363053215,243.04670516836194)"><circle class="outline" cx="0" cy="0" r="40" fill="#FB95AF" stroke="#E0849B" stroke-width="2px"/><text text-anchor="middle" pointer-events="none" font-family="sans-serif" dy="2.5" font-size="40" fill="#FFFFFF"/><text text-anchor="middle" pointer-events="none" y="5" font-size="10px" fill="#FFFFFF" font-family="sans-serif"> IndexEntry</text></g><g class="node" transform="translate(34.29709440218966,115.43847411448868)"><circle class="outline" cx="0" cy="0" r="40" fill="#FF756E" stroke="#E06760" stroke-width="2px"/><text text-anchor="middle" pointer-events="none" font-family="sans-serif" dy="2.5" font-size="40" fill="#FFFFFF"/><text text-anchor="middle" pointer-events="none" y="5" font-size="10px" fill="#FFFFFF" font-family="sans-serif"> Regesta</text></g><g class="node" transform="translate(-133.46586290810586,-12.0612379563309)"><circle class="outline" cx="0" cy="0" r="40" fill="#68BDF6" stroke="#5CA8DB" stroke-width="2px"/><text text-anchor="middle" pointer-events="none" font-family="sans-serif" dy="2.5" font-size="40" fill="#FFFFFF"/><text text-anchor="middle" pointer-events="none" y="5" font-size="10px" fill="#FFFFFF" font-family="sans-serif"> IndexPerson</text></g><g class="node" transform="translate(32.6136566049415,-74.50362062004311)"><circle class="outline" cx="0" cy="0" r="40" fill="#A5ABB6" stroke="#9AA1AC" stroke-width="2px"/><text text-anchor="middle" pointer-events="none" font-family="sans-serif" dy="2.5" font-size="40" fill="#FFFFFF"/><text text-anchor="middle" pointer-events="none" y="5" font-size="10px" fill="#FFFFFF" font-family="sans-serif"> Date</text></g><g class="node" transform="translate(-134.21837950320855,233.59077918146855)"><circle class="outline" cx="0" cy="0" r="40" fill="#6DCE9E" stroke="#60B58B" stroke-width="2px"/><text text-anchor="middle" pointer-events="none" font-family="sans-serif" dy="2.5" font-size="40" fill="#FFFFFF"/><text text-anchor="middle" pointer-events="none" y="5" font-size="10px" fill="#FFFFFF" font-family="sans-serif"> Place</text></g></g></svg>